<?xml version="1.0" encoding="UTF-8"?>
<svg width="208px" height="167px" viewBox="0 0 208 167" version="1.1" xmlns="http://www.w3.org/2000/svg" xmlns:xlink="http://www.w3.org/1999/xlink">
    <!-- Generator: Sketch 46.1 (44463) - http://www.bohemiancoding.com/sketch -->
    <title>Group 48</title>
    <desc>Created with Sketch.</desc>
    <defs></defs>
    <g id="App" stroke="none" stroke-width="1" fill="none" fill-rule="evenodd">
        <g id="Group-48">
            <polygon id="Star-6" fill="#F7AB14" points="54.5 12.1502352 46 17 50.8497648 8.5 46 -4.4408921e-15 54.5 4.84976477 63 -7.10542736e-15 58.1502352 8.5 63 17"></polygon>
            <g id="Group-5" transform="translate(0.000000, 17.000000)">
                <polygon id="Rectangle-76" fill="#4B5EC2" points="113.949339 149.828146 207.381477 94.0529109 149.568299 60.7458418 56.2189124 111.903766"></polygon>
                <polygon id="Rectangle-76" fill="#4B5EC2" points="56.1748427 111.948186 207.381477 94.0529109 207.381477 90.2375803 56.1748427 108.1054"></polygon>
                <polygon id="Rectangle-76" fill="#B2C0FF" points="113.949339 146.030092 207.381477 90.2548565 149.568299 56.9477875 56.2189124 108.105712"></polygon>
                <polygon id="Rectangle-77" fill="#66D7FE" points="144.713579 47.8156057 157.151249 54.383083 157.151249 95.1498128 144.713579 88.1812299"></polygon>
                <polygon id="Rectangle-77" fill="#5CCFF6" points="168.755872 47.8182182 157.151249 54.4471762 157.151249 95.1498128 168.755872 88.1874112"></polygon>
                <polygon id="Rectangle-78" fill="#7CDDFF" points="144.664412 47.8388535 157.194339 54.5510723 168.828042 47.8388535 156.493367 40.9959591"></polygon>
                <polygon id="Rectangle-77" fill="#00B7D0" points="129.521362 69.6421044 141.959032 75.9067075 141.959032 105.40456 129.521362 98.4359767"></polygon>
                <polygon id="Rectangle-77" fill="#00ABC2" points="153.563655 69.4809303 141.959032 76.3915991 141.959032 105.40456 153.563655 98.442158"></polygon>
                <polygon id="Rectangle-78" fill="#00D4EF" points="129.472194 69.8675689 142.002121 76.5797877 153.635825 69.8675689 141.30115 63.0246745"></polygon>
                <polygon id="Rectangle-77" fill="#52CAB2" points="114.329144 93.7889149 126.766814 100.452373 126.766814 114.51989 114.329144 107.551307"></polygon>
                <polygon id="Rectangle-77" fill="#44BCA5" points="138.371437 93.7459016 126.766814 100.452373 126.766814 114.51989 138.371437 107.557488"></polygon>
                <polygon id="Rectangle-78" fill="#8BE9D6" points="114.279977 93.7953115 126.809904 100.50753 138.443607 93.7953115 126.108932 86.9524171"></polygon>
                <polygon id="Rectangle-77" fill="#4486D7" points="99.5167324 95.7677678 111.954402 102.295 111.954402 124.015026 99.5167324 117.046443"></polygon>
                <polygon id="Rectangle-77" fill="#3677C6" points="123.559025 95.6515058 111.954402 102.341952 111.954402 124.015026 123.559025 117.052624"></polygon>
                <polygon id="Rectangle-78" fill="#5D9FF0" points="99.4675649 95.6943387 111.997492 102.406557 123.631195 95.6943387 111.29652 88.8514442"></polygon>
                <path d="M109.20934,96.5203375 C109.735917,92.0402873 112.057895,87.0577972 117.069085,85.3679996 C122.080276,83.6782019 121.759683,88.8083362 126.245056,84.507506 C130.730428,80.2066758 129.743457,75.4319652 131.944316,71.104783 C133.892048,67.2752803 138.61214,67.0294507 141.059408,63.511975 C146.547377,55.6240798 146.971399,51.3300581 151.445484,40.0747905 C155.91957,28.8195229 163.120211,37.6009613 165.677894,36.5940864 C167.383016,35.9228364 168.83222,34.6449584 170.025506,32.7604525" id="Path-221" stroke="#FF939F" stroke-width="5" stroke-linecap="round"></path>
                <path d="M108.505297,65.6552841 L119.317709,71.1927783 L119.317709,71.1927783 C119.985776,71.5349237 120.406031,72.2223188 120.406031,72.9729032 L120.406031,77.7060877 L120.406031,77.7060877 C120.406031,78.8106572 119.510601,79.7060877 118.406031,79.7060877 C118.076245,79.7060877 117.751576,79.6245368 117.460933,79.4686963 L113.715382,77.460358 C113.039562,78.26301 112.545292,78.580497 112.232573,78.4128192 C111.919853,78.2451413 111.445057,77.4080478 110.808183,75.9015388 L105.593619,73.1055262 L105.593619,67.4354089 L105.593619,67.4354089 C105.593619,66.3308394 106.48905,65.4354089 107.593619,65.4354089 C107.910643,65.4354089 108.223126,65.5107724 108.505297,65.6552841 Z" id="Rectangle-79" fill="#5595E7"></path>
                <path d="M107.36588,66.0350895 L118.178292,71.5725838 L118.178292,71.5725838 C118.846359,71.9147291 119.266615,72.6021242 119.266615,73.3527086 L119.266615,78.0858932 L119.266615,78.0858932 C119.266615,79.1904627 118.371185,80.0858932 117.266615,80.0858932 C116.936828,80.0858932 116.612159,80.0043422 116.321517,79.8485018 L112.575965,77.8401634 C111.900145,78.6428154 111.405876,78.9603025 111.093156,78.7926246 C110.780437,78.6249467 110.305641,77.7878533 109.668767,76.2813442 L104.454203,73.4853316 L104.454203,67.8152144 L104.454203,67.8152144 C104.454203,66.7106449 105.349634,65.8152144 106.454203,65.8152144 C106.771227,65.8152144 107.083709,65.8905778 107.36588,66.0350895 Z" id="Rectangle-79" fill="#619FEF"></path>
                <ellipse id="Oval-41" fill="#FFFFFF" cx="108.44216" cy="71.5702968" rx="1" ry="1.32931903"></ellipse>
                <ellipse id="Oval-41" fill="#FFFFFF" cx="111.480604" cy="73.0895186" rx="1" ry="1.32931903"></ellipse>
                <ellipse id="Oval-41" fill="#FFFFFF" cx="114.898853" cy="74.9885458" rx="1" ry="1.32931903"></ellipse>
                <g id="Group-120" transform="translate(149.651050, 12.064363)">
                    <path d="M4.05109365,1.17777099 L14.8635057,6.71526523 L14.8635057,6.71526523 C15.5315727,7.05741062 15.9518284,7.74480568 15.9518284,8.49539007 L15.9518284,13.2285746 L15.9518284,13.2285746 C15.9518284,14.3331441 15.0563979,15.2285746 13.9518284,15.2285746 C13.6220417,15.2285746 13.2973725,15.1470237 13.0067301,14.9911832 L9.26117856,12.9828449 C8.58535855,13.7854969 8.09108893,14.1029839 7.77836967,13.9353061 C7.46565042,13.7676282 6.99085399,12.9305347 6.35398038,11.4240257 L1.13941631,8.62801309 L1.13941631,2.95789583 L1.13941631,2.95789583 C1.13941631,1.85332633 2.03484681,0.957895827 3.13941631,0.957895827 C3.45644015,0.957895827 3.76892265,1.03325927 4.05109365,1.17777099 Z" id="Rectangle-79" fill="#5595E7"></path>
                    <path d="M2.91167734,1.55757643 L13.7240894,7.09507067 L13.7240894,7.09507067 C14.3921564,7.43721606 14.8124121,8.12461112 14.8124121,8.87519551 L14.8124121,13.6083801 L14.8124121,13.6083801 C14.8124121,14.7129496 13.9169816,15.6083801 12.8124121,15.6083801 C12.4826254,15.6083801 12.1579562,15.5268291 11.8673137,15.3709887 L8.12176224,13.3626503 C7.44594224,14.1653023 6.95167261,14.4827894 6.63895336,14.3151115 C6.32623411,14.1474337 5.85143767,13.3103402 5.21456406,11.8038311 L0,9.00781853 L0,3.33770127 L8.8817842e-16,3.33770127 C7.52907669e-16,2.23313177 0.8954305,1.33770127 2,1.33770127 C2.31702383,1.33770127 2.62950634,1.41306471 2.91167734,1.55757643 Z" id="Rectangle-79" fill="#619FEF"></path>
                    <ellipse id="Oval-41" fill="#FFFFFF" cx="3.9879571" cy="7.09278373" rx="1" ry="1.32931903"></ellipse>
                    <ellipse id="Oval-41" fill="#FFFFFF" cx="7.0264006" cy="8.61200548" rx="1" ry="1.32931903"></ellipse>
                    <ellipse id="Oval-41" fill="#FFFFFF" cx="10.4446495" cy="10.5110327" rx="1" ry="1.32931903"></ellipse>
                </g>
                <g id="Group-120" transform="translate(55.964166, 32.130746)">
                    <path d="M5.19050996,1.11138787 L16.002922,6.64888211 L16.002922,6.64888211 C16.670989,6.9910275 17.0912447,7.67842256 17.0912447,8.42900695 L17.0912447,13.1621915 L17.0912447,13.1621915 C17.0912447,14.266761 16.1958142,15.1621915 15.0912447,15.1621915 C14.761458,15.1621915 14.4367888,15.0806406 14.1461464,14.9248001 L10.4005949,12.9164618 L7.49339669,11.3576425 L2.27883263,8.56162997 L2.27883263,2.8915127 L2.27883263,2.8915127 C2.27883263,1.7869432 3.17426313,0.891512703 4.27883263,0.891512703 C4.59585646,0.891512703 4.90833897,0.966876145 5.19050996,1.11138787 Z" id="Rectangle-79" fill="#5595E7"></path>
                    <path d="M3.84653187,1.38642855 L14.8635057,7.02868755 L14.8635057,7.02868755 C15.5315727,7.37083293 15.9518284,8.058228 15.9518284,8.80881238 L15.9518284,13.5419969 L15.9518284,13.5419969 C15.9518284,14.6465664 15.0563979,15.5419969 13.9518284,15.5419969 C13.6220417,15.5419969 13.2973725,15.460446 13.0067301,15.3046056 L9.26117856,13.2962672 L6.35398038,11.737448 L1.13941631,8.9414354 L1.13941631,6.40611398 C0.54926909,5.43094399 0.254195478,4.75601866 0.254195478,4.38133798 C0.254195478,4.0066573 0.54926909,3.56004116 1.13941631,3.04148957 L1.13941631,3.04148957 L1.13941631,3.04148957 C1.13941631,2.01452231 1.97193776,1.18200086 2.99890502,1.18200086 C3.29365613,1.18200086 3.58418498,1.2520696 3.84653187,1.38642855 Z" id="Rectangle-79" fill="#619FEF"></path>
                    <ellipse id="Oval-41" fill="#FFFFFF" cx="5.12737341" cy="7.0264006" rx="1" ry="1.32931903"></ellipse>
                    <ellipse id="Oval-41" fill="#FFFFFF" cx="8.16581692" cy="8.54562235" rx="1" ry="1.32931903"></ellipse>
                    <ellipse id="Oval-41" fill="#FFFFFF" cx="11.5840659" cy="10.4446495" rx="1" ry="1.32931903"></ellipse>
                </g>
                <g id="Group-119" transform="translate(0.132766, 16.558723)">
                    <ellipse id="Oval-44" fill="#C7C2C2" cx="29.8147269" cy="64.3770217" rx="29.8147269" ry="13.1032876"></ellipse>
                    <ellipse id="Oval-44" fill="#D8D8D8" cx="29.8147269" cy="62.4779945" rx="29.8147269" ry="13.1032876"></ellipse>
                    <path d="M23.136148,69.3388419 L29.6131369,60.4861115 L50.4865219,59.876107 C46.811188,51.2271547 39.853393,47.2454552 29.6131369,47.9310088 C14.2527527,48.9593391 9.11533051,52.9292946 9.11533051,59.0949926 C9.11533051,63.205458 13.7889363,66.6200744 23.136148,69.3388419 Z" id="Oval-42" fill="#81F0D1"></path>
                    <polygon id="Rectangle-80" fill="#81F0D1" points="9.11533051 11.3941631 50.0026139 12.8581401 50.5141232 60.0092592 9.11533051 60.0092592"></polygon>
                    <polygon id="Rectangle-80" fill="#64DFBD" points="29.8147269 12.8581401 50.0026139 12.8581401 50.5141232 60.0092592 29.8147269 60.0092592"></polygon>
                    <polygon id="Rectangle-80" fill="#71E9C8" points="29.8147269 12.8581401 23.8329381 21.3572528 23.8329381 68.9220672 29.8147269 60.0092592"></polygon>
                    <path d="M23.136148,22.2429676 L29.6131369,13.3902372 L50.4865219,12.7802327 C46.2835067,2.19670566 36.9072228,-1.78499375 22.3576701,0.835134475 C12.5474477,2.60178951 9.11533051,6.91105425 9.11533051,11.9991183 C9.11533051,16.1095837 13.7889363,19.5242001 23.136148,22.2429676 Z" id="Oval-42" fill="#81F0D1"></path>
                    <path d="M23.4627771,44.7281275 C33.1868362,44.7281275 39.7578128,44.4831288 43.1757068,43.9931315 C43.2568983,43.9814917 45.7025265,42.2597086 50.5125915,38.8277823 L50.8588149,37.6029966 L50.8588149,60.0655742 C49.613852,64.8747193 47.0528159,67.6755756 43.1757068,68.4681433 C39.2985976,69.2607109 32.727621,69.4921584 23.4627771,69.1624855 L23.4627771,44.7281275 Z" id="Rectangle-81" fill="#E0E0E0"></path>
                    <path d="M23.3947766,45.2248311 C34.8170536,45.3752884 41.8729282,44.9165619 44.5624006,43.8486513 C50.1410515,41.6335327 52.0525375,38.4015155 50.2968585,34.1525999 L29.7995421,34.1525999 L23.3947766,45.2248311 Z" id="Oval-43" fill="#EDEAEA"></path>
                </g>
                <path d="M54,48.6522823 L54,30.7650994" id="Line-18" stroke="#FF939F" stroke-width="4" stroke-linecap="round"></path>
                <polygon id="Star-6" fill="#F7AB14" points="182.314318 20.2020798 178.554436 22.3473202 180.699676 18.5874382 178.554436 14.8275562 182.314318 16.9727966 186.0742 14.8275562 183.928959 18.5874382 186.0742 22.3473202"></polygon>
                <polygon id="Star-6" fill="#EEC77B" points="112.215786 57.375408 109.950274 58.6680198 111.242886 56.4025079 109.950274 54.136996 112.215786 55.4296077 114.481298 54.136996 113.188686 56.4025079 114.481298 58.6680198"></polygon>
                <polygon id="Star-6" fill="#FFD27A" points="24.6904315 6.27433726 20.9305495 8.41957765 23.0757899 4.65969564 20.9305495 0.899813627 24.6904315 3.04505402 28.4503135 0.899813627 26.3050731 4.65969564 28.4503135 8.41957765"></polygon>
            </g>
        </g>
    </g>
</svg>