<?xml version="1.0" encoding="UTF-8"?>
<svg width="191px" height="121px" viewBox="0 0 191 121" version="1.1" xmlns="http://www.w3.org/2000/svg" xmlns:xlink="http://www.w3.org/1999/xlink">
    <!-- Generator: Sketch 46.1 (44463) - http://www.bohemiancoding.com/sketch -->
    <title>Group 181</title>
    <desc>Created with Sketch.</desc>
    <defs>
        <filter x="-28.0%" y="-20.0%" width="156.0%" height="156.0%" filterUnits="objectBoundingBox" id="filter-1">
            <feOffset dx="0" dy="2" in="SourceAlpha" result="shadowOffsetOuter1"></feOffset>
            <feGaussianBlur stdDeviation="2" in="shadowOffsetOuter1" result="shadowBlurOuter1"></feGaussianBlur>
            <feColorMatrix values="0 0 0 0 0   0 0 0 0 0   0 0 0 0 0  0 0 0 0.2 0" type="matrix" in="shadowBlurOuter1" result="shadowMatrixOuter1"></feColorMatrix>
            <feMerge>
                <feMergeNode in="shadowMatrixOuter1"></feMergeNode>
                <feMergeNode in="SourceGraphic"></feMergeNode>
            </feMerge>
        </filter>
        <filter x="-28.0%" y="-20.0%" width="156.0%" height="156.0%" filterUnits="objectBoundingBox" id="filter-2">
            <feOffset dx="0" dy="2" in="SourceAlpha" result="shadowOffsetOuter1"></feOffset>
            <feGaussianBlur stdDeviation="2" in="shadowOffsetOuter1" result="shadowBlurOuter1"></feGaussianBlur>
            <feColorMatrix values="0 0 0 0 0   0 0 0 0 0   0 0 0 0 0  0 0 0 0.2 0" type="matrix" in="shadowBlurOuter1" result="shadowMatrixOuter1"></feColorMatrix>
            <feMerge>
                <feMergeNode in="shadowMatrixOuter1"></feMergeNode>
                <feMergeNode in="SourceGraphic"></feMergeNode>
            </feMerge>
        </filter>
        <filter x="-28.2%" y="-20.1%" width="156.4%" height="156.4%" filterUnits="objectBoundingBox" id="filter-3">
            <feOffset dx="0" dy="2" in="SourceAlpha" result="shadowOffsetOuter1"></feOffset>
            <feGaussianBlur stdDeviation="2" in="shadowOffsetOuter1" result="shadowBlurOuter1"></feGaussianBlur>
            <feColorMatrix values="0 0 0 0 0   0 0 0 0 0   0 0 0 0 0  0 0 0 0.2 0" type="matrix" in="shadowBlurOuter1" result="shadowMatrixOuter1"></feColorMatrix>
            <feMerge>
                <feMergeNode in="shadowMatrixOuter1"></feMergeNode>
                <feMergeNode in="SourceGraphic"></feMergeNode>
            </feMerge>
        </filter>
    </defs>
    <g id="App" stroke="none" stroke-width="1" fill="none" fill-rule="evenodd">
        <g id="Group-181">
            <path d="M22.7801089,50.3423393 C30.216269,43.2354756 32.9295847,43.7358527 41.3239067,47.7604158" id="Path-181" stroke="#A6B9F8" stroke-width="5" stroke-linecap="round" transform="translate(32.052008, 47.591256) rotate(15.000000) translate(-32.052008, -47.591256) "></path>
            <polygon id="Rectangle-76" fill="#A2B1F2" points="38.1147955 62.8543718 99.8005829 26.0304333 61.6311531 4.0404325 0 37.8159292"></polygon>
            <polygon id="Rectangle-76" fill="#71A9F1" points="38.3655507 61.8513509 100.051338 25.0274123 61.8819084 3.03741157 0.250755233 36.8129083"></polygon>
            <path d="M35.3178705,29.4839418 C40.5970991,24.4384939 42.5233908,24.7937317 48.4828569,27.6509306" id="Path-181" stroke="#6BA0E4" stroke-width="2" stroke-linecap="round"></path>
            <path d="M27.7952135,52.0519128 C33.0744421,47.0064649 35.0007338,47.3617027 40.9601999,50.2189016" id="Path-181" stroke="#6BA0E4" stroke-width="2" stroke-linecap="round"></path>
            <path d="M49.2699696,47.2725108 C53.4081411,43.3175904 54.9180825,43.5960468 59.5894644,45.8356883" id="Path-181" stroke="#6BA0E4" stroke-width="2" stroke-linecap="round" transform="translate(54.429717, 45.741552) rotate(49.000000) translate(-54.429717, -45.741552) "></path>
            <path d="M17.7650042,37.8045776 C25.2011643,30.6977139 27.91448,31.198091 36.308802,35.2226541" id="Path-181" stroke="#6BA0E4" stroke-width="2" stroke-linecap="round" transform="translate(27.036903, 35.053494) rotate(49.000000) translate(-27.036903, -35.053494) "></path>
            <g id="Group-143" filter="url(#filter-1)" transform="translate(18.054377, 27.109914)">
                <polygon id="Triangle-6" fill="#A3A1A1" transform="translate(12.329178, 12.735687) rotate(41.000000) translate(-12.329178, -12.735687) " points="13.3233281 5.61476393 22.4491985 17.8818006 2.20915698 19.8566099"></polygon>
                <polygon id="Triangle-6" fill="#FFFFFF" transform="translate(12.329178, 12.234176) rotate(41.000000) translate(-12.329178, -12.234176) " points="13.3233281 5.11325346 22.4491985 17.3802901 2.20915698 19.3550995"></polygon>
            </g>
            <path d="M70.4236032,25.266816 C77.8597634,18.1599522 80.5730791,18.6603293 88.967401,22.6848924" id="Path-181" stroke="#6BA0E4" stroke-width="2" stroke-linecap="round"></path>
            <path d="M60.3933939,35.2970253 C67.829554,28.1901616 70.5428697,28.6905387 78.9371917,32.7151017" id="Path-181" stroke="#6BA0E4" stroke-width="2" stroke-linecap="round" transform="translate(69.665293, 32.545942) rotate(21.000000) translate(-69.665293, -32.545942) "></path>
            <path d="M50.3631845,17.744159 C57.7993447,10.6372952 60.5126604,11.1376723 68.9069823,15.1622354" id="Path-181" stroke="#6BA0E4" stroke-width="2" stroke-linecap="round" transform="translate(59.635083, 14.993076) rotate(130.000000) translate(-59.635083, -14.993076) "></path>
            <polygon id="Triangle-7" fill="#8FD6DE" transform="translate(45.991638, 75.675299) rotate(414.000000) translate(-45.991638, -75.675299) " points="45.9916379 72.8203978 45.9916379 76.3965134 51.1004078 78.5301994 40.8828681 78.5301994"></polygon>
            <g id="Group-144" transform="translate(90.271884, 5.544964)">
                <polygon id="Rectangle-76" fill="#E2CEA8" points="38.1147955 59.8169603 99.8005829 22.9930217 61.6311531 1.00302093 0 34.7785177"></polygon>
                <polygon id="Rectangle-76" fill="#FFE5B2" points="38.3655507 58.8139393 100.051338 21.9900008 61.8819084 1.8189894e-12 0.250755233 33.7754967"></polygon>
                <ellipse id="Oval-49" stroke="#ECCA87" cx="36.9863969" cy="41.876124" rx="4.38821658" ry="2.50755233"></ellipse>
                <polygon id="Triangle-6" fill="#A3A1A1" transform="translate(30.383555, 36.808189) rotate(41.000000) translate(-30.383555, -36.808189) " points="31.3777049 29.6872663 40.5035753 41.954303 20.2635338 43.9291123"></polygon>
                <polygon id="Triangle-6" fill="#FFFFFF" transform="translate(30.383555, 36.306679) rotate(41.000000) translate(-30.383555, -36.306679) " points="31.3777049 29.1857559 40.5035753 41.4527925 20.2635338 43.4276019"></polygon>
                <ellipse id="Oval-49" stroke="#ECCA87" cx="49.5241586" cy="14.2930483" rx="4.38821658" ry="2.50755233"></ellipse>
                <ellipse id="Oval-49" stroke="#ECCA87" cx="74.5996819" cy="16.8006006" rx="4.38821658" ry="2.50755233"></ellipse>
                <ellipse id="Oval-49" stroke="#ECCA87" cx="26.9561876" cy="26.83081" rx="4.38821658" ry="2.50755233"></ellipse>
                <ellipse id="Oval-49" stroke="#ECCA87" cx="47.0166063" cy="26.83081" rx="4.38821658" ry="2.50755233"></ellipse>
                <ellipse id="Oval-49" stroke="#ECCA87" cx="64.5694726" cy="34.353467" rx="4.38821658" ry="2.50755233"></ellipse>
                <ellipse id="Oval-49" stroke="#ECCA87" cx="74.5996819" cy="29.3383623" rx="4.38821658" ry="2.50755233"></ellipse>
                <ellipse id="Oval-49" stroke="#ECCA87" cx="64.5694726" cy="11.785496" rx="4.38821658" ry="2.50755233"></ellipse>
            </g>
            <g id="Group-146" transform="translate(22.818726, 44.913536)">
                <polygon id="Rectangle-76" fill="#95D0D6" points="38.1147955 60.0291102 99.8005829 23.2051716 61.6311531 1.21517083 0 34.9906676"></polygon>
                <polygon id="Rectangle-76" fill="#A2E4EB" points="38.3655507 59.0260892 100.051338 22.2021507 61.8819084 0.212149896 0.250755233 33.9876466"></polygon>
                <g id="Group-143" filter="url(#filter-2)" transform="translate(18.054377, 24.284652)">
                    <g id="Group-145">
                        <polygon id="Triangle-6" fill="#A3A1A1" transform="translate(12.329178, 12.735687) rotate(41.000000) translate(-12.329178, -12.735687) " points="13.3233281 5.61476393 22.4491985 17.8818006 2.20915698 19.8566099"></polygon>
                        <polygon id="Triangle-6" fill="#FFFFFF" transform="translate(12.329178, 12.234176) rotate(41.000000) translate(-12.329178, -12.234176) " points="13.3233281 5.11325346 22.4491985 17.3802901 2.20915698 19.3550995"></polygon>
                    </g>
                </g>
                <polygon id="Triangle-7" fill="#8FD6DE" points="47.9879148 17.8036216 47.9879148 21.3797372 53.0966846 23.5134232 42.8791449 23.5134232"></polygon>
                <polygon id="Triangle-7" fill="#8FD6DE" points="25.4199438 25.3262786 25.4199438 28.9023942 30.5287136 31.0360802 20.3111739 31.0360802"></polygon>
                <polygon id="Triangle-7" fill="#8FD6DE" transform="translate(60.439259, 12.914658) rotate(138.000000) translate(-60.439259, -12.914658) " points="60.4392594 10.0597574 60.4392594 13.635873 65.5480293 15.769559 55.3304896 15.769559"></polygon>
                <polygon id="Triangle-7" fill="#8FD6DE" transform="translate(58.552829, 33.032962) rotate(257.000000) translate(-58.552829, -33.032962) " points="58.5528291 30.1780614 58.5528291 33.754177 63.661599 35.887863 53.4440593 35.887863"></polygon>
                <polygon id="Triangle-7" fill="#8FD6DE" transform="translate(76.105695, 17.987648) rotate(310.000000) translate(-76.105695, -17.987648) " points="76.1056955 15.1327474 76.1056955 18.708863 81.2144653 20.842549 70.9969256 20.842549"></polygon>
                <polygon id="Triangle-7" fill="#8FD6DE" transform="translate(88.894212, 20.495201) rotate(310.000000) translate(-88.894212, -20.495201) " points="88.8942124 17.6402997 88.8942124 21.2164153 94.0029822 23.3501013 83.7854425 23.3501013"></polygon>
            </g>
            <polygon id="Triangle-7" fill="#8FD6DE" transform="translate(64.265659, 83.589503) rotate(373.000000) translate(-64.265659, -83.589503) " points="64.2656589 80.7346021 64.2656589 84.3107177 69.3744287 86.4444037 59.156889 86.4444037"></polygon>
            <path d="M146.111129,74.0480744 C146.111129,76.8421555 147.092128,79.7017651 150.039956,76.4442235 C150.936138,75.4538842 152.283439,65.4312077 155.602612,72.3707031 C155.95873,73.1152496 156.100554,73.9444668 156.349525,74.7313487" id="Path-182" stroke="#EAA5AC" stroke-width="3" stroke-linecap="round" transform="translate(151.230327, 73.917402) rotate(-210.000000) translate(-151.230327, -73.917402) "></path>
            <path d="M98.4676345,94.6100036 C98.4676345,97.4040847 99.4486332,100.263694 102.396462,97.0061527 C103.292644,96.0158134 104.639944,85.9931368 107.959118,92.9326322 C108.315236,93.6771788 108.45706,94.506396 108.706031,95.2932779" id="Path-182" stroke="#EAA5AC" stroke-width="3" stroke-linecap="round" transform="translate(103.586832, 94.479331) rotate(-63.000000) translate(-103.586832, -94.479331) "></path>
            <g id="Group-147" transform="translate(90.522639, 60.711115)">
                <polygon id="Rectangle-76" fill="#E7A2A9" points="38.1147955 59.8169603 99.8005829 22.9930217 61.6311531 1.00302093 0 34.7785177"></polygon>
                <polygon id="Rectangle-76" fill="#FFBCC3" points="38.3655507 58.8139393 100.051338 21.9900008 61.8819084 0 0.250755233 33.7754967"></polygon>
                <g id="Group-143" filter="url(#filter-3)" transform="translate(18.054377, 24.072502)"></g>
                <path d="M25.4978615,30.8898255 C25.4978615,33.6839066 26.4788603,36.5435162 29.4266886,33.2859746 C30.3228706,32.2956353 31.6701713,22.2729587 34.989345,29.2124542 C35.345463,29.9570007 35.4872867,30.7862179 35.7362576,31.5730998" id="Path-182" stroke="#EAA5AC" stroke-width="3" stroke-linecap="round" transform="translate(30.617060, 30.759153) rotate(-158.000000) translate(-30.617060, -30.759153) "></path>
                <path d="M40.5431755,18.3520639 C40.5431755,21.146145 41.5241743,24.0057545 44.4720026,20.748213 C45.3681846,19.7578737 46.7154853,9.73519708 50.034659,16.6746925 C50.390777,17.419239 50.5326007,18.2484563 50.7815716,19.0353381" id="Path-182" stroke="#EAA5AC" stroke-linecap="round"></path>
                <path d="M70.6338036,25.8747209 C70.6338036,28.668802 71.6148023,31.5284115 74.5626306,28.27087 C75.4588127,27.2805307 76.8061133,17.2578541 80.125287,24.1973495 C80.481405,24.941896 80.6232287,25.7711133 80.8721996,26.5579951" id="Path-182" stroke="#EAA5AC" stroke-linecap="round" transform="translate(75.753002, 25.744048) rotate(-122.000000) translate(-75.753002, -25.744048) "></path>
                <path d="M73.1413559,15.8445115 C73.1413559,18.6385926 74.1223546,21.4982022 77.0701829,18.2406606 C77.966365,17.2503213 79.3136656,7.22764474 82.6328394,14.1671402 C82.9889574,14.9116867 83.1307811,15.7409039 83.3797519,16.5277858" id="Path-182" stroke="#EAA5AC" stroke-linecap="round" transform="translate(78.260554, 15.713839) rotate(-122.000000) translate(-78.260554, -15.713839) "></path>
                <path d="M45.5582802,35.9049302 C45.5582802,38.6990113 46.5392789,41.5586209 49.4871073,38.3010793 C50.3832893,37.31074 51.7305899,27.2880634 55.0497637,34.2275589 C55.4058817,34.9721054 55.5477054,35.8013226 55.7966763,36.5882045" id="Path-182" stroke="#EAA5AC" stroke-width="3" stroke-linecap="round" transform="translate(50.677478, 35.774258) rotate(-210.000000) translate(-50.677478, -35.774258) "></path>
                <path d="M62.9558884,40.023191 C62.9558884,42.8172721 63.9368871,45.6768817 66.8847154,42.4193401" id="Path-182" stroke="#EAA5AC" stroke-width="3" stroke-linecap="round" transform="translate(64.920302, 41.946642) rotate(-240.000000) translate(-64.920302, -41.946642) "></path>
                <path d="M28.0054139,48.9442023 C28.0054139,51.7382834 28.9864126,54.597893 31.9342409,51.3403514 C32.830423,50.3500121 34.1777236,40.3273356 37.4968974,47.266831 C37.8530154,48.0113775 37.9948391,48.8405947 38.2438099,49.6274766" id="Path-182" stroke="#EAA5AC" stroke-width="3" stroke-linecap="round" transform="translate(33.124612, 48.813530) rotate(-151.000000) translate(-33.124612, -48.813530) "></path>
                <polygon id="Triangle-6" fill="#A3A1A1" transform="translate(30.383555, 36.808189) rotate(41.000000) translate(-30.383555, -36.808189) " points="31.3777049 29.6872663 40.5035753 41.954303 20.2635338 43.9291123"></polygon>
                <polygon id="Triangle-6" fill="#FFFFFF" transform="translate(30.383555, 36.306679) rotate(41.000000) translate(-30.383555, -36.306679) " points="31.3777049 29.1857559 40.5035753 41.4527925 20.2635338 43.4276019"></polygon>
            </g>
            <polygon id="Star-11" fill="#F9D7A2" points="83.5014927 2.98325483 81.373764 4.1988416 82.6422024 2.15976825 81.373764 0.120694901 83.5014927 1.33628167 85.6292214 0.120694901 84.3607831 2.15976825 85.6292214 4.1988416"></polygon>
            <polygon id="Star-11" fill="#F9D7A2" points="81.4954509 41.850316 79.3677221 43.0659028 80.6361605 41.0268294 79.3677221 38.9877561 81.4954509 40.2033428 83.6231796 38.9877561 82.3547412 41.0268294 83.6231796 43.0659028"></polygon>
        </g>
    </g>
</svg>