<?xml version="1.0" encoding="UTF-8"?>
<svg width="176px" height="125px" viewBox="0 0 176 125" version="1.1" xmlns="http://www.w3.org/2000/svg" xmlns:xlink="http://www.w3.org/1999/xlink">
    <!-- Generator: Sketch 46.1 (44463) - http://www.bohemiancoding.com/sketch -->
    <title>Group 182</title>
    <desc>Created with Sketch.</desc>
    <defs></defs>
    <g id="App" stroke="none" stroke-width="1" fill="none" fill-rule="evenodd">
        <g id="Group-182" transform="translate(0.000000, -2.000000)">
            <circle id="Oval-30" fill="#FFFFFF" opacity="0.723675272" cx="89.4180947" cy="102.38174" r="15.3275574"></circle>
            <circle id="Oval-30" fill="#FFFFFF" opacity="0.299705616" cx="89.3795781" cy="102.343223" r="18.8526622"></circle>
            <circle id="Oval-34" fill="#FFDDE1" cx="29.8778045" cy="32.1883236" r="29.5082802"></circle>
            <circle id="Oval-34" fill="#FFEDCE" cx="144.187106" cy="40.0603304" r="31.8180491"></circle>
            <g id="Group-27" transform="translate(143.293910, 37.196528) rotate(32.000000) translate(-143.293910, -37.196528) translate(121.293910, 7.196528)">
                <path d="M15.8493366,28.9163425 C15.8493366,28.9163425 10.0817743,40.4443091 6.17883163,42.3030597 C4.86943074,42.9266532 4.06351701,42.3556539 3.27710707,42.3030597 C2.49069713,42.2504655 0.843568396,41.9289004 0.520445539,41.6049475 C-1.0592411,40.0212031 1.56101919,31.8514657 3.27710707,25.2847277 C4.99319495,18.7179896 1.21818023,19.6987666 3.27710707,15.4721671 C5.33603391,11.2455675 7.32437885,8.45478779 11.6122458,8.45478779 C15.2480718,8.45478779 16.0360104,11.2518646 16.9282057,12.5733646 C17.8204009,13.8948645 17.8777693,18.1717808 17.8777693,18.1717808 L22.1429099,24.9887081 C22.1429099,24.9887081 25.7011014,31.6056582 31.3212572,38.4798668 C36.9414129,45.3540755 43.8526185,56.6500238 43.8526185,56.6500238 C43.8526185,56.6500238 40.8272764,58.0708227 38.74346,59.8384998 C37.5942373,60.8133718 15.8493366,28.9163425 15.8493366,28.9163425 Z" id="Rectangle-45" fill="#FED75F"></path>
                <g id="Group-26" transform="translate(11.293082, 0.515392)" stroke="#FFC30F">
                    <path d="M0.324414647,8.81146619 L2.27090253,0.979051799" id="Line" stroke-linecap="square"></path>
                    <ellipse id="Oval-19" fill="#FFC30F" cx="1.94648788" cy="1.3054024" rx="1.29765859" ry="1.3054024"></ellipse>
                </g>
                <g id="Group-26" transform="translate(6.998333, 5.121205) rotate(-45.000000) translate(-6.998333, -5.121205) translate(4.998333, 0.121205)" stroke="#FFC30F">
                    <path d="M0.324414647,8.81146619 L2.27090253,0.979051799" id="Line" stroke-linecap="square"></path>
                    <ellipse id="Oval-19" fill="#FFC30F" cx="1.94648788" cy="1.3054024" rx="1.29765859" ry="1.3054024"></ellipse>
                </g>
                <g id="Group" transform="translate(17.873866, 7.202969) rotate(-73.000000) translate(-17.873866, -7.202969) translate(12.373866, 4.702969)">
                    <path d="M0.20958912,0.697773414 C2.22782212,0.608145888 2.99840657,1.29771841 3.58855772,1.42813593 C4.17870887,1.55855346 2.51984584,2.58174993 7.53775792,4.03260625 C10.3612814,4.84898701 11.5355519,0.71196418 8.77013785,0.306084949 C5.94647023,-0.108344138 3.06310536,0.273415705 0.20958912,0.257081083 L0.20958912,0.697773414 Z" id="Path-22" fill="#FFC30F"></path>
                    <path d="M5.41663364,0.888682148 C8.77782515,0.910256942 11.1350899,3.93003749 6.56149232,3.25287882" id="Path-23" stroke="#342F7F" stroke-linecap="round"></path>
                </g>
                <path d="M0.225397611,39.3005604 C0.225397611,39.3005604 0.166198545,39.0907896 1.04831409,39.3005604 C1.93042963,39.5103311 2.76302566,40.6903939 2.76302566,40.6903939 C2.76302566,40.6903939 5.23553459,39.8687008 8.12651583,37.343197 C11.0174971,34.8176932 11.3996536,29.3160428 10.5290913,27.9246326" id="Path-24" stroke="#263345" stroke-linecap="round"></path>
                <ellipse id="Oval-20" stroke="#263345" fill="#263345" cx="7.07569118" cy="19.7700776" rx="1" ry="1"></ellipse>
                <ellipse id="Oval-20" stroke="#263345" fill="#263345" cx="4.480374" cy="19.7700776" rx="1" ry="1"></ellipse>
                <path d="M11.1068166,26.0708034 C10.9386354,26.5076009 9.74969944,27.0264902 9.58151824,27.4632877 C9.41333704,27.9000852 10.2237666,28.3642466 10.0345134,28.855772" id="Path-25" stroke="#263345" stroke-linecap="round" transform="translate(10.332601, 27.463288) rotate(-117.000000) translate(-10.332601, -27.463288) "></path>
                <path d="M2.70474472,40.3804229 C1.48127118,35.3268889 1.58546413,38.2675785 4.46331703,33.9788281" id="Path-26" stroke="#263345" stroke-linecap="round"></path>
                <path d="M1.70544893,36.9465661 C1.39569632,36.5914941 1.2215655,36.7690301 0.911812888,36.4139582" id="Path-27" stroke="#263345" stroke-linecap="round"></path>
                <path d="M6.97302711,10.1428969 C3.76164778,7.84401115 11.0156443,12.0312175 5.90407436,10.4087591 C0.792504414,8.78630062 3.4571807,10.0388624 2.29113981,9.56848061 C0.769803381,8.95477232 1.64852583,4.8783336 3.54419863,5.95227898 C4.40045032,6.43736666 5.54387143,9.05512656 6.38368002,9.56848061" id="Path-29" stroke="#FFC30F" fill="#FFC30F"></path>
                <path d="M29.8381602,41.104549 C29.8381602,42.5264927 28.8968884,44.9655497 29.4038056,46.0332284 C29.9107229,47.100907 32.741112,47.7217796 33.1161497,47.1967951 C33.4419703,46.7407056 34.4309423,44.4161334 33.7658867,42.9894499 C33.1008311,41.5627665 31.0903358,41.4234726 30.1076568,41.2057336 L29.8381602,41.104549 Z" id="Path-30" fill="#263345"></path>
                <path d="M36.0201223,53.0091063 C36.167011,54.1299906 36.0156682,57.343657 36.3907059,56.8186725 C36.7165265,56.362583 39.423875,52.3268617 38.7588194,50.9001782 C38.0937638,49.4734947 36.6330317,49.1474248 35.6503527,48.9296858 C35.6503527,48.9296858 35.8732336,51.8882221 36.0201223,53.0091063 Z" id="Path-30" fill="#263345"></path>
                <path d="M13.4918394,18.616037 C13.4918394,20.0379807 12.5505676,22.4770377 13.0574848,23.5447164 C13.564402,24.612395 16.3947912,25.2332676 16.7698288,24.7082831 C17.0956495,24.2521936 18.0846215,21.9276214 17.4195659,20.5009379 C16.7545103,19.0742545 14.7440149,18.9349606 13.761336,18.7172216 L13.4918394,18.616037 Z" id="Path-30" fill="#263345" transform="translate(15.276109, 21.757073) rotate(-47.000000) translate(-15.276109, -21.757073) "></path>
                <path d="M21.5466137,31.2911157 C21.5466137,32.7130594 20.6053419,35.1521164 21.1122591,36.2197951 C21.6191764,37.2874737 24.4495655,37.9083463 24.8246032,37.3833618 C25.1504238,36.9272723 26.1393958,34.6027001 25.4743402,33.1760166 C24.8092846,31.7493332 22.7987893,31.6100393 21.8161103,31.3923003 L21.5466137,31.2911157 Z" id="Path-30" fill="#263345" transform="translate(23.330883, 34.432152) rotate(-30.000000) translate(-23.330883, -34.432152) "></path>
                <path d="M2.86175936,9.81360397 C0.967967879,8.33500619 2.76921074,5.76646085 4.92669837,8.27375685" id="Path-31" stroke="#263345" stroke-linecap="round"></path>
            </g>
            <g id="Group-117" transform="translate(55.000000, 55.890467)">
                <circle id="Oval-34" fill="#C4ECFF" cx="26.37113" cy="26.7678253" r="26.2742692"></circle>
                <path d="M13.1319813,40.0401522 C12.9586833,34.4877176 12.5989356,28.938164 12.6120872,23.3828484 C12.6486229,7.94987178 34.1642663,13.7597459 28.6177595,25.821809 C26.4195592,30.6022646 22.9398072,34.6440754 19.7606313,38.791279 C17.8761582,41.2495556 16.8649353,40.6923083 14.2285541,40.761259 L13.1319813,40.0401522 Z" id="Path-157" fill="#95A7C2" transform="translate(21.071610, 27.418177) rotate(-10.000000) translate(-21.071610, -27.418177) "></path>
                <path d="M16.4989941,40.2019973 C16.7514167,43.4603461 17.0658673,47.3050929 17.4423461,51.7362376 L21.2184798,53.1161852 C21.3350722,48.4308557 21.4575246,44.20012 21.5858372,40.4239781" id="Path-160" fill="#95A7C2" transform="translate(19.042416, 46.659091) rotate(-10.000000) translate(-19.042416, -46.659091) "></path>
                <path d="M23.5546234,31.2760956 C31.6219549,31.0375895 39.8409252,32.1898043 47.756618,30.5605775 C50.3003379,30.037023 42.9427231,28.5317436 40.4476313,27.7991363 C36.2907507,26.5785956 32.0379367,25.7401411 27.8330894,24.7106435" id="Path-158" fill="#8798B4" transform="translate(35.919136, 28.080915) rotate(-10.000000) translate(-35.919136, -28.080915) "></path>
                <ellipse id="Oval-14" stroke="#263345" fill="#263345" transform="translate(24.097588, 21.277138) rotate(-10.000000) translate(-24.097588, -21.277138) " cx="24.0287261" cy="21.2234715" rx="1" ry="1"></ellipse>
                <ellipse id="Oval-14" stroke="#263345" fill="#263345" transform="translate(26.531767, 20.351387) rotate(-10.000000) translate(-26.531767, -20.351387) " cx="26.4556047" cy="20.2901622" rx="1" ry="1"></ellipse>
                <path d="M12.9744413,18.8158017 C12.4339466,13.8380986 13.5958871,18.6931798 9.55438447,14.3458484 C8.466954,13.1761298 10.6268276,12.5763684 10.8144806,12.2185324 C10.8211586,12.2057982 8.90047164,9.08476885 12.0166824,10.0690183 C12.4552337,10.2075339 12.1905871,11.386694 12.6463732,11.3350488 C13.1490791,11.278087 13.2030013,9.41075546 13.3096569,9.92251098 L14.1637777,10.1526311 C14.5838409,12.1681801 14.4830306,14.2632222 14.6426571,16.3185177" id="Path-159" fill="#656F7E" transform="translate(11.946251, 14.324809) rotate(-1.000000) translate(-11.946251, -14.324809) "></path>
                <path d="M25.3157775,26.8953045 C23.1682634,27.9683377 23.3798149,27.1549842 24.3669197,29.2235362" id="Path-162" stroke="#263345" transform="translate(24.482524, 28.059420) rotate(12.000000) translate(-24.482524, -28.059420) "></path>
                <path d="M23.7088976,27.6714803 C32.3160909,30.3973275 28.1635685,30.3440763 36.1401371,28.4965762" id="Path-217" stroke="#263345"></path>
            </g>
            <g id="Group-87" transform="translate(9.024034, 11.287908)">
                <path d="M36.3286584,13.8400713 C41.6493051,13.5885617 45.0529692,8.54917736 50.5775321,11.7434022 C57.3898531,15.6821908 58.7434791,20.9721712 57.2449718,24.4424684 C55.7464646,27.9127656 53.7315789,25.8964726 54.0072094,28.2712641 C54.756939,34.7308246 51.3279263,45.2956922 42.9759876,48.1530916 C42.1457334,48.4371415 42.6427397,49.6039705 41.7910992,49.8187093 C40.9394586,50.0334481 35.1106669,49.7075281 31.3906227,48.1530916 C24.7298246,45.3698483 28.9143282,45.2702769 23.5663247,41.0351971 C21.4477815,39.3575244 18.6283996,38.7876761 16.3655217,37.3104508 C13.5683534,35.4844364 7.44257512,30.7193248 8.57777936,26.4184867 C8.76713444,25.7010955 9.71998478,24.8530192 10.4025692,25.1438526 C20.0505208,29.2546219 25.7839902,38.294881 36.034389,29.4843255 C48.1944008,19.0323949 -8.61773687,22.7829694 10.4025692,4.94002283 C23.5663247,-7.40889444 29.3272487,6.50757494 33.8441615,12.9396711 L36.3286584,13.8400713 Z" id="Path-156" fill="#FDCF85" transform="translate(32.132723, 24.939055) scale(-1, 1) translate(-32.132723, -24.939055) "></path>
                <path d="M29.5322014,22.0712531 C30.5180081,23.4838988 32.1062413,24.8731312 31.1141669,26.7973035 C30.0259867,28.9078775 24.8512988,31.1239771 26.8348525,32.6253472 C31.6798801,36.2925933 50.1067187,22.7020732 29.6141685,21.3995674 L29.5322014,22.0712531 Z" id="Path-143" fill="#656F7E" transform="translate(32.734777, 27.325387) scale(-1, 1) translate(-32.734777, -27.325387) "></path>
                <path d="M43.3511907,1.73900722 C40.4540133,3.42560943 42.967146,3.5418181 45.1252055,3.09771171" id="Path-140" stroke="#263345" transform="translate(43.584051, 2.529054) scale(-1, 1) translate(-43.584051, -2.529054) "></path>
                <path d="M46.5069366,0.0604161848 C43.6232492,1.38393598 45.6332493,2.41741436 48.252758,1.71135601" id="Path-141" stroke="#263345" transform="translate(46.673252, 1.000343) scale(-1, 1) translate(-46.673252, -1.000343) "></path>
                <path d="M51.6945019,16.6034276 C51.7970205,17.4099683 54.6057785,23.2000319 53.8475794,17.8216652 L51.6945019,16.6034276 Z" id="Path-142" stroke="#263345" transform="translate(52.835898, 18.344151) scale(-1, 1) translate(-52.835898, -18.344151) "></path>
                <path d="M21.8682585,13.8271113 C25.5536078,13.0965055 24.2768636,12.4023373 25.8291231,15.6489397" id="Path-145" stroke="#263345" transform="translate(23.848691, 14.431989) scale(-1, 1) translate(-23.848691, -14.431989) "></path>
                <path d="M16.0197791,15.7160288 C19.6356552,15.4994433 18.1500681,14.8245571 20.19103,18.2777917" id="Path-146" stroke="#263345" transform="translate(18.105405, 16.897113) scale(-1, 1) translate(-18.105405, -16.897113) "></path>
                <path d="M0.0270041523,20.6884446 C3.84040918,20.113634 11.7414521,17.7655803 0.744801785,17.9130185" id="Path-147" fill="#FDCF85" transform="translate(3.191459, 19.297408) scale(-1, 1) translate(-3.191459, -19.297408) "></path>
                <path d="M23.1641695,21.9863772 C25.0154618,23.9313479 25.9582599,25.2030562 25.9925639,25.801502 C26.0440199,26.6991707 23.4260256,28.1119576 22.4092076,31.1938164" id="Path-149" stroke="#656F7E" transform="translate(24.201260, 26.590097) scale(-1, 1) translate(-24.201260, -26.590097) "></path>
                <path d="M6.1852915,14.6159774 C9.60184847,12.263425 10.5559707,14.3004597 8.41601351,14.8664781" id="Path-144" fill="#FDCF85" transform="translate(7.869480, 14.187087) scale(-1, 1) translate(-7.869480, -14.187087) "></path>
                <path d="M54.6066749,27.3408773 C54.3456358,26.4751158 53.9193694,25.8503606 53.3860047,25.4634843 C53.0089298,25.1899729 52.4683978,26.2022104 52.0048052,26.1653835 C51.5412126,26.1285566 51.2873596,25.0230414 50.849915,25.1669904 C50.3753305,25.3231609 49.887332,25.5823862 49.4029356,25.943751" id="Path-148" stroke="#263345" transform="translate(52.004805, 26.247473) scale(-1, 1) translate(-52.004805, -26.247473) "></path>
            </g>
            <path d="M37.3521857,125.924246 L68.0654311,113.347483" id="Line-14" stroke="#FFFFFF" stroke-linecap="square" stroke-dasharray="4"></path>
        </g>
    </g>
</svg>