<?xml version="1.0" encoding="UTF-8"?>
<svg width="15px" height="27px" viewBox="0 0 15 27" version="1.1" xmlns="http://www.w3.org/2000/svg" xmlns:xlink="http://www.w3.org/1999/xlink">
    <!-- Generator: Sketch 46.2 (44496) - http://www.bohemiancoding.com/sketch -->
    <title>Group 22</title>
    <desc>Created with Sketch.</desc>
    <defs></defs>
    <g id="Alpha-flow" stroke="none" stroke-width="1" fill="none" fill-rule="evenodd">
        <g id="Group-22">
            <g id="Group-17" transform="translate(6.000000, 5.000000)" fill="#F8F8F8">
                <path d="M4.5,9 C6.98528137,9 9,1.57381485 9,0.747862376 C9,-0.0780900997 6.98528137,0.00212173016 4.5,0.00212173016 C2.01471863,0.00212173016 0,0.0163142806 0,0.747862376 C4.4539517e-17,1.47941047 2.01471863,9 4.5,9 Z" id="Oval"></path>
                <ellipse id="Oval" cx="4.5" cy="0.5" rx="4.5" ry="1"></ellipse>
                <ellipse id="Oval" cx="4.5" cy="0.5" rx="4.5" ry="1"></ellipse>
                <ellipse id="Oval" transform="translate(4.500000, 16.000000) rotate(-180.000000) translate(-4.500000, -16.000000) " cx="4.5" cy="16" rx="4.5" ry="1"></ellipse>
                <ellipse id="Oval" transform="translate(4.500000, 16.000000) rotate(-180.000000) translate(-4.500000, -16.000000) " cx="4.5" cy="16" rx="4.5" ry="1"></ellipse>
                <path d="M4.48577609,17 C7.01620989,17 9.08630001,9.62887227 8.99722911,9.17296655 C8.90815821,8.71706082 7.01620989,8 4.48577609,8 C1.95534228,8 0.114935628,8.57576883 0.00425757902,9.17296655 C-0.10642047,9.77016426 1.95534228,17 4.48577609,17 Z" id="Oval" transform="translate(4.500000, 12.500000) rotate(-180.000000) translate(-4.500000, -12.500000) "></path>
            </g>
            <g id="Group-2">
                <g id="Group-10">
                    <path d="M6.40557349,12.6296216 C9.94327404,12.6296216 12.811147,3.01150114 12.811147,1.94175803 C12.811147,0.872014924 9.94327404,0.975902321 6.40557349,0.975902321 C2.86787294,0.975902321 0,0.994283987 0,1.94175803 C6.34002554e-17,2.88923208 2.86787294,12.6296216 6.40557349,12.6296216 Z" id="Oval" fill="#E2F1FC" opacity="0.701030344"></path>
                    <g id="Group-9" transform="translate(0.000000, 0.663594)">
                        <path d="M6.41079273,12.6296216 C8.60794521,12.6296216 10.3890892,7.99629938 10.3890892,7.28568981 C10.3890892,6.57508025 8.60794521,5.99901739 6.41079273,5.99901739 C4.21364026,5.99901739 2.43249626,6.57508025 2.43249626,7.28568981 C2.43249626,7.99629938 4.21364026,12.6296216 6.41079273,12.6296216 Z" id="Oval" fill="#FFEFBD"></path>
                        <g id="Group-11">
                            <ellipse id="Oval" fill="#8FD3DA" cx="6.40557349" cy="1.23477262" rx="6.40557349" ry="1"></ellipse>
                            <ellipse id="Oval" fill="#A2E4EB" cx="6.40557349" cy="0.995391705" rx="6.40557349" ry="1"></ellipse>
                        </g>
                        <ellipse id="Oval" fill="#FEEEAC" cx="6.54542937" cy="7.05996559" rx="3.95076669" ry="1"></ellipse>
                    </g>
                    <ellipse id="Oval" fill="#8FD3DA" transform="translate(6.405573, 24.951740) rotate(-180.000000) translate(-6.405573, -24.951740) " cx="6.40557349" cy="24.9517396" rx="6.40557349" ry="1.62404688"></ellipse>
                    <ellipse id="Oval" fill="#A2E4EB" transform="translate(6.405573, 24.712359) rotate(-180.000000) translate(-6.405573, -24.712359) " cx="6.40557349" cy="24.7123586" rx="6.40557349" ry="1.62404688"></ellipse>
                    <path d="M6.36580169,26.2035102 C9.90350224,26.2035102 12.7976143,15.571789 12.6730877,14.9142149 C12.5485612,14.2566408 9.90350224,13.2223906 6.36580169,13.2223906 C2.82810114,13.2223906 0.255100575,14.0528488 0.100365923,14.9142149 C-0.054368729,15.775581 2.82810114,26.2035102 6.36580169,26.2035102 Z" id="Oval" fill="#E2F1FC" opacity="0.701030344" transform="translate(6.385688, 19.712950) rotate(-180.000000) translate(-6.385688, -19.712950) "></path>
                    <path d="M6.47330026,25.9145033 C9.16158128,25.9145033 11.3408636,20.3478291 11.3408636,19.4940719 C11.3408636,18.6403148 9.16158128,17.9482079 6.47330026,17.9482079 C3.78501924,17.9482079 1.60573689,18.6403148 1.60573689,19.4940719 C1.60573689,20.3478291 3.78501924,25.9145033 6.47330026,25.9145033 Z" id="Oval" fill="#F8F0CF" transform="translate(6.473300, 21.931356) rotate(179.000000) translate(-6.473300, -21.931356) "></path>
                    <path d="M6.25015744,14.2804692 L6.25015744,14.8789215" id="Line-5" stroke="#F8F0CF" stroke-linecap="round"></path>
                    <path d="M6.7366567,15.6622064 L6.7366567,16.2606587" id="Line-5" stroke="#F8F0CF" stroke-linecap="round"></path>
                </g>
            </g>
        </g>
    </g>
</svg>