<?xml version="1.0" encoding="UTF-8"?>
<svg width="133px" height="54px" viewBox="0 0 133 54" version="1.1" xmlns="http://www.w3.org/2000/svg" xmlns:xlink="http://www.w3.org/1999/xlink">
    <!-- Generator: Sketch 46.2 (44496) - http://www.bohemiancoding.com/sketch -->
    <title>Group 15</title>
    <desc>Created with Sketch.</desc>
    <defs></defs>
    <g id="Alpha-flow" stroke="none" stroke-width="1" fill="none" fill-rule="evenodd">
        <g id="Group-15" transform="translate(1.000000, 0.000000)">
            <path d="M85.5,14.5 L80.5,19.5" id="Line-5" stroke="#BFC3DE" opacity="0.5" stroke-linecap="square"></path>
            <path d="M5.0016972,26.1264525 L10.9983028,29.8735475" id="Line-5" stroke="#A0E6DF" opacity="0.5" stroke-linecap="square"></path>
            <circle id="Oval-4" fill="#A8D1E5" cx="29" cy="26" r="1"></circle>
            <circle id="Oval-4" fill="#88A1C8" opacity="0.5" cx="49" cy="39" r="1"></circle>
            <circle id="Oval-4" fill="#88A1C8" cx="63" cy="15" r="1"></circle>
            <circle id="Oval-4" fill="#88A1C8" opacity="0.5" cx="12" cy="35" r="1"></circle>
            <path d="M10.9252647,13.9179856 C9.4973612,4.25035078 5.43781867,15.8634428 0.00840325031,4.68744808" id="Path-4" stroke="#88A1C8" opacity="0.5" stroke-linecap="round"></path>
            <path d="M130.925265,53.9179856 C129.497361,44.2503508 125.437819,55.8634428 120.008403,44.6874481" id="Path-4" stroke="#88A1C8" opacity="0.5" stroke-linecap="round"></path>
            <polyline id="Line-6" stroke="#A7CEE1" opacity="0.5" stroke-linecap="square" transform="translate(105.017457, 4.245115) rotate(-2.000000) translate(-105.017457, -4.245115) " points="98.5 7.5 100.5 4.5 103.936344 6 105.958289 0.990230484 111.534915 4.5"></polyline>
            <path d="M41.4753186,10.0860018 L41.5246814,12.9139982" id="Line-7" stroke="#88A1C8" stroke-width="2" opacity="0.5" stroke-linecap="square"></path>
            <polygon id="Triangle-2" fill="#A7CEE1" opacity="0.5" transform="translate(69.500000, 39.500000) rotate(-291.000000) translate(-69.500000, -39.500000) " points="69.5 38 72 41 67 41"></polygon>
            <polygon id="Triangle-2" fill="#A7CEE1" opacity="0.5" transform="translate(51.500000, 44.500000) rotate(-330.000000) translate(-51.500000, -44.500000) " points="51.5 43 54 46 49 46"></polygon>
            <polygon id="Triangle-2" fill="#A7CEE1" opacity="0.5" transform="translate(78.500000, 7.500000) rotate(-255.000000) translate(-78.500000, -7.500000) " points="78.5 6 81 9 76 9"></polygon>
        </g>
    </g>
</svg>