<?xml version="1.0" encoding="UTF-8"?>
<svg width="789px" height="142px" viewBox="0 0 789 142" version="1.1" xmlns="http://www.w3.org/2000/svg" xmlns:xlink="http://www.w3.org/1999/xlink">
    <!-- Generator: Sketch 46.2 (44496) - http://www.bohemiancoding.com/sketch -->
    <title>Group 15</title>
    <desc>Created with Sketch.</desc>
    <defs></defs>
    <g id="App" stroke="none" stroke-width="1" fill="none" fill-rule="evenodd">
        <g id="Group-15">
            <path d="M457,50 L439,68" id="Line-5" stroke="#BFC3DE" opacity="0.5" stroke-linecap="square"></path>
            <path d="M167,92 L189,105" id="Line-5" stroke="#A0E6DF" opacity="0.5" stroke-linecap="square"></path>
            <path d="M47,122 L69,135" id="Line-5" stroke="#A0E6DF" opacity="0.5" stroke-linecap="square"></path>
            <path d="M7,22 L29,35" id="Line-5" stroke="#A0E6DF" opacity="0.5" stroke-linecap="square"></path>
            <circle id="Oval-4" fill="#FFBD8B" cx="253.5" cy="91.5" r="3.5"></circle>
            <circle id="Oval-4" fill="#FFBD8B" cx="3.5" cy="131.5" r="3.5"></circle>
            <polygon id="Star-2" fill="#FFDEA9" points="141 59.8929893 137.464466 61.5355339 139.107011 58 137.464466 54.4644661 141 56.1070107 144.535534 54.4644661 142.892989 58 144.535534 61.5355339"></polygon>
            <polygon id="Star-2" fill="#FFDEA9" points="471 109.892989 467.464466 111.535534 469.107011 108 467.464466 104.464466 471 106.107011 474.535534 104.464466 472.892989 108 474.535534 111.535534"></polygon>
            <circle id="Oval-4" fill="#88A1C8" opacity="0.5" cx="325.5" cy="137.5" r="3.5"></circle>
            <circle id="Oval-4" fill="#FFBD8B" cx="713.5" cy="21.5" r="3.5"></circle>
            <circle id="Oval-4" fill="#88A1C8" opacity="0.5" cx="785.5" cy="67.5" r="3.5"></circle>
            <circle id="Oval-4" fill="#88A1C8" cx="375.5" cy="51.5" r="3.5"></circle>
            <circle id="Oval-4" fill="#88A1C8" opacity="0.5" cx="192.5" cy="123.5" r="3.5"></circle>
            <path d="M188,48 C182.898879,13.4373379 168.396344,54.9551839 149,15" id="Path-4" stroke="#88A1C8" opacity="0.5" stroke-linecap="round"></path>
            <path d="M670,142 C664.898879,107.437338 650.396344,148.955184 631,109" id="Path-4" stroke="#88A1C8" opacity="0.5" stroke-linecap="round"></path>
            <polyline id="Line-6" stroke="#A7CEE1" opacity="0.5" stroke-linecap="square" transform="translate(527.500000, 12.500000) rotate(-2.000000) translate(-527.500000, -12.500000) " points="504 24 511.211401 13.4005464 523.60183 18.7002732 530.892359 1 551 13.4005464"></polyline>
            <polyline id="Line-6" stroke="#A7CEE1" opacity="0.5" stroke-linecap="square" transform="translate(667.500000, 72.500000) rotate(-2.000000) translate(-667.500000, -72.500000) " points="644 84 651.211401 73.4005464 663.60183 78.7002732 670.892359 61 691 73.4005464"></polyline>
            <polyline id="Line-6" stroke="#A7CEE1" opacity="0.5" stroke-linecap="square" transform="translate(747.500000, 72.500000) rotate(137.000000) translate(-747.500000, -72.500000) " points="724 84 731.211401 73.4005464 743.60183 78.7002732 750.892359 61 771 73.4005464"></polyline>
            <path d="M298,34 L298.197451,44" id="Line-7" stroke="#88A1C8" stroke-width="2" opacity="0.5" stroke-linecap="square"></path>
        </g>
    </g>
</svg>