<?xml version="1.0" encoding="UTF-8"?>
<svg width="182px" height="252px" viewBox="0 0 182 252" version="1.1" xmlns="http://www.w3.org/2000/svg" xmlns:xlink="http://www.w3.org/1999/xlink">
    <!-- Generator: Sketch 44.1 (41455) - http://www.bohemiancoding.com/sketch -->
    <title>Group 20</title>
    <desc>Created with Sketch.</desc>
    <defs></defs>
    <g id="MVP-SESSIONS" stroke="none" stroke-width="1" fill="none" fill-rule="evenodd">
        <g id="Group-20" transform="translate(-70.000000, 25.000000)">
            <path d="M93.4544978,152.808905 C146.616305,138.56162 138.959521,132.057079 181.645406,155.779361 C203.243906,167.782525 257.267975,167.13075 247.502221,189.812991 L251.060468,200.706285 C242.828777,219.825466 193.904871,224.272721 188.186731,225.283153 C146.614193,232.629291 102.660208,189.364329 81.5563047,158.657294" id="Path-136" stroke="#00A2F2" fill="#E7EBEE"></path>
            <g id="Group-27" transform="translate(144.186525, 184.527684) rotate(-285.000000) translate(-144.186525, -184.527684) translate(137.686525, 171.527684)" fill="#263345">
                <path d="M6.64892701,13.9184029 C6.64892701,16.8033704 6.18665495,21.901005 7.2232256,24.0672077 C8.25979625,26.2334103 11.6649259,26.4016339 12.4318223,25.3364982 C13.0616183,24.4617801 10.67193,14.7145198 8.66249698,14.2727512 L6.64892701,13.9184029 Z" id="Path-30"></path>
                <path d="M3.19346227,1.65023919 C3.19346227,3.37582327 2.04220575,6.33571405 2.66220921,7.63138371 C3.28221268,8.92705338 6.74402262,9.68050641 7.20272598,9.04341736 C7.60123268,8.48993493 8.81083074,5.66897596 7.9974104,3.93763994 C7.18399007,2.20630391 4.72498095,2.03726537 3.52307985,1.7730306 L3.19346227,1.65023919 Z" id="Path-30" transform="translate(5.375778, 5.462009) rotate(-47.000000) translate(-5.375778, -5.462009) "></path>
            </g>
            <g id="Group-2" transform="translate(133.700281, 137.789301) scale(-1, 1) rotate(-75.000000) translate(-133.700281, -137.789301) translate(27.700281, 28.289301)">
                <g id="Group-36" transform="translate(105.922172, 109.499067) rotate(-25.000000) translate(-105.922172, -109.499067) translate(28.422172, 25.499067)">
                    <path d="M77.7921063,27.4869467 C80.1764311,29.9318891 100.861837,33.3322584 114.440425,56.763673 C128.019012,80.1950875 132.267149,52.1539159 129.972361,60.1465319 C127.243012,69.652701 108.983173,61.0422859 105.02303,58.5156122 C94.4737258,51.7848827 81.9223342,57.0731982 71.7659475,58.3318798 C69.4012008,58.6249429 62.92129,56.1473422 57.2257033,58.9030184 C51.5301167,61.6586946 45.5036717,86.5129885 43.3255027,94.3147781 C38.8202796,110.451635 35.3024679,152.611363 35.3024679,152.611363 L19.7548864,153.647176 C19.7548864,153.647176 16.691392,104.877915 25.6336887,67.2375683 C26.9481308,61.7047553 23.7439977,53.287457 23.0128504,46.7482531 C22.2817032,40.2090493 18.3573071,32.7071663 21.3076083,25.0317246 C24.2579095,17.3562829 31.5837034,15.0991943 35.5746935,14.0676254 C41.1878871,12.6167585 74.3869165,23.9951852 77.7921063,27.4869467 Z" id="Path-90" fill="#FF6482" transform="translate(74.905098, 83.793857) rotate(18.000000) translate(-74.905098, -83.793857) "></path>
                    <g id="Group-38" transform="translate(114.707094, 71.394688) rotate(-42.000000) translate(-114.707094, -71.394688) translate(96.134852, 32.969360)">
                        <path d="M0.818019756,5.41604275 C12.1053706,22.0747943 14.9949467,34.4111192 12.1923948,53.1615011 C11.0430048,60.8514571 5.84701332,75.7365754 5.84701332,75.7365754 C5.84701332,75.7365754 20.2046545,67.0894966 26.6263571,61.9406967 C40.6877395,50.6665457 44.9308293,-13.7773715 2.47083627,7.23978802 L0.818019756,5.41604275 Z" id="Path-109" fill="#263345"></path>
                        <path d="M35.115388,19.7555445 C34.4608655,1.83381505 26.7195874,-4.76303711 2.47083627,7.23978802 L1.44439368,6.47567197 C7.09772145,15.7124671 10.1143648,21.658918 11.9176242,29.5813858 C11.9176242,29.5813858 15.9723059,21.5912277 20.3061583,19.7555445 C24.6400108,17.9198613 35.115388,19.7555445 35.115388,19.7555445 Z" id="Path-109" fill="#FF939F"></path>
                        <path d="M33.6402407,12.4858578 C32.5782095,-1.95849989 25.0053981,-1.32029493 0.598825546,5.12147083 C0.598825546,5.12147083 6.58890853,14.9601512 8.40390427,19.2120404 C8.40390427,19.2120404 12.0719761,13.4710459 16.4340351,12.4858578 C20.7960942,11.5006696 33.6402407,12.4858578 33.6402407,12.4858578 Z" id="Path-109" fill="#FFC7CE"></path>
                        <path d="M31.426475,30.5127881 C19.6864184,10.7844878 27.5620799,17.9854368 9.75148753,7.3380171" id="Path-110" stroke="#263345" stroke-width="3" transform="translate(20.588981, 18.925403) rotate(-158.000000) translate(-20.588981, -18.925403) "></path>
                    </g>
                </g>
                <path d="M81.181746,56.4164691 C79.8970008,57.6151122 77.5835785,56.8020832 76.2988333,58.0007263 C75.0140881,59.1993693 75.2304069,61.9689564 74.1818552,62.9472354" id="Path-114" stroke="#263345"></path>
                <path d="M91.0329999,49.0280287 C89.7482547,50.2266717 87.4348325,49.4136428 86.1500873,50.6122858 C84.8653421,51.8109289 85.0816609,54.5805159 84.0331091,55.5587949" id="Path-114" stroke="#263345"></path>
            </g>
            <text id="z" font-family="OpenSans, Open Sans" font-size="50" font-weight="normal" fill="#FFFFFF">
                <tspan x="152.160679" y="64.5988255">z</tspan>
            </text>
            <text id="z" font-family="OpenSans, Open Sans" font-size="30" font-weight="normal" fill="#FFFFFF">
                <tspan x="182.047143" y="32.8662752">z</tspan>
            </text>
            <text id="z" font-family="OpenSans, Open Sans" font-size="20" font-weight="normal" fill="#FFFFFF">
                <tspan x="214.820072" y="22">z</tspan>
            </text>
        </g>
    </g>
</svg>