<?xml version="1.0" encoding="UTF-8"?>
<svg width="146px" height="99px" viewBox="0 0 146 99" version="1.1" xmlns="http://www.w3.org/2000/svg" xmlns:xlink="http://www.w3.org/1999/xlink">
    <!-- Generator: Sketch 44.1 (41455) - http://www.bohemiancoding.com/sketch -->
    <title>Group 15</title>
    <desc>Created with Sketch.</desc>
    <defs></defs>
    <g id="MVP-SESSIONS" stroke="none" stroke-width="1" fill="none" fill-rule="evenodd">
        <g id="Group-15" transform="translate(1.000000, 1.000000)">
            <g id="Group-17">
                <g id="Group-16">
                    <g id="Group-14">
                        <path d="M34.5918569,97.8597824 C23.9034612,78.7404244 14.8534041,61.1406571 7.66877499,38.3688744 C4.63178776,28.7431008 -2.08712158,12.6225615 2.71275396,1.04461189 C2.85495007,0.701615624 3.19341188,0.280320266 3.41897358,0.491843196 C4.00589175,1.04223209 4.33894625,2.07212354 4.73332676,2.93942599 C8.82137922,11.9296721 12.9674669,20.86318 16.8621137,30.0553432 C24.0611106,47.0464481 35.8251214,80.6697451 43.4736195,95.0156891 L34.5918569,97.8597824 Z" id="Path-61" fill="#FF939F"></path>
                        <path d="M2.97236033,20.8007696 C2.5528596,18.6035399 -1.73270583,5.68313075 1.3085205,1.23142026 C1.56067258,0.862323095 1.96313297,0.711976771 2.30845695,0.774074833 C2.5932596,0.825289618 2.84222716,1.18118172 3.01181361,1.53771582 C4.64732261,4.97616714 6.13361065,8.57761862 7.69450918,12.09757" id="Path-62" stroke="#263345" stroke-width="2"></path>
                    </g>
                    <g id="Group-14" transform="translate(125.000000, 41.500000) scale(-1, 1) translate(-125.000000, -41.500000) translate(106.000000, 0.000000)">
                        <path d="M27.9606345,79.7509719 C17.2722388,60.6316139 14.8534041,61.1406571 7.66877499,38.3688744 C4.63178776,28.7431008 -2.08712158,12.6225615 2.71275396,1.04461189 C2.85495007,0.701615624 3.19341188,0.280320266 3.41897358,0.491843196 C4.00589175,1.04223209 4.33894625,2.07212354 4.73332676,2.93942599 C8.82137922,11.9296721 12.9674669,20.86318 16.8621137,30.0553432 C24.0611106,47.0464481 30.2491675,68.43114 37.8976656,82.777084 L27.9606345,79.7509719 Z" id="Path-61" fill="#FF939F"></path>
                        <path d="M2.97236033,20.8007696 C2.5528596,18.6035399 -1.73270583,5.68313075 1.3085205,1.23142026 C1.56067258,0.862323095 1.96313297,0.711976771 2.30845695,0.774074833 C2.5932596,0.825289618 2.84222716,1.18118172 3.01181361,1.53771582 C4.64732261,4.97616714 6.13361065,8.57761862 7.69450918,12.09757" id="Path-62" stroke="#263345" stroke-width="2"></path>
                    </g>
                </g>
            </g>
            <path d="M23.5,20.5 L28.5,28.5" id="Line" stroke="#FFFFFF" stroke-linecap="square"></path>
            <path d="M130.672623,8.03188685 C128.879286,10.3663451 127.08595,12.7008034 125.292613,15.0352616" id="Path-64" stroke="#FFFFFF"></path>
            <path d="M130.672623,8.03188685 C128.879286,10.3663451 127.08595,12.7008034 125.292613,15.0352616" id="Path-64" stroke="#FFFFFF"></path>
            <path d="M131.672623,12.0318868 C129.879286,14.3663451 128.08595,16.7008034 126.292613,19.0352616" id="Path-64" stroke="#FFFFFF"></path>
            <path d="M17.5,17.5 L21.5,25.5" id="Line" stroke="#FFFFFF" stroke-linecap="square"></path>
        </g>
    </g>
</svg>