<?xml version="1.0" encoding="UTF-8"?>
<svg width="32px" height="32px" viewBox="0 0 32 32" version="1.1" xmlns="http://www.w3.org/2000/svg" xmlns:xlink="http://www.w3.org/1999/xlink">
    <!-- Generator: Sketch 46.2 (44496) - http://www.bohemiancoding.com/sketch -->
    <title>Group 19</title>
    <desc>Created with Sketch.</desc>
    <defs>
        <filter x="-45.5%" y="-21.4%" width="190.9%" height="171.4%" filterUnits="objectBoundingBox" id="filter-1">
            <feOffset dx="0" dy="2" in="SourceAlpha" result="shadowOffsetOuter1"></feOffset>
            <feGaussianBlur stdDeviation="1" in="shadowOffsetOuter1" result="shadowBlurOuter1"></feGaussianBlur>
            <feColorMatrix values="0 0 0 0 0   0 0 0 0 0   0 0 0 0 0  0 0 0 0.1 0" type="matrix" in="shadowBlurOuter1" result="shadowMatrixOuter1"></feColorMatrix>
            <feMerge>
                <feMergeNode in="shadowMatrixOuter1"></feMergeNode>
                <feMergeNode in="SourceGraphic"></feMergeNode>
            </feMerge>
        </filter>
    </defs>
    <g id="Alpha-flow" stroke="none" stroke-width="1" fill="none" fill-rule="evenodd">
        <g id="Group-19">
            <circle id="Oval-6" fill="#EFF2F9" cx="16" cy="16" r="16"></circle>
            <g id="Group-18" filter="url(#filter-1)" transform="translate(12.000000, 12.000000)" stroke-linecap="square">
                <path d="M0.5,0.5 L10.5,13.5" id="Line-11" stroke="#656F7E"></path>
                <path d="M0.5,0.5 L4.05287871,5.11727797" id="Line-11" stroke="#FFFFFF"></path>
            </g>
            <polygon id="Star-3" fill="#A2A4C1" points="16.2928932 11.4938108 14.5857864 12.4142136 15.5061892 10.7071068 14.5857864 9 16.2928932 9.92040273 18 9 17.0795973 10.7071068 18 12.4142136"></polygon>
            <polygon id="Star-3" fill="#FFC871" points="7 13.651727 5.58578644 14.4142136 6.34827303 13 5.58578644 11.5857864 7 12.348273 8.41421356 11.5857864 7.65172697 13 8.41421356 14.4142136"></polygon>
            <polygon id="Star-3" fill="#FFC7CD" points="11 7.65172697 9.58578644 8.41421356 10.348273 7 9.58578644 5.58578644 11 6.34827303 12.4142136 5.58578644 11.651727 7 12.4142136 8.41421356"></polygon>
        </g>
    </g>
</svg>