<?xml version="1.0" encoding="UTF-8"?>
<svg width="924px" height="528px" viewBox="0 0 924 528" version="1.1" xmlns="http://www.w3.org/2000/svg" xmlns:xlink="http://www.w3.org/1999/xlink">
    <!-- Generator: Sketch 44.1 (41455) - http://www.bohemiancoding.com/sketch -->
    <title>Group 106</title>
    <desc>Created with Sketch.</desc>
    <defs>
        <polygon id="path-1" points="201 289 213.297409 281.41208 213.297409 454.806867 201 462"></polygon>
        <polygon id="path-2" points="183 286.817915 202 289 202 462 183 455.427633"></polygon>
        <polygon id="path-3" points="773 286.817915 792 289 792 462 773 455.427633"></polygon>
        <polygon id="path-4" points="791 289 803.297409 281.41208 803.297409 454.806867 791 462"></polygon>
        <polygon id="path-5" points="563 316.817915 582 319 582 492 563 485.427633"></polygon>
        <polygon id="path-6" points="581 319 593.297409 311.41208 593.297409 484.806867 581 492"></polygon>
        <polygon id="path-7" points="8.86792453 47.707584 25.7169811 49.6419214 25.7169811 203 8.86792453 197.173841"></polygon>
        <polygon id="path-8" points="24.8301887 49.6419214 35.7354382 42.9155118 35.7354382 196.623555 24.8301887 203"></polygon>
    </defs>
    <g id="Page-1" stroke="none" stroke-width="1" fill="none" fill-rule="evenodd">
        <g id="Group-106">
            <g id="Group-5" transform="translate(534.000000, 0.000000)">
                <path d="M101.244781,198.652301 C115.988857,198.652301 133.707803,180.529364 151.100031,183.178045 C168.49226,185.826726 192.004631,209.448555 201.059143,195.705392 C217.660475,170.507479 194.084334,124.659137 194.084334,105.820553 C194.084334,95.9470577 215.770875,81.2765163 216.973597,68.0555363 C218.17632,54.8345563 199.328359,29.2125556 189.74549,19.1713741 C173.844485,2.50988379 124.002132,31.1019791 97.5792137,31.1019791 C88.316064,31.1019791 80.9993713,7.78249143 69.2400572,2.15153445 C57.4807431,-3.47942254 39.0969625,7.66189217 31.3056699,12.9888043 C22.9588806,18.6955099 1.96530154,37.2295318 0.514626338,58.0069015 C0.462336573,58.7558243 0.435437942,59.5076618 0.435437942,60.2619183 C0.435437942,81.9415168 8.40522708,92.4512183 8.40522708,105.820553 C8.40522708,138.498691 13.3460559,189.944462 38.8692682,206.486951 C64.3924806,223.029441 82.6517969,198.652301 101.244781,198.652301 Z" id="Oval-3" fill="#DAEDFF"></path>
                <ellipse id="Oval-4" fill="#CBDFF3" cx="97.0421672" cy="148.225179" rx="72.5905975" ry="26.7416559"></ellipse>
                <polygon id="Rectangle-5" fill="#FFF4E2" points="66.4777051 124.896555 77.9393784 122.998475 77.9393784 365.036396 66.4777051 365.036396"></polygon>
                <path d="M46.6791446,131.681911 C48.7976373,131.047334 50.3964299,130.670276 51.4755226,130.550738 C52.5546153,130.4312 54.713462,130.391999 57.9520627,130.433136 L58.3641964,210.299427 L46.9025231,210.299427 L46.6791446,131.681911 Z" id="Rectangle-5" fill="#FFF4E2" transform="translate(52.521670, 170.358382) rotate(-30.000000) translate(-52.521670, -170.358382) "></path>
                <polygon id="Rectangle-5" fill="#FFF4E2" transform="translate(127.942685, 156.675696) rotate(-315.000000) translate(-127.942685, -156.675696) " points="122.362711 122.954272 133.261239 118.854858 133.673521 194.496534 122.211848 194.496534"></polygon>
                <rect id="Rectangle-5" fill="#FFF4E2" x="97.0421672" y="121.483523" width="11.4616733" height="243.552873"></rect>
            </g>
            <path d="M188.667153,383.156351 C360.109677,332.789331 575.220626,332.789331 834,383.156351 C893.747917,417.952863 923.621876,442.866673 923.621876,457.897781 C923.621876,472.928889 893.747917,487.626915 834,501.991859 C734.855017,520.105419 664.512555,527.956049 622.972614,525.543747 C560.662703,521.925296 447.850855,479.168768 386.088329,479.168768 C284.902125,479.168768 164.539348,486.776465 25,501.991859 C-37.3310887,473.135206 17.224629,433.52337 188.667153,383.156351 Z" id="Rectangle-34" fill="#F5FAFE"></path>
            <ellipse id="Oval-18" fill="#EBF3F9" cx="147" cy="463" rx="79" ry="14"></ellipse>
            <ellipse id="Oval-18" fill="#EBF3F9" cx="347" cy="396" rx="79" ry="14"></ellipse>
            <ellipse id="Oval-18" fill="#EBF3F9" cx="547" cy="486" rx="79" ry="14"></ellipse>
            <ellipse id="Oval-18" fill="#EBF3F9" cx="747" cy="456" rx="79" ry="14"></ellipse>
            <g id="Group-97" transform="translate(522.304410, 226.222769) rotate(1.000000) translate(-522.304410, -226.222769) translate(478.804410, 177.222769)">
                <path d="M5.12419705,72.236622 C4.71894909,59.6945912 3.87769899,47.159068 3.90845318,34.6105296 C3.99389002,-0.250010209 54.3070415,12.8735338 41.3368396,40.1197379 C36.196469,50.917996 28.0592597,60.0477775 20.6249314,69.4156241 C16.2181945,74.968464 13.8535051,73.7097345 7.68847234,73.8654827 L5.12419705,72.236622 Z" id="Path-157" fill="#95A7C2"></path>
                <path d="M5.25676612,71.1459809 C7.61703946,100.57589 15.7461593,111.613693 17.1520697,71.6473988" id="Path-160" fill="#95A7C2"></path>
                <path d="M28.7003809,58.241156 C47.5653931,57.7024103 66.7850041,60.3050727 85.2954174,56.624919 C91.2437669,55.442296 74.0383883,52.0421191 68.2037532,50.3872805 C58.4831159,47.6302811 48.5381438,45.7363511 38.7053391,43.4108864" id="Path-158" fill="#8798B4"></path>
                <circle id="Oval-14" stroke="#263345" fill="#263345" cx="32.9918069" cy="31.1305123" r="1.00819314"></circle>
                <circle id="Oval-14" stroke="#263345" fill="#263345" cx="38.956369" cy="30.0088785" r="1"></circle>
                <path d="M10.3967694,21.1642955 C9.13285223,9.92048814 11.8499863,20.887313 2.39915418,11.0674107 C-0.143742309,8.42521005 4.90700369,7.07044847 5.34581994,6.26215601 C5.36143596,6.23339156 0.870014902,-0.816497095 8.15710288,1.40675951 C9.18263095,1.71964334 8.5637694,4.38317092 9.62960006,4.26651283 C10.8051503,4.13784565 10.9312443,-0.0801473022 11.1806527,1.0758237 L13.1779673,1.59562691 C14.1602621,6.14841861 13.9245228,10.8807718 14.2978006,15.5233443" id="Path-159" fill="#656F7E" transform="translate(7.992402, 11.019886) rotate(9.000000) translate(-7.992402, -11.019886) "></path>
                <path d="M33.9477239,49.5242695 C29.7713865,51.5399883 30.1827973,50.0120839 32.1024506,53.8979089" id="Path-162" stroke="#263345" transform="translate(32.327270, 51.711089) rotate(22.000000) translate(-32.327270, -51.711089) "></path>
            </g>
            <g id="Rectangle-35">
                <use fill="#DAEDFF" fill-rule="evenodd" xlink:href="#path-1"></use>
                <path stroke="#00A2F2" stroke-width="1" d="M201.5,289.279006 L201.5,461.12828 L212.797409,454.520078 L212.797409,282.308119 L201.5,289.279006 Z"></path>
            </g>
            <g id="Rectangle-35">
                <use fill="#FFFFFF" fill-rule="evenodd" xlink:href="#path-2"></use>
                <path stroke="#00A2F2" stroke-width="1" d="M183.5,287.378625 L183.5,455.071521 L201.5,461.297974 L201.5,289.445863 L183.5,287.378625 Z"></path>
            </g>
            <path d="M205.115971,302.573828 L225.306379,246.110339 L225.306379,246.110339 C226.050205,244.030191 224.966902,241.740907 222.886754,240.99708 C222.821524,240.973755 222.755699,240.952129 222.689346,240.932222 L198.680684,233.729501 L198.680684,233.729501 C196.625201,233.112846 194.449343,234.228089 193.749778,236.256853 L174.09475,293.257148 L174.09475,293.257148 C173.374599,295.345611 174.483835,297.622442 176.572298,298.342593 C176.642086,298.366657 176.712525,298.388785 176.783537,298.408951 L200.25682,305.074866 L200.25682,305.074866 C202.282351,305.650074 204.406999,304.556503 205.115971,302.573828 Z" id="Path-231" stroke="#00A2F2" fill="#F5FAFE"></path>
            <path d="M204.74854,296.447212 L221.607557,249.300124 L221.607557,249.300124 C222.351383,247.219976 221.26808,244.930692 219.187932,244.186865 C219.122702,244.16354 219.056877,244.141913 218.990524,244.122007 L199.603089,238.305678 L199.603089,238.305678 C197.547606,237.689022 195.371748,238.804265 194.672183,240.833029 L178.263529,288.41872 L178.263529,288.41872 C177.543379,290.507183 178.652615,292.784014 180.741078,293.504165 C180.810865,293.528229 180.881305,293.550357 180.952317,293.570523 L199.889389,298.94825 L199.889389,298.94825 C201.91492,299.523458 204.039568,298.429887 204.74854,296.447212 Z" id="Path-231" stroke="#00A2F2" fill="#F5FAFE"></path>
            <g id="Group-20" transform="translate(49.000000, 110.000000)">
                <g id="Group-10">
                    <g id="Group-9" transform="translate(92.855335, 178.794553) rotate(-23.000000) translate(-92.855335, -178.794553) translate(51.855335, 129.794553)">
                        <path d="M65.8670258,8.75772613 C65.8670258,6.63588409 61.9233441,6.73456926 61.114655,8.75772613 C59.3247548,13.235651 51.999376,31.6331415 42.2859064,47.3442532 C32.5724367,63.055365 19.1112038,78.2761091 16.6957572,83.9999325 C12.0174373,95.0860307 20.0083877,88.5809919 20.0083877,88.5809919 C20.0083877,88.5809919 33.2353932,70.9916413 49.2449273,45.0316516 C65.2544613,19.0716618 65.8670258,18.1093675 65.8670258,8.75772613 Z" id="Path-116" stroke="#FF939F" fill="#FF939F" transform="translate(40.546840, 48.840226) scale(-1, 1) rotate(-25.000000) translate(-40.546840, -48.840226) "></path>
                        <path d="M45.7741074,95.3168118 C36.7712853,86.1027409 35.8025959,88.6467634 48.576113,87.6455859" id="Path-108" stroke="#263345" transform="translate(43.785286, 91.481199) scale(-1, 1) rotate(-110.000000) translate(-43.785286, -91.481199) "></path>
                    </g>
                    <g id="Group-36" transform="translate(83.707576, 87.161616) rotate(-25.000000) translate(-83.707576, -87.161616) translate(23.707576, 19.661616)">
                        <path d="M58.5465059,24.5623103 C60.2033343,26.4733372 74.5772853,29.1311491 84.0128242,47.4457165 C93.4483632,65.760284 96.4003239,43.8426175 94.8057134,50.089842 C92.9091333,57.5200965 80.2206694,50.7899852 77.4688306,48.8150751 C70.138291,43.5541722 64.8588969,48.2344937 57.8013896,49.21831 C56.1581657,49.4473753 48.2130184,46.9639773 44.2552482,49.1178813 C40.2974779,51.2717853 36.1097997,70.69851 34.5962256,76.7965799 C31.4656196,89.4095428 31.5354272,116.380628 29.0211497,122.362618 C26.5068722,128.344608 24.9794581,122.359621 21.5841282,122.230874 C15.3166657,121.993217 16.0886168,85.0529866 22.3024729,55.6323696 C23.2158572,51.3077875 20.9893574,44.728621 20.4812951,39.6174192 C19.9732328,34.5062173 14.2851727,26.8556612 16.3352888,20.856348 C18.3854049,14.8570348 19.8188358,11.8630668 29.7881211,9.9236797 C39.7574064,7.98429262 41.6435598,15.7776176 48.6727859,19.7201214 C55.7020119,23.6626252 57.5011991,23.3566275 58.5465059,24.5623103 Z" id="Path-90" fill="#FF939F" transform="translate(55.553342, 67.317269) rotate(18.000000) translate(-55.553342, -67.317269) "></path>
                        <g id="Group-38" transform="translate(88.969198, 59.956370) rotate(-42.000000) translate(-88.969198, -59.956370) translate(75.469198, 28.956370)">
                            <path d="M0.929464833,7.15473559 C9.325051,18.7399197 11.455674,29.0555465 9.49385169,43.8194825 C8.68926398,49.8745068 5.05200337,61.5949578 5.05200337,61.5949578 C5.05200337,61.5949578 15.1025361,54.7863009 19.5978102,50.7321674 C29.4409581,41.8549699 32.4111753,-8.88777613 2.68863619,7.66100666 L0.929464833,7.15473559 Z" id="Path-109" fill="#263345"></path>
                            <path d="M25.5402406,17.5158367 C25.0820665,3.40437663 19.6630727,-1.78994439 2.68863619,7.66100666 L0.929464833,7.15473559 C5.35455964,13.2609844 8.03920411,19.0145414 9.30150875,25.252644 C9.30150875,25.252644 12.1398379,18.9612425 15.1735901,17.5158367 C18.2073424,16.070431 25.5402406,17.5158367 25.5402406,17.5158367 Z" id="Path-109" fill="#FF939F"></path>
                            <path d="M24.5076186,11.3650087 C23.7689905,-0.9247662 17.0304211,0.169019052 0.0559846572,5.64990323 C0.0559846572,5.64990323 5.69378809,13.4702259 6.95609273,17.0878849 C6.95609273,17.0878849 9.50718637,12.203242 12.5409386,11.3650087 C15.5746908,10.5267755 24.5076186,11.3650087 24.5076186,11.3650087 Z" id="Path-109" fill="#FFC7CE"></path>
                            <path d="M19.1256001,20.7935755 C10.9074101,5.25963255 16.420474,10.9296158 3.95283121,2.54590264" id="Path-110" stroke="#263345" transform="translate(11.539216, 11.669739) rotate(-158.000000) translate(-11.539216, -11.669739) "></path>
                        </g>
                        <ellipse id="Oval-27" fill="#263345" cx="56.7851368" cy="26.9646902" rx="2.63265153" ry="2.64196843"></ellipse>
                        <ellipse id="Oval-27" fill="#263345" cx="64.6830914" cy="25.643706" rx="2.63265153" ry="2.64196843"></ellipse>
                    </g>
                    <path d="M57.9805692,174.658032 C59.365197,183.088808 62.1480998,191.405855 62.1344524,199.950361 C62.1231523,207.025264 55.8430394,224.993739 54.1494573,227.294348 C53.8129868,227.751418 61.4605143,227.294348 62.1344524,226.41883 C62.8083906,225.543313 67.3120817,204.160827 67.8381006,202.585768 C70.5507121,194.463391 66.701577,176.304405 65.8114049,172.202923" id="Path-112" fill="#FF939F"></path>
                    <g id="Group-35" transform="translate(27.419229, 119.539407)" stroke="#00A2F2">
                        <g id="Group-39" transform="translate(0.000000, 0.000000)">
                            <path d="M24.1058273,112.608204 C29.7120293,116.213489 35.961157,110.800911 41.4476086,109.138591 C47.6781082,107.250836 44.9963164,62.9632369 44.6653649,56.2713405 C44.3992766,50.8909892 50.5267187,47.871525 50.4829374,42.4975011 C50.4391561,37.1234771 46.4644065,26.7574687 47.0295559,27.9240442 C48.7921355,31.5623425 49.0713655,38.1444126 51.0956053,36.6407208 C52.3166978,35.7336412 55.3402381,39.2091787 57.5726895,32.7580657 C59.8051409,26.3069527 50.3719169,10.8265426 49.5033361,10.0006852 C41.7251374,2.60507734 41.9775907,4.30917116 40.0493434,4.49989858 C38.1210961,4.690626 38.5950229,11.3548448 26.3935858,9.27855793 C24.4396507,8.94606187 23.4079555,4.59783031 21.0044475,2.98508984 C19.8890203,2.23664442 14.6141923,2.32726981 12.429134,6.08367575 C10.2440757,9.84008168 10.5542539,18.594002 11.0894017,18.9039701 C11.5200111,19.1533876 9.52577241,68.0093909 7.64147827,88.281501 C7.09333812,94.1786468 4.76377817,106.124416 6.57798068,109.504064 C8.39218319,112.883711 23.2715743,112.071705 24.1058273,112.608204 Z" id="Path-89" fill="#FFFFFF" transform="translate(31.905781, 58.218284) rotate(-366.000000) translate(-31.905781, -58.218284) "></path>
                            <path d="M23.6088101,48.4723726 C36.7009097,54.4543166 31.1410305,50.6012041 40.7008867,59.2338182" id="Path-113"></path>
                        </g>
                    </g>
                    <path d="M54.1386781,40.0316655 C55.0380162,40.8755754 56.6574415,40.3031588 57.5567795,41.1470687 C58.4561176,41.9909785 58.3046917,43.9409183 59.0386914,44.6296799" id="Path-114" stroke="#263345" transform="translate(56.588685, 42.330673) scale(-1, 1) translate(-56.588685, -42.330673) "></path>
                    <path d="M61.3503422,35.1961317 C62.2496803,36.0400416 63.8691055,35.467625 64.7684436,36.3115349 C65.6677817,37.1554447 65.5163558,39.1053845 66.2503554,39.7941461" id="Path-114" stroke="#263345" transform="translate(63.800349, 37.495139) scale(-1, 1) translate(-63.800349, -37.495139) "></path>
                    <path d="M75.7736703,58.5678785 C84.2050441,61.1232731 83.483937,58.3922786 81.0252442,65.2059165" id="Path-115" stroke="#3C3C3C" transform="translate(79.221489, 61.886897) scale(-1, 1) translate(-79.221489, -61.886897) "></path>
                    <g id="Group-6" transform="translate(80.849171, 334.075147) rotate(-3.000000) translate(-80.849171, -334.075147) translate(61.849171, 319.575147)">
                        <path d="M3.58247586,0.301620503 C7.94480106,41.6201506 10.9847842,22.1004107 11.3206948,1.01751089" id="Path-106" fill="#FF939F" transform="translate(7.451585, 12.434990) scale(-1, 1) translate(-7.451585, -12.434990) "></path>
                        <path d="M31.8668944,22.6595057 C25.2902188,21.0734447 17.0525998,15.9337926 10.3735692,14.8394664 C8.78701111,14.5795166 7.27029941,16.0281783 6.3959101,15.9895194 C5.5215208,15.9508605 4.13693191,15.031524 3.06681179,14.8394664 C3.06681179,14.8394664 -1.24835859,23.2605319 1.05304666,25.9240974 C3.35445192,28.5876629 14.5060498,27.7216194 16.7182594,28.1549923 C18.8357916,28.5698178 32.3462773,28.9532653 35.8435203,28.1549923 C39.3407634,27.3567192 36.6094476,23.8032413 31.8668944,22.6595057 Z" id="Path-173" stroke="#00A2F2" fill="#F3F3F3"></path>
                    </g>
                    <g id="Group-7" transform="translate(67.563800, 347.498486) rotate(-1.000000) translate(-67.563800, -347.498486) translate(48.563800, 334.998486)">
                        <path d="M2.65541591,0.350609821 C7.01774111,25.7593477 10.0577243,13.7557272 10.3936349,0.790845014" id="Path-106" fill="#FF939F" transform="translate(6.524525, 7.811999) scale(-1, 1) translate(-6.524525, -7.811999) "></path>
                        <path d="M31.7411305,18.6788835 C25.1644549,17.0928225 16.9268359,11.9531705 10.2478053,10.8588442 C8.66124716,10.5988944 7.14453546,12.0475561 6.27014615,12.0088972 C5.39575685,11.9702383 4.01116797,11.0509019 2.94104785,10.8588442 C2.94104785,10.8588442 -1.37412254,19.2799097 0.927282717,21.9434752 C3.22868797,24.6070407 14.3802858,23.7409972 16.5924954,24.1743701 C18.7100277,24.5891956 32.2205134,24.9726432 35.7177564,24.1743701 C39.2149994,23.376097 36.4836837,19.8226191 31.7411305,18.6788835 Z" id="Path-173" stroke="#00A2F2" fill="#F3F3F3"></path>
                    </g>
                    <g id="Group-8" transform="translate(75.055301, 161.866349) rotate(-33.000000) translate(-75.055301, -161.866349) translate(30.555301, 120.866349)">
                        <path d="M68.4493884,6.48306299 C71.1106299,10.1614904 70.9785844,21.0880263 70.9785844,21.0880263 C70.9785844,21.0880263 80.6652827,35.4902352 80.5270984,51.5809392 C80.3889141,67.6716433 -0.759840039,72.6717534 0.202775325,74.7618485 C3.28357381,81.4510852 16.8342365,79.0254415 32.4670396,76.4120817 C48.0998426,73.798722 89.9614828,61.7618592 88.0334363,51.5799402 C86.5001877,43.4829291 80.7661239,22.3093019 80.5270984,16.8359551 C80.2880729,11.3626083 78.7336117,17.797592 80.5270984,11.9440806 C82.5655583,5.29103532 73.5307616,1.14941046 72.4987202,0.160416" id="Path-116" stroke="#FF939F" fill="#FF939F" transform="translate(44.146075, 39.620918) scale(-1, 1) translate(-44.146075, -39.620918) "></path>
                        <path d="M79.0226606,69.6822726 C77.2477595,76.691424 76.4255522,91.5640643 83.2573179,75.523963" id="Path-176" stroke="#263345" transform="translate(80.517769, 76.190524) scale(-1, 1) rotate(60.000000) translate(-80.517769, -76.190524) "></path>
                    </g>
                    <path d="M48.0934741,127.592848 C46.7029826,128.831147 41.4133913,125.157285 37.3836825,126.214767 C33.3539736,127.27225 24.9134071,134.488912 23.007723,138.120016 C19.9182175,144.00678 19.0305822,159.756093 23.007723,160.259309 L24.6543733,165.785194 C45.1302094,168.375945 44.7260754,157.376036 40.7866993,144.896444" id="Path-172" stroke="#00A2F2" fill="#FFFFFF" transform="translate(34.220417, 146.093917) rotate(-23.000000) translate(-34.220417, -146.093917) "></path>
                </g>
            </g>
            <g id="Rectangle-35">
                <use fill="#FFFFFF" fill-rule="evenodd" xlink:href="#path-3"></use>
                <path stroke="#00A2F2" stroke-width="1" d="M773.5,287.378625 L773.5,455.071521 L791.5,461.297974 L791.5,289.445863 L773.5,287.378625 Z"></path>
            </g>
            <g id="Rectangle-35">
                <use fill="#DAEDFF" fill-rule="evenodd" xlink:href="#path-4"></use>
                <path stroke="#00A2F2" stroke-width="1" d="M791.5,289.279006 L791.5,461.12828 L802.797409,454.520078 L802.797409,282.308119 L791.5,289.279006 Z"></path>
            </g>
            <path d="M795.115971,302.573828 L815.306379,246.110339 L815.306379,246.110339 C816.050205,244.030191 814.966902,241.740907 812.886754,240.99708 C812.821524,240.973755 812.755699,240.952129 812.689346,240.932222 L788.680684,233.729501 L788.680684,233.729501 C786.625201,233.112846 784.449343,234.228089 783.749778,236.256853 L764.09475,293.257148 L764.09475,293.257148 C763.374599,295.345611 764.483835,297.622442 766.572298,298.342593 C766.642086,298.366657 766.712525,298.388785 766.783537,298.408951 L790.25682,305.074866 L790.25682,305.074866 C792.282351,305.650074 794.406999,304.556503 795.115971,302.573828 Z" id="Path-231" stroke="#00A2F2" fill="#F5FAFE"></path>
            <path d="M794.74854,296.447212 L811.607557,249.300124 L811.607557,249.300124 C812.351383,247.219976 811.26808,244.930692 809.187932,244.186865 C809.122702,244.16354 809.056877,244.141913 808.990524,244.122007 L789.603089,238.305678 L789.603089,238.305678 C787.547606,237.689022 785.371748,238.804265 784.672183,240.833029 L768.263529,288.41872 L768.263529,288.41872 C767.543379,290.507183 768.652615,292.784014 770.741078,293.504165 C770.810865,293.528229 770.881305,293.550357 770.952317,293.570523 L789.889389,298.94825 L789.889389,298.94825 C791.91492,299.523458 794.039568,298.429887 794.74854,296.447212 Z" id="Path-231" stroke="#00A2F2" fill="#F5FAFE"></path>
            <g id="Group-21" transform="translate(788.450903, 271.416816) rotate(20.000000) translate(-788.450903, -271.416816) translate(771.450903, 254.916816)" fill="#00A2F2">
                <g id="Group-2" transform="translate(16.792194, 16.431668) rotate(-330.000000) translate(-16.792194, -16.431668) translate(4.792194, 4.431668)">
                    <path d="M7.38891529,4.95769031 L15.7802153,4.95769031 L15.7802153,6.63123748 C15.7802153,6.63123748 13.9458216,6.58283106 13.9458216,8.17358106 C13.9458216,9.76433107 15.7802153,9.78804922 15.7802153,9.78804922 L15.7802153,13.2679057 C15.7802153,13.2679057 13.9458216,13.2099493 13.9458216,14.8768642 C13.9458216,16.5437791 15.7802153,16.416011 15.7802153,16.416011 L15.7802153,17.9734057 L7.38891529,17.9734057 L7.38891529,16.4081347 C7.38891529,16.416011 9.28134229,16.5841781 9.28134229,14.8768642 C9.28134229,13.1695503 7.38891529,13.2679057 7.38891529,13.2679057 L7.38891529,9.78804922 C7.38891529,9.78804922 9.20522112,9.8017869 9.20522112,8.17358106 C9.20522112,6.54537523 7.43420054,6.64375727 7.38891529,6.64375727 L7.38891529,4.95769031 Z" id="Rectangle-28" transform="translate(11.584565, 11.465548) rotate(-30.000000) translate(-11.584565, -11.465548) "></path>
                    <rect id="Rectangle-27" transform="translate(11.567374, 11.551271) rotate(-300.000000) translate(-11.567374, -11.551271) " x="9.80777655" y="3.17157971" width="3.51919471" height="16.7593824" rx="1.75959736"></rect>
                    <rect id="Rectangle-27" transform="translate(8.189736, 5.818427) rotate(-300.000000) translate(-8.189736, -5.818427) " x="6.43013824" y="-2.59949096" width="3.51919471" height="16.8358366" rx="1.75959736"></rect>
                    <rect id="Rectangle-27" transform="translate(14.942968, 17.276170) rotate(-300.000000) translate(-14.942968, -17.276170) " x="13.1833706" y="8.82457018" width="3.51919471" height="16.9032005" rx="1.75959736"></rect>
                </g>
            </g>
            <g id="Group-96" transform="translate(588.000000, 94.000000)">
                <ellipse id="Oval-32" fill="#E9EEF4" cx="136.875185" cy="363.90746" rx="41.509434" ry="9.421904"></ellipse>
                <path d="M138.315387,160.099393 C139.07784,158.24144 142.113076,159.954913 142.01576,162.060098 C141.800366,166.719579 152.585705,171.896976 151.419279,184.441531 C150.252852,196.986087 201.319854,149.078556 189.555861,172.591913 C189.353528,172.996326 164.096168,187.829462 163.731781,188.219148 C159.195113,193.07079 145.987831,195.653338 145.452362,190.6462 C142.315084,161.309685 134.955013,168.287989 138.315387,160.099393 Z" id="Path-116" fill="#FFD410"></path>
                <path d="M134.611034,334.389337 C138.358843,369.475911 140.970587,352.900278 141.259178,334.997252" id="Path-106" fill="#FFD410" transform="translate(137.935106, 344.692665) scale(-1, 1) translate(-137.935106, -344.692665) "></path>
                <path d="M114.988393,348.710631 C118.736202,370.287042 121.347945,360.093893 121.636537,349.084467" id="Path-106" fill="#FFD410" transform="translate(118.312465, 355.046640) scale(-1, 1) translate(-118.312465, -355.046640) "></path>
                <path d="M158.64586,353.116471 C152.995634,351.769631 145.918441,347.405178 140.180278,346.475906 C138.817217,346.255164 137.514163,347.485328 136.762948,347.4525 C136.011733,347.419672 134.82219,346.638996 133.902816,346.475906 C133.902816,346.475906 130.19552,353.626846 132.172728,355.888674 C134.149937,358.150501 143.73062,357.415081 145.631198,357.783089 C147.450436,358.135348 159.057713,358.460961 162.062303,357.783089 C165.066893,357.105217 162.720335,354.0877 158.64586,353.116471 Z" id="Path-173" stroke="#979797" fill="#263345"></path>
                <path d="M139.777936,364.422756 C134.12771,363.075916 127.050516,358.711463 121.312354,357.782191 C119.949292,357.561449 118.646238,358.791613 117.895023,358.758785 C117.143808,358.725957 115.954265,357.945281 115.034892,357.782191 C115.034892,357.782191 111.327595,364.933131 113.304804,367.194959 C115.282012,369.456786 124.862696,368.721366 126.763274,369.089374 C128.582511,369.441633 140.189789,369.767246 143.194379,369.089374 C146.198968,368.411502 143.85241,365.393985 139.777936,364.422756 Z" id="Path-173" stroke="#979797" fill="#263345"></path>
                <path d="M110.743823,224.715028 C110.288727,254.020173 99.7475672,333.66302 105.258165,333.964566 L110.743823,335.824288 C114.097977,336.007831 119.991632,339.020995 120.784837,334.814204 C122.925246,323.462472 119.271771,307.643388 119.503216,292.166141 C119.734661,276.688894 120.654835,279.892016 120.784837,274.541805 C120.89583,269.973908 120.701744,257.900853 123.798769,252.659017 C124.987978,250.646234 120.972336,322.810261 123.798769,346.958958 C123.980209,348.509158 133.726308,350.176334 134.939327,350.072179 C140.518252,349.593147 134.584551,280.472627 140.07489,266.130129 C143.447223,257.320529 144.839398,243.559207 143.271301,233.496284 C141.703205,223.43336 140.404827,228.338273 140.07489,224.715028 L110.743823,224.715028 Z" id="Path-105" stroke="#00A2F2" fill="#E7EBEE" transform="translate(123.790723, 287.395925) scale(-1, 1) translate(-123.790723, -287.395925) "></path>
                <path d="M104.643844,158.843672 C102.357489,162.397595 102.470934,172.9543 102.470934,172.9543 C102.470934,172.9543 94.1487907,186.869036 94.2675091,202.415117 C94.3862275,217.961198 102.888305,251.765441 101.164938,252.090172 C98.2518944,252.639072 87.8185814,208.123028 87.8185814,202.414152 C87.8185814,194.47438 94.0621549,174.134239 94.2675091,168.846149 C94.4728634,163.558059 95.8083492,169.775237 94.2675091,164.11985 C92.5162051,157.691991 100.278279,153.690548 101.164938,152.735028 L104.643844,158.843672 Z" id="Path-116" fill="#FFD410"></path>
                <g id="Group-27" transform="translate(110.552688, 115.957095) scale(-1, 1) rotate(32.000000) translate(-110.552688, -115.957095) translate(36.552688, 26.457095)">
                    <path d="M32.7134411,58.6333072 C32.7134411,58.6333072 20.8090433,82.4273286 12.7532684,86.263838 C10.0506311,87.5509511 8.38720432,86.3723939 6.76403384,86.263838 C5.14086336,86.1552821 1.74114701,85.4915635 1.07421307,84.8229164 C-2.18630105,81.554027 3.22198402,64.6914775 6.76403384,51.1375601 C10.3060837,37.5836427 2.51435554,39.6079919 6.76403384,30.8841809 C11.0137121,22.16037 15.1177076,16.4001285 23.967976,16.4001285 C31.472415,16.4001285 33.0987407,22.1733675 34.9402548,24.9009776 C36.7817688,27.6285876 36.9001787,36.4562535 36.9001787,36.4562535 L45.7035393,50.5265681 C45.7035393,50.5265681 53.0477387,64.1841243 64.6478857,78.372669 C76.2480326,92.5612136 90.51294,115.876343 90.51294,115.876343 C90.51294,115.876343 84.2685556,118.808909 79.9675044,122.45744 C77.5954792,124.469601 32.7134411,58.6333072 32.7134411,58.6333072 Z" id="Rectangle-45" fill="#FFD75F"></path>
                    <g id="Group-26" transform="translate(23.309213, 0.013010)" stroke="#FFC30F">
                        <path d="M0.66960023,18.1870944 L4.68720161,2.02078826" id="Line" stroke-linecap="square"></path>
                        <ellipse id="Oval-19" fill="#FFC30F" cx="4.01760138" cy="2.69438435" rx="2.67840092" ry="2.69438435"></ellipse>
                    </g>
                    <g id="Group-26" transform="translate(13.420721, 9.383708) rotate(-45.000000) translate(-13.420721, -9.383708) translate(9.920721, -0.116292)" stroke="#FFC30F">
                        <path d="M0.66960023,18.1870944 L4.68720161,2.02078826" id="Line" stroke-linecap="square"></path>
                        <ellipse id="Oval-19" fill="#FFC30F" cx="4.01760138" cy="2.69438435" rx="2.67840092" ry="2.69438435"></ellipse>
                    </g>
                    <g id="Group" transform="translate(36.157943, 13.960113) rotate(-73.000000) translate(-36.157943, -13.960113) translate(25.157943, 9.460113)">
                        <path d="M0.43259737,1.44022239 C4.59828254,1.25522886 6.18878878,2.67852439 7.40687604,2.94770954 C8.6249633,3.21689469 5.20102706,5.32879869 15.5581275,8.32340371 C21.385953,10.0084347 23.8096779,1.4695125 18.1017916,0.63176726 C12.2736685,-0.223625105 6.32232877,0.564337094 0.43259737,0.530622011 L0.43259737,1.44022239 Z" id="Path-22" fill="#FFC30F"></path>
                        <path d="M11.1800721,1.83426296 C18.1176584,1.87879389 22.9831138,8.11169913 13.54309,6.71402611" id="Path-23" stroke="#342F7F" stroke-linecap="round"></path>
                    </g>
                    <path d="M0.465226504,80.0666016 C0.465226504,80.0666016 0.343038099,79.6336293 2.16374742,80.0666016 C3.98445674,80.4995739 5.70295649,82.935254 5.70295649,82.935254 C5.70295649,82.935254 10.8062789,81.2392583 16.7733391,76.026553 C22.7403992,70.8138478 23.5291803,59.458299 21.732317,56.5863922" id="Path-24" stroke="#263345" stroke-linecap="round"></path>
                    <ellipse id="Oval-20" stroke="#263345" fill="#263345" cx="14.6044098" cy="39.7551795" rx="1" ry="1"></ellipse>
                    <ellipse id="Oval-20" stroke="#263345" fill="#263345" cx="9.24760794" cy="39.7551795" rx="1" ry="1"></ellipse>
                    <path d="M22.9247571,52.7600408 C22.5776267,53.6616021 20.1236321,54.7326031 19.7765017,55.6341644 C19.4293714,56.5357257 21.1021189,57.4937669 20.7114954,58.508288" id="Path-25" stroke="#263345" stroke-linecap="round" transform="translate(21.326757, 55.634164) rotate(-117.000000) translate(-21.326757, -55.634164) "></path>
                    <path d="M5.58266312,82.2954658 C3.05738207,71.8648409 3.27243901,77.9345004 9.21240191,69.0824086" id="Path-26" stroke="#263345" stroke-linecap="round"></path>
                    <path d="M3.52009075,75.2078965 C2.88075334,74.4750188 2.52134282,74.8414576 1.88200541,74.10858" id="Path-27" stroke="#263345" stroke-linecap="round"></path>
                    <path d="M14.3925085,19.8844293 C7.76413841,15.1394697 22.736575,23.781972 12.1861623,20.4331758 C1.63574963,17.0843795 7.13571046,19.6696995 4.72897189,18.6988193 C1.58889411,17.4321095 3.40259999,9.01823441 7.31531774,11.2348855 C9.08264338,12.236119 11.4426942,17.6392432 13.1760808,18.6988193" id="Path-29" stroke="#FFC30F" fill="#FFC30F"></path>
                    <path d="M61.5867351,83.7900809 C61.5867351,86.7250095 59.6439258,91.7592863 60.6902161,93.9630027 C61.7365064,96.1667191 67.5785029,97.4482161 68.3525903,96.3646347 C69.0250925,95.4232541 71.0663564,90.6252769 69.6936644,87.6805652 C68.3209724,84.7358536 64.171258,84.4483474 62.1429831,83.9989285 L61.5867351,83.7900809 Z" id="Path-30" fill="#263345"></path>
                    <path d="M74.346465,108.361395 C74.649647,110.674929 74.3372717,117.30802 75.1113591,116.224439 C75.7838613,115.283058 81.3718987,106.953225 79.9992067,104.008513 C78.6265147,101.063802 75.6115258,100.390785 73.583251,99.9413658 C73.583251,99.9413658 74.0432829,106.047861 74.346465,108.361395 Z" id="Path-30" fill="#263345"></path>
                    <path d="M27.8475057,37.3732099 C27.8475057,40.3081385 25.9046964,45.3424153 26.9509867,47.5461317 C27.997277,49.7498481 33.8392735,51.0313451 34.6133609,49.9477637 C35.2858631,49.0063831 37.327127,44.2084059 35.954435,41.2636942 C34.581743,38.3189826 30.4320286,38.0314764 28.4037537,37.5820575 L27.8475057,37.3732099 Z" id="Path-30" fill="#263345" transform="translate(31.530284, 43.856390) rotate(-47.000000) translate(-31.530284, -43.856390) "></path>
                    <path d="M44.4727685,63.5349006 C44.4727685,66.4698291 42.5299592,71.5041059 43.5762494,73.7078223 C44.6225397,75.9115387 50.4645362,77.1930357 51.2386236,76.1094543 C51.9111258,75.1680737 53.9523897,70.3700965 52.5796977,67.4253848 C51.2070057,64.4806732 47.0572913,64.193167 45.0290165,63.7437481 L44.4727685,63.5349006 Z" id="Path-30" fill="#263345" transform="translate(48.155547, 70.018081) rotate(-30.000000) translate(-48.155547, -70.018081) "></path>
                    <path d="M5.90674541,19.2047602 C1.99791076,16.1528961 5.71572267,10.8513521 10.168833,16.0264759" id="Path-31" stroke="#263345" stroke-linecap="round"></path>
                    <path d="M119.107218,132.772682 C127.339572,140.837904 110.45063,131.685906 119.546246,132.624284" id="Path-2" fill="#263345"></path>
                    <path d="M130.946217,143.160479 C139.178571,151.225701 122.289629,142.073703 131.385245,143.012081" id="Path-2" fill="#263345"></path>
                    <path d="M138.304963,156.344271 C146.537316,164.409494 129.648374,155.257495 138.74399,156.195873" id="Path-2" fill="#263345"></path>
                    <path d="M66.0434605,173.819744 C74.275814,181.884966 57.3868723,172.732968 66.482488,173.671346" id="Path-2" fill="#263345"></path>
                    <path d="M74.1446683,160.839263 C82.3770218,168.904486 65.4880801,159.752487 74.5836958,160.690865" id="Path-2" fill="#263345"></path>
                    <path d="M78.2175594,172.53875 C86.4499129,180.603972 69.5609711,171.451974 78.6565869,172.390352" id="Path-2" fill="#263345"></path>
                    <path d="M49.5335338,173.363913 C57.7658873,181.429136 40.8769456,172.277137 49.9725613,173.215515" id="Path-2" fill="#263345"></path>
                    <path d="M144.783574,170.966138 C153.015928,179.03136 136.126986,169.879362 145.222602,170.81774" id="Path-2" fill="#263345"></path>
                    <path d="M40.5909625,178.302087 C34.3062864,178.551057 32.791988,176.842629 39.1141619,172.903867" id="Path-232" stroke="#263345"></path>
                </g>
                <g id="Group-35" transform="translate(96.120468, 133.891220)" stroke="#00A2F2">
                    <g id="Group-39" transform="translate(0.000000, 0.000000)">
                        <path d="M20.7010276,95.9003326 C25.5174896,98.9618428 30.886309,94.3656285 35.5998897,92.954032 C40.9527051,91.3510011 38.6486946,53.7431747 38.3643639,48.0605979 C38.1357592,43.4917497 43.4000347,40.9277027 43.3624208,36.3642275 C43.324807,31.8007522 39.9099763,22.9982193 40.3955137,23.9888435 C41.9098005,27.0783877 42.1496957,32.667703 43.8887829,31.3908087 C44.9378613,30.6205413 50.3628651,30.7088002 52.2808333,25.2306902 C54.1988015,19.7525802 51.9932401,11.8400875 51.2470153,11.1387918 C44.5645236,4.85864245 36.0552138,3.93573455 34.3985967,4.0976951 C32.7419796,4.25965565 33.1491448,9.91872932 22.6665119,8.15560287 C20.9878256,7.87325625 20.1014643,4.18085606 18.036536,2.81136065 C17.0782379,2.17580111 12.5464696,2.25275774 10.6692183,5.44259567 C8.79196694,8.63243359 9.05845067,16.066025 9.51821272,16.3292416 C9.88816258,16.5410401 8.17485028,58.0282316 6.55599475,75.2427571 C6.08507055,80.2504532 4.08367335,90.3944761 5.64231099,93.2643811 C7.20094863,96.1342861 19.984295,95.4447525 20.7010276,95.9003326 Z" id="Path-89" fill="#FFFFFF" transform="translate(29.051722, 49.713889) rotate(-366.000000) translate(-29.051722, -49.713889) "></path>
                        <path d="M20.2830609,41.6092388 C31.5308896,46.6889433 26.754225,43.4169847 34.967394,50.7475662" id="Path-113"></path>
                    </g>
                </g>
                <path d="M101.23028,139.629582 C98.1126073,142.373837 95.2017124,143.456581 92.5474225,148.455462 C89.8931326,153.454342 89.1305376,166.828231 92.5474225,167.255549 L93.9621109,171.94798 C111.553537,174.147976 109.496879,164.029693 106.112439,153.432362" id="Path-172" stroke="#00A2F2" fill="#FFFFFF" transform="translate(99.329369, 155.940635) rotate(9.000000) translate(-99.329369, -155.940635) "></path>
                <path d="M125.058212,31.0071787 C127.098136,28.2413672 128.351707,24.7617207 131.385244,27.8107732" id="Path-186" stroke="#263345"></path>
                <path d="M134.22434,27.8670125 C137.339537,23.9984958 137.482035,22.7025068 141.060694,25.9338922" id="Path-187" stroke="#263345"></path>
            </g>
            <g id="Group-21" transform="translate(198.450903, 271.416816) rotate(20.000000) translate(-198.450903, -271.416816) translate(181.450903, 254.916816)" fill="#00A2F2">
                <g id="Group-2" transform="translate(16.792194, 16.431668) rotate(-330.000000) translate(-16.792194, -16.431668) translate(4.792194, 4.431668)">
                    <path d="M7.38891529,4.95769031 L15.7802153,4.95769031 L15.7802153,6.63123748 C15.7802153,6.63123748 13.9458216,6.58283106 13.9458216,8.17358106 C13.9458216,9.76433107 15.7802153,9.78804922 15.7802153,9.78804922 L15.7802153,13.2679057 C15.7802153,13.2679057 13.9458216,13.2099493 13.9458216,14.8768642 C13.9458216,16.5437791 15.7802153,16.416011 15.7802153,16.416011 L15.7802153,17.9734057 L7.38891529,17.9734057 L7.38891529,16.4081347 C7.38891529,16.416011 9.28134229,16.5841781 9.28134229,14.8768642 C9.28134229,13.1695503 7.38891529,13.2679057 7.38891529,13.2679057 L7.38891529,9.78804922 C7.38891529,9.78804922 9.20522112,9.8017869 9.20522112,8.17358106 C9.20522112,6.54537523 7.43420054,6.64375727 7.38891529,6.64375727 L7.38891529,4.95769031 Z" id="Rectangle-28" transform="translate(11.584565, 11.465548) rotate(-30.000000) translate(-11.584565, -11.465548) "></path>
                    <rect id="Rectangle-27" transform="translate(11.567374, 11.551271) rotate(-300.000000) translate(-11.567374, -11.551271) " x="9.80777655" y="3.17157971" width="3.51919471" height="16.7593824" rx="1.75959736"></rect>
                    <rect id="Rectangle-27" transform="translate(8.189736, 5.818427) rotate(-300.000000) translate(-8.189736, -5.818427) " x="6.43013824" y="-2.59949096" width="3.51919471" height="16.8358366" rx="1.75959736"></rect>
                    <rect id="Rectangle-27" transform="translate(14.942968, 17.276170) rotate(-300.000000) translate(-14.942968, -17.276170) " x="13.1833706" y="8.82457018" width="3.51919471" height="16.9032005" rx="1.75959736"></rect>
                </g>
            </g>
            <g id="Rectangle-35">
                <use fill="#FFFFFF" fill-rule="evenodd" xlink:href="#path-5"></use>
                <path stroke="#00A2F2" stroke-width="1" d="M563.5,317.378625 L563.5,485.071521 L581.5,491.297974 L581.5,319.445863 L563.5,317.378625 Z"></path>
            </g>
            <g id="Rectangle-35">
                <use fill="#DAEDFF" fill-rule="evenodd" xlink:href="#path-6"></use>
                <path stroke="#00A2F2" stroke-width="1" d="M581.5,319.279006 L581.5,491.12828 L592.797409,484.520078 L592.797409,312.308119 L581.5,319.279006 Z"></path>
            </g>
            <path d="M585.115971,332.573828 L605.306379,276.110339 L605.306379,276.110339 C606.050205,274.030191 604.966902,271.740907 602.886754,270.99708 C602.821524,270.973755 602.755699,270.952129 602.689346,270.932222 L578.680684,263.729501 L578.680684,263.729501 C576.625201,263.112846 574.449343,264.228089 573.749778,266.256853 L554.09475,323.257148 L554.09475,323.257148 C553.374599,325.345611 554.483835,327.622442 556.572298,328.342593 C556.642086,328.366657 556.712525,328.388785 556.783537,328.408951 L580.25682,335.074866 L580.25682,335.074866 C582.282351,335.650074 584.406999,334.556503 585.115971,332.573828 Z" id="Path-231" stroke="#00A2F2" fill="#F5FAFE"></path>
            <path d="M584.74854,326.447212 L601.607557,279.300124 L601.607557,279.300124 C602.351383,277.219976 601.26808,274.930692 599.187932,274.186865 C599.122702,274.16354 599.056877,274.141913 598.990524,274.122007 L579.603089,268.305678 L579.603089,268.305678 C577.547606,267.689022 575.371748,268.804265 574.672183,270.833029 L558.263529,318.41872 L558.263529,318.41872 C557.543379,320.507183 558.652615,322.784014 560.741078,323.504165 C560.810865,323.528229 560.881305,323.550357 560.952317,323.570523 L579.889389,328.94825 L579.889389,328.94825 C581.91492,329.523458 584.039568,328.429887 584.74854,326.447212 Z" id="Path-231" stroke="#00A2F2" fill="#F5FAFE"></path>
            <g id="Group-21" transform="translate(578.450903, 301.416816) rotate(20.000000) translate(-578.450903, -301.416816) translate(561.450903, 284.916816)" fill="#00A2F2">
                <g id="Group-2" transform="translate(16.792194, 16.431668) rotate(-330.000000) translate(-16.792194, -16.431668) translate(4.792194, 4.431668)">
                    <path d="M7.38891529,4.95769031 L15.7802153,4.95769031 L15.7802153,6.63123748 C15.7802153,6.63123748 13.9458216,6.58283106 13.9458216,8.17358106 C13.9458216,9.76433107 15.7802153,9.78804922 15.7802153,9.78804922 L15.7802153,13.2679057 C15.7802153,13.2679057 13.9458216,13.2099493 13.9458216,14.8768642 C13.9458216,16.5437791 15.7802153,16.416011 15.7802153,16.416011 L15.7802153,17.9734057 L7.38891529,17.9734057 L7.38891529,16.4081347 C7.38891529,16.416011 9.28134229,16.5841781 9.28134229,14.8768642 C9.28134229,13.1695503 7.38891529,13.2679057 7.38891529,13.2679057 L7.38891529,9.78804922 C7.38891529,9.78804922 9.20522112,9.8017869 9.20522112,8.17358106 C9.20522112,6.54537523 7.43420054,6.64375727 7.38891529,6.64375727 L7.38891529,4.95769031 Z" id="Rectangle-28" transform="translate(11.584565, 11.465548) rotate(-30.000000) translate(-11.584565, -11.465548) "></path>
                    <rect id="Rectangle-27" transform="translate(11.567374, 11.551271) rotate(-300.000000) translate(-11.567374, -11.551271) " x="9.80777655" y="3.17157971" width="3.51919471" height="16.7593824" rx="1.75959736"></rect>
                    <rect id="Rectangle-27" transform="translate(8.189736, 5.818427) rotate(-300.000000) translate(-8.189736, -5.818427) " x="6.43013824" y="-2.59949096" width="3.51919471" height="16.8358366" rx="1.75959736"></rect>
                    <rect id="Rectangle-27" transform="translate(14.942968, 17.276170) rotate(-300.000000) translate(-14.942968, -17.276170) " x="13.1833706" y="8.82457018" width="3.51919471" height="16.9032005" rx="1.75959736"></rect>
                </g>
            </g>
            <g id="Group-104" transform="translate(353.000000, 199.000000)">
                <g id="Rectangle-35">
                    <use fill="#FFFFFF" fill-rule="evenodd" xlink:href="#path-7"></use>
                    <path stroke="#00A2F2" stroke-width="1" d="M9.36792453,48.2682701 L9.36792453,196.817685 L25.2169811,202.298059 L25.2169811,50.0878036 L9.36792453,48.2682701 Z"></path>
                </g>
                <g id="Rectangle-35">
                    <use fill="#DAEDFF" fill-rule="evenodd" xlink:href="#path-8"></use>
                    <path stroke="#00A2F2" stroke-width="1" d="M25.3301887,49.9209814 L25.3301887,202.128443 L35.2354382,196.336711 L35.2354382,43.8113766 L25.3301887,49.9209814 Z"></path>
                </g>
                <path d="M28.6229658,61.2755152 L46.2235169,12.072982 L46.2235169,12.072982 C46.9675887,9.99292129 45.8845556,7.70350963 43.804495,6.9594379 C43.7389915,6.93600622 43.6728878,6.9142874 43.6062515,6.89430358 L23.1892244,0.771367828 L23.1892244,0.771367828 C21.1340001,0.155019213 18.9585473,1.27003757 18.2588594,3.29840375 L1.12759051,52.9612411 L1.12759051,52.9612411 C0.407200558,55.0496217 1.51617607,57.3265801 3.60455665,58.04697 C3.67460862,58.0711345 3.74531856,58.0933478 3.8166046,58.113584 L23.7643493,63.7762157 L23.7643493,63.7762157 C25.7896171,64.3511351 27.9138723,63.2577938 28.6229658,61.2755152 Z" id="Path-231" stroke="#00A2F2" fill="#F5FAFE"></path>
                <path d="M28.2971305,55.8444975 L42.9434297,14.9006079 L42.9434297,14.9006079 C43.6875014,12.8205472 42.6044684,10.5311356 40.5244077,9.78706382 C40.4589042,9.76363214 40.3928005,9.74191332 40.3261642,9.72192951 L24.0072063,4.82797846 L24.0072063,4.82797846 C21.951982,4.21162984 19.7765291,5.3266482 19.0768412,7.35501438 L4.82443303,48.6721541 L4.82443303,48.6721541 C4.10404308,50.7605347 5.21301859,53.0374931 7.30139917,53.7578831 C7.37145114,53.7820476 7.44216108,53.8042608 7.51344712,53.824497 L23.438514,58.345198 L23.438514,58.345198 C25.4637818,58.9201174 27.588037,57.8267761 28.2971305,55.8444975 Z" id="Path-231" stroke="#00A2F2" fill="#F5FAFE"></path>
                <g id="Group-21" transform="translate(22.542061, 33.910268) rotate(20.000000) translate(-22.542061, -33.910268) translate(7.542061, 19.410268)" fill="#00A2F2">
                    <g id="Group-2" transform="translate(14.837418, 14.376184) rotate(-330.000000) translate(-14.837418, -14.376184) translate(4.337418, 3.876184)">
                        <path d="M6.55243431,4.39480844 L13.9937759,4.39480844 L13.9937759,5.87834589 C13.9937759,5.87834589 12.3670493,5.8354354 12.3670493,7.24557623 C12.3670493,8.65571706 13.9937759,8.67674232 13.9937759,8.67674232 L13.9937759,11.7615059 C13.9937759,11.7615059 12.3670493,11.7101298 12.3670493,13.187788 C12.3670493,14.6654461 13.9937759,14.5521844 13.9937759,14.5521844 L13.9937759,15.932757 L6.55243431,15.932757 L6.55243431,14.5452024 C6.55243431,14.5521844 8.23062429,14.7012583 8.23062429,13.187788 C8.23062429,11.6743176 6.55243431,11.7615059 6.55243431,11.7615059 L6.55243431,8.67674232 C6.55243431,8.67674232 8.16312061,8.68892026 8.16312061,7.24557623 C8.16312061,5.80223219 6.59259293,5.88944422 6.55243431,5.88944422 L6.55243431,4.39480844 Z" id="Rectangle-28" transform="translate(10.273105, 10.163783) rotate(-30.000000) translate(-10.273105, -10.163783) "></path>
                        <rect id="Rectangle-27" transform="translate(10.257860, 10.239773) rotate(-300.000000) translate(-10.257860, -10.239773) " x="8.69746222" y="2.81148769" width="3.12079531" height="14.8565704" rx="1.56039766"></rect>
                        <rect id="Rectangle-27" transform="translate(7.262596, 5.157820) rotate(-300.000000) translate(-7.262596, -5.157820) " x="5.70219806" y="-2.30435225" width="3.12079531" height="14.9243442" rx="1.56039766"></rect>
                        <rect id="Rectangle-27" transform="translate(13.251311, 15.314684) rotate(-300.000000) translate(-13.251311, -15.314684) " x="11.6909135" y="7.82265392" width="3.12079531" height="14.9840598" rx="1.56039766"></rect>
                    </g>
                </g>
            </g>
            <g id="Group-5" transform="translate(83.000000, 89.000000)">
                <g id="Group">
                    <g id="Group-69">
                        <g id="Group-19">
                            <g id="Group-42" transform="translate(217.650437, 55.324055) rotate(-134.000000) translate(-217.650437, -55.324055) translate(175.150437, 20.824055)">
                                <path d="M67.8587546,8.98979263 C56.9604371,31.493532 70.1388808,43.1208777 60.3383224,61.1592986 C45.8773664,87.7754157 -2.34069629,54.4407368 26.2490112,31.0465773 C37.4400033,21.8893009 51.2265166,5.47395445 62.9640972,-2.85646143" id="Path-67" stroke="#263345" fill="#D8D8D8" transform="translate(42.606724, 34.067147) rotate(-255.000000) translate(-42.606724, -34.067147) "></path>
                                <path d="M41.3128195,16.7401228 C41.1980979,26.0984716 43.3567809,70.3345557 18.1000488,54.7836242" id="Path-69" stroke="#3C3C3C" transform="translate(29.709242, 37.403303) rotate(-255.000000) translate(-29.709242, -37.403303) "></path>
                            </g>
                            <path d="M224.459531,279.441476 L239.023384,279.441476 C239.023384,279.441476 238.007627,285.749557 239.023384,288.381259 C240.039142,291.012961 242.567966,295.185632 242.567966,295.185632 L219.626365,295.185632 C219.626365,295.185632 222.464039,290.004331 223.814785,286.574425 C225.165531,283.144519 224.459531,279.441476 224.459531,279.441476 Z" id="Rectangle-51" fill="#D8D8D8"></path>
                            <path d="M219.928317,294.036959 C220.039662,296.916288 218.211318,299.476532 220.420587,300.205521 C225.798487,301.980058 231.226667,300.899812 236.83853,300.651255 C242.450393,300.402698 245.370504,300.771242 249.418768,300.651255 C252.013579,300.574346 258.808577,301.138853 260.322215,299.439268 C261.835853,297.739684 258.000493,295.378917 254.460508,295.154095 C243.778613,294.475696 233.080487,294.296602 222.390477,293.867856" id="Path-85" fill="#FFFFFF"></path>
                            <path d="M219.856914,205.750408 C233.302634,207.104932 239.998583,189.82267 242.610388,192.790231 C245.222194,195.757792 240.670171,226.628904 238.213922,257.38605 C237.599684,265.077531 240.607203,282.886888 237.079234,282.886888 C211.729729,285.925039 231.913146,221.215087 221.376278,206.117231" id="Path-63" fill="#263345" transform="translate(231.625368, 237.718657) rotate(-2.000000) translate(-231.625368, -237.718657) "></path>
                            <path d="M407.856914,290.750408 C421.302634,292.104932 427.998583,274.82267 430.610388,277.790231 C433.222194,280.757792 428.670171,311.628904 426.213922,342.38605 C425.599684,350.077531 428.607203,367.886888 425.079234,367.886888 C399.729729,370.925039 419.913146,306.215087 409.376278,291.117231" id="Path-63" fill="#263345" transform="translate(419.625368, 322.718657) rotate(-2.000000) translate(-419.625368, -322.718657) "></path>
                            <path d="M19.856914,269.750408 C33.3026339,271.104932 39.998583,253.82267 42.6103883,256.790231 C45.2221937,259.757792 40.6701714,290.628904 38.2139215,321.38605 C37.5996838,329.077531 40.6072035,346.886888 37.0792341,346.886888 C11.7297286,349.925039 31.9131464,285.215087 21.3762777,270.117231" id="Path-63" fill="#263345" transform="translate(31.625368, 301.718657) rotate(-2.000000) translate(-31.625368, -301.718657) "></path>
                            <path d="M213.86817,290.949124 L231.066757,290.949124 C231.066757,290.949124 229.867239,297.257204 231.066757,299.888906 C232.266274,302.520609 232.545009,307.510832 232.545009,307.510832 C232.545009,307.510832 227.042346,310.617578 222.843587,310.617578 C218.644828,310.617578 213.106784,307.510832 213.106784,307.510832 C213.106784,307.510832 211.511676,301.511979 213.106784,298.082073 C214.701892,294.652167 213.86817,290.949124 213.86817,290.949124 Z" id="Rectangle-51" fill="#D8D8D8"></path>
                            <path d="M204.009854,182.156938 C203.087517,192.821263 201.481597,203.415143 201.242844,214.149914 C201.001698,224.992268 211.59927,229.493767 212.079558,242.743974 C212.641966,258.259706 209.938207,274.031569 211.82332,289.347877 C212.199263,292.402362 215.493598,292.983775 217.711425,293.489846 C221.595081,294.376032 228.439853,298.485296 229.975262,293.489846 C234.687251,278.15939 230.896055,260.091075 233.15154,243.734711 C235.545489,226.374234 231.6076,226.053941 236.978182,210.053692 C237.714156,207.86105 244.497474,194.220293 242.061206,191.019875 C239.624939,187.819457 230.679098,190.142916 224.192042,188.660997 C217.23809,187.07242 213.160857,188.58447 206.399625,185.837871 L204.009854,182.156938 Z" id="Path-56" stroke="#00A2F2" fill="#263345" transform="translate(221.912771, 239.038676) rotate(-2.000000) translate(-221.912771, -239.038676) "></path>
                            <path d="M5.15081218,241.154477 C4.22847553,252.57604 2.62255524,263.922155 2.38380225,275.419166 C2.14265651,287.031398 12.740228,291.852533 13.2205164,306.043592 C13.7829246,322.661044 11.0791658,339.552813 12.9642788,355.956679 C13.3402213,359.228053 16.6345558,359.850751 18.8523835,360.392756 C22.7360396,361.341867 29.5808117,365.742916 31.1162198,360.392756 C35.8282093,343.973737 32.0370129,324.622452 34.2924981,307.104679 C36.686447,288.511493 32.7485579,288.168457 38.1191401,271.032085 C38.8551138,268.683751 45.638432,254.07441 43.2021644,250.646741 C40.7658968,247.219073 31.8200566,249.707513 25.3330002,248.120368 C18.3790479,246.418991 14.3018152,248.038407 7.54058345,245.096781 L5.15081218,241.154477 Z" id="Path-56" stroke="#00A2F2" fill="#263345" transform="translate(23.053729, 302.075194) rotate(-2.000000) translate(-23.053729, -302.075194) "></path>
                            <g id="Group-20" transform="translate(367.634496, 97.000000)">
                                <g id="Group-10">
                                    <g id="Group-9" transform="translate(79.855335, 126.794553) rotate(-23.000000) translate(-79.855335, -126.794553) translate(38.855335, 77.794553)">
                                        <path d="M65.8670258,8.75772613 C65.8670258,6.63588409 61.9233441,6.73456926 61.114655,8.75772613 C59.3247548,13.235651 51.999376,31.6331415 42.2859064,47.3442532 C32.5724367,63.055365 19.1112038,78.2761091 16.6957572,83.9999325 C12.0174373,95.0860307 20.0083877,88.5809919 20.0083877,88.5809919 C20.0083877,88.5809919 33.2353932,70.9916413 49.2449273,45.0316516 C65.2544613,19.0716618 65.8670258,18.1093675 65.8670258,8.75772613 Z" id="Path-116" fill="#95A7C2" transform="translate(40.546840, 48.840226) scale(-1, 1) rotate(-25.000000) translate(-40.546840, -48.840226) "></path>
                                        <path d="M45.7741074,95.3168118 C36.7712853,86.1027409 35.8025959,88.6467634 48.576113,87.6455859" id="Path-108" stroke="#263345" transform="translate(43.785286, 91.481199) scale(-1, 1) rotate(-110.000000) translate(-43.785286, -91.481199) "></path>
                                    </g>
                                    <path d="M44.9805692,122.658032 C46.365197,131.088808 49.1480998,139.405855 49.1344524,147.950361 C49.1231523,155.025264 42.8430394,172.993739 41.1494573,175.294348 C40.8129868,175.751418 48.4605143,175.294348 49.1344524,174.41883 C49.8083906,173.543313 54.3120817,152.160827 54.8381006,150.585768 C57.5507121,142.463391 53.701577,124.304405 52.8114049,120.202923" id="Path-112" fill="#FF939F"></path>
                                    <g id="Group-35" transform="translate(14.419229, 0.539407)">
                                        <g id="Group-39" transform="translate(0.000000, 0.000000)">
                                            <path d="M24.1058273,179.608204 C29.7120293,183.213489 35.961157,177.800911 41.4476086,176.138591 C47.6781082,174.250836 44.9963164,129.963237 44.6653649,123.27134 C44.3992766,117.890989 50.5267187,114.871525 50.4829374,109.497501 C50.4391561,104.123477 46.4644065,93.7574687 47.0295559,94.9240442 C48.7921355,98.5623425 49.0713655,105.144413 51.0956053,103.640721 C52.3166978,102.733641 55.3402381,106.209179 57.5726895,99.7580657 C59.8051409,93.3069527 50.3719169,77.8265426 49.5033361,77.0006852 C41.7251374,69.6050773 41.9775907,71.3091712 40.0493434,71.4998986 C39.2331957,71.5806256 36.4723939,71.1553373 35.3736666,72.4018745 C34.2749393,73.6484118 33.430657,77.4760381 26.3935858,76.2785579 C25.2055218,76.0763882 25.51237,72.0053141 24.4905313,70.351492 C23.4686925,68.6976699 21.9465347,70.6172251 21.0044475,69.9850898 C19.8890203,69.2366444 14.6141923,69.3272698 12.429134,73.0836757 C10.2440757,76.8400817 10.5542539,85.594002 11.0894017,85.9039701 C11.5200111,86.1533876 9.52577241,135.009391 7.64147827,155.281501 C7.09333812,161.178647 4.76377817,173.124416 6.57798068,176.504064 C8.39218319,179.883711 23.2715743,179.071705 24.1058273,179.608204 Z" id="Path-89" stroke="#00A2F2" fill="#FFFFFF" transform="translate(31.905781, 125.218284) rotate(-366.000000) translate(-31.905781, -125.218284) "></path>
                                            <path d="M23.6088101,115.472373 C36.7009097,121.454317 31.1410305,117.601204 40.7008867,126.233818" id="Path-113" stroke="#00A2F2"></path>
                                            <path d="M39.3016088,4.1692584 C42.7504438,-0.795265733 43.5673594,-0.63871625 48.4684897,2.64877842" id="Path-233" stroke="#263345"></path>
                                            <path d="M50.3016088,4.1692584 C53.7504438,-0.795265733 54.5673594,-0.63871625 59.4684897,2.64877842" id="Path-233" stroke="#263345"></path>
                                        </g>
                                    </g>
                                    <g id="Group-6" transform="translate(67.849171, 282.075147) rotate(-3.000000) translate(-67.849171, -282.075147) translate(48.849171, 267.575147)">
                                        <path d="M3.58247586,0.301620503 C7.94480106,41.6201506 10.9847842,22.1004107 11.3206948,1.01751089" id="Path-106" fill="#95A7C2" transform="translate(7.451585, 12.434990) scale(-1, 1) translate(-7.451585, -12.434990) "></path>
                                        <path d="M31.8668944,22.6595057 C25.2902188,21.0734447 17.0525998,15.9337926 10.3735692,14.8394664 C8.78701111,14.5795166 7.27029941,16.0281783 6.3959101,15.9895194 C5.5215208,15.9508605 4.13693191,15.031524 3.06681179,14.8394664 C3.06681179,14.8394664 -1.24835859,23.2605319 1.05304666,25.9240974 C3.35445192,28.5876629 14.5060498,27.7216194 16.7182594,28.1549923 C18.8357916,28.5698178 32.3462773,28.9532653 35.8435203,28.1549923 C39.3407634,27.3567192 36.6094476,23.8032413 31.8668944,22.6595057 Z" id="Path-173" stroke="#00A2F2" fill="#F3F3F3"></path>
                                    </g>
                                    <g id="Group-7" transform="translate(54.563800, 295.498486) rotate(-1.000000) translate(-54.563800, -295.498486) translate(35.563800, 282.998486)">
                                        <path d="M2.65541591,0.350609821 C7.01774111,25.7593477 10.0577243,13.7557272 10.3936349,0.790845014" id="Path-106" fill="#95A7C2" transform="translate(6.524525, 7.811999) scale(-1, 1) translate(-6.524525, -7.811999) "></path>
                                        <path d="M31.7411305,18.6788835 C25.1644549,17.0928225 16.9268359,11.9531705 10.2478053,10.8588442 C8.66124716,10.5988944 7.14453546,12.0475561 6.27014615,12.0088972 C5.39575685,11.9702383 4.01116797,11.0509019 2.94104785,10.8588442 C2.94104785,10.8588442 -1.37412254,19.2799097 0.927282717,21.9434752 C3.22868797,24.6070407 14.3802858,23.7409972 16.5924954,24.1743701 C18.7100277,24.5891956 32.2205134,24.9726432 35.7177564,24.1743701 C39.2149994,23.376097 36.4836837,19.8226191 31.7411305,18.6788835 Z" id="Path-173" stroke="#00A2F2" fill="#F3F3F3"></path>
                                    </g>
                                    <g id="Group-8" transform="translate(62.055301, 109.866349) rotate(-33.000000) translate(-62.055301, -109.866349) translate(17.555301, 68.866349)">
                                        <path d="M68.4493884,6.48306299 C71.1106299,10.1614904 70.9785844,21.0880263 70.9785844,21.0880263 C70.9785844,21.0880263 80.6652827,35.4902352 80.5270984,51.5809392 C80.3889141,67.6716433 -0.759840039,72.6717534 0.202775325,74.7618485 C3.28357381,81.4510852 16.8342365,79.0254415 32.4670396,76.4120817 C48.0998426,73.798722 89.9614828,61.7618592 88.0334363,51.5799402 C86.5001877,43.4829291 80.7661239,22.3093019 80.5270984,16.8359551 C80.2880729,11.3626083 78.7336117,17.797592 80.5270984,11.9440806 C82.5655583,5.29103532 73.5307616,1.14941046 72.4987202,0.160416" id="Path-116" fill="#95A7C2" transform="translate(44.146075, 39.620918) scale(-1, 1) translate(-44.146075, -39.620918) "></path>
                                        <path d="M79.0226606,69.6822726 C77.2477595,76.691424 76.4255522,91.5640643 83.2573179,75.523963" id="Path-176" stroke="#263345" transform="translate(80.517769, 76.190524) scale(-1, 1) rotate(60.000000) translate(-80.517769, -76.190524) "></path>
                                    </g>
                                    <path d="M35.0934741,75.5928477 C33.7029826,76.831147 28.4133913,73.157285 24.3836825,74.2147673 C20.3539736,75.2722495 11.9134071,82.4889124 10.007723,86.1200155 C6.91821755,92.0067795 6.03058225,107.756093 10.007723,108.259309 L11.6543733,113.785194 C32.1302094,116.375945 31.7260754,105.376036 27.7866993,92.8964443" id="Path-172" stroke="#00A2F2" fill="#FFFFFF" transform="translate(21.220417, 94.093917) rotate(-23.000000) translate(-21.220417, -94.093917) "></path>
                                </g>
                            </g>
                            <path d="M394.519067,265.6844 C393.59673,277.105963 391.99081,288.452078 391.752057,299.949089 C391.510911,311.561321 402.108483,316.382456 402.588771,330.573515 C403.15118,347.190967 400.447421,364.082736 402.332534,380.486602 C402.708476,383.757976 406.002811,384.380673 408.220638,384.922679 C412.104295,385.871789 418.949067,390.272839 420.484475,384.922679 C425.196464,368.503659 421.405268,349.152375 423.660753,331.634601 C426.054702,313.041416 422.116813,312.69838 427.487395,295.562008 C428.223369,293.213674 435.006687,278.604333 432.570419,275.176664 C430.134152,271.748996 421.188312,274.237436 414.701255,272.650291 C407.747303,270.948914 403.67007,272.56833 396.908838,269.626704 L394.519067,265.6844 Z" id="Path-56" stroke="#00A2F2" fill="#263345" transform="translate(412.421984, 326.605117) rotate(-2.000000) translate(-412.421984, -326.605117) "></path>
                            <path d="M229.634491,282.269765 C233.214665,282.017638 236.65978,285.519321 237.921888,280.782804 C241.346339,267.931314 235.470985,252.707172 238.357886,239.595253 C241.799989,223.961682 241.629312,187.567945 242.776428,182.467732" id="Path-57" stroke="#00A2F2" transform="translate(236.205460, 232.874215) rotate(-2.000000) translate(-236.205460, -232.874215) "></path>
                            <path d="M30.6344912,345.269765 C34.2146652,345.017638 37.6597797,348.519321 38.921888,343.782804 C40.2842875,338.669907 37.6831244,333.035476 37.2389567,327.453908 C36.794789,321.872339 37.6195232,310.490665 39.3578861,302.595253 C42.7999893,286.961682 42.6293119,250.567945 43.7764282,245.467732" id="Path-57" stroke="#00A2F2" transform="translate(37.205460, 295.874215) rotate(-2.000000) translate(-37.205460, -295.874215) "></path>
                            <path d="M207.188063,209.174659 C207.179044,209.883733 208.609248,228.351603 203.143318,219.237031" id="Path-58" stroke="#00A2F2" transform="translate(205.246856, 215.466857) rotate(-2.000000) translate(-205.246856, -215.466857) "></path>
                            <path d="M201.424563,183.036065 C201.543045,178.565273 203.310606,168.310145 203.419321,158.104495 C203.528036,147.898846 203.96779,131.748183 203.419321,129.959416 C203.340631,129.702776 203.633229,103.017609 205.647949,98.980287 C211.59077,87.071393 228.438295,92.3064255 233.928907,96.1921948 C233.928907,96.1921948 234.864709,132.343984 233.928907,143.351383 C233.869308,144.052421 242.671687,184.304342 242.671687,186.759454 C242.671687,192.580189 223.17003,194.386621 212.018712,190.017568 L201.424563,183.036065 Z" id="Path-59" stroke="#00A2F2" fill="#FFFFFF"></path>
                            <path d="M218.207766,98.7248859 C218.179797,98.2747562 218.064365,92.8741442 216.047897,93.1625526 C214.767151,93.3457333 203.936347,91.2148958 194.98489,81.6077731 C186.033432,72.0006504 184.703326,62.350333 183.925678,59.8406228 C182.103072,53.9585141 189.032258,22.6405155 189.032258,22.6405155 C189.032258,22.6405155 199.85318,16.3734471 203.905381,16.3734471 C210.676672,16.3734471 219.074643,14.3313885 221.809363,14.1949918 C224.544082,14.0585952 226.03026,20.5039027 229.701374,23.410002 C233.575576,26.4768695 243.447358,26.9072717 243.809935,30.8381708 C243.939395,32.2417146 251.652188,37.6763168 259.375311,44.9602373 C260.890296,46.389067 261.201796,51.1328347 263.657426,53.5071063 C266.113055,55.8813778 290.973001,75.7112645 291.013598,75.8362568 C291.048238,75.9429099 294.979825,77.8097935 297.607639,77.1433838 C300.235453,76.4769741 303.128362,72.8598292 303.128362,72.8598292 C303.128362,72.8598292 309.087055,61.323786 309.624016,50.2444733 C309.784327,46.9367107 310.121358,39.7517929 311.396241,36.7075755 C312.671124,33.663358 320.136725,40.2881225 320.136725,40.2881225 C320.136725,40.2881225 321.777455,48.2629887 318.272631,59.1116709 C314.767808,69.9603531 310.88538,83.7515431 297.529904,87.3167041 C284.174428,90.881865 258.549788,68.7280328 254.464896,65.5119769 C254.033344,65.1722146 245.27254,74.2103162 239.126313,83.0131899 C232.980087,91.8160636 233.051,95.5861605 231.311906,96.6460296 L218.207766,98.7248859 Z" id="Path-66" fill="#D8D8D8" transform="translate(252.070288, 56.458873) rotate(9.000000) translate(-252.070288, -56.458873) "></path>
                            <ellipse id="Oval-23" stroke="#263345" fill="#263345" transform="translate(234.588967, 36.786357) rotate(-15.000000) translate(-234.588967, -36.786357) " cx="234.588967" cy="36.7863574" rx="1.14657243" ry="1.15076477"></ellipse>
                            <ellipse id="Oval-23" stroke="#263345" fill="#263345" transform="translate(242.776331, 33.891389) rotate(-15.000000) translate(-242.776331, -33.891389) " cx="242.776331" cy="33.891389" rx="1.14657243" ry="1.15076477"></ellipse>
                            <g id="Group-42" transform="translate(170.944127, 55.507325) rotate(-95.000000) translate(-170.944127, -55.507325) translate(122.444127, 15.007325)">
                                <path d="M78.5645308,12.4438694 C65.4494451,37.7890053 81.3084452,50.884458 69.5144079,71.2004695 C52.1120266,101.177226 -5.91381311,63.6335999 28.4911731,37.2856166 C41.9584648,26.9721122 58.5492187,8.48410989 72.6742774,-0.898131807" id="Path-67" stroke="#263345" fill="#D8D8D8" transform="translate(48.176121, 40.687573) rotate(-255.000000) translate(-48.176121, -40.687573) "></path>
                                <path d="M55.9802384,20.5680705 C55.8421818,31.1080355 58.4399508,80.9295136 28.0458827,63.4150702" id="Path-69" stroke="#3C3C3C" transform="translate(42.016439, 43.840252) rotate(-255.000000) translate(-42.016439, -43.840252) "></path>
                            </g>
                            <path d="M189.763412,12.9734312 C201.795783,10.5701422 195.585688,9.92160465 208.036649,17.1036001" id="Path-80" stroke="#263345" transform="translate(198.900031, 14.212041) rotate(-47.000000) translate(-198.900031, -14.212041) "></path>
                            <path d="M212.141989,304.623266 C212.253334,307.502596 210.266757,312.532266 212.476025,313.261255 C217.671669,314.975654 223.279825,314.585965 228.699501,314.37294 C234.119178,314.159916 244.984362,313.386825 249.220953,313.261255 C252.660189,313.159319 261.705127,310.557214 260.168161,308.340968 C258.631194,306.124721 243.276128,306.212709 240.585694,306.041841 C233.99599,305.623334 231.81069,307.867277 225.680152,307.542755 C219.549614,307.218232 218.69945,304.618414 214.604149,304.454163" id="Path-85" fill="#FFFFFF"></path>
                            <path d="M246.046264,307.37402 C245.026811,301.322828 241.94177,307.392522 247.648227,303.330638" id="Path-86" stroke="#263345"></path>
                            <path d="M251.539447,296.787713 C250.519994,290.73652 247.434953,296.806215 253.14141,292.74433" id="Path-86" stroke="#263345"></path>
                            <g id="Group-43" transform="translate(226.252947, 68.838594) rotate(20.000000) translate(-226.252947, -68.838594) translate(211.752947, 64.338594)">
                                <path d="M1.41900428,-1.1636365 C4.57480889,1.2190943 4.08043062,-0.315199308 2.32078982,3.58853574" id="Path-74" stroke="#3C3C3C" transform="translate(2.567690, 1.212450) rotate(-270.000000) translate(-2.567690, -1.212450) "></path>
                                <path d="M28.8509853,4.58255639 C19.4321998,7.57653089 8.85624867,12.2511299 2.95098267,1.84423555" id="Path-125" stroke="#263345"></path>
                            </g>
                            <path d="M228.300684,34.8432015 C232.112338,30.0217339 229.763847,30.5644453 235.052872,32.2527172" id="Path-126" stroke="#263345"></path>
                            <path d="M237.499175,30.2365007 C241.310829,25.4150331 238.962338,25.9577446 244.251363,27.6460164" id="Path-126" stroke="#263345"></path>
                            <path d="M229.965961,10.9238127 C233.872236,18.0984749 229.398493,19.6854195 238.406603,22.8708961" id="Path-128" stroke="#263345"></path>
                            <path d="M258.650274,44.1539655 C259.795866,45.6568041 260.905861,47.1875471 262.087048,48.6624812 L263.239004,54.6539146 C271.20684,64.6032517 279.581062,74.3892089 289.294842,82.6365138 C291.255986,84.3015869 294.940794,84.8696912 296.979055,83.3002808 C302.014232,79.4233173 304.549504,73.0842721 308.334728,67.9762678" id="Path-129" stroke="#263345"></path>
                            <path d="M252.944,65.5353794 C252.751764,59.0936487 251.741834,61.5313287 254.325759,57.7395784" id="Path-130" stroke="#263345"></path>
                            <path d="M259.089786,44.5547348 C246.668792,35.2986158 251.953254,30.9838945 241.242156,22.0634457" id="Path-131" stroke="#263345"></path>
                            <path d="M195.863557,77.4999998 C202.957181,83.7797025 208.333025,80.8754083 212.655786,90.0738428" id="Path-132" stroke="#263345"></path>
                            <polygon id="Rectangle-54" fill="#D8D8D8" transform="translate(275.834862, 149.759679) rotate(-120.000000) translate(-275.834862, -149.759679) " points="272.026565 142.7146 281.225056 142.7146 281.225056 156.804757 270.444669 153.018812"></polygon>
                            <path d="M225.985104,92.3106098 C230.016335,81.1730135 243.884822,73.5890225 252.713716,65.3403462" id="Path-133" stroke="#263345"></path>
                            <path d="M254.154282,64.9269015 C263.771778,79.4834262 257.461451,73.2491648 273.794894,82.880556" id="Path-134" stroke="#263345"></path>
                            <path d="M323.062758,55.909734 C311.369583,83.3385202 318.741755,72.0040924 302.803628,91.0549553 L288.855213,93.8881579 L271.474316,82.2070347" id="Path-135" stroke="#263345" transform="translate(297.268537, 74.898946) rotate(-6.000000) translate(-297.268537, -74.898946) "></path>
                            <path d="M214.219614,116.967073 C216.135056,101.770382 217.918954,101.355703 220.260695,103.107595 C222.602437,104.859487 225.341562,108.168073 226.963277,120.285043 C228.072399,128.572078 224.427485,135.66568 228.360213,142.216211 C233.957285,151.538951 270.050457,138.019965 277.361164,146.05938 C279.397676,148.298885 270.814415,156.120974 274.583953,154.075692 C278.35349,152.03041 222.599414,175.426044 214.219614,151.651005 C210.807706,141.970795 214.219614,116.967073 214.219614,116.967073 Z" id="Path-60" stroke="#00A2F2" fill="#FFFFFF"></path>
                            <path d="M212.12099,92.1612496 C216.091738,92.3657715 220.062486,92.5702934 224.033234,92.7748153" id="Path-138" stroke="#00A2F2"></path>
                            <path d="M277.972089,141.091994 C283.533665,150.003888 283.42098,145.711128 280.416239,153.815733" id="Path-119" stroke="#666666"></path>
                        </g>
                    </g>
                </g>
            </g>
            <path d="M640.636592,527.807162 C652.259854,527.669362 663.927004,528.425083 675.506377,527.393762 C688.368886,526.248157 683.749932,515.356353 669.925586,514.335403 C662.172187,513.762802 653.10661,513.572446 645.832434,517.284064 C633.041945,523.810357 640.636592,527.807162 640.636592,527.807162 Z" id="Path-196" fill="#E9EEF3"></path>
            <path d="M672.473801,493.90071 C675.868169,493.368438 689.632625,493.085043 686.175992,483.784155 C685.475339,481.898881 680.340312,483.062507 680.825771,481.109023 C681.375132,478.898397 685.633963,480.729391 687.312515,479.210794 C688.592485,478.052796 687.162887,475.199331 688.525743,474.142805 L686.937935,471.475442 C694.94713,465.26648 674.414255,495.010571 699.501047,457.449777 C701.014896,455.183192 706.038477,459.257013 706.396888,453.640369 C706.488274,452.208252 705.053314,450.497535 705.920034,449.36223 C706.84801,448.146688 709.34153,449.550662 710.376634,448.427359 C711.879995,446.7959 711.018975,443.681364 712.593428,442.120212 C714.304432,440.423663 720.531012,444.563826 720.931336,434.551894 C721.047942,431.635616 721.094855,428.340271 719.485434,425.919222 C718.61228,424.605739 716.339813,424.970025 714.826842,425.368916 C713.455844,425.730377 712.892385,427.864084 711.485031,428.02851 C699.066507,429.479404 714.124524,426.069989 697.702299,432.600576 C695.459351,433.492524 677.966123,444.643023 677.041624,445.447941 L677.099153,448.727761 C676.096587,449.600648 674.358725,448.343297 673.134748,448.849475 C666.175505,451.727488 668.313726,460.739259 666.494593,465.752267 C666.055557,466.962124 664.213765,467.03225 663.411025,468.032473 C662.96568,468.587377 661.048561,472.752078 662.002197,473.98613 C663.118111,475.430177 665.377424,475.656631 666.463911,477.123518 C666.838289,477.628973 665.146974,477.17926 664.639594,477.546929 C663.738382,478.199986 662.836609,479.013632 662.420243,480.053732 C661.576621,482.161137 660.680201,484.460548 660.969227,486.715664 C661.162574,488.224243 662.512825,489.434728 663.735745,490.317898 C664.579405,490.927174 665.770151,490.717571 666.787353,490.917407" id="Path-199" stroke="#979797" fill="#C6D3DD"></path>
            <path d="M671.092023,516.129436 C671.284119,485.179523 677.238172,436.699182 716.30867,432.36721" id="Path-198" stroke="#979797"></path>
            <g id="Group-73" transform="translate(644.967789, 493.434957) scale(-1, 1) translate(-644.967789, -493.434957) translate(625.467789, 462.434957)" stroke="#979797">
                <path d="M7.54553456,44.4975396 C9.74189043,44.1547885 18.648303,43.9722998 16.4116584,37.9830914 C15.9582944,36.7690894 12.6356303,37.5183935 12.9497505,36.2604688 C13.3052194,34.8369596 16.0609336,36.0160086 17.1470553,35.0381239 C17.9752711,34.2924435 17.0502373,32.4549849 17.9320853,31.7746463 L16.9046804,30.0570265 C22.0871007,26.0588308 8.80112227,45.2122231 25.0337528,21.0253481 C26.0133017,19.5658048 29.2638546,22.1890988 29.4957673,18.5723202 C29.5548998,17.6501238 28.6263959,16.5485252 29.187215,15.8174582 C29.7876702,15.0347227 31.4011241,15.9387965 32.0708973,15.2154575 C33.0436601,14.1648971 32.4865299,12.1593242 33.5052936,11.1540371 C34.6124132,10.0615628 38.641377,12.7275763 38.9004101,6.28049942 C38.9758614,4.40259254 39.0062166,2.28059027 37.9648264,0.721581405 C37.3998448,-0.124222071 35.9294246,0.11035628 34.9504436,0.3672181 C34.0633269,0.599976865 33.6987363,1.97395506 32.7880955,2.07983511 C24.7525799,3.01412307 34.4960024,0.818666145 23.8698569,5.02396883 C22.4185374,5.59832929 11.0993898,12.7785746 10.5011849,13.2968929 L10.5384097,15.4088982 C9.88969046,15.9709848 8.76519124,15.1613266 7.97320632,15.487275 C3.47016636,17.3405408 4.85372172,23.1435753 3.67663541,26.3716481 C3.39255322,27.1507227 2.20080546,27.1958796 1.68138531,27.8399629 C1.39322118,28.1972877 0.152732063,30.8791023 0.769790943,31.673757 C1.49185312,32.6036359 2.95376104,32.7494584 3.65678218,33.6940447 C3.89902707,34.0195274 2.80464648,33.7299394 2.47634192,33.966696 C1.89320493,34.3872248 1.3097045,34.9111637 1.04029127,35.5809251 C0.494417927,36.9379664 -0.0856180913,38.4186476 0.101398703,39.8708056 C0.226505196,40.8422391 1.10019736,41.6217178 1.89149871,42.1904261 C2.43739619,42.5827626 3.20787848,42.4477911 3.86606836,42.5764736" id="Path-199" fill="#C6D3DD"></path>
                <path d="M5.66601921,60.9997035 C5.7903168,41.0698351 9.6429392,9.85143369 34.9238499,7.06190654" id="Path-198"></path>
            </g>
            <path d="M545.536913,232.894747 C518.22342,232.831458 530.216843,234.926275 509,228.222769" id="Path-234" stroke="#263345"></path>
            <path d="M155.312805,474.638731 C172.289712,462.333323 153.043426,475.31518 175.676637,472.674067" id="Path-235" stroke="#00A2F2"></path>
            <polyline id="Path-236" stroke="#00A2F2" points="102.866701 471.793156 116.149918 471.793156 120.451606 471.793156 120.547231 471.793156 120.642856 471.793156"></polyline>
            <path d="M305.169165,408.668899 C310.693214,408.761144 316.217262,408.853388 321.741311,408.945633" id="Path-237" stroke="#00A2F2"></path>
            <polyline id="Path-238" stroke="#00A2F2" points="298.795597 413.467548 313.805864 413.467548 314.107228 413.467548"></polyline>
            <path d="M562.367767,490.994996 C571.155304,491.12939 581.063973,494.547996 589.318151,492.151192" id="Path-239" stroke="#00A2F2"></path>
            <path d="M764.271792,462.886968 C781.003243,465.820816 773.129605,465.494651 787.847763,464.641546" id="Path-240" stroke="#00A2F2"></path>
            <g id="Group-20" transform="translate(422.000000, 52.000000)" fill="#FFFFFF">
                <ellipse id="Oval-9" cx="17.8224723" cy="30.8395351" rx="17.8224723" ry="17.9299623"></ellipse>
                <ellipse id="Oval-9" cx="36.3578435" cy="17.9299623" rx="17.8224723" ry="17.9299623"></ellipse>
                <ellipse id="Oval-9" cx="59.170608" cy="23.6675502" rx="17.8224723" ry="17.9299623"></ellipse>
                <ellipse id="Oval-9" cx="78.4188781" cy="34.4255276" rx="14.2579778" ry="14.3439698"></ellipse>
                <rect id="Rectangle" x="18.5353712" y="27.2535427" width="59.8835069" height="21.5159547"></rect>
            </g>
        </g>
    </g>
</svg>