<?xml version="1.0" encoding="UTF-8"?>
<svg width="169px" height="205px" viewBox="0 0 169 205" version="1.1" xmlns="http://www.w3.org/2000/svg" xmlns:xlink="http://www.w3.org/1999/xlink">
    <!-- Generator: Sketch 44.1 (41455) - http://www.bohemiancoding.com/sketch -->
    <title>Group 6</title>
    <desc>Created with Sketch.</desc>
    <defs>
        <rect id="path-1" x="10" y="103" width="148" height="81"></rect>
    </defs>
    <g id="SITE-ASSETS" stroke="none" stroke-width="1" fill="none" fill-rule="evenodd">
        <g id="Group-6" transform="translate(-4.000000, -12.000000)">
            <g id="Group-4" transform="translate(90.151391, 109.530150) rotate(3.000000) translate(-90.151391, -109.530150) translate(6.151391, 5.030150)">
                <polygon id="Rectangle-27" fill="#FFF0D7" transform="translate(100.270048, 103.814522) rotate(16.000000) translate(-100.270048, -103.814522) " points="91.7700484 4.10822324 107.997042 -1.47917875 108.770048 209.108223 91.7700484 209.108223"></polygon>
                <polygon id="Rectangle-27" fill="#F6E5C9" transform="translate(93.500000, 126.500000) rotate(16.000000) translate(-93.500000, -126.500000) " points="102 44 102 209 85 209"></polygon>
                <g id="Rectangle-28" transform="translate(84.000000, 143.500000) rotate(22.000000) translate(-84.000000, -143.500000) ">
                    <use fill="#FFFFFF" fill-rule="evenodd" xlink:href="#path-1"></use>
                    <rect stroke="#CCCCCC" stroke-width="1" x="10.5" y="103.5" width="147" height="80"></rect>
                </g>
                <g id="Group-3" transform="translate(84.643357, 141.699345) rotate(-345.000000) translate(-84.643357, -141.699345) translate(41.143357, 111.199345)" stroke="#FF939F" stroke-width="2">
                    <path d="M17.7946107,2.07489905 C-2.57343488,-7.67357715 18.7877822,26.4441386 0.183661158,27.8069168" id="Path-157"></path>
                    <polyline id="Path-158" points="1.99006526 15.182358 3.52699918 15.182358 9.95732084 15.182358 11.0805107 15.182358 11.2379004 15.182358 11.4680232 15.182358 11.5407563 15.182358 11.6146817 15.182358 11.6874148 15.182358 11.7589556 15.182358 11.829304 15.182358 12.0820813 15.182358 12.1607761 15.182358 12.649638 15.182358 12.7199864 15.182358"></polyline>
                    <path d="M17.7946107,33.6457253 C-2.57343488,23.8972491 18.7877822,58.0149648 0.183661158,59.3777431" id="Path-157"></path>
                    <polyline id="Path-158" points="1.99006526 46.7531842 3.52699918 46.7531842 9.95732084 46.7531842 11.0805107 46.7531842 11.2379004 46.7531842 11.4680232 46.7531842 11.5407563 46.7531842 11.6146817 46.7531842 11.6874148 46.7531842 11.7589556 46.7531842 11.829304 46.7531842 12.0820813 46.7531842 12.1607761 46.7531842 12.649638 46.7531842 12.7199864 46.7531842"></polyline>
                    <path d="M21.4610745,0.374613735 C21.3558634,2.88643689 14.9991022,20.464448 23.8362276,23.1257666 C24.512983,23.3295729 25.1342949,22.566159 25.7833285,22.2863551" id="Path-159"></path>
                    <path d="M30.968841,14.7674216 C25.230236,15.1526663 29.0282637,24.3158277 32.3293077,22.84795 C38.6957865,20.0169632 21.356889,4.1268094 38.6248943,22.3841275" id="Path-160"></path>
                    <path d="M42.311628,14.9844286 C42.311628,37.6113712 42.6352149,12.3717664 44.7261285,14.9903903 C45.9938866,16.5781085 44.7123363,19.727493 46.4061439,20.8495782 C48.975101,22.5514178 49.4490602,5.03771058 51.014561,22.9421454" id="Path-161"></path>
                    <path d="M69.9361009,46.5552548 C69.9361009,69.1821974 70.2596878,43.9425926 72.3506015,46.5612165 C73.6183595,48.1489347 72.3368093,51.2983193 74.0306169,52.4204045 C76.599574,54.1222441 77.0735332,36.6085368 78.639034,54.5129716" id="Path-161"></path>
                    <path d="M56.3038076,16.5285166 C56.3038076,22.4704619 54.6895006,21.3922674 59.5994518,21.3300937" id="Path-166"></path>
                    <path d="M56.5065064,10.5143236 C56.5589696,10.9980186 56.6114328,11.4817136 56.6638961,11.9654086" id="Path-170"></path>
                    <path d="M16.8402748,48.0993428 C16.8402748,54.0412882 15.2259678,52.9630937 20.135919,52.9009199" id="Path-166"></path>
                    <path d="M17.0429736,42.0851499 C17.0954368,42.5688449 17.1479,43.0525399 17.2003632,43.5362349" id="Path-170"></path>
                    <path d="M59.8927689,16.2924321 C63.0873554,27.3027526 60.4293784,4.83539113 65.8401904,22.1695052" id="Path-171"></path>
                    <path d="M72.3027054,16.6966373 C68.6335165,17.2065326 67.8410737,16.3205913 69.1417964,22.0216543 C69.2945325,22.6910961 70.3385375,23.874588 70.7419246,23.3189267 C71.7642314,21.9107101 70.8389457,16.8453732 71.8961155,18.2276095 C78.5669856,26.9496898 74.4491975,40.6769439 61.6490945,30.9690183" id="Path-174"></path>
                    <path d="M78.4647493,18.5829286 C76.749844,30.1692571 86.9600684,21.4698612 79.0203825,18.9179778" id="Path-175"></path>
                    <path d="M28.6484735,44.7312622 C9.0456325,46.7208668 44.3615875,52.0845591 22.3695797,55.0390928" id="Path-177"></path>
                    <path d="M33.5252307,34.8286421 C33.0832797,42.1335667 28.7618416,54.7588443 39.6169261,55.091369" id="Path-178"></path>
                    <polyline id="Path-179" points="29.9732322 40.8583355 33.6492347 40.8583355 33.9747451 40.8583355 34.4647993 40.8583355 34.9298142 40.8583355 35.001355 40.8583355"></polyline>
                    <g id="Group-2" transform="translate(55.248946, 38.674262)">
                        <polyline id="Path-180" points="2.21501424 0.560098152 2.21501424 9.35484182 2.21501424 9.9176291 2.21501424 16.8690059 2.21501424 19.8451014 2.21501424 21.2663778 2.21501424 21.7576243 2.21501424 21.9126293"></polyline>
                        <path d="M1.93838998,1.40666377 C11.7598454,0.651380798 7.29983799,9.34419292 0.439611134,10.8130809" id="Path-181"></path>
                    </g>
                    <g id="Group-2" transform="translate(81.294878, 45.777698)">
                        <polyline id="Path-180" points="1.32900854 0.340059592 1.32900854 5.67972539 1.32900854 6.02141767 1.32900854 10.2418965 1.32900854 12.0488116 1.32900854 12.9117294 1.32900854 13.2099862 1.32900854 13.3040963"></polyline>
                        <path d="M1.16303399,0.854045861 C7.05590724,0.395481199 4.3799028,5.67325999 0.26376668,6.56508483" id="Path-181"></path>
                    </g>
                    <path d="M63.1001795,49.8295464 C63.1001795,58.1171253 64.8130356,54.7787364 66.8369916,47.4579703" id="Path-182"></path>
                </g>
            </g>
            <path d="M90.3349679,12.9145743 C90.3349679,42.1820781 88.3908946,59.1698218 108.61625,81.5614326 C113.152126,86.5831284 134.223532,101.742234 137.887071,87.7044971 C138.575547,85.0664365 137.225671,80.1690293 135.454392,78.1751941 C128.625288,70.4880297 120.456277,64.0265329 113.915902,56.0922617 C102.653421,42.4295017 101.886931,30.417282 100.802095,13.4432806" id="Path-184" fill="#FF939F"></path>
            <path d="M113.468683,85.4561368 C125.945635,94.7497376 146.134202,91.4844749 127.368877,74.5065718" id="Path-185" stroke="#263345" stroke-width="2"></path>
        </g>
    </g>
</svg>