<?xml version="1.0" encoding="UTF-8"?>
<svg width="954px" height="555px" viewBox="0 0 954 555" version="1.1" xmlns="http://www.w3.org/2000/svg" xmlns:xlink="http://www.w3.org/1999/xlink">
    <!-- Generator: Sketch 44.1 (41455) - http://www.bohemiancoding.com/sketch -->
    <title>Group 102</title>
    <desc>Created with Sketch.</desc>
    <defs>
        <polygon id="path-1" points="474.781632 207.654304 678.315334 73.2626091 585.787112 661.995868 361.586863 713.447864"></polygon>
        <rect id="path-2" x="124" y="33" width="130" height="251"></rect>
        <polygon id="path-3" points="297.337658 486.974021 432.013945 378.809982 422.939953 375.143852 292.616715 485.066636"></polygon>
        <path d="M479.918953,421.635594 C483.963693,422.257625 485.939624,423.055953 485.846747,424.030578 C485.803039,424.489239 485.781121,425.564951 485.780994,427.257712 L479.135409,429.857878 L473.096259,493.231046 C476.852248,496.53561 479.007562,498.689697 479.562198,499.693309 C480.394153,501.198726 479.401634,504.79649 479.35837,505.250492 C479.29903,505.87319 476.921404,504.912567 472.225493,502.368622 L464.780818,499.360779 L473.071396,418.869001 L479.918953,421.635594 Z" id="path-4"></path>
        <path d="M450.90445,365.064998 C434.995563,377.173153 427.678593,407.401726 428.953541,455.750718 L508.94186,467.23712 L518.354802,387.707978 C489.296788,360.504504 466.813337,352.956844 450.90445,365.064998 Z" id="path-5"></path>
        <polygon id="path-6" points="229.625505 417.215388 350.007304 306.712242 470.384204 326.535259 340.060966 436.458044"></polygon>
    </defs>
    <g id="Page-1" stroke="none" stroke-width="1" fill="none" fill-rule="evenodd">
        <g id="Group-102">
            <ellipse id="Oval-17" fill="#E9EEF3" cx="190.5" cy="305.5" rx="42.5" ry="9.5"></ellipse>
            <ellipse id="Oval-17" fill="#E9EEF3" cx="90.5" cy="305.5" rx="42.5" ry="9.5"></ellipse>
            <g id="Group-101">
                <path d="M340.19479,288.042385 C366.626,301.061122 330.349888,307.932238 339.120763,286.105673" id="Path-170" stroke="#00A2F2" fill="#FFFFFF"></path>
                <g id="Rectangle-31" transform="translate(519.951098, 393.355236) rotate(68.000000) translate(-519.951098, -393.355236) ">
                    <use fill="#F5FAFE" fill-rule="evenodd" xlink:href="#path-1"></use>
                    <path stroke="#00A2F2" stroke-width="1" d="M475.2255,207.960384 L362.247993,712.783142 L585.345678,661.584175 L677.645519,74.3040456 L475.2255,207.960384 Z"></path>
                </g>
                <path d="M545.654672,116.771498 C553.255584,116.412199 558.117953,109.21309 566.010173,113.776261 C575.742044,119.403093 577.675792,126.960195 575.535071,131.917755 C573.39435,136.875314 570.515946,133.9949 570.909703,137.387454 C571.980744,146.615382 567.082163,161.708025 555.150841,165.790018 C553.964766,166.195803 554.674774,167.862698 553.458146,168.169468 C552.241519,168.476237 543.914687,168.010638 538.600347,165.790018 C529.084937,161.813962 535.062789,161.671718 527.422797,155.621614 C524.396312,153.224942 520.36863,152.410875 517.135952,150.300556 C513.140004,147.691969 504.388907,140.884678 506.010624,134.740633 C506.281131,133.71579 507.642344,132.504255 508.617463,132.91973 C522.400228,138.792248 530.590885,151.706883 545.234288,139.120396 C562.605705,124.189091 481.445642,129.547046 508.617463,104.057164 C527.422797,86.4158825 535.652675,106.29652 542.105397,115.485214 L545.654672,116.771498 Z" id="Path-156" fill="#FDCF85"></path>
                <path d="M534.225312,128.53031 C535.633605,130.548372 537.902506,132.532986 536.485259,135.281799 C534.930718,138.2969 527.538319,141.462751 530.371963,143.607562 C537.293419,148.846477 563.617431,129.43148 534.342408,127.57076 L534.225312,128.53031 Z" id="Path-143" fill="#656F7E"></path>
                <path d="M508.676756,170.859426 C479.154605,160.860155 484.623174,145.290804 480.417852,117.174478 C480.273164,116.207104 479.817218,114.47037 478.863103,114.685807 C475.750802,115.388558 475.465523,124.655394 475.495195,125.15731 C476.095436,135.310518 476.742659,145.517476 478.665811,155.504939 C482.484868,175.338358 492.658825,177.888513 510.306562,181.191537" id="Path-137" fill="#FDCF85"></path>
                <path d="M590.55895,251.495416 C551.550275,237.527275 558.77609,215.778199 553.219449,176.502052 C553.028266,175.150711 552.425809,172.72464 551.165103,173.025588 C547.052708,174.007271 546.675759,186.952264 546.714966,187.653398 C547.508086,201.836577 548.363284,216.09484 550.904414,230.046487 C555.95067,257.752109 569.393884,261.31446 592.712471,265.928508" id="Path-137" fill="#FDCF85" transform="translate(569.712471, 219.464254) scale(-1, -1) translate(-569.712471, -219.464254) "></path>
                <path d="M0.921639529,341.456929 C5.01056889,339.275552 19.9701693,331.39096 45.8004407,317.803151 C42.6345077,121.484525 42.6345077,22.9618533 45.8004407,22.2351351 C50.5493402,21.1450578 126.978821,28.8875669 130.868562,38.1196861 C135.868304,49.9863427 126.069346,139.349319 125.65292,157.259519 C123.284391,259.128357 121.023793,236.986221 127.356544,286.479889" id="Path-121" stroke="#00A2F2" fill="#BFDEFF"></path>
                <g id="Rectangle-31">
                    <use fill="#F5FAFE" fill-rule="evenodd" xlink:href="#path-2"></use>
                    <rect stroke="#00A2F2" stroke-width="1" x="124.5" y="33.5" width="129" height="250"></rect>
                </g>
                <g id="Group-20" transform="translate(119.000000, 70.000000)">
                    <g id="Group-10">
                        <g id="Group-9" transform="translate(34.000494, 118.586234) rotate(40.000000) translate(-34.000494, -118.586234) translate(12.500494, 91.586234)">
                            <path d="M33.4635846,6.97745337 C33.4635846,5.58243016 28.5160654,2.08894309 27.9828638,3.41908489 C26.8027098,6.36313492 17.5500546,12.1626123 11.1455691,22.4920172 C4.74108367,32.8214222 15.3650258,44.3019156 17.4442407,48.3239388 C19.5234556,52.3459619 24.3842633,48.1008822 24.3842633,48.1008822 C24.3842633,48.1008822 6.75294729,38.3080402 17.308684,21.2404226 C27.8644208,4.17280504 33.4635846,13.1257701 33.4635846,6.97745337 Z" id="Path-116" stroke="#FF939F" fill="#FF939F" transform="translate(21.290468, 26.588954) scale(-1, 1) rotate(-25.000000) translate(-21.290468, -26.588954) "></path>
                            <path d="M14.3436446,47.6295936 C8.40771802,41.5717238 7.7690217,43.2443132 16.1911209,42.5860805" id="Path-108" stroke="#263345" transform="translate(13.032334, 45.107837) scale(-1, 1) rotate(-139.000000) translate(-13.032334, -45.107837) "></path>
                        </g>
                        <g id="Group-36" transform="translate(85.615829, 57.823150) rotate(-25.000000) translate(-85.615829, -57.823150) translate(45.615829, 13.323150)">
                            <path d="M39.2614325,16.1487013 C40.3538468,17.4051223 49.8311771,19.1525235 56.0524116,31.1935926 C62.2736461,43.2346618 64.2199938,28.8247043 63.1686023,32.9319955 C61.9181099,37.81708 53.5520897,33.3923107 51.7376905,32.0938892 C46.9043677,28.6350635 43.4234485,31.7121809 38.770147,32.3589994 C37.6867027,32.5096004 32.448144,30.8768691 29.8386252,32.2929717 C27.2291063,33.7090743 24.4679998,46.4813409 23.4700389,50.4905691 C21.405903,58.7830695 21.45193,76.5154405 19.7941646,80.448351 C18.1363992,84.3812616 17.129313,80.4463808 14.890634,80.3617346 C10.7582411,80.2054855 11.2672199,55.9188144 15.3642678,36.5759778 C15.9664993,33.7327442 14.4984774,29.4072149 14.1634913,26.0468115 C13.8285052,22.6864081 10.0781358,17.6564844 11.4298607,13.7121846 C12.7815857,9.76788478 13.7267049,7.79947484 20.2998601,6.5244082 C26.8730152,5.24934156 28.1166329,10.3731298 32.7512874,12.9651627 C37.3859419,15.5571956 38.5722192,15.3560148 39.2614325,16.1487013 Z" id="Path-90" fill="#FF939F" transform="translate(37.287918, 44.258315) rotate(18.000000) translate(-37.287918, -44.258315) "></path>
                            <g id="Group-38" transform="translate(59.473491, 39.441332) rotate(-42.000000) translate(-59.473491, -39.441332) translate(50.473491, 18.941332)">
                                <path d="M0.612833956,4.70394218 C6.14838528,12.3207207 7.55319163,19.1028179 6.25968243,28.809494 C5.72918504,32.7904216 3.33099123,40.4961325 3.33099123,40.4961325 C3.33099123,40.4961325 9.95771613,36.0197227 12.9216331,33.3542979 C19.4116207,27.5179084 21.3700057,-5.84334453 1.77272716,5.03679444 L0.612833956,4.70394218 Z" id="Path-109" fill="#263345"></path>
                                <path d="M16.8397191,11.5159369 C16.5376263,2.23823657 12.9646633,-1.17681427 1.77272716,5.03679444 L0.612833956,4.70394218 C3.53047889,8.71854775 5.30057414,12.501273 6.13286291,16.6025671 C6.13286291,16.6025671 8.00428873,12.4662312 10.0045649,11.5159369 C12.0048411,10.5656425 16.8397191,11.5159369 16.8397191,11.5159369 Z" id="Path-109" fill="#FF939F"></path>
                                <path d="M16.1588694,7.4720223 C15.6718618,-0.607995457 11.2288491,0.111123023 0.0369129608,3.71457726 C0.0369129608,3.71457726 3.75414599,8.85611536 4.58643477,11.2345763 C4.58643477,11.2345763 6.26847453,8.02312594 8.26875073,7.4720223 C10.2690269,6.92091867 16.1588694,7.4720223 16.1588694,7.4720223 Z" id="Path-109" fill="#FFC7CE"></path>
                                <path d="M12.6102858,13.6709143 C7.19169898,3.45799046 10.8266862,7.18576949 2.60626234,1.67382549" id="Path-110" stroke="#263345" transform="translate(7.608274, 7.672370) rotate(-158.000000) translate(-7.608274, -7.672370) "></path>
                            </g>
                            <ellipse id="Oval-27" fill="#263345" cx="38.1000902" cy="17.7281665" rx="1.7358142" ry="1.73698477"></ellipse>
                            <ellipse id="Oval-27" fill="#263345" cx="43.3075328" cy="16.8596741" rx="1.7358142" ry="1.73698477"></ellipse>
                        </g>
                        <path d="M65.8003753,115.145336 C66.7133167,120.688222 68.5481977,126.156335 68.5391994,131.773994 C68.5317487,136.42545 64.391015,148.238978 63.2743675,149.751532 C63.0525188,150.052038 68.0948446,149.751532 68.5391994,149.175916 C68.9835542,148.6003 71.9530209,134.542201 72.2998465,133.506665 C74.0883816,128.166539 71.5504904,116.227758 70.9635637,113.531203" id="Path-112" fill="#FF939F"></path>
                        <path d="M66.2672603,23.6340784 C66.8602305,24.1889142 67.9279834,23.812574 68.5209535,24.3674098 C69.1139237,24.9222456 69.0140824,26.2042502 69.4980383,26.6570824" id="Path-114" stroke="#263345" transform="translate(67.882649, 25.145580) scale(-1, 1) translate(-67.882649, -25.145580) "></path>
                        <path d="M71.0222036,20.4549153 C71.6151738,21.0097511 72.6829267,20.6334109 73.2758969,21.1882467 C73.868867,21.7430824 73.7690258,23.0250871 74.2529816,23.4779193" id="Path-114" stroke="#263345" transform="translate(72.637593, 21.966417) scale(-1, 1) translate(-72.637593, -21.966417) "></path>
                        <path d="M77.5320903,38.8208704 C83.0912379,40.5009365 82.6157826,38.7054208 80.9946665,43.1851054" id="Path-115" stroke="#3C3C3C" transform="translate(79.805377, 41.002988) scale(-1, 1) translate(-79.805377, -41.002988) "></path>
                        <g id="Group-6" transform="translate(85.727393, 227.069596) rotate(23.000000) translate(-85.727393, -227.069596) translate(71.227393, 216.069596)">
                            <path d="M2.50786872,0.575544903 C5.3841271,27.7407664 7.3885116,14.9073462 7.60999112,1.04621317" id="Path-106" fill="#FF939F" transform="translate(5.058930, 8.552733) scale(-1, 1) rotate(19.000000) translate(-5.058930, -8.552733) "></path>
                            <path d="M23.9184505,14.1027346 C19.5821808,13.0599652 14.1507837,9.68085696 9.74702725,8.96138277 C8.70094498,8.79047659 7.70091529,9.74291162 7.12439487,9.71749499 C6.54787445,9.69207837 5.6349587,9.08765274 4.929385,8.96138277 C4.929385,8.96138277 2.08421771,14.4978844 3.60162777,16.2490684 C5.11903783,18.0002523 12.4717397,17.4308646 13.9303394,17.7157893 C15.3265146,17.9885199 24.2345271,18.2406208 26.5404016,17.7157893 C28.8462761,17.1909578 27.0454086,14.8546934 23.9184505,14.1027346 Z" id="Path-173" stroke="#00A2F2" fill="#F3F3F3" transform="translate(15.369986, 13.481425) rotate(-20.000000) translate(-15.369986, -13.481425) "></path>
                        </g>
                        <g id="Group-7" transform="translate(56.491147, 225.275360) rotate(6.000000) translate(-56.491147, -225.275360) translate(42.991147, 213.775360)">
                            <path d="M19.4048141,0.628256057 C22.2810725,17.3334484 24.285457,9.44156529 24.5069365,0.917692455" id="Path-106" fill="#FF939F" transform="translate(21.955875, 5.533810) scale(-1, 1) translate(-21.955875, -5.533810) "></path>
                            <path d="M21.8843931,16.4443642 C17.5481234,15.4015948 12.1167263,12.0224866 7.71296985,11.3030124 C6.66688758,11.1321062 5.66685788,12.0845412 5.09033746,12.0591246 C4.51381704,12.033708 3.60090129,11.4292824 2.89532759,11.3030124 C2.89532759,11.3030124 0.050160302,16.839514 1.56757036,18.590698 C3.08498042,20.3418819 10.4376823,19.7724942 11.896282,20.0574189 C13.2924572,20.3301495 22.2004697,20.5822504 24.5063442,20.0574189 C26.8122187,19.5325874 25.0113512,17.196323 21.8843931,16.4443642 Z" id="Path-173" stroke="#00A2F2" fill="#F3F3F3" transform="translate(13.335929, 15.823055) scale(-1, 1) rotate(11.000000) translate(-13.335929, -15.823055) "></path>
                        </g>
                        <g id="Group-8" transform="translate(97.283865, 122.849213) rotate(-33.000000) translate(-97.283865, -122.849213) translate(84.783865, 86.349213)">
                            <path d="M10.6985761,4.76284576 C12.4532409,7.18125939 12.3661779,14.365004 12.3661779,14.365004 C12.3661779,14.365004 18.753012,23.8338595 18.6619014,34.4128307 C18.5707909,44.9918019 -0.347774999,69.8660563 0.938027529,70.8492912 C5.50323929,74.3402435 23.6111352,38.2970141 23.6111352,34.4121739 C23.6111352,29.0092291 18.8195007,15.167942 18.6619014,11.5694433 C18.5043022,7.97094463 17.4793827,12.2016798 18.6619014,8.35323853 C20.0059409,3.97913696 14.0489321,1.25619023 13.3684653,0.605967356" id="Path-116" stroke="#FF939F" fill="#FF939F" transform="translate(12.243236, 35.846513) scale(-1, 1) translate(-12.243236, -35.846513) "></path>
                            <path d="M19.3693272,63.8570919 C18.1990628,68.4653185 17.6569481,78.2434633 22.161409,67.6977613" id="Path-176" stroke="#263345" transform="translate(20.355113, 68.135998) scale(-1, 1) rotate(35.000000) translate(-20.355113, -68.135998) "></path>
                        </g>
                        <g id="Group-35" transform="translate(50.650041, 81.907124)" stroke="#00A2F2">
                            <g id="Group-39" transform="translate(0.000000, 0.000000)">
                                <path d="M15.8939798,74.0357559 C19.5903767,76.4060814 23.7106807,72.8475357 27.3281213,71.7546295 C31.4361429,70.5135084 29.6679286,41.3962474 29.4497188,36.9966027 C29.274276,33.4592447 33.3143477,31.4740721 33.2854809,27.940874 C33.2566141,24.407676 30.6359001,17.592455 31.008526,18.35943 C32.1706664,20.7514604 32.3547742,25.0788988 33.6894378,24.0902837 C34.4945537,23.4939165 36.4880967,25.7789384 37.9600427,21.5375989 C39.4319887,17.2962594 33.2122806,7.1185312 32.6395899,6.57556416 C27.5111073,1.71325846 27.67756,2.83362953 26.4061882,2.95902491 C25.1348163,3.08442029 25.4472955,7.46586801 17.4023919,6.10079542 C16.1140831,5.88219304 15.4338445,3.02341097 13.8491139,1.96310094 C13.1136674,1.47102908 9.63575884,1.53061152 8.19506108,4.00029277 C6.75436332,6.46997402 6.95887643,12.2253139 7.31172112,12.4291051 C7.44596464,12.5066396 4.3333062,17.2298085 3.92934986,26.2315332 C3.52539353,35.2332579 5.69332344,51.015724 5.03836499,58.0419569 C4.67695391,61.9190859 3.14098031,69.7729342 4.33715779,71.9949124 C5.53333527,74.2168907 15.3439228,73.6830303 15.8939798,74.0357559 Z" id="Path-89" fill="#FFFFFF" transform="translate(21.031755, 38.276637) rotate(-366.000000) translate(-21.031755, -38.276637) "></path>
                                <path d="M15.5662484,31.8685765 C24.198402,35.8014568 20.5325476,33.268195 26.8357495,38.943781" id="Path-113"></path>
                            </g>
                        </g>
                        <path d="M59.1944462,84.4053233 C57.2973651,82.5124676 47.8501724,87.7822433 46.5936773,90.1695431 C44.5566408,94.0398465 42.0839935,103.950802 44.706284,104.281646 L43.740094,109.515209 C57.2406453,111.21852 56.566547,108.870658 53.9691561,100.665843" id="Path-172" stroke="#00A2F2" fill="#FFFFFF" transform="translate(51.383052, 97.019811) rotate(9.000000) translate(-51.383052, -97.019811) "></path>
                    </g>
                </g>
                <g id="Rectangle-31" transform="translate(362.315330, 431.058936) rotate(68.000000) translate(-362.315330, -431.058936) ">
                    <use fill="#C6E3FF" fill-rule="evenodd" xlink:href="#path-3"></use>
                    <path stroke="#00A2F2" stroke-width="1" d="M297.253141,486.400606 L431.035984,378.954128 L423.032011,375.720313 L293.573337,484.91387 L297.253141,486.400606 Z"></path>
                </g>
                <g id="Rectangle-31" transform="translate(475.315346, 462.151583) rotate(68.000000) translate(-475.315346, -462.151583) ">
                    <use fill="#C6E3FF" fill-rule="evenodd" xlink:href="#path-4"></use>
                    <path stroke="#00A2F2" stroke-width="1" d="M473.500634,419.581692 L465.316691,499.038177 L472.463658,501.928989 C474.796454,503.192749 476.550382,504.061729 477.717949,504.533456 C478.251337,504.748959 478.654056,504.87769 478.91125,504.919831 C478.978977,504.570937 479.094506,504.009679 479.133467,503.7988 C479.244779,503.196314 479.32357,502.644557 479.36406,502.1272 C479.441794,501.133956 479.365347,500.370824 479.124579,499.935155 C478.610115,499.004235 476.469471,496.864808 472.765985,493.606438 L472.574292,493.437785 L478.666838,429.504303 L485.281328,426.916304 C485.284247,425.40244 485.306331,424.43092 485.349002,423.983145 C485.400379,423.444013 483.563871,422.702015 479.842952,422.129784 L479.731649,422.099185 L473.500634,419.581692 Z"></path>
                </g>
                <g id="Rectangle-31" transform="translate(473.583226, 413.354036) rotate(68.000000) translate(-473.583226, -413.354036) ">
                    <use fill="#C6E3FF" fill-rule="evenodd" xlink:href="#path-5"></use>
                    <path stroke="#00A2F2" stroke-width="1" d="M429.442443,455.315796 L508.505572,466.66934 L517.828538,387.900393 C489.01719,360.984626 466.829631,353.572786 451.207267,365.46287 C435.512892,377.40776 428.224959,407.361938 429.442453,455.315797 L429.442443,455.315796 Z"></path>
                </g>
                <path d="M813.504489,84.9755325 C813.504489,151.678889 813.504489,183.075954 813.504489,179.166728 L916.879347,217.844561 C921.722238,115.142695 922.467487,63.54158 919.115094,63.0412166 C915.762701,62.5408532 880.559166,69.8522918 813.504489,84.9755325 Z" id="Path-124" stroke="#00A2F2" fill="#DAEDFF"></path>
                <path d="M862.5,85.5 L862.5,188.577641" id="Line" stroke="#00A2F2" stroke-linecap="square"></path>
                <path d="M818.5,134.5 L913.5,134.5" id="Line" stroke="#00A2F2" stroke-linecap="square"></path>
                <path d="M879.825857,165.683006 C885.836574,161.915488 891.847292,158.147971 897.858009,154.380454" id="Path-125" stroke="#FFFFFF"></path>
                <path d="M875.717066,176.037933 C888.162492,169.267645 900.607919,162.497357 913.053345,155.727069" id="Path-126" stroke="#FFFFFF"></path>
                <path d="M879.825857,105.683006 C885.836574,101.915488 891.847292,98.147971 897.858009,94.3804537" id="Path-125" stroke="#FFFFFF"></path>
                <path d="M875.717066,116.037933 C888.162492,109.267645 900.607919,102.497357 913.053345,95.7270693" id="Path-126" stroke="#FFFFFF"></path>
                <path d="M905.001561,286.582702 C928.605473,279.989299 917.373609,281.731265 938.524661,280.345341" id="Path-131" stroke="#F2F2F2"></path>
                <path d="M176.47714,223.434581 L178.068624,286.977772 C197.404206,286.977772 188.807912,290.011456 190.075669,259.619891 C190.422654,251.301719 188.689328,226.774558 190.075669,234.983726 C192.001821,246.389362 192.805194,263.721456 192.485789,286.980006 C200.023935,290.424955 203.994251,290.424211 204.396737,286.977772 C205.000466,281.808114 202.651553,244.028936 199.946218,223.097298 L176.47714,223.434581 Z" id="Path-130" fill="#263345"></path>
                <g id="Group-10" transform="translate(494.000000, 157.000000)">
                    <path d="M45.9627071,37.9912452 C47.0402051,44.6460646 49.2058215,51.2111113 49.1952012,57.9557034 C49.1864076,63.540266 44.2993111,77.7236523 42.9813891,79.5396337 C42.7195525,79.9004218 48.6707519,79.5396337 49.1952012,78.8485456 C49.7196505,78.1574574 53.2243603,61.279228 53.6337008,60.0359576 C55.7446174,53.6245728 52.749274,39.290807 52.0565545,36.053309" id="Path-112" fill="#FF939F"></path>
                    <g id="Group-8" transform="translate(94.690248, 101.672008) rotate(-315.000000) translate(-94.690248, -101.672008) translate(89.690248, 95.672008)" stroke="#263345">
                        <path d="M3.61534406,1.19590879 C2.23414073,6.72857079 1.59431049,18.4682648 6.91069547,5.80703743" id="Path-176" transform="translate(4.778817, 6.333187) scale(-1, 1) rotate(35.000000) translate(-4.778817, -6.333187) "></path>
                    </g>
                    <g id="Group-35" transform="translate(0.911731, 0.338140)" stroke="#00A2F2">
                        <g id="Group-39" transform="translate(0.000000, 0.000000)">
                            <path d="M30.0221993,91.3847686 C37.843849,94.2305943 46.5624945,89.9581848 54.2170712,88.6460358 C62.9097271,87.1559389 59.1681502,52.1975964 58.7064139,46.9153591 C58.3351734,42.6683877 61.3358384,35.7281251 61.2747557,31.4861482 C61.213673,27.2441713 61.2163972,23.6186334 62.0048812,24.5394678 C64.4639935,27.4113525 72.5593876,28.5514772 73.2085058,25.1929955 C74.2367601,19.8728965 77.9078685,20.8059921 81.0225356,15.7138168 C84.1372027,10.6216414 66.6680699,11.0435833 65.456245,10.3916941 C54.6042732,4.55398333 54.9564906,5.89910696 52.2662423,6.04965733 C49.575994,6.20020771 50.2372062,11.4605978 33.2140296,9.82168416 C30.4879423,9.55922894 29.0485438,6.12695958 25.6952223,4.85394557 C24.1390028,4.26316142 16.7796787,4.33469642 13.7311335,7.29980921 C10.6825882,10.264922 11.1153421,17.1748145 11.8619685,17.4194873 C12.1460304,17.5125757 12.2098533,23.0641333 11.3550736,33.8716532 C10.5002939,44.679173 8.43740664,63.7467926 7.05150147,72.1825261 C6.2867484,76.8374284 3.03659757,86.2668015 5.56773302,88.9345207 C8.09886847,91.6022399 28.8582678,90.9612842 30.0221993,91.3847686 Z" id="Path-89" fill="#FFFFFF" transform="translate(43.006493, 48.452175) scale(-1, 1) rotate(-366.000000) translate(-43.006493, -48.452175) "></path>
                            <path d="M45.5418588,36.0087133 C55.7299485,40.7305509 51.403328,37.6891029 58.842675,44.5032425" id="Path-113"></path>
                        </g>
                    </g>
                </g>
                <path d="M519.392562,243.433565 L522.862136,311.16067 C565.015413,311.16067 546.274733,314.394103 549.038555,282.001447 C549.795013,273.135576 546.016209,246.993458 549.038555,255.743147 C553.237736,267.899772 554.989161,286.373073 554.29283,311.163051 C570.726653,314.834828 579.382292,314.834034 580.259747,311.16067 C581.57593,305.650623 576.455093,265.383927 570.557222,243.074074 L519.392562,243.433565 Z" id="Path-130" fill="#263345"></path>
                <g id="Group-5" transform="translate(19.477140, 90.765043)">
                    <g id="Group">
                        <g id="Group-69">
                            <g id="Group-19">
                                <g id="Group-42" transform="translate(64.872275, 39.166351) rotate(-134.000000) translate(-64.872275, -39.166351) translate(34.372275, 15.166351)">
                                    <path d="M48.3562103,6.33783544 C40.6909692,22.2030509 49.9599181,30.4003705 43.0667767,43.1175207 C32.8957834,61.8819769 -1.01799072,38.380911 19.0903427,21.8879463 C26.9614341,15.4320342 36.6580638,3.85915715 44.9135936,-2.01381536" id="Path-67" stroke="#263345" fill="#D8D8D8" transform="translate(30.595405, 24.017459) rotate(-255.000000) translate(-30.595405, -24.017459) "></path>
                                    <path d="M29.6853473,11.8018454 C29.6046587,18.3995143 31.1229505,49.5861092 13.3588377,38.6226478" id="Path-69" stroke="#3C3C3C" transform="translate(21.524067, 26.369460) rotate(-255.000000) translate(-21.524067, -26.369460) "></path>
                                </g>
                                <path d="M69.8790123,196.931115 L80.1223775,196.931115 C80.1223775,196.931115 79.407953,201.378334 80.1223775,203.233694 C80.8368021,205.089053 82.6154301,208.030801 82.6154301,208.030801 L66.4796455,208.030801 C66.4796455,208.030801 68.4754997,204.377965 69.4255358,201.95987 C70.3755718,199.541774 69.8790123,196.931115 69.8790123,196.931115 Z" id="Rectangle-51" fill="#D8D8D8"></path>
                                <path d="M66.6920204,207.220982 C66.7703344,209.25092 65.4843838,211.055901 67.0382543,211.56984 C70.8207558,212.820895 74.6386211,212.059318 78.5856786,211.884084 C82.5327361,211.70885 84.5865715,211.968676 87.4338842,211.884084 C89.2589236,211.829863 94.038129,212.227843 95.1027337,211.029629 C96.1673384,209.831416 93.4697698,208.167067 90.9799508,208.008567 C83.4669281,207.530293 75.9424904,207.404032 68.4237602,207.101764" id="Path-85" fill="#FFFFFF"></path>
                                <path d="M66.6417999,144.978653 C76.0987354,145.933598 80.8082756,133.749542 82.6452672,135.841683 C84.4822588,137.933823 81.2806317,159.698066 79.5530488,181.381963 C79.1210297,186.804484 81.2363438,199.360143 78.7549758,199.360143 C60.9256115,201.50205 75.1214509,155.881306 67.7104317,145.237265" id="Path-63" fill="#263345" transform="translate(74.919045, 167.516381) rotate(-2.000000) translate(-74.919045, -167.516381) "></path>
                                <path d="M62.4296667,205.044048 L74.5261496,205.044048 C74.5261496,205.044048 73.6824792,209.491267 74.5261496,211.346626 C75.3698201,213.201985 75.5658662,216.72011 75.5658662,216.72011 C75.5658662,216.72011 71.6956136,218.910377 68.7424515,218.910377 C65.7892893,218.910377 61.8941521,216.72011 61.8941521,216.72011 C61.8941521,216.72011 60.7722459,212.490897 61.8941521,210.072802 C63.0160582,207.654706 62.4296667,205.044048 62.4296667,205.044048 Z" id="Rectangle-51" fill="#D8D8D8"></path>
                                <path d="M55.4959017,128.345174 C54.8471839,135.863561 53.7176732,143.332283 53.5497482,150.900335 C53.3801404,158.544232 60.8338543,161.717805 61.1716612,171.059247 C61.5672264,181.997893 59.66556,193.117112 60.9914386,203.915163 C61.2558546,206.068586 63.5728975,206.478484 65.1327881,206.835266 C67.8643254,207.46003 72.6785391,210.357076 73.7584556,206.835266 C77.0725943,196.02724 74.4060878,183.289015 75.9924646,171.757721 C77.6762287,159.518523 74.9065471,159.292715 78.6839015,148.012484 C79.2015425,146.466663 83.972533,136.849881 82.2590044,134.593576 C80.5454758,132.33727 74.2534934,133.975317 69.6908761,132.930559 C64.7998715,131.810606 61.9321837,132.876607 57.1767275,130.940245 L55.4959017,128.345174 Z" id="Path-56" stroke="#00A2F2" fill="#263345" transform="translate(68.087770, 168.446999) rotate(-2.000000) translate(-68.087770, -168.446999) "></path>
                                <path d="M73.5187776,198.925069 C76.0368633,198.747319 78.459956,201.216018 79.3476494,197.876756 C81.7562085,188.816411 77.623827,178.083337 79.6543051,168.839388 C82.0752797,157.817665 81.9552352,132.159953 82.7620499,128.564284" id="Path-57" stroke="#00A2F2" transform="translate(78.140414, 164.101033) rotate(-2.000000) translate(-78.140414, -164.101033) "></path>
                                <path d="M57.731269,147.392762 C57.7249251,147.892662 58.7308476,160.912575 54.8864308,154.48677" id="Path-58" stroke="#00A2F2" transform="translate(56.365937, 151.828784) rotate(-2.000000) translate(-56.365937, -151.828784) "></path>
                                <path d="M53.6775586,128.964962 C53.7608919,125.813038 55.0040917,118.583136 55.0805553,111.388117 C55.1570189,104.193098 55.4663164,92.8068246 55.0805553,91.545737 C55.0252091,91.3648052 55.2310061,72.5516688 56.6480424,69.7053422 C60.8278759,61.3095301 72.6774433,65.0002464 76.5392197,67.7397275 C76.5392197,67.7397275 77.197408,93.2268658 76.5392197,100.987121 C76.4973011,101.481355 82.688381,129.859101 82.688381,131.589964 C82.688381,135.693602 68.9720528,136.967144 61.1288657,133.886946 L53.6775586,128.964962 Z" id="Path-59" stroke="#00A2F2" fill="#FFFFFF"></path>
                                <path d="M65.481885,69.5252836 C65.4622136,69.2079406 65.3810251,65.4004901 63.9627596,65.603819 C63.0619574,65.7329621 55.4442014,64.2307141 49.148268,57.4576589 C42.8523346,50.6846036 41.9168157,43.8810958 41.3698631,42.1117413 C40.0879482,37.9648339 44.9615338,15.8855348 44.9615338,15.8855348 C44.9615338,15.8855348 52.5723394,11.4672295 55.4224216,11.4672295 C60.184953,11.4672295 66.0915964,10.027571 68.0150384,9.93141086 C69.9384804,9.83525074 70.9837719,14.3792152 73.5658189,16.4280255 C76.2907072,18.5901778 83.2339427,18.8936129 83.4889586,21.6649106 C83.5800131,22.6544139 89.0047419,26.4858276 94.4367365,31.6210172 C95.5022884,32.6283471 95.7213797,35.97272 97.4485261,37.6465899 C99.1756725,39.3204597 116.660709,53.3005996 116.689263,53.3887196 C116.713627,53.4639103 119.478876,54.7800699 121.327127,54.3102487 C123.175378,53.8404275 125.210081,51.2903276 125.210081,51.2903276 C125.210081,51.2903276 129.401079,43.1573766 129.778746,35.3464221 C129.891499,33.0144379 130.128547,27.9490455 131.025225,25.8028615 C131.921904,23.6566775 137.172772,28.3271598 137.172772,28.3271598 C137.172772,28.3271598 138.326766,33.9494685 135.861678,41.5978276 C133.396589,49.2461867 130.665916,58.9690242 121.272453,61.4824753 C111.87899,63.9959263 93.8561116,48.3773966 90.9830364,46.1100659 C90.6795085,45.8705323 84.5176693,52.2424257 80.194772,58.4484826 C75.8718746,64.6545396 75.9217508,67.3124711 74.6985733,68.0596826 L65.481885,69.5252836 Z" id="Path-66" fill="#D8D8D8" transform="translate(89.298809, 39.727596) rotate(9.000000) translate(-89.298809, -39.727596) "></path>
                                <ellipse id="Oval-23" stroke="#263345" fill="#263345" transform="translate(77.003467, 25.858403) rotate(-15.000000) translate(-77.003467, -25.858403) " cx="77.0034673" cy="25.8584031" rx="1" ry="1"></ellipse>
                                <ellipse id="Oval-23" stroke="#263345" fill="#263345" transform="translate(82.761982, 23.817440) rotate(-15.000000) translate(-82.761982, -23.817440) " cx="82.7619817" cy="23.8174402" rx="1" ry="1"></ellipse>
                                <g id="Group-42" transform="translate(32.196682, 39.173351) rotate(-95.000000) translate(-32.196682, -39.173351) translate(-1.803318, 10.673351)">
                                    <path d="M55.2577105,8.77297173 C46.0333239,26.6413817 57.1876199,35.8737219 48.8923817,50.1965815 C36.6525613,71.3303 -4.15943136,44.8619118 20.0390301,26.2864909 C29.5111379,19.015434 41.1801069,5.98132733 51.1148497,-0.633186084" id="Path-67" stroke="#263345" fill="#D8D8D8" transform="translate(33.884275, 28.684882) rotate(-255.000000) translate(-33.884275, -28.684882) "></path>
                                    <path d="M39.3732359,14.5005621 C39.276135,21.9312744 41.1032543,57.0555918 19.7258388,44.7078476" id="Path-69" stroke="#3C3C3C" transform="translate(29.551914, 30.907532) rotate(-255.000000) translate(-29.551914, -30.907532) "></path>
                                </g>
                                <path d="M45.4757854,9.07020632 C53.9386531,7.37587909 49.5708342,6.91865785 58.3281147,11.9819899" id="Path-80" stroke="#263345" transform="translate(51.901950, 9.943430) rotate(-47.000000) translate(-51.901950, -9.943430) "></path>
                                <path d="M61.2155712,214.684366 C61.2938852,216.714304 59.8966427,220.260239 61.4505132,220.774179 C65.1048261,221.982836 69.0492756,221.708104 72.8611602,221.557921 C76.6730447,221.407738 84.3149822,220.862706 87.2947533,220.774179 C89.7137112,220.702313 96.0753931,218.867821 94.9943805,217.305359 C93.913368,215.742897 83.1135096,215.804929 81.221215,215.684466 C76.5864019,215.389418 75.0493893,216.971405 70.7375262,216.742616 C66.4256631,216.513826 65.8277072,214.680946 62.947311,214.565148" id="Path-85" fill="#FFFFFF"></path>
                                <path d="M85.061862,216.623658 C84.3448378,212.357545 82.1750001,216.636701 86.1885893,213.773058" id="Path-86" stroke="#263345"></path>
                                <path d="M88.9254468,209.160273 C88.2084225,204.894161 86.0385849,209.173317 90.0521741,206.309674" id="Path-86" stroke="#263345"></path>
                                <g id="Group-43" transform="translate(71.482693, 48.396543) rotate(20.000000) translate(-71.482693, -48.396543) translate(60.982693, 45.396543)">
                                    <path d="M0.99804488,-0.820367827 C3.21765385,0.859465767 2.869937,-0.222216621 1.63230825,2.52993032" id="Path-74" stroke="#3C3C3C" transform="translate(1.805964, 0.854781) rotate(-270.000000) translate(-1.805964, -0.854781) "></path>
                                    <path d="M20.292101,3.23071838 C13.6674764,5.34148094 6.22896898,8.63708971 2.07554917,1.30019255" id="Path-125" stroke="#263345"></path>
                                </g>
                                <path d="M72.5806555,24.4884713 C75.2615507,21.0893197 73.609759,21.4719332 77.3297508,22.6621708" id="Path-126" stroke="#263345"></path>
                                <path d="M79.0503376,21.2407311 C81.7312328,17.8415795 80.079441,18.2241929 83.7994328,19.4144305" id="Path-126" stroke="#263345"></path>
                                <path d="M73.7519142,7.62521806 C76.4993603,12.6833801 73.3527904,13.8021817 79.6885694,16.0479539" id="Path-128" stroke="#263345"></path>
                                <path d="M93.9267878,31.0525927 C94.7325299,32.1120992 95.5132358,33.1912784 96.3440142,34.2311122 L97.1542327,38.4550937 C102.758344,45.4694114 108.648284,52.3685457 115.48039,58.1829247 C116.859744,59.3568071 119.451424,59.7573226 120.885017,58.6508827 C124.426468,55.9176098 126.20963,51.4485607 128.871936,47.8473996" id="Path-129" stroke="#263345"></path>
                                <path d="M89.913327,46.1265647 C89.7781196,41.5851219 89.0677938,43.3036949 90.8851758,40.6304976" id="Path-130" stroke="#263345"></path>
                                <path d="M94.2359145,31.3351364 C85.499712,24.80954 89.216494,21.7676463 81.6829324,15.4786985" id="Path-131" stroke="#263345"></path>
                                <path d="M49.7662717,54.5616642 C54.7555131,58.9888767 58.5365682,56.9413391 61.5769462,63.4262678" id="Path-132" stroke="#263345"></path>
                                <polygon id="Rectangle-54" fill="#D8D8D8" transform="translate(106.013425, 105.504992) rotate(-120.000000) translate(-106.013425, -105.504992) " points="103.334891 100.538187 109.804573 100.538187 109.804573 110.471797 102.222277 107.802693"></polygon>
                                <path d="M70.9520112,65.0031964 C73.7873444,57.1511518 83.5416293,51.8044115 89.7513591,45.9890656" id="Path-133" stroke="#263345"></path>
                                <path d="M90.7645689,45.6975857 C97.528955,55.9599868 93.090639,51.5648106 104.57863,58.3549753" id="Path-134" stroke="#263345"></path>
                                <path d="M139.230773,39.3404509 C131.006476,58.6778417 136.191632,50.6870302 124.981683,64.1179555 L115.171181,66.1153734 L102.946471,57.8801404" id="Path-135" stroke="#263345" transform="translate(121.088622, 52.727912) rotate(-6.000000) translate(-121.088622, -52.727912) "></path>
                                <path d="M62.6768514,82.3860899 C64.024062,71.6723688 65.2787516,71.3800192 66.9257962,72.6151092 C68.5728408,73.8501991 70.4993814,76.1827636 71.6400011,84.7252701 C72.4200934,90.5676591 69.8564734,95.5686735 72.6225245,100.186821 C76.5591785,106.759385 101.945012,97.2284524 107.086937,102.896268 C108.519301,104.475127 102.482335,109.989728 105.133608,108.547797 C107.784881,107.105866 68.5707146,123.59987 62.6768514,106.838384 C60.2771147,100.013801 62.6768514,82.3860899 62.6768514,82.3860899 Z" id="Path-60" stroke="#00A2F2" fill="#FFFFFF"></path>
                                <path d="M61.200802,64.8978969 C63.9935947,65.0420856 66.7863873,65.1862742 69.57918,65.3304629" id="Path-138" stroke="#00A2F2"></path>
                                <ellipse id="Oval-13" stroke="#00A2F2" stroke-width="2" cx="93.6779619" cy="95.6769046" rx="2.21130642" ry="2.2193227"></ellipse>
                                <path d="M107.516626,99.3942436 C111.428314,105.677161 111.349058,102.65075 109.235698,108.364525" id="Path-119" stroke="#666666"></path>
                            </g>
                        </g>
                    </g>
                    <path d="M115.469165,96.4219077 C116.446806,92.8628976 120.713912,76.1551093 128.66288,81.4632805 C131.653805,83.4605639 128.886563,89.622619 126.125027,90.1473301 C119.446861,91.4162282 123.651568,78.0511802 129.272191,75.6350594" id="Path-183" stroke="#00A2F2" stroke-width="2"></path>
                </g>
                <path d="M522.968819,99.4842919 C518.830001,101.89372 522.420184,102.059732 525.503122,101.425295" id="Path-140" stroke="#263345"></path>
                <path d="M518.650745,97.0863087 C514.531198,98.9770482 517.402622,100.453443 521.144772,99.4447903" id="Path-141" stroke="#263345"></path>
                <path d="M508.454011,120.719143 C508.600466,121.871342 512.61297,130.142848 511.529831,122.45948 L508.454011,120.719143 Z" id="Path-142" stroke="#263345"></path>
                <path d="M548.665617,116.752984 C553.930393,115.709263 552.106475,114.717596 554.323985,119.355591" id="Path-145" stroke="#263345"></path>
                <path d="M556.720022,119.451433 C561.885551,119.142025 559.763287,118.177904 562.678942,123.111088" id="Path-146" stroke="#263345"></path>
                <path d="M576.484443,126.554872 C581.932155,125.733716 593.219341,122.379359 577.509866,122.589984" id="Path-147" fill="#FDCF85"></path>
                <path d="M549.509577,128.409059 C552.154276,131.187584 553.501128,133.004307 553.550134,133.859228 C553.623643,135.14161 549.883657,137.159873 548.431062,141.562522" id="Path-149" stroke="#656F7E"></path>
                <path d="M571.916228,117.879933 C576.797016,114.51915 578.160045,117.429195 575.102969,118.237791" id="Path-144" fill="#FDCF85"></path>
                <path d="M514.988797,136.058332 C514.615885,134.821532 514.006934,133.929026 513.244986,133.376346 C512.706308,132.985616 511.934121,134.431668 511.271847,134.379058 C510.609573,134.326448 510.246926,132.747143 509.622006,132.952784 C508.944029,133.175885 508.24689,133.546206 507.554896,134.06244" id="Path-148" stroke="#263345"></path>
                <path d="M474.805569,120.536141 C476.269221,110.949509 479.296946,117.788682 481.40719,123.532687" id="Path-150" stroke="#263345"></path>
                <path d="M569.106264,167.395888 C575.539721,168.428874 592.902699,185.856493 584.579026,190.659754 C580.087224,193.251793 575.154986,194.991874 570.442966,197.157934" id="Path-139" stroke="#00A2F2" fill="#FFFFFF"></path>
                <g id="Group-95" transform="translate(475.000000, 307.000000)" stroke="#00A2F2">
                    <path d="M75.8186957,16.5130689 C75.846264,24.4621518 75.5928685,32.4385969 75.9014006,40.3603176 C76.2877917,50.2811104 77.1466273,60.0937753 77.8986748,69.9176145 C78.1927326,73.7588303 82.3083362,74.2230123 82.6889008,70.3192138 C85.8764078,37.622049 86.4452605,18.707443 84.395459,13.5753958 L75.8186957,16.5130689 Z" id="Path-3" fill="#D8D8D8"></path>
                    <path d="M0.800761846,10.3549295 C31.3575867,15.0816513 31.0663752,16.0471792 66.2397227,16.2057376 C80.9989083,16.2722707 95.8007309,16.0015256 110.481543,14.8816224 C162.027351,10.9495298 134.600442,3.233256 110.327777,1.41528551 C85.7232759,-0.427538761 21.7573972,-2.46376551 1.88103,9.33010465" id="Path-4" fill="#EFF2F9"></path>
                    <path d="M1.98796406,9.64191439 C2.83719221,12.5168622 0.72792069,17.3708293 4.5356485,18.2667579 C32.7605397,24.9078548 67.7298241,21.0672183 105.482961,21.0672183 C111.929706,21.0672183 123.920891,19.616915 141.456515,16.7163082 L142.478243,9.64191439 C135.621454,11.3449773 129.995578,12.5758395 125.600614,13.3345009 C119.008168,14.4724931 102.459403,14.5514561 88.7130469,14.5712991 C68.0807369,14.6010821 47.421127,14.3913994 26.8388149,13.3345009 C19.431566,12.9541399 12.2499912,11.2917446 4.95557933,10.2703664 L1.98796406,9.64191439 Z" id="Path-5" fill="#DDE1EC"></path>
                    <g id="Group-94" transform="translate(80.269231, 77.000000) rotate(-180.000000) translate(-80.269231, -77.000000) translate(49.769231, 67.000000)" fill="#D8D8D8">
                        <path d="M27.8356942,0.942782132 C24.9101659,9.25083491 17.0781534,6.41205054 4.58179371,10.0195804 C2.45796609,10.6327006 -1.58904618,17.0263746 0.660451172,18.2268778 C7.20952748,21.7219641 5.57815704,13.2021484 9.54612799,12.0835874 C15.1462145,10.5049371 31.7537959,11.7118725 31.577003,3.16667421 C31.5557551,2.13966431 28.975543,2.42215499 27.674813,2.04989538" id="Path-6" transform="translate(15.789202, 10.002963) scale(-1, 1) translate(-15.789202, -10.002963) "></path>
                        <path d="M56.4021653,1.19622726 C53.4766369,9.50428004 45.6446244,6.66549567 33.1482648,10.2730255 C31.0244371,10.8861458 26.9774249,17.2798198 29.2269222,18.480323 C35.7759985,21.9754092 34.1446281,13.4555935 38.1125991,12.3370325 C43.7126856,10.7583823 60.320267,11.9653176 60.1434741,3.42011934 C60.1222261,2.39310944 57.5420141,2.67560012 56.2412841,2.3033405" id="Path-6"></path>
                    </g>
                </g>
                <g id="Group-96" transform="translate(670.500000, 209.000000) scale(-1, 1) translate(-670.500000, -209.000000) translate(550.000000, 22.000000)">
                    <ellipse id="Oval-32" fill="#E9EEF4" cx="136.875185" cy="363.90746" rx="41.509434" ry="9.421904"></ellipse>
                    <path d="M138.315387,160.099393 C139.07784,158.24144 142.113076,159.954913 142.01576,162.060098 C141.800366,166.719579 140.893311,185.85127 142.811023,203.615947 C144.728735,221.380624 149.740801,240.26215 149.564786,246.270663 C149.223873,257.908158 145.339312,248.915279 145.339312,248.915279 C145.339312,248.915279 141.360749,228.056362 138.22347,198.719847 C135.086192,169.383333 134.955013,168.287989 138.315387,160.099393 Z" id="Path-116" fill="#FFD410"></path>
                    <path d="M134.611034,334.389337 C138.358843,369.475911 140.970587,352.900278 141.259178,334.997252" id="Path-106" fill="#FFD410" transform="translate(137.935106, 344.692665) scale(-1, 1) translate(-137.935106, -344.692665) "></path>
                    <path d="M114.988393,348.710631 C118.736202,370.287042 121.347945,360.093893 121.636537,349.084467" id="Path-106" fill="#FFD410" transform="translate(118.312465, 355.046640) scale(-1, 1) translate(-118.312465, -355.046640) "></path>
                    <path d="M158.64586,353.116471 C152.995634,351.769631 145.918441,347.405178 140.180278,346.475906 C138.817217,346.255164 137.514163,347.485328 136.762948,347.4525 C136.011733,347.419672 134.82219,346.638996 133.902816,346.475906 C133.902816,346.475906 130.19552,353.626846 132.172728,355.888674 C134.149937,358.150501 143.73062,357.415081 145.631198,357.783089 C147.450436,358.135348 159.057713,358.460961 162.062303,357.783089 C165.066893,357.105217 162.720335,354.0877 158.64586,353.116471 Z" id="Path-173" stroke="#979797" fill="#263345"></path>
                    <path d="M139.777936,364.422756 C134.12771,363.075916 127.050516,358.711463 121.312354,357.782191 C119.949292,357.561449 118.646238,358.791613 117.895023,358.758785 C117.143808,358.725957 115.954265,357.945281 115.034892,357.782191 C115.034892,357.782191 111.327595,364.933131 113.304804,367.194959 C115.282012,369.456786 124.862696,368.721366 126.763274,369.089374 C128.582511,369.441633 140.189789,369.767246 143.194379,369.089374 C146.198968,368.411502 143.85241,365.393985 139.777936,364.422756 Z" id="Path-173" stroke="#979797" fill="#263345"></path>
                    <path d="M110.743823,224.715028 C110.288727,254.020173 99.7475672,333.66302 105.258165,333.964566 L110.743823,335.824288 C114.097977,336.007831 119.991632,339.020995 120.784837,334.814204 C122.925246,323.462472 119.271771,307.643388 119.503216,292.166141 C119.734661,276.688894 120.654835,279.892016 120.784837,274.541805 C120.89583,269.973908 120.701744,257.900853 123.798769,252.659017 C124.987978,250.646234 120.972336,322.810261 123.798769,346.958958 C123.980209,348.509158 133.726308,350.176334 134.939327,350.072179 C140.518252,349.593147 134.584551,280.472627 140.07489,266.130129 C143.447223,257.320529 144.839398,243.559207 143.271301,233.496284 C141.703205,223.43336 140.404827,228.338273 140.07489,224.715028 L110.743823,224.715028 Z" id="Path-105" stroke="#00A2F2" fill="#E7EBEE" transform="translate(123.790723, 287.395925) scale(-1, 1) translate(-123.790723, -287.395925) "></path>
                    <path d="M104.643844,158.843672 C102.357489,162.397595 102.470934,172.9543 102.470934,172.9543 C102.470934,172.9543 94.1487907,186.869036 94.2675091,202.415117 C94.3862275,217.961198 102.888305,251.765441 101.164938,252.090172 C98.2518944,252.639072 87.8185814,208.123028 87.8185814,202.414152 C87.8185814,194.47438 94.0621549,174.134239 94.2675091,168.846149 C94.4728634,163.558059 95.8083492,169.775237 94.2675091,164.11985 C92.5162051,157.691991 100.278279,153.690548 101.164938,152.735028 L104.643844,158.843672 Z" id="Path-116" fill="#FFD410"></path>
                    <g id="Group-27" transform="translate(120.356194, 131.645985) scale(-1, 1) rotate(32.000000) translate(-120.356194, -131.645985) translate(46.356194, 23.645985)">
                        <path d="M32.7134411,58.6333072 C32.7134411,58.6333072 20.8090433,82.4273286 12.7532684,86.263838 C10.0506311,87.5509511 8.38720432,86.3723939 6.76403384,86.263838 C5.14086336,86.1552821 1.74114701,85.4915635 1.07421307,84.8229164 C-2.18630105,81.554027 3.22198402,64.6914775 6.76403384,51.1375601 C10.3060837,37.5836427 2.51435554,39.6079919 6.76403384,30.8841809 C11.0137121,22.16037 15.1177076,16.4001285 23.967976,16.4001285 C31.472415,16.4001285 33.0987407,22.1733675 34.9402548,24.9009776 C36.7817688,27.6285876 36.9001787,36.4562535 36.9001787,36.4562535 L45.7035393,50.5265681 C45.7035393,50.5265681 53.0477387,64.1841243 64.6478857,78.372669 C76.2480326,92.5612136 90.51294,115.876343 90.51294,115.876343 C90.51294,115.876343 84.2685556,118.808909 79.9675044,122.45744 C77.5954792,124.469601 32.7134411,58.6333072 32.7134411,58.6333072 Z" id="Rectangle-45" fill="#FFD75F"></path>
                        <g id="Group-26" transform="translate(23.309213, 0.013010)" stroke="#FFC30F">
                            <path d="M0.66960023,18.1870944 L4.68720161,2.02078826" id="Line" stroke-linecap="square"></path>
                            <ellipse id="Oval-19" fill="#FFC30F" cx="4.01760138" cy="2.69438435" rx="2.67840092" ry="2.69438435"></ellipse>
                        </g>
                        <g id="Group-26" transform="translate(13.420721, 9.383708) rotate(-45.000000) translate(-13.420721, -9.383708) translate(9.920721, -0.116292)" stroke="#FFC30F">
                            <path d="M0.66960023,18.1870944 L4.68720161,2.02078826" id="Line" stroke-linecap="square"></path>
                            <ellipse id="Oval-19" fill="#FFC30F" cx="4.01760138" cy="2.69438435" rx="2.67840092" ry="2.69438435"></ellipse>
                        </g>
                        <g id="Group" transform="translate(36.157943, 13.960113) rotate(-73.000000) translate(-36.157943, -13.960113) translate(25.157943, 9.460113)">
                            <path d="M0.43259737,1.44022239 C4.59828254,1.25522886 6.18878878,2.67852439 7.40687604,2.94770954 C8.6249633,3.21689469 5.20102706,5.32879869 15.5581275,8.32340371 C21.385953,10.0084347 23.8096779,1.4695125 18.1017916,0.63176726 C12.2736685,-0.223625105 6.32232877,0.564337094 0.43259737,0.530622011 L0.43259737,1.44022239 Z" id="Path-22" fill="#FFC30F"></path>
                            <path d="M11.1800721,1.83426296 C18.1176584,1.87879389 22.9831138,8.11169913 13.54309,6.71402611" id="Path-23" stroke="#342F7F" stroke-linecap="round"></path>
                        </g>
                        <path d="M0.465226504,80.0666016 C0.465226504,80.0666016 0.343038099,79.6336293 2.16374742,80.0666016 C3.98445674,80.4995739 5.70295649,82.935254 5.70295649,82.935254 C5.70295649,82.935254 10.8062789,81.2392583 16.7733391,76.026553 C22.7403992,70.8138478 23.5291803,59.458299 21.732317,56.5863922" id="Path-24" stroke="#263345" stroke-width="2" stroke-linecap="round"></path>
                        <ellipse id="Oval-20" stroke="#263345" fill="#263345" cx="14.6044098" cy="39.7551795" rx="1" ry="1"></ellipse>
                        <ellipse id="Oval-20" stroke="#263345" fill="#263345" cx="9.24760794" cy="39.7551795" rx="1" ry="1"></ellipse>
                        <path d="M22.9247571,52.7600408 C22.5776267,53.6616021 20.1236321,54.7326031 19.7765017,55.6341644 C19.4293714,56.5357257 21.1021189,57.4937669 20.7114954,58.508288" id="Path-25" stroke="#263345" stroke-width="2" stroke-linecap="round" transform="translate(21.326757, 55.634164) rotate(-117.000000) translate(-21.326757, -55.634164) "></path>
                        <path d="M5.58266312,82.2954658 C3.05738207,71.8648409 3.27243901,77.9345004 9.21240191,69.0824086" id="Path-26" stroke="#263345" stroke-linecap="round"></path>
                        <path d="M3.52009075,75.2078965 C2.88075334,74.4750188 2.52134282,74.8414576 1.88200541,74.10858" id="Path-27" stroke="#263345" stroke-linecap="round"></path>
                        <path d="M14.3925085,19.8844293 C7.76413841,15.1394697 22.736575,23.781972 12.1861623,20.4331758 C1.63574963,17.0843795 7.13571046,19.6696995 4.72897189,18.6988193 C1.58889411,17.4321095 3.40259999,9.01823441 7.31531774,11.2348855 C9.08264338,12.236119 11.4426942,17.6392432 13.1760808,18.6988193" id="Path-29" stroke="#FFC30F" fill="#FFC30F"></path>
                        <path d="M61.5867351,83.7900809 C61.5867351,86.7250095 59.6439258,91.7592863 60.6902161,93.9630027 C61.7365064,96.1667191 67.5785029,97.4482161 68.3525903,96.3646347 C69.0250925,95.4232541 71.0663564,90.6252769 69.6936644,87.6805652 C68.3209724,84.7358536 64.171258,84.4483474 62.1429831,83.9989285 L61.5867351,83.7900809 Z" id="Path-30" fill="#263345"></path>
                        <path d="M74.346465,108.361395 C74.649647,110.674929 74.3372717,117.30802 75.1113591,116.224439 C75.7838613,115.283058 81.3718987,106.953225 79.9992067,104.008513 C78.6265147,101.063802 75.6115258,100.390785 73.583251,99.9413658 C73.583251,99.9413658 74.0432829,106.047861 74.346465,108.361395 Z" id="Path-30" fill="#263345"></path>
                        <path d="M27.8475057,37.3732099 C27.8475057,40.3081385 25.9046964,45.3424153 26.9509867,47.5461317 C27.997277,49.7498481 33.8392735,51.0313451 34.6133609,49.9477637 C35.2858631,49.0063831 37.327127,44.2084059 35.954435,41.2636942 C34.581743,38.3189826 30.4320286,38.0314764 28.4037537,37.5820575 L27.8475057,37.3732099 Z" id="Path-30" fill="#263345" transform="translate(31.530284, 43.856390) rotate(-47.000000) translate(-31.530284, -43.856390) "></path>
                        <path d="M44.4727685,63.5349006 C44.4727685,66.4698291 42.5299592,71.5041059 43.5762494,73.7078223 C44.6225397,75.9115387 50.4645362,77.1930357 51.2386236,76.1094543 C51.9111258,75.1680737 53.9523897,70.3700965 52.5796977,67.4253848 C51.2070057,64.4806732 47.0572913,64.193167 45.0290165,63.7437481 L44.4727685,63.5349006 Z" id="Path-30" fill="#263345" transform="translate(48.155547, 70.018081) rotate(-30.000000) translate(-48.155547, -70.018081) "></path>
                        <path d="M5.90674541,19.2047602 C1.99791076,16.1528961 5.71572267,10.8513521 10.168833,16.0264759" id="Path-31" stroke="#263345" stroke-linecap="round"></path>
                        <path d="M119.107218,132.772682 C127.339572,140.837904 110.45063,131.685906 119.546246,132.624284" id="Path-2" fill="#263345"></path>
                        <path d="M130.946217,143.160479 C139.178571,151.225701 122.289629,142.073703 131.385245,143.012081" id="Path-2" fill="#263345"></path>
                        <path d="M138.304963,156.344271 C146.537316,164.409494 129.648374,155.257495 138.74399,156.195873" id="Path-2" fill="#263345"></path>
                        <path d="M101.021677,192.054994 C109.254031,200.120216 92.3650892,190.968218 101.460705,191.906596" id="Path-2" fill="#263345"></path>
                        <path d="M82.6251493,155.540071 C90.8575028,163.605293 73.968561,154.453295 83.0641768,155.391673" id="Path-2" fill="#263345"></path>
                        <path d="M89.9838943,168.723863 C98.2162478,176.789085 81.3273061,167.637087 90.4229218,168.575465" id="Path-2" fill="#263345"></path>
                        <path d="M109.419729,212.589462 C117.652082,220.654684 100.763141,211.502686 109.858756,212.441064" id="Path-2" fill="#263345"></path>
                        <path d="M144.783574,170.966138 C153.015928,179.03136 136.126986,169.879362 145.222602,170.81774" id="Path-2" fill="#263345"></path>
                    </g>
                    <g id="Group-35" transform="translate(96.120468, 133.891220)" stroke="#00A2F2">
                        <g id="Group-39" transform="translate(0.000000, 0.000000)">
                            <path d="M20.7010276,95.9003326 C25.5174896,98.9618428 30.886309,94.3656285 35.5998897,92.954032 C40.9527051,91.3510011 38.6486946,53.7431747 38.3643639,48.0605979 C38.1357592,43.4917497 43.4000347,40.9277027 43.3624208,36.3642275 C43.324807,31.8007522 39.9099763,22.9982193 40.3955137,23.9888435 C41.9098005,27.0783877 42.1496957,32.667703 43.8887829,31.3908087 C44.9378613,30.6205413 50.3628651,30.7088002 52.2808333,25.2306902 C54.1988015,19.7525802 51.9932401,11.8400875 51.2470153,11.1387918 C44.5645236,4.85864245 36.0552138,3.93573455 34.3985967,4.0976951 C32.7419796,4.25965565 33.1491448,9.91872932 22.6665119,8.15560287 C20.9878256,7.87325625 20.1014643,4.18085606 18.036536,2.81136065 C17.0782379,2.17580111 12.5464696,2.25275774 10.6692183,5.44259567 C8.79196694,8.63243359 9.05845067,16.066025 9.51821272,16.3292416 C9.88816258,16.5410401 8.17485028,58.0282316 6.55599475,75.2427571 C6.08507055,80.2504532 4.08367335,90.3944761 5.64231099,93.2643811 C7.20094863,96.1342861 19.984295,95.4447525 20.7010276,95.9003326 Z" id="Path-89" fill="#FFFFFF" transform="translate(29.051722, 49.713889) rotate(-366.000000) translate(-29.051722, -49.713889) "></path>
                            <path d="M20.2830609,41.6092388 C31.5308896,46.6889433 26.754225,43.4169847 34.967394,50.7475662" id="Path-113"></path>
                        </g>
                    </g>
                    <path d="M101.23028,139.629582 C98.1126073,142.373837 95.2017124,143.456581 92.5474225,148.455462 C89.8931326,153.454342 89.1305376,166.828231 92.5474225,167.255549 L93.9621109,171.94798 C111.553537,174.147976 109.496879,164.029693 106.112439,153.432362" id="Path-172" stroke="#00A2F2" fill="#FFFFFF" transform="translate(99.329369, 155.940635) rotate(9.000000) translate(-99.329369, -155.940635) "></path>
                    <path d="M125.058212,31.0071787 C127.098136,28.2413672 128.351707,24.7617207 131.385244,27.8107732" id="Path-186" stroke="#263345"></path>
                    <path d="M134.22434,27.8670125 C137.339537,23.9984958 137.482035,22.7025068 141.060694,25.9338922" id="Path-187" stroke="#263345"></path>
                </g>
                <path d="M389.693175,314.248098 C391.680749,313.60472 395.257394,312.984215 399.24513,317.48576 C403.232866,321.987305 398.997276,321.613924 399.24513,323.077398 C399.650258,325.46951 401.108844,326.404125 403.808228,324.905364 C406.507613,323.406603 405.577465,321.194856 407.170435,320.904517 C408.464923,320.668581 413.787056,323.188546 415.050948,323.077398 C421.982681,322.46781 423.140674,327.953013 425.035613,328.865664 C426.703064,329.668751 427.962445,333.405405 428.813757,340.075626 C429.36435,345.904711 426.19109,364.131764 431.50478,366.590641 C457.038052,358.29306 474.189467,355.363645 482.959025,357.802397 C486.629573,358.82315 488.126088,354.606076 487.922246,357.802397 C487.891124,358.290403 488.397354,366.474924 487.922246,366.590641 L468.085388,369.246304 C462.833749,370.525393 452.412899,371.114994 447.184689,372.48671 C432.399468,376.365883 428.641962,377.355286 425.035613,375.339694 C421.429265,373.324102 424.172898,369.781061 422.176333,365.091202 C419.805756,359.522805 419.693716,352.836435 416.060706,347.996195 C410.836759,341.036358 402.291574,337.218211 396.428525,330.787533 C394.563345,328.741777 385.242188,323.474563 384.213167,320.904517 C383.557311,319.01433 383.557311,317.472164 384.213167,316.278019 C385.196952,314.486802 388.545444,314.619618 389.693175,314.248098 Z" id="Path-161" stroke="#00A2F2" fill="#FFFFFF"></path>
                <g id="Rectangle-31" transform="translate(350.004854, 371.585143) rotate(68.000000) translate(-350.004854, -371.585143) ">
                    <use fill="#C6E3FF" fill-rule="evenodd" xlink:href="#path-6"></use>
                    <path stroke="#00A2F2" stroke-width="1" d="M230.711631,416.897105 L339.916942,435.925415 L469.232732,326.852375 L350.16616,307.245136 L230.711631,416.897105 Z"></path>
                </g>
                <g id="Group-31" transform="translate(305.000000, 40.000000)">
                    <path d="M40.7097298,485.751298 C47.6534882,491.78583 60.7898216,497.557409 66.4269049,484.145964 C69.7411223,476.260957 66.2637429,453.4813 60.7072397,451.41455 C51.9862935,448.17078 47.8022261,455.548471 39.0146028,449.503963 C31.1223828,444.075352 17.5218505,447.401172 6.76430176,449.503963 C-3.99324696,451.606754 1.55433093,472.020222 4.64036673,472.237946 C10.8520404,472.676188 9.24247723,473.062332 15.3993629,478.167015 C15.3993629,478.167015 24.4461546,471.6173 40.7097298,485.751298 Z" id="Path-50" fill="#D3DCE2"></path>
                    <path d="M40.7097298,485.751298 C47.6534882,491.78583 60.7898216,497.557409 66.4269049,484.145964 C69.7411223,476.260957 66.2637429,453.4813 60.7072397,451.41455 C51.9862935,448.17078 47.8022261,455.548471 39.0146028,449.503963 C31.1223828,444.075352 17.5218505,447.401172 6.76430176,449.503963 C-3.99324696,451.606754 1.55433093,472.020222 4.64036673,472.237946 C10.8520404,472.676188 9.24247723,473.062332 15.3993629,478.167015 C15.3993629,478.167015 24.4461546,471.6173 40.7097298,485.751298 Z" id="Path-50" fill="#DFE7EE"></path>
                    <path d="M586.274162,376.198171 C593.21792,382.232703 606.354253,388.004283 611.991337,374.592838 C615.305554,366.707831 611.828175,343.928174 606.271671,341.861424 C597.550725,338.617654 593.366658,345.995345 584.579035,339.950836 C576.686815,334.522225 563.086282,337.848045 552.328733,339.950836 C541.571185,342.053628 547.118763,362.467096 550.204798,362.68482 C556.416472,363.123061 554.806909,363.509206 560.963795,368.613888 C560.963795,368.613888 570.010586,362.064174 586.274162,376.198171 Z" id="Path-50" fill="#DFE7EE"></path>
                    <path d="M14.315262,431.904652 C16.2230496,439.420927 18.2713019,455.005894 26.2755173,460.09954 C30.9927297,463.101435 50.3618138,467.96026 53.0682256,464.939114 C57.4116505,460.090583 59.6617793,439.80717 57.7616692,432.596896" id="Path-197" stroke="#979797" fill="#E8F1F9"></path>
                    <path d="M16.0721601,433.98279 C27.6954218,433.84499 39.3625719,434.600711 50.9419452,433.56939 C63.8044544,432.423785 59.1855,421.531981 45.3611547,420.511031 C37.6077555,419.93843 28.5421786,419.748074 21.2680018,423.459693 C8.47751357,429.985986 16.0721601,433.98279 16.0721601,433.98279 Z" id="Path-196" stroke="#979797" fill="#CCDBE7"></path>
                    <path d="M47.9093691,400.076338 C51.3037373,399.544066 65.068193,399.260672 61.6115604,389.959783 C60.9109071,388.07451 55.7758807,389.238135 56.2613392,387.284652 C56.8107002,385.074026 61.0695313,386.905019 62.7480829,385.386422 C64.0280529,384.228424 62.5984552,381.374959 63.9613111,380.318433 L62.3735035,377.651071 C70.3826985,371.442108 49.8498228,401.1862 74.9366155,363.625405 C76.4504638,361.358821 81.4740455,365.432642 81.8324561,359.815997 C81.9238427,358.383881 80.4888821,356.673163 81.3556025,355.537859 C82.2835787,354.322317 84.7770984,355.72629 85.8122025,354.602987 C87.3155631,352.971529 86.4545437,349.856992 88.0289966,348.29584 C89.7399998,346.599292 95.9665801,350.739454 96.3669041,340.727523 C96.4835106,337.811244 96.5304231,334.515899 94.921002,332.09485 C94.0478486,330.781367 91.775381,331.145653 90.2624104,331.544545 C88.8914119,331.906005 88.3279537,334.039713 86.9205996,334.204138 C74.5020755,335.655032 89.5600922,332.245617 73.1378673,338.776205 C70.894919,339.668153 53.4016909,350.818651 52.4771923,351.623569 L52.5347216,354.903389 C51.5321555,355.776277 49.7942931,354.518925 48.5703164,355.025104 C41.6110728,357.903116 43.7492947,366.914888 41.9301613,371.927895 C41.4911252,373.137752 39.6493332,373.207878 38.846593,374.208101 C38.4012484,374.763006 36.4841289,378.927706 37.4377653,380.161758 C38.5536796,381.605805 40.8129918,381.832259 41.8994791,383.299146 C42.2738575,383.804601 40.5825421,383.354888 40.0751623,383.722557 C39.1739506,384.375614 38.2721772,385.18926 37.8558113,386.22936 C37.0121888,388.336766 36.1157695,390.636176 36.4047955,392.891292 C36.5981419,394.399872 37.9483934,395.610356 39.1713137,396.493527 C40.0149734,397.102802 41.2057188,396.893199 42.2229213,397.093036" id="Path-199" stroke="#979797" fill="#C6D3DD"></path>
                    <path d="M46.5275908,422.305064 C46.7196871,391.355151 52.6737399,342.87481 91.7442383,338.542839" id="Path-198" stroke="#979797"></path>
                    <g id="Group-73" transform="translate(20.403357, 399.610585) scale(-1, 1) translate(-20.403357, -399.610585) translate(0.903357, 368.610585)" stroke="#979797">
                        <path d="M7.54553456,44.4975396 C9.74189043,44.1547885 18.648303,43.9722998 16.4116584,37.9830914 C15.9582944,36.7690894 12.6356303,37.5183935 12.9497505,36.2604688 C13.3052194,34.8369596 16.0609336,36.0160086 17.1470553,35.0381239 C17.9752711,34.2924435 17.0502373,32.4549849 17.9320853,31.7746463 L16.9046804,30.0570265 C22.0871007,26.0588308 8.80112227,45.2122231 25.0337528,21.0253481 C26.0133017,19.5658048 29.2638546,22.1890988 29.4957673,18.5723202 C29.5548998,17.6501238 28.6263959,16.5485252 29.187215,15.8174582 C29.7876702,15.0347227 31.4011241,15.9387965 32.0708973,15.2154575 C33.0436601,14.1648971 32.4865299,12.1593242 33.5052936,11.1540371 C34.6124132,10.0615628 38.641377,12.7275763 38.9004101,6.28049942 C38.9758614,4.40259254 39.0062166,2.28059027 37.9648264,0.721581405 C37.3998448,-0.124222071 35.9294246,0.11035628 34.9504436,0.3672181 C34.0633269,0.599976865 33.6987363,1.97395506 32.7880955,2.07983511 C24.7525799,3.01412307 34.4960024,0.818666145 23.8698569,5.02396883 C22.4185374,5.59832929 11.0993898,12.7785746 10.5011849,13.2968929 L10.5384097,15.4088982 C9.88969046,15.9709848 8.76519124,15.1613266 7.97320632,15.487275 C3.47016636,17.3405408 4.85372172,23.1435753 3.67663541,26.3716481 C3.39255322,27.1507227 2.20080546,27.1958796 1.68138531,27.8399629 C1.39322118,28.1972877 0.152732063,30.8791023 0.769790943,31.673757 C1.49185312,32.6036359 2.95376104,32.7494584 3.65678218,33.6940447 C3.89902707,34.0195274 2.80464648,33.7299394 2.47634192,33.966696 C1.89320493,34.3872248 1.3097045,34.9111637 1.04029127,35.5809251 C0.494417927,36.9379664 -0.0856180913,38.4186476 0.101398703,39.8708056 C0.226505196,40.8422391 1.10019736,41.6217178 1.89149871,42.1904261 C2.43739619,42.5827626 3.20787848,42.4477911 3.86606836,42.5764736" id="Path-199" fill="#C6D3DD"></path>
                        <path d="M5.66601921,60.9997035 C5.7903168,41.0698351 9.6429392,9.85143369 34.9238499,7.06190654" id="Path-198"></path>
                    </g>
                    <path d="M625.798929,0 C625.532619,62.1522008 625.26631,124.304402 625,186.456602" id="Path-219" stroke="#8798B4"></path>
                    <path d="M634.422755,0.933581407 C630.313088,89.3299197 631.708589,42.2953663 630.881204,142.054901" id="Path-220" stroke="#8798B4"></path>
                </g>
                <path d="M487.055879,358.470382 C501.848891,358.213573 507.64512,365.33156 488.128433,366.052526 L487.055879,358.470382 Z" id="Path-164" fill="#656F7E"></path>
                <g id="Group-97" transform="translate(421.486758, 276.405638) rotate(-18.000000) translate(-421.486758, -276.405638) translate(378.486758, 234.405638)">
                    <path d="M4.12419705,69.236622 C3.71894909,56.6945912 2.87769899,44.159068 2.90845318,31.6105296 C2.99389002,-3.25001021 53.3070415,9.87353384 40.3368396,37.1197379 C35.196469,47.917996 27.0592597,57.0477775 19.6249314,66.4156241 C15.2181945,71.968464 12.8535051,70.7097345 6.68847234,70.8654827 L4.12419705,69.236622 Z" id="Path-157" fill="#95A7C2"></path>
                    <path d="M4.25676612,68.1459809 C5.32287298,85.4551309 14.6958354,90.7860962 16.1520697,68.6473988" id="Path-160" fill="#95A7C2"></path>
                    <path d="M27.7003809,55.241156 C46.5653931,54.7024103 65.7850041,57.3050727 84.2954174,53.624919 C90.2437669,52.442296 73.0383883,49.0421191 67.2037532,47.3872805 C57.4831159,44.6302811 47.5381438,42.7363511 37.7053391,40.4108864" id="Path-158" fill="#8798B4"></path>
                    <circle id="Oval-14" stroke="#263345" fill="#263345" cx="39.5" cy="29.5" r="1.5"></circle>
                    <path d="M9.44912664,21.1638386 C8.18520945,9.92003122 10.9023435,20.8868561 1.4515114,11.0669538 C-1.09138509,8.42475314 3.95936091,7.06999156 4.39817716,6.2616991 C4.41379318,6.23293464 -0.0776278785,-0.816954009 7.2094601,1.40630259 C8.23498817,1.71918643 7.61612662,4.382714 8.68195728,4.26605592 C9.85750747,4.13738873 9.98360157,-0.0806042167 10.2330099,1.07536679 L12.2303245,1.59516999 C13.2126193,6.1479617 12.97688,10.8803149 13.3501578,15.5228874" id="Path-159" fill="#656F7E"></path>
                    <path d="M28.6712828,45.4075853 C19.5476475,49.8111287 20.4464164,46.4732656 24.640095,54.9622468" id="Path-162" stroke="#263345"></path>
                    <path d="M24.1635249,48.9280476 C31.0236065,49.0941326 47.4758753,53.3826839 55.6779553,53.1418872 C63.8800353,52.9010905 64.6026913,50.7461804 70.2109272,50.8819577" id="Path-163" stroke="#4F617B"></path>
                    <path d="M34.7037008,22.2671506 C35.5197369,13.750258 32.96936,15.1061544 39.170801,14.8421311" id="Path-165" stroke="#263345"></path>
                </g>
                <path d="M263.739742,277.672741 C286.968573,255.052941 339.193321,294.443997 359.405053,305.135499 C368.276906,309.828488 378.442208,311.914824 387.035947,317.099567 C396.929724,323.068644 405.710818,330.758408 414.434474,338.335645 C427.316503,349.524783 401.125619,345.712467 397.575586,343.980463 C378.556146,334.701187 360.28788,323.909077 341.123625,314.932697 C259.614277,276.754385 295.478838,301.04987 266.956986,281.158246 L263.739742,277.672741 Z" id="Path-166" stroke="#00A2F2" fill="#C6E3FF"></path>
                <path d="M291.145432,269.635936 C288.922334,287.302428 297.615539,284.792397 312.682381,289.249799 C316.501783,290.379738 318.353353,295.961502 322.320905,296.312392 C325.752824,296.61591 327.767862,291.700326 331.114067,290.879895 C333.391049,290.321618 336.333597,294.162146 337.963586,292.477077 C347.248828,282.878069 320.965408,274.263159 317.369988,274.09736 C309.288187,273.724677 302.173827,269.42113 294.08629,269.635936 L291.145432,269.635936 Z" id="Path-169" stroke="#00A2F2" fill="#FFFFFF"></path>
                <path d="M420.533121,343.99273 C420.759274,347.07857 420.597125,350.217759 421.211579,353.250249 C423.305449,363.584029 429.048608,373.461387 428.638981,383.997208 C428.517863,387.112422 421.204859,390.123042 419.887848,387.297319 C400.177528,345.007692 398.525991,348.545008 418.801331,342.401056" id="Path-167" stroke="#00A2F2" fill="#C6E3FF" transform="translate(416.496110, 365.412553) rotate(7.000000) translate(-416.496110, -365.412553) "></path>
                <path d="M426.312042,374.627361 C462.487048,361.367472 474.38929,356.654065 507.979042,372.961941 L479.702558,369.767532 L458.135685,373.782975 L432.866788,382.199795 L426.495177,383.439948" id="Path-168" stroke="#00A2F2" fill="#C6E3FF"></path>
                <path d="M324.37631,295.304376 C327.044535,306.530285 326.19486,321.206712 331.114131,331.59467 C331.44895,332.301703 332.322218,333.263968 333.035421,332.9425 C339.753544,329.914381 345.39692,324.697542 352.276262,322.056077 C360.405343,318.934748 369.706586,319.39783 377.642878,315.814546 C379.089554,315.161363 377.115829,312.471239 375.995678,311.346615 C370.470781,305.799657 343.295542,321.379835 339.650832,316.019448 C334.427096,308.33674 343.27123,284.582563 326.282964,293.645201 L324.37631,295.304376 Z" id="Path-171" fill="#A2E4EB"></path>
                <path d="M290.526571,280.482709 C284.583237,280.877606 275.576704,286.881226 272.696569,281.6674 L269.552987,279.986846 C267.588996,276.431488 269.831072,271.378513 274.050835,270.535051 C279.672995,269.411273 285.516488,270.693321 291.249314,270.772457" id="Path-174" fill="#A2E4EB"></path>
                <path d="M301.358902,270.976252 C295.389814,260.545983 283.123214,255.541234 286.61417,240.024002 C288.253762,232.736043 295.747522,230.553324 302.407432,232.116198 C304.456312,232.597007 316.573744,241.717715 322.886418,240.329107 C336.354893,237.366428 350.31532,226.701729 364.357483,227.478603 C365.438106,227.538388 366.487311,228.357875 367.062174,229.274855 C367.5724,230.088729 367.682034,231.273409 367.284772,232.147998 C361.471261,244.946654 348.336197,245.26569 339.014867,252.496348 C313.501954,272.286991 340.893569,278.996219 306.016265,271.289952 L301.358902,270.976252 Z" id="Path-175" fill="#A2E4EB"></path>
                <path d="M326.558675,253.190246 C327.192412,252.06728 329.890213,252.831426 330.883098,251.426825 C331.875982,250.022223 331.166496,246.44596 332.466817,245.633545 C333.053128,245.26723 336.628217,245.646917 339.055253,244.900764 C339.626866,244.725031 340.658124,240.700088 342.747556,239.894527 C343.298513,239.68211 346.314909,240.466673 348.457161,239.894527 C349.070418,239.73074 350.35928,236.120441 352.166706,235.369542 C352.816564,235.099556 355.634267,235.797786 357.53908,235.369542 C358.31478,235.195147 359.584986,231.694444 360.798814,231.058577 C362.012642,230.422711 365.247523,231.925552 365.709714,231.058577" id="Path-177" stroke="#656F7E"></path>
                <path d="M321.750528,252.31884 C323.21948,258.581316 321.423029,258.124559 326.370851,255.413254" id="Path-178" stroke="#656F7E" transform="translate(324.060689, 254.812307) rotate(36.000000) translate(-324.060689, -254.812307) "></path>
                <circle id="Oval-14" stroke="#263345" fill="#263345" cx="310.105029" cy="240.34809" r="1.5"></circle>
                <path d="M298.204266,237.565686 C299.020302,229.048794 296.469925,230.40469 302.671366,230.140667" id="Path-165" stroke="#263345"></path>
                <polygon id="Rectangle-33" fill="#F3F3F3" points="493 294 511 294 507.67885 314 498.980878 314"></polygon>
                <polygon id="Rectangle-33" fill="#F3F3F3" points="483 339 501 339 497.67885 359 488.980878 359"></polygon>
                <path d="M777.112751,272.392204 C776.144295,271.781186 775.175838,271.170168 774.207381,270.559151" id="Path-191" stroke="#979797"></path>
                <path d="M808.846931,262.50892 C809.876531,261.423201 810.906131,260.337483 811.935732,259.251764" id="Path-192" stroke="#979797"></path>
                <path d="M859.560558,264.661092 C860.05222,263.586681 860.543882,262.51227 861.035544,261.437859" id="Path-207" stroke="#979797"></path>
                <g id="Group-100" transform="translate(833.000000, 247.000000)">
                    <g id="Group-98" transform="translate(19.750000, 69.522727)">
                        <g id="Group-31">
                            <path d="M0.82071994,15.6816735 C2.87810011,25.5826569 5.08695916,46.1123093 13.7187979,52.8220307 C18.8058944,56.7763448 39.6937392,63.176743 42.612365,59.1970692 C47.2963647,52.8102311 49.7229298,26.0914453 47.673829,16.5935478" id="Path-197" stroke="#CBDBE7" fill="#E8F1F9"></path>
                            <path d="M2.71537913,18.4191483 C15.2500393,18.2376279 27.8320292,19.2331188 40.3193596,17.8745872 C54.1904386,16.3655136 49.2093046,2.01803705 34.3009704,0.673167038 C25.9396149,-0.0811047739 16.1631917,-0.33185484 8.31863506,4.55735868 C-5.47477568,13.1542665 2.71537913,18.4191483 2.71537913,18.4191483 Z" id="Path-196" stroke="#979797" fill="#B8CAD7"></path>
                        </g>
                        <path d="M14.2911731,55.1271931 C14.2911731,71.8662876 15.9441218,64.4909148 10.4682311,77.5871282" id="Path-127" stroke="#CBDBE7" stroke-width="3"></path>
                        <path d="M38.0827039,60.1572728 C41.0030722,70.3738532 38.676611,65.4052431 45.8690799,74.4542924" id="Path-128" stroke="#CBDBE7" stroke-width="3"></path>
                        <path d="M28.1499232,58.8721046 C28.4945655,83.4376976 26.2842959,72.8313568 32.6815691,91.2358434" id="Path-129" stroke="#CBDBE7" stroke-width="3"></path>
                    </g>
                    <path d="M36.9953463,84.2182321 C28.4497793,66.8580774 34.770563,69.5576189 26.6511502,53.5150274 C24.4306166,49.1276272 24.5952271,43.2198455 22.8360227,38.2941057 C19.5484662,29.0890084 17.8964782,34.0498632 16.7450792,24.8964675 C15.410517,14.2869601 13.7555648,11.6001019 19.2879003,4.55260307 C23.550535,-0.877456907 30.975837,6.57001753 31.3819801,11.1635747 C31.904566,17.0741221 30.461925,23.0104217 30.5236212,28.9437267 C30.5843987,34.7886777 34.5444399,50.0840528 35.4874086,53.2954087 C38.3926974,63.1896045 41.830424,72.9194616 45.0019317,82.731488" id="Path-179" stroke="#979797" fill="#CADCEA"></path>
                    <path d="M16.9411022,25.3267978 C12.4223409,23.5928769 7.40766496,22.8169288 3.38481837,20.1250353 C-4.55535426,14.8118575 3.89954792,4.58468774 16.1469754,9.23206664" id="Path-181" stroke="#979797" fill="#CADCE9"></path>
                    <g id="Group-99" transform="translate(62.000000, 55.608661) scale(-1, 1) translate(-62.000000, -55.608661) translate(45.000000, 28.108661)" stroke="#979797" fill="#CADCE9">
                        <path d="M27.4481602,54.6200886 C21.1079008,43.0597243 25.7975145,44.8573859 19.773434,34.174405 C18.1259414,31.2527752 18.2480717,27.3187026 16.9428555,24.0385852 C14.5037007,17.9087851 13.2780322,21.2122861 12.4237684,15.1169148 C11.4336094,8.05189878 10.2057416,6.2626832 14.3103776,1.56965742 C17.4729776,-2.04629374 22.9820726,2.91308128 23.2834046,5.97199376 C23.6711296,9.90790808 22.600783,13.8609711 22.6465576,17.81204 C22.6916506,21.7042728 25.6297458,31.8896721 26.3293677,34.0281579 C28.4849045,40.6168381 31.0354759,47.0960829 33.38853,53.6300454" id="Path-179"></path>
                        <path d="M12.5692049,15.4034776 C9.21657553,14.248836 5.49600949,13.7321216 2.51131685,11.9395529 C-3.37977897,8.40143518 2.89321297,1.59102304 11.980014,4.68577617" id="Path-181"></path>
                    </g>
                    <polyline id="Path-182" stroke="#979797" points="7.18354617 8.10239907 7.18354617 6.45614357 7.18354617 3.6569116 7.18354617 3.62840899"></polyline>
                    <path d="M19.9371901,19.125553 C21.9896328,23.5118646 20.4365196,21.4125715 25.2196938,24.9102033" id="Path-184" stroke="#FFFFFF"></path>
                    <path d="M5.30756048,11.8073712 C7.36000314,16.1936827 5.80688998,14.0943896 10.5900642,17.5920215" id="Path-184" stroke="#FFFFFF"></path>
                    <path d="M25.3074598,37.5088159 C25.8038816,36.3798981 26.3003034,35.2509803 26.7967252,34.1220625" id="Path-185" stroke="#FFFFFF"></path>
                    <path d="M21.2375977,35.4074381 C20.0706006,35.345376 18.9036035,35.2833139 17.7366064,35.2212518" id="Path-188" stroke="#979797"></path>
                    <path d="M33.9953772,47.8699738 C35.6388841,46.6298038 37.2823909,45.3896339 38.9258978,44.149464" id="Path-189" stroke="#979797"></path>
                    <path d="M31.1142622,20.5226405 C32.6545329,19.4439854 34.1948037,18.3653302 35.7350744,17.286675" id="Path-180" stroke="#979797"></path>
                    <path d="M31.4823281,36.5797228 C32.1620935,35.4236816 32.841859,34.2676403 33.5216245,33.111599" id="Path-190" stroke="#979797"></path>
                    <path d="M59.7342571,37.9335967 C59.7342571,40.3962134 60.7417559,42.1588786 63.3836695,42.1588786" id="Path-193" stroke="#FFFFFF"></path>
                    <path d="M56.0981705,47.0406398 C54.5116426,45.7748788 52.9251147,44.5091178 51.3385868,43.2433568" id="Path-194" stroke="#979797"></path>
                    <path d="M56.4956449,31.0722834 C56.5172417,29.314316 56.5388386,27.5563487 56.5604355,25.7983814" id="Path-195" stroke="#979797"></path>
                    <path d="M53.8433648,58.263312 C53.2786295,57.2376778 52.7138942,56.2120436 52.1491589,55.1864095" id="Path-200" stroke="#979797"></path>
                    <path d="M65.6095261,47.0079997 C66.8656678,47.1042344 68.1218094,47.200469 69.377951,47.2967036" id="Path-201" stroke="#979797"></path>
                    <path d="M66.7798929,32.403631 C67.8693863,31.2748664 68.9588798,30.1461018 70.0483732,29.0173372" id="Path-202" stroke="#979797"></path>
                    <path d="M37.6583994,87.5987626 C38.4466087,80.3360851 38.822313,71.9634549 39.1868983,64.665181 C39.5312485,57.7719737 32.5946467,22.1381205 46.078599,11.4933865 C47.1284171,10.6646209 48.3007941,9.74118135 49.6204865,9.65093075 C51.4848806,9.5234293 53.6514911,9.6584117 55.0982811,10.876552 C56.1429646,11.7561344 55.9495755,13.5689211 55.9244764,14.9586423 C55.4770122,39.7344789 44.6102729,61.282085 51.484652,87.5987626 L37.6583994,87.5987626 Z" id="Path-203" stroke="#979797" fill="#CADCEA"></path>
                    <path d="M55.7282665,18.6575585 C77.1652092,15.4516388 64.6376221,-4.8255581 53.5754717,10.8593368" id="Path-204" stroke="#979797" fill="#CADCE9"></path>
                    <path d="M41.3618048,18.4252345 C25.5298471,7.28301827 40.2736212,-12.0484784 49.5378303,10.3943947" id="Path-205" stroke="#979797" fill="#CADCE9"></path>
                    <polyline id="Path-206" stroke="#979797" points="55.5021886 8.80898792 55.5021886 8.23571772 55.5021886 4.56669647 55.5021886 4.30971328"></polyline>
                    <path d="M60.2920998,17.956946 C61.6991132,18.6318143 63.1061266,19.3066825 64.5131401,19.9815507" id="Path-208" stroke="#979797"></path>
                    <path d="M54.9296417,25.1327076 C56.2395458,24.097879 57.5494498,23.0630504 58.8593539,22.0282218" id="Path-209" stroke="#979797"></path>
                    <path d="M48.2120945,6.87402859 C48.2627936,5.29136763 48.3134926,3.70870666 48.3641917,2.1260457" id="Path-210" stroke="#979797"></path>
                    <polyline id="Path-211" stroke="#979797" points="39.4621436 21.9725958 38.8537551 21.9725958 38.50361 21.9725958 35.1436876 21.9725958 35.07614 21.9725958 35.0085923 21.9725958"></polyline>
                    <path d="M34.2182386,9.12251661 C33.2998353,7.55180836 32.381432,5.9811001 31.4630287,4.41039185" id="Path-212" stroke="#979797"></path>
                    <path d="M43.0440083,36.9332471 C45.8053449,37.3675288 48.5666815,37.8018105 51.3280181,38.2360922" id="Path-213" stroke="#FFFFFF"></path>
                    <path d="M44.8935279,30.2213426 C46.5963113,28.7873243 48.2990947,27.3533059 50.0018781,25.9192876" id="Path-214" stroke="#FFFFFF"></path>
                    <path d="M42.480192,8.51936464 C37.4473955,8.02621659 38.2966064,10.203048 40.4863869,13.7381003" id="Path-215" stroke="#FFFFFF"></path>
                </g>
                <polyline id="Path-216" stroke="#979797" points="438.352577 482.002173 452.597581 482.002173 456.451798 482.002173"></polyline>
                <path d="M547.08107,462.833816 C564.272975,462.833816 578.64207,472.356257 596.181438,473.144703" id="Path-217" stroke="#656F7E"></path>
                <path d="M630.477503,411.60659 C663.811723,418.33213 647.59146,416.657527 679.064228,417.302309" id="Path-218" stroke="#656F7E"></path>
                <path d="M941.849122,113.254879 C941.978664,141.563626 941.102155,169.894863 942.237747,198.181121 C942.698567,209.659607 945.517626,220.929503 946.630891,232.363165 C947.356197,239.812335 947.376599,247.313374 947.749453,254.788478" id="Path-221" stroke="#8798B4"></path>
                <path d="M951.355211,43.1842231 C950.006214,84.8599197 953.263553,125.874937 952.855639,167.807596" id="Path-222" stroke="#8798B4"></path>
                <path d="M805.384536,67.9074889 C805.466766,109.31006 805.548997,150.712631 805.631228,192.115202" id="Path-223" stroke="#8798B4"></path>
                <path d="M799.386204,82.5265221 C799.088822,107.363559 798.791439,132.200596 798.494057,157.037633" id="Path-224" stroke="#8798B4"></path>
                <polyline id="Path-225" stroke="#8798B4" points="792.62752 68.8030145 792.62752 73.1319515 792.62752 92.4719255 792.62752 94.0669749 792.62752 107.513377 792.62752 109.108426 792.62752 116.597048 792.62752 117.776438 792.62752 120.38529 792.62752 122.149307 792.62752 122.64269 792.62752 123.453733 792.62752 125.251542 792.62752 125.744926"></polyline>
                <path d="M698.616224,146.392218 C698.616224,136.867661 702.760918,110.895696 715.875703,115.855041 C726.803731,119.987465 710.43289,148.995299 708.556665,123.879743 C708.154393,118.494845 707.895809,113.039346 708.556665,107.680034 C709.007768,104.021748 710.429197,100.524405 711.85571,97.1256395 C712.5246,95.5319623 713.458716,93.9566461 714.782815,92.8457982 C716.103521,91.737797 717.924762,91.4259778 719.495736,90.7160676" id="Path-226" stroke="#00A2F2"></path>
                <path d="M570.633682,161.850598 C589.979409,154.226965 583.780459,159.120304 592.004866,151.622286" id="Path-227" stroke="#00A2F2"></path>
                <path d="M279.102606,225.872439 C278.645636,217.474349 281.026689,211.960073 272.993642,207.313722 C271.040405,206.183961 267.920515,204.649089 266.311485,206.231024 C259.998361,212.437839 269.643388,224.270501 274.466111,208.89064 C276.204784,203.345941 276.522812,197.452254 277.551163,191.733062" id="Path-228" stroke="#00A2F2"></path>
                <path d="M388.541716,229.716654 C388.398206,233.529449 387.100268,237.475902 388.111185,241.155039 C390.943392,251.462589 411.206731,239.895663 392.286577,230.684713" id="Path-229" stroke="#00A2F2"></path>
                <path d="M420.816503,0.939338991 C421.202304,28.7753222 421.588106,56.6113055 421.973907,84.4472888" id="Path-230" stroke="#C6E3FF" stroke-width="2"></path>
                <path d="M422.5,105.664098 C433.821837,105.664098 443,104.045695 443,93 C443,81.954305 433.821837,73 422.5,73 C411.178163,73 402,81.954305 402,93 C402,104.045695 411.178163,105.664098 422.5,105.664098 Z" id="Oval-15" stroke="#00A2F2" fill="#F5FAFE"></path>
                <path d="M422.5,105.664098 C433.821837,105.664098 443,104.965493 443,100.197475 C443,95.4294559 433.821837,91.5642131 422.5,91.5642131 C411.178163,91.5642131 402,95.4294559 402,100.197475 C402,104.965493 411.178163,105.664098 422.5,105.664098 Z" id="Oval-15" stroke="#00A2F2" fill="#EFF2F9"></path>
            </g>
        </g>
    </g>
</svg>