<?xml version="1.0" encoding="UTF-8"?>
<svg width="572px" height="488px" viewBox="0 0 572 488" version="1.1" xmlns="http://www.w3.org/2000/svg" xmlns:xlink="http://www.w3.org/1999/xlink">
    <!-- Generator: Sketch 44.1 (41455) - http://www.bohemiancoding.com/sketch -->
    <title>Group 2</title>
    <desc>Created with Sketch.</desc>
    <defs></defs>
    <g id="SITE-ASSETS" stroke="none" stroke-width="1" fill="none" fill-rule="evenodd">
        <g id="Group-2" transform="translate(0.000000, -7.000000)">
            <ellipse id="Oval-32" fill="#E9EEF4" cx="355" cy="482.5" rx="55" ry="12.5"></ellipse>
            <ellipse id="Oval-32" fill="#E9EEF4" cx="55" cy="482.5" rx="55" ry="12.5"></ellipse>
            <ellipse id="Oval-32" fill="#E9EEF4" cx="167.5" cy="485.5" rx="27.5" ry="6.5"></ellipse>
            <ellipse id="Oval-32" fill="#E9EEF4" cx="495" cy="482.5" rx="55" ry="12.5"></ellipse>
            <path d="M356.908268,212.108704 C357.918517,209.643766 361.940205,211.917023 361.811261,214.709963 C361.525865,220.891676 360.324017,246.273609 362.864985,269.841931 C365.405953,293.410252 372.046941,318.460292 371.813721,326.431761 C371.362012,341.871176 366.214969,329.940362 366.214969,329.940362 C366.214969,329.940362 360.943371,302.266926 356.786478,263.346296 C352.629584,224.425667 352.455772,222.972479 356.908268,212.108704 Z" id="Path-116" fill="#FFD410"></path>
            <path d="M352,443.338432 C356.965847,489.88764 360.426407,467.896818 360.808791,444.144949" id="Path-106" fill="#FFD410" transform="translate(356.404395, 457.007813) scale(-1, 1) translate(-356.404395, -457.007813) "></path>
            <path d="M326,462.338432 C330.965847,490.963763 334.426407,477.440557 334.808791,462.834398" id="Path-106" fill="#FFD410" transform="translate(330.404395, 470.744387) scale(-1, 1) translate(-330.404395, -470.744387) "></path>
            <path d="M383.846145,468.183641 C376.359595,466.396794 366.982313,460.606493 359.379248,459.373631 C357.573192,459.080774 355.846645,460.712827 354.851286,460.669274 C353.855926,460.625721 352.279781,459.590002 351.061611,459.373631 C351.061611,459.373631 346.149443,468.860753 348.769245,471.86151 C351.389046,474.862267 364.083452,473.886588 366.601717,474.374823 C369.012207,474.842163 384.39185,475.274153 388.372931,474.374823 C392.354013,473.475493 389.244823,469.472167 383.846145,468.183641 Z" id="Path-173" stroke="#979797" fill="#263345"></path>
            <path d="M358.846145,483.183641 C351.359595,481.396794 341.982313,475.606493 334.379248,474.373631 C332.573192,474.080774 330.846645,475.712827 329.851286,475.669274 C328.855926,475.625721 327.279781,474.590002 326.061611,474.373631 C326.061611,474.373631 321.149443,483.860753 323.769245,486.86151 C326.389046,489.862267 339.083452,488.886588 341.601717,489.374823 C344.012207,489.842163 359.39185,490.274153 363.372931,489.374823 C367.354013,488.475493 364.244823,484.472167 358.846145,483.183641 Z" id="Path-173" stroke="#979797" fill="#263345"></path>
            <path d="M320.375945,297.833992 C319.772943,336.713003 305.805906,442.374829 313.107449,442.77489 L320.375945,445.242175 C324.820199,445.485681 332.629292,449.483232 333.680289,443.9021 C336.516331,428.841806 331.675476,407.854694 331.982141,387.321097 C332.288805,366.787499 333.508036,371.037067 333.680289,363.938965 C333.827355,357.878755 333.57019,341.861485 337.673748,334.907163 C339.249451,332.236812 333.928725,427.976521 337.673748,460.014494 C337.914156,462.071138 350.827738,464.282973 352.434988,464.144791 C359.827063,463.509262 351.964909,371.807361 359.239608,352.77923 C363.70795,341.091572 365.552582,322.834484 363.474854,309.484046 C361.397126,296.133609 359.676775,302.640935 359.239608,297.833992 L320.375945,297.833992 Z" id="Path-105" stroke="#00A2F2" fill="#E7EBEE" transform="translate(337.663088, 380.992471) scale(-1, 1) translate(-337.663088, -380.992471) "></path>
            <path d="M312.293473,210.442743 C309.264053,215.157719 309.414367,229.163254 309.414367,229.163254 C309.414367,229.163254 298.387527,247.623875 298.544829,268.248794 C298.702131,288.873714 309.967383,333.72166 307.683922,334.152479 C303.82414,334.880702 290,275.821456 290,268.247514 C290,257.713852 298.272735,230.728674 298.544829,223.712987 C298.816924,216.697301 300.586442,224.945605 298.544829,217.442626 C296.224351,208.914813 306.509099,203.606116 307.683922,202.338432 L312.293473,210.442743 Z" id="Path-116" fill="#FFD410"></path>
            <g id="Group-27" transform="translate(333.693483, 174.251760) scale(-1, 1) rotate(32.000000) translate(-333.693483, -174.251760) translate(236.193483, 30.751760)">
                <path d="M43.3453095,77.7885595 C43.3453095,77.7885595 27.5719823,109.355987 16.8980807,114.445867 C13.3170862,116.153475 11.1130457,114.589888 8.96234484,114.445867 C6.81164395,114.301847 2.30701979,113.421294 1.42333231,112.534203 C-2.89684889,108.197381 4.26912883,85.8259082 8.96234484,67.8439836 C13.6555608,49.862059 3.33152109,52.5477545 8.96234484,40.9739116 C14.5931686,29.4000687 20.0309625,21.7579807 31.7575681,21.7579807 C41.7009498,21.7579807 43.8558314,29.4173124 46.2958376,33.0360211 C48.7358437,36.6547297 48.8927367,48.3663566 48.8927367,48.3663566 L60.5571895,67.0333832 C60.5571895,67.0333832 70.2882538,85.152805 85.6584485,103.976687 C101.028643,122.800569 119.929645,153.732652 119.929645,153.732652 C119.929645,153.732652 111.655836,157.623275 105.956943,162.463766 C102.81401,165.133291 43.3453095,77.7885595 43.3453095,77.7885595 Z" id="Rectangle-45" fill="#FFC30F"></path>
                <g id="Group-26" transform="translate(30.884707, 0.017261)" stroke="#FFC30F">
                    <path d="M0.887220305,24.1287408 L6.21054214,2.6809712" id="Line" stroke-linecap="square"></path>
                    <ellipse id="Oval-19" fill="#FFC30F" cx="5.32332183" cy="3.57462826" rx="3.54888122" ry="3.57462826"></ellipse>
                </g>
                <g id="Group-26" transform="translate(17.965169, 12.827041) rotate(-45.000000) translate(-17.965169, -12.827041) translate(13.465169, -0.172959)" stroke="#FFC30F">
                    <path d="M0.887220305,24.1287408 L6.21054214,2.6809712" id="Line" stroke-linecap="square"></path>
                    <ellipse id="Oval-19" fill="#FFC30F" cx="5.32332183" cy="3.57462826" rx="3.54888122" ry="3.57462826"></ellipse>
                </g>
                <g id="Group" transform="translate(47.915840, 18.601232) rotate(-73.000000) translate(-47.915840, -18.601232) translate(33.415840, 12.601232)">
                    <path d="M0.573191515,1.91073693 C6.09272437,1.66530679 8.20014514,3.55358693 9.81411075,3.91071372 C11.4280764,4.26784051 6.89136085,7.06969458 20.6145189,11.0426243 C28.3363878,13.2781478 31.5478232,1.94959599 23.9848738,0.838162939 C16.2626108,-0.296682477 8.37708562,0.748703624 0.573191515,0.703973967 L0.573191515,1.91073693 Z" id="Path-22" fill="#FFC30F"></path>
                    <path d="M14.8135955,2.43350888 C24.0058973,2.49258787 30.4526258,10.7617568 17.9445943,8.9074699" id="Path-23" stroke="#342F7F" stroke-linecap="round"></path>
                </g>
                <path d="M0.616425118,106.22402 C0.616425118,106.22402 0.454525482,105.649598 2.86696533,106.22402 C5.27940518,106.798443 7.55641735,110.029849 7.55641735,110.029849 C7.55641735,110.029849 14.3183196,107.779779 22.2246743,100.864105 C30.1310289,93.9484309 31.1761638,78.8830725 28.7953201,75.0729261" id="Path-24" stroke="#263345" stroke-width="2" stroke-linecap="round"></path>
                <ellipse id="Oval-20" stroke="#263345" fill="#263345" cx="19.350843" cy="52.7430277" rx="1" ry="1"></ellipse>
                <ellipse id="Oval-20" stroke="#263345" fill="#263345" cx="12.2530805" cy="52.7430277" rx="1" ry="1"></ellipse>
                <path d="M30.3753031,69.9965219 C29.9153554,71.1926194 26.6638125,72.6135119 26.2038648,73.8096095 C25.743917,75.005707 27.9603076,76.2767362 27.4427314,77.622697" id="Path-25" stroke="#263345" stroke-width="2" stroke-linecap="round" transform="translate(28.257953, 73.809609) rotate(-117.000000) translate(-28.257953, -73.809609) "></path>
                <path d="M7.39702864,109.181045 C4.05103124,95.342779 4.33598169,103.39537 12.2064325,91.6513378" id="Path-26" stroke="#263345" stroke-linecap="round"></path>
                <path d="M4.66412024,99.7779966 C3.81699817,98.8056909 3.34077924,99.2918438 2.49365717,98.3195381" id="Path-27" stroke="#263345" stroke-linecap="round"></path>
                <path d="M19.0700737,26.3805878 C10.2874834,20.0854701 30.1259619,31.5514412 16.1466651,27.1086074 C2.16736826,22.6657737 9.45481636,26.0957067 6.26588775,24.8076441 C2.10528469,23.1271055 4.50844498,11.9644533 9.692796,14.9052748 C12.0345025,16.2336071 15.1615698,23.401909 17.4583071,24.8076441" id="Path-29" stroke="#FFC30F" fill="#FFC30F"></path>
                <path d="M81.6024241,111.163944 C81.6024241,115.057702 79.0282017,121.736655 80.4145364,124.660316 C81.800871,127.583977 89.5415164,129.284134 90.5671822,127.846551 C91.4582475,126.597626 94.1629222,120.23217 92.3441053,116.325433 C90.5252884,112.418697 85.0269168,112.037264 82.3394526,111.441021 L81.6024241,111.163944 Z" id="Path-30" fill="#263345"></path>
                <path d="M98.5090661,143.762603 C98.9107823,146.831959 98.496885,155.632052 99.5225508,154.194469 C100.413616,152.945543 107.817766,141.894389 105.998949,137.987652 C104.180132,134.080916 100.185272,133.188027 97.4978076,132.591785 C97.4978076,132.591785 98.1073498,140.693247 98.5090661,143.762603 Z" id="Path-30" fill="#263345"></path>
                <path d="M36.8979451,49.5828788 C36.8979451,53.476636 34.3237228,60.1555897 35.7100574,63.0792509 C37.096392,66.002912 44.8370374,67.7030686 45.8627032,66.2654858 C46.7537686,65.0165601 49.4584432,58.6511042 47.6396264,54.7443678 C45.8208095,50.8376314 40.3224379,50.4561982 37.6349737,49.859956 L36.8979451,49.5828788 Z" id="Path-30" fill="#263345" transform="translate(41.777626, 58.184087) rotate(-47.000000) translate(-41.777626, -58.184087) "></path>
                <path d="M58.9264182,84.2914825 C58.9264182,88.1852398 56.3521959,94.8641935 57.7385305,97.7878546 C59.1248651,100.711516 66.8655105,102.411672 67.8911763,100.97409 C68.7822417,99.7251639 71.4869164,93.3597079 69.6680995,89.4529715 C67.8492826,85.5462351 62.350911,85.1648019 59.6634468,84.5685597 L58.9264182,84.2914825 Z" id="Path-30" fill="#263345" transform="translate(63.806099, 92.892691) rotate(-30.000000) translate(-63.806099, -92.892691) "></path>
                <path d="M7.82643767,25.4788738 C2.64723176,21.4299787 7.57333254,14.3964427 13.4737037,21.2622575" id="Path-31" stroke="#263345" stroke-linecap="round"></path>
                <path d="M157.817064,176.148953 C168.724933,186.849049 146.347085,174.707132 158.398776,175.952074" id="Path-2" fill="#263345"></path>
                <path d="M173.503738,189.930399 C184.411606,200.630495 162.033759,188.488578 174.08545,189.73352" id="Path-2" fill="#263345"></path>
                <path d="M183.254075,207.42128 C194.161944,218.121377 171.784096,205.979459 183.835787,207.224401" id="Path-2" fill="#263345"></path>
                <path d="M133.853723,254.798544 C144.761591,265.498641 122.383743,253.356723 134.435434,254.601665" id="Path-2" fill="#263345"></path>
                <path d="M109.478323,206.354351 C120.386191,217.054447 98.0083434,204.91253 110.060034,206.157472" id="Path-2" fill="#263345"></path>
                <path d="M119.22866,223.845232 C130.136528,234.545328 107.758681,222.403411 119.810371,223.648353" id="Path-2" fill="#263345"></path>
                <path d="M144.981141,282.041535 C155.889009,292.741632 133.511161,280.599714 145.562852,281.844657" id="Path-2" fill="#263345"></path>
                <path d="M191.838236,226.820048 C202.746104,237.520144 180.368256,225.378227 192.419947,226.623169" id="Path-2" fill="#263345"></path>
            </g>
            <g id="Group-35" transform="translate(301.000000, 177.338432)" stroke="#00A2F2">
                <g id="Group-39" transform="translate(0.000000, 0.000000)">
                    <path d="M27.4288616,127.230564 C33.8106737,131.292256 40.9243594,125.194478 47.1698539,123.321719 C54.2623342,121.194985 51.2095204,71.3008415 50.8327822,63.761791 C50.5298809,57.7003195 57.505046,54.2986093 57.4552076,48.244266 C57.4053692,42.1899228 52.8807186,30.5116399 53.5240556,31.8258968 C55.5304857,35.9247819 55.8483468,43.3401027 58.1526373,41.6460525 C59.5426662,40.624142 66.7307962,40.7412348 69.2721041,33.4734495 C71.813412,26.2056642 68.8910431,15.7081938 67.9022953,14.7777878 C59.0479938,6.44594029 47.7731583,5.2215223 45.5781406,5.43639467 C43.383123,5.65126704 43.9226169,13.159136 30.0331282,10.8200037 C27.808869,10.4454156 26.6344401,5.54672397 23.8984102,3.72982022 C22.6286652,2.88662609 16.6240722,2.98872412 14.1367142,7.22066854 C11.6493562,11.452613 12.0024471,21.3147271 12.6116319,21.6639354 C13.1018154,21.9449276 10.8316766,76.9858083 8.68669304,99.8242461 C8.06271849,106.467935 5.41086719,119.925967 7.47606206,123.733458 C9.54125693,127.540949 26.4791908,126.626148 27.4288616,127.230564 Z" id="Path-89" fill="#FFFFFF" transform="translate(38.493532, 65.955206) rotate(-366.000000) translate(-38.493532, -65.955206) "></path>
                    <path d="M26.8750557,55.2028003 C41.7784288,61.9420226 35.4493482,57.6011291 46.331797,67.3265804" id="Path-113"></path>
                </g>
            </g>
            <path d="M307.770501,184.951492 C303.639584,188.592284 299.782649,190.028756 296.265714,196.660749 C292.74878,203.292742 291.738342,221.035824 296.265714,221.602745 L298.140176,227.828174 C321.448816,230.746899 318.723744,217.323016 314.239361,203.263582" id="Path-172" stroke="#00A2F2" fill="#FFFFFF" transform="translate(305.251794, 206.591297) rotate(9.000000) translate(-305.251794, -206.591297) "></path>
            <path d="M339.342511,40.8426114 C342.04541,37.1732211 343.706392,32.5567889 347.725828,36.6019538" id="Path-186" stroke="#263345"></path>
            <path d="M351.48763,36.6765662 C355.615266,31.5442216 355.804076,29.8248385 360.545799,34.1119038" id="Path-187" stroke="#263345"></path>
            <g id="Group" transform="translate(381.000000, 184.000000)">
                <g id="Group-69">
                    <g id="Group-19">
                        <g id="Group-42" transform="translate(88.410638, 53.340432) rotate(-134.000000) translate(-88.410638, -53.340432) translate(46.910638, 19.840432)">
                            <path d="M65.653383,8.74049123 C55.0485926,30.6201658 67.8720979,41.9250664 58.3355004,59.4632529 C44.264025,85.3412623 -2.65536873,52.9310076 25.1643251,30.1856058 C36.0539074,21.2822754 49.4691052,5.32215289 60.8905545,-2.77724716" id="Path-67" stroke="#263345" fill="#D8D8D8" transform="translate(41.081472, 33.122410) rotate(-255.000000) translate(-41.081472, -33.122410) "></path>
                            <path d="M39.8224162,16.2758922 C39.7107843,25.3747191 41.8113269,68.3840654 17.2348407,53.2643863" id="Path-69" stroke="#3C3C3C" transform="translate(28.531361, 36.366049) rotate(-255.000000) translate(-28.531361, -36.366049) "></path>
                        </g>
                        <path d="M95.429981,271.587154 L109.601582,271.587154 C109.601582,271.587154 108.613183,277.720301 109.601582,280.279022 C110.589982,282.837743 113.050697,286.894699 113.050697,286.894699 L90.7269883,286.894699 C90.7269883,286.894699 93.4882343,281.857084 94.8026004,278.522295 C96.1169664,275.187506 95.429981,271.587154 95.429981,271.587154 Z" id="Rectangle-51" fill="#D8D8D8"></path>
                        <path d="M91.0208071,285.77788 C91.1291538,288.577361 89.350053,291.066606 91.4998185,291.775379 C96.7328745,293.500705 102.014856,292.450416 107.475574,292.208751 C112.936291,291.967087 115.777753,292.325412 119.716984,292.208751 C122.24191,292.133976 128.853896,292.682828 130.326767,291.030375 C131.799638,289.377923 128.067576,287.082624 124.622935,286.864036 C114.228737,286.20445 103.818747,286.030323 93.4166531,285.613467" id="Path-85" fill="#FFFFFF"></path>
                        <path d="M90.9513275,199.939658 C104.03491,201.256619 110.550516,184.453621 113.091977,187.338887 C115.633438,190.224153 111.204016,220.239159 108.813921,250.14336 C108.216227,257.621544 111.142744,274.937019 107.709795,274.937019 C83.0430336,277.890917 102.682846,214.975476 92.4297698,200.296308" id="Path-63" fill="#82BAD4" transform="translate(102.402819, 231.021376) rotate(-2.000000) translate(-102.402819, -231.021376) "></path>
                        <path d="M85.1238801,282.775676 L101.859253,282.775676 C101.859253,282.775676 100.692042,288.908823 101.859253,291.467544 C103.026463,294.026265 103.297691,298.878101 103.297691,298.878101 C103.297691,298.878101 97.9432322,301.898693 93.8575595,301.898693 C89.7718869,301.898693 84.3830005,298.878101 84.3830005,298.878101 C84.3830005,298.878101 82.8308537,293.045606 84.3830005,289.710817 C85.9351473,286.376028 85.1238801,282.775676 85.1238801,282.775676 Z" id="Rectangle-51" fill="#D8D8D8"></path>
                        <path d="M75.5310802,177.000472 C74.633585,187.369059 73.0709174,197.669153 72.8385948,208.106232 C72.6039439,218.64791 82.9160884,223.024575 83.383441,235.907332 C83.9307018,250.992789 81.299764,266.327273 83.1341048,281.218834 C83.4999219,284.188614 86.7055293,284.753903 88.8636236,285.24594 C92.6426803,286.10755 99.3031005,290.102858 100.797155,285.24594 C105.382235,270.340622 101.693148,252.77337 103.887886,236.870595 C106.217358,219.991552 102.385529,219.680141 107.611464,204.123605 C108.327616,201.991768 114.928237,188.729291 112.557586,185.617626 C110.186935,182.505961 101.482035,184.764987 95.1696963,183.324164 C88.4030365,181.77964 84.435617,183.249759 77.8564871,180.579328 L75.5310802,177.000472 Z" id="Path-56" stroke="#00A2F2" fill="#82BAD5" transform="translate(92.951814, 232.304789) rotate(-2.000000) translate(-92.951814, -232.304789) "></path>
                        <path d="M78.6236901,203.268949 C78.6149135,203.958359 80.0065979,221.914085 74.6878828,213.052275" id="Path-58" stroke="#00A2F2" transform="translate(76.734765, 209.386654) rotate(-2.000000) translate(-76.734765, -209.386654) "></path>
                        <path d="M73.0154193,177.85522 C73.13071,173.50841 74.8506655,163.537673 74.9564522,153.615043 C75.062239,143.692412 75.4901492,127.989634 74.9564522,126.250471 C74.8798812,126.000949 75.1645995,100.055805 77.1250562,96.1304437 C82.9078173,84.5518025 99.3015845,89.6416592 104.644316,93.4196698 C104.644316,93.4196698 105.554914,128.568911 104.644316,139.271058 C104.586322,139.952655 113.151624,179.088326 113.151624,181.475354 C113.151624,187.13467 94.1752109,188.891007 83.3242339,184.643115 L73.0154193,177.85522 Z" id="Path-59" stroke="#00A2F2" fill="#FFFFFF"></path>
                        <path d="M89.346596,95.8821254 C89.3193808,95.4444784 89.2070572,90.1936341 87.2449,90.4740445 C85.9986484,90.6521453 75.4595533,88.5803993 66.7491875,79.2396976 C58.0388217,69.8989959 56.7445399,60.5162972 55.987836,58.0761853 C54.2143186,52.357197 60.9568793,21.9076968 60.9568793,21.9076968 C60.9568793,21.9076968 71.4863586,15.8144243 75.429421,15.8144243 C82.0183394,15.8144243 90.1901261,13.8289953 92.8511903,13.6963811 C95.5122546,13.563767 96.9584057,19.8303357 100.530644,22.6558443 C104.300502,25.6376625 113.906404,26.056129 114.259216,29.878018 C114.385189,31.2426393 121.890252,36.5265312 129.405366,43.6084568 C130.879547,44.9976628 131.182658,49.6098782 133.572149,51.9183074 C135.96164,54.2267366 160.152027,73.5067087 160.191531,73.6282347 C160.225238,73.7319301 164.050935,75.5470421 166.607973,74.899113 C169.165011,74.2511838 171.980005,70.7343482 171.980005,70.7343482 C171.980005,70.7343482 177.778211,59.518218 178.30071,48.7461525 C178.456703,45.5301195 178.784657,38.544451 180.025203,35.5846546 C181.265749,32.6248582 188.530277,39.0659073 188.530277,39.0659073 C188.530277,39.0659073 190.126818,46.8196176 186.71639,57.3674484 C183.305963,67.9152792 179.528101,81.3240174 166.532332,84.7903107 C153.536562,88.256604 128.602077,66.7171332 124.627204,63.5902637 C124.207276,63.2599235 115.682428,72.047384 109.701739,80.6061399 C103.721051,89.1648958 103.790054,92.8304418 102.097799,93.8609191 L89.346596,95.8821254 Z" id="Path-66" fill="#D8D8D8" transform="translate(122.297091, 54.788217) rotate(9.000000) translate(-122.297091, -54.788217) "></path>
                        <ellipse id="Oval-23" stroke="#263345" fill="#263345" transform="translate(105.286599, 35.661252) rotate(-15.000000) translate(-105.286599, -35.661252) " cx="105.286599" cy="35.6612518" rx="1.11569151" ry="1.11885222"></ellipse>
                        <ellipse id="Oval-23" stroke="#263345" fill="#263345" transform="translate(113.253450, 32.846566) rotate(-15.000000) translate(-113.253450, -32.846566) " cx="113.25345" cy="32.8465656" rx="1.11569151" ry="1.11885222"></ellipse>
                        <g id="Group-42" transform="translate(43.495801, 54.045217) rotate(-95.000000) translate(-43.495801, -54.045217) translate(-3.504199, 14.545217)">
                            <path d="M76.4485328,12.0987809 C63.686679,36.7410554 79.1185447,49.4733502 67.6421591,69.225966 C50.7084805,98.3714184 -5.75453492,61.8689379 27.7238133,36.2516265 C40.8283871,26.2241322 56.972298,8.24883189 70.7169231,-0.873225168" id="Path-67" stroke="#263345" fill="#D8D8D8" transform="translate(46.878582, 39.559242) rotate(-255.000000) translate(-46.878582, -39.559242) "></path>
                            <path d="M54.4725087,19.9976849 C54.3381704,30.2453596 56.8659732,78.6852081 27.290516,61.6564683" id="Path-69" stroke="#3C3C3C" transform="translate(40.884800, 42.624491) rotate(-255.000000) translate(-40.884800, -42.624491) "></path>
                        </g>
                        <path d="M61.6683417,12.5086963 C73.3766411,10.1720544 67.333804,9.54150181 79.4494207,16.524329" id="Path-80" stroke="#263345" transform="translate(70.558881, 13.712957) rotate(-47.000000) translate(-70.558881, -13.712957) "></path>
                        <path d="M83.4441902,296.070612 C83.5525369,298.870094 81.6194647,303.760283 83.7692302,304.469056 C88.8249385,306.135912 94.282048,305.757029 99.555755,305.549913 C104.829462,305.342796 115.402012,304.591144 119.524498,304.469056 C122.871104,304.369947 131.672432,301.840003 130.176861,299.685216 C128.68129,297.53043 113.739786,297.615977 111.121814,297.449848 C104.709593,297.042947 102.58315,299.224662 96.6177271,298.909139 C90.6523043,298.593616 89.8250378,296.065895 85.8400362,295.906199" id="Path-85" fill="#FFFFFF"></path>
                        <path d="M116.435314,298.745084 C115.443317,292.861701 112.441367,298.763073 117.99413,294.813831" id="Path-86" stroke="#263345"></path>
                        <path d="M121.780547,288.452352 C120.788551,282.568968 117.786601,288.470341 123.339364,284.521098" id="Path-86" stroke="#263345"></path>
                        <g id="Group-43" transform="translate(97.499163, 67.075286) rotate(20.000000) translate(-97.499163, -67.075286) translate(82.999163, 62.575286)">
                            <path d="M1.38078589,-1.13136699 C4.45159443,1.18528685 3.97053137,-0.306458325 2.25828341,3.48901987" id="Path-74" stroke="#3C3C3C" transform="translate(2.498534, 1.178826) rotate(-270.000000) translate(-2.498534, -1.178826) "></path>
                            <path d="M28.0739346,4.45547473 C18.9088276,7.36642151 8.61772113,11.9113864 2.87150313,1.79309193" id="Path-125" stroke="#263345" stroke-width="2"></path>
                        </g>
                        <path d="M99.1676795,33.7719827 C102.876673,29.0842222 100.591435,29.6118833 105.738009,31.2533367" id="Path-126" stroke="#263345"></path>
                        <path d="M108.118425,29.2930332 C111.827419,24.6052726 109.54218,25.1329338 114.688754,26.7743872" id="Path-126" stroke="#263345"></path>
                        <path d="M100.788105,10.515917 C104.589171,17.4916143 100.235921,19.0345503 109.001413,22.1316886" id="Path-128" stroke="#263345"></path>
                        <path d="M128.699857,42.8245443 C129.814593,44.2857067 130.894693,45.7739998 132.044067,47.2080316 L133.164997,53.0333129 C140.918233,62.7067389 149.06691,72.2213158 158.519066,80.2399097 C160.42739,81.8588076 164.012955,82.4111574 165.996318,80.8852693 C170.895882,77.1158203 173.362871,70.952567 177.046147,65.9862158" id="Path-129" stroke="#263345"></path>
                        <path d="M123.147271,63.6130172 C122.960212,57.349926 121.977483,59.7200053 124.491814,56.0334063" id="Path-130" stroke="#263345"></path>
                        <path d="M129.127531,43.2141996 C117.041075,34.2147676 122.183209,30.0197005 111.760595,21.3466301" id="Path-131" stroke="#263345"></path>
                        <path d="M67.6041899,75.2458394 C74.5067594,81.3513959 79.7378142,78.5276424 83.9441491,87.4709895" id="Path-132" stroke="#263345"></path>
                        <path d="M96.914465,89.6457274 C100.837122,78.8169945 114.332086,71.4433198 122.923189,63.4233926" id="Path-133" stroke="#263345"></path>
                        <path d="M124.324956,63.0214134 C133.683422,77.1742622 127.543052,71.1128869 143.436583,80.4771842" id="Path-134" stroke="#263345"></path>
                        <path d="M191.377503,54.2543064 C179.999264,80.9224483 187.172879,69.9023424 171.664017,88.4248942 L158.091278,91.1795276 L141.178506,79.8223407" id="Path-135" stroke="#263345" transform="translate(166.278004, 72.716917) rotate(-6.000000) translate(-166.278004, -72.716917) "></path>
                        <path d="M83.4237571,89.5005092 C87.28756,89.6993594 91.1513629,89.8982096 95.0151658,90.0970598" id="Path-138" stroke="#00A2F2"></path>
                        <g id="Group-3" transform="translate(78.492619, 185.808803) rotate(128.000000) translate(-78.492619, -185.808803) translate(69.492619, 176.808803)">
                            <polygon id="Rectangle-54" fill="#D8D8D8" transform="translate(9.405417, 9.140537) rotate(-120.000000) translate(-9.405417, -9.140537) " points="5.69969011 2.29083019 14.6504355 2.29083019 14.6504355 15.9902446 4.16039919 12.30929"></polygon>
                            <path d="M11.4850818,0.713220993 C16.8968666,9.37797429 16.7872164,5.20425943 13.8634021,13.0841105" id="Path-119" stroke="#666666"></path>
                        </g>
                    </g>
                </g>
            </g>
            <path d="M459.634164,280.470561 C450.524997,299.047832 454.448004,300.467212 454.415668,324.435058 C454.400276,335.843506 452.840802,347.237263 453.218191,358.639477 C453.286324,360.698018 455.31937,366.300274 455.734547,364.282885 L467.15932,367.400738 C471.990143,343.927246 494.229866,288.860554 461.970255,280.312369" id="Path-188" stroke="#00A2F2" fill="#FFFFFF"></path>
            <g id="Group-10" transform="translate(36.000000, 148.000000)">
                <g id="Group-9" transform="translate(60.526867, 177.458204) rotate(40.000000) translate(-60.526867, -177.458204) translate(21.026867, 130.458204)">
                    <path d="M63.748144,8.45122401 C63.748144,6.403642 59.9313269,6.49887341 59.1486526,8.45122401 C57.4163318,12.7724308 50.3266038,30.5260476 40.9256075,45.6873032 C31.5246113,60.8485589 18.4964139,75.5366088 16.15867,81.0601103 C11.6308473,91.7582182 19.3647363,85.4808422 19.3647363,85.4808422 C19.3647363,85.4808422 32.1662411,68.5070821 47.6607631,43.4556378 C63.1552852,18.4041935 63.748144,17.4755775 63.748144,8.45122401 Z" id="Path-116" stroke="#FF939F" fill="#FF939F" transform="translate(39.242485, 47.130920) scale(-1, 1) rotate(-25.000000) translate(-39.242485, -47.130920) "></path>
                    <path d="M44.3015963,91.9809225 C35.5883868,83.0893249 34.6508592,85.5443119 47.013464,84.5781735" id="Path-108" stroke="#263345" transform="translate(42.376754, 88.279548) scale(-1, 1) rotate(-110.000000) translate(-42.376754, -88.279548) "></path>
                </g>
                <g id="Group-36" transform="translate(91.950754, 81.521772) rotate(-25.000000) translate(-91.950754, -81.521772) translate(34.450754, 18.521772)">
                    <path d="M54.7184347,19.3519192 C56.3219644,21.1960642 70.2335186,23.7608582 79.3655249,41.434454 C88.4975313,59.1080498 91.3545301,37.957456 89.8112168,43.9860406 C87.9756479,51.1562517 75.6953602,44.6616803 73.0320456,42.7558879 C65.9373228,37.6791056 60.8277619,42.1956256 53.9972881,43.1450104 C52.4069252,43.366059 44.717366,40.9695747 40.8869136,43.0480965 C37.0564612,45.1266184 33.0034968,63.8734483 31.5386129,69.7580985 C28.5087157,81.929634 28.5762776,107.956788 26.1428821,113.72942 C23.7094866,119.502053 22.231208,113.726529 18.9451028,113.602287 C12.8792588,113.372948 13.6263769,77.7255482 19.640339,49.3345914 C20.5243406,45.1613606 18.3694652,38.8124512 17.8777468,33.8801307 C17.3860284,28.9478103 14.7467547,23.2893704 16.7309205,17.5000207 C18.7150862,11.710671 23.6419018,10.0082184 26.325962,9.23013772 C30.1010026,8.13579341 52.4283427,16.7181909 54.7184347,19.3519192 Z" id="Path-90" fill="#FF939F" transform="translate(52.477143, 62.711996) rotate(18.000000) translate(-52.477143, -62.711996) "></path>
                    <g id="Group-38" transform="translate(84.853811, 53.515594) rotate(-42.000000) translate(-84.853811, -53.515594) translate(71.853811, 23.515594)">
                        <path d="M0.899564802,6.90433479 C9.02507267,18.0840616 11.0871554,28.0386631 9.18844319,42.2858922 C8.40973833,48.1290032 4.88948506,59.439263 4.88948506,59.439263 C4.88948506,59.439263 14.6167014,52.8688948 18.9673667,48.9566475 C28.4938695,40.3901333 31.3685375,-8.57672253 2.60214523,7.39288743 L0.899564802,6.90433479 Z" id="Path-109" fill="#263345"></path>
                        <path d="M24.7186345,16.902819 C24.2751994,3.28523056 19.0305297,-1.72730007 2.60214523,7.39288743 L0.899564802,6.90433479 C5.18230837,12.7968776 7.78059028,18.3490721 9.00228775,24.3688542 C9.00228775,24.3688542 11.7493105,18.2976386 14.6854697,16.902819 C17.6216289,15.5079995 24.7186345,16.902819 24.7186345,16.902819 Z" id="Path-109" fill="#FF939F"></path>
                        <path d="M23.719231,10.9672571 C23.0043638,-0.892401314 16.4825681,0.163103739 0.0541836822,5.45216842 C0.0541836822,5.45216842 5.51062415,12.9987961 6.73232161,16.4898446 C6.73232161,16.4898446 9.20134891,11.776154 12.1375081,10.9672571 C15.0736673,10.1583603 23.719231,10.9672571 23.719231,10.9672571 Z" id="Path-109" fill="#FFC7CE"></path>
                        <path d="M18.5103471,20.0658438 C10.5565287,5.0755564 15.8922425,10.5471021 3.82567226,2.45680136" id="Path-110" stroke="#263345" stroke-width="3" transform="translate(11.168010, 11.261323) rotate(-158.000000) translate(-11.168010, -11.261323) "></path>
                    </g>
                    <ellipse id="Oval-27" fill="#263345" cx="53.6965556" cy="21.5709091" rx="2.54796155" ry="2.54950505"></ellipse>
                    <ellipse id="Oval-27" fill="#263345" cx="61.3404402" cy="20.2961566" rx="2.54796155" ry="2.54950505"></ellipse>
                </g>
                <path d="M65.4447625,164.150945 C66.7848481,172.286662 69.4782275,180.312629 69.4650191,188.558096 C69.4540825,195.385391 63.3759951,212.725008 61.736894,214.9451 C61.4112474,215.386174 68.8127609,214.9451 69.4650191,214.100223 C70.1172773,213.255347 74.4760888,192.621204 74.9851861,191.101269 C77.6105354,183.263158 73.8852235,165.739698 73.0236874,161.78176" id="Path-112" fill="#FF939F"></path>
                <g id="Group-35" transform="translate(35.866553, 110.961356)" stroke="#00A2F2">
                    <g id="Group-39" transform="translate(0.000000, 0.000000)">
                        <path d="M23.330365,108.667152 C28.7562206,112.146259 34.8043196,106.92311 40.1142771,105.318969 C46.1443472,103.49728 43.5488262,60.7596551 43.2285211,54.3019611 C42.9709926,49.1099109 48.9013205,46.1961216 48.8589476,41.0101773 C48.8165747,35.8242329 44.9696891,25.8210132 45.5166582,26.9467609 C47.2225372,30.4577264 47.4927847,36.8094379 49.4519066,35.3583721 C50.6337176,34.4830384 53.5599934,37.8369394 55.7206289,31.6116019 C57.8812644,25.3862643 48.7514986,10.4476362 47.9108592,9.65068208 C40.382878,2.51390507 40.6272102,4.15835917 38.7609928,4.34241153 C36.8947754,4.52646389 37.3534564,10.957449 25.5445284,8.95382778 C23.6534496,8.63296839 22.654943,4.43691585 20.3287537,2.88061793 C19.2492088,2.15836654 14.1440671,2.24582023 12.0293002,5.8707598 C9.91453322,9.49569937 10.2147333,17.9432507 10.7326659,18.2423706 C11.1494229,18.483059 9.21933705,65.6292043 7.39565892,85.1918328 C6.86515195,90.8825908 4.61053179,102.410283 6.36637307,105.67165 C8.12221435,108.933017 22.5229491,108.149429 23.330365,108.667152 Z" id="Path-89" fill="#FFFFFF" transform="translate(30.879401, 56.180765) rotate(-366.000000) translate(-30.879401, -56.180765) "></path>
                        <path d="M22.8493363,46.7759408 C35.5202751,52.5485293 30.1392521,48.8302677 39.3915765,57.1607583" id="Path-113"></path>
                    </g>
                </g>
                <path d="M61.7264615,34.2362202 C62.5968688,35.0505949 64.1641986,34.4982118 65.0346058,35.3125865 C65.905013,36.1269613 65.7584583,38.0086573 66.4688459,38.6733136" id="Path-114" stroke="#263345" transform="translate(64.097654, 36.454767) scale(-1, 1) translate(-64.097654, -36.454767) "></path>
                <path d="M68.706133,29.56992 C69.5765402,30.3842947 71.14387,29.8319115 72.0142772,30.6462863 C72.8846844,31.4606611 72.7381297,33.342357 73.4485173,34.0070134" id="Path-114" stroke="#263345" transform="translate(71.077325, 31.788467) scale(-1, 1) translate(-71.077325, -31.788467) "></path>
                <path d="M82.6654758,52.1237044 C90.8256201,54.5896655 90.1277104,51.9542502 87.7481115,58.529425" id="Path-115" stroke="#3C3C3C" stroke-width="2" transform="translate(86.002381, 55.326565) scale(-1, 1) translate(-86.002381, -55.326565) "></path>
                <g id="Group-6" transform="translate(97.355161, 311.283340) rotate(23.000000) translate(-97.355161, -311.283340) translate(78.855161, 297.283340)">
                    <path d="M3.4672309,0.291064416 C7.6892241,40.1635323 10.6314138,21.3269425 10.9565185,0.98190013" id="Path-106" fill="#FF939F" transform="translate(7.211875, 11.999792) scale(-1, 1) translate(-7.211875, -11.999792) "></path>
                    <path d="M30.8417657,21.8664703 C24.4766557,20.3359181 16.5040333,15.3761432 10.039861,14.320116 C8.50434102,14.069264 7.03642055,15.4672255 6.19015954,15.4299196 C5.34389854,15.3926137 4.00385061,14.5054521 2.96815527,14.320116 C2.96815527,14.320116 -1.20820004,22.4464618 1.01917112,25.0168081 C3.24654228,27.5871544 14.0394035,26.7514206 16.1804483,27.1696263 C18.2298615,27.5699338 31.3057273,27.9399615 34.6904672,27.1696263 C38.0752071,26.3992912 35.4317553,22.9701776 30.8417657,21.8664703 Z" id="Path-173" stroke="#00A2F2" fill="#F3F3F3"></path>
                </g>
                <g id="Group-7" transform="translate(39.994862, 327.031516) rotate(6.000000) translate(-39.994862, -327.031516) translate(21.494862, 315.031516)">
                    <path d="M2.56999362,0.338339209 C6.79198682,24.8578244 9.73417652,13.2743055 10.0592812,0.76316709" id="Path-106" fill="#FF939F" transform="translate(6.314637, 7.538595) scale(-1, 1) translate(-6.314637, -7.538595) "></path>
                    <path d="M30.7200474,18.0251616 C24.3549374,16.4946094 16.3823151,11.5348345 9.91814278,10.4788073 C8.38262279,10.2279553 6.91470231,11.6259168 6.0684413,11.5886109 C5.2221803,11.551305 3.88213237,10.6641434 2.84643704,10.4788073 C2.84643704,10.4788073 -1.32991828,18.6051531 0.897452882,21.1754994 C3.12482404,23.7458457 13.9176852,22.9101119 16.0587301,23.3283176 C18.1081433,23.7286251 31.184009,24.0986528 34.5687489,23.3283176 C37.9534889,22.5579824 35.3100371,19.1288689 30.7200474,18.0251616 Z" id="Path-173" stroke="#00A2F2" fill="#F3F3F3"></path>
                </g>
                <path d="M52.1908382,212.333345 C52.0207832,220.822412 19.7144569,234.472122 18.1187469,248.501615 C16.5230368,262.531108 36.8075081,302.342318 40.9561841,302.518311 C40.9561841,302.518311 48.2185218,302.420339 49.1120859,298.746501 C51.5233061,288.832907 39.2494714,287.311404 39.5101993,273.794951 C39.7709272,260.278499 36.9525578,258.982868 37.0990082,254.310469 C37.2240444,250.321273 55.8890468,243.18681 59.3779169,238.609055 C60.7175884,236.851269 92.4347363,298.001008 95.618778,319.090334 C95.8231741,320.444141 114.140839,319.181294 115.507333,319.090334 C121.79212,318.671991 82.6488006,259.143358 88.833794,246.617894 C92.6328053,238.924373 90.6002913,228.790177 88.833794,220.002113 C87.0672967,211.21405 85.6046443,215.497565 85.2329622,212.333345 L52.1908382,212.333345 Z" id="Path-105" stroke="#00A2F2" fill="#263345" transform="translate(67.111318, 266.023050) scale(-1, 1) translate(-67.111318, -266.023050) "></path>
                <g id="Group-8" transform="translate(67.866474, 176.960088) rotate(-33.000000) translate(-67.866474, -176.960088) translate(50.366474, 123.960088)">
                    <path d="M14.6696975,6.25616932 C17.2453293,9.80585949 17.1175317,20.3499894 17.1175317,20.3499894 C17.1175317,20.3499894 26.4926177,34.2481511 26.3588787,49.7757141 C26.2251397,65.3032771 -1.54498604,101.813118 0.342413779,103.256287 C7.04358263,108.380224 33.6237447,55.4768264 33.6237447,49.77475 C33.6237447,41.8444358 26.590215,21.5285229 26.3588787,16.2467318 C26.1275424,10.9649408 24.6230869,17.1747135 26.3588787,11.5260627 C28.3317632,5.10586014 19.5876077,1.10918349 18.5887661,0.154801775" id="Path-116" stroke="#FF939F" fill="#FF939F" transform="translate(16.937068, 51.880039) scale(-1, 1) translate(-16.937068, -51.880039) "></path>
                    <path d="M27.3972927,92.9933025 C25.6794885,99.7571482 24.8837309,114.109277 31.495725,98.630546" id="Path-176" stroke="#263345" transform="translate(28.844305, 99.273779) scale(-1, 1) rotate(35.000000) translate(-28.844305, -99.273779) "></path>
                </g>
                <path d="M55.8757261,118.732944 C54.5299655,119.927905 49.4105355,116.382621 45.5104587,117.403093 C41.6103819,118.423566 33.4413406,125.387661 31.5969606,128.891683 C28.6068418,134.572422 27.7477609,149.770543 31.5969606,150.256148 L33.1906397,155.588638 C53.007787,158.088718 52.6166536,147.473783 48.8040036,135.430951" id="Path-172" stroke="#00A2F2" fill="#FFFFFF" transform="translate(42.448952, 136.586515) rotate(-23.000000) translate(-42.448952, -136.586515) "></path>
            </g>
            <path d="M66.9085961,252.320915 C67.6764821,228.336624 73.0596064,205.512506 51.2026769,189.175198 C48.9712556,187.507287 47.5888608,191.028124 47.2012396,192.084661 C45.8049801,195.890438 41.5958617,200.186339 43.6106806,203.704006 C45.3666831,206.769806 52.1274079,207.158504 54.1935755,204.292562 C58.5613032,198.234169 57.3769576,189.698359 58.9686487,182.401257" id="Path-189" stroke="#00A2F2" stroke-width="2"></path>
        </g>
    </g>
</svg>