<?xml version="1.0" encoding="UTF-8"?>
<svg width="343px" height="304px" viewBox="0 0 343 304" version="1.1" xmlns="http://www.w3.org/2000/svg" xmlns:xlink="http://www.w3.org/1999/xlink">
    <!-- Generator: Sketch 44.1 (41455) - http://www.bohemiancoding.com/sketch -->
    <title>Group 5</title>
    <desc>Created with Sketch.</desc>
    <defs></defs>
    <g id="SITE-ASSETS" stroke="none" stroke-width="1" fill="none" fill-rule="evenodd">
        <g id="Group-5" transform="translate(-11.000000, -24.000000)">
            <g id="Group">
                <g id="Group-69">
                    <g id="Group-19">
                        <path d="M247.9596,306.199706 C241.064467,306.270515 233.961314,305.496985 227.274199,306.412131 C218.377619,307.629648 212.766357,315.224183 214.721172,319.585758 C217.621154,326.056186 241.337434,327.581035 250.357319,326.94302 C264.002445,325.977842 277.299129,323.805668 290.951461,322.870994 C301.088044,322.177017 311.462162,322.889157 321.566397,322.067864 C326.006359,321.706974 329.419757,317.146505 327.409425,315.095417 C323.714827,311.325916 313.821625,309.605137 307.137942,309.113199 C299.731669,308.568076 247.9596,306.199706 247.9596,306.199706 Z" id="Path-87" fill="#E7EBEE"></path>
                        <g id="Group-42" transform="translate(88.410638, 69.340432) rotate(-134.000000) translate(-88.410638, -69.340432) translate(46.910638, 35.840432)">
                            <path d="M65.653383,8.74049123 C55.0485926,30.6201658 67.8720979,41.9250664 58.3355004,59.4632529 C44.264025,85.3412623 -2.65536873,52.9310076 25.1643251,30.1856058 C36.0539074,21.2822754 49.4691052,5.32215289 60.8905545,-2.77724716" id="Path-67" stroke="#263345" fill="#D8D8D8" transform="translate(41.081472, 33.122410) rotate(-255.000000) translate(-41.081472, -33.122410) "></path>
                            <path d="M39.8224162,16.2758922 C39.7107843,25.3747191 41.8113269,68.3840654 17.2348407,53.2643863" id="Path-69" stroke="#3C3C3C" transform="translate(28.531361, 36.366049) rotate(-255.000000) translate(-28.531361, -36.366049) "></path>
                        </g>
                        <path d="M89.246114,299.837927 C80.1120079,299.931728 70.7023362,298.907019 61.8437955,300.11933 C50.0583385,301.732196 42.625,311.792811 45.214578,317.570666 C49.056236,326.142157 80.4736128,328.162152 92.4224142,327.316962 C110.498354,326.038374 128.112708,323.160856 146.198193,321.922677 C159.626304,321.003354 173.369083,321.946738 186.754342,320.858756 C192.636039,320.380679 197.157827,314.339345 194.494705,311.622233 C189.600405,306.628708 176.494706,304.349161 167.640712,303.697482 C157.82949,302.975348 89.246114,299.837927 89.246114,299.837927 Z" id="Path-87" fill="#E7EBEE"></path>
                        <path d="M95.429981,287.587154 L109.601582,287.587154 C109.601582,287.587154 108.613183,293.720301 109.601582,296.279022 C110.589982,298.837743 113.050697,302.894699 113.050697,302.894699 L90.7269883,302.894699 C90.7269883,302.894699 93.4882343,297.857084 94.8026004,294.522295 C96.1169664,291.187506 95.429981,287.587154 95.429981,287.587154 Z" id="Rectangle-51" fill="#D8D8D8"></path>
                        <path d="M91.0208071,301.77788 C91.1291538,304.577361 89.350053,307.066606 91.4998185,307.775379 C96.7328745,309.500705 102.014856,308.450416 107.475574,308.208751 C112.936291,307.967087 115.777753,308.325412 119.716984,308.208751 C122.24191,308.133976 128.853896,308.682828 130.326767,307.030375 C131.799638,305.377923 128.067576,303.082624 124.622935,302.864036 C114.228737,302.20445 103.818747,302.030323 93.4166531,301.613467" id="Path-85" fill="#FFFFFF"></path>
                        <path d="M90.9513275,215.939658 C104.03491,217.256619 110.550516,200.453621 113.091977,203.338887 C115.633438,206.224153 111.204016,236.239159 108.813921,266.14336 C108.216227,273.621544 111.142744,290.937019 107.709795,290.937019 C83.0430336,293.890917 102.682846,230.975476 92.4297698,216.296308" id="Path-63" fill="#263345" transform="translate(102.402819, 247.021376) rotate(-2.000000) translate(-102.402819, -247.021376) "></path>
                        <path d="M85.1238801,298.775676 L101.859253,298.775676 C101.859253,298.775676 100.692042,304.908823 101.859253,307.467544 C103.026463,310.026265 103.297691,314.878101 103.297691,314.878101 C103.297691,314.878101 97.9432322,317.898693 93.8575595,317.898693 C89.7718869,317.898693 84.3830005,314.878101 84.3830005,314.878101 C84.3830005,314.878101 82.8308537,309.045606 84.3830005,305.710817 C85.9351473,302.376028 85.1238801,298.775676 85.1238801,298.775676 Z" id="Rectangle-51" fill="#D8D8D8"></path>
                        <path d="M75.5310802,193.000472 C74.633585,203.369059 73.0709174,213.669153 72.8385948,224.106232 C72.6039439,234.64791 82.9160884,239.024575 83.383441,251.907332 C83.9307018,266.992789 81.299764,282.327273 83.1341048,297.218834 C83.4999219,300.188614 86.7055293,300.753903 88.8636236,301.24594 C92.6426803,302.10755 99.3031005,306.102858 100.797155,301.24594 C105.382235,286.340622 101.693148,268.77337 103.887886,252.870595 C106.217358,235.991552 102.385529,235.680141 107.611464,220.123605 C108.327616,217.991768 114.928237,204.729291 112.557586,201.617626 C110.186935,198.505961 101.482035,200.764987 95.1696963,199.324164 C88.4030365,197.77964 84.435617,199.249759 77.8564871,196.579328 L75.5310802,193.000472 Z" id="Path-56" stroke="#00A2F2" fill="#263345" transform="translate(92.951814, 248.304789) rotate(-2.000000) translate(-92.951814, -248.304789) "></path>
                        <path d="M100.465563,290.33701 C103.949311,290.091875 107.301637,293.496451 108.529753,288.891285 C111.861972,276.396187 106.144861,261.594235 108.954008,248.845931 C112.303404,233.645904 112.137324,198.261423 113.253545,193.302647" id="Path-57" stroke="#00A2F2" transform="translate(106.859554, 242.311278) rotate(-2.000000) translate(-106.859554, -242.311278) "></path>
                        <path d="M78.6236901,219.268949 C78.6149135,219.958359 80.0065979,237.914085 74.6878828,229.052275" id="Path-58" stroke="#00A2F2" transform="translate(76.734765, 225.386654) rotate(-2.000000) translate(-76.734765, -225.386654) "></path>
                        <path d="M73.0154193,193.85522 C73.13071,189.50841 74.8506655,179.537673 74.9564522,169.615043 C75.062239,159.692412 75.4901492,143.989634 74.9564522,142.250471 C74.8798812,142.000949 75.1645995,116.055805 77.1250562,112.130444 C82.9078173,100.551802 99.3015845,105.641659 104.644316,109.41967 C104.644316,109.41967 105.554914,144.568911 104.644316,155.271058 C104.586322,155.952655 113.151624,195.088326 113.151624,197.475354 C113.151624,203.13467 94.1752109,204.891007 83.3242339,200.643115 L73.0154193,193.85522 Z" id="Path-59" stroke="#00A2F2" fill="#FFFFFF"></path>
                        <path d="M89.346596,111.882125 C89.3193808,111.444478 89.2070572,106.193634 87.2449,106.474044 C85.9986484,106.652145 75.4595533,104.580399 66.7491875,95.2396976 C58.0388217,85.8989959 56.7445399,76.5162972 55.987836,74.0761853 C54.2143186,68.357197 60.9568793,37.9076968 60.9568793,37.9076968 C60.9568793,37.9076968 71.4863586,31.8144243 75.429421,31.8144243 C82.0183394,31.8144243 90.1901261,29.8289953 92.8511903,29.6963811 C95.5122546,29.563767 96.9584057,35.8303357 100.530644,38.6558443 C104.300502,41.6376625 113.906404,42.056129 114.259216,45.878018 C114.385189,47.2426393 121.890252,52.5265312 129.405366,59.6084568 C130.879547,60.9976628 131.182658,65.6098782 133.572149,67.9183074 C135.96164,70.2267366 160.152027,89.5067087 160.191531,89.6282347 C160.225238,89.7319301 164.050935,91.5470421 166.607973,90.899113 C169.165011,90.2511838 171.980005,86.7343482 171.980005,86.7343482 C171.980005,86.7343482 177.778211,75.518218 178.30071,64.7461525 C178.456703,61.5301195 178.784657,54.544451 180.025203,51.5846546 C181.265749,48.6248582 188.530277,55.0659073 188.530277,55.0659073 C188.530277,55.0659073 190.126818,62.8196176 186.71639,73.3674484 C183.305963,83.9152792 179.528101,97.3240174 166.532332,100.790311 C153.536562,104.256604 128.602077,82.7171332 124.627204,79.5902637 C124.207276,79.2599235 115.682428,88.047384 109.701739,96.6061399 C103.721051,105.164896 103.790054,108.830442 102.097799,109.860919 L89.346596,111.882125 Z" id="Path-66" fill="#D8D8D8" transform="translate(122.297091, 70.788217) rotate(9.000000) translate(-122.297091, -70.788217) "></path>
                        <ellipse id="Oval-23" stroke="#263345" fill="#263345" transform="translate(105.286599, 51.661252) rotate(-15.000000) translate(-105.286599, -51.661252) " cx="105.286599" cy="51.6612518" rx="1.11569151" ry="1.11885222"></ellipse>
                        <ellipse id="Oval-23" stroke="#263345" fill="#263345" transform="translate(113.253450, 48.846566) rotate(-15.000000) translate(-113.253450, -48.846566) " cx="113.25345" cy="48.8465656" rx="1.11569151" ry="1.11885222"></ellipse>
                        <g id="Group-42" transform="translate(43.495801, 70.045217) rotate(-95.000000) translate(-43.495801, -70.045217) translate(-3.504199, 30.545217)">
                            <path d="M76.4485328,12.0987809 C63.686679,36.7410554 79.1185447,49.4733502 67.6421591,69.225966 C50.7084805,98.3714184 -5.75453492,61.8689379 27.7238133,36.2516265 C40.8283871,26.2241322 56.972298,8.24883189 70.7169231,-0.873225168" id="Path-67" stroke="#263345" fill="#D8D8D8" transform="translate(46.878582, 39.559242) rotate(-255.000000) translate(-46.878582, -39.559242) "></path>
                            <path d="M54.4725087,19.9976849 C54.3381704,30.2453596 56.8659732,78.6852081 27.290516,61.6564683" id="Path-69" stroke="#3C3C3C" transform="translate(40.884800, 42.624491) rotate(-255.000000) translate(-40.884800, -42.624491) "></path>
                        </g>
                        <path d="M61.6683417,28.5086963 C73.3766411,26.1720544 67.333804,25.5415018 79.4494207,32.524329" id="Path-80" stroke="#263345" transform="translate(70.558881, 29.712957) rotate(-47.000000) translate(-70.558881, -29.712957) "></path>
                        <path d="M83.4441902,312.070612 C83.5525369,314.870094 81.6194647,319.760283 83.7692302,320.469056 C88.8249385,322.135912 94.282048,321.757029 99.555755,321.549913 C104.829462,321.342796 115.402012,320.591144 119.524498,320.469056 C122.871104,320.369947 131.672432,317.840003 130.176861,315.685216 C128.68129,313.53043 113.739786,313.615977 111.121814,313.449848 C104.709593,313.042947 102.58315,315.224662 96.6177271,314.909139 C90.6523043,314.593616 89.8250378,312.065895 85.8400362,311.906199" id="Path-85" fill="#FFFFFF"></path>
                        <path d="M116.435314,314.745084 C115.443317,308.861701 112.441367,314.763073 117.99413,310.813831" id="Path-86" stroke="#263345"></path>
                        <path d="M121.780547,304.452352 C120.788551,298.568968 117.786601,304.470341 123.339364,300.521098" id="Path-86" stroke="#263345"></path>
                        <g id="Group-43" transform="translate(97.499163, 83.075286) rotate(20.000000) translate(-97.499163, -83.075286) translate(82.999163, 78.575286)">
                            <path d="M1.38078589,-1.13136699 C4.45159443,1.18528685 3.97053137,-0.306458325 2.25828341,3.48901987" id="Path-74" stroke="#3C3C3C" transform="translate(2.498534, 1.178826) rotate(-270.000000) translate(-2.498534, -1.178826) "></path>
                            <path d="M28.0739346,4.45547473 C18.9088276,7.36642151 8.61772113,11.9113864 2.87150313,1.79309193" id="Path-125" stroke="#263345"></path>
                        </g>
                        <path d="M99.1676795,49.7719827 C102.876673,45.0842222 100.591435,45.6118833 105.738009,47.2533367" id="Path-126" stroke="#263345"></path>
                        <path d="M108.118425,45.2930332 C111.827419,40.6052726 109.54218,41.1329338 114.688754,42.7743872" id="Path-126" stroke="#263345"></path>
                        <path d="M100.788105,26.515917 C104.589171,33.4916143 100.235921,35.0345503 109.001413,38.1316886" id="Path-128" stroke="#263345"></path>
                        <path d="M128.699857,58.8245443 C129.814593,60.2857067 130.894693,61.7739998 132.044067,63.2080316 L133.164997,69.0333129 C140.918233,78.7067389 149.06691,88.2213158 158.519066,96.2399097 C160.42739,97.8588076 164.012955,98.4111574 165.996318,96.8852693 C170.895882,93.1158203 173.362871,86.952567 177.046147,81.9862158" id="Path-129" stroke="#263345"></path>
                        <path d="M123.147271,79.6130172 C122.960212,73.349926 121.977483,75.7200053 124.491814,72.0334063" id="Path-130" stroke="#263345"></path>
                        <path d="M129.127531,59.2141996 C117.041075,50.2147676 122.183209,46.0197005 111.760595,37.3466301" id="Path-131" stroke="#263345"></path>
                        <path d="M67.6041899,91.2458394 C74.5067594,97.3513959 79.7378142,94.5276424 83.9441491,103.47099" id="Path-132" stroke="#263345"></path>
                        <polygon id="Rectangle-54" fill="#D8D8D8" transform="translate(167.557460, 136.677891) rotate(-120.000000) translate(-167.557460, -136.677891) " points="163.851733 129.828184 172.802479 129.828184 172.802479 143.527599 162.312442 139.846644"></polygon>
                        <path d="M96.914465,105.645727 C100.837122,94.8169945 114.332086,87.4433198 122.923189,79.4233926" id="Path-133" stroke="#263345"></path>
                        <path d="M124.324956,79.0214134 C133.683422,93.1742622 127.543052,87.1128869 143.436583,96.4771842" id="Path-134" stroke="#263345"></path>
                        <path d="M191.377503,70.2543064 C179.999264,96.9224483 187.172879,85.9023424 171.664017,104.424894 L158.091278,107.179528 L141.178506,95.8223407" id="Path-135" stroke="#263345" transform="translate(166.278004, 88.716917) rotate(-6.000000) translate(-166.278004, -88.716917) "></path>
                        <path d="M85.4658578,129.618428 C87.3297113,114.843165 89.0655628,114.439986 91.3442338,116.143295 C93.6229048,117.846604 96.2882559,121.063438 97.8662927,132.844384 C98.9455432,140.901607 95.3987986,147.798492 99.2256049,154.167366 C104.671929,163.231571 158.559728,128.947882 165.673534,136.764351 C167.655196,138.941751 162.005522,145.202189 165.673534,143.213626 C169.341545,141.225063 93.6199631,186.456237 85.4658578,163.340518 C82.1458443,153.928756 85.4658578,129.618428 85.4658578,129.618428 Z" id="Path-60" stroke="#00A2F2" fill="#FFFFFF"></path>
                        <path d="M83.4237571,105.500509 C87.28756,105.699359 91.1513629,105.89821 95.0151658,106.09706" id="Path-138" stroke="#00A2F2"></path>
                        <g id="Group-95" transform="translate(169.134867, 0.000000)">
                            <g id="Group-94" transform="translate(0.000000, 0.000000)">
                                <g id="Group-12">
                                    <path d="M130.312333,139.781317 C134.278267,145.237742 140.357297,153.8708 149.31373,155.187904 C174.470319,158.887349 182.805316,141.017883 182.805316,115.0216 C182.805316,113.100011 179.217217,113.189383 178.481443,115.0216 C175.114615,123.405649 183.737922,143.61902 164.768579,147.901959 C159.737579,149.037869 154.016515,150.781846 149.31373,148.66572 C142.876997,145.769365 139.10228,138.925496 133.996556,134.055384" id="Path-116" stroke="#FF939F" fill="#FF939F"></path>
                                    <path d="M7.08479977,151.498425 C10.1609793,155.730705 44.178107,152.351732 46.1874762,152.647223 C71.3440649,156.346668 79.2691081,134.834964 79.2691081,108.838681 C79.2691081,106.917093 75.6810093,107.006464 74.9452358,108.838681 C71.5784071,117.22273 74.4596311,143.199657 55.4902877,147.482597 C50.4592881,148.618507 11.0620419,146.177153 10.7902881,146.83513 C10.5185342,147.493107 7.08479977,151.498425 7.08479977,151.498425 Z" id="Path-116" stroke="#FF939F" fill="#FF939F" transform="translate(43.176954, 130.538737) rotate(36.000000) translate(-43.176954, -130.538737) "></path>
                                    <g id="Group-36" transform="translate(74.851048, 77.754258) scale(-1, 1) rotate(-25.000000) translate(-74.851048, -77.754258) translate(20.351048, 18.254258)">
                                        <path d="M51.874388,18.6982961 C53.3818281,20.4289657 66.4597487,22.8359408 75.0445303,39.4220308 C83.6293119,56.0081209 86.3151084,36.1589822 84.8642764,41.8166111 C83.1387018,48.5456192 71.5942959,42.4506769 69.0905773,40.6621532 C62.4209973,35.8977595 57.6176209,40.1363654 51.1964552,41.0273319 C49.701393,41.2347787 42.4726215,38.9857568 38.8717045,40.9363814 C35.2707875,42.887006 31.4606922,60.4802911 30.0835898,66.0028423 C27.2352555,77.4254292 27.2987689,101.851059 25.0111918,107.268486 C22.7236146,112.685913 21.3339201,107.265772 18.2447309,107.149175 C12.5423755,106.933948 13.2447234,73.4800326 18.8983059,46.8360507 C19.7293347,42.9196104 17.7035877,36.9613671 17.241335,32.3325461 C16.7790822,27.7037252 14.2979639,22.3934649 16.1632309,16.9603501 C18.0284978,11.5272352 22.6600797,9.92953928 25.1833008,9.1993361 C28.7321265,8.17232985 49.7215271,16.2266284 51.874388,18.6982961 Z" id="Path-90" fill="#FF939F" transform="translate(49.767403, 59.390307) rotate(18.000000) translate(-49.767403, -59.390307) "></path>
                                        <g id="Group-38" transform="translate(80.308006, 50.458630) rotate(-42.000000) translate(-80.308006, -50.458630) translate(67.808006, 22.458630)">
                                            <path d="M0.845659439,6.47949177 C8.4842558,16.9712988 10.4227707,26.3133658 8.63783654,39.6839231 C7.90579465,45.1674912 4.59648842,55.781799 4.59648842,55.781799 C4.59648842,55.781799 13.7408128,49.615724 17.8307695,45.9442082 C26.7864079,37.9048156 29.4888148,-8.04897282 2.44621474,6.93798241 L0.845659439,6.47949177 Z" id="Path-109" fill="#263345"></path>
                                            <path d="M23.2373994,15.8627413 C22.8205366,3.08308114 17.8901476,-1.62101447 2.44621474,6.93798241 L0.845659439,6.47949177 C4.87176464,12.00945 7.31434756,17.2200025 8.46283624,22.8693705 C8.46283624,22.8693705 11.0452468,17.1717338 13.8054602,15.8627413 C16.5656735,14.5537489 23.2373994,15.8627413 23.2373994,15.8627413 Z" id="Path-109" fill="#FF939F"></path>
                                            <path d="M22.297884,10.2924112 C21.6258544,-0.837489368 15.4948696,0.15306751 0.0509367888,5.11668126 C0.0509367888,5.11668126 5.18040648,12.1989439 6.32889516,15.4751784 C6.32889516,15.4751784 8.6499689,11.0515343 11.4101822,10.2924112 C14.1703955,9.53328801 22.297884,10.2924112 22.297884,10.2924112 Z" id="Path-109" fill="#FFC7CE"></path>
                                            <path d="M17.4011363,18.8311364 C9.92394118,4.76324323 14.9399185,9.8981094 3.59642335,2.30562751" id="Path-110" stroke="#263345" transform="translate(10.498780, 10.568382) rotate(-158.000000) translate(-10.498780, -10.568382) "></path>
                                        </g>
                                        <ellipse id="Oval-27" fill="#263345" cx="50.9137437" cy="20.7807453" rx="2.39527795" ry="2.39262688"></ellipse>
                                        <ellipse id="Oval-27" fill="#263345" cx="58.0995776" cy="19.5844319" rx="2.39527795" ry="2.39262688"></ellipse>
                                    </g>
                                    <path d="M92.6382041,155.652515 C93.8979866,163.287619 96.4299685,170.819726 96.4175516,178.557826 C96.4072703,184.965019 90.6934051,201.23768 89.1525253,203.321164 C88.8463927,203.735097 95.8043792,203.321164 96.4175516,202.528275 C97.0307239,201.735387 101.128339,182.37092 101.606929,180.944511 C104.074957,173.588701 100.57288,157.143508 99.7629709,153.429113" id="Path-112" fill="#FF939F" transform="translate(95.808369, 178.456672) scale(-1, 1) translate(-95.808369, -178.456672) "></path>
                                    <g id="Group-35" transform="translate(101.666910, 161.006670) scale(-1, 1) translate(-101.666910, -161.006670) translate(63.166910, 114.506670)" stroke="#00A2F2">
                                        <g id="Group-39">
                                            <path d="M13.6134487,84.807845 C18.7141663,87.705527 42.0997132,89.6586921 47.0914778,88.3226332 C52.760203,86.805384 54.1912934,52.8319606 53.8901822,47.453471 C53.6480858,43.1291119 59.2230457,40.7022726 59.183212,36.3829989 C59.1433782,32.0637252 55.5270128,23.7322351 56.0412054,24.6698489 C57.6448616,27.5940648 58.8439259,30.8761525 62.1768503,31.0585082 C65.3415782,31.2316613 65.0975993,28.2597267 66.9393231,27.0511618 C68.7810469,25.8425969 72.1233778,27.701243 72.0749141,25.0618503 C71.9880627,20.3318193 65.3481526,13.0833439 63.3563812,11.410394 C56.2795054,5.46630917 51.4447517,5.68982564 49.6903652,5.84311932 C47.9359787,5.99641301 48.3671738,11.3526573 37.2658819,9.68387957 C35.4881238,9.41664193 34.5494516,5.92183016 32.3626564,4.62561945 C30.1758612,3.32940873 26.2003242,3.90846479 24.1879953,3.76737889 C13.047766,2.98632899 4.4807322,16.0543397 4.4807322,16.0543397 C4.4807322,16.0543397 9.34769869,21.0047377 9.34769869,21.0047377 C9.34769869,21.0047377 10.5203389,27.4758889 10.4754161,27.9028273 C10.4304934,28.3297656 18.1392937,21.5582643 19.0478226,22.0231334 C19.439606,22.2235981 19.6554249,27.3859061 17.9410285,43.6792446 C16.2266321,59.9725831 12.5430329,84.1997492 13.6134487,84.807845 Z" id="Path-89" fill="#FFFFFF" transform="translate(38.278084, 46.242758) rotate(-366.000000) translate(-38.278084, -46.242758) "></path>
                                            <path d="M35.0368528,40.7985055 C46.9485004,45.6063838 41.889929,42.509515 50.5878187,49.447821" id="Path-113"></path>
                                        </g>
                                    </g>
                                    <path d="M98.2435384,33.2573084 C99.0617875,34.0215724 100.535197,33.5031789 101.353446,34.267443 C102.171695,35.031707 102.033923,36.7976169 102.701741,37.4213751" id="Path-114" stroke="#263345"></path>
                                    <path d="M91.0577046,29.6683681 C91.8759537,30.4326321 93.3493631,29.9142386 94.1676122,30.6785026 C94.9858612,31.4427667 94.8480887,33.2086766 95.5159071,33.8324348" id="Path-114" stroke="#263345"></path>
                                    <path d="M77.2194262,50.5902493 C84.8905835,52.904473 84.2344951,50.4312221 81.9974909,56.601808" id="Path-115" stroke="#3C3C3C"></path>
                                    <path d="M125.319579,288.311142 C129.288574,325.730146 132.054457,308.052624 132.36008,288.959469" id="Path-106" fill="#FF939F"></path>
                                    <path d="M89.2863846,292.306872 C93.2553798,315.317604 96.0212622,304.446852 96.3268854,292.705559" id="Path-106" fill="#FF939F"></path>
                                    <path d="M91.4931968,304.851293 C85.5217273,305.579321 79.4020761,305.528442 73.5787882,307.035376 C71.5960985,307.548451 69.5021666,308.874901 68.6910442,310.751969 C63.1432514,323.590457 112.796053,317.937231 93.4225309,304.586866" id="Path-107" stroke="#00A2F2" fill="#FFFFFF"></path>
                                    <path d="M129.528236,306.849158 C123.556766,307.577186 117.437115,307.526307 111.613827,309.033241 C109.631137,309.546316 107.537205,310.872765 106.726083,312.749834 C101.17829,325.588322 150.831092,319.935096 131.45757,306.584731" id="Path-107" stroke="#00A2F2" fill="#FFFFFF"></path>
                                    <path d="M7.73423025,133.374837 C-0.456850418,125.030364 -1.33819776,127.334289 10.2835925,126.4276" id="Path-108" stroke="#263345"></path>
                                    <path d="M86.8247177,200.65778 C86.3427637,226.392922 79.1921738,296.333543 85.0279939,296.598354 L90.8374009,298.231521 C94.389509,298.392705 100.630993,301.0388 101.471011,297.344487 C105.914188,277.803863 95.5002796,246.526516 109.481405,226.90374 C110.740798,225.136157 112.921043,230.026811 113.239552,232.222741 C116.313589,253.416382 116.540833,275.004016 119.534075,296.210877 C119.726223,297.572229 121.336836,298.784118 122.621445,298.692651 C153.332099,296.505986 131.735154,256.24474 132.841845,240.226972 C133.948536,224.209204 123.901112,212.310909 122.621445,200.65778" id="Path-105" stroke="#00A2F2" fill="#263345"></path>
                                </g>
                            </g>
                        </g>
                        <ellipse id="Oval-13" stroke="#00A2F2" stroke-width="2" cx="156.025424" cy="120.365809" rx="3.05932203" ry="3.06066176"></ellipse>
                        <path d="M169.637125,128.250575 C175.04891,136.915328 174.939259,132.741614 172.015445,140.621465" id="Path-119" stroke="#666666"></path>
                    </g>
                </g>
            </g>
            <path d="M346.803023,120.86022 C346.803023,112.759673 350.522418,112.400581 352.583306,120.583518" id="Path-156" stroke="#263345"></path>
            <path d="M186.173352,121.39324 C187.52591,116.48502 193.429412,93.4433551 204.426735,100.763839 C208.564652,103.518287 204.736199,112.01636 200.91564,112.739988 C191.676458,114.489922 197.493631,96.0582212 205.269712,92.7261557" id="Path-183" stroke="#00A2F2" stroke-width="2"></path>
        </g>
    </g>
</svg>