<?xml version="1.0" encoding="UTF-8"?>
<svg width="390px" height="109px" viewBox="0 0 390 109" version="1.1" xmlns="http://www.w3.org/2000/svg" xmlns:xlink="http://www.w3.org/1999/xlink">
    <!-- Generator: Sketch 44.1 (41455) - http://www.bohemiancoding.com/sketch -->
    <title>Rectangle 53</title>
    <desc>Created with Sketch.</desc>
    <defs>
        <linearGradient x1="50%" y1="0%" x2="50%" y2="100%" id="linearGradient-1">
            <stop stop-color="#F6D823" offset="0%"></stop>
            <stop stop-color="#E8AF0F" offset="100%"></stop>
        </linearGradient>
    </defs>
    <g id="SITE-ASSETS" stroke="none" stroke-width="1" fill="none" fill-rule="evenodd">
        <path d="M19.0916504,15.7106732 C23.2191163,13.7774524 25.5384962,8.54056136 26.04979,0 L364.659397,0 C363.991115,10.484549 365.043479,16.5411379 367.816489,18.1697666 C370.5895,19.7983952 377.984004,20.6127096 390,20.6127096 C386.25547,23.05419 384.383204,24.7964656 384.383204,25.8395364 C384.383204,26.8826071 386.25547,28.7525307 390,31.4493071 C386.25547,33.7365946 384.383204,35.4668266 384.383204,36.6400033 C384.383204,37.8131799 386.25547,40.2184034 390,43.8556738 C386.25547,47.3443078 384.383204,50.0050826 384.383204,51.8379984 C384.383204,53.6709141 386.25547,56.3404962 390,59.8467447 C386.25547,62.186834 384.383204,63.9714338 384.383204,65.2005443 C384.383204,66.4296548 386.25547,68.4713907 390,71.3257522 C386.25547,73.5091353 384.383204,75.1466727 384.383204,76.2383643 C384.383204,77.3300559 386.25547,78.8638579 390,80.8397705 C386.25547,83.6951094 384.383204,85.8220674 384.383204,87.2206447 C384.383204,88.619222 386.25547,90.5532379 390,93.0226925 C380.129731,92.300287 373.360221,92.9752161 369.691468,95.0474799 C366.022715,97.1197436 363.628611,101.770584 362.509154,109 L27.009739,109 C24.1117781,99.9568599 21.4724152,94.6310907 19.0916504,93.0226925 C16.7108856,91.4142943 10.3470021,90.6576461 0,90.752748 C4.13313401,87.8575531 6.19970101,85.6744293 6.19970101,84.2033764 C6.19970101,82.7323236 4.13313401,81.1259814 0,79.38435 C4.13313401,76.4358355 6.19970101,74.236355 6.19970101,72.7859086 C6.19970101,71.3354622 4.13313401,69.1565941 0,66.2493044 C3.11700749,63.6282612 4.67551124,61.4940746 4.67551124,59.8467447 C4.67551124,58.1994148 3.11700749,55.6240336 0,52.1206011 C4.13313401,50.0501256 6.19970101,48.1498797 6.19970101,46.4198634 C6.19970101,44.6898471 4.13313401,42.5770807 0,40.0815642 C4.13313401,36.9968187 6.19970101,34.6598041 6.19970101,33.0705204 C6.19970101,31.4812368 4.13313401,29.5699739 0,27.3367319 C3.11700749,25.3010841 4.67551124,23.7743483 4.67551124,22.7565244 C4.67551124,21.7387005 3.11700749,20.2097813 0,18.1697666 C8.60030103,18.4635918 14.9641845,17.643894 19.0916504,15.7106732 Z" id="Rectangle-53" fill="url(#linearGradient-1)"></path>
        <path d="M14.5,23.1841349 L14.5,84.7602128 C23.964053,84.7040086 29.7880555,85.3642968 32.083637,86.7972579 C34.4056485,88.2467172 36.8674174,92.7954874 39.5643561,100.499996 L351.921043,100.5 C353.019233,94.3618273 355.306207,90.3550378 358.814029,88.5242891 C362.274654,86.7181733 368.490752,86.1168996 377.5,86.687585 L377.5,25.2756323 C366.486922,25.2549876 359.708932,24.5479726 357.056908,23.1088013 C354.27704,21.6002528 353.252623,16.4107448 353.814656,7.5 L38.7792538,7.5 C38.2295589,14.7590723 35.9935666,19.2867649 32.0174619,21.0075251 C28.168001,22.673477 22.3338584,23.3936159 14.5,23.1841349 Z" id="Rectangle-53" stroke="#979797"></path>
    </g>
</svg>