<?xml version="1.0" encoding="UTF-8"?>
<svg width="165px" height="200px" viewBox="0 0 165 200" version="1.1" xmlns="http://www.w3.org/2000/svg" xmlns:xlink="http://www.w3.org/1999/xlink">
    <!-- Generator: Sketch 44.1 (41455) - http://www.bohemiancoding.com/sketch -->
    <title>Group 2</title>
    <desc>Created with Sketch.</desc>
    <defs>
        <rect id="path-1" x="9.75932994" y="100.49212" width="144.438083" height="79.0277837"></rect>
    </defs>
    <g id="Alpha" stroke="none" stroke-width="1" fill="none" fill-rule="evenodd">
        <g id="Group-2" transform="translate(-3.000000, -11.000000)">
            <g id="Group-6">
                <g id="Group-4" transform="translate(87.333049, 106.241031) rotate(3.000000) translate(-87.333049, -106.241031) translate(5.333049, 4.241031)">
                    <polygon id="Rectangle-27" fill="#F4D4A1" transform="translate(97.856849, 101.286810) rotate(16.000000) translate(-97.856849, -101.286810) " points="89.5614181 4.00819479 105.397877 -1.44316319 106.152279 204.016783 89.5614181 204.016783"></polygon>
                    <polygon id="Rectangle-27" fill="#FBCB7F" transform="translate(91.249735, 123.419934) rotate(16.000000) translate(-91.249735, -123.419934) " points="99.5451654 42.9286726 99.5451654 203.911195 82.9543045 203.911195"></polygon>
                    <g id="Rectangle-28" transform="translate(81.978372, 140.006012) rotate(22.000000) translate(-81.978372, -140.006012) ">
                        <use fill="#FFFFFF" fill-rule="evenodd" xlink:href="#path-1"></use>
                        <rect stroke="#CCCCCC" stroke-width="1" x="10.2593299" y="100.99212" width="143.438083" height="78.0277837"></rect>
                    </g>
                </g>
                <path d="M87.4929367,11.9324141 C87.4929367,40.4873026 85.5956515,57.0614227 105.334243,78.9078348 C109.760954,83.8072605 130.325235,98.5972671 133.900603,84.9013259 C134.572509,82.3274976 133.255121,77.5493342 131.526472,75.6040456 C124.861723,68.104051 116.889316,61.7998809 110.506348,54.0587961 C99.5149217,40.7287018 98.7668783,29.0089598 97.7081517,12.4482474" id="Path-184" fill="#FF939F"></path>
                <path d="M110.069893,82.7077094 C122.246562,91.7750264 141.949251,88.5892674 123.635551,72.0247482" id="Path-185" stroke="#263345" stroke-width="2"></path>
            </g>
        </g>
        <g id="Group-7" transform="translate(83.126489, 136.890485) rotate(27.000000) translate(-83.126489, -136.890485) translate(22.626489, 112.390485)" stroke="#FF939F" stroke-width="2">
            <g id="Group" transform="translate(0.000000, 0.000000)">
                <path d="M18.4548415,5.90804617 C1.95904582,6.55401261 4.76065315,16.8234226 5.28630753,31.0236889" id="Path-82"></path>
                <path d="M0.000236284444,24.9775905 C3.80284189,23.5120823 7.60544749,22.0465742 11.4080531,20.5810661" id="Path-83"></path>
                <path d="M17.4278872,29.3647556 C16.7910173,20.166205 14.36527,22.2825585 20.8317313,20.3502037" id="Path-84"></path>
                <path d="M33.2389938,24.1800355 C46.2630978,16.5196625 26.9236546,19.5465272 33.5141549,27.3169561 C34.9264908,28.9821492 37.8357252,28.0261819 39.9965104,28.3807949" id="Path-85"></path>
                <path d="M24.9730032,21.6112358 C26.6110522,29.5865269 24.1215139,27.7712474 31.5674613,28.0785021" id="Path-86"></path>
                <path d="M43.803368,19.3971165 C43.803368,47.8829962 43.8677343,8.58621591 51.0014558,19.4797901 C52.3904663,21.6008834 52.7031166,24.2514659 53.5539469,26.6373038" id="Path-87"></path>
                <path d="M65.3404042,18.2139468 C55.2693643,18.6261637 58.5830179,30.9034921 62.3904582,26.490675 C66.934287,21.2243846 62.4001444,2.83024079 61.6896206,1.60277482 C58.8751449,-3.25937479 62.2095476,12.8782943 63.5130526,18.3371774 C64.3384964,21.7940123 66.5024566,24.7909247 67.9971587,28.0177984" id="Path-88"></path>
            </g>
            <polyline id="Path-94" points="24.5855139 17.0470952 24.5855139 14.4936264 24.5855139 14.0326569 24.5855139 13.1175191"></polyline>
            <path d="M71.7748773,0.118218345 C71.8265452,8.71428224 67.0016028,27.1102131 79.8073427,28.7919593" id="Path-91"></path>
            <path d="M85.6328204,17.7169832 C85.6328204,19.705772 83.0092029,24.473143 85.0965602,27.3354929 C85.7331413,28.6889739 86.9182714,29.2624562 88.6519505,29.0559397 C90.3856296,28.8494232 91.4450111,28.3096413 91.830095,27.4365942 C94.4883151,25.0384977 91.3954861,14.5952977 92.5532313,17.9678103 C93.3425756,20.2671711 101.749287,42.4235656 92.3609255,48.199843 C88.1933843,50.7639618 82.1615342,46.1749093 79.3344262,44.9850417" id="Path-92"></path>
            <path d="M104.295268,3.14977746 C125.693564,-3.28817633 124.197919,20.4410746 107.481627,16.5513797" id="Path-70"></path>
            <path d="M107.293759,17.1700054 C107.220781,20.2010759 107.147804,23.2321463 107.074826,26.2632168" id="Path-71"></path>
            <path d="M107.554112,30.0394723 C104.696244,40.5895864 115.435354,37.6719776 106.966839,30.6023923" id="Path-72"></path>
        </g>
    </g>
</svg>