<?xml version="1.0" encoding="UTF-8"?>
<svg width="25px" height="26px" viewBox="0 0 25 26" version="1.1" xmlns="http://www.w3.org/2000/svg" xmlns:xlink="http://www.w3.org/1999/xlink">
    <!-- Generator: Sketch 46.2 (44496) - http://www.bohemiancoding.com/sketch -->
    <title>Group 25</title>
    <desc>Created with Sketch.</desc>
    <defs></defs>
    <g id="App" stroke="none" stroke-width="1" fill="none" fill-rule="evenodd">
        <g id="Group-25" transform="translate(-1.000000, 1.000000)">
            <path d="M12.1457042,17.9146982 C10.4499353,15.8518442 9.96268024,15.7796111 8.28621042,13.7003605 C8.16998001,13.5562051 6.61236635,12.0314552 7.09115313,11.4286263 C8.38079002,9.80487554 9.36402715,12.0580644 9.87626735,12.6310871 C10.0153556,12.7866795 12.0391057,14.8292731 12.6365019,15.1752849 C12.902866,15.3295628 13.3155676,14.759578 13.3562826,14.7189396 C13.6012802,14.4744032 13.1860362,13.7498348 13.0306344,13.5686235 C12.610963,13.0792519 10.8253361,11.1166174 10.4066911,10.5493456 C9.81632474,9.74938826 6.60110866,6.9822168 7.09115313,5.6159451 C7.17258528,5.38890766 7.47907789,5.03197675 7.7017504,4.94998071 C8.82889243,4.53492642 10.3241229,6.76720378 10.8765719,7.42905232 C11.1087819,7.70724603 15.3891276,12.8743482 15.8650421,12.4269035 C16.3409565,11.9794588 16.2246419,11.7124967 16.1190079,11.4286263 C15.4046197,9.50884872 14.5250923,8.70237934 12.8027927,5.7856431 C12.4786866,5.23676532 12.0586869,4.06953009 12.3536509,3.55530386 C13.0306344,2.3750828 13.940336,3.42257312 14.0727929,3.55530386 C16.5164027,6.00396472 17.4874689,11.5898385 20.6580306,12.4269035 C22.0033153,12.7820743 22.5395456,10.2355955 22.6151748,10.0495003 C23.1074787,8.83812548 24.3667715,8.03406181 25.3821549,8.15071952 C25.5270015,8.167361 25.6592064,8.27397305 25.7523122,8.3885377 C26.6778978,9.52745121 24.7272649,11.0991438 24.5072134,12.1651439 C24.4235544,12.5704153 24.1121082,14.524002 24.5072134,16.0705951 C25.0711677,18.2781281 25.5595652,19.4672005 25.3821549,20.5027151 C25.1005854,22.1461893 24.7316825,22.9646546 23.4202595,23.8149308 C22.1088365,24.6652071 19.5864772,25.055284 18.5398764,24.9937061 C18.0419693,24.9644113 16.5800265,24.5461879 15.211987,22.7606351 C13.7044071,20.7929554 12.2011585,17.9821568 12.1457042,17.9146982 Z" id="Path-99" fill="#FFB4BC"></path>
            <path d="M12.2567236,17.9188477 C10.5243682,15.8554197 10.0266005,15.7831665 8.31396062,13.7033375 C8.19522251,13.559142 6.60400309,12.0339679 7.09311977,11.4309713 C8.41058078,9.80676873 9.41503141,12.0605845 9.93832328,12.6337666 C10.0804123,12.7894023 12.1478252,14.8325641 12.7581104,15.1786722 C13.0302213,15.3329931 13.4518269,14.7628496 13.4934204,14.7221999 C13.7437039,14.4775955 13.3195009,13.7528255 13.1607463,13.5715638 C12.7320204,13.082056 10.9078683,11.1188755 10.480191,10.5514459 C9.87708739,9.75126601 6.59250251,6.9833247 7.09311977,5.61667289 C7.17630884,5.38957228 7.48941407,5.03254207 7.71689077,4.95052322 C8.86835107,4.53535345 10.3958413,6.76825186 10.9602096,7.43028453 C11.1974296,7.70855563 15.5701244,12.8770953 16.0563068,12.4295262 C16.5424892,11.981957 16.423665,11.7149206 16.315752,11.4309713 C15.5859507,9.51065955 14.6874474,8.70396581 12.9279888,5.7864181 C12.5968901,5.23738762 12.1678289,4.06982765 12.4691567,3.55545835 C13.1607463,2.37490894 14.0900748,3.42269069 14.2253895,3.55545835 C16.7217206,6.00480046 17.7137377,11.5922283 20.9527047,12.4295262 C22.3270142,12.7847957 22.8748137,10.2376085 22.9520747,10.0514616 C23.4550001,8.83974971 19.8580325,25.06142 18.788851,24.999825 C18.2802015,24.970522 16.786717,24.5521823 15.3891619,22.7661327 C13.8490558,20.7979056 12.3133743,17.986325 12.2567236,17.9188477 Z" id="Path-99" fill="#FDC0C7"></path>
            <path d="M16,1 C16.5444476,1.72998297 17.6587667,1.93565754 18.2032143,2.66564051 C18.6532147,3.26899087 19.0916621,4.21462438 18.9833439,5" id="Path-98" stroke="#C1E5F7" stroke-linecap="round"></path>
            <path d="M18,0 C18.5444476,0.729982969 19.6587667,0.935657541 20.2032143,1.66564051 C20.6532147,2.26899087 21.0916621,3.21462438 20.9833439,4" id="Path-98" stroke="#C1E5F7" stroke-linecap="round"></path>
            <g id="Group-12" transform="translate(4.000000, 12.000000) rotate(202.000000) translate(-4.000000, -12.000000) translate(1.000000, 9.000000)" stroke="#C1E5F7" stroke-linecap="round">
                <path d="M0.462786308,1.39597389 C0.955713561,2.11034365 1.96458627,2.31161916 2.45751352,3.02598893 C2.86493102,3.61643456 3.26188882,4.54184243 3.16382058,5.31042008" id="Path-98"></path>
                <path d="M2.46278631,0.39597389 C2.95571356,1.11034365 3.96458627,1.31161916 4.45751352,2.02598893 C4.86493102,2.61643456 5.26188882,3.54184243 5.16382058,4.31042008" id="Path-98"></path>
            </g>
        </g>
    </g>
</svg>