<?xml version="1.0" encoding="UTF-8"?>
<svg width="31px" height="30px" viewBox="0 0 31 30" version="1.1" xmlns="http://www.w3.org/2000/svg" xmlns:xlink="http://www.w3.org/1999/xlink">
    <!-- Generator: Sketch 46.2 (44496) - http://www.bohemiancoding.com/sketch -->
    <title>Group 23</title>
    <desc>Created with Sketch.</desc>
    <defs></defs>
    <g id="App" stroke="none" stroke-width="1" fill="none" fill-rule="evenodd">
        <g id="Group-23">
            <g id="Group-22">
                <polygon id="Star" fill="#FFBC51" points="5.03917954 12.1935792 3.75757576 12.5306488 4.69087822 11.5915199 4.35312765 10.3125 5.2941538 11.2439208 6.57575758 10.9068512 5.64245512 11.8459801 5.98020568 13.125"></polygon>
                <polygon id="Star" fill="#FFBC51" points="29.463422 12.1935792 28.1818182 12.5306488 29.1151206 11.5915199 28.7773701 10.3125 29.7183962 11.2439208 31 10.9068512 30.0666975 11.8459801 30.4044481 13.125"></polygon>
                <polygon id="Star" fill="#FFBC51" points="15.8847055 3.1290528 15.030303 3.35376588 15.6525047 2.72767993 15.4273376 1.875 16.0546884 2.4959472 16.9090909 2.27123412 16.2868893 2.89732007 16.5120563 3.75"></polygon>
                <ellipse id="Oval-12" fill="#F4D6A6" cx="18.7878788" cy="25.3125" rx="1" ry="1"></ellipse>
                <ellipse id="Oval-12" fill="#DFBFED" cx="22.5454545" cy="21.5625" rx="1" ry="1"></ellipse>
                <ellipse id="Oval-12" fill="#E7EBEE" cx="19.2575758" cy="22.03125" rx="1.40909091" ry="1.40625"></ellipse>
                <rect id="Rectangle-18" fill="#FF939F" transform="translate(20.200137, 18.780137) rotate(84.000000) translate(-20.200137, -18.780137) " x="19.7001372" y="16.905137" width="1" height="3.75" rx="0.5"></rect>
                <path d="M12.2121212,8.71408373 C17.8596643,11.7560628 15.6931192,3.00689373 22.5454545,8.30993302" id="Path-28" stroke="#FF939F" stroke-linecap="round" transform="translate(17.378788, 7.968750) rotate(-59.000000) translate(-17.378788, -7.968750) "></path>
                <g id="Group-21" transform="translate(0.000000, 11.250000)">
                    <path d="M8.61111111,0.78125 C2.6364079,11.5879653 0.0269802942,17.317132 0.782828283,17.96875 C1.53867627,18.620368 6.96141629,16.0801757 17.0510483,10.3481731 C14.1167147,9.34713256 12.1316172,8.25952227 11.0957558,7.08534221 C10.0598945,5.91116216 9.23167958,3.80979809 8.61111111,0.78125 Z" id="Line-6" fill="#FFC260"></path>
                    <path d="M0.782828283,17.96875 C1.53867627,18.620368 6.96141629,16.0801757 17.0510483,10.3481731 C14.1167147,9.34713256 12.1316172,8.25952227 11.0957558,7.08534221 C9.54196381,5.32407213 -0.3509437,16.991323 0.782828283,17.96875 Z" id="Line-6" fill="#F6BD61"></path>
                    <path d="M8.69304826,0.852017219 C15.6225031,4.05132341 17.5304969,9.16366892 17.0606522,10.2309386 C16.6653599,11.1288595 13.1345677,9.92988371 10.8032588,7.01932572 C9.70038241,5.64242299 8.23915097,4.12898257 8.52589237,1.54991022 L8.69304826,0.852017219 Z" id="Path-47" fill="#E1A84E"></path>
                </g>
                <polyline id="Line-7" stroke="#ACE4FF" stroke-linecap="round" transform="translate(8.454545, 5.625000) rotate(-441.000000) translate(-8.454545, -5.625000) " points="3.75757576 7.5 4.82632378 4.92674244 6.99944285 7.21586747 9.37228888 4.71635361 10.8032112 6.22366172 13.1515152 3.75"></polyline>
                <polyline id="Path-50" stroke="#9ED3EE" points="20.4847489 11.0347771 22.5506483 11.0347771 22.6108978 11.0347771 22.6391398 11.0347771"></polyline>
                <ellipse id="Oval-12" fill="#AFABC7" cx="7.51515152" cy="16.875" rx="1" ry="1"></ellipse>
                <ellipse id="Oval-12" fill="#DFBFED" cx="2.81818182" cy="15.9375" rx="1" ry="1"></ellipse>
                <path d="M12.7255391,19.4060302 C16.8121566,15.035407 22.5550069,12.988168 26.3613913,15.2332502" id="Path-49" stroke="#76B4DA" stroke-linecap="round"></path>
                <path d="M10.5463974,16.5884534 C13.6509961,14.9623165 15.0144307,9.30689402 13.3714768,4.52759707" id="Path-48" stroke="#76DABF" stroke-linecap="round"></path>
                <path d="M20.8231817,8.70011784 C22.3403737,10.0456981 21.635702,7.71911553 22.8779031,7.10562224 C24.1201043,6.49212896 24.2209262,8.74872775 25.8561294,6.21446595" id="Path-51" stroke="#76DABF" stroke-linecap="round"></path>
            </g>
        </g>
    </g>
</svg>