<?xml version="1.0" encoding="UTF-8"?>
<svg width="174px" height="177px" viewBox="0 0 174 177" version="1.1" xmlns="http://www.w3.org/2000/svg" xmlns:xlink="http://www.w3.org/1999/xlink">
    <!-- Generator: Sketch 46.2 (44496) - http://www.bohemiancoding.com/sketch -->
    <title>Group 19</title>
    <desc>Created with Sketch.</desc>
    <defs></defs>
    <g id="New-UI" stroke="none" stroke-width="1" fill="none" fill-rule="evenodd">
        <g id="Group-19" transform="translate(0.000000, -2.000000)">
            <g id="Group-4">
                <g id="Group-81" transform="translate(0.000000, 2.000000)" fill="#F7F9FD">
                    <ellipse id="Oval-28" cx="87" cy="87.5" rx="87" ry="87.5"></ellipse>
                </g>
                <g id="Group-3" transform="translate(74.000000, 86.000000)">
                    <path d="M-5.68434189e-14,90.923285 C0.322440238,68.3089647 -0.504753235,45.6618904 0.755303487,23.0803243 C1.47094977,10.2551763 6.41612008,-0.0714784075 11.5532218,0.162054905 C16.2889942,0.377343738 19.3429106,6.90499026 21.6385557,18.123526 C25.2613976,35.8279092 25.5250268,75.8477951 26,90.923285 C21.6313305,92.3077617 17.2626609,93 12.8939914,93 C8.52532185,93 4.22732472,92.3077617 -5.68434189e-14,90.923285 Z" id="Path-37" fill="#FF939F"></path>
                    <path d="M1.13043478,24.962963 C1.43013829,20.3266673 1.07733355,-2.04379623 14.9522984,3.31832455 C16.5902358,3.95132205 18.3423382,5.10473653 18.8916563,6.71261012 C20.6127389,11.7502804 20.6160593,17.1842363 21.4782609,22.4200494" id="Path-38" stroke="#263345" stroke-width="2"></path>
                </g>
                <g id="Group" transform="translate(79.000000, 44.000000) rotate(-195.000000) translate(-79.000000, -44.000000) translate(67.000000, 2.000000)" fill="#B0C2DC">
                    <path d="M-5.68434189e-14,81.9887107 C0.297637143,60.0868416 0.725939861,28.3335066 1.88906914,6.46335972 C2.49086567,-4.85213094 12.3752533,2.9892227 16.6449334,1.78863352 C20.5586626,0.688133961 17.6021657,-0.678971477 19.9740514,11.4824662 C23.3182132,28.629083 23.5615632,67.3881654 24,81.9887107 C19.967382,83.3295702 15.9347639,84 11.9021459,84 C7.86952786,84 3.9021459,83.3295702 -5.68434189e-14,81.9887107 Z" id="Path-37"></path>
                </g>
                <path d="M72.575196,151.136095 C72.575196,154.962137 69.031005,161.329871 72.575196,162.61422 C81.5378667,165.862125 101.626097,171.132493 101.097415,161.472016 L102.860162,161.033173 C102.636789,156.951525 104.213101,150.366797 100.416167,149.023738 C92.1655158,146.105302 82.989442,150.289485 74.2760794,150.922358 L72.575196,151.136095 Z" id="Path-40" fill="#FFFFFF"></path>
                <path d="M81,76.5850792 C82.548125,92.0847096 87.0045898,81.4494103 87.7376427,81.3380144 C89.1788414,81.1190074 89.7761454,83.7819292 91.2099799,84.0464867 C93.6515876,84.4969889 92.0845652,79.8481445 92.5708744,79.72828 C93.2810283,79.5532425 94.7380679,84.4219164 96.2988466,80.9118661 C97.9261752,77.2521512 96.4158115,75.9431778 94.862243,73" id="Path-42" stroke="#263345" stroke-width="2"></path>
                <path d="M68.359168,46.5851915 C71.0651754,47.1248421 75.9441724,44.847472 89.5126164,36.9153019 C91.6269798,35.6792361 90.2233232,27.2467963 87.7927381,27.0551937 C81.8666092,26.5880378 79.7028936,31.1505461 73.9410194,32.6371834 C71.0376547,33.3862886 68.3988692,33.6676486 65.4245268,34.0258612 C62.4501844,34.3840738 65.4165449,45.9983533 68.359168,46.5851915 Z" id="Path-43" fill="#D8D8D8"></path>
                <circle id="Oval-9" fill="#979797" cx="77.5" cy="36.5" r="7.5"></circle>
                <path d="M74,33 C75.4093496,39.7507298 73.8011629,39.0892815 79,34.4399556" id="Path-41" stroke="#FFFFFF"></path>
                <path d="M72,157.796158 C95.1540163,157.712211 85.5679087,158.998665 101,156" id="Path-44" stroke="#00A2F2" stroke-width="2"></path>
            </g>
            <polygon id="Star" fill="#FFBC51" points="110.547626 100.688282 106 101.886751 109.311718 98.5476263 108.113249 94 111.452374 97.3117184 116 96.1132487 112.688282 99.4523737 113.886751 104"></polygon>
            <polygon id="Star" fill="#FFBC51" points="102.728576 90.012969 100 90.7320508 101.987031 88.7285758 101.267949 86 103.271424 87.987031 106 87.2679492 104.012969 89.2714242 104.732051 92"></polygon>
            <polyline id="Line-7" stroke="#ACE4FF" stroke-width="2" stroke-linecap="round" transform="translate(45.205772, 76.236219) rotate(-324.000000) translate(-45.205772, -76.236219) " points="30.6152301 81.765504 33.9351607 74.1770912 40.6856803 80.9276108 48.0566264 73.5566647 52.5016055 78.0016438 59.7963149 70.7069344"></polyline>
            <circle id="Oval-12" fill="#F4D6A6" cx="68.5" cy="93.5" r="2.5"></circle>
            <circle id="Oval-12" fill="#DFBFED" cx="105.5" cy="75.5" r="2.5"></circle>
            <circle id="Oval-12" fill="#E7EBEE" cx="72" cy="82" r="4"></circle>
            <rect id="Rectangle-18" fill="#FF939F" transform="translate(52.000000, 95.500000) rotate(62.000000) translate(-52.000000, -95.500000) " x="50" y="90" width="4" height="11" rx="2"></rect>
            <rect id="Rectangle-18" fill="#656F7E" transform="translate(115.641897, 116.684810) rotate(-240.000000) translate(-115.641897, -116.684810) " x="113.217859" y="110.451569" width="4.84807621" height="12.4664817" rx="2.42403811"></rect>
            <path d="M113.135273,78.6282059 C131.369006,89.4283296 124.37407,58.3656211 146.497612,77.193325" id="Path-28" stroke="#76DABF" stroke-width="2" stroke-linecap="round" transform="translate(129.816442, 75.982002) rotate(-14.000000) translate(-129.816442, -75.982002) "></path>
            <path d="M39.1352728,118.628206 C57.3690064,129.42833 50.3740697,98.3656211 72.4976117,117.193325" id="Path-28" stroke="#76B4DA" stroke-width="2" stroke-linecap="round" transform="translate(55.816442, 115.982002) rotate(-62.000000) translate(-55.816442, -115.982002) "></path>
        </g>
    </g>
</svg>