<?xml version="1.0" encoding="UTF-8"?>
<svg width="231px" height="231px" viewBox="0 0 231 231" version="1.1" xmlns="http://www.w3.org/2000/svg" xmlns:xlink="http://www.w3.org/1999/xlink">
    <!-- Generator: Sketch 46.1 (44463) - http://www.bohemiancoding.com/sketch -->
    <title>Group 47</title>
    <desc>Created with Sketch.</desc>
    <defs></defs>
    <g id="App" stroke="none" stroke-width="1" fill="none" fill-rule="evenodd">
        <g id="Group-47">
            <circle id="Oval-34" fill="#F7F9FB" transform="translate(115.500000, 115.500000) scale(-1, 1) translate(-115.500000, -115.500000) " cx="115.5" cy="115.5" r="115.5"></circle>
            <g id="Group-5" transform="translate(83.000000, 0.000000)">
                <path d="M48.8305493,97.39591 C44.091903,222.720236 40.7896721,163.514397 40.4247838,99.567296 C36.7363321,78.4932041 35.3538704,65.9144154 36.2773985,61.8309299 C39.1116698,49.2988741 49.941729,57.8785412 50.6055462,57.7070632 C51.4852264,57.4798233 50.8935608,70.7094389 48.8305493,97.39591 Z" id="Path-106" fill="#CADAFF"></path>
                <path d="M22.1623623,105.233373 C17.5914644,237.645174 14.4061326,175.091063 14.0541614,107.527557 C12.1506291,83.7733707 11.5700583,70.0597157 12.3124489,66.3865922 C15.4551611,50.8374072 22.8869172,64.6936367 23.4838677,64.5247319 C24.4772167,64.2436675 24.0367149,77.8132145 22.1623623,105.233373 Z" id="Path-106" fill="#CADAFF"></path>
                <path d="M71.6978105,165.526261 C64.242241,163.803845 54.903763,158.222336 47.33216,157.033931 C45.5335774,156.751633 43.8141754,158.324836 42.8229344,158.282854 C41.8316935,158.240872 40.2620709,157.242499 39.0489421,157.033931 C39.0489421,157.033931 34.1571009,166.178957 36.7660614,169.07151 C39.3750218,171.964063 52.0168971,171.023565 54.524742,171.494195 C56.925257,171.944684 72.2412572,172.361096 76.2058648,171.494195 C80.1704724,170.627295 77.0741491,166.768323 71.6978105,165.526261 Z" id="Path-173" fill="#758099"></path>
                <path d="M46.6978105,179.526261 C39.242241,177.803845 29.903763,172.222336 22.33216,171.033931 C20.5335774,170.751633 18.8141754,172.324836 17.8229344,172.282854 C16.8316935,172.240872 15.2620709,171.242499 14.0489421,171.033931 C14.0489421,171.033931 9.15710087,180.178957 11.7660614,183.07151 C14.3750218,185.964063 27.0168971,185.023565 29.524742,185.494195 C31.925257,185.944684 47.2412572,186.361096 51.2058648,185.494195 C55.1704724,184.627295 52.0741491,180.768323 46.6978105,179.526261 Z" id="Path-173" fill="#758099"></path>
                <path d="M4.3044659,1.23554957 C3.70515283,16.897775 -4.21276648,61.2275927 3.04411552,61.3887551 L10.2681527,62.3826892 C14.6852234,62.4807844 22.4465513,64.0911791 23.4911197,61.8428466 C26.3098148,55.7758781 21.384041,27.9359449 25.4624991,25.1344291 C27.0285633,24.0586908 23.7380363,55.4273023 27.4601527,68.3336484 C27.69909,69.1621574 40.5336841,70.053185 42.1311039,69.9975188 C49.4779646,69.7414989 41.6639002,32.7998218 48.8941026,25.1344291 C53.3351131,20.4261114 55.1684627,13.0713299 53.103443,7.69316915 C51.0384233,2.31500839 49.3285956,4.93645422 48.8941026,3 C48.8941026,3 35.5073108,0.449938427 28.7556905,0.182770979 C20.6440986,-0.138211717 4.3044659,1.23554957 4.3044659,1.23554957 Z" id="Path-105" fill="#FFD4C3" transform="translate(26.974779, 35.067081) scale(-1, 1) translate(-26.974779, -35.067081) "></path>
                <path d="M47.764478,88.5134793 C27.3222181,112.853556 60.2832428,104.915854 48.4364262,89.2732081 L47.764478,88.5134793 Z" id="Path-2" fill="#CADAFF"></path>
                <path d="M20.764478,96.5134793 C0.322218071,120.853556 33.2832428,112.915854 21.4364262,97.2732081 L20.764478,96.5134793 Z" id="Path-2" fill="#CADAFF"></path>
            </g>
            <g id="Group-7" transform="translate(141.000000, 111.500000) scale(1, -1) translate(-141.000000, -111.500000) translate(83.000000, 70.000000)">
                <polygon id="Star-5" fill="#FFCB79" points="32 39.0512493 27 42 29.9487507 37 27 32 32 34.9487507 37 32 34.0512493 37 37 42"></polygon>
                <polygon id="Star-5" fill="#FFCB79" points="77.5 74.8666735 64.4185245 82.5814755 72.1333265 69.5 64.4185245 56.4185245 77.5 64.1333265 90.5814755 56.4185245 82.8666735 69.5 90.5814755 82.5814755"></polygon>
                <polygon id="Star-5" fill="#FFCB79" points="5 50.0512493 -1.25677246e-13 53 2.94875068 48 -1.27453603e-13 43 5 45.9487507 10 43 7.05124932 48 10 53"></polygon>
                <g id="Group-6" transform="translate(85.500000, 30.000000) rotate(-79.000000) translate(-85.500000, -30.000000) translate(60.000000, 4.000000)">
                    <rect id="Rectangle-71" fill="#263345" transform="translate(25.478662, 26.101618) rotate(-45.000000) translate(-25.478662, -26.101618) " x="23.3714108" y="-7.60789391" width="4.21450186" height="67.4190235"></rect>
                    <rect id="Rectangle-71" fill="#FFFFFF" transform="translate(9.439304, 10.007347) rotate(-45.000000) translate(-9.439304, -10.007347) " x="7.33205263" y="-0.941428836" width="4.21450186" height="21.8975526"></rect>
                </g>
            </g>
        </g>
    </g>
</svg>