<?xml version="1.0" encoding="UTF-8"?>
<svg width="231px" height="231px" viewBox="0 0 231 231" version="1.1" xmlns="http://www.w3.org/2000/svg" xmlns:xlink="http://www.w3.org/1999/xlink">
    <!-- Generator: Sketch 46.1 (44463) - http://www.bohemiancoding.com/sketch -->
    <title>Group 7</title>
    <desc>Created with Sketch.</desc>
    <defs></defs>
    <g id="App" stroke="none" stroke-width="1" fill="none" fill-rule="evenodd">
        <g id="Group-7">
            <circle id="Oval-34" fill="#F7F9FB" transform="translate(115.500000, 115.500000) scale(-1, 1) translate(-115.500000, -115.500000) " cx="115.5" cy="115.5" r="115.5"></circle>
            <g id="Group-5" transform="translate(170.000000, 77.000000)" fill="#FF939F">
                <circle id="Oval-8" cx="24" cy="43" r="5"></circle>
                <ellipse id="Oval-8" cx="9" cy="27.5" rx="9" ry="8.5"></ellipse>
                <ellipse id="Oval-8" cx="27" cy="8.5" rx="9" ry="8.5"></ellipse>
            </g>
            <path d="M47.0105393,134.947509 C39.7016687,122.070776 49.5989448,96.4538194 65.0825135,103.911564 C68.3069002,105.464607 69.6112136,109.713104 72.7564385,111.420785 C73.7094327,111.938207 72.3522834,109.090022 72.9298115,108.172207 C74.4077855,105.823391 76.45204,103.826375 78.6229493,102.097649 C81.6656636,99.6746913 84.7133593,96.8795438 88.4532018,95.810708 C93.0976172,94.4833479 109.193523,91.0323931 111.607174,100.506951 C112.522514,104.100031 108.452023,111.179098 112.133794,111.617997 C112.174278,111.622823 156.522575,95.1618862 159.505815,106.325784 C160.246297,109.096819 160.935637,112.165534 160.101785,114.909918 C158.927659,118.774215 150.783118,122.505624 153.760666,125.234283 C160.347795,131.270805 185.752678,115.250291 178.149921,142.125153 C175.662194,150.918977 166.299218,153.164263 158.194682,152.15045 C154.608763,151.701881 149.255193,145.589048 147.846477,148.917043 C144.490762,156.84469 160.617461,168.501339 152.765938,178.899746 C137.19562,199.520777 125.473677,172.080236 118.128168,167.138551 C116.354617,165.945397 118.930076,171.569763 118.128168,173.551187 C116.982705,176.381496 115.151687,179.191833 112.582397,180.841524 C108.971613,183.15994 104.58375,184.078973 100.381268,184.946132 C97.2473306,185.592802 93.9801776,185.580689 90.7894037,185.338388 C89.0664255,185.207549 87.0532061,185.057928 85.8265999,183.840878 C82.6841089,180.72287 79.9365065,177.020352 78.2718689,172.918376 C76.0047322,167.33173 78.7709055,159.262557 74.2387781,155.286336 C71.3905452,152.787464 67.8363002,159.636053 64.1549676,160.533038 C46.2065647,164.906303 34.4226058,158.989243 38.376561,140.254891 L47.0105393,134.947509 Z" id="Path-40" fill="#FF939F"></path>
            <circle id="Oval-9" fill="#263345" cx="93.5" cy="126.5" r="2.5"></circle>
            <circle id="Oval-9" fill="#263345" cx="113.5" cy="126.5" r="2.5"></circle>
            <polygon id="Star-5" fill="#FFCB79" points="93 80.3822736 88 83.3310243 90.9487507 78.3310243 88 73.3310243 93 76.279775 98 73.3310243 95.0512493 78.3310243 98 83.3310243"></polygon>
            <polygon id="Star-5" fill="#FFCB79" points="128.665512 87.041037 118 93.3310243 124.289987 82.6655121 118 72 128.665512 78.2899872 139.331024 72 133.041037 82.6655121 139.331024 93.3310243"></polygon>
            <polygon id="Star-5" fill="#FFCB79" points="60 90.3822736 55 93.3310243 57.9487507 88.3310243 55 83.3310243 60 86.279775 65 83.3310243 62.0512493 88.3310243 65 93.3310243"></polygon>
            <g id="Group-6" transform="translate(56.500000, 67.331024) rotate(-189.000000) translate(-56.500000, -67.331024) translate(31.000000, 41.331024)">
                <rect id="Rectangle-71" fill="#263345" transform="translate(25.478662, 26.101618) rotate(-45.000000) translate(-25.478662, -26.101618) " x="23.3714108" y="-7.60789391" width="4.21450186" height="67.4190235"></rect>
                <rect id="Rectangle-71" fill="#FFFFFF" transform="translate(9.439304, 10.007347) rotate(-45.000000) translate(-9.439304, -10.007347) " x="7.33205263" y="-0.941428836" width="4.21450186" height="21.8975526"></rect>
            </g>
            <path d="M74.8813178,134.830751 C85.3212505,168.965812 120.341672,166.702755 129.260334,133.204626" id="Path-41" stroke="#FFB8C0" stroke-width="5" stroke-linecap="round"></path>
        </g>
    </g>
</svg>