<?xml version="1.0" encoding="UTF-8"?>
<svg width="231px" height="257px" viewBox="0 0 231 257" version="1.1" xmlns="http://www.w3.org/2000/svg" xmlns:xlink="http://www.w3.org/1999/xlink">
    <!-- Generator: Sketch 46.1 (44463) - http://www.bohemiancoding.com/sketch -->
    <title>Group 45</title>
    <desc>Created with Sketch.</desc>
    <defs>
        <filter x="-9.5%" y="-6.8%" width="118.9%" height="118.9%" filterUnits="objectBoundingBox" id="filter-1">
            <feOffset dx="0" dy="2" in="SourceAlpha" result="shadowOffsetOuter1"></feOffset>
            <feGaussianBlur stdDeviation="2" in="shadowOffsetOuter1" result="shadowBlurOuter1"></feGaussianBlur>
            <feColorMatrix values="0 0 0 0 0   0 0 0 0 0   0 0 0 0 0  0 0 0 0.2 0" type="matrix" in="shadowBlurOuter1" result="shadowMatrixOuter1"></feColorMatrix>
            <feMerge>
                <feMergeNode in="shadowMatrixOuter1"></feMergeNode>
                <feMergeNode in="SourceGraphic"></feMergeNode>
            </feMerge>
        </filter>
    </defs>
    <g id="App" stroke="none" stroke-width="1" fill="none" fill-rule="evenodd">
        <g id="Group-45">
            <circle id="Oval-34" fill="#F7F9FB" transform="translate(115.500000, 115.500000) scale(-1, 1) translate(-115.500000, -115.500000) " cx="115.5" cy="115.5" r="115.5"></circle>
            <g id="Group-118" transform="translate(1.000000, 55.000000)">
                <g id="Group-78" transform="translate(0.000000, 29.000000)">
                    <g id="Group-79" transform="translate(0.000000, 0.040185)">
                        <path d="M121.856168,148.199321 C120.959505,132.245135 117.638152,87.1787139 119.373566,71.2931018 C121.2344,54.2594138 145.347594,26.5552735 121.856168,11.2381356 C84.4335854,-13.1625492 72.1147405,29.3992809 47.9438726,43.4542049 C31.9400892,52.7601165 1.88157829,54.5462888 7.68866188,80.6341399 C8.56474252,84.569861 19.7947041,68.3118812 22.5229154,71.2931018 C27.0403672,76.2294937 35.8744962,70.3684243 42.0544867,67.6447906 C50.0662194,64.1138749 58.8389732,62.1668788 67.559051,61.303297 C73.0704546,60.7574821 78.817281,61.6239825 84.0291968,63.4878784 C110.723777,73.0344489 87.4173093,145.599504 112.292079,148.199321 L121.856168,148.199321 Z" id="Path-26" fill="#FF939F"></path>
                        <ellipse id="Oval-3" fill="#263345" cx="84.0689243" cy="25.4937425" rx="3.42892065" ry="3.41001898"></ellipse>
                        <ellipse id="Oval-3" fill="#263345" cx="72.067702" cy="23.788733" rx="3.42892065" ry="3.41001898"></ellipse>
                        <path d="M55.5841702,37.530225 C58.0000386,40.2235108 61.0802087,42.4832854 62.8317754,45.6100822 C65.5306657,50.4279873 73.6879468,63.7359485 68.7327426,61.0023064 L57.9879188,63.0039512 C53.8515076,60.7220134 54.0107016,54.5597747 50.8520846,51.1380672 C48.5390676,48.6323921 40.5684837,48.7496788 42.0275665,45.714214" id="Path-31" fill="#FFC6CD"></path>
                        <path d="M44.4375249,44.350263 C47.0037207,47.0202843 50.2755544,49.2605391 52.1361123,52.3603269 C53.2668231,54.2441509 58.3768399,59.6032702 56.9690534,63.2817293 C56.030529,65.7340353 51.370476,67.5231613 42.9888943,68.6491071 C40.922495,66.0004325 42.7661472,61.2327127 39.4109853,57.8405616 C36.9540408,55.3565304 27.384272,53.1484226 28.9341462,50.1391779" id="Path-31" fill="#FF8593"></path>
                        <path d="M29.1069208,49.9431827 C20.6464446,54.6266765 13.4821495,55.1087072 6.16958006,62.8237738 C3.34686153,65.8018599 -0.08094002,76.5407864 0.376693118,82.9811091 C0.834326257,89.4214318 8.56475944,103.117859 10.4077309,103.117859 C13.6093589,103.117859 16.2708317,78.185157 22.1458237,76.530521 C28.9414338,74.6166017 36.9457488,71.828816 42.1358757,68.7226742 C42.1358757,68.7226742 45.8388005,55.6396238 32.6258281,51.143916 L29.1069208,49.9431827 Z" id="Path-32" fill="#263345"></path>
                        <path d="M70.1121765,2.40182167 C78.2792492,-0.117440943 75.5924059,-1.65879562 79.3964248,3.02649386" id="Path-33" stroke="#263345"></path>
                        <path d="M36.527084,57.1122357 C62.0951812,57.7217551 51.3469483,61.5799326 69.6223563,48.2573748" id="Path-81" stroke="#263345" stroke-width="2"></path>
                        <path d="M63.3549696,47.3140319 C72.0017871,47.3140319 69.3532485,45.3778392 68.4589877,55.7289734" id="Path-88" stroke="#263345" stroke-width="2"></path>
                    </g>
                    <path d="M83.1581893,6.2448244 C91.325262,3.72556179 88.6384187,2.18420711 92.4424377,6.86949659" id="Path-33" stroke="#263345"></path>
                    <path d="M74.4275408,135.926251 C80.3850069,136.555277 89.3520191,136.555277 101.328577,135.926251 C101.772358,139.595789 104.350533,141.430557 109.063102,141.430557 C117.389556,141.430557 121.333654,139.186863 120.895396,134.699474 C137.873384,134.735679 150.531086,136.127848 158.868502,138.875983 C161.418357,139.716452 154.641348,142.389757 152.098225,143.250544 C147.610094,144.76967 140.762071,146.887556 136.046133,147.32853 C126.399765,148.230535 121.621972,148.355449 111.935801,148.16036 C105.922973,148.039255 96.9567877,146.728574 91.2100413,144.948585 C85.3753862,143.141368 80.3075602,139.425053 74.8563197,136.663287 L74.4275408,135.926251 Z" id="Path-82" fill="#FFFFFF"></path>
                </g>
                <polygon id="Star-5" fill="#FFCB79" points="137 9.87174905 130 14 134.128251 7 130 -2.85549362e-13 137 4.12825095 144 -2.87769808e-13 139.871749 7 144 14"></polygon>
                <polygon id="Star-5" fill="#FFCB79" points="171 75.9621711 154.029437 85.9705627 164.037829 69 154.029437 52.0294373 171 62.0378289 187.970563 52.0294373 177.962171 69 187.970563 85.9705627"></polygon>
                <polygon id="Star-5" fill="#FFCB79" points="137 114.871749 130 119 134.128251 112 130 105 137 109.128251 144 105 139.871749 112 144 119"></polygon>
                <g id="Group-91" filter="url(#filter-1)" transform="translate(148.000000, 123.000000)">
                    <rect id="Rectangle-71" fill="#263345" transform="translate(36.969039, 36.646564) rotate(-45.000000) translate(-36.969039, -36.646564) " x="33.9114588" y="-11.9729239" width="6.11515956" height="97.2389762"></rect>
                    <rect id="Rectangle-71" fill="#FFFFFF" transform="translate(13.696244, 13.433674) rotate(-45.000000) translate(-13.696244, -13.433674) " x="10.6386646" y="-2.35783005" width="6.11515956" height="31.5830086"></rect>
                </g>
            </g>
        </g>
    </g>
</svg>