<?xml version="1.0" encoding="UTF-8"?>
<svg width="231px" height="235px" viewBox="0 0 231 235" version="1.1" xmlns="http://www.w3.org/2000/svg" xmlns:xlink="http://www.w3.org/1999/xlink">
    <!-- Generator: Sketch 46.1 (44463) - http://www.bohemiancoding.com/sketch -->
    <title>Group 46</title>
    <desc>Created with Sketch.</desc>
    <defs>
        <filter x="-13.2%" y="-9.4%" width="126.4%" height="126.4%" filterUnits="objectBoundingBox" id="filter-1">
            <feOffset dx="0" dy="2" in="SourceAlpha" result="shadowOffsetOuter1"></feOffset>
            <feGaussianBlur stdDeviation="2" in="shadowOffsetOuter1" result="shadowBlurOuter1"></feGaussianBlur>
            <feColorMatrix values="0 0 0 0 0   0 0 0 0 0   0 0 0 0 0  0 0 0 0.2 0" type="matrix" in="shadowBlurOuter1" result="shadowMatrixOuter1"></feColorMatrix>
            <feMerge>
                <feMergeNode in="shadowMatrixOuter1"></feMergeNode>
                <feMergeNode in="SourceGraphic"></feMergeNode>
            </feMerge>
        </filter>
    </defs>
    <g id="App" stroke="none" stroke-width="1" fill="none" fill-rule="evenodd">
        <g id="Group-46">
            <g id="Group-8">
                <circle id="Oval-34" fill="#F7F9FB" transform="translate(115.500000, 115.500000) scale(-1, 1) translate(-115.500000, -115.500000) " cx="115.5" cy="115.5" r="115.5"></circle>
                <path d="M114.525042,83.7588273 C114.525042,83.7588273 103.205616,106.408584 95.5456955,110.060595 C92.9758635,111.28581 91.3941761,110.16393 89.8507669,110.060595 C88.3073576,109.957259 85.0747005,109.325459 84.4405392,108.688967 C81.340244,105.57728 86.4827704,89.5256577 89.8507669,76.6235537 C93.2187633,63.7214497 85.8099142,65.6484471 89.8507669,57.3441678 C93.8916195,49.0398885 97.7939481,43.5566593 106.209322,43.5566593 C113.344999,43.5566593 114.891408,49.0522609 116.642432,51.6486991 C118.393455,54.2451372 118.506047,62.6482771 118.506047,62.6482771 L126.876817,76.0419445 C126.876817,76.0419445 133.860129,89.0427033 144.890255,102.548915 C155.92038,116.055127 169.484322,138.249022 169.484322,138.249022 C169.484322,138.249022 163.546781,141.04056 159.45708,144.513632 C157.201614,146.429027 114.525042,83.7588273 114.525042,83.7588273 Z" id="Rectangle-45" fill="#FED75F" transform="translate(126.484322, 94.056659) scale(-1, 1) rotate(32.000000) translate(-126.484322, -94.056659) "></path>
                <g id="Group-26" transform="translate(110.984322, 36.556659) scale(-1, 1) rotate(32.000000) translate(-110.984322, -36.556659) translate(107.484322, 27.556659)" stroke="#FFC30F">
                    <path d="M0.637245715,17.3083094 L4.46072001,1.92314549" id="Line" stroke-linecap="square"></path>
                    <ellipse id="Oval-19" fill="#FFC30F" cx="3.82347429" cy="2.56419398" rx="2.54898286" ry="2.56419398"></ellipse>
                </g>
                <g id="Group-26" transform="translate(121.984322, 29.556659) scale(-1, 1) rotate(-13.000000) translate(-121.984322, -29.556659) translate(118.484322, 20.556659)" stroke="#FFC30F">
                    <path d="M0.637245715,17.3083094 L4.46072001,1.92314549" id="Line" stroke-linecap="square"></path>
                    <ellipse id="Oval-19" fill="#FFC30F" cx="3.82347429" cy="2.56419398" rx="2.54898286" ry="2.56419398"></ellipse>
                </g>
                <g id="Group" transform="translate(105.984322, 45.056659) scale(-1, 1) rotate(-41.000000) translate(-105.984322, -45.056659) translate(95.484322, 40.556659)">
                    <path d="M0.411694632,1.37063207 C4.37609743,1.19457726 5.88975176,2.54910037 7.04898208,2.80527872 C8.20821239,3.06145707 4.94971784,5.07131566 14.806372,7.92122391 C20.3526019,9.52483566 22.6592144,1.3985069 17.2271284,0.601240802 C11.6806153,-0.21281973 6.01683921,0.537068804 0.411694632,0.504982806 L0.411694632,1.37063207 Z" id="Path-22" fill="#FFC30F"></path>
                    <path d="M10.6398605,1.74563293 C17.2422285,1.78801217 21.8725893,7.71974871 12.8886994,6.38961006" id="Path-23" stroke="#342F7F" stroke-linecap="round"></path>
                </g>
                <path d="M143.485946,86.8348601 C143.485946,86.8348601 143.369934,86.4240528 145.09862,86.8348601 C146.827307,87.2456675 148.45895,89.5566593 148.45895,89.5566593 C148.45895,89.5566593 153.304339,87.9474857 158.969811,83.0016314 C164.635283,78.0557771 165.384197,67.2815462 163.678152,64.5566593" id="Path-24" stroke="#263345" stroke-linecap="round" transform="translate(153.984322, 77.056659) scale(-1, 1) rotate(32.000000) translate(-153.984322, -77.056659) "></path>
                <circle id="Oval-20" stroke="#263345" fill="#263345" transform="translate(135.984322, 55.056659) scale(-1, 1) rotate(32.000000) translate(-135.984322, -55.056659) " cx="135.984322" cy="55.0566593" r="1"></circle>
                <circle id="Oval-20" stroke="#263345" fill="#263345" transform="translate(140.984322, 52.056659) scale(-1, 1) rotate(32.000000) translate(-140.984322, -52.056659) " cx="140.984322" cy="52.0566593" r="1"></circle>
                <path d="M140.484322,68.5566593 C140.15848,69.3408647 137.85498,70.2724539 137.529138,71.0566593 C137.203296,71.8408647 138.77346,72.674198 138.406792,73.5566593" id="Path-25" stroke="#263345" stroke-linecap="round" transform="translate(138.984322, 71.056659) scale(-1, 1) rotate(-85.000000) translate(-138.984322, -71.056659) "></path>
                <path d="M159.965566,86.5566593 C157.517498,76.2942256 157.725979,82.2660133 163.484322,73.5566593" id="Path-26" stroke="#263345" stroke-linecap="round" transform="translate(160.984322, 80.056659) scale(-1, 1) rotate(32.000000) translate(-160.984322, -80.056659) "></path>
                <path d="M164.484322,77.5566593 C163.703731,76.8899926 163.264913,77.2233259 162.484322,76.5566593" id="Path-27" stroke="#263345" stroke-linecap="round" transform="translate(163.484322, 77.056659) scale(-1, 1) rotate(32.000000) translate(-163.484322, -77.056659) "></path>
                <path d="M132.920527,37.2617606 C126.778511,32.6822316 140.65235,41.0234175 130.87607,37.7913754 C121.099791,34.5593332 126.196194,37.0545173 123.966049,36.1174863 C121.056373,34.8949397 122.736999,26.7744102 126.362622,28.9137788 C128.000271,29.8801049 130.187154,35.0948519 131.793354,36.1174863" id="Path-29" stroke="#FFC30F" fill="#FFC30F" transform="translate(128.484322, 33.556659) scale(-1, 1) rotate(32.000000) translate(-128.484322, -33.556659) "></path>
                <path d="M117.594363,114.556659 C117.594363,117.272853 115.806028,121.931933 116.769127,123.97141 C117.732226,126.010887 123.109722,127.196877 123.822261,126.194053 C124.441292,125.322832 126.320254,120.88244 125.056706,118.157192 C123.793157,115.431945 119.973389,115.165866 118.106384,114.749942 L117.594363,114.556659 Z" id="Path-30" fill="#263345" transform="translate(120.984322, 120.556659) scale(-1, 1) rotate(32.000000) translate(-120.984322, -120.556659) "></path>
                <path d="M118.174794,141.77045 C118.449079,144.027317 118.166477,150.497937 118.866786,149.440897 C119.475192,148.522574 124.530633,140.396771 123.288772,137.524187 C122.046912,134.651602 119.319281,133.99507 117.484322,133.556659 C117.484322,133.556659 117.900508,139.513583 118.174794,141.77045 Z" id="Path-30" fill="#263345" transform="translate(120.484322, 141.556659) scale(-1, 1) rotate(32.000000) translate(-120.484322, -141.556659) "></path>
                <path d="M121.594363,60.5566593 C121.594363,63.2728525 119.806028,67.9319332 120.769127,69.9714103 C121.732226,72.0108874 127.109722,73.1968766 127.822261,72.1940527 C128.441292,71.3228316 130.320254,66.8824396 129.056706,64.1571923 C127.793157,61.4319451 123.973389,61.1658663 122.106384,60.7499418 L121.594363,60.5566593 Z" id="Path-30" fill="#263345" transform="translate(124.984322, 66.556659) scale(-1, 1) rotate(-15.000000) translate(-124.984322, -66.556659) "></path>
                <path d="M121.594363,89.5566593 C121.594363,92.2728525 119.806028,96.9319332 120.769127,98.9714103 C121.732226,101.010887 127.109722,102.196877 127.822261,101.194053 C128.441292,100.322832 130.320254,95.8824396 129.056706,93.1571923 C127.793157,90.4319451 123.973389,90.1658663 122.106384,89.7499418 L121.594363,89.5566593 Z" id="Path-30" fill="#263345" transform="translate(124.984322, 95.556659) scale(-1, 1) rotate(2.000000) translate(-124.984322, -95.556659) "></path>
                <path d="M129.155284,34.5566593 C125.185047,31.7049515 128.96126,26.7511088 133.484322,31.5868225" id="Path-31" stroke="#263345" stroke-linecap="round" transform="translate(130.484322, 32.056659) scale(-1, 1) rotate(32.000000) translate(-130.484322, -32.056659) "></path>
                <g id="Group-5" transform="translate(59.930519, 145.556659) scale(-1, 1) rotate(242.000000) translate(-59.930519, -145.556659) translate(51.430519, 98.056659)">
                    <path d="M16.5875426,6.16848032 C14.4116623,9.55068119 14.519625,19.5972948 14.519625,19.5972948 C14.519625,19.5972948 6.59960107,32.8396828 6.71258309,47.6345901 C6.82556512,62.4294975 14.9168292,94.600349 13.2767339,94.9093892 C10.5044463,95.4317663 0.575262103,53.0667 0.575262103,47.6336715 C0.575262103,40.0775429 6.51715139,20.7202201 6.71258309,15.6876461 C6.90801479,10.6550721 8.17897104,16.5718417 6.71258309,11.189718 C5.04590055,5.07244755 12.4329177,1.2643509 13.2767339,0.355000927 L16.5875426,6.16848032 Z" id="Path-116" fill="#FFD410"></path>
                    <path d="M8.41922524,22.7999347 C16.2537984,30.4754524 0.180915971,21.7656708 8.83703929,22.6587072" id="Path-2" fill="#263345" transform="translate(8.419275, 24.291019) scale(-1, 1) rotate(32.000000) translate(-8.419275, -24.291019) "></path>
                    <path d="M4.1030225,37.1541991 C11.9375956,44.8297168 -4.13528677,36.1199352 4.52083655,37.0129716" id="Path-2" fill="#263345" transform="translate(4.103072, 38.645284) scale(-1, 1) rotate(32.000000) translate(-4.103072, -38.645284) "></path>
                    <path d="M4.81276302,51.5055756 C12.6473361,59.1810932 -3.42554625,50.4713116 5.23057707,51.3643481" id="Path-2" fill="#263345" transform="translate(4.812812, 52.996660) scale(-1, 1) rotate(32.000000) translate(-4.812812, -52.996660) "></path>
                    <path d="M6.95807477,66.5737163 C14.7926479,74.249234 -1.2802345,65.5394524 7.37588882,66.4324888" id="Path-2" fill="#263345" transform="translate(6.958124, 68.064801) scale(-1, 1) rotate(32.000000) translate(-6.958124, -68.064801) "></path>
                    <path d="M12.4956266,90.3839639 C13.5546488,94.9190155 14.4641732,94.4349705 10.6177725,92.8390547" id="Path-3" stroke="#263345"></path>
                </g>
                <g id="Group-5" transform="translate(169.984322, 130.056659) rotate(226.000000) translate(-169.984322, -130.056659) translate(161.484322, 82.556659)">
                    <path d="M16.5875426,6.16848032 C14.4116623,9.55068119 14.519625,19.5972948 14.519625,19.5972948 C14.519625,19.5972948 6.59960107,32.8396828 6.71258309,47.6345901 C6.82556512,62.4294975 14.9168292,94.600349 13.2767339,94.9093892 C10.5044463,95.4317663 0.575262103,53.0667 0.575262103,47.6336715 C0.575262103,40.0775429 6.51715139,20.7202201 6.71258309,15.6876461 C6.90801479,10.6550721 8.17897104,16.5718417 6.71258309,11.189718 C5.04590055,5.07244755 12.4329177,1.2643509 13.2767339,0.355000927 L16.5875426,6.16848032 Z" id="Path-116" fill="#FFD410"></path>
                    <path d="M8.41922524,22.7999347 C16.2537984,30.4754524 0.180915971,21.7656708 8.83703929,22.6587072" id="Path-2" fill="#263345" transform="translate(8.419275, 24.291019) scale(-1, 1) rotate(32.000000) translate(-8.419275, -24.291019) "></path>
                    <path d="M4.1030225,37.1541991 C11.9375956,44.8297168 -4.13528677,36.1199352 4.52083655,37.0129716" id="Path-2" fill="#263345" transform="translate(4.103072, 38.645284) scale(-1, 1) rotate(32.000000) translate(-4.103072, -38.645284) "></path>
                    <path d="M4.81276302,51.5055756 C12.6473361,59.1810932 -3.42554625,50.4713116 5.23057707,51.3643481" id="Path-2" fill="#263345" transform="translate(4.812812, 52.996660) scale(-1, 1) rotate(32.000000) translate(-4.812812, -52.996660) "></path>
                    <path d="M6.95807477,66.5737163 C14.7926479,74.249234 -1.2802345,65.5394524 7.37588882,66.4324888" id="Path-2" fill="#263345" transform="translate(6.958124, 68.064801) scale(-1, 1) rotate(32.000000) translate(-6.958124, -68.064801) "></path>
                </g>
                <g id="Group-35" transform="translate(99.484322, 140.556659)" stroke="#00A2F2">
                    <path d="M19.6930318,92.1188261 C24.2767664,95.0324067 29.386169,90.6582776 33.8719935,89.3148882 C38.9661653,87.7893144 36.7734827,51.9986663 36.5028906,46.5906668 C36.2853319,42.2425815 41.2952421,39.802427 41.2594457,35.459455 C41.2236493,31.116483 37.9738203,22.7392811 38.435897,23.6820392 C39.8770147,26.6222992 40.9011865,22.4365839 47.6623947,20.4508099 C54.4236028,18.4650359 53.5284529,7.53091948 52.8182851,6.86350978 C46.4586857,0.886811894 34.3053167,4.59787937 32.7287459,4.75201412 C31.1521752,4.90614887 31.5396665,10.2917809 21.5635455,8.61384724 C19.9659719,8.34514336 19.1224388,4.83115682 17.1572861,3.52783426 C16.2452922,2.92298442 11.932495,2.99622257 10.1459509,6.03193024 C8.35940678,9.0676379 8.61301424,16.1420445 9.05056098,16.3925426 C9.40263518,16.5941072 7.77210867,56.0766729 6.23147487,72.4594071 C5.78330533,77.2251356 3.87861394,86.8790079 5.36193953,89.6102415 C6.84526512,92.3414751 19.010931,91.6852593 19.6930318,92.1188261 Z" id="Path-89" fill="#FFFFFF" transform="translate(29.053085, 48.164072) rotate(-366.000000) translate(-29.053085, -48.164072) "></path>
                    <path d="M19.3030006,40.5987157 C30.0073438,45.4329731 25.4614836,42.3191129 33.2777992,49.2954869" id="Path-113"></path>
                </g>
                <path d="M89.0777213,144.134421 C86.5895663,148.884736 95.4198463,166.520728 95.4198463,166.520728 C111.910205,168.611331 109.982276,158.996171 106.809672,148.925784" id="Path-172" stroke="#00A2F2" fill="#FFFFFF" transform="translate(98.793482, 155.471878) rotate(89.000000) translate(-98.793482, -155.471878) "></path>
                <path d="M127.484322,43.5566593 C129.418806,41.0315554 130.607583,37.8547412 133.484322,40.6384358" id="Path-186" stroke="#263345"></path>
                <path d="M136.484322,41.5566593 C139.674089,37.4455471 139.819998,36.0682863 143.484322,39.5023126" id="Path-187" stroke="#263345"></path>
                <path d="M199.484322,94.5566593 C199.484322,101.683571 199.258176,104.583794 196.484322,97.4060537" id="Path-5" stroke="#263345" transform="translate(197.984322, 98.056659) rotate(-120.000000) translate(-197.984322, -98.056659) "></path>
                <g id="Group-7" transform="translate(128.500000, 119.000000) scale(-1, 1) translate(-128.500000, -119.000000) translate(94.000000, 103.000000)" fill="#FFCB79">
                    <polygon id="Star-5" points="62 7.05124932 57 10 59.9487507 5 57 -2.04725126e-13 62 2.94875068 67 -2.06501483e-13 64.0512493 5 67 10"></polygon>
                    <polygon id="Star-5" points="64 29.0512493 59 32 61.9487507 27 59 22 64 24.9487507 69 22 66.0512493 27 69 32"></polygon>
                    <polygon id="Star-5" points="10.6066017 14.9579586 3.55271368e-15 21.2132034 6.25524481 10.6066017 0 1.77635684e-15 10.6066017 6.25524481 21.2132034 -1.77635684e-15 14.9579586 10.6066017 21.2132034 21.2132034"></polygon>
                </g>
            </g>
            <g id="Group-91" filter="url(#filter-1)" transform="translate(65.500000, 122.500000) scale(-1, -1) rotate(-12.000000) translate(-65.500000, -122.500000) translate(39.000000, 96.000000)">
                <rect id="Rectangle-71" fill="#263345" transform="translate(27.000000, 27.000000) rotate(-45.000000) translate(-27.000000, -27.000000) " x="25" y="-7" width="4" height="68"></rect>
                <rect id="Rectangle-71" fill="#FFFFFF" transform="translate(10.000000, 10.000000) rotate(-45.000000) translate(-10.000000, -10.000000) " x="8" y="-1" width="4" height="22"></rect>
            </g>
        </g>
    </g>
</svg>