<?xml version="1.0" encoding="UTF-8"?>
<svg width="230px" height="295px" viewBox="0 0 230 295" version="1.1" xmlns="http://www.w3.org/2000/svg" xmlns:xlink="http://www.w3.org/1999/xlink">
    <!-- Generator: Sketch 46.1 (44463) - http://www.bohemiancoding.com/sketch -->
    <title>Group 7</title>
    <desc>Created with Sketch.</desc>
    <defs></defs>
    <g id="App" stroke="none" stroke-width="1" fill="none" fill-rule="evenodd">
        <g id="Group-7" transform="translate(-1.000000, 0.000000)">
            <path d="M140,101.718206 C118.295,100.549623 106.031308,95.1425191 99.4096155,72.5556246 C98.0163609,67.8031695 97.4176299,62.8299693 96.9709283,57.8960274 C96.623145,54.0546649 96.6087075,48.687743 94.0528065,45.8095064 C91.6542046,43.1084066 90.2945557,41.5814892 88.7678268,44.8602746 C85.5359967,51.8009153 85.6303863,61.1908161 86.5717216,68.794813 C90.0823698,97.1534179 112.330843,109.320628 138.516491,112" id="Path-4" stroke="#00A2F2" fill="#FFFFFF" transform="translate(113.000000, 77.500000) scale(-1, 1) translate(-113.000000, -77.500000) "></path>
            <g id="Group-37" transform="translate(0.000000, 17.000000)">
                <g id="Group-31" transform="translate(0.356033, 0.016072)">
                    <g id="Group-3" transform="translate(115.723665, 139.500000) scale(-1, 1) translate(-115.723665, -139.500000) translate(0.723665, -0.000000)">
                        <g id="Group-5" transform="translate(0.000000, 0.466388)">
                            <g id="Group-79" transform="translate(96.744276, 21.000000)">
                                <path d="M65.8718849,78.0057601 C65.3871749,69.4152142 63.5917485,45.1491591 64.5298624,36.595537 C65.5357751,27.4237323 78.5706631,12.506413 65.8718849,4.25888631 C45.6423297,-8.87968445 38.983122,14.0377713 25.9170569,21.6056579 C17.2658792,26.6164343 1.01712626,27.5782004 4.156266,41.6252274 C4.6298496,43.74442 10.7004388,34.9902961 12.1752301,36.595537 C14.6172326,39.2535417 19.3927047,36.0976436 22.733427,34.6311005 C27.0643356,32.7298758 31.8066301,31.681514 36.5204494,31.2165176 C39.4997531,30.9226231 42.6063196,31.389191 45.423729,32.3928074 C59.8540393,37.5331669 47.2552437,76.6058865 60.7018177,78.0057601 L65.8718849,78.0057601 Z" id="Path-26" fill="#FF939F"></path>
                                <ellipse id="Oval-3" fill="#263345" cx="45.4452046" cy="11.9348307" rx="1.85357434" ry="1.83612779"></ellipse>
                                <ellipse id="Oval-3" fill="#263345" cx="38.9576944" cy="11.0167668" rx="1.85357434" ry="1.83612779"></ellipse>
                                <path d="M30.0471786,18.4158856 C31.3531265,19.8660877 33.0181765,21.0828653 33.9650223,22.7664919 C35.4239635,25.3606973 39.8335514,32.526381 37.1549128,31.0544489 L31.3465749,32.1322364 C29.1105518,30.9035249 29.1966075,27.5854619 27.4891514,25.7430404 C26.238802,24.3938574 21.9301372,24.4570106 22.7188747,22.8225618" id="Path-31" fill="#FFC6CD"></path>
                                <path d="M24.0216278,22.0881411 C25.4088383,23.5258165 27.177496,24.7320838 28.1832593,26.4011673 C28.7944885,27.415514 31.5568143,30.3011366 30.795806,32.2818062 C30.2884672,33.6022526 27.7693787,34.5656091 23.2385404,35.1718757 C22.1215053,33.7456945 23.1181299,31.1785114 21.3044274,29.3520046 C19.9762749,28.0144757 14.8031374,26.8255181 15.6409542,25.2051876" id="Path-31" fill="#FF8593"></path>
                                <path d="M15.7343511,25.0996538 C11.1608648,27.6214852 7.28805618,27.8810351 3.33509475,32.0352197 C1.80921557,33.6387728 -0.0437538103,39.4211575 0.203629295,42.888955 C0.451012401,46.3567526 4.62985875,53.7316064 5.62611529,53.7316064 C7.35682183,53.7316064 8.7955363,40.3065703 11.9713854,39.4156301 C15.6448936,38.3850785 19.9717925,36.8839928 22.7774235,35.2114879 C22.7774235,35.2114879 24.7791165,28.1669077 17.6365696,25.7461897 L15.7343511,25.0996538 Z" id="Path-32" fill="#263345"></path>
                                <path d="M38.4653777,1.76009811 C42.8802586,0.403598889 41.4278296,-0.426344926 43.4841711,2.09645342" id="Path-33" stroke="#263345"></path>
                                <path d="M44.9528879,2.67816201 C49.3677688,1.32166279 47.9153398,0.49171897 49.9716813,3.01451731" id="Path-33" stroke="#263345"></path>
                                <path d="M19.7454746,28.9598368 C33.566841,29.2880331 27.7566603,31.3654723 37.635812,24.191929" id="Path-81" stroke="#263345"></path>
                                <path d="M34.7956554,23.6839852 C39.4698724,23.6839852 38.0381498,22.6414405 37.5547385,28.215018" id="Path-88" stroke="#263345"></path>
                            </g>
                            <path d="M115.238577,277.041124 C158.228701,277.041124 140.950424,271.63493 160.515399,258.844002 C180.080374,246.053074 229.696792,242.649815 229.696792,235.269217 C229.696792,223.64161 188.834865,229.56919 167.828119,221.996065 C146.821373,214.422939 146.591574,193.49731 115.238577,193.49731 C79.1669295,193.49731 94.1641109,201.420078 73.1848902,210.936175 C52.2056694,220.452271 0.780361504,225.363698 0.780361504,235.269217 C0.780361504,258.339204 52.02505,277.041124 115.238577,277.041124 Z" id="Oval-4" fill="#F7F9FB"></path>
                            <path d="M70.8231228,224.543991 C69.8350179,235.388115 70.854421,233.482034 74.8498624,224.227544" id="Path-55" fill="#FF7080"></path>
                            <path d="M178.452201,168.326068 C177.013346,183.428679 180.417204,170.478732 172.407789,178.68896 C171.166665,179.961202 174.357334,183.214669 175.143317,182.959037 C182.349968,180.615149 191.604789,169.116899 179.13105,168.270229 L178.452201,168.326068 Z" id="Path-12" fill="#C1CCE2"></path>
                            <path d="M178.676873,173.147543 C192.231292,173.604894 177.426254,167.857273 178.888892,172.760958" id="Path-37" fill="#D8D8D8"></path>
                            <path d="M140.391622,176.97143 C126.46134,237.886441 134.89788,226.216914 142.478511,193.926954 C145.716152,180.136106 145.558696,173.750932 141.670277,175.525018 C140.386014,176.110961 140.442492,178.048472 139.828599,179.310198" id="Path-7" fill="#A2A0A0" transform="translate(138.840279, 197.832023) rotate(-17.000000) translate(-138.840279, -197.832023) "></path>
                            <path d="M106.100497,189.824324 C92.1702153,250.739336 100.606754,239.069808 108.187385,206.779849 C111.425027,192.989001 111.267571,186.603826 107.379151,188.377913 C106.094889,188.963856 106.151367,190.901366 105.537474,192.163093" id="Path-7" stroke="#979797" fill="#D8D8D8"></path>
                            <path d="M137.611261,199.923027 C123.680979,260.838039 132.117518,249.168511 139.698149,216.878551 C142.935791,203.087704 142.778335,196.702529 138.889915,198.476615 C137.605652,199.062558 137.66213,201.000069 137.048238,202.261796" id="Path-7" fill="#D8D8D8" transform="translate(136.059917, 220.783620) rotate(-10.000000) translate(-136.059917, -220.783620) "></path>
                            <path d="M177.463109,191.660452 C163.532827,252.575464 171.969366,240.905936 179.549997,208.615976 C182.787639,194.825129 182.630183,188.439954 178.741763,190.21404 C177.457501,190.799983 177.513979,192.737494 176.900086,193.999221" id="Path-7" fill="#D8D8D8" transform="translate(175.911765, 212.521045) rotate(-13.000000) translate(-175.911765, -212.521045) "></path>
                            <path d="M170.449547,64.796205 C189.233738,65.4570293 194.411542,73.7565171 192.050553,110.900072 C190.881993,129.284078 189.304011,147.689632 186.574768,165.536348 C185.358757,173.487928 176.820918,172.006805 171.766075,169.669179 C164.306624,166.219534 163.214825,135.534002 162.92182,128.048426 C162.608757,120.050428 162.280547,111.891245 163.063745,103.997024 C164.677102,87.7352345 167.139036,74.6682948 170.449547,64.796205 Z" id="Path-9" fill="#E7EBEE"></path>
                            <path d="M104.549153,186.052497 C114.706987,190.50121 124.514519,195.890172 135.022653,199.398635 C148.142669,203.779155 172.41314,197.686537 177.592079,190.054411 C182.771017,182.422285 170.801881,176.299438 151.673093,175.025197 C140.796391,174.300659 135.756454,174.728636 125.12402,177.05062 C108.258975,180.733723 112.619853,177.988121 104.776128,184.622452 L104.549153,186.052497 Z" id="Path-16" fill="#E7EBEE"></path>
                            <path d="M140.874964,185.029767 C138.904729,185.48161 97.7784855,194.810588 94.7563165,196.73955 C88.4835485,200.743276 88.9870217,213.281876 82.3741196,220.671152 C75.7612175,228.060428 76.2136575,227.989511 71.5925931,226.187354 C68.8419041,225.114619 67.843807,218.296214 67.8568195,218.062325 C68.008524,215.335577 70.5457194,211.232348 71.5925931,208.652845 C74.6124516,201.211895 78.3837539,197.831011 81.3175195,190.365022 C83.5735326,184.623811 85.6115834,183.196935 90.0459055,178.469479 C103.85878,163.743498 182.988054,170.550969 136.487703,186.242622" id="Path-22" fill="#A2E4EB"></path>
                            <path d="M94.4397106,243.182629 C93.3593184,246.772495 89.45182,261.534962 102.555269,254.46226 C104.931182,253.17984 103.249116,248.731678 104.756454,246.431329 C111.598459,235.989744 107.90813,235.524004 112.538216,222.783411 C114.81278,216.524501 113.614609,212.74349 117.412097,207.342084 C125.747194,195.486553 159.878775,200.54152 172.304969,187.540814 C172.897719,186.920659 175.736284,183.789022 176.199458,180.508193 C176.662632,177.227363 174.809006,172.637283 173.981815,172.087024 C157.555534,161.160048 117.44925,187.886253 105.338728,194.411424 C101.566007,196.444173 96.0251907,233.1713 94.2526194,238.73986 L94.4397106,243.182629 Z" id="Path-21" fill="#A2E4EB"></path>
                            <path d="M136.051636,140.383601 C136.16842,146.302493 137.786046,153.985307 137.736635,159.905675 C137.673849,167.4287 136.895512,170.165826 139.995887,172.719493 C142.774561,175.008186 144.00068,172.046074 146.514286,174.77134 C151.099659,179.742827 166.916745,180.970185 171.377847,177.817319 C176.933159,173.891124 173.223202,157.042806 175.104637,136.900617 C176.986072,116.758429 171.354692,116.097994 175.104637,106.031492 C184.737506,80.1726319 163.525282,77.9208733 162.039446,78.0226923 C160.322334,78.1403597 165.942425,87.6701648 155.701372,87.6701648 C154.90734,87.6701648 147.765759,84.0341455 150.350277,78.8459866 C151.678385,76.1799446 132.617846,85.7560932 135.055537,93.7797607 C137.079955,99.2677292 137.973654,106.39709 137.736635,115.167843 C137.381107,128.323973 135.853028,130.31764 136.051636,140.383601 Z" id="Path-23" stroke="#00A2F2" fill="#FFFFFF"></path>
                            <g id="Group-4" transform="translate(221.127616, 16.068039) rotate(87.000000) translate(-221.127616, -16.068039) translate(207.127616, 9.568039)">
                                <path d="M27.1777842,5.64598217 C24.146178,5.85440269 11.7023126,6.00549049 8.68966543,5.40281118 C6.58370794,4.98151491 4.81763305,1.34330905 2.71150389,1.76220371 C1.6151645,1.98025811 0.31237449,6.65825097 1.41043663,6.85059992 L7.61106592,11.8368407 C11.3846154,12.4978582 24.119302,11.8339866 27.8942246,11.1952217 L27.1777842,5.64598217 Z" id="Path-27" fill="#FF939F"></path>
                                <path d="M5.98113808,8.7543189 C4.97244819,3.80946518 2.76883198,-3.930562 0.896798096,5.02103697" id="Path-28" stroke="#263345"></path>
                            </g>
                            <path d="M139.608006,127.778466 C143.582956,126.082812 147.557905,124.387158 151.532854,122.691504" id="Path-54" stroke="#00A2F2"></path>
                            <path d="M95.8463764,256.676228 C94.8582715,267.520351 95.8776746,265.61427 99.8731159,256.359781" id="Path-55" fill="#FF7080"></path>
                            <path d="M95.3544606,259.735784 C97.876986,259.751628 99.5056212,256.225911 101.336335,256.967205 C103.16705,257.708498 102.516276,262.653843 103.270817,262.945927 C104.090666,263.263291 101.926872,264.964023 98.3268247,266.863624 C94.7267776,268.763226 94.9844013,267.899917 93.4752229,268.815516 C87.9906199,272.142957 87.9775684,273.872335 86.1563167,274.618548 C70.4869085,281.038705 76.5498457,271.689748 77.1748536,271.216195 C82.1260303,267.464817 86.637508,263.924351 91.8296597,260.507577 C94.059883,258.203865 95.2348167,257.023741 95.3544606,256.967205 C95.4741046,256.910668 95.4741046,257.833528 95.3544606,259.735784 Z" id="Path-56" fill="#E7EBEE"></path>
                            <path d="M68.4776327,227.603548 C71.0001582,227.619392 72.6287934,224.093675 74.4595076,224.834968 C76.2902218,225.576262 75.6394484,230.521607 76.3939889,230.813691 C77.2138378,231.131055 75.050044,232.831786 71.4499968,234.731388 C67.8499497,236.63099 68.1075735,235.76768 66.5983951,236.68328 C61.1137921,240.01072 61.1007405,241.740099 59.2794888,242.486312 C43.6100807,248.906468 49.6730179,239.557511 50.2980258,239.083959 C55.2492024,235.33258 59.7606801,231.792115 64.9528318,228.37534 C67.1830551,226.071629 68.3579888,224.891504 68.4776327,224.834968 C68.5972767,224.778432 68.5972767,225.701292 68.4776327,227.603548 Z" id="Path-56" fill="#E7EBEE" transform="translate(62.596887, 234.731388) rotate(13.000000) translate(-62.596887, -234.731388) "></path>
                            <g id="Group-6" transform="translate(98.648731, 15.249826) rotate(105.000000) translate(-98.648731, -15.249826) translate(85.148731, 9.749826)">
                                <path d="M26.6588425,1.95164089 C23.6272363,2.16006141 10.8273285,4.70704503 7.81468133,4.10436572 C5.70872383,3.68306945 3.94264895,0.044863589 1.83651978,0.463758252 C0.740180392,0.681812647 -0.562609615,5.35980551 0.535452527,5.55215446 L6.73608181,10.5383953 C10.5096313,11.1994128 14.285927,9.26086553 18.0608496,8.62210067 L26.3239625,6.40800624 L26.6588425,1.95164089 Z" id="Path-27" fill="#FF939F"></path>
                                <path d="M5.10615397,8.45587344 C4.09746408,3.51101972 1.89384788,-4.22900746 0.0218139911,4.72259151" id="Path-28" stroke="#263345"></path>
                            </g>
                        </g>
                    </g>
                </g>
            </g>
            <path d="M59,102.693017 C37.4234026,101.521571 25.2322601,96.1012199 18.6497407,73.4589898 C17.2647284,68.6948916 16.6695393,63.7095076 16.2254803,58.7634781 C15.8797544,54.9127046 16.7470754,47.2207461 14.2062946,44.3354582 C11.8218824,41.6277409 7.07372769,43.3605283 5.55603063,46.6473463 C2.34331952,53.6049909 4.9520268,62.0663386 5.88779342,69.6889646 C9.37767326,98.1170453 31.494529,110.314063 57.5252676,113" id="Path-4" stroke="#00A2F2" fill="#FFFFFF"></path>
            <polygon id="Star" fill="#FFCB78" points="168.911914 11.6947661 163 13.2527767 167.305234 8.9119142 165.747223 3 170.088086 7.30523392 176 5.74722325 171.694766 10.0880858 173.252777 16"></polygon>
            <polygon id="Star" fill="#FFBC51" points="146.459541 15.3830477 136 18.1395281 143.616952 10.4595405 140.860472 0 148.540459 7.61695231 159 4.8604719 151.383048 12.5404595 154.139528 23"></polygon>
        </g>
    </g>
</svg>