<?xml version="1.0" encoding="UTF-8"?>
<svg width="222px" height="347px" viewBox="0 0 222 347" version="1.1" xmlns="http://www.w3.org/2000/svg" xmlns:xlink="http://www.w3.org/1999/xlink">
    <!-- Generator: Sketch 46.1 (44463) - http://www.bohemiancoding.com/sketch -->
    <title>Group 44</title>
    <desc>Created with Sketch.</desc>
    <defs></defs>
    <g id="App" stroke="none" stroke-width="1" fill="none" fill-rule="evenodd">
        <g id="Group-44" transform="translate(0.000000, -9.000000)">
            <g id="Group-4" transform="translate(10.000000, 299.112957)" fill="#F7F9FB">
                <path d="M23.6130829,55.9949277 C61.7207306,55.9949277 211.822371,37.9705627 211.822371,33 C211.822371,28.0294373 167.039616,0.785234742 128.931969,0.785234742 C103.52687,0.785234742 64.0946635,4.7398709 10.6353487,12.6491432 C-6.117927,41.5463329 -1.79201562,55.9949277 23.6130829,55.9949277 Z" id="Oval-32"></path>
            </g>
            <path d="M80,304.112957 C83.3824258,338.166588 85.7395443,322.078939 86,304.702975" id="Path-106" fill="#FFD410" transform="translate(83.000000, 314.112957) scale(-1, 1) translate(-83.000000, -314.112957) "></path>
            <path d="M61,318.112957 C64.3824258,338.545136 66.7395443,328.892546 67,318.466968" id="Path-106" fill="#FFD410" transform="translate(64.000000, 324.112957) scale(-1, 1) translate(-64.000000, -324.112957) "></path>
            <path d="M102.498436,322.365548 C97.1730293,321.102444 90.5026879,317.009337 85.0944,316.13784 C83.8096982,315.930821 82.5815539,317.084504 81.8735246,317.053717 C81.1654954,317.02293 80.0443364,316.29079 79.1778158,316.13784 C79.1778158,316.13784 75.6836435,322.844192 77.5471867,324.965398 C79.4107299,327.086603 88.4406408,326.396905 90.2319585,326.742034 C91.9466122,327.072392 102.886612,327.377761 105.718475,326.742034 C108.550337,326.106307 106.338678,323.276394 102.498436,322.365548 Z" id="Path-173" fill="#263345"></path>
            <path d="M84.4984361,332.365548 C79.1730293,331.102444 72.5026879,327.009337 67.0944,326.13784 C65.8096982,325.930821 64.5815539,327.084504 63.8735246,327.053717 C63.1654954,327.02293 62.0443364,326.29079 61.1778158,326.13784 C61.1778158,326.13784 57.6836435,332.844192 59.5471867,334.965398 C61.4107299,337.086603 70.4406408,336.396905 72.2319585,336.742034 C73.9466122,337.072392 84.8866123,337.377761 87.7184749,336.742034 C90.5503374,336.106307 88.3386779,333.276394 84.4984361,332.365548 Z" id="Path-173" fill="#263345"></path>
            <path d="M57.6812572,200.112957 C57.2515611,227.93094 47.2987114,303.532114 52.5017589,303.818358 L57.6812572,305.583704 C60.8482136,305.757933 66.4129392,308.618186 67.1618751,304.624879 C69.1828263,293.849218 65.7332543,278.832913 65.9517819,264.141097 C66.1703096,249.449281 67.0391285,252.489852 67.1618751,247.411151 C67.2666735,243.075063 67.0834193,231.614686 70.0075969,226.638859 C71.1304353,224.72822 67.3389096,293.230106 70.0075969,316.153318 C70.1789104,317.624849 79.3810722,319.20742 80.526392,319.10855 C85.7939525,318.653828 80.1914158,253.040999 85.3753345,239.426346 C88.5594553,231.063812 89.8739323,218.000842 88.3933522,208.448586 C86.912772,198.89633 85.6868578,203.552331 85.3753345,200.112957 L57.6812572,200.112957 Z" id="Path-105" fill="#A2E4EB" transform="translate(70.000000, 259.612957) scale(-1, 1) translate(-70.000000, -259.612957) "></path>
            <path d="M58.0407203,55.3151252 C58.0407203,55.3151252 46.7212946,77.9648824 39.0613738,81.6168925 C36.4915418,82.8421079 34.9098545,81.7202279 33.3664452,81.6168925 C31.823036,81.5135572 28.5903789,80.881757 27.9562175,80.2452654 C24.8559223,77.1335782 29.9984488,61.0819556 33.3664452,48.1798516 C36.7344417,35.2777476 29.3255926,37.2047451 33.3664452,28.9004657 C37.4072979,20.5961864 41.3096264,15.1129572 49.725,15.1129572 C56.8606771,15.1129572 58.4070865,20.6085589 60.1581101,23.204997 C61.9091338,25.8014352 62.021725,34.2045751 62.021725,34.2045751 L70.3924958,47.5982425 C70.3924958,47.5982425 77.3758074,60.5990013 88.4059329,74.105213 C99.4360583,87.6114248 113,109.80532 113,109.80532 C113,109.80532 107.062459,112.596858 102.972758,116.06993 C100.717292,117.985325 58.0407203,55.3151252 58.0407203,55.3151252 Z" id="Rectangle-45" fill="#FED75F" transform="translate(70.000000, 65.612957) scale(-1, 1) rotate(32.000000) translate(-70.000000, -65.612957) "></path>
            <path d="M87.0016246,58.3911581 C87.0016246,58.3911581 86.8856119,57.9803507 88.6142986,58.3911581 C90.3429853,58.8019655 91.9746283,61.1129572 91.9746283,61.1129572 C91.9746283,61.1129572 96.8200177,59.5037836 102.48549,54.5579293 C108.150961,49.6120751 108.899876,38.8378441 107.19383,36.1129572" id="Path-24" stroke="#263345" stroke-linecap="round" transform="translate(97.500000, 48.612957) scale(-1, 1) rotate(32.000000) translate(-97.500000, -48.612957) "></path>
            <path d="M84,40.1129572 C83.674158,40.8971626 81.3706588,41.8287518 81.0448168,42.6129572 C80.7189748,43.3971626 82.2891383,44.2304959 81.9224704,45.1129572" id="Path-25" stroke="#263345" stroke-linecap="round" transform="translate(82.500000, 42.612957) scale(-1, 1) rotate(-85.000000) translate(-82.500000, -42.612957) "></path>
            <path d="M103.481244,58.1129572 C101.033176,47.8505236 101.241657,53.8223112 107,45.1129572" id="Path-26" stroke="#263345" stroke-linecap="round" transform="translate(104.500000, 51.612957) scale(-1, 1) rotate(32.000000) translate(-104.500000, -51.612957) "></path>
            <path d="M108,49.1129572 C107.219409,48.4462906 106.780591,48.7796239 106,48.1129572" id="Path-27" stroke="#263345" stroke-linecap="round" transform="translate(107.000000, 48.612957) scale(-1, 1) rotate(32.000000) translate(-107.000000, -48.612957) "></path>
            <path d="M61.1100415,86.1129572 C61.1100415,88.8291505 59.3217061,93.4882311 60.2848052,95.5277082 C61.2479044,97.5671853 66.6254004,98.7531745 67.3379396,97.7503506 C67.9569708,96.8791295 69.8359326,92.4387375 68.5723841,89.7134903 C67.3088357,86.988243 63.4890675,86.7221642 61.6220619,86.3062397 L61.1100415,86.1129572 Z" id="Path-30" fill="#263345" transform="translate(64.500000, 92.112957) scale(-1, 1) rotate(32.000000) translate(-64.500000, -92.112957) "></path>
            <path d="M61.690472,113.326748 C61.9647578,115.583615 61.6821549,122.054235 62.382464,120.997195 C62.9908699,120.078872 68.0463111,111.953069 66.8044505,109.080484 C65.5625899,106.2079 62.8349598,105.551368 61,105.112957 C61,105.112957 61.4161862,111.069881 61.690472,113.326748 Z" id="Path-30" fill="#263345" transform="translate(64.000000, 113.112957) scale(-1, 1) rotate(32.000000) translate(-64.000000, -113.112957) "></path>
            <path d="M65.1100415,32.1129572 C65.1100415,34.8291505 63.3217061,39.4882311 64.2848052,41.5277082 C65.2479044,43.5671853 70.6254004,44.7531745 71.3379396,43.7503506 C71.9569708,42.8791295 73.8359326,38.4387375 72.5723841,35.7134903 C71.3088357,32.988243 67.4890675,32.7221642 65.6220619,32.3062397 L65.1100415,32.1129572 Z" id="Path-30" fill="#263345" transform="translate(68.500000, 38.112957) scale(-1, 1) rotate(-15.000000) translate(-68.500000, -38.112957) "></path>
            <path d="M65.1100415,61.1129572 C65.1100415,63.8291505 63.3217061,68.4882311 64.2848052,70.5277082 C65.2479044,72.5671853 70.6254004,73.7531745 71.3379396,72.7503506 C71.9569708,71.8791295 73.8359326,67.4387375 72.5723841,64.7134903 C71.3088357,61.988243 67.4890675,61.7221642 65.6220619,61.3062397 L65.1100415,61.1129572 Z" id="Path-30" fill="#263345" transform="translate(68.500000, 67.112957) scale(-1, 1) rotate(2.000000) translate(-68.500000, -67.112957) "></path>
            <g id="Group-5" transform="translate(43.500000, 178.612957) rotate(-3.000000) translate(-43.500000, -178.612957) translate(35.000000, 131.112957)">
                <path d="M16.5875426,6.16848032 C14.4116623,9.55068119 14.519625,19.5972948 14.519625,19.5972948 C14.519625,19.5972948 6.59960107,32.8396828 6.71258309,47.6345901 C6.82556512,62.4294975 14.9168292,94.600349 13.2767339,94.9093892 C10.5044463,95.4317663 0.575262103,53.0667 0.575262103,47.6336715 C0.575262103,40.0775429 6.51715139,20.7202201 6.71258309,15.6876461 C6.90801479,10.6550721 8.17897104,16.5718417 6.71258309,11.189718 C5.04590055,5.07244755 12.4329177,1.2643509 13.2767339,0.355000927 L16.5875426,6.16848032 Z" id="Path-116" fill="#FFD410"></path>
                <path d="M8.41922524,22.7999347 C16.2537984,30.4754524 0.180915971,21.7656708 8.83703929,22.6587072" id="Path-2" fill="#263345" transform="translate(8.419275, 24.291019) scale(-1, 1) rotate(32.000000) translate(-8.419275, -24.291019) "></path>
                <path d="M4.1030225,37.1541991 C11.9375956,44.8297168 -4.13528677,36.1199352 4.52083655,37.0129716" id="Path-2" fill="#263345" transform="translate(4.103072, 38.645284) scale(-1, 1) rotate(32.000000) translate(-4.103072, -38.645284) "></path>
                <path d="M4.81276302,51.5055756 C12.6473361,59.1810932 -3.42554625,50.4713116 5.23057707,51.3643481" id="Path-2" fill="#263345" transform="translate(4.812812, 52.996660) scale(-1, 1) rotate(32.000000) translate(-4.812812, -52.996660) "></path>
                <path d="M6.95807477,66.5737163 C14.7926479,74.249234 -1.2802345,65.5394524 7.37588882,66.4324888" id="Path-2" fill="#263345" transform="translate(6.958124, 68.064801) scale(-1, 1) rotate(32.000000) translate(-6.958124, -68.064801) "></path>
                <path d="M12.4956266,90.3839639 C13.5546488,94.9190155 14.4641732,94.4349705 10.6177725,92.8390547" id="Path-3" stroke="#263345"></path>
            </g>
            <g id="Group-5" transform="translate(84.500000, 178.612957) rotate(-3.000000) translate(-84.500000, -178.612957) translate(76.000000, 131.112957)">
                <path d="M16.5875426,6.16848032 C14.4116623,9.55068119 14.519625,19.5972948 14.519625,19.5972948 C14.519625,19.5972948 6.59960107,32.8396828 6.71258309,47.6345901 C6.82556512,62.4294975 14.9168292,94.600349 13.2767339,94.9093892 C10.5044463,95.4317663 0.575262103,53.0667 0.575262103,47.6336715 C0.575262103,40.0775429 6.51715139,20.7202201 6.71258309,15.6876461 C6.90801479,10.6550721 8.17897104,16.5718417 6.71258309,11.189718 C5.04590055,5.07244755 12.4329177,1.2643509 13.2767339,0.355000927 L16.5875426,6.16848032 Z" id="Path-116" fill="#FFD410"></path>
                <path d="M8.41922524,22.7999347 C16.2537984,30.4754524 0.180915971,21.7656708 8.83703929,22.6587072" id="Path-2" fill="#263345" transform="translate(8.419275, 24.291019) scale(-1, 1) rotate(32.000000) translate(-8.419275, -24.291019) "></path>
                <path d="M4.1030225,37.1541991 C11.9375956,44.8297168 -4.13528677,36.1199352 4.52083655,37.0129716" id="Path-2" fill="#263345" transform="translate(4.103072, 38.645284) scale(-1, 1) rotate(32.000000) translate(-4.103072, -38.645284) "></path>
                <path d="M4.81276302,51.5055756 C12.6473361,59.1810932 -3.42554625,50.4713116 5.23057707,51.3643481" id="Path-2" fill="#263345" transform="translate(4.812812, 52.996660) scale(-1, 1) rotate(32.000000) translate(-4.812812, -52.996660) "></path>
                <path d="M6.95807477,66.5737163 C14.7926479,74.249234 -1.2802345,65.5394524 7.37588882,66.4324888" id="Path-2" fill="#263345" transform="translate(6.958124, 68.064801) scale(-1, 1) rotate(32.000000) translate(-6.958124, -68.064801) "></path>
            </g>
            <g id="Group-35" transform="translate(43.000000, 113.112957)" stroke="#00A2F2">
                <path d="M19.7007715,91.26651 C24.2845061,94.1800905 29.3939088,89.8059614 33.8797333,88.462572 C38.9739051,86.9369982 36.7812225,51.1463501 36.5106304,45.7383506 C36.2930717,41.3902653 41.3029818,38.9501109 41.2671855,34.6071388 C41.2313891,30.2641668 37.9815601,21.8869649 38.4436367,22.829723 C39.8847545,25.769983 40.1130582,31.0892273 41.7681141,29.8740315 C42.7665019,29.1409827 47.9293742,29.2249771 49.7546678,24.0115647 C51.5799614,18.7981523 49.4809708,11.2679846 48.770803,10.6005749 C42.4112036,4.62387697 34.3130565,3.7455632 32.7364857,3.89969795 C31.159915,4.0538327 31.5474063,9.43946473 21.5712853,7.76153106 C19.9737117,7.49282719 19.1301786,3.97884065 17.1650259,2.67551809 C16.253032,2.07066825 11.9402348,2.14390639 10.1536907,5.17961406 C8.36714656,8.21532173 8.62075402,15.2897283 9.05830076,15.5402265 C9.41037496,15.7417911 7.77984845,55.2243567 6.23921465,71.6070909 C5.79104511,76.3728194 3.88635372,86.0266918 5.36967931,88.7579254 C6.8530049,91.489159 19.0186708,90.8329431 19.7007715,91.26651 Z" id="Path-89" fill="#FFFFFF" transform="translate(27.647967, 47.311756) rotate(-366.000000) translate(-27.647967, -47.311756) "></path>
                <path d="M19.3030006,39.5987157 C30.0073438,44.4329731 25.4614836,41.3191129 33.2777992,48.2954869" id="Path-113"></path>
            </g>
            <path d="M48.2819309,119.112957 C45.3593966,121.720757 42.6306978,122.749663 40.1425429,127.499978 C37.6543879,132.250293 36.9395245,144.959177 40.1425429,145.365247 L41.4686843,149.824351 C57.9590434,151.914954 56.0311142,142.299794 52.8585098,132.229406" id="Path-172" stroke="#00A2F2" fill="#FFFFFF" transform="translate(46.500000, 134.612957) rotate(9.000000) translate(-46.500000, -134.612957) "></path>
            <path d="M91,219.112957 C91,226.239869 90.7738544,229.140092 88,221.962352" id="Path-5" stroke="#263345"></path>
            <polygon id="Star" fill="#FFCB78" points="32.9119142 110.807723 27 112.365734 31.3052339 108.024871 29.7472233 102.112957 34.0880858 106.418191 40 104.86018 35.6947661 109.201043 37.2527767 115.112957"></polygon>
            <polygon id="Star" fill="#FFBC51" points="10.4595405 114.496005 0 117.252485 7.61695231 109.572498 4.8604719 99.1129572 12.5404595 106.72991 23 103.973429 15.3830477 111.653417 18.1395281 122.112957"></polygon>
        </g>
    </g>
</svg>