<?xml version="1.0" encoding="UTF-8"?>
<svg width="231px" height="231px" viewBox="0 0 231 231" version="1.1" xmlns="http://www.w3.org/2000/svg" xmlns:xlink="http://www.w3.org/1999/xlink">
    <!-- Generator: Sketch 46.1 (44463) - http://www.bohemiancoding.com/sketch -->
    <title>Group 5</title>
    <desc>Created with Sketch.</desc>
    <defs></defs>
    <g id="App" stroke="none" stroke-width="1" fill="none" fill-rule="evenodd">
        <g id="Group-5">
            <circle id="Oval-34" fill="#F7F9FB" transform="translate(115.500000, 115.500000) scale(-1, 1) translate(-115.500000, -115.500000) " cx="115.5" cy="115.5" r="115.5"></circle>
            <path d="M79.9314958,224.141818 C79.4830211,202.340535 84.8585315,164.030883 73.2600481,67.996075 C72.587194,62.4248798 75.0264467,54.4814342 78.3657005,48.7425925 C79.46012,46.8617233 83.3333808,46.510717 84.8585315,48.0629214 C88.3064754,51.5720261 89.8033154,56.7283052 90.9198989,61.5194818 C93.3105054,71.7773954 94.2418401,83.4169152 95.2878878,92.8145097 C100.609506,140.623431 102.329808,186.335613 100.448795,229.951055" id="Path-36" fill="#FF939F"></path>
            <path d="M148.783523,224.055316 C148.335048,202.254034 153.710559,163.944382 142.112075,67.9095737 C141.439221,62.3383786 143.878474,54.3949329 147.217728,48.6560913 C148.312147,46.775222 152.185408,46.4242158 153.710559,47.9764201 C157.158502,51.4855249 158.655342,56.6418039 159.771926,61.4329806 C162.162532,71.6908941 163.093867,83.330414 164.139915,92.7280085 C169.461533,140.53693 171.181835,186.249111 169.300822,229.864553" id="Path-36" fill="#FF939F" transform="translate(156.018840, 138.432277) scale(-1, 1) translate(-156.018840, -138.432277) "></path>
            <g id="Group-7" transform="translate(162.000000, 126.000000) scale(1, -1) translate(-162.000000, -126.000000) translate(107.000000, 79.000000)">
                <polygon id="Star-5" fill="#FFCB79" points="11.5 86.9964021 0.539844892 93.4601551 7.00359786 82.5 0.539844892 71.5398449 11.5 78.0035979 22.4601551 71.5398449 15.9964021 82.5 22.4601551 93.4601551"></polygon>
                <polygon id="Star-5" fill="#FFCB79" points="63 63.0512493 58 66 60.9487507 61 58 56 63 58.9487507 68 56 65.0512493 61 68 66"></polygon>
                <polygon id="Star-5" fill="#FFCB79" points="23 43.0512493 18 46 20.9487507 41 18 36 23 38.9487507 28 36 25.0512493 41 28 46"></polygon>
                <g id="Group-6" transform="translate(79.500000, 30.000000) rotate(-79.000000) translate(-79.500000, -30.000000) translate(54.000000, 4.000000)">
                    <rect id="Rectangle-71" fill="#263345" transform="translate(25.478662, 26.101618) rotate(-45.000000) translate(-25.478662, -26.101618) " x="23.3714108" y="-7.60789391" width="4.21450186" height="67.4190235"></rect>
                    <rect id="Rectangle-71" fill="#FFFFFF" transform="translate(9.439304, 10.007347) rotate(-45.000000) translate(-9.439304, -10.007347) " x="7.33205263" y="-0.941428836" width="4.21450186" height="21.8975526"></rect>
                </g>
            </g>
            <path d="M150.534865,81.4722563 C151.563215,72.1483095 151.456506,63.8060188 155.482176,55.2593648 C159.98437,45.7010329 168.982468,53.4855542 168.921273,60.9011242 C168.836094,71.2231121 167.923532,81.5216787 167.424661,91.8319559" id="Path-38" stroke="#263345" stroke-width="3"></path>
            <path d="M73.5348655,81.4722563 C74.5632147,72.1483095 74.456506,63.8060188 78.4821765,55.2593648 C82.9843705,45.7010329 91.9824678,53.4855542 91.9212731,60.9011242 C91.836094,71.2231121 90.9235316,81.5216787 90.4246608,91.8319559" id="Path-38" stroke="#263345" stroke-width="3" transform="translate(82.728225, 71.328932) scale(-1, 1) translate(-82.728225, -71.328932) "></path>
            <path d="M77.6950886,120.36809 C84.6657619,119.835426 92.2424812,115.877775 98.6071086,118.770098 C102.030149,120.325655 102.234974,128.151067 98.9860138,130.043479 C92.6881537,133.711774 83.8887147,134.054329 77.1552437,131.2651 C73.9941639,129.955675 77.1552437,124.421996 77.1552437,121.000443 L77.6950886,120.36809 Z" id="Path-39" fill="#C3DAFF"></path>
            <circle id="Oval-7" fill="#D8D8D8" cx="88.5" cy="125.5" r="9.5"></circle>
            <path d="M87.5,119.5 L87.5,126.5" id="Line-5" stroke="#979797" stroke-linecap="square"></path>
            <path d="M87.5,126.5 L92.5,125.5" id="Line-6" stroke="#979797" stroke-linecap="square"></path>
        </g>
    </g>
</svg>