<?xml version="1.0" encoding="UTF-8"?>
<svg width="55px" height="106px" viewBox="0 0 55 106" version="1.1" xmlns="http://www.w3.org/2000/svg" xmlns:xlink="http://www.w3.org/1999/xlink">
    <!-- Generator: Sketch 44.1 (41455) - http://www.bohemiancoding.com/sketch -->
    <title>Group 9</title>
    <desc>Created with Sketch.</desc>
    <defs></defs>
    <g id="MVP" stroke="none" stroke-width="1" fill="none" fill-rule="evenodd">
        <g id="Group-9">
            <path d="M0.286618624,106.004589 C2.32213718,79.1757166 3.68960266,51.5265918 6.09454993,24.7737198 C6.55670685,19.6326405 8.54028661,17.6430645 11.4660326,16.1493309 C13.7410975,14.9878013 13.6446214,20.9445588 13.7217629,22.1935238 C14.1554501,29.2151639 14.543818,36.2620166 14.5591878,43.3167842 C14.6483847,84.2581267 14.5928829,74.677838 11.4660326,103.644824 L0.286618624,106.004589 Z" id="Path-14" fill="#FF939F"></path>
            <path d="M20.1415558,101.877737 C22.1770743,80.5373526 23.6896027,63.5191146 26.0945499,42.2391825 C26.5567068,38.1498339 28.5402866,36.5672733 31.4660326,35.3791186 C33.7410975,34.4552077 33.6446214,39.1933679 33.7217629,40.1868273 C34.1554501,45.772023 34.543818,51.3772734 34.5591878,56.9888195 C34.6483847,89.5546312 35.2423468,76.3975248 32.1154966,99.4386209 L20.1415558,101.877737 Z" id="Path-14" fill="#CCCCCC"></path>
            <path d="M40.1415558,97.8777374 C42.1770743,66.523338 43.6896027,41.5192608 46.0945499,10.2536816 C46.5567068,4.24539872 48.5402866,1.92021862 51.4660326,0.174520256 C53.7410975,-1.18293763 53.6446214,5.77861303 53.7217629,7.238255 C54.1554501,15.444314 54.543818,23.6798383 54.5591878,31.9246128 C54.6483847,79.771991 55.2423468,60.4408885 52.1154966,94.2940611 L40.1415558,97.8777374 Z" id="Path-14" fill="#F9BE61"></path>
            <path d="M5.27250245,26.170119 C7.03351624,9.23190185 10.7327601,14.068969 13.9224433,28.7397734" id="Path-16" stroke="#263345"></path>
            <path d="M46.1425111,13.0236837 C47.7443443,-4.88402719 51.9068933,1.58594678 52.2107748,15.4771186" id="Path-18" stroke="#263345"></path>
            <path d="M45.6237423,63.2737083 C46.8121262,52.213558 55.0047494,55.2364472 53.3788063,65.2990975" id="Path-20" fill="#263345"></path>
            <path d="M42.6237423,95.2737083 C43.8121262,84.213558 52.0047494,87.2364472 50.3788063,97.2990975" id="Path-20" fill="#263345" transform="translate(46.607614, 92.776399) rotate(-30.000000) translate(-46.607614, -92.776399) "></path>
            <path d="M41.6237423,85.2737083 C42.8121262,74.213558 49.8332355,73.9151019 48.2072924,83.9777523 C47.4274866,88.8038207 46.9285946,79.8808091 45.0967054,84.6625568" id="Path-20" fill="#263345"></path>
            <path d="M49.8308537,37.0000788 C50.0096377,39.2241419 50.9745942,41.5252936 50.3672055,43.6722681 C45.0351248,62.519905 38.2937102,38.492022 49.3073852,36.9173545 L49.8308537,37.0000788 Z" id="Path-21" fill="#263345"></path>
            <path d="M52.8308537,18.0000788 C53.0096377,20.2241419 53.9745942,22.5252936 53.3672055,24.6722681 C48.0351248,43.519905 41.2937102,19.492022 52.3073852,17.9173545 L52.8308537,18.0000788 Z" id="Path-21" fill="#263345"></path>
            <path d="M27.0430664,46.2016191 C27.0430664,38.1766297 30.747246,33.1060601 32.4442352,45.8828109" id="Path-57" stroke="#263345"></path>
        </g>
    </g>
</svg>