<?xml version="1.0" encoding="UTF-8"?>
<svg width="73px" height="73px" viewBox="0 0 73 73" version="1.1" xmlns="http://www.w3.org/2000/svg" xmlns:xlink="http://www.w3.org/1999/xlink">
    <!-- Generator: Sketch 44.1 (41455) - http://www.bohemiancoding.com/sketch -->
    <title>Group</title>
    <desc>Created with Sketch.</desc>
    <defs></defs>
    <g id="MVP-ONBOARDNG" stroke="none" stroke-width="1" fill="none" fill-rule="evenodd">
        <g id="Group">
            <circle id="Oval" fill="#FF939F" cx="36.5" cy="36.5" r="36.5"></circle>
            <path d="M35.900496,52.6701811 C35.900496,52.6701811 19.4036008,37.5063476 19.4036008,32.1764799 C19.4036008,26.5180625 21.38912,24.1006398 27.6520484,24.1006398 C29.5079491,24.1006398 35.900496,29.5947823 35.900496,29.5947823 C35.900496,29.5947823 42.2930429,24.1006398 44.1489436,24.1006398 C50.411872,24.1006398 52.3973912,26.5180625 52.3973912,32.1764799 C52.3973912,37.5063476 35.900496,52.6701811 35.900496,52.6701811 L35.900496,52.6701811 Z M44.1489436,21.9024333 C40.6138946,21.9024333 35.900496,27.3971253 35.900496,27.3971253 C35.900496,27.3971253 31.1870974,21.9024333 27.6520484,21.9024333 C20.4935742,21.9024333 17.0469015,25.1445269 17.0469015,31.8468314 C17.0469015,38.1650953 35.900496,55.9666667 35.900496,55.9666667 C35.900496,55.9666667 54.7540905,38.1650953 54.7540905,31.8468314 C54.7540905,25.1445269 51.3074178,21.9024333 44.1489436,21.9024333 L44.1489436,21.9024333 Z" id="Fill-183" fill="#FFFFFF"></path>
        </g>
    </g>
</svg>