<?xml version="1.0" encoding="UTF-8"?>
<svg width="74px" height="81px" viewBox="0 0 74 81" version="1.1" xmlns="http://www.w3.org/2000/svg" xmlns:xlink="http://www.w3.org/1999/xlink">
    <!-- Generator: Sketch 44.1 (41455) - http://www.bohemiancoding.com/sketch -->
    <title>Group 13</title>
    <desc>Created with Sketch.</desc>
    <defs></defs>
    <g id="MVP-ONBOARDNG" stroke="none" stroke-width="1" fill="none" fill-rule="evenodd">
        <g id="Group-13">
            <g id="Group" transform="translate(0.000000, 28.062679)" fill="#FF939F">
                <path d="M8.31414513,2.31453455 C0.21462363,6.94255633 -1.25977491,37.6378756 3.40495308,50.6898752 C5.26364805,55.8905398 8.89961022,48.9842072 17.025664,47.5836122 C25.1517178,46.1830171 27.5386769,38.9704637 30.5266974,31.5171572 C32.4931291,26.6120978 32.1630754,9.64736466 27.8225544,5.57657951 C22.6546825,0.729858066 16.4136666,-2.31348723 8.31414513,2.31453455 Z" id="Path-21"></path>
                <path d="M50.1475064,2.29185681 C42.0479849,6.91987859 40.5735864,37.6151979 45.2383144,50.6671974 C47.0970094,55.8678621 50.7329715,48.9615294 58.8590253,47.5609344 C66.9850791,46.1603394 69.3720383,38.947786 72.3600587,31.4944795 C74.3264904,26.58942 73.9964367,9.62468692 69.6559157,5.55390177 C64.4880438,0.707180326 58.2470279,-2.33616497 50.1475064,2.29185681 Z" id="Path-21" transform="translate(58.059571, 26.289447) scale(-1, 1) translate(-58.059571, -26.289447) "></path>
            </g>
            <path d="M22.4124862,43.2924124 C23.9378108,52.7043707 24.830261,48.1953269 18.8646659,56.6177439" id="Path-23" stroke="#E37E89"></path>
            <path d="M16.8317779,34.1400819 C10.9655961,33.3866468 11.3017714,34.0208256 10.6917537,40.0399552" id="Path-24" stroke="#E37E89"></path>
            <path d="M10.8052215,47.019824 C9.92930748,53.5536692 11.3801217,50.5874205 5.48544692,55.376345" id="Path-25" stroke="#E37E89"></path>
            <path d="M6.28564601,65.1072399 C12.0855503,65.271031 7.94083148,68.8268589 17.7190146,72.7788525" id="Path-26" stroke="#E37E89"></path>
            <path d="M27.5984468,65.8846545 C24.6462363,61.9510097 26.6685938,63.6075056 20.955527,61.716106" id="Path-27" stroke="#E37E89"></path>
            <path d="M65.4124862,43.2924124 C66.9378108,52.7043707 67.830261,48.1953269 61.8646659,56.6177439" id="Path-23" stroke="#E37E89"></path>
            <path d="M59.8317779,34.1400819 C53.9655961,33.3866468 54.3017714,34.0208256 53.6917537,40.0399552" id="Path-24" stroke="#E37E89"></path>
            <path d="M53.8052215,47.019824 C52.9293075,53.5536692 54.3801217,50.5874205 48.4854469,55.376345" id="Path-25" stroke="#E37E89"></path>
            <path d="M49.285646,65.1072399 C55.0855503,65.271031 50.9408315,68.8268589 60.7190146,72.7788525" id="Path-26" stroke="#E37E89"></path>
            <path d="M70.5984468,65.8846545 C67.6462363,61.9510097 69.6685938,63.6075056 63.955527,61.716106" id="Path-27" stroke="#E37E89"></path>
            <path d="M21.0919929,29.4753064 C25.2552869,26.2382062 31.1591841,21.2129863 32.7825309,16.315383 C34.4058777,11.4177797 31.4964652,1.24748771 31.4964652,0.647628944 C31.4964652,0.0477701737 37.9146581,-0.281162123 38.6917607,0.314761909 C39.4688632,0.910685942 38.428132,14.0520134 39.737382,16.315383 C41.4304703,19.242314 46.3791728,23.9171832 54.5834897,30.3399908 C51.2670626,40.3857789 41.5225629,22.4179913 34.984887,27.2691233 C31.5516058,29.8167107 28.6060902,33.131494 25.4166917,36.0626793" id="Path-22" fill="#FF939F"></path>
        </g>
    </g>
</svg>