<?xml version="1.0" encoding="UTF-8"?>
<svg width="40px" height="51px" viewBox="0 0 40 51" version="1.1" xmlns="http://www.w3.org/2000/svg" xmlns:xlink="http://www.w3.org/1999/xlink">
    <!-- Generator: Sketch 44.1 (41455) - http://www.bohemiancoding.com/sketch -->
    <title>Path 28</title>
    <desc>Created with Sketch.</desc>
    <defs></defs>
    <g id="MVP-ONBOARDNG" stroke="none" stroke-width="1" fill="none" fill-rule="evenodd">
        <path d="M0.829014513,23.4800753 C-2.59919456,35.9992944 4.71908941,50.294814 20.6675599,50.294814 C36.6160305,50.294814 39.4455511,39.7550035 39.1911754,27.9372622 C39.084797,22.9951549 36.2047172,19.1827605 34.6399001,15.641668 C33.0750831,12.1005755 34.6395074,9.63442804 33.4858633,9.67304494 C28.3222295,9.84589162 29.991678,23.1268824 28.9133646,22.8615241 C27.1780006,22.4344747 23.8213913,16.954824 23.1111057,10.9809768 C22.4008201,5.00712948 24.4088523,6.10576669e-15 23.5624697,0 C18.7585336,-3.5908863e-14 11.762289,9.46957451 11.4358166,15.2469713 C11.2213898,19.0415613 11.8472705,20.8647527 11.8472705,25.147407 C11.8472705,25.8826578 9.0963667,24.536472 7.51518885,21.4421164 C5.93401099,18.3477608 6.84690407,16.0521625 5.43780938,16.0521625 C4.34322607,16.0521625 2.80696112,18.5281334 0.829014513,23.4800753 Z" id="Path-28" fill="#F2C100"></path>
        <path d="M18.0286456,49.5290426 C21.0909305,49.7686304 22.0045445,48.3688969 25.0142105,47.8704735 C27.2168324,47.5057026 28.9324033,46.0428646 30.4201256,44.7350368 C39.3349819,36.8981593 3.04512983,34.5178521 14.2617031,48.5503044 L18.0286456,49.5290426 Z" id="Path-29" fill="#F39C11" transform="translate(21.966420, 43.994594) rotate(-180.000000) translate(-21.966420, -43.994594) "></path>
        <path d="M23.5238505,47.4561687 C36.6208631,39.1850479 13.0165654,42.4059727 20.1046924,49.4302206 L23.5238505,47.4561687 Z" id="Path-30" fill="#DD7630" transform="translate(23.152123, 45.988332) rotate(-150.000000) translate(-23.152123, -45.988332) "></path>
    </g>
</svg>