<?xml version="1.0" encoding="UTF-8"?>
<svg width="368px" height="81px" viewBox="0 0 368 81" version="1.1" xmlns="http://www.w3.org/2000/svg" xmlns:xlink="http://www.w3.org/1999/xlink">
    <!-- Generator: Sketch 44.1 (41455) - http://www.bohemiancoding.com/sketch -->
    <title>Group 15</title>
    <desc>Created with Sketch.</desc>
    <defs></defs>
    <g id="MVP-ONBOARDNG" stroke="none" stroke-width="1" fill="none" fill-rule="evenodd">
        <g id="Group-15">
            <path d="M1.17253248,31.1503414 C5.70377567,47.1083278 9.86974716,41.0108444 19.8855654,53.9247658 C23.0974111,58.0659674 35.82573,80.0949307 39.2772564,80.0949307 C42.7287829,80.0949307 52.4195167,63.0204294 54.2028202,60.8590142 C63.4592085,49.6400047 62.7268002,51.27531 72.1772087,40.2192402 C73.9094586,38.1926744 75.4130663,35.8551839 76.2053556,33.309612 C84.158618,7.75631681 55.2895681,1.8964171 39.2772564,17.6394812 C26.9808447,10.4105405 -6.6744123,3.5152239 1.17253248,31.1503414 Z" id="Path-31" fill="#FF939F"></path>
            <polyline id="Line" stroke="#E37E89" stroke-linecap="square" points="40.3082264 40.312898 54.3082264 30.312898 61.4634927 39.6263243 75.9893266 26.5417896 90.274089 44.6067567 119.799351 14.5514797 137.144523 33.9312263 148.874955 23.2522764 159.794976 31.8744257 194.339994 1.23100287 229.409898 41.7891279 253.992341 2.20554681 277.201875 36.1743871 287.164449 17.9128015 308.445411 34.4338858 325.075918 14.9019736 343.219533 27.1470327 367.424126 0"></polyline>
            <path d="M32.1505688,62.2953516 C35.816656,57.3830064 38.6206959,57.731096 42.7130608,53.6440092" id="Path-33" stroke="#E37E89"></path>
            <path d="M29.0471891,49.0190014 C29.0471891,43.0154635 29.6760892,47.2314101 18.3503793,42.0114524" id="Path-34" stroke="#E37E89"></path>
            <path d="M54.5854708,18.2256976 C62.5846562,15.3353355 59.9565586,14.0134304 62.5543511,22.018575" id="Path-35" stroke="#E37E89"></path>
            <path d="M15.5661642,20.9689778 C11.672214,25.7968547 14.359241,24.2487006 6.66921227,23.6885924" id="Path-36" stroke="#E37E89"></path>
            <path d="M28.2211398,26.5922082 C22.8753202,26.7676665 23.7097197,31.9732887 26.1221112,35.359805" id="Path-32" stroke="#E37E89"></path>
        </g>
    </g>
</svg>