<?xml version="1.0" encoding="UTF-8"?>
<svg width="68px" height="58px" viewBox="0 0 68 58" version="1.1" xmlns="http://www.w3.org/2000/svg" xmlns:xlink="http://www.w3.org/1999/xlink">
    <!-- Generator: Sketch 44.1 (41455) - http://www.bohemiancoding.com/sketch -->
    <title>Group 11</title>
    <desc>Created with Sketch.</desc>
    <defs></defs>
    <g id="MVP-ONBOARDNG" stroke="none" stroke-width="1" fill="none" fill-rule="evenodd">
        <g id="Group-11">
            <path d="M6.85300767,29.9542429 C3.35626817,26.2245865 -3.06329087,18.5038393 1.69126876,12.2023063 C5.74245154,6.83300529 14.0630282,10.2210963 16.2225753,9.40183556 C16.7178252,9.2139541 18.016549,4.00988836 22.0471258,2.71400158 C27.2367109,1.04547746 27.1404582,3.94620144 30.077092,3.40066623 C33.0137258,2.85513103 35.0355328,-1.5552073 41.7348524,0.579397139 C48.434172,2.71400158 44.6970697,5.63126194 47.7506368,6.79698181 C49.347425,7.40656648 49.9894888,1.81578393 56.5549076,4.19662483 C63.1203263,6.57746573 57.3920761,11.8336306 60.3353334,15.7106764 C62.3361583,18.3462904 64.6408137,13.9743866 66.7722374,19.6465652 C68.9036611,25.3187438 65.1336054,28.0099933 64.2948737,29.6467366 C62.824073,32.5169311 71.431923,35.4261989 61.6494765,40.3554144 C59.9607043,41.2063592 56.9396591,36.0549115 56.995561,38.0017154 C57.163508,43.8505363 62.463267,48.8009435 62.5560363,54.6514397 C62.5748974,55.8409139 56.9717043,59.8020031 55.1616186,57.048087 C53.0685571,53.8636435 52.0557528,50.0547219 49.9894888,46.8528255 C49.5686065,46.2006234 41.2323191,52.58035 32.9770576,45.9827738 C30.4218675,43.9406748 22.6573813,55.8049384 17.270181,49.9215485 C15.8754708,48.3983781 17.3478894,44.7201377 15.407707,44.0123546 C13.1988113,43.2065443 7.46028345,50.9608887 2.84417231,44.0123546 C-0.233235116,39.3799986 1.10304334,34.6939613 6.85300767,29.9542429 Z" id="Path-10" fill="#FF939F"></path>
            <path d="M18.6068489,14.018388 C22.8093642,17.0318268 18.487132,20.9786711 24.1672943,22.4456016" id="Path-12" stroke="#E47E89"></path>
            <path d="M6.73616334,29.6276775 C12.4365264,29.1293898 9.51122799,30.0514669 15.1418403,25.8842876" id="Path-13" stroke="#E37E89"></path>
            <path d="M16.0727024,44.2749963 C18.7675747,36.0986068 16.1229577,39.0878953 24.2390831,35.5183516" id="Path-14" stroke="#E37E89"></path>
            <path d="M47.7092519,7.02296322 C47.6001239,14.2344236 46.7678055,11.0542499 49.5845362,16.7048864" id="Path-15" stroke="#E37E89"></path>
            <path d="M50.0750934,46.1566618 C49.1856738,35.3856591 51.6007829,39.8025346 42.0084194,33.3894133" id="Path-16" stroke="#E37E89"></path>
            <path d="M64.1496967,29.508827 C61.261126,28.464698 58.3725553,27.4205691 55.4839846,26.3764401" id="Path-17" stroke="#E37E89"></path>
            <path d="M33.7989653,27.718094 C40.8559565,23.3072042 38.4664798,26.4386998 40.7265895,18.1446517" id="Path-18" stroke="#E37E89"></path>
            <path d="M29.3719861,3.83553818 C29.0738595,9.28351831 28.8033078,10.807614 33.8444316,12.9718661" id="Path-19" stroke="#E37E89"></path>
        </g>
    </g>
</svg>