<?xml version="1.0" encoding="UTF-8"?>
<svg width="386px" height="305px" viewBox="0 0 386 305" version="1.1" xmlns="http://www.w3.org/2000/svg" xmlns:xlink="http://www.w3.org/1999/xlink">
    <!-- Generator: Sketch 46.2 (44496) - http://www.bohemiancoding.com/sketch -->
    <title>Group 35</title>
    <desc>Created with Sketch.</desc>
    <defs></defs>
    <g id="App" stroke="none" stroke-width="1" fill="none" fill-rule="evenodd" opacity="0.04">
        <g id="Group-35" transform="translate(-6.000000, -16.000000)" stroke="#3C3C3C" stroke-width="10">
            <path d="M235.160221,301.31069 C255.042472,301.31069 271.160221,285.192941 271.160221,265.31069 C271.160221,245.428439 255.042472,189.009753 235.160221,189.009753 C215.27797,189.009753 199.160221,245.428439 199.160221,265.31069 C199.160221,285.192941 215.27797,301.31069 235.160221,301.31069 Z" id="Oval-11"></path>
            <path d="M135.160221,121.31069 C155.042472,121.31069 171.160221,105.192941 171.160221,85.3106898 C171.160221,65.4284388 155.042472,9.00975265 135.160221,9.00975265 C115.27797,9.00975265 99.1602212,65.4284388 99.1602212,85.3106898 C99.1602212,105.192941 115.27797,121.31069 135.160221,121.31069 Z" id="Oval-11" transform="translate(135.160221, 65.160221) rotate(45.000000) translate(-135.160221, -65.160221) "></path>
            <path d="M28.1548329,315.740396 C38.2618397,315.740396 46.4551876,307.547048 46.4551876,297.440041 C46.4551876,287.333034 38.2618397,258.65298 28.1548329,258.65298 C18.0478261,258.65298 9.85447817,287.333034 9.85447817,297.440041 C9.85447817,307.547048 18.0478261,315.740396 28.1548329,315.740396 Z" id="Oval-11" transform="translate(28.154833, 287.196688) rotate(-21.000000) translate(-28.154833, -287.196688) "></path>
            <path d="M368.154833,145.740396 C378.26184,145.740396 386.455188,137.547048 386.455188,127.440041 C386.455188,117.333034 378.26184,88.6529798 368.154833,88.6529798 C358.047826,88.6529798 349.854478,117.333034 349.854478,127.440041 C349.854478,137.547048 358.047826,145.740396 368.154833,145.740396 Z" id="Oval-11" transform="translate(368.154833, 117.196688) rotate(-210.000000) translate(-368.154833, -117.196688) "></path>
        </g>
    </g>
</svg>