<?xml version="1.0" encoding="UTF-8"?>
<svg width="433px" height="294px" viewBox="0 0 433 294" version="1.1" xmlns="http://www.w3.org/2000/svg" xmlns:xlink="http://www.w3.org/1999/xlink">
    <!-- Generator: Sketch 45.2 (43514) - http://www.bohemiancoding.com/sketch -->
    <title>Group 16</title>
    <desc>Created with Sketch.</desc>
    <defs></defs>
    <g id="Dashboard" stroke="none" stroke-width="1" fill="none" fill-rule="evenodd" opacity="0.03">
        <g id="Group-16" transform="translate(-14.000000, -14.000000)" fill="#3C3C3C">
            <g id="Group-2" transform="translate(54.027281, 125.665750) rotate(-380.000000) translate(-54.027281, -125.665750) translate(12.027281, 84.665750)">
                <path d="M26.2837091,18.1350843 L58.4044033,18.1350843 L58.4044033,23.9193044 C58.4044033,23.9193044 51.3826068,23.7519991 51.3826068,29.2500503 C51.3826068,34.7481016 58.4044033,34.8300778 58.4044033,34.8300778 L58.4044033,46.8573788 C58.4044033,46.8573788 51.3826068,46.6570664 51.3826068,52.4183636 C51.3826068,58.1796609 58.4044033,57.7380605 58.4044033,57.7380605 L58.4044033,63.1208269 L26.2837091,63.1208269 L26.2837091,57.710838 C26.2837091,57.7380605 33.5276485,58.3192904 33.5276485,52.4183636 C33.5276485,46.5174369 26.2837091,46.8573788 26.2837091,46.8573788 L26.2837091,34.8300778 C26.2837091,34.8300778 33.2362675,34.8775588 33.2362675,29.2500503 C33.2362675,23.6225418 26.4570545,23.9625761 26.2837091,23.9625761 L26.2837091,18.1350843 Z" id="Rectangle-28" transform="translate(42.344056, 40.627956) rotate(-30.000000) translate(-42.344056, -40.627956) "></path>
                <rect id="Rectangle-27" transform="translate(42.278250, 40.924237) rotate(-300.000000) translate(-42.278250, -40.924237) " x="35.5427634" y="11.9618153" width="13.4709731" height="57.9248425" rx="6.73548657"></rect>
                <rect id="Rectangle-27" transform="translate(29.349134, 21.110018) rotate(-300.000000) translate(-29.349134, -21.110018) " x="22.6136479" y="-7.98452586" width="13.4709731" height="58.1890883" rx="6.73548657"></rect>
                <rect id="Rectangle-27" transform="translate(55.199540, 60.710998) rotate(-300.000000) translate(-55.199540, -60.710998) " x="48.4640537" y="31.5000403" width="13.4709731" height="58.4219157" rx="6.73548657"></rect>
            </g>
            <g id="Group-2" transform="translate(142.831936, 54.575624) rotate(-380.000000) translate(-142.831936, -54.575624) translate(100.831936, 12.575624)">
                <path d="M26.7737822,17.9642228 L57.1797119,17.9642228 L57.1797119,24.0283318 C57.1797119,24.0283318 50.5327743,23.8529308 50.5327743,29.6170237 C50.5327743,35.3811166 57.1797119,35.4670594 57.1797119,35.4670594 L57.1797119,48.0763418 C57.1797119,48.0763418 50.5327743,47.8663366 50.5327743,53.9064135 C50.5327743,59.9464904 57.1797119,59.4835217 57.1797119,59.4835217 L57.1797119,65.1267513 L26.7737822,65.1267513 L26.7737822,59.4549819 C26.7737822,59.4835217 33.6310036,60.0928764 33.6310036,53.9064135 C33.6310036,47.7199506 26.7737822,48.0763418 26.7737822,48.0763418 L26.7737822,35.4670594 C26.7737822,35.4670594 33.355178,35.516838 33.355178,29.6170237 C33.355178,23.7172093 26.9378736,24.0736973 26.7737822,24.0736973 L26.7737822,17.9642228 Z" id="Rectangle-28" transform="translate(41.976747, 41.545487) rotate(-30.000000) translate(-41.976747, -41.545487) "></path>
                <rect id="Rectangle-27" transform="translate(41.914454, 41.856105) rotate(-300.000000) translatae(-41.914454, -41.856105) " x="35.5385415" y="11.4922395" width="12.7518247" height="60.7277301" rx="6.37591236"></rect>
                <rect id="Rectangle-27" transform="translate(29.675560, 21.083109) rotate(-300.000000) translate(-29.675560, -21.083109) " x="23.2996474" y="-9.41927226" width="12.7518247" height="61.0047623" rx="6.37591236"></rect>
                <rect id="Rectangle-27" transform="translate(54.145941, 62.600315) rotate(-300.000000) translate(-54.145941, -62.600315) " x="47.7700283" y="31.9758869" width="12.7518247" height="61.2488559" rx="6.37591236"></rect>
            </g>
            <g id="Group-2" transform="translate(191.947450, 157.537205) rotate(-342.000000) translate(-191.947450, -157.537205) translate(149.447450, 116.537205)">
                <path d="M26.2837091,18.2730481 L58.4044033,18.2730481 L58.4044033,24.1038401 C58.4044033,24.1038401 51.3826068,23.9351877 51.3826068,29.4775067 C51.3826068,35.0198258 58.4044033,35.102462 58.4044033,35.102462 L58.4044033,47.2266014 C58.4044033,47.2266014 51.3826068,47.0246761 51.3826068,52.8323606 C51.3826068,58.6400452 58.4044033,58.1948892 58.4044033,58.1948892 L58.4044033,63.6209952 L26.2837091,63.6209952 L26.2837091,58.1674475 C26.2837091,58.1948892 33.5276485,58.780799 33.5276485,52.8323606 C33.5276485,46.8839223 26.2837091,47.2266014 26.2837091,47.2266014 L26.2837091,35.102462 C26.2837091,35.102462 33.2362675,35.1503253 33.2362675,29.4775067 C33.2362675,23.8046881 26.4570545,24.1474602 26.2837091,24.1474602 L26.2837091,18.2730481 Z" id="Rectangle-28" transform="translate(42.344056, 40.947022) rotate(-30.000000) translate(-42.344056, -40.947022) "></path>
                <rect id="Rectangle-27" transform="translate(42.278250, 41.245688) rotate(-300.000000) translate(-42.278250, -41.245688) " x="35.5427634" y="12.0500748" width="13.4709731" height="58.3912267" rx="6.73548657"></rect>
                <rect id="Rectangle-27" transform="translate(29.349134, 21.271935) rotate(-300.000000) translate(-29.349134, -21.271935) " x="22.6136479" y="-8.05686513" width="13.4709731" height="58.6576" rx="6.73548657"></rect>
                <rect id="Rectangle-27" transform="translate(55.199540, 61.191764) rotate(-300.000000) translate(-55.199540, -61.191764) " x="48.4640537" y="31.7456126" width="13.4709731" height="58.8923021" rx="6.73548657"></rect>
            </g>
            <g id="Group-2" transform="translate(351.089599, 271.126539) rotate(-312.000000) translate(-351.089599, -271.126539) translate(308.589599, 230.126539)">
                <path d="M26.2837091,18.2730481 L58.4044033,18.2730481 L58.4044033,24.1038401 C58.4044033,24.1038401 51.3826068,23.9351877 51.3826068,29.4775067 C51.3826068,35.0198258 58.4044033,35.102462 58.4044033,35.102462 L58.4044033,47.2266014 C58.4044033,47.2266014 51.3826068,47.0246761 51.3826068,52.8323606 C51.3826068,58.6400452 58.4044033,58.1948892 58.4044033,58.1948892 L58.4044033,63.6209952 L26.2837091,63.6209952 L26.2837091,58.1674475 C26.2837091,58.1948892 33.5276485,58.780799 33.5276485,52.8323606 C33.5276485,46.8839223 26.2837091,47.2266014 26.2837091,47.2266014 L26.2837091,35.102462 C26.2837091,35.102462 33.2362675,35.1503253 33.2362675,29.4775067 C33.2362675,23.8046881 26.4570545,24.1474602 26.2837091,24.1474602 L26.2837091,18.2730481 Z" id="Rectangle-28" transform="translate(42.344056, 40.947022) rotate(-30.000000) translate(-42.344056, -40.947022) "></path>
                <rect id="Rectangle-27" transform="translate(42.278250, 41.245688) rotate(-300.000000) translate(-42.278250, -41.245688) " x="35.5427634" y="12.0500748" width="13.4709731" height="58.3912267" rx="6.73548657"></rect>
                <rect id="Rectangle-27" transform="translate(29.349134, 21.271935) rotate(-300.000000) translate(-29.349134, -21.271935) " x="22.6136479" y="-8.05686513" width="13.4709731" height="58.6576" rx="6.73548657"></rect>
                <rect id="Rectangle-27" transform="translate(55.199540, 61.191764) rotate(-300.000000) translate(-55.199540, -61.191764) " x="48.4640537" y="31.7456126" width="13.4709731" height="58.8923021" rx="6.73548657"></rect>
            </g>
            <g id="Group-2" transform="translate(412.256312, 58.000000) rotate(-258.000000) translate(-412.256312, -58.000000) translate(373.256312, 19.000000)">
                <path d="M24.8791139,16.6929701 L53.1333435,16.6929701 L53.1333435,22.3279475 C53.1333435,22.3279475 46.9567818,22.1649589 46.9567818,27.5211511 C46.9567818,32.8773433 53.1333435,32.9572043 53.1333435,32.9572043 L53.1333435,44.6741807 C53.1333435,44.6741807 46.9567818,44.4790367 46.9567818,50.0916826 C46.9567818,55.7043286 53.1333435,55.2741222 53.1333435,55.2741222 L53.1333435,60.5180042 L24.8791139,60.5180042 L24.8791139,55.2476021 C24.8791139,55.2741222 31.2510785,55.8403555 31.2510785,50.0916826 C31.2510785,44.3430098 24.8791139,44.6741807 24.8791139,44.6741807 L24.8791139,32.9572043 C24.8791139,32.9572043 30.994772,33.0034603 30.994772,27.5211511 C30.994772,22.0388419 25.0315932,22.3701027 24.8791139,22.3701027 L24.8791139,16.6929701 Z" id="Rectangle-28" transform="translate(39.006229, 38.605487) rotate(-30.000000) translate(-39.006229, -38.605487) "></path>
                <rect id="Rectangle-27" transform="translate(38.948344, 38.894124) rotate(-300.000000) translate(-38.948344, -38.894124) " x="33.023628" y="10.6789819" width="11.8494316" height="56.4302833" rx="5.92471578"></rect>
                <rect id="Rectangle-27" transform="translate(27.575545, 19.591146) rotate(-300.000000) translate(-27.575545, -19.591146) " x="21.650829" y="-8.75270985" width="11.8494316" height="56.6877111" rx="5.92471578"></rect>
                <rect id="Rectangle-27" transform="translate(50.314259, 58.170353) rotate(-300.000000) translate(-50.314259, -58.170353) " x="44.3895436" y="29.7130875" width="11.8494316" height="56.9145311" rx="5.92471578"></rect>
            </g>
        </g>
    </g>
</svg>