<?xml version="1.0" encoding="UTF-8"?>
<svg width="613px" height="470px" viewBox="0 0 613 470" version="1.1" xmlns="http://www.w3.org/2000/svg" xmlns:xlink="http://www.w3.org/1999/xlink">
    <!-- Generator: Sketch 46.1 (44463) - http://www.bohemiancoding.com/sketch -->
    <title>Group 25</title>
    <desc>Created with Sketch.</desc>
    <defs></defs>
    <g id="App" stroke="none" stroke-width="1" fill="none" fill-rule="evenodd" opacity="0.04">
        <g id="Group-25" transform="translate(-42.000000, -85.000000)" fill="#3C3C3C">
            <g id="Group" transform="translate(516.000000, 111.000000)">
                <g id="Group-4">
                    <g id="Group-2" transform="translate(79.580222, 79.760068) rotate(-380.000000) translate(-79.580222, -79.760068) translate(18.080222, 18.260068)">
                        <path d="M39.2280884,26.3607195 L83.7778832,26.3607195 L83.7778832,35.2591995 C83.7778832,35.2591995 74.039003,35.0018159 74.039003,43.4600519 C74.039003,51.9182879 83.7778832,52.0444005 83.7778832,52.0444005 L83.7778832,70.5472748 C83.7778832,70.5472748 74.039003,70.239113 74.039003,79.1023282 C74.039003,87.9655434 83.7778832,87.2861826 83.7778832,87.2861826 L83.7778832,95.5670638 L39.2280884,95.5670638 L39.2280884,87.2443034 C39.2280884,87.2861826 49.2750697,88.1803504 49.2750697,79.1023282 C49.2750697,70.024306 39.2280884,70.5472748 39.2280884,70.5472748 L39.2280884,52.0444005 C39.2280884,52.0444005 48.8709389,52.1174457 48.8709389,43.4600519 C48.8709389,34.8026581 39.4685099,35.3257689 39.2280884,35.3257689 L39.2280884,26.3607195 Z" id="Rectangle-28" transform="translate(61.502986, 60.963892) rotate(-30.000000) translate(-61.502986, -60.963892) "></path>
                        <rect id="Rectangle-27" transform="translate(61.411716, 61.419692) rotate(-300.000000) translate(-61.411716, -61.419692) " x="52.0699332" y="16.8637244" width="18.6835653" height="89.1119355" rx="9.34178265"></rect>
                        <rect id="Rectangle-27" transform="translate(43.479680, 30.937376) rotate(-300.000000) translate(-43.479680, -30.937376) " x="34.1378973" y="-13.8218501" width="18.6835653" height="89.5184528" rx="9.34178265"></rect>
                        <rect id="Rectangle-27" transform="translate(79.332899, 91.859768) rotate(-300.000000) translate(-79.332899, -91.859768) " x="69.9911159" y="46.9214503" width="18.6835653" height="89.8766359" rx="9.34178265"></rect>
                    </g>
                </g>
            </g>
            <g id="Group" transform="translate(247.429978, 149.613744) rotate(-315.000000) translate(-247.429978, -149.613744) translate(141.929978, 44.113744)">
                <g id="Group-4" transform="translate(-0.000000, -0.000000)">
                    <g id="Group-2" transform="translate(105.105677, 105.273454) rotate(-380.000000) translate(-105.105677, -105.273454) translate(23.105677, 23.273454)">
                        <path d="M52.2372496,35.1026915 L111.561036,35.1026915 L111.561036,46.952163 C111.561036,46.952163 98.5924635,46.6094236 98.5924635,57.8726537 C98.5924635,69.1358838 111.561036,69.303819 111.561036,69.303819 L111.561036,93.942778 C111.561036,93.942778 98.5924635,93.5324208 98.5924635,105.334933 C98.5924635,117.137445 111.561036,116.232789 111.561036,116.232789 L111.561036,127.259848 L52.2372496,127.259848 L52.2372496,116.177021 C52.2372496,116.232789 65.6160985,117.423488 65.6160985,105.334933 C65.6160985,93.2463777 52.2372496,93.942778 52.2372496,93.942778 L52.2372496,69.303819 C52.2372496,69.303819 65.0779463,69.401088 65.0779463,57.8726537 C65.0779463,46.3442194 52.5574017,47.0408087 52.2372496,47.0408087 L52.2372496,35.1026915 Z" id="Rectangle-28" transform="translate(81.899143, 81.181270) rotate(-30.000000) translate(-81.899143, -81.181270) "></path>
                        <rect id="Rectangle-27" transform="translate(81.777605, 81.788227) rotate(-300.000000) translate(-81.777605, -81.788227) " x="69.337819" y="22.4562199" width="24.8795723" height="118.664013" rx="12.4397862"></rect>
                        <rect id="Rectangle-27" transform="translate(57.898791, 41.197099) rotate(-300.000000) translate(-57.898791, -41.197099) " x="45.4590048" y="-18.4055727" width="24.8795723" height="119.205344" rx="12.4397862"></rect>
                        <rect id="Rectangle-27" transform="translate(105.641967, 122.323107) rotate(-300.000000) translate(-105.641967, -122.323107) " x="93.2021808" y="62.4819513" width="24.8795723" height="119.682311" rx="12.4397862"></rect>
                    </g>
                </g>
            </g>
            <g id="Group" transform="translate(98.333475, 403.333475) rotate(-286.000000) translate(-98.333475, -403.333475) translate(18.833475, 323.833475)">
                <g id="Group-4">
                    <g id="Group-2" transform="translate(79.580222, 79.760068) rotate(-380.000000) translate(-79.580222, -79.760068) translate(18.080222, 18.260068)">
                        <path d="M39.2280884,26.3607195 L83.7778832,26.3607195 L83.7778832,35.2591995 C83.7778832,35.2591995 74.039003,35.0018159 74.039003,43.4600519 C74.039003,51.9182879 83.7778832,52.0444005 83.7778832,52.0444005 L83.7778832,70.5472748 C83.7778832,70.5472748 74.039003,70.239113 74.039003,79.1023282 C74.039003,87.9655434 83.7778832,87.2861826 83.7778832,87.2861826 L83.7778832,95.5670638 L39.2280884,95.5670638 L39.2280884,87.2443034 C39.2280884,87.2861826 49.2750697,88.1803504 49.2750697,79.1023282 C49.2750697,70.024306 39.2280884,70.5472748 39.2280884,70.5472748 L39.2280884,52.0444005 C39.2280884,52.0444005 48.8709389,52.1174457 48.8709389,43.4600519 C48.8709389,34.8026581 39.4685099,35.3257689 39.2280884,35.3257689 L39.2280884,26.3607195 Z" id="Rectangle-28" transform="translate(61.502986, 60.963892) rotate(-30.000000) translate(-61.502986, -60.963892) "></path>
                        <rect id="Rectangle-27" transform="translate(61.411716, 61.419692) rotate(-300.000000) translate(-61.411716, -61.419692) " x="52.0699332" y="16.8637244" width="18.6835653" height="89.1119355" rx="9.34178265"></rect>
                        <rect id="Rectangle-27" transform="translate(43.479680, 30.937376) rotate(-300.000000) translate(-43.479680, -30.937376) " x="34.1378973" y="-13.8218501" width="18.6835653" height="89.5184528" rx="9.34178265"></rect>
                        <rect id="Rectangle-27" transform="translate(79.332899, 91.859768) rotate(-300.000000) translate(-79.332899, -91.859768) " x="69.9911159" y="46.9214503" width="18.6835653" height="89.8766359" rx="9.34178265"></rect>
                    </g>
                </g>
            </g>
            <g id="Group" transform="translate(564.364323, 501.364323) rotate(-326.000000) translate(-564.364323, -501.364323) translate(484.864323, 421.864323)">
                <g id="Group-4">
                    <g id="Group-2" transform="translate(79.580222, 79.760068) rotate(-380.000000) translate(-79.580222, -79.760068) translate(18.080222, 18.260068)">
                        <path d="M39.2280884,26.3607195 L83.7778832,26.3607195 L83.7778832,35.2591995 C83.7778832,35.2591995 74.039003,35.0018159 74.039003,43.4600519 C74.039003,51.9182879 83.7778832,52.0444005 83.7778832,52.0444005 L83.7778832,70.5472748 C83.7778832,70.5472748 74.039003,70.239113 74.039003,79.1023282 C74.039003,87.9655434 83.7778832,87.2861826 83.7778832,87.2861826 L83.7778832,95.5670638 L39.2280884,95.5670638 L39.2280884,87.2443034 C39.2280884,87.2861826 49.2750697,88.1803504 49.2750697,79.1023282 C49.2750697,70.024306 39.2280884,70.5472748 39.2280884,70.5472748 L39.2280884,52.0444005 C39.2280884,52.0444005 48.8709389,52.1174457 48.8709389,43.4600519 C48.8709389,34.8026581 39.4685099,35.3257689 39.2280884,35.3257689 L39.2280884,26.3607195 Z" id="Rectangle-28" transform="translate(61.502986, 60.963892) rotate(-30.000000) translate(-61.502986, -60.963892) "></path>
                        <rect id="Rectangle-27" transform="translate(61.411716, 61.419692) rotate(-300.000000) translate(-61.411716, -61.419692) " x="52.0699332" y="16.8637244" width="18.6835653" height="89.1119355" rx="9.34178265"></rect>
                        <rect id="Rectangle-27" transform="translate(43.479680, 30.937376) rotate(-300.000000) translate(-43.479680, -30.937376) " x="34.1378973" y="-13.8218501" width="18.6835653" height="89.5184528" rx="9.34178265"></rect>
                        <rect id="Rectangle-27" transform="translate(79.332899, 91.859768) rotate(-300.000000) translate(-79.332899, -91.859768) " x="69.9911159" y="46.9214503" width="18.6835653" height="89.8766359" rx="9.34178265"></rect>
                    </g>
                </g>
            </g>
        </g>
    </g>
</svg>