<?xml version="1.0" encoding="UTF-8"?>
<svg width="392px" height="415px" viewBox="0 0 392 415" version="1.1" xmlns="http://www.w3.org/2000/svg" xmlns:xlink="http://www.w3.org/1999/xlink">
    <!-- Generator: Sketch 46.2 (44496) - http://www.bohemiancoding.com/sketch -->
    <title>Group 39</title>
    <desc>Created with Sketch.</desc>
    <defs></defs>
    <g id="App" stroke="none" stroke-width="1" fill="none" fill-rule="evenodd" stroke-linecap="round" opacity="0.04">
        <g id="Group-39" transform="translate(2.000000, -5.000000)" stroke="#000000" stroke-width="7">
            <path d="M316.024292,210.688227 C314.653856,171.900683 312.752671,133.128257 311.912985,94.3255952 C311.822076,90.1246356 311.903089,85.7745614 313.234928,81.7892721 C315.406053,75.292569 329.899027,39.4502487 345.037467,51.4478281 C348.193237,53.9488519 349.340872,58.5528781 349.787608,62.5546815 C351.118225,74.4741924 350.023406,86.5412708 350.293615,98.5317782 C350.39517,103.038313 349.600822,89.462864 350.293615,85.0087415 C351.002291,80.4525006 351.747044,75.550907 354.449197,71.8146093 C357.214796,67.9905849 361.511504,65.2479981 365.87863,63.459169 C368.645193,62.3259505 372.146994,62.1766874 374.847604,63.459169 C386.92881,69.1963628 385.624238,98.235492 386.296012,104.894816" id="Path-53"></path>
            <path d="M54.2014968,393.454488 C52.8310612,354.666944 50.9298767,315.894518 50.09019,277.091856 C49.9992816,272.890896 50.0802946,268.540822 51.4121333,264.555533 C53.5832581,258.05883 68.0762322,222.216509 83.2146724,234.214089 C86.3704422,236.715113 87.5180776,241.319139 87.964813,245.320942 C89.2954301,257.240453 88.2006114,269.307532 88.47082,281.298039 C88.5723757,285.804574 87.7780268,272.229125 88.47082,267.775002 C89.1794967,263.218761 89.9242487,258.317168 92.6264024,254.58087 C95.3920015,250.756846 99.6887088,248.014259 104.055835,246.22543 C106.822398,245.092211 110.324199,244.942948 113.024809,246.22543 C125.106015,251.962624 123.801443,281.001753 124.473217,287.661077" id="Path-53" transform="translate(87.268623, 312.615256) rotate(54.000000) translate(-87.268623, -312.615256) "></path>
            <path d="M185.637879,82.5598783 C184.973443,63.7543079 184.051682,44.9560673 183.644572,26.143167 C183.600496,24.1063936 183.639774,21.997324 184.285497,20.0651151 C185.338135,16.9152841 192.36484,-0.462337945 199.70449,5.35451207 C201.234519,6.56709668 201.790933,8.79929108 202.007526,10.7395066 C202.652656,16.5185062 202.121849,22.3690518 202.252856,28.1824731 C202.302094,30.3674002 201.916965,23.7855433 202.252856,21.6260275 C202.596448,19.4170011 202.95753,17.0405355 204.267629,15.2290465 C205.608489,13.3750245 207.691685,12.0453216 209.809022,11.1780341 C211.150349,10.6286098 212.848146,10.5562418 214.157497,11.1780341 C220.014892,13.9596281 219.382389,28.0388231 219.708089,31.2674984" id="Path-53" transform="translate(201.669989, 43.366166) rotate(-30.000000) translate(-201.669989, -43.366166) "></path>
            <path d="M295.360342,413.440583 C294.695906,394.635012 293.774145,375.836772 293.367035,357.023872 C293.32296,354.987098 293.362238,352.878029 294.00796,350.94582 C295.060598,347.795989 302.087303,330.418367 309.426953,336.235217 C310.956982,337.447801 311.513396,339.679996 311.729989,341.620211 C312.375119,347.399211 311.844313,353.249756 311.975319,359.063178 C312.024557,361.248105 311.639429,354.666248 311.975319,352.506732 C312.318911,350.297706 312.679993,347.92124 313.990092,346.109751 C315.330952,344.255729 317.414148,342.926026 319.531485,342.058739 C320.872812,341.509314 322.570609,341.436946 323.87996,342.058739 C329.737355,344.840333 329.104853,358.919528 329.430552,362.148203" id="Path-53" transform="translate(311.392452, 374.246870) rotate(-13.000000) translate(-311.392452, -374.246870) "></path>
        </g>
    </g>
</svg>