<?xml version="1.0" encoding="UTF-8"?>
<svg width="542px" height="420px" viewBox="0 0 542 420" version="1.1" xmlns="http://www.w3.org/2000/svg" xmlns:xlink="http://www.w3.org/1999/xlink">
    <!-- Generator: Sketch 46.2 (44496) - http://www.bohemiancoding.com/sketch -->
    <title>Group 37</title>
    <desc>Created with Sketch.</desc>
    <defs></defs>
    <g id="App" stroke="none" stroke-width="1" fill="none" fill-rule="evenodd" stroke-linecap="round" opacity="0.04">
        <g id="Group-37" transform="translate(-44.000000, -45.000000)" stroke="#3C3C3C" stroke-width="10">
            <path d="M298.469088,173.444183 C303.314039,173.597111 308.181588,173.411189 313.003941,173.902967 C334.276742,176.072345 338.644381,210.471762 364.399225,204.790604 C381.946269,200.919972 383.070239,182.723238 389.276791,169.243442 C396.708639,153.102464 411.825935,150.251196 427.447625,151.147278" id="Path-52"></path>
            <path d="M416.500351,356.554192 C425.395533,356.834963 434.332203,356.493615 443.185896,357.396505 C482.242109,361.379416 490.260962,424.535696 537.546069,414.105263 C569.761906,406.998901 571.825481,373.590253 583.22052,348.841759 C596.865167,319.207416 624.62006,313.972576 653.301005,315.617755" id="Path-52" transform="translate(534.900678, 365.306964) rotate(-57.000000) translate(-534.900678, -365.306964) "></path>
            <path d="M9.11716782,93.7136807 C18.0123496,93.9944519 26.9490201,93.6531041 35.8027132,94.5559942 C74.8589261,98.5389052 82.8777787,161.695185 130.162886,151.264752 C162.378723,144.15839 164.442298,110.749742 175.837337,86.0012475 C189.481984,56.3669048 217.236877,51.1320649 245.917822,52.7772434" id="Path-52" transform="translate(127.517495, 102.466453) rotate(-210.000000) translate(-127.517495, -102.466453) "></path>
            <path d="M131.410803,404.282539 C134.808302,404.389779 138.221646,404.259402 141.603298,404.604259 C156.520746,406.125525 159.583532,430.247949 177.643991,426.264064 C189.94877,423.549802 190.736949,410.789431 195.089262,401.33679 C200.30081,390.018008 210.90174,388.01857 221.856374,388.646943" id="Path-52" transform="translate(176.633589, 407.625644) rotate(29.000000) translate(-176.633589, -407.625644) "></path>
        </g>
    </g>
</svg>