<?xml version="1.0" encoding="UTF-8"?>
<svg width="560px" height="462px" viewBox="0 0 560 462" version="1.1" xmlns="http://www.w3.org/2000/svg" xmlns:xlink="http://www.w3.org/1999/xlink">
    <!-- Generator: Sketch 46.1 (44463) - http://www.bohemiancoding.com/sketch -->
    <title>Group 40</title>
    <desc>Created with Sketch.</desc>
    <defs></defs>
    <g id="App" stroke="none" stroke-width="1" fill="none" fill-rule="evenodd" stroke-linecap="round">
        <g id="Group-40" transform="translate(-33.000000, 0.000000)" stroke="#3C3C3C">
            <path d="M526.646428,127.292856 C559.035956,127.292856 585.292856,101.035956 585.292856,68.6464282 C585.292856,36.2569003 559.035956,10 526.646428,10 C494.2569,10 468,36.2569003 468,68.6464282" id="Oval-5" stroke-width="15"></path>
            <path d="M440.73654,370.382968 C473.126068,370.382968 499.382968,344.126068 499.382968,311.73654 C499.382968,279.347012 473.126068,253.090112 440.73654,253.090112 C408.347012,253.090112 382.090112,279.347012 382.090112,311.73654" id="Oval-5" stroke-width="15" transform="translate(440.736540, 311.736540) rotate(139.000000) translate(-440.736540, -311.736540) "></path>
            <path d="M82.9259422,453.57237 C115.31547,453.57237 141.57237,427.31547 141.57237,394.925942 C141.57237,362.536414 115.31547,336.279514 82.9259422,336.279514 C50.5364143,336.279514 24.279514,362.536414 24.279514,394.925942" id="Oval-5" stroke-width="15" transform="translate(82.925942, 394.925942) rotate(406.000000) translate(-82.925942, -394.925942) "></path>
            <path d="M200.292856,62.2928564 C215.756829,62.2928564 228.292856,49.7568294 228.292856,34.2928564 C228.292856,18.8288834 215.756829,6.2928564 200.292856,6.2928564 C184.828883,6.2928564 172.292856,18.8288834 172.292856,34.2928564" id="Oval-5" stroke-width="12" transform="translate(200.292856, 34.292856) rotate(-105.000000) translate(-200.292856, -34.292856) "></path>
        </g>
    </g>
</svg>