<?xml version="1.0" encoding="UTF-8"?>
<svg width="755px" height="572px" viewBox="0 0 755 572" version="1.1" xmlns="http://www.w3.org/2000/svg" xmlns:xlink="http://www.w3.org/1999/xlink">
    <!-- Generator: Sketch 46.1 (44463) - http://www.bohemiancoding.com/sketch -->
    <title>Group 34</title>
    <desc>Created with Sketch.</desc>
    <defs></defs>
    <g id="App" stroke="none" stroke-width="1" fill="none" fill-rule="evenodd">
        <g id="Group-34" fill="#3C3C3C">
            <g id="Group-33">
                <path d="M10.9883866,242.760724 C2.4437292,227.706788 14.0144408,197.758506 32.1159774,206.477209 C35.8855447,208.292842 37.410392,213.259676 41.0874127,215.256092 C42.2015396,215.861 40.6149229,212.531243 41.2900998,211.458243 C43.0179702,208.712289 45.4078681,206.377616 47.9458356,204.356596 C51.5030132,201.523964 55.0660145,198.256212 59.438191,197.006657 C64.8678861,195.454866 83.6852941,191.420423 86.5070458,202.496942 C87.5771518,206.697542 82.8184207,214.97354 87.1227077,215.486648 C87.1700367,215.49229 139.016761,196.248132 142.504409,209.299626 C143.370092,212.539189 144.175986,216.126764 143.201146,219.335169 C141.828498,223.852843 132.306875,228.21516 135.787867,231.405182 C143.488751,238.462361 173.189101,219.733093 164.300867,251.151967 C161.392515,261.432654 150.446443,264.057574 140.971588,262.872346 C136.779361,262.347932 130.520607,255.201539 128.873705,259.092232 C124.950605,268.360289 143.804012,281.98785 134.62495,294.144423 C116.421997,318.252066 102.718103,286.171867 94.1306123,280.394641 C92.0571889,278.999747 95.0681074,285.575083 94.1306123,287.891528 C92.7914744,291.200386 90.6508666,294.485896 87.6471605,296.414518 C83.4258629,299.124932 78.2960986,300.199355 73.3830597,301.213134 C69.7192347,301.969144 65.8996701,301.954983 62.169399,301.671713 C60.1550989,301.518751 57.8014835,301.343833 56.3674823,299.921004 C52.6936577,296.275802 49.4814896,291.94726 47.5353943,287.15172 C44.8849292,280.620482 48.1188083,271.18697 42.820387,266.538448 C39.4905737,263.617066 35.3353755,271.623617 31.0316017,272.672264 C10.0484757,277.784963 -3.72791968,270.867444 0.894571819,248.965481 L10.9883866,242.760724 Z" id="Path-40"></path>
                <path d="M286.038071,61.0160946 C275.121955,41.7841332 289.903967,3.52409368 313.029351,14.6625601 C317.845113,16.9820979 319.793162,23.3274124 324.490692,25.877908 C325.914031,26.6507009 323.887069,22.396813 324.749633,21.0260158 C326.957051,17.5179573 330.010234,14.5353262 333.252582,11.9533981 C337.797008,8.3346061 342.348874,4.15993148 347.934492,2.56357872 C354.871129,0.581108719 378.911065,-4.5730426 382.515957,9.57762168 C383.883057,14.9440438 377.803602,25.5169378 383.302488,26.1724525 C383.362952,26.1796603 449.599064,1.59453513 454.054664,18.2683025 C455.160606,22.4069638 456.190165,26.9902241 454.944771,31.0890797 C453.191162,36.8605765 441.026936,42.4335981 445.474033,46.5089693 C455.312196,55.5247771 493.255495,31.597443 481.900447,71.7362193 C478.184919,84.870178 464.200906,88.2236101 452.096428,86.709437 C446.740702,86.0394787 438.744913,76.9096972 436.640935,81.8802021 C431.629028,93.7204878 455.714954,111.130202 443.988363,126.660675 C420.733416,157.459082 403.226183,116.475439 392.255346,109.094818 C389.60647,107.31279 393.45303,115.713025 392.255346,118.672369 C390.544547,122.899559 387.809842,127.096919 383.972496,129.560805 C378.579632,133.02346 372.026168,134.396075 365.749578,135.691215 C361.068906,136.657045 356.189271,136.638954 351.423711,136.277067 C348.850368,136.081652 345.843537,135.858188 344.011548,134.040471 C339.318101,129.38359 335.214437,123.853717 332.728228,117.727238 C329.342161,109.383339 333.473561,97.3316783 326.704631,91.3930181 C322.450671,87.6608442 317.142252,97.8895104 311.644021,99.2291962 C284.8373,105.760858 267.237444,96.9234716 273.142849,68.9429018 L286.038071,61.0160946 Z" id="Path-40"></path>
                <path d="M618.436934,272.62542 C610.349268,258.376611 621.301146,230.030047 638.434562,238.282449 C642.002522,240.000977 643.445816,244.702171 646.92618,246.591813 C647.98072,247.164369 646.47896,244.012697 647.118027,242.997084 C648.753486,240.397991 651.015565,238.188183 653.417795,236.275253 C656.784725,233.594118 660.157167,230.501134 664.295507,229.318409 C669.434807,227.849612 687.245807,224.030942 689.916644,234.515058 C690.929518,238.490998 686.425297,246.324373 690.499379,246.810039 C690.544176,246.815379 739.617993,228.600452 742.919112,240.953916 C743.738496,244.020217 744.501288,247.415919 743.578585,250.452729 C742.27935,254.728786 733.26697,258.857794 736.561789,261.877205 C743.850808,268.556946 771.962701,250.829372 763.549835,280.567877 C760.797029,290.298724 750.436383,292.783256 741.468271,291.661417 C737.500255,291.16505 731.576237,284.400866 730.017416,288.083474 C726.304134,296.855849 744.149208,309.75457 735.461069,321.260976 C718.23166,344.079275 705.260688,313.714815 697.132481,308.24657 C695.16995,306.926279 698.019836,313.149948 697.132481,315.342503 C695.864964,318.474394 693.838842,321.584186 690.995782,323.40966 C687.000251,325.975114 682.144841,326.992073 677.494565,327.951632 C674.026692,328.667209 670.411408,328.653805 666.880643,328.385686 C664.974073,328.240904 662.746335,328.075341 661.389029,326.728609 C657.91169,323.278362 654.871318,319.181323 653.029305,314.642262 C650.520594,308.460333 653.581517,299.531352 648.56647,295.131445 C645.414744,292.366307 641.481778,299.944645 637.408182,300.937208 C617.547292,305.776466 604.507697,299.228915 608.882964,278.49833 L618.436934,272.62542 Z" id="Path-40" transform="translate(686.570807, 278.534821) rotate(-30.000000) translate(-686.570807, -278.534821) "></path>
                <path d="M73.687606,489.772898 C62.7714894,470.540937 77.5535023,432.280898 100.678886,443.419364 C105.494648,445.738902 107.442697,452.084216 112.140227,454.634712 C113.563566,455.407505 111.536604,451.153617 112.399167,449.78282 C114.606586,446.274761 117.659769,443.29213 120.902117,440.710202 C125.446543,437.09141 129.998409,432.916735 135.584027,431.320383 C142.520663,429.337913 166.560599,424.183761 170.165492,438.334426 C171.532592,443.700848 165.453136,454.273742 170.952023,454.929256 C171.012487,454.936464 237.248599,430.351339 241.704199,447.025106 C242.81014,451.163768 243.8397,455.747028 242.594306,459.845884 C240.840697,465.61738 228.676471,471.190402 233.123567,475.265773 C242.961731,484.281581 280.90503,460.354247 269.549982,500.493023 C265.834454,513.626982 251.850441,516.980414 239.745963,515.466241 C234.390237,514.796282 226.394448,505.666501 224.290469,510.637006 C219.278563,522.477292 243.364489,539.887005 231.637898,555.417479 C208.382951,586.215886 190.875718,545.232243 179.90488,537.851622 C177.256005,536.069594 181.102565,544.469829 179.90488,547.429173 C178.194082,551.656362 175.459376,555.853723 171.62203,558.317609 C166.229166,561.780264 159.675702,563.152879 153.399113,564.448018 C148.718441,565.413849 143.838806,565.395758 139.073246,565.033871 C136.499903,564.838456 133.493072,564.614992 131.661082,562.797275 C126.967635,558.140394 122.863972,552.610521 120.377763,546.484041 C116.991695,538.140143 121.123096,526.088482 114.354166,520.149822 C110.100206,516.417648 104.791786,526.646314 99.2935561,527.986 C72.4868349,534.517662 54.8869793,525.680275 60.7923835,497.699706 L73.687606,489.772898 Z" id="Path-40" transform="translate(165.649535, 497.748959) rotate(6.000000) translate(-165.649535, -497.748959) "></path>
            </g>
        </g>
    </g>
</svg>