<?xml version="1.0" encoding="UTF-8"?>
<svg width="613px" height="421px" viewBox="0 0 613 421" version="1.1" xmlns="http://www.w3.org/2000/svg" xmlns:xlink="http://www.w3.org/1999/xlink">
    <!-- Generator: Sketch 46.2 (44496) - http://www.bohemiancoding.com/sketch -->
    <title>Group 42</title>
    <desc>Created with Sketch.</desc>
    <defs></defs>
    <g id="App" stroke="none" stroke-width="1" fill="none" fill-rule="evenodd" opacity="0.04">
        <g id="Group-42" transform="translate(-6.000000, 0.000000)" fill="#3C3C3C">
            <g id="Group-29">
                <g id="Group-5" transform="translate(217.000000, 0.000000)">
                    <path d="M64.835344,37.0020985 L10.524753,71.2725756 C8.34491742,72.6480717 5.45035859,72.0154498 4.05957492,69.859575 C3.62440445,69.1850107 3.3734105,68.4104276 3.33106746,67.6113555 L0.00653248937,4.87273948 C-0.128793787,2.31894372 1.85477241,0.140185463 4.43695159,0.00634669851 C5.2449048,-0.0355308986 6.05004231,0.130378293 6.77385517,0.487896473 L64.4089811,28.9560355 C66.7222518,30.0986462 67.6609645,32.8795785 66.5056546,35.1674217 C66.1270273,35.9172117 65.5497369,36.5513101 64.835344,37.0020985 Z" id="Triangle-2"></path>
                </g>
                <g id="Group-5" transform="translate(65.610183, 197.807636) rotate(31.000000) translate(-65.610183, -197.807636) translate(19.110183, 147.807636)">
                    <path d="M89.9953282,51.3918035 L14.6089856,98.9896883 C11.5832436,100.9001 7.56542311,100.021458 5.63493236,97.0271875 C5.03088976,96.0902926 4.68249517,95.0144828 4.62372051,93.9046604 L0.00906748524,6.76769372 C-0.178773466,3.22075517 2.57453483,0.194702032 6.1587537,0.00881485904 C7.28024099,-0.0493484703 8.39781992,0.181080963 9.40251539,0.67763399 L89.4035111,40.2167159 C92.614469,41.8036753 93.9174582,45.6660813 92.3138191,48.8436412 C91.7882618,49.8850162 90.9869483,50.7657085 89.9953282,51.3918035 Z" id="Triangle-2"></path>
                </g>
                <g id="Group-5" transform="translate(573.610183, 67.807636) rotate(-11.000000) translate(-573.610183, -67.807636) translate(527.110183, 17.807636)">
                    <path d="M89.9953282,51.3918035 L14.6089856,98.9896883 C11.5832436,100.9001 7.56542311,100.021458 5.63493236,97.0271875 C5.03088976,96.0902926 4.68249517,95.0144828 4.62372051,93.9046604 L0.00906748524,6.76769372 C-0.178773466,3.22075517 2.57453483,0.194702032 6.1587537,0.00881485904 C7.28024099,-0.0493484703 8.39781992,0.181080963 9.40251539,0.67763399 L89.4035111,40.2167159 C92.614469,41.8036753 93.9174582,45.6660813 92.3138191,48.8436412 C91.7882618,49.8850162 90.9869483,50.7657085 89.9953282,51.3918035 Z" id="Triangle-2"></path>
                </g>
                <g id="Group-5" transform="translate(463.186114, 364.953977) rotate(-11.000000) translate(-463.186114, -364.953977) translate(416.686114, 314.953977)">
                    <path d="M89.9953282,51.3918035 L14.6089856,98.9896883 C11.5832436,100.9001 7.56542311,100.021458 5.63493236,97.0271875 C5.03088976,96.0902926 4.68249517,95.0144828 4.62372051,93.9046604 L0.00906748524,6.76769372 C-0.178773466,3.22075517 2.57453483,0.194702032 6.1587537,0.00881485904 C7.28024099,-0.0493484703 8.39781992,0.181080963 9.40251539,0.67763399 L89.4035111,40.2167159 C92.614469,41.8036753 93.9174582,45.6660813 92.3138191,48.8436412 C91.7882618,49.8850162 90.9869483,50.7657085 89.9953282,51.3918035 Z" id="Triangle-2"></path>
                </g>
            </g>
        </g>
    </g>
</svg>