<?xml version="1.0" encoding="UTF-8"?>
<svg width="181px" height="101px" viewBox="0 0 181 101" version="1.1" xmlns="http://www.w3.org/2000/svg" xmlns:xlink="http://www.w3.org/1999/xlink">
    <!-- Generator: Sketch 44.1 (41455) - http://www.bohemiancoding.com/sketch -->
    <title>Group 15</title>
    <desc>Created with Sketch.</desc>
    <defs></defs>
    <g id="Page-1" stroke="none" stroke-width="1" fill="none" fill-rule="evenodd">
        <g id="Group-15">
            <path d="M159.103681,48.799516 C148.697827,48.799516 141.34964,41.65566 141.34964,31.8057733 C141.34964,29.0296888 142.272648,26.0320388 143.166302,23.7740264 C143.569099,24.7596668 144.043649,25.7713736 144.575275,26.6120189 C147.548144,31.2893303 152.137091,32.4835028 152.339305,32.5323776 C152.931269,32.6741143 153.547695,32.4753571 153.9456,32.0208221 C154.345135,31.5679163 154.459288,30.9260282 154.242397,30.3639688 C154.214674,30.2939151 151.709833,23.3830286 152.99813,16.4672547 C154.323935,9.35924018 158.448117,5.86958465 161.135603,4.30396422 C160.864898,7.87344847 160.819236,14.0723931 163.475738,19.8053986 C164.75262,22.570079 167.655366,26.6690394 167.777673,26.8433593 C168.198408,27.439631 168.963232,27.6807463 169.651411,27.4363727 C170.33959,27.1903699 170.783156,26.5191569 170.734233,25.7941818 C170.732603,25.7534529 170.481466,21.6903339 171.474597,18.2234866 C171.696379,17.4545242 171.994808,16.8142653 172.317698,16.294564 C172.637326,17.9090591 173.309197,19.9389895 174.665986,22.1986311 C176.697908,25.5807622 177.223012,27.5569303 177.223012,31.8057733 C177.223012,41.65566 169.600858,48.799516 159.103681,48.799516 L159.103681,48.799516 Z M177.461102,20.5238571 C174.866569,16.2000729 175.328073,13.151919 175.347642,13.0411363 C175.455272,12.4464938 175.225336,11.8404472 174.749155,11.4624826 C174.272974,11.0910347 173.627195,11.0079476 173.075999,11.2555796 C172.934123,11.3191167 169.620427,12.8488957 168.340283,17.3290791 C168.014132,18.4580853 167.805396,19.6213038 167.668412,20.7160977 C167.193862,19.9210688 166.751927,19.1211524 166.43393,18.4336479 C162.939219,10.88739 164.587914,2.02803108 164.604221,1.93679826 C164.711851,1.38288468 164.521053,0.809421212 164.101948,0.428198339 C163.682844,0.0453463083 163.100664,-0.0947612434 162.55273,0.0648961992 C162.123841,0.18545386 152.153399,3.21568695 149.792064,15.8660955 C148.931025,20.4798698 149.45939,24.9698281 150.15083,27.9577031 C149.129977,27.2669403 148.224907,26.271525 147.331253,24.8671912 C146.000556,22.7753528 144.992749,19.003853 144.982964,18.9680116 C144.813366,18.3261235 144.273585,17.8520386 143.61476,17.7656933 C142.947781,17.6923812 142.311786,18.0084378 141.985635,18.5867887 C141.827451,18.8670038 138.088128,25.5775039 138.088128,31.8057733 C138.088128,43.5438536 146.809411,52.0610895 159.103681,52.0610895 C171.492535,52.0610895 180.484524,43.5438536 180.484524,31.8057733 C180.484524,26.9557712 179.806129,24.4224311 177.461102,20.5238571 L177.461102,20.5238571 Z" id="Fill-862" fill="#FF939F"></path>
            <path d="M0,75.8666922 C45.6722577,67.6114253 90.6942809,58.7673874 137.016773,51.1008916 C182.437629,43.5836189 161.577642,68.8732276 147.695889,74.0894437 C115.070617,86.3487364 49.2880956,93.8402274 0,100.916675" id="Path-9" fill="#FF939F"></path>
            <path d="M141.315402,57.1382658 C159.246291,47.7617069 171.311865,50.4633273 155.966497,70.1599121" id="Path-10" stroke="#263345" stroke-width="2"></path>
        </g>
    </g>
</svg>