<?xml version="1.0" encoding="UTF-8"?>
<svg width="361px" height="186px" viewBox="0 0 361 186" version="1.1" xmlns="http://www.w3.org/2000/svg" xmlns:xlink="http://www.w3.org/1999/xlink">
    <!-- Generator: Sketch 44.1 (41455) - http://www.bohemiancoding.com/sketch -->
    <title>Group 11</title>
    <desc>Created with Sketch.</desc>
    <defs></defs>
    <g id="Page-1" stroke="none" stroke-width="1" fill="none" fill-rule="evenodd">
        <g id="Group-11">
            <ellipse id="Oval-6" fill="#E7EBEE" cx="180.5" cy="141.768293" rx="180.5" ry="44.2317073"></ellipse>
            <g id="Group" transform="translate(90.817610, 0.000000)">
                <path d="M132.742585,0 C115.507562,162.153939 102.254661,82.7395175 100.927518,0" id="Path-106" fill="#FF939F"></path>
                <path d="M41.9249745,1.42108547e-14 C24.6899518,215.581606 11.028336,110.00114 9.70119363,0" id="Path-106" fill="#FF939F"></path>
                <path d="M202.414039,104.198027 C179.581056,98.7283093 150.981589,81.0036143 127.793249,77.2297014 C122.285017,76.3332341 117.019279,81.3291144 113.983563,81.1957946 C110.947848,81.0624749 106.140815,77.8920349 102.425559,77.2297014 C102.425559,77.2297014 87.4440972,106.270737 95.4341442,115.456356 C103.424191,124.641975 142.140446,121.655322 149.820822,123.14986 C157.172496,124.580434 204.078366,125.902798 216.220138,123.14986 C228.361909,120.396921 218.879293,108.142334 202.414039,104.198027 Z" id="Path-173" stroke="#00A2F2" fill="#F3F3F3"></path>
                <path d="M124.411636,137.421999 C98.4279806,131.197527 65.882138,111.027041 39.4940907,106.732374 C33.2257902,105.712206 27.2334446,111.397456 23.7788375,111.24574 C20.3242304,111.094024 14.8538861,107.486102 10.6259701,106.732374 C10.6259701,106.732374 -6.4227495,139.780717 2.6698261,150.233839 C11.7624017,160.686961 55.8210247,157.288187 64.561199,158.988952 C72.9273145,160.616928 126.30562,162.121762 140.122807,158.988952 C153.939994,155.856141 143.148893,141.910572 124.411636,137.421999 Z" id="Path-173" stroke="#00A2F2" fill="#F3F3F3"></path>
            </g>
        </g>
    </g>
</svg>