<?xml version="1.0" encoding="UTF-8"?>
<svg width="258px" height="121px" viewBox="0 0 258 121" version="1.1" xmlns="http://www.w3.org/2000/svg" xmlns:xlink="http://www.w3.org/1999/xlink">
    <!-- Generator: Sketch 44.1 (41455) - http://www.bohemiancoding.com/sketch -->
    <title>Group 13</title>
    <desc>Created with Sketch.</desc>
    <defs></defs>
    <g id="MVP-SESSIONS" stroke="none" stroke-width="1" fill="none" fill-rule="evenodd">
        <g id="Group-13" transform="translate(0.000000, 1.000000)">
            <g id="Group-12">
                <g id="Group-11" transform="translate(0.000000, 14.831461)">
                    <ellipse id="Oval-5" fill="#E7EBEE" cx="66.22603" cy="90.8948991" rx="66.22603" ry="14.2736403"></ellipse>
                    <ellipse id="Oval-5" fill="#E7EBEE" cx="214.021123" cy="90.8948991" rx="43.1375173" ry="14.2736403"></ellipse>
                    <g id="Group-6" transform="translate(166.308588, 39.526991) rotate(23.000000) translate(-166.308588, -39.526991) translate(131.308588, 12.526991)">
                        <path d="M6.69491046,0.563020293 C14.8471989,77.6903066 20.5283021,41.2537595 21.1560499,1.89933798" id="Path-106" fill="#FF939F" transform="translate(13.925480, 23.211790) scale(-1, 1) translate(-13.925480, -23.211790) "></path>
                        <path d="M59.5526706,42.2973947 C47.2622166,39.336772 31.8678013,29.7428341 19.386067,27.7001086 C16.4211162,27.2148731 13.5866941,29.9190192 11.9526403,29.8468565 C10.3185866,29.7746938 7.73107477,28.0586133 5.73124039,27.7001086 C5.73124039,27.7001086 -2.33292542,43.4193011 1.9679276,48.391249 C6.26878061,53.3631969 27.1088231,51.7465958 31.2429878,52.5555517 C35.20022,53.3298863 60.4485386,54.0456492 66.9841664,52.5555517 C73.5197942,51.0654543 68.4155269,44.4323504 59.5526706,42.2973947 Z" id="Path-173" stroke="#979797" fill="#F3F3F3"></path>
                    </g>
                    <g id="Group-7" transform="translate(82.369125, 70.059436) rotate(6.000000) translate(-82.369125, -70.059436) translate(47.369125, 47.059436)">
                        <path d="M4.96242611,0.654466264 C13.1147146,48.0837189 18.7958178,25.6771455 19.4235656,1.47623184" id="Path-106" fill="#FF939F" transform="translate(12.192996, 14.582277) scale(-1, 1) translate(-12.192996, -14.582277) "></path>
                        <path d="M59.3176436,34.8669613 C47.0271897,31.9063386 31.6327744,22.3124007 19.15104,20.2696751 C16.1860893,19.7844396 13.3516671,22.4885858 11.7176134,22.4164231 C10.0835596,22.3442604 7.49604782,20.6281799 5.49621344,20.2696751 C5.49621344,20.2696751 -2.56795236,35.9888677 1.73290065,40.9608156 C6.03375367,45.9327635 26.8737961,44.3161624 31.0079608,45.1251183 C34.965193,45.8994529 60.2135116,46.6152158 66.7491394,45.1251183 C73.2847672,43.6350209 68.1805,37.001917 59.3176436,34.8669613 Z" id="Path-173" stroke="#979797" fill="#F3F3F3"></path>
                    </g>
                    <polyline id="Path-59" stroke="#979797" points="103.417905 37.8526957 106.155287 37.8526957 115.43484 37.8526957 116.293192 37.8526957 117.741816 37.8526957 118.332087 37.8526957 119.281439 37.8526957 119.640521 37.8526957 120.589874 37.8526957 120.752198 37.8526957 121.11128 37.8526957 121.435929 37.8526957 121.598253 37.8526957 121.760578 37.8526957 121.922902 37.8526957 122.085227 37.8526957 122.247552 37.8526957"></polyline>
                    <polyline id="Path-59" stroke="#979797" points="112.832728 44.5942687 114.201419 44.5942687 118.841196 44.5942687 119.270372 44.5942687 119.994684 44.5942687 120.289819 44.5942687 120.764495 44.5942687 120.944036 44.5942687 121.418713 44.5942687 121.499875 44.5942687 121.679416 44.5942687 121.84174 44.5942687 121.922902 44.5942687 122.004065 44.5942687 122.085227 44.5942687 122.166389 44.5942687 122.247552 44.5942687"></polyline>
                </g>
                <path d="M53.2331127,61.4944095 C63.4594462,62.1988788 75.0678641,68.8060365 83.9121132,63.6078174 C94.2555705,57.5284366 97.1009334,23.8250769 99.5549039,13.5811365 C100.019136,11.6432294 102.028336,7.27533804 105.582504,0.477462549 L65.3977773,0.477462549 C42.5608222,41.5378799 39.8489666,62.1920401 57.2622103,62.4399431" id="Path-60" stroke="#00A2F2" fill="#263345"></path>
                <path d="M140.595498,25.3014782 C150.821832,25.5880831 162.430249,28.2761262 171.274499,26.1612929 C181.617956,23.6879695 184.463319,9.9761604 186.917289,5.80853569 C187.381521,5.02012133 189.390721,3.24309695 192.944889,0.477462549 L152.760163,0.477462549 C129.923208,17.1824026 127.211352,25.5853008 144.624596,25.6861572" id="Path-60" stroke="#00A2F2" fill="#263345"></path>
            </g>
        </g>
    </g>
</svg>