<?xml version="1.0" encoding="UTF-8"?>
<svg width="516px" height="214px" viewBox="0 0 516 214" version="1.1" xmlns="http://www.w3.org/2000/svg" xmlns:xlink="http://www.w3.org/1999/xlink">
    <!-- Generator: Sketch 46.1 (44463) - http://www.bohemiancoding.com/sketch -->
    <title>Group 18</title>
    <desc>Created with Sketch.</desc>
    <defs></defs>
    <g id="App" stroke="none" stroke-width="1" fill="none" fill-rule="evenodd">
        <g id="Group-18">
            <path d="M226.529327,178.460725 C299.441912,186.547827 345.73843,198.394253 365.418882,214 L0.444406517,214 C78.2551023,182.220047 153.616743,170.373622 226.529327,178.460725 Z" id="Rectangle-13" fill="#E9ECF3"></path>
            <path d="M376.529327,194 C449.441912,198.551079 495.73843,205.217746 515.418882,214 L150.444407,214 C228.255102,196.115588 303.616743,189.448921 376.529327,194 Z" id="Rectangle-13" fill="#EFF2F9"></path>
            <path d="M297.322392,194.113399 C266.080648,203.890791 316.426379,200.426208 320.81831,199.270396 C328.106794,197.352305 322.755311,192.715156 317.313427,192.705506 C309.863691,192.692295 302.460467,193.882161 295.033988,194.470488" id="Path-21" fill="#E9ECF3"></path>
            <path d="M309.052364,129.507366 C309.529966,130.154994 309.506269,132.078733 309.506269,132.078733 C309.506269,132.078733 310.466896,134.845357 310.442097,137.678305 C310.417298,140.511253 292.881251,140.869623 291.423998,141.401061 C289.966746,141.9325 292.778091,143.610604 295.316913,143.194238 C298.122469,142.734126 313.472072,141.504847 313.126054,139.712207 C312.850888,138.286638 311.262799,132.293752 311.219902,131.330108 C311.177005,130.366464 310.898032,131.499415 311.219902,130.468839 C311.585736,129.297496 309.964298,128.568317 309.779081,128.394194" id="Path-116" fill="#95A7C2" transform="translate(302.078159, 135.827064) rotate(100.000000) translate(-302.078159, -135.827064) "></path>
            <g id="Group-5" transform="translate(112.500000, 135.500000) scale(-1, 1) translate(-112.500000, -135.500000) translate(85.000000, 89.000000)">
                <path d="M25.5987574,50.532455 C29.3427559,50.532455 33.8421702,45.9083695 38.2586203,46.5841831 C42.6750705,47.2599967 48.6456232,53.2871298 50.944857,49.7805481 C55.1604729,43.3512755 49.1737272,31.6530254 49.1737272,26.8463419 C49.1737272,24.3271098 54.6806423,20.5839065 54.9860524,17.2105603 C55.2914626,13.8372141 50.5053548,7.2997351 48.071954,4.73771764 C44.0341739,0.486521787 31.3775859,7.78182339 24.6679512,7.78182339 C22.3157374,7.78182339 20.4577922,1.83183288 17.4717214,0.395088594 C14.4856507,-1.04165569 9.81741335,1.80106186 7.83895179,3.1602288 C5.71943164,4.61630041 0.388481921,9.34527455 0.0201084987,14.6466411 C0.00683043363,14.8377295 1.20023454e-17,15.0295616 0,15.2220109 C0,20.7535821 2.02378761,23.4351429 2.02378761,26.8463419 C2.02378761,35.1842014 3.27842407,48.3106412 9.75959439,52.5314738 C16.2407647,56.7523064 20.8773966,50.532455 25.5987574,50.532455 Z" id="Oval-3" fill="#DAEDFF"></path>
                <ellipse id="Oval-4" fill="#CBDFF3" cx="24.5" cy="38" rx="18.5" ry="7"></ellipse>
                <polygon id="Rectangle-5" fill="#FFF4E2" points="17 31.4783668 20 31 20 92 17 92"></polygon>
                <path d="M12,33.31661 C12.5438981,33.1577315 12.9543694,33.0633279 13.2314138,33.0333992 C13.5084582,33.0034706 14.0627168,32.993656 14.8941895,33.0039554 L15,53 L12.0573498,53 L12,33.31661 Z" id="Rectangle-5" fill="#FFF4E2" transform="translate(13.500000, 43.000000) rotate(-30.000000) translate(-13.500000, -43.000000) "></path>
                <polygon id="Rectangle-5" fill="#FFF4E2" transform="translate(32.500000, 39.500000) rotate(-315.000000) translate(-32.500000, -39.500000) " points="31.039487 31.0297084 33.8920883 30 34 49 31 49"></polygon>
                <rect id="Rectangle-5" fill="#FFF4E2" x="24" y="31" width="3" height="62"></rect>
            </g>
            <path d="M257,46 L293,46 L293,76 L293,76 C293,81.5228475 288.522847,86 283,86 L257,86 L257,46 Z" id="Rectangle-10" fill="#DECCB0"></path>
            <path d="M293.139215,45.8873814 L286,51 L278.69964,90.682149 C283.957285,87.8887483 287.567989,85.6136059 289.53175,83.856722 C291.495511,82.0998381 292.609649,80.676877 292.874165,79.5878387 L293.139215,45.8873814 Z" id="Rectangle-10" fill="#F9E9D0"></path>
            <path d="M257.139215,45.8873814 L250,51 L250,82.442343 C250.390739,85.1421463 251.567989,85.6136059 253.53175,83.856722 C255.495511,82.0998381 256.609649,80.676877 256.874165,79.5878387 L257.139215,45.8873814 Z" id="Rectangle-10" fill="#D4C2A7"></path>
            <path d="M250.268041,53.458509 C248.696763,36.0384481 247.125485,18.6183872 245.554206,1.19832639" id="Path-9" stroke="#E7B668"></path>
            <path d="M293.134493,47.4926733 C295.032121,31.8146185 296.929749,16.1365637 298.827378,0.458508962" id="Path-15" stroke="#E7B668"></path>
            <path d="M256.813877,46.752777 C255.775148,31.5679601 254.736419,16.3831432 253.69769,1.19832639" id="Path-16" stroke="#E7B668"></path>
            <polygon id="Rectangle-12" fill="#C6C6C6" points="263 1 285 1 281.38115 6 267.359423 6"></polygon>
            <polygon id="Rectangle-12" fill="#D8D8D8" points="262 1 284 1 280.38115 6 266.359423 6"></polygon>
            <path d="M273.259428,6 C275.621057,6 278.08144,7.53166863 280.640577,10.5950059 L266.61885,10.5950059 C268.684272,7.53166863 270.897798,6 273.259428,6 Z" id="Rectangle-12" fill="#FF9F92" transform="translate(273.629714, 8.297503) rotate(-180.000000) translate(-273.629714, -8.297503) "></path>
            <path d="M273.535279,6 C275.283739,6 277.105313,7.13398879 279,9.40196636 L268.61885,9.40196636 C270.14801,7.13398879 271.786819,6 273.535279,6 Z" id="Rectangle-12" fill="#FFCF92" transform="translate(273.809425, 7.700983) rotate(-180.000000) translate(-273.809425, -7.700983) "></path>
            <g id="Group-15" transform="translate(290.000000, 46.000000)"></g>
            <g id="Group-12" transform="translate(266.000000, 9.000000)">
                <g id="Group-20">
                    <g id="Group-10" transform="translate(0.000000, -0.000000)">
                        <g id="Group-9" transform="translate(22.360126, 34.700629) rotate(40.000000) translate(-22.360126, -34.700629) translate(11.860126, 26.700629)" stroke="#FF939F" fill="#FF939F">
                            <path d="M16.0310439,-0.0661678291 C16.0310439,-0.510687551 15.2036839,-0.490013294 15.034026,-0.0661678291 C14.658516,0.871944371 13.1216971,4.726165 11.0838714,8.01759711 C9.04604581,11.3090292 6.22196271,14.4977308 5.71521703,15.6968551 C4.73373455,18.0193603 6.41018634,16.6565737 6.41018634,16.6565737 C6.41018634,16.6565737 9.18512997,12.971656 12.5438308,7.5331138 C15.9025317,2.09457163 16.0310439,1.89297378 16.0310439,-0.0661678291 Z" id="Path-116" transform="translate(10.719026, 8.330999) scale(-1, 1) rotate(75.000000) translate(-10.719026, -8.330999) "></path>
                        </g>
                        <g id="Group-36" transform="translate(18.174484, 19.129661) rotate(-25.000000) translate(-18.174484, -19.129661) translate(5.174484, 4.629661)">
                            <path d="M12.4924872,5.14573241 C12.8400795,5.54608698 15.8556452,6.10289082 17.8351627,9.9397393 C19.8146802,13.7765878 20.4339832,9.18490056 20.0994438,10.4936759 C19.7015531,12.0502925 17.0395921,10.6403538 16.4622735,10.2266159 C14.9243718,9.1244721 13.8167877,10.1049858 12.3361664,10.3110925 C11.9914283,10.359081 10.3245857,9.83881634 9.49427008,10.2900529 C8.66395446,10.7412896 7.78540557,14.8111318 7.46786712,16.0886596 C6.81108542,18.7310386 6.82573062,24.3814023 6.29825081,25.6346118 C5.770771,26.8878212 5.45032901,25.633984 4.73800987,25.6070117 C3.42313515,25.5572234 3.58508571,17.8183527 4.88871413,11.6548193 C5.08033649,10.7488319 4.61323065,9.3705157 4.50664234,8.29973382 C4.40005403,7.22895194 3.20673432,5.62618273 3.63683595,4.36934411 C4.06693759,3.11250549 4.3676625,2.48527791 6.45915666,2.07898197 C8.55065081,1.67268603 8.94635409,3.30536489 10.4210421,4.13130794 C11.89573,4.95725099 12.2731884,4.89314538 12.4924872,5.14573241 Z" id="Path-90" fill="#FF939F" transform="translate(11.864540, 14.102772) rotate(18.000000) translate(-11.864540, -14.102772) "></path>
                            <g id="Group-38" transform="translate(19.003432, 12.452616) rotate(-42.000000) translate(-19.003432, -12.452616) translate(16.003432, 5.952616)">
                                <path d="M0.194995951,1.49889625 C1.9563378,3.92595854 2.40332927,6.0870523 1.99175114,9.18005385 C1.82295363,10.4485638 1.05987894,12.9039641 1.05987894,12.9039641 C1.05987894,12.9039641 3.16841831,11.4775703 4.11149891,10.6282412 C6.17653021,8.76849417 6.79966334,-1.86196319 0.564059179,1.60495856 L0.194995951,1.49889625 Z" id="Path-109" fill="#263345"></path>
                                <path d="M5.35818391,3.66951673 C5.26206182,0.713206979 4.12519056,-0.374988131 0.564059179,1.60495856 L0.194995951,1.49889625 C1.12335337,2.77813757 1.68657511,3.98349098 1.95139878,5.2903553 C1.95139878,5.2903553 2.54686262,3.97232502 3.183325,3.66951673 C3.81978738,3.36670844 5.35818391,3.66951673 5.35818391,3.66951673 Z" id="Path-109" fill="#FF939F"></path>
                                <path d="M5.14154622,2.38093619 C4.98658662,-0.193735823 3.57287662,0.0354089987 0.0117452335,1.18363826 C0.0117452335,1.18363826 1.19452139,2.82197306 1.45934507,3.57986207 C1.45934507,3.57986207 1.99454867,2.55654362 2.63101106,2.38093619 C3.26747344,2.20532877 5.14154622,2.38093619 5.14154622,2.38093619 Z" id="Path-109" fill="#FFC7CD"></path>
                                <path d="M4.01243216,4.35619345 C2.28830692,1.10187769 3.4449135,2.28972264 0.829279446,0.533359181" id="Path-110" stroke="#263345" stroke-width="0.5" transform="translate(2.420856, 2.444776) rotate(-158.000000) translate(-2.420856, -2.444776) "></path>
                            </g>
                            <ellipse id="Oval-27" fill="#263345" cx="12.1229629" cy="5.649024" rx="1" ry="1"></ellipse>
                            <ellipse id="Oval-27" fill="#263345" cx="13.7799048" cy="5.37228166" rx="1" ry="1"></ellipse>
                        </g>
                        <path d="M12.4417879,37.2202046 C12.7322742,38.9864277 13.3161099,40.7288247 13.3132468,42.5188739 C13.3108761,44.0010454 11.9933474,47.7653886 11.6380444,48.2473594 C11.5674549,48.3431144 13.1718587,48.2473594 13.3132468,48.063941 C13.4546348,47.8805227 14.3994812,43.4009543 14.5098367,43.070984 C15.0789258,41.3693697 14.2714012,37.565115 14.0846486,36.7058665" id="Path-112" fill="#FF939F"></path>
                        <g id="Group-35" transform="translate(6.030208, 25.673013)">
                            <g id="Group-39" transform="translate(0.000000, 0.000000)">
                                <path d="M5.05725291,23.5910904 C6.23339927,24.3463871 7.54442746,23.2124678 8.69545095,22.8642167 C10.0025711,22.4687374 9.4399478,13.1906146 9.37051623,11.7886818 C9.31469256,10.6615139 10.6001919,10.0289449 10.5910068,8.90310258 C10.5818218,7.77726022 9.74794398,5.60561169 9.86650882,5.85000585 C10.2362871,6.61221874 10.2948678,7.99114325 10.7195408,7.6761242 C10.9757184,7.48609366 11.6100383,8.21420864 12.0783928,6.86271927 C12.5467472,5.51122991 10.5677154,2.26812911 10.3854926,2.09511439 C8.75367476,0.545756108 8.8066379,0.902758796 8.40210359,0.942715635 C7.99756927,0.982672473 8.09699617,2.37880689 5.53721043,1.94383084 C5.12728698,1.87417388 4.91084372,0.963232046 4.40660267,0.62536762 C4.17259297,0.468570485 3.0659668,0.487556242 2.60755514,1.27451233 C2.14914349,2.06146843 2.21421695,3.89538921 2.32648763,3.96032663 C2.4168268,4.01257886 1.99844791,14.2477691 1.6031347,18.4947171 C1.4881383,19.7301519 0.999411082,22.2327558 1.3800195,22.9407821 C1.76062793,23.6488084 4.8822318,23.4786955 5.05725291,23.5910904 Z" id="Path-89" stroke="#00A2F2" stroke-width="0.5" fill="#FFFFFF" transform="translate(6.693635, 12.196561) rotate(-366.000000) translate(-6.693635, -12.196561) "></path>
                                <g id="Group-16" transform="translate(17.969792, 11.326987)" stroke-linecap="round">
                                    <path d="M1.4515212,1.18646427 C13.5341029,-1.78746866 10.0678474,9.33418349 9.71990365,13.5314405 C9.31073905,18.4672068 5.0739308,29.0156852 4.60804275,31.6644673 C4.04143275,34.8858988 4.51140515,38.2398784 4.60804275,41.5247607 C4.88365584,50.8933357 10.4530419,56.5360987 10.8333333,67.5886186" id="Path-2" stroke="#FFBE57"></path>
                                    <path d="M0.125329233,1.14958057 C15.9781473,-1.90992256 9.20702664,9.33418349 8.92234541,13.5314405 C8.58757438,18.4672068 5.1210949,29.0156852 4.73991376,31.6644673 C4.27632377,34.8858988 4.66084664,38.2398784 4.73991376,41.5247607 C4.96541538,50.8933357 9.52218583,56.5360987 9.83333333,67.5886186" id="Path-2" stroke="#FFCD7C"></path>
                                </g>
                                <path d="M4.95298177,10.1548208 C7.69962298,11.4080206 6.53319485,10.6008048 8.53879332,12.4093122" id="Path-113" stroke="#00A2F2" stroke-width="0.6"></path>
                            </g>
                        </g>
                        <path d="M11.635783,9.01637337 C11.8244585,9.19317002 12.1642039,9.07325042 12.3528794,9.25004707 C12.541555,9.42684373 12.5097867,9.83535043 12.6637753,9.97964397" id="Path-114" stroke="#263345" stroke-width="0.5" transform="translate(12.149779, 9.516373) scale(-1, 1) translate(-12.149779, -9.516373) "></path>
                        <path d="M13.1487453,8.00334313 C13.3374209,8.18013979 13.6771662,8.06022018 13.8658418,8.23701684 C14.0545173,8.41381349 14.0227491,8.82232019 14.1767377,8.96661374" id="Path-114" stroke="#263345" stroke-width="0.5" transform="translate(13.662741, 8.503343) scale(-1, 1) translate(-13.662741, -8.503343) "></path>
                        <path d="M16.17467,12.8996559 C17.9435199,13.4350037 17.7922361,12.8628683 17.2764176,14.2903056" id="Path-115" stroke="#3C3C3C" stroke-width="0.5" transform="translate(16.898001, 13.594981) scale(-1, 1) translate(-16.898001, -13.594981) "></path>
                        <g id="Group-8" transform="translate(17.476869, 36.468451) rotate(-33.000000) translate(-17.476869, -36.468451) translate(6.976869, 24.468451)">
                            <path d="M9.71314454,1.18205666 C10.2714565,1.95267649 10.2437542,4.2417539 10.2437542,4.2417539 C10.2437542,4.2417539 12.2759633,7.25897468 12.2469731,10.6299303 C12.2179829,14.0008859 6.19833644,21.9269881 6.60746241,22.2402928 C8.06005459,23.3526737 13.8217562,11.867613 13.8217562,10.629721 C13.8217562,8.90808977 12.2971192,4.49760757 12.2469731,3.35095738 C12.196827,2.20430719 11.8707107,3.55241752 12.2469731,2.32612393 C12.6746293,0.932330343 10.7791851,0.0646720082 10.5626692,-0.142519447" id="Path-116" stroke="#FF939F" fill="#FF939F" transform="translate(10.204636, 11.086769) scale(-1, 1) rotate(39.000000) translate(-10.204636, -11.086769) "></path>
                            <path d="M6.93882857,21.1883768 C6.56646534,22.6567736 6.39397136,25.7725484 7.82723338,22.4121939" id="Path-176" transform="translate(7.252493, 22.551837) scale(-1, 1) rotate(35.000000) translate(-7.252493, -22.551837) "></path>
                        </g>
                        <path d="M10.3675367,27.3601858 C10.0758202,27.6196059 8.9660968,26.8499425 8.12068891,27.0714819 C7.27528101,27.2930214 5.50450256,28.8048912 5.10470186,29.5655967 C4.45654281,30.7988566 4.27032243,34.0982919 5.10470186,34.2037143 L5.45015888,35.361371 C9.74586217,35.9041259 9.66107736,33.5996769 8.8346207,30.9852388" id="Path-172" stroke="#00A2F2" stroke-width="0.5" fill="#FFFFFF" transform="translate(7.457055, 31.236106) rotate(-23.000000) translate(-7.457055, -31.236106) "></path>
                    </g>
                </g>
            </g>
            <path d="M250,51 L286,51 L286,81 L286,81 C286,86.5228475 281.522847,91 276,91 L260,91 L260,91 C254.477153,91 250,86.5228475 250,81 L250,51 Z" id="Rectangle-10" fill="#FFF1DB"></path>
            <path d="M285.589383,53.1931924 C287.82843,36.2086331 290.067477,19.2240737 292.306523,2.2395144" id="Path-12" stroke="#E7B668"></path>
            <g id="Group-183" transform="translate(310.000000, 155.500000) scale(-1, 1) translate(-310.000000, -155.500000) translate(290.000000, 113.000000)">
                <g id="Group-97" transform="translate(17.169131, 16.743145) rotate(-42.000000) translate(-17.169131, -16.743145) translate(6.669131, 3.743145)">
                    <path d="M1.24198381,17.6173214 C1.14376132,14.5585268 0.93986225,11.5013193 0.947316335,8.44093767 C0.968024198,-0.060973369 13.1627386,3.1396427 10.0190693,9.78454275 C8.77316544,12.4180599 6.80089894,14.6446631 4.9989941,16.9293265 C3.93090563,18.2835726 3.35776102,17.9765893 1.86350331,18.0145737 L1.24198381,17.6173214 Z" id="Path-157" fill="#95A7C2"></path>
                    <path d="M1.27411541,17.351332 C1.36984112,18.5523446 1.92645606,20.0691472 1.77789173,21.298609 C1.53733877,23.2893338 0.53646126,24.8268686 0.865951564,25.2923419 C1.34705377,25.9719983 3.31254429,25.5353631 4.13047101,22.711613 C4.47392504,21.5258977 4.10064796,19.0928088 4.15725482,17.4736196" id="Path-160" fill="#95A7C2"></path>
                    <path d="M6.95629151,14.2040579 C11.5287229,14.0726667 16.1871007,14.7074132 20.6735858,13.8098844 C22.1153246,13.5214621 17.945149,12.692215 16.5309719,12.2886272 C14.17492,11.6162405 11.7644946,11.1543421 9.38125603,10.5871996" id="Path-158" fill="#8798B4"></path>
                    <ellipse id="Oval-14" fill="#263345" cx="8.08019426" cy="7.66212659" rx="1" ry="1"></ellipse>
                    <ellipse id="Oval-14" fill="#263345" cx="9.53000039" cy="7.3927421" rx="1" ry="1"></ellipse>
                    <path d="M2.51993028,5.16162281 C2.21358673,2.41944353 2.87215557,5.09407134 0.581498061,2.69915905 C-0.0348397259,2.05476985 1.18934129,1.72436584 1.29569994,1.52723663 C1.29948489,1.52022145 0.210870974,-0.199130183 1.97708824,0.343085455 C2.22565191,0.419392666 2.07565455,1.06898314 2.33398662,1.04053215 C2.6189121,1.00915235 2.64947432,-0.0195466059 2.70992499,0.262375668 L3.19402666,0.389147101 C3.43211163,1.49949795 3.37497401,2.6536409 3.46544769,3.7858878" id="Path-159" fill="#656F7E" transform="translate(1.937169, 2.687568) rotate(9.000000) translate(-1.937169, -2.687568) "></path>
                    <path d="M7.94121404,10.586093 C6.1853148,11.438852 6.35828836,10.7924651 7.16538738,12.4363809" id="Path-162" stroke="#263345" stroke-width="0.5" transform="translate(7.259910, 11.511237) rotate(22.000000) translate(-7.259910, -11.511237) "></path>
                </g>
                <path d="M17.6621241,54.8776583 C18.9803729,55.7637828 20.4498001,54.433453 21.7398907,54.02488 C23.2049377,53.5608982 22.574338,42.6756763 22.4965177,41.0309094 C22.4339494,39.7085005 23.8747633,38.9663618 23.8644685,37.645508 C23.8541737,36.3246542 22.9195464,33.7768462 23.0524363,34.0635728 C23.4668913,34.9578115 25.8773403,35.0413056 26.2645647,34.4011811 C27.9060432,31.6876365 27.2888599,32.498 27.8138011,30.912414 C28.3387423,29.326828 23.838363,29.8612655 23.6341239,29.6582822 C21.8051492,27.8405537 21.8645114,28.2593942 21.411101,28.3062721 C21.2191911,28.3261136 20.570013,28.2215841 20.3116569,28.5279641 C20.0533009,28.8343441 19.8547754,29.7751168 18.2000703,29.4807943 C17.9207075,29.431104 17.9928602,28.4304956 17.7525838,28.0240111 C17.5123075,27.6175267 17.1543855,28.0893243 16.932862,27.933955 C16.6705792,27.7499985 15.4302499,27.7722728 14.9164528,28.6955406 C14.4026557,29.6188083 14.4755913,31.7703895 14.6014266,31.846575 C14.7026806,31.907878 14.233753,43.9159447 13.7906779,48.8985227 C13.6617875,50.3479519 13.1140121,53.2840413 13.5406058,54.1147076 C13.9671995,54.9453738 17.4659569,54.745795 17.6621241,54.8776583 Z" id="Path-89" stroke="#00A2F2" stroke-width="0.5" fill="#FFFFFF" transform="translate(20.618547, 41.509439) rotate(-366.000000) translate(-20.618547, -41.509439) "></path>
                <path d="M17.5514031,41.2313568 C20.6298947,42.7016281 19.3225382,41.7545914 21.5704539,43.8763573" id="Path-113" stroke="#00A2F2" stroke-width="0.5"></path>
                <g id="Group-17" transform="translate(10.000000, 12.000000) rotate(-32.000000) translate(-10.000000, -12.000000) translate(7.000000, 11.000000)" stroke="#263345" stroke-width="0.5">
                    <path d="M0.602336627,1.02474065 C1.41329971,-0.195464288 1.6053902,-0.156986793 2.75784768,0.651029671" id="Path-233"></path>
                    <path d="M3.18888945,1.02474065 C3.99985253,-0.195464288 4.19194302,-0.156986793 5.3444005,0.651029671" id="Path-233"></path>
                </g>
                <g id="Group-6" transform="translate(23.423619, 67.988907) rotate(-3.000000) translate(-23.423619, -67.988907) translate(18.423619, 52.988907)">
                    <path d="M1.63095426,24.9278162 C2.6618453,31.0522217 3.38024461,28.1589242 3.45962595,25.0339285 C3.45962595,25.0339285 2.52123832,18.7188908 2.82080619,12.8445212 C3.06715745,8.01370168 4.58729508,3.62977479 4.39424047,2.0184945 C3.92439251,-1.90296989 0.766643912,2.55765096 0.766643912,2.55765096 C0.766643912,2.55765096 1.38624918,13.2047603 0.531894112,13.332182" id="Path-106" fill="#95A7C2" transform="translate(2.471514, 14.464968) scale(-1, 1) translate(-2.471514, -14.464968) "></path>
                    <path d="M8.52931432,28.196797 C6.97513491,27.7667131 5.02844657,26.3730202 3.45007896,26.0762774 C3.07514851,26.0057882 2.71672394,26.3986143 2.510091,26.3881313 C2.30345805,26.3776484 1.97625634,26.1283567 1.7233689,26.0762774 C1.7233689,26.0762774 0.703621338,28.3597742 1.24748223,29.0820395 C1.79134312,29.8043048 4.42665383,29.5694643 4.94943628,29.6869798 C5.44984488,29.7994658 8.64260059,29.9034433 9.46905811,29.6869798 C10.2955156,29.4705162 9.65005966,28.5069379 8.52931432,28.196797 Z" id="Path-173" fill="#4774B7"></path>
                </g>
                <g id="Group-7" transform="translate(19.781921, 68.510630) rotate(-1.000000) translate(-19.781921, -68.510630) translate(14.781921, 53.010630)">
                    <path d="M0.114233705,25.0845094 C1.14512475,31.2089149 1.86352406,28.3156173 1.9429054,25.1906217 C1.9429054,25.1906217 3.09155834,19.4295802 3.38578469,13.8488682 C3.65451378,8.75177305 3.08173808,3.87964169 2.87751992,2.17518767 C2.40767196,-1.74627672 0.401918603,2.67196564 0.401918603,2.67196564" id="Path-106" fill="#95A7C2" transform="translate(1.785212, 14.616914) scale(-1, 1) translate(-1.785212, -14.616914) "></path>
                    <path d="M8.50096465,29.5022723 C6.94678524,29.1199754 5.0000969,27.8811373 3.42172928,27.6173659 C3.04679883,27.5547088 2.68837427,27.9038876 2.48174132,27.8945694 C2.27510838,27.8852513 1.94790666,27.6636586 1.69501923,27.6173659 C1.69501923,27.6173659 0.675271661,29.6471409 1.21913255,30.2891545 C1.76299344,30.9311681 4.39830415,30.7224209 4.9210866,30.8268792 C5.4214952,30.9268668 8.61425091,31.0192912 9.44070844,30.8268792 C10.267166,30.6344671 9.62170998,29.7779531 8.50096465,29.5022723 Z" id="Path-173" stroke="#4D81CF" fill="#4D81CF"></path>
                </g>
                <g id="Group-8" transform="translate(21.377967, 27.832361) rotate(-33.000000) translate(-21.377967, -27.832361) translate(8.877967, 14.332361)" fill="#95A7C2">
                    <path d="M18.4724528,6.29206667 C18.9500551,6.93969481 18.9263574,8.86343321 18.9263574,8.86343321 C18.9263574,8.86343321 19.8869852,11.6300579 19.8621858,14.4630056 C19.8373865,17.2959534 3.23226798,18.7222434 2.46848026,20.6564582 C1.99435278,21.8571378 8.4339443,20.3306611 11.2395005,19.87055 C14.0450566,19.4104389 23.4474874,17.8161935 23.1014687,16.0235532 C22.8263027,14.5979841 20.6828877,9.07845238 20.6399908,8.11480869 C20.5970938,7.151165 20.3181209,8.28411559 20.6399908,7.25353967 C21.0058249,6.08219692 19.3843864,5.35301771 19.1991701,5.17889422" id="Path-116" transform="translate(12.777212, 13.143075) scale(-1, 1) rotate(59.000000) translate(-12.777212, -13.143075) "></path>
                </g>
                <path d="M18.8804151,29.0607329 C18.5797262,29.3691835 17.5554178,28.8091799 16.6840074,29.0725904 C15.812597,29.3360009 13.9873541,31.1336147 13.5752566,32.0380938 C12.9071619,33.5044403 12.7152139,37.42747 13.5752566,37.5528173 L13.9313389,38.9292716 C18.3591666,39.5746072 18.2717741,36.8346166 17.4198978,33.7260487" id="Path-172" stroke="#00A2F2" stroke-width="0.5" fill="#FFFFFF" transform="translate(15.940189, 34.012072) rotate(-55.000000) translate(-15.940189, -34.012072) "></path>
            </g>
            <path d="M316.618635,130.874513 C312.598585,130.453438 312.410555,128.60444 310.306514,127.469404" id="Path-17" stroke="#263345" stroke-width="0.5"></path>
            <path d="M310.78219,173.088881 C310.78219,173.874613 310.78219,176.019007 310.78219,179.522063 L315.86304,180.165518 C316.71657,177.942904 316.604893,173.224978 315.528009,166.01174 C313.054697,166.370585 311.353866,166.582699 310.425516,166.64808 C309.497166,166.713461 308.186188,166.429228 306.492582,165.79538 C306.632329,172.045609 306.632329,176.574773 306.492582,179.382874 L310.068276,179.203102 L310.78219,173.088881 Z" id="Path-4" fill="#37485F"></path>
            <path d="M300.94408,132.888657 C301.292269,129.413034 300.618793,129.369493 302.535477,131.637003" id="Path-18" stroke="#263345" stroke-width="0.5"></path>
            <path d="M296.191311,126.52913 C298.520502,123.549975 297.865534,123.234294 298.367204,126.68152" id="Path-19" stroke="#263345" stroke-width="0.5"></path>
            <path d="M290.923046,45.2599946 C295.623894,44.7555997 295.587101,43.8487842 293.140157,46.8403208" id="Path-20" stroke="#263345" stroke-width="0.5"></path>
        </g>
    </g>
</svg>