<?xml version="1.0" encoding="UTF-8"?>
<svg width="713px" height="533px" viewBox="0 0 713 533" version="1.1" xmlns="http://www.w3.org/2000/svg" xmlns:xlink="http://www.w3.org/1999/xlink">
    <!-- Generator: Sketch 46.1 (44463) - http://www.bohemiancoding.com/sketch -->
    <title>Group 38</title>
    <desc>Created with Sketch.</desc>
    <defs></defs>
    <g id="App" stroke="none" stroke-width="1" fill="none" fill-rule="evenodd">
        <g id="Group-38" transform="translate(6.000000, -35.000000)" stroke="#3C3C3C">
            <path d="M197.853366,305.694914 C193.521754,288.935261 187.50357,277.243788 203.093292,259.803869 C223.93193,236.492089 259.831443,238.130524 273.073077,265.482649 C292.662629,305.947135 235.588635,309.023334 248.883401,272.24979 C251.12897,266.038509 255.557306,260.759722 259.88549,255.770793 C262.763068,252.453922 266.268537,249.498191 270.242463,247.630037 C290.728129,237.999668 342.909872,241.444382 334.754117,278.630739 C333.149921,285.945108 311.247931,289.826364 310.419619,278.538579 C308.719212,255.366363 321.427276,237.738022 343.496105,230.418152 C344.171257,230.194215 369.291235,224.847651 377.476631,226.227089 C378.247757,226.357042 378.582545,227.333003 379.135502,227.88596" id="Path-42" stroke-width="12" stroke-linecap="round"></path>
            <path d="M551.400254,421.088801 C547.068642,404.329149 541.050458,392.637676 556.64018,375.197756 C577.478817,351.885976 613.378331,353.524412 626.619964,380.876537 C646.209516,421.341023 589.135523,424.417221 602.430289,387.643678 C604.675857,381.432397 609.104193,376.153609 613.432378,371.164681 C616.309956,367.847809 619.815425,364.892078 623.789351,363.023924 C644.275016,353.393556 696.456759,356.83827 688.301005,394.024626 C686.696809,401.338996 664.794819,405.220251 663.966507,393.932467 C662.2661,370.76025 674.974163,353.131909 697.042992,345.812039 C697.718145,345.588102 722.838122,340.241538 731.023518,341.620976 C731.794644,341.75093 732.129432,342.72689 732.682389,343.279847" id="Path-42" stroke-width="12" stroke-linecap="round" transform="translate(639.614639, 381.241344) rotate(133.000000) translate(-639.614639, -381.241344) "></path>
            <path d="M392.552834,164.864433 C386.84522,142.780825 378.915269,127.37538 399.457301,104.395407 C426.915646,73.6782897 474.21918,75.8371984 491.667218,111.878138 C517.479686,165.196777 442.275279,169.250177 459.793327,120.794963 C462.752235,112.610575 468.587298,105.654901 474.290396,99.0811644 C478.08208,94.7106391 482.701114,90.8159753 487.937417,88.3543743 C514.930662,75.6647744 583.688722,80.2037535 572.942169,129.202916 C570.828376,138.840805 541.96889,143.955 540.877452,129.081481 C538.636884,98.548261 555.381856,75.3200116 584.46118,65.6748752 C585.350805,65.3798012 618.450522,58.3348203 629.236132,60.1524577 C630.252218,60.3236928 630.693357,61.609682 631.421969,62.3382941" id="Path-42" stroke-width="15" transform="translate(508.789846, 112.358832) rotate(34.000000) translate(-508.789846, -112.358832) "></path>
            <path d="M6.79038528,559.609731 C1.08277139,537.526122 -6.84717895,522.120677 13.6948529,499.140704 C41.1531972,468.423587 88.4567318,470.582495 105.904769,506.623435 C131.717237,559.942074 56.5128308,563.995474 74.0308787,515.54026 C76.9897863,507.355872 82.8248499,500.400198 88.5279476,493.826461 C92.3196315,489.455936 96.9386651,485.561272 102.174969,483.099671 C129.168214,470.410071 197.926273,474.949051 187.179721,523.948213 C185.065928,533.586102 156.206441,538.700297 155.115003,523.826778 C152.874436,493.293558 169.619408,470.065309 198.698732,460.420172 C199.588357,460.125098 232.688074,453.080117 243.473684,454.897755 C244.489769,455.06899 244.930908,456.354979 245.65952,457.083591" id="Path-42" stroke-width="15" transform="translate(123.027397, 507.104129) rotate(-180.000000) translate(-123.027397, -507.104129) "></path>
        </g>
    </g>
</svg>