<?xml version="1.0" encoding="UTF-8"?>
<svg width="384px" height="216px" viewBox="0 0 384 216" version="1.1" xmlns="http://www.w3.org/2000/svg" xmlns:xlink="http://www.w3.org/1999/xlink">
    <!-- Generator: Sketch 46.1 (44463) - http://www.bohemiancoding.com/sketch -->
    <title>Group 43</title>
    <desc>Created with Sketch.</desc>
    <defs></defs>
    <g id="App" stroke="none" stroke-width="1" fill="none" fill-rule="evenodd">
        <g id="Group-43" transform="translate(0.000000, 1.000000)">
            <g id="Group-18" transform="translate(206.000000, 107.000000) scale(-1, 1) translate(-206.000000, -107.000000) translate(158.000000, 0.000000)">
                <path d="M57.3139426,117.376481 C57.7427492,127.116072 31.714265,147.586765 39.6266152,153.332083 C43.3047682,156.002865 76.6342017,158.780886 75.9908065,158.714603 C73.7811361,158.486961 76.5308045,162.439706 74.1489267,161.959495 C61.31101,159.371244 31.3615534,163.981708 25.9007791,159.213248 C22.498296,156.24213 29.3356215,137.669537 36.3659464,123.251006 C39.9410463,115.918814 46.1611852,111.085229 45.7839603,107.000511 C49.9966652,106.980048 52.8973953,107.573997 54.4861507,108.782358 C57.4864815,111.064322 58.4290788,113.92903 57.3139426,117.376481 Z" id="Path-10" fill="#879CBC" transform="translate(50.500000, 134.500000) scale(-1, 1) rotate(67.000000) translate(-50.500000, -134.500000) "></path>
                <path d="M67.2210455,115.660282 C67.3587161,118.78167 54.0505075,133.716679 50.1862172,137.483522 C42.0281867,145.43583 40.3057102,142.470279 45.6686222,146.357479 C49.3425273,149.020436 82.6334693,151.790317 81.9908171,151.724228 C79.7836987,151.497253 82.5301915,155.438417 80.1510644,154.959614 C67.3279741,152.378946 37.4131056,156.975902 31.9586378,152.221413 C26.8318328,147.752537 43.9920341,134.170785 42.8743005,122.089096 C51.0568407,113.557087 56.4761895,109.195668 59.132347,109.004839 C60.8431604,108.881928 63.5393933,111.100409 67.2210455,115.660282 Z" id="Path-10" fill="#95A7C2" transform="translate(56.500000, 132.000000) scale(-1, 1) rotate(63.000000) translate(-56.500000, -132.000000) "></path>
                <path d="M33,122.030934 C34.3455792,125.959121 34.9504124,130.225832 37.0367375,133.815496 C41.0963011,140.80025 62.2544632,129.032581 64.4503164,126.405128 C66.6610364,123.759885 64.8180408,118.402182 65.9574184,115.147898 C66.5981564,113.317826 59.9157464,112.288499 52.127731,113.571773 C46.0668886,114.570452 38.9945233,117.594546 36.3924892,118.694381 L33,122.030934 Z" id="Path-11" fill="#263345" transform="translate(49.500000, 124.500000) rotate(18.000000) translate(-49.500000, -124.500000) "></path>
                <g id="Group-11">
                    <g id="Group-97" transform="translate(43.500000, 42.500000) rotate(-10.000000) translate(-43.500000, -42.500000) translate(21.000000, 16.000000)">
                        <path d="M2.65335135,39.1684543 C2.44351062,32.36786 2.00790441,25.5707943 2.02382918,18.7666714 C2.06806908,-0.135561619 28.1206325,6.98034332 21.4045553,21.7538982 C18.7428292,27.6089765 14.5293153,32.5593662 10.679759,37.6388406 C8.39791442,40.6497255 7.17345883,39.9672117 3.98115417,40.0516622 L2.65335135,39.1684543 Z" id="Path-157" fill="#95A7C2"></path>
                        <path d="M2.7219967,38.5770822 C3.94416564,54.5346947 8.15349071,60.5196605 8.88148267,38.8489631" id="Path-160" fill="#95A7C2"></path>
                        <path d="M14.8612931,31.579772 C24.6297515,31.287651 34.5818241,32.6988779 44.1666682,30.703409 C47.2467724,30.0621621 38.337686,28.2185034 35.316464,27.3212097 C30.2830381,25.8262975 25.1334498,24.7993625 20.0419427,23.538439" id="Path-158" fill="#8798B4"></path>
                        <ellipse id="Oval-14" stroke="#263345" fill="#263345" cx="17.0834288" cy="16.8797213" rx="1" ry="1"></ellipse>
                        <ellipse id="Oval-14" stroke="#263345" fill="#263345" cx="20.171928" cy="16.2715442" rx="1" ry="1"></ellipse>
                        <path d="M5.38353266,11.475796 C4.72906595,5.37913008 6.13602029,11.3256094 1.24230175,6.00101942 C-0.074430949,4.56835391 2.54088684,3.83376922 2.76810951,3.39549338 C2.77619561,3.37989659 0.450500867,-0.442724594 4.22381492,0.762779237 C4.75484178,0.932432467 4.43439018,2.37666193 4.98628606,2.31340708 C5.59499561,2.2436406 5.66028817,-0.0434578176 5.78943387,0.583337791 L6.82365977,0.865187738 C7.33230011,3.33382219 7.21023235,5.89981927 7.40351865,8.41713504" id="Path-159" fill="#656F7E" transform="translate(4.138531, 5.975250) rotate(9.000000) translate(-4.138531, -5.975250) "></path>
                        <path d="M17.20872,23.7822233 C14.6083679,25.096469 14.8645285,24.1002776 16.0597802,26.6338298" id="Path-162" stroke="#263345" transform="translate(16.199762, 25.208027) rotate(22.000000) translate(-16.199762, -25.208027) "></path>
                    </g>
                    <g id="Group-9" transform="translate(61.996027, 57.083430) rotate(-23.000000) translate(-61.996027, -57.083430) translate(34.996027, 34.083430)" fill="#879CBC">
                        <g id="Group-12" transform="translate(27.434571, 22.729882) rotate(-96.000000) translate(-27.434571, -22.729882) translate(7.434571, -1.770118)">
                            <path d="M31.6159643,4.30976711 C31.6159643,3.1622403 29.5479361,3.21561085 29.1238674,4.30976711 C28.1852612,6.73150198 24.343904,16.6811652 19.2502553,25.1779909 C14.1566066,33.6748167 9.85706346,37.4855473 8.59042687,40.5810844 C6.13716152,46.5766273 10.7098112,44.6608232 10.7098112,44.6608232 C10.7098112,44.6608232 14.5042545,37.9668845 22.899498,23.9272982 C31.2947414,9.88771192 31.6159643,9.36728746 31.6159643,4.30976711 Z" id="Path-116" transform="translate(19.741458, 24.210542) scale(-1, 1) rotate(-25.000000) translate(-19.741458, -24.210542) "></path>
                        </g>
                    </g>
                    <g id="Group-35" transform="translate(17.000000, 23.000000)">
                        <g id="Group-39" transform="translate(0.000000, 0.000000)">
                            <path d="M13.3744637,98.0315848 C16.2523141,99.9621524 19.4601996,97.0638107 22.2765781,96.1736675 C25.4749012,95.162807 24.0982481,71.4475654 23.9283596,67.8641708 C23.7917677,64.983086 26.9371879,63.3662152 26.9147135,60.4885185 C26.8922391,57.6108218 25.1360817,49.1988801 25.4261918,49.8235611 C26.3309826,51.7718068 28.9187066,51.1050549 29.9578163,50.299854 C30.5846438,49.8141286 29.433476,47.8396956 30.5794677,44.3852364 C31.7254594,40.9307771 22.5486356,40.0393297 21.558802,40.1414609 C21.1398461,40.1846888 19.7226346,39.9569543 19.1586212,40.6244534 C18.5946078,41.2919525 18.1612096,43.34158 14.5488464,42.7003502 C13.9389735,42.5920918 14.096489,40.4121022 13.5719451,39.5265091 C13.0474012,38.640916 12.2660268,39.6688045 11.7824221,39.3303071 C11.2098361,38.9295275 8.50209104,38.9780558 7.3804278,40.9895461 C6.25876455,43.0010364 6.41798937,47.688609 6.69269857,47.8545916 C6.91374471,47.9881503 5.89003551,74.1496934 4.92276452,85.005057 C4.64138591,88.1628764 3.44554514,94.5596288 4.37683576,96.3693715 C5.30812638,98.1791142 12.9462138,97.744299 13.3744637,98.0315848 Z" id="Path-89" stroke="#00A2F2" fill="#FFFFFF" transform="translate(17.353064, 68.906725) rotate(-366.000000) translate(-17.353064, -68.906725) "></path>
                            <path d="M13.1191892,63.6853062 C19.8398003,66.8885336 16.985729,64.8252586 21.8931218,69.4478738" id="Path-113" stroke="#00A2F2"></path>
                            <path d="M13.2303814,2.23256562 C15.0007834,-0.425851018 15.4201334,-0.342021483 17.9360469,1.41837494" id="Path-233" stroke="#263345"></path>
                            <path d="M18.8770481,2.23256562 C20.64745,-0.425851018 21.0668001,-0.342021483 23.5827136,1.41837494" id="Path-233" stroke="#263345"></path>
                        </g>
                    </g>
                    <path d="M77.4133615,170.725993 C73.9606068,169.850433 69.6358568,167.013171 66.1293658,166.409066 C65.2964227,166.265565 64.5001491,167.065275 64.0410947,167.043934 C63.5820403,167.022593 62.8551312,166.515088 62.2933181,166.409066 C62.2933181,166.409066 60.0278537,171.05778 61.2360914,172.528158 C62.4443292,173.998537 68.298918,173.520451 69.4603281,173.759688 C70.5720325,173.988686 77.6650375,174.200362 79.5010901,173.759688 C81.3371427,173.319014 79.9032019,171.357374 77.4133615,170.725993 Z" id="Path-173" fill="#4D81CF" transform="translate(70.606647, 170.204311) rotate(15.000000) translate(-70.606647, -170.204311) "></path>
                    <polygon id="Star-10" fill="#EBC68C" points="2.5 45.7101408 0.0251262658 46.9748737 1.28985917 44.5 0.0251262658 42.0251263 2.5 43.2898592 4.97487373 42.0251263 3.71014083 44.5 4.97487373 46.9748737"></polygon>
                    <polygon id="Star-10" fill="#EBC68C" points="15.5 48.7101408 13.0251263 49.9748737 14.2898592 47.5 13.0251263 45.0251263 15.5 46.2898592 17.9748737 45.0251263 16.7101408 47.5 17.9748737 49.9748737"></polygon>
                    <polygon id="Star-10" fill="#EBC68C" points="12.5 57.7101408 10.0251263 58.9748737 11.2898592 56.5 10.0251263 54.0251263 12.5 55.2898592 14.9748737 54.0251263 13.7101408 56.5 14.9748737 58.9748737"></polygon>
                    <g id="Group-15" transform="translate(56.000000, 0.000000)">
                        <path d="M19.4534874,-2.84217094e-14 C19.0461478,13.5204475 19.4091245,27.0947385 18.2314688,40.5613426 C16.846604,56.3974019 2.50663757,90.2414538 0.929785706,98.7398851 C-0.987971191,109.075621 0.602704606,119.836629 0.929785706,130.375944 C1.86263001,160.434358 20.7128599,178.538767 22,214" id="Path-2" stroke="#FFBE57" stroke-width="5"></path>
                        <path d="M20.4534874,-2.84217094e-14 C20.0461478,13.5204475 20.4091245,27.0947385 19.2314688,40.5613426 C17.846604,56.3974019 3.50663757,90.2414538 1.92978571,98.7398851 C0.0120288087,109.075621 1.60270461,119.836629 1.92978571,130.375944 C2.86263001,160.434358 21.7128599,178.538767 23,214" id="Path-2" stroke="#FFCD7C" stroke-width="3"></path>
                    </g>
                    <g id="Group-8" transform="translate(43.807613, 71.094853) rotate(-33.000000) translate(-43.807613, -71.094853) translate(19.807613, 54.094853)">
                        <path d="M37.4159427,3.78657889 C38.7914158,5.76036923 38.7231676,11.6233885 38.7231676,11.6233885 C38.7231676,11.6233885 43.7297757,19.351403 43.6583546,27.9854393 C43.5869335,36.6194756 -10.0579027,16.3886283 1.85827452,24.8445124 C13.7744518,33.3003965 50.5041992,38.5271155 47.5380349,27.9849032 C46.3290858,23.688109 43.7818959,12.2787071 43.6583546,9.34178929 C43.5348133,6.40487151 42.731384,9.8577896 43.6583546,6.716881 C44.7119406,3.14695429 40.0422704,0.924618995 39.5088558,0.393939043" id="Path-116" fill="#95A7C2" transform="translate(23.919454, 17.131632) scale(-1, 1) translate(-23.919454, -17.131632) "></path>
                        <path d="M43.3092199,21.3058181 C42.3918553,25.0668262 41.9668943,33.0472674 45.4979192,24.4403837" id="Path-176" stroke="#263345" transform="translate(44.081973, 24.798051) scale(-1, 1) rotate(99.000000) translate(-44.081973, -24.798051) "></path>
                    </g>
                    <path d="M22.7279264,63.6870845 C19.0427578,65.8510989 17.1271585,68.4066149 16.9811283,71.3536326 C16.8350982,74.3006503 18.2401543,77.9190543 21.1962968,82.2088446 C32.7869362,77.2574956 32.2165375,79.1172741 26.3420459,68.7569902" id="Path-4" stroke="#00A2F2" fill="#FFFFFF"></path>
                </g>
                <path d="M57.2045298,112.660282 C57.3423542,115.78167 58.09887,122.453541 54.2302613,126.220385 C46.063114,134.172692 30.259116,139.470279 35.6280212,143.357479 C39.3060319,146.020436 72.6341772,148.790317 71.9908069,148.724228 C69.7812219,148.497253 72.530784,152.438417 70.1489982,151.959614 C57.3115778,149.378946 27.3632788,153.975902 21.9027155,149.221413 C16.7701813,144.752537 35.2482182,132.506465 34.1292355,120.424777 C41.4551474,111.002314 46.4476662,106.195668 49.1067919,106.004839 C50.8195172,105.881928 53.5187632,108.100409 57.2045298,112.660282 Z" id="Path-10" fill="#95A7C2" transform="translate(46.500000, 129.000000) scale(-1, 1) rotate(67.000000) translate(-46.500000, -129.000000) "></path>
                <path d="M83,44.9261393 C75.7054206,35.2973169 69.129662,41.5391816 78.9992679,48.7294986 C80.8735312,49.3467154 82.0014312,48.907681 82.382968,47.4123954 C82.7645047,45.9171098 82.9701821,45.0883578 83,44.9261393 Z" id="Path-8" fill="#95A7C2"></path>
                <path d="M78.5378277,44 C73.8398796,39.1955158 73.3343878,40.522043 80,40" id="Path-108" stroke="#263345" transform="translate(77.500000, 42.000000) scale(-1, 1) rotate(-248.000000) translate(-77.500000, -42.000000) "></path>
                <path d="M23,122.061997 C24.3455792,126.003695 24.9504124,130.285082 27.0367375,133.887093 C28.9854551,137.251526 36.2877799,136.09871 42.127731,133.887093 C48.4535518,131.491474 53.3085414,127.822129 54.4503164,126.451236 C56.6610364,123.796895 54.8180408,118.420763 55.9574184,115.155286 C56.5981564,113.318919 49.9157464,112.286051 42.127731,113.57374 C36.0668886,114.575854 28.9945233,117.610349 26.3924892,118.713968 L23,122.061997 Z" id="Path-11" fill="#37485F"></path>
                <g id="Group-7" transform="translate(63.000000, 160.000000) rotate(-15.000000) translate(-63.000000, -160.000000) translate(53.000000, 156.000000)" fill="#4D81CF">
                    <path d="M16.988067,4.35409572 C13.5353123,3.47853621 9.2105623,0.64127378 5.70407123,0.0371685164 C4.87112822,-0.106332564 4.07485457,0.693377868 3.61580019,0.672036843 C3.1567458,0.650695819 2.42983664,0.143190879 1.86802358,0.0371685164 C1.86802358,0.0371685164 -0.397440876,4.68588259 0.810796883,6.15626119 C2.01903464,7.62663979 7.87362352,7.14855438 9.03503356,7.38779091 C10.146738,7.61678868 17.239743,7.82846475 19.0757956,7.38779091 C20.9118481,6.94711707 19.4779074,4.98547664 16.988067,4.35409572 Z" id="Path-173"></path>
                </g>
                <path d="M36,42 C47.6514685,44.8312551 41.0215195,43.8861326 56,43.697137" id="Path-13" stroke="#263345"></path>
                <polyline id="Path-14" stroke="#EFF2F9" points="15 112 15 115.439908 15 124.986774 15 134.250719 15 135.572168 15 136"></polyline>
                <polyline id="Path-14" stroke="#EFF2F9" points="11 115 11 115.716647 11 117.705578 11 119.635566 11 119.910868 11 120"></polyline>
            </g>
            <g id="Group-16" transform="translate(0.000000, 23.000000)" fill="#FFFFFF">
                <g id="Group-17" transform="translate(0.000000, 42.000000)">
                    <rect id="Rectangle-9" x="15" y="38" width="86" height="18"></rect>
                    <circle id="Oval-2" cx="16" cy="39" r="16"></circle>
                    <circle id="Oval-2" cx="71" cy="27" r="20"></circle>
                    <circle id="Oval-2" cx="99" cy="40" r="16"></circle>
                    <circle id="Oval-2" cx="36.5" cy="24.5" r="24.5"></circle>
                </g>
                <g id="Group-17" transform="translate(269.000000, 70.000000)">
                    <rect id="Rectangle-9" x="15" y="38" width="86" height="18"></rect>
                    <circle id="Oval-2" cx="16" cy="39" r="16"></circle>
                    <circle id="Oval-2" cx="71" cy="27" r="20"></circle>
                    <circle id="Oval-2" cx="99" cy="40" r="16"></circle>
                    <circle id="Oval-2" cx="36.5" cy="24.5" r="24.5"></circle>
                </g>
                <g id="Group-17" transform="translate(306.500000, 28.000000) scale(-1, 1) translate(-306.500000, -28.000000) translate(249.000000, 0.000000)">
                    <rect id="Rectangle-9" x="15" y="38" width="86" height="18"></rect>
                    <circle id="Oval-2" cx="16" cy="39" r="16"></circle>
                    <circle id="Oval-2" cx="71" cy="27" r="20"></circle>
                    <circle id="Oval-2" cx="99" cy="40" r="16"></circle>
                    <circle id="Oval-2" cx="36.5" cy="24.5" r="24.5"></circle>
                </g>
            </g>
        </g>
    </g>
</svg>