<?xml version="1.0" encoding="UTF-8"?>
<svg width="541px" height="466px" viewBox="0 0 541 466" version="1.1" xmlns="http://www.w3.org/2000/svg" xmlns:xlink="http://www.w3.org/1999/xlink">
    <!-- Generator: Sketch 46.1 (44463) - http://www.bohemiancoding.com/sketch -->
    <title>Group 28</title>
    <desc>Created with Sketch.</desc>
    <defs></defs>
    <g id="App" stroke="none" stroke-width="1" fill="none" fill-rule="evenodd">
        <g id="Group-28" transform="translate(-32.000000, -22.000000)" fill="#3C3C3C">
            <g id="Group-7" transform="translate(206.000000, 0.000000)">
                <path d="M53.8778313,74.2140566 L17.7758817,83.7282716 L17.7758817,83.7282716 C16.7077805,84.0097562 15.613725,83.3720775 15.3322403,82.3039763 C15.1516516,81.6187272 15.3471605,80.8890781 15.8461795,80.3859293 L42.1367062,53.8778313 L32.6224912,17.7758817 L32.6224912,17.7758817 C32.3410065,16.7077805 32.9786853,15.613725 34.0467865,15.3322403 C34.7320355,15.1516516 35.4616847,15.3471605 35.9648334,15.8461795 L62.4729315,42.1367062 L98.5748811,32.6224912 L98.5748811,32.6224912 C99.6429823,32.3410065 100.737038,32.9786853 101.018522,34.0467865 C101.199111,34.7320355 101.003602,35.4616847 100.504583,35.9648334 L74.2140566,62.4729315 L83.7282716,98.5748811 L83.7282716,98.5748811 C84.0097562,99.6429823 83.3720775,100.737038 82.3039763,101.018522 C81.6187272,101.199111 80.8890781,101.003602 80.3859293,100.504583 L53.8778313,74.2140566 Z" id="Star" transform="translate(58.175381, 58.175381) rotate(-285.000000) translate(-58.175381, -58.175381) "></path>
            </g>
            <g id="Group-7" transform="translate(536.666318, 260.382670) rotate(-27.000000) translate(-536.666318, -260.382670) translate(496.166318, 219.882670)">
                <path d="M36.9351781,53.2111544 L10.1767381,60.2630048 L10.1767381,60.2630048 C9.10863689,60.5444895 8.01458139,59.9068108 7.73309675,58.8387096 C7.55250797,58.1534605 7.74801689,57.4238113 8.24703589,56.9206626 L27.7333375,37.273099 L20.6814871,10.514659 L20.6814871,10.514659 C20.4000024,9.44655783 21.0376811,8.35250234 22.1057823,8.07101769 C22.7910314,7.89042891 23.5206806,8.08593783 24.0238293,8.58495683 L43.6713929,28.0712585 L70.4298329,21.019408 L70.4298329,21.019408 C71.4979341,20.7379234 72.5919896,21.3756021 72.8734742,22.4437033 C73.054063,23.1289524 72.8585541,23.8586015 72.3595351,24.3617503 L52.8732334,44.0093138 L59.9250839,70.7677538 L59.9250839,70.7677538 C60.2065685,71.835855 59.5688898,72.9299105 58.5007886,73.2113952 C57.8155396,73.3919839 57.0858904,73.196475 56.5827416,72.697456 L36.9351781,53.2111544 Z" id="Star" transform="translate(40.303285, 40.641206) rotate(-285.000000) translate(-40.303285, -40.641206) "></path>
            </g>
            <g id="Group-7" transform="translate(79.116521, 280.116521) rotate(62.000000) translate(-79.116521, -280.116521) translate(20.616521, 221.616521)">
                <path d="M53.8778313,74.2140566 L17.7758817,83.7282716 L17.7758817,83.7282716 C16.7077805,84.0097562 15.613725,83.3720775 15.3322403,82.3039763 C15.1516516,81.6187272 15.3471605,80.8890781 15.8461795,80.3859293 L42.1367062,53.8778313 L32.6224912,17.7758817 L32.6224912,17.7758817 C32.3410065,16.7077805 32.9786853,15.613725 34.0467865,15.3322403 C34.7320355,15.1516516 35.4616847,15.3471605 35.9648334,15.8461795 L62.4729315,42.1367062 L98.5748811,32.6224912 L98.5748811,32.6224912 C99.6429823,32.3410065 100.737038,32.9786853 101.018522,34.0467865 C101.199111,34.7320355 101.003602,35.4616847 100.504583,35.9648334 L74.2140566,62.4729315 L83.7282716,98.5748811 L83.7282716,98.5748811 C84.0097562,99.6429823 83.3720775,100.737038 82.3039763,101.018522 C81.6187272,101.199111 80.8890781,101.003602 80.3859293,100.504583 L53.8778313,74.2140566 Z" id="Star" transform="translate(58.175381, 58.175381) rotate(-285.000000) translate(-58.175381, -58.175381) "></path>
            </g>
            <g id="Group-7" transform="translate(433.611091, 439.611091) rotate(122.000000) translate(-433.611091, -439.611091) translate(375.111091, 381.111091)">
                <path d="M53.8778313,74.2140566 L17.7758817,83.7282716 L17.7758817,83.7282716 C16.7077805,84.0097562 15.613725,83.3720775 15.3322403,82.3039763 C15.1516516,81.6187272 15.3471605,80.8890781 15.8461795,80.3859293 L42.1367062,53.8778313 L32.6224912,17.7758817 L32.6224912,17.7758817 C32.3410065,16.7077805 32.9786853,15.613725 34.0467865,15.3322403 C34.7320355,15.1516516 35.4616847,15.3471605 35.9648334,15.8461795 L62.4729315,42.1367062 L98.5748811,32.6224912 L98.5748811,32.6224912 C99.6429823,32.3410065 100.737038,32.9786853 101.018522,34.0467865 C101.199111,34.7320355 101.003602,35.4616847 100.504583,35.9648334 L74.2140566,62.4729315 L83.7282716,98.5748811 L83.7282716,98.5748811 C84.0097562,99.6429823 83.3720775,100.737038 82.3039763,101.018522 C81.6187272,101.199111 80.8890781,101.003602 80.3859293,100.504583 L53.8778313,74.2140566 Z" id="Star" transform="translate(58.175381, 58.175381) rotate(-285.000000) translate(-58.175381, -58.175381) "></path>
            </g>
        </g>
    </g>
</svg>