<?xml version="1.0" encoding="UTF-8"?>
<svg width="819px" height="734px" viewBox="0 0 819 734" version="1.1" xmlns="http://www.w3.org/2000/svg" xmlns:xlink="http://www.w3.org/1999/xlink">
    <!-- Generator: Sketch 46.2 (44496) - http://www.bohemiancoding.com/sketch -->
    <title>Group 6</title>
    <desc>Created with Sketch.</desc>
    <defs></defs>
    <g id="Team-Suppl" stroke="none" stroke-width="1" fill="none" fill-rule="evenodd">
        <g id="Group-6" transform="translate(0.000000, -1.000000)">
            <g id="Group-15" transform="translate(394.500000, 71.500000) rotate(-180.000000) translate(-394.500000, -71.500000) ">
                <path d="M457,50 L439,68" id="Line-5" stroke="#BFC3DE" opacity="0.5" stroke-linecap="square"></path>
                <path d="M167,92 L189,105" id="Line-5" stroke="#A0E6DF" opacity="0.5" stroke-linecap="square"></path>
                <path d="M47,122 L69,135" id="Line-5" stroke="#A0E6DF" opacity="0.5" stroke-linecap="square"></path>
                <path d="M7,22 L29,35" id="Line-5" stroke="#A0E6DF" opacity="0.5" stroke-linecap="square"></path>
                <circle id="Oval-4" fill="#FFBD8B" cx="253.5" cy="91.5" r="3.5"></circle>
                <circle id="Oval-4" fill="#FFBD8B" cx="3.5" cy="131.5" r="3.5"></circle>
                <polygon id="Star-2" fill="#FFDEA9" points="141 59.8929893 137.464466 61.5355339 139.107011 58 137.464466 54.4644661 141 56.1070107 144.535534 54.4644661 142.892989 58 144.535534 61.5355339"></polygon>
                <polygon id="Star-2" fill="#FFDEA9" points="471 109.892989 467.464466 111.535534 469.107011 108 467.464466 104.464466 471 106.107011 474.535534 104.464466 472.892989 108 474.535534 111.535534"></polygon>
                <circle id="Oval-4" fill="#88A1C8" opacity="0.5" cx="325.5" cy="137.5" r="3.5"></circle>
                <circle id="Oval-4" fill="#FFBD8B" cx="713.5" cy="21.5" r="3.5"></circle>
                <circle id="Oval-4" fill="#88A1C8" opacity="0.5" cx="785.5" cy="67.5" r="3.5"></circle>
                <circle id="Oval-4" fill="#88A1C8" cx="375.5" cy="51.5" r="3.5"></circle>
                <circle id="Oval-4" fill="#88A1C8" opacity="0.5" cx="192.5" cy="123.5" r="3.5"></circle>
                <path d="M188,48 C182.898879,13.4373379 168.396344,54.9551839 149,15" id="Path-4" stroke="#88A1C8" opacity="0.5" stroke-linecap="round"></path>
                <path d="M580,142 C574.898879,107.437338 560.396344,148.955184 541,109" id="Path-4" stroke="#88A1C8" opacity="0.5" stroke-linecap="round"></path>
                <polyline id="Line-6" stroke="#A7CEE1" opacity="0.5" stroke-linecap="square" transform="translate(527.500000, 12.500000) rotate(-2.000000) translate(-527.500000, -12.500000) " points="504 24 511.211401 13.4005464 523.60183 18.7002732 530.892359 1 551 13.4005464"></polyline>
                <polyline id="Line-6" stroke="#A7CEE1" opacity="0.5" stroke-linecap="square" transform="translate(617.500000, 72.500000) rotate(-2.000000) translate(-617.500000, -72.500000) " points="594 84 601.211401 73.4005464 613.60183 78.7002732 620.892359 61 641 73.4005464"></polyline>
                <polyline id="Line-6" stroke="#A7CEE1" opacity="0.5" stroke-linecap="square" transform="translate(747.500000, 72.500000) rotate(137.000000) translate(-747.500000, -72.500000) " points="724 84 731.211401 73.4005464 743.60183 78.7002732 750.892359 61 771 73.4005464"></polyline>
                <path d="M298,34 L298.197451,44" id="Line-7" stroke="#88A1C8" stroke-width="2" opacity="0.5" stroke-linecap="square"></path>
            </g>
            <g id="Group-15" transform="translate(30.000000, 133.000000)">
                <path d="M457,50 L439,68" id="Line-5" stroke="#BFC3DE" opacity="0.5" stroke-linecap="square"></path>
                <path d="M167,92 L189,105" id="Line-5" stroke="#A0E6DF" opacity="0.5" stroke-linecap="square"></path>
                <path d="M47,122 L69,135" id="Line-5" stroke="#A0E6DF" opacity="0.5" stroke-linecap="square"></path>
                <path d="M7,22 L29,35" id="Line-5" stroke="#A0E6DF" opacity="0.5" stroke-linecap="square"></path>
                <circle id="Oval-4" fill="#FFBD8B" cx="253.5" cy="91.5" r="3.5"></circle>
                <circle id="Oval-4" fill="#FFBD8B" cx="3.5" cy="131.5" r="3.5"></circle>
                <polygon id="Star-2" fill="#FFDEA9" points="141 59.8929893 137.464466 61.5355339 139.107011 58 137.464466 54.4644661 141 56.1070107 144.535534 54.4644661 142.892989 58 144.535534 61.5355339"></polygon>
                <polygon id="Star-2" fill="#FFDEA9" points="471 109.892989 467.464466 111.535534 469.107011 108 467.464466 104.464466 471 106.107011 474.535534 104.464466 472.892989 108 474.535534 111.535534"></polygon>
                <circle id="Oval-4" fill="#88A1C8" opacity="0.5" cx="325.5" cy="137.5" r="3.5"></circle>
                <circle id="Oval-4" fill="#FFBD8B" cx="713.5" cy="21.5" r="3.5"></circle>
                <circle id="Oval-4" fill="#88A1C8" opacity="0.5" cx="785.5" cy="67.5" r="3.5"></circle>
                <circle id="Oval-4" fill="#88A1C8" cx="375.5" cy="51.5" r="3.5"></circle>
                <circle id="Oval-4" fill="#88A1C8" opacity="0.5" cx="192.5" cy="123.5" r="3.5"></circle>
                <path d="M188,48 C182.898879,13.4373379 168.396344,54.9551839 149,15" id="Path-4" stroke="#88A1C8" opacity="0.5" stroke-linecap="round"></path>
                <path d="M670,142 C664.898879,107.437338 650.396344,148.955184 631,109" id="Path-4" stroke="#88A1C8" opacity="0.5" stroke-linecap="round"></path>
                <polyline id="Line-6" stroke="#A7CEE1" opacity="0.5" stroke-linecap="square" transform="translate(527.500000, 12.500000) rotate(-2.000000) translate(-527.500000, -12.500000) " points="504 24 511.211401 13.4005464 523.60183 18.7002732 530.892359 1 551 13.4005464"></polyline>
                <polyline id="Line-6" stroke="#A7CEE1" opacity="0.5" stroke-linecap="square" transform="translate(667.500000, 72.500000) rotate(-2.000000) translate(-667.500000, -72.500000) " points="644 84 651.211401 73.4005464 663.60183 78.7002732 670.892359 61 691 73.4005464"></polyline>
                <polyline id="Line-6" stroke="#A7CEE1" opacity="0.5" stroke-linecap="square" transform="translate(747.500000, 72.500000) rotate(137.000000) translate(-747.500000, -72.500000) " points="724 84 731.211401 73.4005464 743.60183 78.7002732 750.892359 61 771 73.4005464"></polyline>
                <path d="M298,34 L298.197451,44" id="Line-7" stroke="#88A1C8" stroke-width="2" opacity="0.5" stroke-linecap="square"></path>
            </g>
            <g id="Group-15" transform="translate(20.000000, 283.000000)">
                <path d="M457,50 L439,68" id="Line-5" stroke="#BFC3DE" opacity="0.5" stroke-linecap="square"></path>
                <path d="M167,92 L189,105" id="Line-5" stroke="#A0E6DF" opacity="0.5" stroke-linecap="square"></path>
                <path d="M47,122 L69,135" id="Line-5" stroke="#A0E6DF" opacity="0.5" stroke-linecap="square"></path>
                <path d="M7,22 L29,35" id="Line-5" stroke="#A0E6DF" opacity="0.5" stroke-linecap="square"></path>
                <circle id="Oval-4" fill="#FFBD8B" cx="253.5" cy="91.5" r="3.5"></circle>
                <circle id="Oval-4" fill="#FFBD8B" cx="3.5" cy="131.5" r="3.5"></circle>
                <polygon id="Star-2" fill="#FFDEA9" points="141 59.8929893 137.464466 61.5355339 139.107011 58 137.464466 54.4644661 141 56.1070107 144.535534 54.4644661 142.892989 58 144.535534 61.5355339"></polygon>
                <polygon id="Star-2" fill="#FFDEA9" points="471 109.892989 467.464466 111.535534 469.107011 108 467.464466 104.464466 471 106.107011 474.535534 104.464466 472.892989 108 474.535534 111.535534"></polygon>
                <circle id="Oval-4" fill="#88A1C8" opacity="0.5" cx="325.5" cy="137.5" r="3.5"></circle>
                <circle id="Oval-4" fill="#FFBD8B" cx="713.5" cy="21.5" r="3.5"></circle>
                <circle id="Oval-4" fill="#88A1C8" opacity="0.5" cx="785.5" cy="67.5" r="3.5"></circle>
                <circle id="Oval-4" fill="#88A1C8" cx="375.5" cy="51.5" r="3.5"></circle>
                <circle id="Oval-4" fill="#88A1C8" opacity="0.5" cx="192.5" cy="123.5" r="3.5"></circle>
                <path d="M188,48 C182.898879,13.4373379 168.396344,54.9551839 149,15" id="Path-4" stroke="#88A1C8" opacity="0.5" stroke-linecap="round"></path>
                <path d="M670,142 C664.898879,107.437338 650.396344,148.955184 631,109" id="Path-4" stroke="#88A1C8" opacity="0.5" stroke-linecap="round"></path>
                <polyline id="Line-6" stroke="#A7CEE1" opacity="0.5" stroke-linecap="square" transform="translate(527.500000, 12.500000) rotate(-2.000000) translate(-527.500000, -12.500000) " points="504 24 511.211401 13.4005464 523.60183 18.7002732 530.892359 1 551 13.4005464"></polyline>
                <polyline id="Line-6" stroke="#A7CEE1" opacity="0.5" stroke-linecap="square" transform="translate(667.500000, 72.500000) rotate(-2.000000) translate(-667.500000, -72.500000) " points="644 84 651.211401 73.4005464 663.60183 78.7002732 670.892359 61 691 73.4005464"></polyline>
                <polyline id="Line-6" stroke="#A7CEE1" opacity="0.5" stroke-linecap="square" transform="translate(747.500000, 72.500000) rotate(137.000000) translate(-747.500000, -72.500000) " points="724 84 731.211401 73.4005464 743.60183 78.7002732 750.892359 61 771 73.4005464"></polyline>
                <path d="M298,34 L298.197451,44" id="Line-7" stroke="#88A1C8" stroke-width="2" opacity="0.5" stroke-linecap="square"></path>
            </g>
            <g id="Group-15" transform="translate(23.000000, 423.000000)">
                <path d="M594,0 L576,18" id="Line-5" stroke="#BFC3DE" opacity="0.5" stroke-linecap="square"></path>
                <path d="M304,102 L326,115" id="Line-5" stroke="#A0E6DF" opacity="0.5" stroke-linecap="square"></path>
                <path d="M184,132 L206,145" id="Line-5" stroke="#A0E6DF" opacity="0.5" stroke-linecap="square"></path>
                <path d="M144,32 L166,45" id="Line-5" stroke="#A0E6DF" opacity="0.5" stroke-linecap="square"></path>
                <circle id="Oval-4" fill="#FFBD8B" cx="390.5" cy="101.5" r="3.5"></circle>
                <circle id="Oval-4" fill="#FFBD8B" cx="280.5" cy="141.5" r="3.5"></circle>
                <polygon id="Star-2" fill="#FFDEA9" points="278 69.8929893 274.464466 71.5355339 276.107011 68 274.464466 64.4644661 278 66.1070107 281.535534 64.4644661 279.892989 68 281.535534 71.5355339"></polygon>
                <polygon id="Star-2" fill="#FFDEA9" points="608 119.892989 604.464466 121.535534 606.107011 118 604.464466 114.464466 608 116.107011 611.535534 114.464466 609.892989 118 611.535534 121.535534"></polygon>
                <circle id="Oval-4" fill="#88A1C8" opacity="0.5" cx="462.5" cy="147.5" r="3.5"></circle>
                <circle id="Oval-4" fill="#FFBD8B" cx="150.5" cy="31.5" r="3.5"></circle>
                <circle id="Oval-4" fill="#88A1C8" opacity="0.5" cx="222.5" cy="77.5" r="3.5"></circle>
                <circle id="Oval-4" fill="#88A1C8" cx="512.5" cy="61.5" r="3.5"></circle>
                <circle id="Oval-4" fill="#88A1C8" opacity="0.5" cx="329.5" cy="133.5" r="3.5"></circle>
                <path d="M325,58 C319.898879,23.4373379 305.396344,64.9551839 286,25" id="Path-4" stroke="#88A1C8" opacity="0.5" stroke-linecap="round"></path>
                <path d="M107,152 C101.898879,117.437338 87.3963441,158.955184 68,119" id="Path-4" stroke="#88A1C8" opacity="0.5" stroke-linecap="round"></path>
                <polyline id="Line-6" stroke="#A7CEE1" opacity="0.5" stroke-linecap="square" transform="translate(744.500000, 22.500000) rotate(-2.000000) translate(-744.500000, -22.500000) " points="721 34 728.211401 23.4005464 740.60183 28.7002732 747.892359 11 768 23.4005464"></polyline>
                <polyline id="Line-6" stroke="#A7CEE1" opacity="0.5" stroke-linecap="square" transform="translate(24.500000, 52.500000) rotate(-2.000000) translate(-24.500000, -52.500000) " points="1 64 8.2114013 53.4005464 20.6018297 58.7002732 27.8923593 41 48 53.4005464"></polyline>
                <polyline id="Line-6" stroke="#A7CEE1" opacity="0.5" stroke-linecap="square" transform="translate(184.500000, 82.500000) rotate(137.000000) translate(-184.500000, -82.500000) " points="161 94 168.211401 83.4005464 180.60183 88.7002732 187.892359 71 208 83.4005464"></polyline>
                <path d="M435,44 L435.197451,54" id="Line-7" stroke="#88A1C8" stroke-width="2" opacity="0.5" stroke-linecap="square"></path>
            </g>
            <g id="Group-15" transform="translate(0.000000, 570.000000)">
                <path d="M457,73 L439,91" id="Line-5" stroke="#BFC3DE" opacity="0.5" stroke-linecap="square"></path>
                <path d="M167,115 L189,128" id="Line-5" stroke="#A0E6DF" opacity="0.5" stroke-linecap="square"></path>
                <path d="M47,145 L69,158" id="Line-5" stroke="#A0E6DF" opacity="0.5" stroke-linecap="square"></path>
                <path d="M31.7237206,0.370834875 L44.2762794,22.6291651" id="Line-5" stroke="#A0E6DF" opacity="0.5" stroke-linecap="square"></path>
                <circle id="Oval-4" fill="#FFBD8B" cx="253.5" cy="114.5" r="3.5"></circle>
                <circle id="Oval-4" fill="#FFBD8B" cx="3.5" cy="154.5" r="3.5"></circle>
                <polygon id="Star-2" fill="#FFDEA9" points="141 82.8929893 137.464466 84.5355339 139.107011 81 137.464466 77.4644661 141 79.1070107 144.535534 77.4644661 142.892989 81 144.535534 84.5355339"></polygon>
                <polygon id="Star-2" fill="#FFDEA9" points="471 132.892989 467.464466 134.535534 469.107011 131 467.464466 127.464466 471 129.107011 474.535534 127.464466 472.892989 131 474.535534 134.535534"></polygon>
                <circle id="Oval-4" fill="#88A1C8" opacity="0.5" cx="325.5" cy="160.5" r="3.5"></circle>
                <circle id="Oval-4" fill="#FFBD8B" cx="713.5" cy="44.5" r="3.5"></circle>
                <circle id="Oval-4" fill="#88A1C8" opacity="0.5" cx="785.5" cy="90.5" r="3.5"></circle>
                <circle id="Oval-4" fill="#88A1C8" cx="375.5" cy="74.5" r="3.5"></circle>
                <circle id="Oval-4" fill="#88A1C8" opacity="0.5" cx="192.5" cy="146.5" r="3.5"></circle>
                <path d="M188,71 C182.898879,36.4373379 168.396344,77.9551839 149,38" id="Path-4" stroke="#88A1C8" opacity="0.5" stroke-linecap="round"></path>
                <path d="M670,165 C664.898879,130.437338 650.396344,171.955184 631,132" id="Path-4" stroke="#88A1C8" opacity="0.5" stroke-linecap="round"></path>
                <polyline id="Line-6" stroke="#A7CEE1" opacity="0.5" stroke-linecap="square" transform="translate(647.500000, 35.500000) rotate(-2.000000) translate(-647.500000, -35.500000) " points="624 47 631.211401 36.4005464 643.60183 41.7002732 650.892359 24 671 36.4005464"></polyline>
                <polyline id="Line-6" stroke="#A7CEE1" opacity="0.5" stroke-linecap="square" transform="translate(667.500000, 95.500000) rotate(-2.000000) translate(-667.500000, -95.500000) " points="644 107 651.211401 96.4005464 663.60183 101.700273 670.892359 84 691 96.4005464"></polyline>
                <polyline id="Line-6" stroke="#A7CEE1" opacity="0.5" stroke-linecap="square" transform="translate(747.500000, 95.500000) rotate(137.000000) translate(-747.500000, -95.500000) " points="724 107 731.211401 96.4005464 743.60183 101.700273 750.892359 84 771 96.4005464"></polyline>
                <path d="M298,57 L298.197451,67" id="Line-7" stroke="#88A1C8" stroke-width="2" opacity="0.5" stroke-linecap="square"></path>
            </g>
        </g>
    </g>
</svg>