<?xml version="1.0" encoding="UTF-8"?>
<svg width="355px" height="355px" viewBox="0 0 355 355" version="1.1" xmlns="http://www.w3.org/2000/svg" xmlns:xlink="http://www.w3.org/1999/xlink">
    <!-- Generator: Sketch 46.2 (44496) - http://www.bohemiancoding.com/sketch -->
    <title>Group 25</title>
    <desc>Created with Sketch.</desc>
    <defs></defs>
    <g id="Emails" stroke="none" stroke-width="1" fill="none" fill-rule="evenodd">
        <g id="Group-25">
            <circle id="Oval-28" fill="#FFF4E5" cx="177.07711" cy="177.07711" r="177.07711"></circle>
            <g id="Group-139" transform="translate(122.000000, 36.000000)">
                <g id="Group-101" transform="translate(0.158105, 0.428581)">
                    <g id="Group-97" transform="translate(115.481982, 148.773915) rotate(-10.000000) translate(-115.481982, -148.773915) translate(21.981982, 14.773915)">
                        <path d="M31.197666,47.2134864 C28.4740988,22.1307074 34.3291479,46.5955914 13.9639082,24.6892719 C8.48431693,18.7950286 19.367978,15.7728152 20.3135665,13.9696697 C20.3472169,13.9055017 10.6688239,-1.82144851 26.3714935,3.1382108 C28.5813651,3.83619467 27.2478038,9.77801413 29.5445219,9.51777231 C32.0776704,9.23074048 32.3493858,-0.178793268 32.8868264,2.39995646 L37.1907639,3.55953777 C39.3074738,13.7159434 38.7994881,24.2729163 39.6038501,34.6296056" id="Path-159" fill="#656F7E" transform="translate(26.016585, 24.583252) rotate(9.000000) translate(-26.016585, -24.583252) "></path>
                        <path d="M14.3118204,172.878738 C13.353489,142.17399 11.3640985,111.485174 11.4368261,80.7644948 C11.6388674,-4.57926614 130.619539,27.549112 99.9475719,94.251852 C87.79161,120.687586 68.5487163,143.038642 50.9679973,165.972517 C40.5469345,179.566691 34.9549109,176.485135 20.3758253,176.86643 L14.3118204,172.878738 Z" id="Path-157" fill="#95A7C2"></path>
                        <path d="M14.3420822,157.693949 C13.1826665,181.829312 8.72004987,216.076698 0.95423229,260.436107 L20.8000127,267.558258 C30.214167,214.167936 40.3425819,178.398331 51.1852574,160.249442" id="Path-160" fill="#95A7C2"></path>
                        <g id="Group-110" transform="translate(77.716291, 97.343841)">
                            <path d="M0.128928473,33.8548854 C35.6343437,32.6530471 71.8071416,38.4590879 106.645174,30.2493705 C117.840429,27.6111654 85.4585728,20.0260224 74.4773372,16.3343948 C56.1823444,10.1840576 37.4651359,5.95906271 18.9590353,0.77139668" id="Path-158" fill="#8798B4"></path>
                            <path d="M0.128928473,33.8548854 C35.6343437,32.6530471 71.8071416,38.4590879 106.645174,30.2493705 C117.840429,27.6111654 85.4585728,20.0260224 74.4773372,16.3343948" id="Path-158" fill="#7C8EAB"></path>
                        </g>
                        <g id="Group-102" transform="translate(76.913440, 63.540755)" stroke="#263345" fill="#263345">
                            <ellipse id="Oval-14" cx="4.09857548" cy="5.63276552" rx="3.2045446" ry="3.31748597"></ellipse>
                            <ellipse id="Oval-14" cx="19.7552326" cy="3.39067112" rx="3.15028233" ry="3.26131127"></ellipse>
                        </g>
                        <path d="M80.4082558,97.8443387 C69.5868747,103.251382 70.6528885,99.1528712 75.6269359,109.57636" id="Path-162" stroke="#263345" stroke-width="2" stroke-linecap="round" transform="translate(76.209470, 103.710349) rotate(22.000000) translate(-76.209470, -103.710349) "></path>
                    </g>
                    <path d="M91.5465314,119.819225 C136.573421,139.520621 110.010077,133.283187 172.933223,128.586085" id="Path-121" stroke="#263345" stroke-width="2" stroke-linecap="round"></path>
                    <path d="M72.0658398,52.930515 C82.3319287,41.3530878 77.0710324,40.7458934 86.5930999,46.4985564" id="Path-127" stroke="#263345" stroke-width="2" stroke-linecap="round"></path>
                    <path d="M90.0230238,47.799891 C100.289113,36.2224638 95.0282165,35.6152694 104.550284,41.3679324" id="Path-127" stroke="#263345" stroke-width="2" stroke-linecap="round"></path>
                </g>
            </g>
            <path d="M177.303527,354.561375 C213.272895,354.858383 246.932675,344.121076 278.282866,322.349454 C248.909385,316.250064 226.641838,312.551277 211.480225,311.253094 C207.539015,310.915635 200.139596,310.915635 189.28197,311.253094 C190.740386,315.798808 187.36425,318.095 179.15356,318.14167 C170.94287,318.188339 167.35775,315.892147 168.3982,311.253094 C158.526825,311.253094 151.939909,311.253094 148.637452,311.253094 C118.866399,311.253094 95.481508,315.514892 78.4827806,324.038487 C108.39391,344.090071 141.334159,354.264367 177.303527,354.561375 Z" id="Oval-28" fill="#FFFFFF"></path>
        </g>
    </g>
</svg>