<?xml version="1.0" encoding="UTF-8"?>
<svg width="355px" height="355px" viewBox="0 0 355 355" version="1.1" xmlns="http://www.w3.org/2000/svg" xmlns:xlink="http://www.w3.org/1999/xlink">
    <!-- Generator: Sketch 46.2 (44496) - http://www.bohemiancoding.com/sketch -->
    <title>Group 24</title>
    <desc>Created with Sketch.</desc>
    <defs></defs>
    <g id="Emails" stroke="none" stroke-width="1" fill="none" fill-rule="evenodd">
        <g id="Group-24">
            <circle id="Oval-28" fill="#FFDEE2" cx="177.07711" cy="177.07711" r="177.07711"></circle>
            <g id="Group-141" transform="translate(47.000000, 56.000000)">
                <path d="M118.415054,189.835691 C103.346322,163.50488 36.0875877,107.583062 44.9003698,68.4104105 C49.0394584,50.012239 67.9571653,44.5020492 84.7698497,48.4474651 C89.9421689,49.6612482 120.532156,72.6861225 136.468259,69.1806361 C170.468903,61.701468 205.711459,34.7788481 241.160358,36.7400363 C243.888347,36.8909606 246.537025,38.9597246 247.988245,41.2746038 C249.27629,43.3291988 249.553058,46.3198779 248.550184,48.5277422 C233.874202,80.8374557 200.715241,81.6428493 177.183902,99.8963646 C134.139141,133.286653 150.932912,151.005642 154.404049,169.057436 C155.205839,173.22718 171.927303,202.189605 204.56844,255.94471 C196.80501,260.858723 189.981651,263.725492 184.098362,264.545019 L118.415054,189.835691 Z" id="Path-175" fill="#A2E4EB" transform="translate(146.632298, 150.591603) rotate(30.000000) translate(-146.632298, -150.591603) "></path>
                <ellipse id="Oval-20" stroke="#263345" fill="#263345" transform="translate(145.378451, 63.884156) scale(-1, 1) rotate(32.000000) translate(-145.378451, -63.884156) " cx="145.378451" cy="63.8841558" rx="2.82908471" ry="2.84596735"></ellipse>
                <ellipse id="Oval-20" stroke="#263345" fill="#263345" transform="translate(155.334516, 58.461815) scale(-1, 1) rotate(32.000000) translate(-155.334516, -58.461815) " cx="155.334516" cy="58.4618152" rx="2.24402649" ry="2.25741778"></ellipse>
                <polyline id="Line-24" stroke="#263345" stroke-width="2" stroke-linecap="round" points="286.78656 105.334474 269.871535 111.485392 257.163702 101.143171 242.492639 106.314281 220.814762 97.283744 212.126138 106.314281 197.524969 93.9659914 181.851372 106.314281 152.915502 89.9711464"></polyline>
                <polyline id="Line-25" stroke="#263345" stroke-width="2" stroke-linecap="round" points="162.230467 88.4194487 151.46636 88.4194487 151.46636 95.8047962"></polyline>
                <path d="M119.634171,23.4826999 C129.195756,12.9405711 123.951649,13.2902964 135.024934,20.0576171" id="Path-180" stroke="#263345" stroke-width="2" stroke-linecap="round"></path>
                <path d="M139.624655,18.8695113 C149.18624,8.3273825 143.942133,8.67710781 155.015418,15.4444284" id="Path-180" stroke="#263345" stroke-width="2" stroke-linecap="round"></path>
            </g>
            <path d="M177.820747,354.561375 C213.790115,354.858383 247.449894,344.121076 278.800085,322.349454 C249.426604,316.250064 227.159057,312.551277 211.997445,311.253094 C208.056234,310.915635 201.129681,310.915635 191.217783,311.253094 C191.730471,315.798808 187.881469,318.095 179.67078,318.14167 C171.46009,318.188339 166.840996,315.892147 165.8135,311.253094 C158.010071,311.253094 152.457128,311.253094 149.154672,311.253094 C119.383618,311.253094 95.9987275,315.514892 79,324.038487 C108.91113,344.090071 141.851379,354.264367 177.820747,354.561375 Z" id="Oval-28" fill="#FFFFFF"></path>
        </g>
    </g>
</svg>