<?xml version="1.0" encoding="UTF-8"?>
<svg width="355px" height="355px" viewBox="0 0 355 355" version="1.1" xmlns="http://www.w3.org/2000/svg" xmlns:xlink="http://www.w3.org/1999/xlink">
    <!-- Generator: Sketch 46.2 (44496) - http://www.bohemiancoding.com/sketch -->
    <title>Group 22</title>
    <desc>Created with Sketch.</desc>
    <defs></defs>
    <g id="Emails" stroke="none" stroke-width="1" fill="none" fill-rule="evenodd">
        <g id="Group-22">
            <circle id="Oval-28" fill="#E2F2FB" cx="177.797657" cy="177.07711" r="177.07711"></circle>
            <g id="Group-79" transform="translate(242.000000, 198.000000) scale(-1, 1) translate(-242.000000, -198.000000) translate(151.000000, 75.000000)">
                <path d="M167.953931,241.67275 C166.7213,219.790816 160.827797,127.368604 163.213448,105.580722 C165.771514,82.2182 200.247299,36.1593374 167.953931,15.1511461 C116.509575,-18.3155669 99.5750129,40.0600303 66.3476233,59.3370347 C44.3474226,72.1005401 3.0263638,74.5503613 11.0092889,110.331104 C12.213626,115.729135 27.6513137,93.4305335 31.4017516,97.5194209 C37.6118361,104.28992 49.7560027,96.2511813 58.2515582,92.5155866 C69.2651869,87.6727659 81.3249817,85.0023671 93.3123636,83.817923 C100.888821,83.0693117 108.788911,84.2577586 115.953667,86.8141816 C132.910821,92.8645849 134.753423,114.774091 136.690549,139.137939 C137.945393,154.920503 139.721868,171.646572 140.053099,185.330022 C140.156502,189.601711 140.359312,193.72257 140.053099,197.238658 C139.551348,203 135.09039,244.886875 140.053099,245.404374 L167.953931,241.67275 Z" id="Path-26" fill="#FF939F"></path>
                <circle id="Oval-3" fill="#263345" cx="116.5" cy="33.5" r="3.5"></circle>
                <circle id="Oval-3" fill="#263345" cx="100.5" cy="31.5" r="3.5"></circle>
                <path d="M76.8283953,51 C80.1404714,54.7004794 84.3632833,57.8053299 86.7646235,62.1014383 C90.4647133,68.7210697 101.648077,87.0057385 94.8546554,83.2498107 L80.1238556,86 C74.4529719,82.864698 74.6712217,74.3979997 70.3408617,69.6966944 C67.1697915,66.2539854 56.2423832,66.4151332 58.2427378,62.2445117" id="Path-31" fill="#FFC6CD"></path>
                <path d="M61.4860249,61 C65.0041949,64.6261273 69.4897712,67.6685935 72.0405348,71.878382 C73.5907021,74.4367832 80.596367,81.7149457 78.666338,86.7106216 C77.379652,90.0410722 70.9908727,92.470865 59.5,94 C56.6670345,90.4028634 59.1946211,83.9278741 54.5948045,79.3210301 C51.2264145,75.9474939 38.1065763,72.9486863 40.2314029,68.8618633" id="Path-31" fill="#FF8593"></path>
                <path d="M39.4707085,68 C27.8640982,74.4296591 18.0356702,75.0914072 8.00383012,85.6829124 C4.13144832,89.77133 -0.571024195,104.514093 0.0567855611,113.355586 C0.684595318,122.19708 11.289687,141 13.8179905,141 C18.2101839,141 21.8613588,106.77154 29.9210402,104.5 C39.2436831,101.872507 50.224503,98.0453398 57.3446436,93.7811229 C57.3446436,93.7811229 62.4245474,75.8202676 44.2981656,69.6484074 L39.4707085,68 Z" id="Path-32" fill="#263345"></path>
                <path d="M97,3.1739365 C108.435707,-0.157524256 104.673533,-2.19580426 110,4" id="Path-33" stroke="#263345" stroke-width="2" stroke-linecap="round"></path>
                <path d="M117,3.1739365 C128.435707,-0.157524256 124.673533,-2.19580426 130,4" id="Path-33" stroke="#263345" stroke-width="2" stroke-linecap="round"></path>
                <path d="M50,77.7000208 C85.5377789,78.5053853 70.5985239,83.6032357 96,66" id="Path-81" stroke="#263345" stroke-width="2"></path>
                <path d="M87,65.2012229 C99.5656248,65.2012229 95.7167472,62.486444 94.4172002,77" id="Path-88" stroke="#263345" stroke-width="2"></path>
            </g>
            <path d="M177.797657,354.15422 C213.767025,354.451229 247.397091,343.911496 278.687854,322.535021 C249.373801,316.040483 227.135968,312.144122 211.974355,310.845939 C208.033145,310.508481 202.483775,310.508481 195.326245,310.845939 C193.866848,316.170148 189.031804,318.855587 180.821115,318.902256 C172.610425,318.948926 167.523706,316.263487 165.560959,310.845939 C157.910498,310.845939 152.434039,310.845939 149.131582,310.845939 C119.360529,310.845939 95.6894914,315.017775 78.1184706,323.361447 C108.601894,343.592954 141.828289,353.857212 177.797657,354.15422 Z" id="Oval-28" fill="#FFFFFF"></path>
        </g>
    </g>
</svg>