<?xml version="1.0" encoding="UTF-8"?>
<svg width="355px" height="355px" viewBox="0 0 355 355" version="1.1" xmlns="http://www.w3.org/2000/svg" xmlns:xlink="http://www.w3.org/1999/xlink">
    <!-- Generator: Sketch 46.2 (44496) - http://www.bohemiancoding.com/sketch -->
    <title>Group 40</title>
    <desc>Created with Sketch.</desc>
    <defs></defs>
    <g id="Emails" stroke="none" stroke-width="1" fill="none" fill-rule="evenodd">
        <g id="Group-40">
            <circle id="Oval-28" fill="#DCEDE1" cx="177.07711" cy="177.07711" r="177.07711"></circle>
            <g id="Group-137" transform="translate(59.000000, 39.000000)">
                <g id="Group-136">
                    <path d="M119.666747,151.114227 C119.666747,151.114227 91.7415552,206.935239 72.8444164,215.935729 C66.5046025,218.955309 62.6025561,216.190402 58.7949425,215.935729 C54.9873289,215.681056 47.0123155,214.123965 45.44783,212.555312 C37.7993555,204.886465 50.486045,165.326755 58.7949425,133.529129 C67.10384,101.731504 48.8260987,106.480647 58.7949425,86.0144994 C68.7637863,65.5483516 78.390889,52.0347673 99.1517411,52.0347673 C116.755563,52.0347673 120.570578,65.5788439 124.89038,71.9778443 C129.210181,78.3768448 129.487945,99.0866374 129.487945,99.0866374 L150.138762,132.095736 C150.138762,132.095736 167.366696,164.1365 194.57818,197.422967 C221.789664,230.709435 220.944187,245.418833 220.944187,245.418833 C220.944187,245.418833 210.887471,258.126993 198.584774,263.870298 C192.222682,266.840332 119.666747,151.114227 119.666747,151.114227 Z" id="Rectangle-45" fill="#FED75F" transform="translate(132.017954, 157.980635) scale(-1, 1) rotate(32.000000) translate(-132.017954, -157.980635) "></path>
                    <g id="Group-26" transform="translate(89.830367, 40.614575) scale(-1, 1) rotate(32.000000) translate(-89.830367, -40.614575) translate(81.830367, 18.114575)" stroke="#FFC30F">
                        <path d="M1.57074009,42.6671053 L10.9951807,4.74078948" id="Line" stroke-linecap="square"></path>
                        <ellipse id="Oval-19" fill="#FFC30F" cx="9.42444056" cy="6.32105263" rx="6.28296038" ry="6.32105263"></ellipse>
                    </g>
                    <g id="Group-26" transform="translate(116.169741, 23.898425) scale(-1, 1) rotate(-13.000000) translate(-116.169741, -23.898425) translate(108.169741, 1.398425)" stroke="#FFC30F">
                        <path d="M1.57074009,42.6671053 L10.9951807,4.74078948" id="Line" stroke-linecap="square"></path>
                        <ellipse id="Oval-19" fill="#FFC30F" cx="9.42444056" cy="6.32105263" rx="6.28296038" ry="6.32105263"></ellipse>
                    </g>
                    <g id="Group" transform="translate(76.358748, 60.843576) scale(-1, 1) rotate(-41.000000) translate(-76.358748, -60.843576) translate(51.358748, 50.343576)">
                        <path d="M0.0147816606,3.37877614 C9.78659538,2.94477946 13.5175856,6.28384502 16.3749599,6.91535607 C19.2323342,7.54686712 11.2005062,12.501415 35.4960667,19.5267884 C49.1669091,23.479888 54.8524534,3.44749102 41.462963,1.48213231 C27.7914226,-0.524626734 13.8308421,1.32394047 0.0147816606,1.24484455 L0.0147816606,3.37877614 Z" id="Path-22" fill="#FED75F"></path>
                        <path d="M28.8040476,2.82577258 C45.0781534,2.93024259 56.4914797,17.5527006 34.3471865,14.2737457" id="Path-23" stroke="#342F7F" stroke-linecap="round"></path>
                    </g>
                    <path d="M168.904614,165.583265 C168.904614,165.583265 168.617986,164.567507 172.888984,165.583265 C177.159982,166.599022 181.191218,172.313152 181.191218,172.313152 C181.191218,172.313152 193.16253,168.334329 207.159987,156.10527 C221.157444,143.876212 223.007757,117.235981 218.792697,110.498459" id="Path-24" stroke="#263345" stroke-width="2" stroke-linecap="round" transform="translate(194.842535, 141.405805) scale(-1, 1) rotate(32.000000) translate(-194.842535, -141.405805) "></path>
                    <ellipse id="Oval-20" stroke="#263345" fill="#263345" transform="translate(151.772028, 83.959660) scale(-1, 1) rotate(32.000000) translate(-151.772028, -83.959660) " cx="151.772028" cy="83.9596599" rx="2.71341918" ry="2.72987006"></ellipse>
                    <ellipse id="Oval-20" stroke="#263345" fill="#263345" transform="translate(162.251794, 78.076250) scale(-1, 1) rotate(32.000000) translate(-162.251794, -78.076250) " cx="162.251794" cy="78.0762495" rx="2.15228073" ry="2.16532955"></ellipse>
                    <path d="M161.526471,118.746344 C160.712177,120.861416 154.955626,123.373995 154.141332,125.489067 C153.327038,127.604139 157.250949,129.851713 156.334629,132.23179" id="Path-25" stroke="#263345" stroke-width="2" stroke-linecap="round" transform="translate(157.777902, 125.489067) scale(-1, 1) rotate(-85.000000) translate(-157.777902, -125.489067) "></path>
                    <path d="M209.472188,162.621074 C203.548415,138.150724 204.052893,152.390206 217.986786,131.62311" id="Path-26" stroke="#263345" stroke-linecap="round" transform="translate(211.937348, 147.122092) scale(-1, 1) rotate(32.000000) translate(-211.937348, -147.122092) "></path>
                    <path d="M220.400498,141.472119 C218.900748,139.75278 218.057648,140.612449 216.557898,138.893111" id="Path-27" stroke="#263345" stroke-linecap="round" transform="translate(218.479198, 140.182615) scale(-1, 1) rotate(32.000000) translate(-218.479198, -140.182615) "></path>
                    <path d="M143.115027,41.1600195 C127.566277,30.0282968 162.688437,50.3036938 137.939407,42.4473843 C113.190377,34.5910748 126.092118,40.6562613 120.44642,38.3785666 C113.080464,35.4068527 117.335033,15.6678177 126.513439,20.8681033 C130.65921,23.2170072 136.195388,35.8927906 140.261546,38.3785666" id="Path-29" fill="#FED75F" transform="translate(131.884603, 32.153818) scale(-1, 1) rotate(32.000000) translate(-131.884603, -32.153818) "></path>
                    <path d="M104.780867,202.660924 C104.780867,209.546296 100.223448,221.35676 102.677823,226.5267 C105.132198,231.696641 118.836283,234.703046 120.652128,232.160953 C122.229675,229.952464 127.018047,218.696362 123.798003,211.788039 C120.577959,204.879716 110.843609,204.205224 106.085707,203.150882 L104.780867,202.660924 Z" id="Path-30" fill="#5C6673" transform="translate(113.419883, 217.870530) scale(-1, 1) rotate(32.000000) translate(-113.419883, -217.870530) "></path>
                    <path d="M113.432943,264.931027 C114.144143,270.358601 113.411377,285.919898 115.227222,283.377805 C116.804769,281.169317 129.91312,261.627445 126.693076,254.719122 C123.473031,247.810799 116.400507,246.231895 111.642605,245.177553 C111.642605,245.177553 112.721742,259.503453 113.432943,264.931027 Z" id="Path-30" fill="#5C6673" transform="translate(119.421362, 264.416879) scale(-1, 1) rotate(32.000000) translate(-119.421362, -264.416879) "></path>
                    <path d="M114.199897,82.219167 C114.199897,89.1045388 109.642479,100.915003 112.096854,106.084943 C114.551229,111.254884 128.255314,114.261289 130.071158,111.719196 C131.648706,109.510708 136.437078,98.2546051 133.217034,91.3462821 C129.996989,84.4379592 120.26264,83.7634668 115.504737,82.7091255 L114.199897,82.219167 Z" id="Path-30" fill="#5C6673" transform="translate(122.838914, 97.428773) scale(-1, 1) rotate(-15.000000) translate(-122.838914, -97.428773) "></path>
                    <path d="M113.647608,154.937076 C113.647608,161.822448 109.09019,173.632911 111.544565,178.802852 C113.99894,183.972793 127.703025,186.979198 129.518869,184.437105 C131.096417,182.228616 135.884789,170.972514 132.664745,164.064191 C129.4447,157.155868 119.710351,156.481376 114.952448,155.427034 L113.647608,154.937076 Z" id="Path-30" fill="#5C6673" transform="translate(122.286625, 170.146682) scale(-1, 1) rotate(2.000000) translate(-122.286625, -170.146682) "></path>
                    <path d="M134.170699,32.95945 C125.001402,25.7997463 133.7226,13.3622708 144.168652,25.5031631" id="Path-31" stroke="#263345" stroke-linecap="round" transform="translate(137.240125, 26.682769) scale(-1, 1) rotate(32.000000) translate(-137.240125, -26.682769) "></path>
                    <path d="M131.354313,57.9576878 C143.038225,44.9779061 136.818638,44.9403219 149.238129,52.6344783" id="Path-137" stroke="#263345" stroke-width="2" stroke-linecap="round"></path>
                    <path d="M152.128006,52.7637728 C163.811918,39.783991 157.592331,39.7464068 170.011822,47.4405632" id="Path-137" stroke="#263345" stroke-width="2" stroke-linecap="round"></path>
                    <path d="M103.168945,132.266946 C108.739153,130.756593 114.168031,128.564382 119.87957,127.735888 C157.026882,122.347439 113.931486,147.146342 103.59959,149.91919" id="Path-139" fill="#5C6673"></path>
                </g>
            </g>
            <path d="M177.820747,354.561375 C213.790115,354.858383 247.449894,344.121076 278.800085,322.349454 C249.426604,316.250064 227.159057,312.551277 211.997445,311.253094 C208.056234,310.915635 202.149304,310.915635 194.276654,311.253094 C192.750094,315.798808 187.881469,318.095 179.67078,318.14167 C171.46009,318.188339 164.567143,315.892147 158.99194,311.253094 C155.736218,311.253094 152.457128,311.253094 149.154672,311.253094 C119.383618,311.253094 95.9987275,315.514892 79,324.038487 C108.91113,344.090071 141.851379,354.264367 177.820747,354.561375 Z" id="Oval-28" fill="#FFFFFF"></path>
        </g>
    </g>
</svg>