<?xml version="1.0" encoding="UTF-8"?>
<svg width="355px" height="355px" viewBox="0 0 355 355" version="1.1" xmlns="http://www.w3.org/2000/svg" xmlns:xlink="http://www.w3.org/1999/xlink">
    <!-- Generator: Sketch 46.2 (44496) - http://www.bohemiancoding.com/sketch -->
    <title>Group 41</title>
    <desc>Created with Sketch.</desc>
    <defs></defs>
    <g id="Emails" stroke="none" stroke-width="1" fill="none" fill-rule="evenodd">
        <g id="Group-41">
            <circle id="Oval-28" fill="#E9E3FF" cx="177.07711" cy="177.07711" r="177.07711"></circle>
            <g id="Group-142" transform="translate(74.000000, 80.000000)">
                <g id="Group-87">
                    <path d="M144.171942,49.3521388 C166.844493,48.2812194 183.08683,7.54238923 206.628317,21.1432862 C235.657251,37.9145091 247.56627,64.180527 241.180771,78.9569302 C234.795272,93.7333334 218.329959,100.687871 219.504487,110.799649 C222.699264,138.30423 218.909985,183.289064 183.320372,195.45577 C180.961763,196.262086 180.004998,211.438074 180.450076,240.983734 C171.499074,243.301831 164.785823,244.46088 160.310322,244.46088 C155.834822,244.46088 149.418375,244.46088 141.060982,244.46088 C141.050386,213.867389 138.55836,197.532353 133.584905,195.45577 C105.201646,183.604818 112.577703,183.180847 89.7885775,165.148026 C80.7609569,158.004555 68.7468947,155.578161 59.1042294,149.288188 C47.1848246,141.513083 21.0814143,123.137625 25.9187918,104.824808 C26.7256792,101.770181 30.786003,106.865498 33.6946588,108.103857 C74.8068942,125.607367 103.742791,117.373506 152.981001,112.527165 C201.05321,107.79559 58.1860636,132.09751 25.9187918,102.910588 C14.9412083,92.9809644 9.84519284,62.75973 30.4195263,43.4737844 C86.513445,-9.10747019 92.9263982,40.4245956 133.584905,45.5182663 L144.171942,49.3521388 Z" id="Path-156" fill="#FDCF85" transform="translate(129.597399, 131.414028) scale(-1, 1) translate(-129.597399, -131.414028) "></path>
                    <path d="M0.288843023,42.6602085 C15.4252373,43.8712393 26.8580183,65.5185697 29.5334708,49.6991455 C29.9611097,47.1706009 28.5803747,39.176783 0.288843023,39.5558119 L0.288843023,42.6602085 Z" id="Path-147" fill="#F8C97D" transform="translate(14.938736, 47.501319) scale(-1, 1) translate(-14.938736, -47.501319) "></path>
                    <path d="M18.4111315,33.4991248 C41.1165121,-5.24035998 46.3494703,22.8830098 37.2305994,25.2930961" id="Path-144" fill="#F7C77A" transform="translate(29.945995, 23.340035) scale(-1, 1) translate(-29.945995, -23.340035) "></path>
                    <path d="M211.062244,48.9110198 C198.716676,56.0925125 209.425737,56.587325 218.621747,54.6963356" id="Path-140" stroke="#263345" transform="translate(212.054517, 52.275011) scale(-1, 1) translate(-212.054517, -52.275011) "></path>
                    <path d="M224.509634,41.7636383 C212.22155,47.399139 220.786643,51.7996534 231.948998,48.7932819" id="Path-141" stroke="#263345" transform="translate(225.218345, 45.765814) scale(-1, 1) translate(-225.218345, -45.765814) "></path>
                    <path d="M79.5776328,3.00136835 C95.2817898,-0.109525495 89.8412765,-3.06526903 96.4558267,10.7586494" id="Path-145" stroke="#263345" stroke-width="2" stroke-linecap="round" transform="translate(88.016730, 5.576916) scale(-1, 1) translate(-88.016730, -5.576916) "></path>
                    <path d="M48.2653498,9.447913 C63.673465,8.52569969 57.3430222,5.65205781 66.0400503,20.3558094" id="Path-146" stroke="#263345" stroke-width="2" stroke-linecap="round" transform="translate(57.152700, 14.476930) scale(-1, 1) translate(-57.152700, -14.476930) "></path>
                    <path d="M101.952209,98.4064182 C108.071738,104.830664 111.188199,109.031122 111.301592,111.007791 C111.471682,113.972794 102.817785,118.639235 99.4566482,128.818627" id="Path-149" stroke="#263345" stroke-width="2" transform="translate(105.380356, 113.612522) scale(-1, 1) translate(-105.380356, -113.612522) "></path>
                </g>
                <circle id="Oval-20" stroke="#263345" fill="#263345" transform="translate(80.000000, 47.000000) scale(-1, 1) rotate(32.000000) translate(-80.000000, -47.000000) " cx="80" cy="47" r="3"></circle>
                <circle id="Oval-20" stroke="#263345" fill="#263345" transform="translate(90.500000, 41.500000) scale(-1, 1) rotate(32.000000) translate(-90.500000, -41.500000) " cx="90.5" cy="41.5" r="2.5"></circle>
                <path d="M233,102 C191.138337,124.119748 146.03616,119.362129 100,111.083815" id="Path-179" stroke="#263345" stroke-width="2"></path>
            </g>
            <path d="M177.820747,354.561375 C213.790115,354.858383 247.449894,344.121076 278.800085,322.349454 C249.426604,316.250064 227.159057,312.551277 211.997445,311.253094 C208.056234,310.915635 201.644881,310.915635 192.763383,311.253094 C192.245671,315.798808 187.881469,318.095 179.67078,318.14167 C171.46009,318.188339 162.574442,315.892147 153.013836,311.253094 C153.743516,311.253094 152.457128,311.253094 149.154672,311.253094 C119.383618,311.253094 95.9987275,315.514892 79,324.038487 C108.91113,344.090071 141.851379,354.264367 177.820747,354.561375 Z" id="Oval-28" fill="#FFFFFF"></path>
        </g>
    </g>
</svg>