<svg id="Layer_1" data-name="Layer 1" xmlns="http://www.w3.org/2000/svg" xmlns:xlink="http://www.w3.org/1999/xlink" viewBox="0 0 574.04 499.83"><defs><style>.cls-1,.cls-10,.cls-11,.cls-114,.cls-12,.cls-123,.cls-127,.cls-129,.cls-13,.cls-130,.cls-2,.cls-24,.cls-25,.cls-29,.cls-3,.cls-30,.cls-33,.cls-36,.cls-41,.cls-47,.cls-49,.cls-50,.cls-53,.cls-56,.cls-6,.cls-7,.cls-98{fill:none;}.cls-1{clip-rule:evenodd;}.cls-3{fill-rule:evenodd;}.cls-4{clip-path:url(#clip-path);}.cls-5{fill:#d8d9d8;}.cls-11,.cls-127,.cls-56,.cls-6,.cls-98{stroke:#263445;}.cls-10,.cls-11,.cls-114,.cls-12,.cls-123,.cls-127,.cls-129,.cls-13,.cls-130,.cls-24,.cls-25,.cls-29,.cls-30,.cls-33,.cls-36,.cls-41,.cls-47,.cls-49,.cls-50,.cls-53,.cls-56,.cls-6,.cls-7,.cls-98{stroke-miterlimit:10;}.cls-123,.cls-7{stroke:#3d3d3d;}.cls-8{clip-path:url(#clip-path-2);}.cls-9{fill:#ffc417;}.cls-10,.cls-47,.cls-49,.cls-50{stroke:#ffc417;}.cls-11,.cls-129,.cls-13,.cls-130,.cls-25,.cls-36,.cls-53{stroke-linecap:round;}.cls-12,.cls-13{stroke:#eef5f8;}.cls-12,.cls-129,.cls-13,.cls-130,.cls-24,.cls-25,.cls-41{stroke-width:2px;}.cls-14{clip-path:url(#clip-path-3);}.cls-15{fill:#eef5f8;}.cls-16{clip-path:url(#clip-path-4);}.cls-17{clip-path:url(#clip-path-5);}.cls-18{fill:#fff;}.cls-19{clip-path:url(#clip-path-6);}.cls-20{clip-path:url(#clip-path-7);}.cls-21{clip-path:url(#clip-path-8);}.cls-22{clip-path:url(#clip-path-9);}.cls-23{clip-path:url(#clip-path-10);}.cls-24,.cls-25{stroke:#fff;}.cls-26{fill:#f0f3fa;}.cls-27{clip-path:url(#clip-path-19);}.cls-28{fill:#f3f3f3;}.cls-114,.cls-130,.cls-29,.cls-30,.cls-33,.cls-36,.cls-41{stroke:#399dd7;}.cls-29,.cls-36{stroke-width:3px;}.cls-127,.cls-30,.cls-47,.cls-50{stroke-linecap:square;}.cls-31{clip-path:url(#clip-path-20);}.cls-32{fill:#5690cc;}.cls-34{clip-path:url(#clip-path-21);}.cls-35{fill:#399dd7;}.cls-37{clip-path:url(#clip-path-22);}.cls-38{fill:#e8ebed;}.cls-39{clip-path:url(#clip-path-23);}.cls-40{fill:#a6cbe9;}.cls-42{clip-path:url(#clip-path-25);}.cls-43{clip-path:url(#clip-path-26);}.cls-44{clip-path:url(#clip-path-27);}.cls-45{clip-path:url(#clip-path-28);}.cls-46{clip-path:url(#clip-path-29);}.cls-114,.cls-123,.cls-47,.cls-49,.cls-56{stroke-width:1px;}.cls-48{clip-path:url(#clip-path-30);}.cls-51{clip-path:url(#clip-path-31);}.cls-52{clip-path:url(#clip-path-32);}.cls-53{stroke:#34307f;}.cls-54{clip-path:url(#clip-path-33);}.cls-55{fill:#263445;}.cls-57{clip-path:url(#clip-path-34);}.cls-58{clip-path:url(#clip-path-35);}.cls-59{clip-path:url(#clip-path-36);}.cls-60{clip-path:url(#clip-path-37);}.cls-61{clip-path:url(#clip-path-38);}.cls-62{clip-path:url(#clip-path-39);}.cls-63{clip-path:url(#clip-path-40);}.cls-64{clip-path:url(#clip-path-41);}.cls-65{clip-path:url(#clip-path-42);}.cls-66{clip-path:url(#clip-path-43);}.cls-67{clip-path:url(#clip-path-44);}.cls-68{clip-path:url(#clip-path-45);}.cls-69{clip-path:url(#clip-path-46);}.cls-70{clip-path:url(#clip-path-47);}.cls-71{clip-path:url(#clip-path-48);}.cls-72{clip-path:url(#clip-path-49);}.cls-73{clip-path:url(#clip-path-50);}.cls-74{clip-path:url(#clip-path-51);}.cls-75{clip-path:url(#clip-path-52);}.cls-76{clip-path:url(#clip-path-53);}.cls-77{clip-path:url(#clip-path-54);}.cls-78{clip-path:url(#clip-path-55);}.cls-79{clip-path:url(#clip-path-56);}.cls-80{clip-path:url(#clip-path-57);}.cls-81{clip-path:url(#clip-path-58);}.cls-82{clip-path:url(#clip-path-59);}.cls-83{clip-path:url(#clip-path-60);}.cls-84{clip-path:url(#clip-path-61);}.cls-85{clip-path:url(#clip-path-62);}.cls-86{clip-path:url(#clip-path-63);}.cls-87{clip-path:url(#clip-path-64);}.cls-88{fill:#c1ccd4;}.cls-89{clip-path:url(#clip-path-65);}.cls-90{clip-path:url(#clip-path-66);}.cls-91{clip-path:url(#clip-path-67);}.cls-92{clip-path:url(#clip-path-68);}.cls-93{clip-path:url(#clip-path-69);}.cls-94{clip-path:url(#clip-path-71);}.cls-95{clip-path:url(#clip-path-73);}.cls-96{clip-path:url(#clip-path-75);}.cls-97{clip-path:url(#clip-path-77);}.cls-98{stroke-width:0.5px;}.cls-99{clip-path:url(#clip-path-78);}.cls-100{clip-path:url(#clip-path-79);}.cls-101{clip-path:url(#clip-path-80);}.cls-102{clip-path:url(#clip-path-81);}.cls-103{clip-path:url(#clip-path-82);}.cls-104{clip-path:url(#clip-path-83);}.cls-105{clip-path:url(#clip-path-84);}.cls-106{clip-path:url(#clip-path-85);}.cls-107{clip-path:url(#clip-path-86);}.cls-108{clip-path:url(#clip-path-87);}.cls-109{clip-path:url(#clip-path-88);}.cls-110{clip-path:url(#clip-path-89);}.cls-111{fill:#4fbfa2;}.cls-112{clip-path:url(#clip-path-90);}.cls-113{clip-path:url(#clip-path-91);}.cls-115{clip-path:url(#clip-path-92);}.cls-116{clip-path:url(#clip-path-93);}.cls-117{clip-path:url(#clip-path-94);}.cls-118{clip-path:url(#clip-path-95);}.cls-119{clip-path:url(#clip-path-96);}.cls-120{clip-path:url(#clip-path-97);}.cls-121{clip-path:url(#clip-path-98);}.cls-122{clip-path:url(#clip-path-99);}.cls-124{clip-path:url(#clip-path-100);}.cls-125{fill:#989898;}.cls-126{clip-path:url(#clip-path-101);}.cls-128{clip-path:url(#clip-path-102);}.cls-129{stroke:#979797;}</style><clipPath id="clip-path" transform="translate(-451.86 -347)"><path class="cls-1" d="M563,490.28c1.53,28.17,20.92,32.42,21.09,55.58.25,34.18-65.65,27.73-50.17-11,6.06-15.17,10.72-38.92,17.77-53.57"/></clipPath><clipPath id="clip-path-2" transform="translate(-451.86 -347)"><path class="cls-1" d="M901.17,505.57c-7-5,8.83,4.1-2.34.58s-5.35-.8-7.89-1.82c-3.32-1.33-1.4-10.18,2.74-7.85,1.87,1.05,4.37,6.74,6.2,7.85"/></clipPath><clipPath id="clip-path-3" transform="translate(-451.86 -347)"><rect class="cls-2" x="739.73" y="440.93" width="44.67" height="69.74" transform="translate(-135.8 444.78) rotate(-30)"/></clipPath><clipPath id="clip-path-4" transform="translate(-451.86 -347)"><path class="cls-1" d="M787.47,450.72a9.37,9.37,0,1,1,9.37,16.23l-61,35.19a9.37,9.37,0,1,1-9.37-16.23Z"/></clipPath><clipPath id="clip-path-5" transform="translate(-451.86 -347)"><path class="cls-1" d="M744.31,496.8A9.37,9.37,0,1,1,753.68,513l-10,5.77a9.37,9.37,0,1,1-9.37-16.23Z"/></clipPath><clipPath id="clip-path-6" transform="translate(-451.86 -347)"><path class="cls-1" d="M796.79,466.5a9.37,9.37,0,1,1,9.37,16.23l-10,5.77a9.37,9.37,0,1,1-9.37-16.23Z"/></clipPath><clipPath id="clip-path-7" transform="translate(-451.86 -347)"><path class="cls-1" d="M725.88,465.1a9.37,9.37,0,1,1,9.37,16.23l-10,5.77a9.37,9.37,0,1,1-9.37-16.23Z"/></clipPath><clipPath id="clip-path-8" transform="translate(-451.86 -347)"><path class="cls-1" d="M781.19,433.39a9.37,9.37,0,1,1,9.37,16.23l-10,5.77a9.37,9.37,0,1,1-9.37-16.23Z"/></clipPath><clipPath id="clip-path-9" transform="translate(-451.86 -347)"><path class="cls-1" d="M768.26,420.71a9.37,9.37,0,1,1,9.37,16.23l-61,35.19a9.37,9.37,0,1,1-9.37-16.23Z"/></clipPath><clipPath id="clip-path-10" transform="translate(-451.86 -347)"><path class="cls-1" d="M805.11,481.59a9.37,9.37,0,0,1,9.37,16.22l-64.31,37.13a9.37,9.37,0,0,1-9.37-16.23Z"/></clipPath><clipPath id="clip-path-19" transform="translate(-451.86 -347)"><ellipse class="cls-2" cx="761" cy="477.91" rx="31.2" ry="31.17"/></clipPath><clipPath id="clip-path-20" transform="translate(-451.86 -347)"><path class="cls-1" d="M760.05,448.14a28.36,28.36,0,0,1,3.09,0c1.65.09,3.09.3,3.09.3L761,475.71Z"/></clipPath><clipPath id="clip-path-21" transform="translate(-451.86 -347)"><rect class="cls-2" x="754.76" y="438.43" width="11.44" height="5.2"/></clipPath><clipPath id="clip-path-22" transform="translate(-451.86 -347)"><path class="cls-1" d="M892.91,834c32.91,7.18,95.16,14,121.87-1.91,15.71-9.38-.77-36.49-27.11-39-41.33-3.86-61.16,4.92-102.8-2.27-37.4-6.46-101.85-2.5-152.83,0s-24.69,26.8-10.07,27.05c29.44.52,21.81,1,51,7.06C773,825,815.84,817.19,892.91,834Z"/></clipPath><clipPath id="clip-path-23" transform="translate(-451.86 -347)"><rect class="cls-2" x="815.48" y="707.99" width="7.09" height="85.04"/></clipPath><clipPath id="clip-path-25" transform="translate(-451.86 -347)"><rect class="cls-2" x="908.84" y="744.84" width="8.5" height="35.43"/></clipPath><clipPath id="clip-path-26" transform="translate(-451.86 -347)"><rect class="cls-2" x="907.42" y="780.28" width="11.34" height="12.76"/></clipPath><clipPath id="clip-path-27" transform="translate(-451.86 -347)"><path class="cls-1" d="M878.68,745.46c4.26.11,61.53,9,64.53-15.84.69-5.72-13.09-5.47-13.74-5.37-19.3,3.07-39.17,4.65-57.49,11.42-2.9,1.07,1.84,6.3,4.22,8.28A7,7,0,0,0,878.68,745.46Z"/></clipPath><clipPath id="clip-path-28" transform="translate(-451.86 -347)"><path class="cls-1" d="M900.39,646.26l8.74-4.3-3.75,29.51s-35.51,27.35-38.94,29.61c-.46.3-.16,2.33-.89,4.67s-2.55,5.13-2.91,5.08-4.11,1.18-4.26-1.67c-.09-1.77-.53-2.75,1.08-4.85s-7.29,4.56-6.29,1.44c.24-.74,3.91-2.53,7.52-5.58S895,671.9,895,671.9Z"/></clipPath><clipPath id="clip-path-29" transform="translate(-451.86 -347)"><path class="cls-1" d="M906.42,544.08s-29.43,20-38.82,19.1c-3.15-.31-4-2.28-5.43-3.26s-4.14-3.43-4.38-4.4c-1.19-4.73,12.86-17,23.41-27.28s6.25-15,14.83-20.55,15.64-9.78,23.66-5c6.81,4.09,8.17,9.62,8.36,13.08s2.62,15.61,2.62,15.61,1.54,28,0,46.48a205.45,205.45,0,0,0,0,33.64s-12.13,6.2-18,7.14c-3.24.52-4.35,6.14-4.35,6.14s4.34-35.87,4.33-46.93c0-4.89,1.36-21.36,0-27.84S906.42,544.08,906.42,544.08Z"/></clipPath><clipPath id="clip-path-30" transform="translate(-451.86 -347)"><circle class="cls-2" cx="925.35" cy="487.46" r="2.83" transform="translate(138.65 1176.65) rotate(-69)"/></clipPath><clipPath id="clip-path-31" transform="translate(-451.86 -347)"><circle class="cls-2" cx="913.57" cy="488.01" r="2.83" transform="translate(409.68 1392.92) rotate(-89)"/></clipPath><clipPath id="clip-path-32" transform="translate(-451.86 -347)"><path class="cls-1" d="M921.75,506.77c4.23-1.26,6.23-.21,7.55-.25s-1.66,3,9.74,3.4c6.41.23,6.73-9.11.65-8.5s-12.11,2.95-18.17,4.42Z"/></clipPath><clipPath id="clip-path-33" transform="translate(-451.86 -347)"><circle class="cls-2" cx="898" cy="520.56" r="0.71" transform="translate(101.75 1186.41) rotate(-70)"/></clipPath><clipPath id="clip-path-34" transform="translate(-451.86 -347)"><circle class="cls-2" cx="891.46" cy="519.85" r="0.71" transform="translate(98.09 1179.78) rotate(-70)"/></clipPath><clipPath id="clip-path-35" transform="translate(-451.86 -347)"><path class="cls-1" d="M917.25,569.6c.75,3,0,8.63,1.67,10.61s8,1.79,8.48.49c.45-1.13,1.33-6.55-.83-9.21s-6.49-1.89-8.69-1.83Z"/></clipPath><clipPath id="clip-path-36" transform="translate(-451.86 -347)"><path class="cls-1" d="M920.71,596.47c.75,3,1.59,8.41,3.22,10.39s5.21,1.28,5.73,0c.43-1.07-4.57-10.58-6.77-10.52Z"/></clipPath><clipPath id="clip-path-37" transform="translate(-451.86 -347)"><path class="cls-1" d="M914.14,558c.15,2.45-.67,9.39.23,8.31s7.29-9.27,6.06-12.46-4.37-4.12-6.48-4.74C914,549.15,914,555.59,914.14,558Z"/></clipPath><clipPath id="clip-path-38" transform="translate(-451.86 -347)"><path class="cls-1" d="M912.5,588.08c1.62.9,3.79,3.51,5.32,3.6s4-2.75,3.67-3.51-2.33-3.25-4.37-3.39-3.47,2.07-4.34,3.06Z"/></clipPath><clipPath id="clip-path-39" transform="translate(-451.86 -347)"><path class="cls-1" d="M914.61,531.31c2.14,2.22,4.35,7.46,6.75,8.36s7.79-2.43,7.59-3.82c-.18-1.21-2.13-6.34-5.33-7.56s-6.57,1.61-8.44,2.76Z"/></clipPath><clipPath id="clip-path-40" transform="translate(-451.86 -347)"><path class="cls-1" d="M910.43,731.36c9.18.74,18.33,2.5,27.54,2.22s1.8-11.11-1.9-12.2c-10.23-3-16.54,4.47-24.36,9.51Z"/></clipPath><clipPath id="clip-path-41" transform="translate(-451.86 -347)"><circle class="cls-2" cx="925.84" cy="508.57" r="2.6"/></clipPath><clipPath id="clip-path-42" transform="translate(-451.86 -347)"><polygon class="cls-1" points="833.91 773.19 842.82 771.39 845.25 790.2 836.25 789.28 833.91 773.19"/></clipPath><clipPath id="clip-path-43" transform="translate(-451.86 -347)"><path class="cls-1" d="M897,702.88c5.93,5.24,9.1,5.39,10.42,6.14s-1.52-.57,31.06,10.35c1.33.45,2.28,3.25,1.14,4.06-33.76,23.92-55.2,13.22-88.8,17.94-.64.09-.22,4.3-.64,4.5s-1.69-3.61-1.94-3.3c-1,1.24-.7,3.38-.69,6.47,0,4.63,4.63,27.53,3.27,31.23-1,2.61-5.71-.16-8.25-1.3-2.12-1-3.94-3.56-5.94-4.84s-3.47-.58-4.38-2.17c-6.34-11-10.23-23.3-14.12-35.39-1.64-5.08-3.71-10.66-2.4-15.84.78-3,4.74-4.72,7.79-5.33,6.36-1.27,27.32-.07,39.69-2.15S884.43,705,884.77,705a25.54,25.54,0,0,0,3.81-.77Z"/></clipPath><clipPath id="clip-path-44" transform="translate(-451.86 -347)"><path class="cls-1" d="M914,612.35c5.94-5.79,15.05-10.79,19-5.91,14.82,18.2,8,40.21,7.07,63.33-.5,12.23,9.5,24.18,7.41,36.25-.73,4.21-.16,11.52-4.41,12-11.82,1.46-23.54-3.92-35-7.17-7.5-2.12-12.74-4.77-13-9.64s4.54-12.07,6.48-18.38c3.58-11.59-.49-8.59.59-11.38,1.69-4.37,1.37-23.29,1.37-23.29s-10,1.16-10.37-2,9-8.85,9-11c0-5,1.19-4.28,1.37-7.2C904,621.26,910.29,616,914,612.35Z"/></clipPath><clipPath id="clip-path-45" transform="translate(-451.86 -347)"><path class="cls-1" d="M895.13,668.84c15-17.46.87,14.93.4-.36"/></clipPath><clipPath id="clip-path-46" transform="translate(-451.86 -347)"><path class="cls-1" d="M888.71,679.84c9.71-11.33.57,9.69.26-.23"/></clipPath><clipPath id="clip-path-47" transform="translate(-451.86 -347)"><path class="cls-1" d="M883.51,684.09c1.77-1.54,3-3,2.74-3.32s-1.91-.32-3.68,1.22c-.54.47-2.39,2-2.8,2.44s-.11,1.72.07,1.92S881.74,685.63,883.51,684.09Z"/></clipPath><clipPath id="clip-path-48" transform="translate(-451.86 -347)"><path class="cls-1" d="M857.89,703.56c1.77-1.54,3.47-2.49,3.21-2.79s-1.44-.29-3.22,1.25c-.54.47-2.43,2-2.85,2.47a2.26,2.26,0,0,0-.36,1.85C854.93,706.64,856.11,705.1,857.89,703.56Z"/></clipPath><clipPath id="clip-path-49" transform="translate(-451.86 -347)"><path class="cls-1" d="M896.94,655.33c15-17.46.87,14.93.4-.36"/></clipPath><clipPath id="clip-path-50" transform="translate(-451.86 -347)"><path class="cls-1" d="M871.59,696.47c1.57-1.75,2.61-3.37,2.32-3.63s-1.93-.09-3.51,1.66c-.48.53-2.13,2.29-2.49,2.76s.1,1.72.3,1.9S870,698.22,871.59,696.47Z"/></clipPath><clipPath id="clip-path-51" transform="translate(-451.86 -347)"><path class="cls-1" d="M921.19,650.42l8.67-4.38-4.31,28.87s-35.44,27.44-38.84,29.72c-.46.31-.21,2.28-1,4.58s-2.61,5.06-3,5-4.06,1.24-4.14-1.54c-.05-1.73-.46-2.67,1.17-4.75s-7.26,4.61-6.2,1.54c.25-.72,3.89-2.55,7.5-5.6s34.26-28.33,34.26-28.33Z"/></clipPath><clipPath id="clip-path-52" transform="translate(-451.86 -347)"><path class="cls-1" d="M904,689.64c2.31-.45,4.11-1.12,4-1.51s-1.49-1.23-3.8-.79c-.7.14-3.08.54-3.65.71s-1,1.43-.9,1.7S901.65,690.09,904,689.64Z"/></clipPath><clipPath id="clip-path-53" transform="translate(-451.86 -347)"><path class="cls-1" d="M918.52,677.17c2.31-.45,4.11-1.12,4-1.51s-1.49-1.23-3.8-.79c-.7.14-3.08.54-3.65.71s-1,1.43-.9,1.7S916.21,677.62,918.52,677.17Z"/></clipPath><clipPath id="clip-path-54" transform="translate(-451.86 -347)"><path class="cls-1" d="M917.74,668.84c15-17.46.87,14.93.4-.36"/></clipPath><clipPath id="clip-path-55" transform="translate(-451.86 -347)"><path class="cls-1" d="M834.86,784.37c-5.93,10.57-11.53,9-17,9.46s-6.78,3.47-5.94,4.53c4.59,5.81,22.42,3.5,31.23-1.39,5.5-3.05.06-8.87.55-10.83.28-1.12-3.15-.27-5.56-1Z"/></clipPath><clipPath id="clip-path-56" transform="translate(-451.86 -347)"><path class="cls-1" d="M880.45,706.76c2.13-1,4-1.44,3.85-1.8s-1.31-.67-3.44.32c-.65.3-2.9,1.3-3.42,1.59a2.26,2.26,0,0,0-.85,1.68C876.77,708.91,878.33,707.75,880.45,706.76Z"/></clipPath><clipPath id="clip-path-57" transform="translate(-451.86 -347)"><polygon class="cls-1" points="841 778.86 849.9 777.06 852.34 795.87 843.33 794.95 841 778.86"/></clipPath><clipPath id="clip-path-58" transform="translate(-451.86 -347)"><path class="cls-1" d="M843.36,794.29c-5.93,10.57-11.53,9-17,9.46s-6.78,3.47-5.94,4.53c4.59,5.81,22.42,3.5,31.23-1.39,5.5-3.05.06-8.87.55-10.83.28-1.12-3.15-.27-5.56-1Z"/></clipPath><clipPath id="clip-path-59" transform="translate(-451.86 -347)"><path class="cls-1" d="M937.45,725.48c3.53-2.36,9.4-2.6,11.27-4.61s-.73-17.8,3.07-34.16c.38-1.65.87-3.4,1.47-5.25.75-2.29,6.33.29,6.7,2.67.29,1.82-2.63,2.89-3.85,6.46s.3,5.7,0,7.9c-.56,4.15-.87,25.58-5.07,28s-4.47,1.71-8,2.15"/></clipPath><clipPath id="clip-path-60" transform="translate(-451.86 -347)"><path class="cls-1" d="M949.08,685.38c7.26,3.77,11.15-.85,17.17-2.6,1.11-.32,2.62-1.39,2.38-2.52-1.6-7.73-6.89-14.57-7.56-22.43-1-11.74,11.1-25.76,1.13-37.48-14.37-16.88-19,9.83-18.09,18.38.86,8.32,2.75,9.92,3.07,15.13.14,2.23-3.3,10.26-4.28,15S944.92,683.22,949.08,685.38Z"/></clipPath><clipPath id="clip-path-61" transform="translate(-451.86 -347)"><path class="cls-1" d="M946.15,655.64c1.73,7.14,4,14.17,5.2,21.41,3.32,20.34-13.93,3.93-6.46-20.47"/></clipPath><clipPath id="clip-path-62" transform="translate(-451.86 -347)"><path class="cls-1" d="M843.35,787.62c15-17.46.87,14.93.4-.36"/></clipPath><clipPath id="clip-path-63" transform="translate(-451.86 -347)"><path class="cls-1" d="M836.31,782.06c-4.21-15.28,8.87,5.26-.05-.37"/></clipPath><clipPath id="clip-path-64" transform="translate(-451.86 -347)"><ellipse class="cls-2" cx="947.1" cy="816.42" rx="4.25" ry="4.96"/></clipPath><clipPath id="clip-path-65" transform="translate(-451.86 -347)"><ellipse class="cls-2" cx="893.25" cy="792.32" rx="2.83" ry="3.54"/></clipPath><clipPath id="clip-path-66" transform="translate(-451.86 -347)"><ellipse class="cls-2" cx="931.51" cy="792.32" rx="2.83" ry="3.54"/></clipPath><clipPath id="clip-path-67" transform="translate(-451.86 -347)"><ellipse class="cls-2" cx="888.48" cy="817.84" rx="3.54" ry="4.96"/></clipPath><clipPath id="clip-path-68" transform="translate(-451.86 -347)"><rect class="cls-2" x="951.36" y="751.93" width="9.92" height="4.25"/></clipPath><clipPath id="clip-path-69" transform="translate(-451.86 -347)"><rect class="cls-2" x="740.37" y="702.32" width="97.8" height="7.09"/></clipPath><clipPath id="clip-path-71" transform="translate(-451.86 -347)"><rect class="cls-2" x="744.62" y="707.99" width="7.09" height="106.3"/></clipPath><clipPath id="clip-path-73" transform="translate(-451.86 -347)"><rect class="cls-2" x="825.41" y="707.99" width="7.09" height="106.3"/></clipPath><clipPath id="clip-path-75" transform="translate(-451.86 -347)"><rect class="cls-2" x="754.54" y="707.99" width="7.09" height="85.04"/></clipPath><clipPath id="clip-path-77" transform="translate(-451.86 -347)"><path class="cls-1" d="M752.13,655.76c3.38,8.08,8.6,15.46,11,21.12s5.29,10.12,7.18,13.66a55.67,55.67,0,0,0,6.67,9.16c.7.65,8-.56,17.72,0,13,.74,22.7.12,23.93.57s1.54,2.33.48,2.43c-6.88.62-17.69-.2-24.86,0-4,.11-8.62-.52-12.33,0-2.63.37-6.87,0-7.61-.52-.22-.14-25.1-38.6-24.56-45.4Z"/></clipPath><clipPath id="clip-path-78" transform="translate(-451.86 -347)"><rect class="cls-2" x="781.47" y="698.07" width="2.83" height="1.42"/></clipPath><clipPath id="clip-path-79" transform="translate(-451.86 -347)"><rect class="cls-2" x="785.72" y="698.07" width="2.83" height="1.42"/></clipPath><clipPath id="clip-path-80" transform="translate(-451.86 -347)"><rect class="cls-2" x="789.97" y="698.07" width="2.83" height="1.42"/></clipPath><clipPath id="clip-path-81" transform="translate(-451.86 -347)"><rect class="cls-2" x="794.22" y="698.07" width="2.83" height="1.42"/></clipPath><clipPath id="clip-path-82" transform="translate(-451.86 -347)"><rect class="cls-2" x="798.48" y="698.07" width="2.83" height="1.42"/></clipPath><clipPath id="clip-path-83" transform="translate(-451.86 -347)"><rect class="cls-2" x="802.73" y="698.07" width="2.83" height="1.42"/></clipPath><clipPath id="clip-path-84" transform="translate(-451.86 -347)"><rect class="cls-2" x="806.98" y="698.07" width="2.83" height="1.42"/></clipPath><clipPath id="clip-path-85" transform="translate(-451.86 -347)"><path class="cls-1" d="M922.17,656.37c15-17.46.87,14.93.4-.36"/></clipPath><clipPath id="clip-path-86" transform="translate(-451.86 -347)"><path class="cls-1" d="M552.71,795.58c-10.61.11-21.55-1.08-31.84.33-13.69,1.87-22.33,13.54-19.32,20.24,4.46,9.94,41,12.29,54.85,11.31,21-1.48,41.47-4.82,62.48-6.26,15.6-1.07,31.57,0,47.12-1.23,6.83-.55,12.09-7.56,9-10.71-5.69-5.79-20.91-8.44-31.2-9.19C632.4,799.22,552.71,795.58,552.71,795.58Z"/></clipPath><clipPath id="clip-path-87" transform="translate(-451.86 -347)"><path class="cls-1" d="M559.9,781.37h16.47s-1.15,7.11,0,10.08a65,65,0,0,0,4,7.67H554.43s3.21-5.84,4.74-9.71A16.3,16.3,0,0,0,559.9,781.37Z"/></clipPath><clipPath id="clip-path-88" transform="translate(-451.86 -347)"><path class="cls-1" d="M554.78,797.83c.13,3.25-1.94,6.13.56,7,6.08,2,12.22.78,18.56.5s9.65.14,14.22,0c2.93-.09,10.62.55,12.33-1.37s-2.62-4.58-6.63-4.83c-12.08-.77-24.17-1-36.26-1.45"/></clipPath><clipPath id="clip-path-89" transform="translate(-451.86 -347)"><path class="cls-1" d="M554,715.16c15.24.71,22.25-15.36,25.3-12.75s-1.11,31-2.9,59.25c-.45,7.06,3.52,23.23-.47,23.37-28.55,3.78-7.81-56.2-20.2-69.59"/></clipPath><clipPath id="clip-path-90" transform="translate(-451.86 -347)"><path class="cls-1" d="M547.92,794.35h19.45s-1.36,7.11,0,10.08S569,813,569,813s-6.22,3.5-11,3.5-11-3.5-11-3.5-1.8-6.77,0-10.63A13.92,13.92,0,0,0,547.92,794.35Z"/></clipPath><clipPath id="clip-path-91" transform="translate(-451.86 -347)"><path class="cls-1" d="M535.3,693.8c-.69,10.05-2.16,20.06-2.08,30.15s12.21,14,13.18,26.42c1.14,14.55-1.39,29.46,1.24,43.77.52,2.85,4.27,3.27,6.79,3.66,4.42.68,12.29,4.27,13.86-.48,4.82-14.58-.05-31.4,2-46.85,2.14-16.4-2.32-16.54,3.22-31.78.76-2.09,8-15.16,5.12-18.07s-12.89-.37-20.27-1.51c-7.91-1.22-12.47.36-20.2-1.95Z"/></clipPath><clipPath id="clip-path-92" transform="translate(-451.86 -347)"><path class="cls-1" d="M533.86,692.46c.13-6,2.13-19.8,2.26-33.52s.62-35.44,0-37.84c-.09-.35.24-36.23,2.52-41.65,6.72-16,25.77-9,32-3.75,0,0,1.06,48.61,0,63.41-.07.94,9.88,55.07,9.88,58.37,0,7.83-22,10.26-34.66,4.38Z"/></clipPath><clipPath id="clip-path-93" transform="translate(-451.86 -347)"><path class="cls-1" d="M545.85,571c0-.51.87-6.54-1.43-6.58-1.46,0-13.18-4.31-21.48-16.6s-8.08-23.27-8.51-26.2c-1-6.87,12.27-40.54,12.27-40.54s13.19-5.07,17.71-4.35c7.56,1.2,17.3.41,20.38.74s3.6,7.77,7.19,11.66c3.79,4.1,14.73,6.33,14.44,10.77-.1,1.59,7.55,9,14.89,18.48,1.44,1.86,1,7.2,3.27,10.28s26.59,29.57,26.61,29.71,4.08,2.9,7.13,2.62,6.92-3.8,6.92-3.8,8.69-11.8,11.24-24c.76-3.66,2.41-11.6,4.37-14.77s9.13,5.53,9.13,5.53.43,9.17-5.4,20.64S652,570.69,636.44,572.3s-40.25-27.6-44.24-31.91c-.42-.45-11.8,8.06-20.22,16.78s-9,12.93-11.13,13.8Z"/></clipPath><clipPath id="clip-path-94" transform="translate(-451.86 -347)"><circle class="cls-2" cx="571.35" cy="507.7" r="1.3" transform="translate(-111.94 165.19) rotate(-15)"/></clipPath><clipPath id="clip-path-95" transform="translate(-451.86 -347)"><circle class="cls-2" cx="580.61" cy="504.43" r="1.3" transform="translate(-110.78 167.48) rotate(-15)"/></clipPath><clipPath id="clip-path-96" transform="translate(-451.86 -347)"><path class="cls-1" d="M539,503.75c-19.57,25.58-4.47,43.23-21.58,63.48-25.25,29.88-82.5-23.21-39-45.72,17-8.81,39.11-26.09,56.67-33.74"/></clipPath><clipPath id="clip-path-97" transform="translate(-451.86 -347)"><ellipse class="cls-2" cx="538.44" cy="512.72" rx="7.28" ry="8.83"/></clipPath><clipPath id="clip-path-98" transform="translate(-451.86 -347)"><ellipse class="cls-2" cx="537.92" cy="512.72" rx="5.72" ry="6.75"/></clipPath><clipPath id="clip-path-99" transform="translate(-451.86 -347)"><path class="cls-1" d="M546,809.77c.13,3.25-2.12,8.92.38,9.74,5.87,1.93,12.21,1.49,18.34,1.25s18.41-1.11,23.2-1.25c3.89-.11,14.11-3,12.38-5.55s-19.1-2.4-22.14-2.59c-7.45-.47-9.92,2.06-16.85,1.69s-7.89-3.3-12.52-3.48"/></clipPath><clipPath id="clip-path-100" transform="translate(-451.86 -347)"><path class="cls-1" d="M661.21,517.83c1.7,2.38,3,5.13,5.1,7.13,4.62,4.33,3.32-9.81-5.62-6.68"/></clipPath><clipPath id="clip-path-101" transform="translate(-451.86 -347)"><rect class="cls-2" x="545.72" y="672.23" width="10.4" height="17.66" transform="translate(-157.5 165.8) rotate(-15)"/></clipPath><clipPath id="clip-path-102" transform="translate(-451.86 -347)"><path class="cls-1" d="M555.35,598.19c4.25-33.67-22.7-17.07-19,10.76,1.25,9.35-4.45,20.91,0,28.3,6.33,10.51.58,31.69,8.85,40.76,2.3,2.53.91,1.19,5.17-1.12s7.39-12.82-2.08-39.64C544.46,626.33,555.35,598.19,555.35,598.19Z"/></clipPath></defs><title>login-four</title><g class="cls-4"><rect class="cls-5" x="518.22" y="482.22" width="67.1" height="93.29" transform="translate(-639.08 -13.19) rotate(-29)"/></g><path class="cls-6" d="M563,490.28c1.53,28.17,20.92,32.42,21.09,55.58.25,34.18-65.65,27.73-50.17-11,6.06-15.17,10.72-38.92,17.77-53.57" transform="translate(-451.86 -347)"/><path class="cls-7" d="M564.78,510c5,9.29,31.33,51.75-2.15,50.25" transform="translate(-451.86 -347)"/><g class="cls-8"><rect class="cls-9" x="432.39" y="144.08" width="23.71" height="20.9"/></g><path class="cls-10" d="M901.17,505.57c-7-5,8.83,4.1-2.34.58s-5.35-.8-7.89-1.82c-3.32-1.33-1.4-10.18,2.74-7.85,1.87,1.05,4.37,6.74,6.2,7.85" transform="translate(-451.86 -347)"/><path class="cls-11" d="M892.92,504.47c-4.14-3.21-.2-8.79,4.51-3.34" transform="translate(-451.86 -347)"/><ellipse class="cls-12" cx="259.85" cy="90.76" rx="3.9" ry="3.87"/><ellipse class="cls-12" cx="259.85" cy="147.12" rx="3.9" ry="3.87"/><line class="cls-13" x1="350.97" y1="169.66" x2="350.97" y2="177.41"/><line class="cls-13" x1="354.87" y1="173.53" x2="347.07" y2="173.53"/><line class="cls-13" x1="358.06" y1="92.17" x2="358.06" y2="99.92"/><line class="cls-13" x1="361.96" y1="96.04" x2="354.16" y2="96.04"/><g class="cls-14"><rect class="cls-15" x="734.73" y="435.93" width="54.67" height="79.74" transform="translate(-587.67 97.78) rotate(-30)"/></g><g class="cls-16"><rect class="cls-15" x="712.12" y="462.06" width="99.12" height="28.74" transform="translate(-588.04 97.67) rotate(-30)"/></g><g class="cls-17"><rect class="cls-18" x="723.85" y="493.43" width="40.29" height="28.74" transform="translate(-606.08 93.03) rotate(-30)"/></g><g class="cls-19"><rect class="cls-18" x="776.33" y="463.13" width="40.29" height="28.74" transform="matrix(0.87, -0.5, 0.5, 0.87, -583.91, 115.21)"/></g><g class="cls-20"><rect class="cls-18" x="705.42" y="461.73" width="40.29" height="28.74" transform="translate(-592.7 79.57) rotate(-30)"/></g><g class="cls-21"><rect class="cls-18" x="760.73" y="430.02" width="40.29" height="28.74" transform="translate(-569.44 102.97) rotate(-30)"/></g><g class="cls-22"><rect class="cls-15" x="692.91" y="432.05" width="99.12" height="28.74" transform="translate(-575.6 84.05) rotate(-30)"/></g><g class="cls-23"><rect class="cls-15" x="726.14" y="493.9" width="102.99" height="28.74" transform="translate(-601.81 109.91) rotate(-30)"/></g><ellipse class="cls-24" cx="259.85" cy="90.76" rx="3.9" ry="3.87"/><ellipse class="cls-24" cx="259.85" cy="147.12" rx="3.9" ry="3.87"/><line class="cls-25" x1="350.97" y1="169.66" x2="350.97" y2="177.41"/><line class="cls-25" x1="354.87" y1="173.53" x2="347.07" y2="173.53"/><line class="cls-25" x1="358.06" y1="92.17" x2="358.06" y2="99.92"/><line class="cls-25" x1="361.96" y1="96.04" x2="354.16" y2="96.04"/><g class="cls-14"><rect class="cls-18" x="734.73" y="435.93" width="54.67" height="79.74" transform="translate(-587.67 97.78) rotate(-30)"/></g><g class="cls-16"><rect class="cls-26" x="712.12" y="462.06" width="99.12" height="28.74" transform="translate(-588.04 97.67) rotate(-30)"/></g><g class="cls-17"><rect class="cls-18" x="723.85" y="493.43" width="40.29" height="28.74" transform="translate(-606.08 93.03) rotate(-30)"/></g><g class="cls-19"><rect class="cls-18" x="776.33" y="463.13" width="40.29" height="28.74" transform="matrix(0.87, -0.5, 0.5, 0.87, -583.91, 115.21)"/></g><g class="cls-20"><rect class="cls-18" x="705.42" y="461.73" width="40.29" height="28.74" transform="translate(-592.7 79.57) rotate(-30)"/></g><g class="cls-21"><rect class="cls-18" x="760.73" y="430.02" width="40.29" height="28.74" transform="translate(-569.44 102.97) rotate(-30)"/></g><g class="cls-22"><rect class="cls-26" x="692.91" y="432.05" width="99.12" height="28.74" transform="translate(-575.6 84.05) rotate(-30)"/></g><g class="cls-23"><rect class="cls-26" x="726.14" y="493.9" width="102.99" height="28.74" transform="translate(-601.81 109.91) rotate(-30)"/></g><g class="cls-27"><rect class="cls-28" x="272.94" y="94.74" width="72.4" height="72.35"/></g><ellipse class="cls-29" cx="309.14" cy="130.91" rx="31.2" ry="31.17"/><line class="cls-30" x1="277.42" y1="159.49" x2="265.98" y2="159.49"/><line class="cls-30" x1="277.42" y1="156.37" x2="270.14" y2="156.37"/><g class="cls-31"><rect class="cls-32" x="303.19" y="96.09" width="16.17" height="37.62"/></g><line class="cls-30" x1="308.62" y1="128.32" x2="308.62" y2="109.61"/><line class="cls-30" x1="309.23" y1="128.2" x2="310.7" y2="117.92"/><circle class="cls-33" cx="308.62" cy="130.39" r="1.56"/><g class="cls-34"><rect class="cls-35" x="297.9" y="86.43" width="21.44" height="15.2"/></g><line class="cls-36" x1="296.14" y1="160.53" x2="289.2" y2="167.46"/><line class="cls-36" x1="324.22" y1="160.53" x2="331.15" y2="167.46"/><g class="cls-37"><rect class="cls-38" x="245.19" y="435.36" width="328.85" height="64.47"/></g><g class="cls-39"><rect class="cls-40" x="363.62" y="360.99" width="7.09" height="85.04"/></g><g class="cls-39"><rect class="cls-41" x="363.62" y="360.99" width="7.09" height="85.04"/></g><g class="cls-42"><rect class="cls-40" x="451.97" y="392.84" width="18.5" height="45.43"/></g><g class="cls-43"><rect class="cls-40" x="450.55" y="428.28" width="21.34" height="22.76"/></g><g class="cls-44"><rect class="cls-40" x="414.21" y="372.21" width="82.17" height="32.89"/></g><path class="cls-33" d="M878.68,745.46c4.26.11,61.53,9,64.53-15.84.69-5.72-13.09-5.47-13.74-5.37-19.3,3.07-39.17,4.65-57.49,11.42-2.9,1.07,1.84,6.3,4.22,8.28A7,7,0,0,0,878.68,745.46Z" transform="translate(-451.86 -347)"/><g class="cls-45"><rect class="cls-9" x="836.21" y="659.87" width="94.54" height="34.03" transform="translate(-679.23 398.65) rotate(-41)"/></g><g class="cls-46"><rect class="cls-9" x="847.5" y="508.81" width="120.51" height="102.42" transform="translate(-491.67 702.68) rotate(-59)"/></g><line class="cls-47" x1="464.34" y1="154.41" x2="474.41" y2="140.05"/><g class="cls-48"><rect class="cls-9" x="917.52" y="479.62" width="15.67" height="15.67" transform="translate(-313.21 829.66) rotate(-69)"/></g><circle class="cls-49" cx="925.35" cy="487.46" r="2.83" transform="translate(-313.21 829.66) rotate(-69)"/><line class="cls-50" x1="457.88" y1="157.25" x2="462.43" y2="140.32"/><g class="cls-51"><rect class="cls-9" x="905.74" y="480.18" width="15.67" height="15.67" transform="translate(-42.17 1045.93) rotate(-89)"/></g><circle class="cls-10" cx="913.57" cy="488.01" r="2.83" transform="translate(-42.17 1045.93) rotate(-89)"/><g class="cls-52"><rect class="cls-9" x="917.17" y="497.73" width="32.14" height="18.74" transform="translate(-546.82 -106.17) rotate(-14)"/></g><path class="cls-53" d="M932.88,504.42c7.14-1.73,13.72,3.39,3.67,4.38" transform="translate(-451.86 -347)"/><path class="cls-11" d="M860.09,555.73a18.88,18.88,0,0,0,1.63,2.52,24.51,24.51,0,0,0,3.63,1s10.72.45,17-4.33c3.87-3,8-6.24,9-9.3" transform="translate(-451.86 -347)"/><g class="cls-54"><rect class="cls-55" x="892.29" y="514.85" width="11.42" height="11.42" transform="translate(-350.16 839.36) rotate(-70)"/></g><circle class="cls-56" cx="898" cy="520.56" r="0.71" transform="translate(-350.16 839.36) rotate(-70)"/><g class="cls-57"><rect class="cls-55" x="885.75" y="514.14" width="11.42" height="11.42" transform="translate(-353.8 832.75) rotate(-70)"/></g><circle class="cls-56" cx="891.46" cy="519.85" r="0.71" transform="translate(-353.8 832.75) rotate(-70)"/><path class="cls-11" d="M892.7,549.92c-.62-.8-.25-3.61-.88-4.41s-2.4.19-3.1-.71" transform="translate(-451.86 -347)"/><path class="cls-11" d="M866.05,560.92c-1.71-11.17-2-4.78,5-13.51" transform="translate(-451.86 -347)"/><path class="cls-11" d="M864.28,553.66c-.61-.83-1-.48-1.63-1.3" transform="translate(-451.86 -347)"/><g class="cls-58"><rect class="cls-55" x="912.51" y="563.45" width="20.35" height="23.64" transform="translate(-563.63 -106.69) rotate(-14)"/></g><g class="cls-59"><rect class="cls-55" x="917.07" y="590.53" width="16.4" height="22.9" transform="translate(-570.01 -105.27) rotate(-14)"/></g><g class="cls-60"><rect class="cls-55" x="903.22" y="549.49" width="27.26" height="17.02" transform="translate(-155.61 1086.69) rotate(-86)"/></g><g class="cls-61"><rect class="cls-55" x="909.1" y="578.94" width="16.19" height="18.16" transform="translate(-493.63 758.14) rotate(-61)"/></g><g class="cls-62"><rect class="cls-55" x="911.98" y="521.69" width="20.35" height="23.64" transform="translate(-563.66 443.32) rotate(-44)"/></g><path class="cls-6" d="M889.88,510.7c3.27-.41,1.83-.88,4.21,1.72" transform="translate(-451.86 -347)"/><path class="cls-6" d="M896.09,514.75c4.82-1.94,2.65-2.27,6.57.31" transform="translate(-451.86 -347)"/><g class="cls-63"><rect class="cls-35" x="453.56" y="368.68" width="41.99" height="22.93"/></g><g class="cls-64"><rect class="cls-18" x="466.38" y="153.97" width="15.2" height="15.2"/></g><circle class="cls-33" cx="473.98" cy="161.57" r="2.6"/><g class="cls-65"><rect class="cls-9" x="377.05" y="419.39" width="21.34" height="28.81"/></g><g class="cls-66"><rect class="cls-55" x="358.44" y="350.88" width="134.83" height="88.48"/></g><g class="cls-67"><rect class="cls-18" x="436.33" y="252.46" width="64.61" height="123.85"/></g><path class="cls-33" d="M917.88,637.33c7.4,1.07,4.28,1.62,9.52-.28" transform="translate(-451.86 -347)"/><g class="cls-68"><rect class="cls-55" x="438.27" y="311.52" width="16.86" height="19.2"/></g><path class="cls-33" d="M904.7,648.85c-17.27-1.37-13.52-1.27-6.44-8.31s1.42-5,6.44-12.08c0,0,1-6,1.29-6.6s5.81-7.28,5.81-7.28" transform="translate(-451.86 -347)"/><line class="cls-30" x1="452.14" y1="304.96" x2="454.22" y2="293.53"/><g class="cls-69"><rect class="cls-55" x="431.84" y="324.38" width="14.45" height="15.97"/></g><path class="cls-33" d="M902.46,672.66c2.56,12.73-10.19,25.53-6.66,30.76C903.56,714.89,934,716,942.1,717.3" transform="translate(-451.86 -347)"/><g class="cls-70"><rect class="cls-55" x="873.53" y="677.14" width="18.5" height="12.23" transform="translate(-683.58 399.75) rotate(-41)"/></g><path class="cls-33" d="M946.08,712.31c3.47-12.63-6.77-31.16-7.78-51.29-.45-8.9,3.43-21.63,3.28-31.41s-5.11-21.31-14.32-26.4" transform="translate(-451.86 -347)"/><path class="cls-33" d="M893.88,711.51c-24.83,1.27,16.84-1.47-39.24,9-23.42,4.38-32.28-2.92-24.17,21.92s3.44,22.31,9.18,34.43c1.67,3.53,7.09,3.3,10.64,4.95" transform="translate(-451.86 -347)"/><path class="cls-33" d="M841.73,769.78c11.13-1.38,8-3.71,8.46,8.24" transform="translate(-451.86 -347)"/><g class="cls-71"><rect class="cls-55" x="848.3" y="697.5" width="18.5" height="11.36" transform="translate(-702.84 388.09) rotate(-41)"/></g><path class="cls-33" d="M939.71,720c-17.63,25.07-67.77,19.25-89.25,21.36" transform="translate(-451.86 -347)"/><path class="cls-33" d="M847.83,729.41c.92,5.12,2.94,5.84,2.45,11-1.9,19.84-6.16-24-4.45,1.76.65,9.91.72,14.26,2.32,24.06" transform="translate(-451.86 -347)"/><path class="cls-33" d="M894.3,721.26c3.69-1.28,7.42-2.46,11.07-3.85l9.45.91c1.43-.55-.86-3.49.2-4.59" transform="translate(-451.86 -347)"/><path class="cls-33" d="M893.74,704c-3.26.4-6.65.2-9.78,1.21-5.22,1.68-9.62,5.66-15,6.77-10.6,2.2-21.62,1.53-32.33,3-6.6.93-14.29.15-19.52,4.29s8.25,34.87,10.07,43.52a17.91,17.91,0,0,0,8.75,11.33" transform="translate(-451.86 -347)"/><g class="cls-72"><rect class="cls-55" x="440.08" y="298.01" width="16.86" height="19.2"/></g><g class="cls-73"><rect class="cls-55" x="861.51" y="689.61" width="18.5" height="12.23" transform="translate(-680.78 530.29) rotate(-48)"/></g><g class="cls-74"><rect class="cls-9" x="856.67" y="664.15" width="94.54" height="32.99" transform="translate(-676.68 412.99) rotate(-41)"/></g><g class="cls-75"><rect class="cls-55" x="894.49" y="682.43" width="18.5" height="12.23" transform="translate(-566.64 -161.91) rotate(-11)"/></g><g class="cls-76"><rect class="cls-55" x="909.05" y="669.96" width="18.5" height="12.23" transform="translate(-564 -159.35) rotate(-11)"/></g><g class="cls-77"><rect class="cls-55" x="460.88" y="311.52" width="16.86" height="19.2"/></g><g class="cls-78"><rect class="cls-55" x="813.53" y="772.15" width="31.45" height="42.03" transform="translate(-592.83 1058.9) rotate(-76)"/></g><path class="cls-11" d="M886,704.68c-.8,4.89.44,3.05-3.46,5.69" transform="translate(-451.86 -347)"/><g class="cls-79"><rect class="cls-55" x="870.99" y="700.62" width="18.5" height="11.36" transform="translate(-667.89 91.18) rotate(-25)"/></g><path class="cls-11" d="M860.49,707.8c-1.81,8,2.25,3.16,4.87-2.07" transform="translate(-451.86 -347)"/><g class="cls-80"><rect class="cls-9" x="384.13" y="425.06" width="21.34" height="28.81"/></g><g class="cls-81"><rect class="cls-55" x="822.03" y="782.07" width="31.45" height="42.03" transform="translate(-596.01 1074.68) rotate(-76)"/></g><g class="cls-82"><rect class="cls-40" x="480.59" y="328.56" width="32.53" height="58.03"/></g><path class="cls-33" d="M937.45,725.48c3.53-2.36,9.4-2.6,11.27-4.61s-.73-17.8,3.07-34.16c.38-1.65.87-3.4,1.47-5.25.75-2.29,6.33.29,6.7,2.67.29,1.82-2.63,2.89-3.85,6.46s.3,5.7,0,7.9c-.56,4.15-.87,25.58-5.07,28s-4.47,1.71-8,2.15" transform="translate(-451.86 -347)"/><g class="cls-83"><rect class="cls-40" x="485.85" y="262.87" width="35.94" height="81.95"/></g><path class="cls-33" d="M949.08,685.38c7.26,3.77,11.15-.85,17.17-2.6,1.11-.32,2.62-1.39,2.38-2.52-1.6-7.73-6.89-14.57-7.56-22.43-1-11.74,11.1-25.76,1.13-37.48-14.37-16.88-19,9.83-18.09,18.38.86,8.32,2.75,9.92,3.07,15.13.14,2.23-3.3,10.26-4.28,15S944.92,683.22,949.08,685.38Z" transform="translate(-451.86 -347)"/><g class="cls-84"><rect class="cls-35" x="486.13" y="303.64" width="18.79" height="40.59"/></g><path class="cls-33" d="M916.72,751v28.25c0,.76-3.37.9-4.16.76s-1.81.27-2,0c-1-1.25-1.13-7.83-1-13.85" transform="translate(-451.86 -347)"/><g class="cls-85"><rect class="cls-55" x="386.49" y="430.29" width="16.86" height="19.2"/></g><g class="cls-86"><rect class="cls-55" x="829.85" y="771.64" width="14.73" height="16.34" transform="matrix(0.56, -0.83, 0.83, 0.56, -729.31, 690.83)"/></g><path class="cls-33" d="M916.2,791.13c15.35,5.66,27.6,8.66,37.3,22.15" transform="translate(-451.86 -347)"/><path class="cls-33" d="M908.54,791.68c-14.7,3.27-25.45,11.2-33.32,23.8" transform="translate(-451.86 -347)"/><path class="cls-33" d="M918.31,788.1c2.53,0,5.25-1.8,7.77-1.82s5.58,0,7.77,1.7" transform="translate(-451.86 -347)"/><path class="cls-33" d="M908.1,788.71c-10-3.14-9.61-4.77-18.29-.55" transform="translate(-451.86 -347)"/><path class="cls-33" d="M914.11,780.78c1.5,0,2.63.62,3.6.62.55,0,.71,4.22.35,6.31-.1.58.7,3.29-.35,4.52A6.68,6.68,0,0,1,914,793.7a53,53,0,0,1-6.2-.7s-.25-3-.58-6.93" transform="translate(-451.86 -347)"/><g class="cls-87"><rect class="cls-88" x="485.99" y="459.46" width="18.5" height="19.92"/></g><ellipse class="cls-33" cx="495.24" cy="469.42" rx="4.25" ry="4.96"/><g class="cls-89"><rect class="cls-88" x="433.55" y="436.78" width="15.67" height="17.09"/></g><ellipse class="cls-33" cx="441.38" cy="445.32" rx="2.83" ry="3.54"/><g class="cls-90"><rect class="cls-88" x="471.81" y="436.78" width="15.67" height="17.09"/></g><ellipse class="cls-33" cx="479.65" cy="445.32" rx="2.83" ry="3.54"/><g class="cls-91"><rect class="cls-88" x="428.07" y="460.88" width="17.09" height="19.92"/></g><ellipse class="cls-33" cx="436.61" cy="470.84" rx="3.54" ry="4.96"/><path class="cls-33" d="M934,742.12c0,14.55-2.63,7.52,19,12.11" transform="translate(-451.86 -347)"/><g class="cls-92"><rect class="cls-35" x="494.49" y="399.93" width="19.92" height="14.25"/></g><path class="cls-33" d="M946.15,825.25l14.94.66" transform="translate(-451.86 -347)"/><path class="cls-33" d="M885.2,821.52l9.46.42" transform="translate(-451.86 -347)"/><polyline class="cls-33" points="506.61 474.97 509.09 474.97 511.73 474.97 511.79 474.97 511.84 474.97 511.89 474.97 511.94 474.97"/><g class="cls-93"><rect class="cls-40" x="288.5" y="355.32" width="97.8" height="7.09"/></g><g class="cls-93"><rect class="cls-41" x="288.5" y="355.32" width="97.8" height="7.09"/></g><g class="cls-94"><rect class="cls-40" x="292.75" y="360.99" width="7.09" height="106.3"/></g><g class="cls-94"><rect class="cls-41" x="292.75" y="360.99" width="7.09" height="106.3"/></g><g class="cls-95"><rect class="cls-40" x="373.54" y="360.99" width="7.09" height="106.3"/></g><g class="cls-95"><rect class="cls-41" x="373.54" y="360.99" width="7.09" height="106.3"/></g><g class="cls-96"><rect class="cls-40" x="302.67" y="360.99" width="7.09" height="85.04"/></g><g class="cls-96"><rect class="cls-41" x="302.67" y="360.99" width="7.09" height="85.04"/></g><g class="cls-97"><rect class="cls-35" x="292.86" y="303.76" width="80.02" height="57.18"/></g><path class="cls-6" d="M752.13,655.76c3.38,8.08,8.6,15.46,11,21.12s5.29,10.12,7.18,13.66a55.68,55.68,0,0,0,6.67,9.16c.7.65,8-.56,17.72,0,13,.74,22.7.12,23.93.57s1.54,2.33.48,2.43c-6.88.62-17.69-.2-24.86,0-4,.11-8.62-.52-12.33,0-2.63.37-6.87,0-7.61-.52-.22-.14-25.1-38.6-24.56-45.4Z" transform="translate(-451.86 -347)"/><polyline class="cls-98" points="328.13 354.16 330.3 354.16 330.86 354.16"/><polyline class="cls-98" points="332.38 354.16 334.55 354.16 335.11 354.16"/><polyline class="cls-98" points="335.22 354.16 337.38 354.16 337.94 354.16"/><g class="cls-99"><rect class="cls-55" x="324.6" y="346.07" width="12.83" height="11.42"/></g><g class="cls-100"><rect class="cls-55" x="328.86" y="346.07" width="12.83" height="11.42"/></g><g class="cls-101"><rect class="cls-55" x="333.11" y="346.07" width="12.83" height="11.42"/></g><g class="cls-102"><rect class="cls-55" x="337.36" y="346.07" width="12.83" height="11.42"/></g><g class="cls-103"><rect class="cls-55" x="341.61" y="346.07" width="12.83" height="11.42"/></g><g class="cls-104"><rect class="cls-55" x="345.86" y="346.07" width="12.83" height="11.42"/></g><g class="cls-105"><rect class="cls-55" x="350.12" y="346.07" width="12.83" height="11.42"/></g><path class="cls-6" d="M781.09,701.31c-1,5.39-3.45,10.71-3,16.18.72,9.48,5.79,18.32,6.36,27.81,1.2,20.13-9.11,75.33-43.08,64.44-9.35-3-1.61-9.24,3.31-9.24" transform="translate(-451.86 -347)"/><g class="cls-106"><rect class="cls-55" x="465.31" y="299.05" width="16.86" height="19.2"/></g><g class="cls-107"><rect class="cls-38" x="44.09" y="443.22" width="184.96" height="42.45"/></g><g class="cls-108"><rect class="cls-5" x="97.57" y="429.37" width="35.94" height="27.76"/></g><g class="cls-109"><rect class="cls-55" x="97.23" y="445.64" width="56.74" height="18.27"/></g><g class="cls-110"><rect class="cls-111" x="550.03" y="697.51" width="36.61" height="92.86" transform="translate(-477.48 -326.71) rotate(-2)"/></g><g class="cls-112"><rect class="cls-5" x="89.4" y="442.35" width="32.78" height="32.18"/></g><g class="cls-113"><rect class="cls-111" x="529.02" y="688.06" width="56.75" height="116.89" transform="translate(-477.58 -327.09) rotate(-2)"/></g><path class="cls-114" d="M535.3,693.8c-.69,10.05-2.16,20.06-2.08,30.15s12.21,14,13.18,26.42c1.14,14.55-1.39,29.46,1.24,43.77.52,2.85,4.27,3.27,6.79,3.66,4.42.68,12.29,4.27,13.86-.48,4.82-14.58-.05-31.4,2-46.85,2.14-16.4-2.32-16.54,3.22-31.78.76-2.09,8-15.16,5.12-18.07s-12.89-.37-20.27-1.51c-7.91-1.22-12.47.36-20.2-1.95Z" transform="translate(-451.86 -347)"/><path class="cls-114" d="M567.71,785.12c4-.34,8,2.33,9.32-1.52,3.51-10.43-3.55-22.4-.66-33,3.45-12.66,2.24-41.82,3.39-46" transform="translate(-451.86 -347)"/><path class="cls-114" d="M537.8,710.17c0,.8,2.36,21.56-4.17,11.5" transform="translate(-451.86 -347)"/><g class="cls-115"><rect class="cls-18" x="76.99" y="217.55" width="56.63" height="145.55"/></g><path class="cls-33" d="M533.86,692.46c.13-6,2.13-19.8,2.26-33.52s.62-35.44,0-37.84c-.09-.35.24-36.23,2.52-41.65,6.72-16,25.77-9,32-3.75,0,0,1.06,48.61,0,63.41-.07.94,9.88,55.07,9.88,58.37,0,7.83-22,10.26-34.66,4.38Z" transform="translate(-451.86 -347)"/><g class="cls-116"><rect class="cls-5" x="538.45" y="447.49" width="105.34" height="164.78" transform="translate(-476.58 683.83) rotate(-81)"/></g><g class="cls-117"><rect class="cls-55" x="565.06" y="501.4" width="12.59" height="12.6" transform="translate(-563.8 -181.82) rotate(-15)"/></g><circle class="cls-56" cx="571.35" cy="507.7" r="1.3" transform="translate(-563.8 -181.82) rotate(-15)"/><g class="cls-118"><rect class="cls-55" x="574.31" y="498.14" width="12.59" height="12.6" transform="translate(-562.64 -179.53) rotate(-15)"/></g><circle class="cls-56" cx="580.61" cy="504.43" r="1.3" transform="translate(-562.64 -179.54) rotate(-15)"/><g class="cls-119"><rect class="cls-5" x="447.74" y="489.8" width="103.8" height="78.72" transform="translate(-560.11 582.32) rotate(-80)"/></g><path class="cls-6" d="M539,503.75c-19.57,25.58-4.47,43.23-21.58,63.48-25.25,29.88-82.5-23.21-39-45.72,17-8.81,39.11-26.09,56.67-33.74" transform="translate(-451.86 -347)"/><path class="cls-7" d="M523.89,512.68c-2.22,11.68-9.08,67.53-39.49,42.11" transform="translate(-451.86 -347)"/><path class="cls-6" d="M522.93,488.84c7.3-11.8,2-7.16,17.5-11.93" transform="translate(-451.86 -347)"/><g class="cls-120"><rect class="cls-35" x="74.3" y="151.89" width="24.56" height="27.66"/></g><g class="cls-121"><rect class="cls-18" x="75.34" y="153.97" width="21.44" height="23.51"/></g><g class="cls-122"><rect class="cls-55" x="88.3" y="457.58" width="65.3" height="21.41"/></g><path class="cls-6" d="M584.31,812.87c-1.15-6.82-4.64,0,1.81-4.56" transform="translate(-451.86 -347)"/><path class="cls-6" d="M590.52,800.93c-1.15-6.82-4.64,0,1.81-4.56" transform="translate(-451.86 -347)"/><path class="cls-33" d="M918.19,624.42c-1.37,9.5,3.15,11.33,0,22-.84,2.85,1.84,4.57,4.92,4.12,1.24-.18,5.64-3.86,6.56-4.12s1.14-5.11,2.26-11c1.24-6.53,8.52-13.35-4.2-14.46" transform="translate(-451.86 -347)"/><path class="cls-33" d="M787.83,700.45c9.21-.55,24.23.36,33.75-4.71,26-13.82,52-2.18,62-30.71,5.59-16.08,7.07-36.19,10.82-52.79" transform="translate(-451.86 -347)"/><path class="cls-33" d="M894,614c2.26-7.44,3.59-27.41,7.11-34.05,16.51-31.17,35.31-25.77,25.53-69.22" transform="translate(-451.86 -347)"/><path class="cls-33" d="M894.46,612.41c2.59-20.71-2.91-39.08-.65-59.53" transform="translate(-451.86 -347)"/><path class="cls-123" d="M553.48,535.45c-3.75,2.43-1.93,2.5-5.39-.87" transform="translate(-451.86 -347)"/><path class="cls-56" d="M577.14,549.48c-11.16-.47-24.2.4-26.46-12.92" transform="translate(-451.86 -347)"/><path class="cls-6" d="M564.24,505.51c4.31-5.44,1.65-4.83,7.63-2.92" transform="translate(-451.86 -347)"/><path class="cls-6" d="M574.64,500.31c4.31-5.44,1.65-4.83,7.63-2.92" transform="translate(-451.86 -347)"/><g class="cls-124"><rect class="cls-125" x="203.82" y="165.83" width="18.23" height="17.97"/></g><path class="cls-6" d="M661.21,517.83c1.7,2.38,3,5.13,5.1,7.13,4.62,4.33,3.32-9.81-5.62-6.68" transform="translate(-451.86 -347)"/><path class="cls-6" d="M566.13,478.53c4.42,8.09-.64,9.88,9.54,13.47" transform="translate(-451.86 -347)"/><path class="cls-6" d="M598.56,516c1.3,1.69,2.55,3.42,3.89,5.08l1.3,6.76c9,11.22,18.48,22.26,29.46,31.56,2.22,1.88,6.38,2.52,8.69.75,5.69-4.37,8.56-11.52,12.84-17.28" transform="translate(-451.86 -347)"/><path class="cls-6" d="M592.1,540.12c-.22-7.27-1.36-4.52,1.56-8.79" transform="translate(-451.86 -347)"/><path class="cls-6" d="M599.05,516.46C585,506,591,501.15,578.87,491.09" transform="translate(-451.86 -347)"/><path class="cls-6" d="M527.57,553.62c8,7.08,14.1,3.81,19,14.18" transform="translate(-451.86 -347)"/><g class="cls-126"><rect class="cls-5" x="540.72" y="667.23" width="20.4" height="27.66" transform="translate(-609.36 -181.2) rotate(-15)"/></g><path class="cls-6" d="M561.62,570.32c4.56-12.56,20.24-21.11,30.22-30.42" transform="translate(-451.86 -347)"/><path class="cls-6" d="M593.47,539.44c10.87,16.42,3.74,9.39,22.21,20.25" transform="translate(-451.86 -347)"/><path class="cls-127" d="M637.76,561.56a19.63,19.63,0,0,1,0,3.12,23.11,23.11,0,0,1-1,3.12" transform="translate(-451.86 -347)"/><path class="cls-6" d="M669,526.33c-9.91,32.15-3,18.56-18.64,41.81L635,573l-20.92-11" transform="translate(-451.86 -347)"/><path class="cls-41" d="M536.61,507.39c-.64-8.07-6.75-31.6,3.83-40.43,13.68-11.43,25.88-2.61,28.41,12.15" transform="translate(-451.86 -347)"/><g class="cls-128"><rect class="cls-18" x="77.79" y="227.41" width="31.15" height="109.96"/></g><path class="cls-33" d="M555.35,598.19c4.25-33.67-22.7-17.07-19,10.76,1.25,9.35-4.45,20.91,0,28.3,6.33,10.51.58,31.69,8.85,40.76,2.3,2.53.91,1.19,5.17-1.12s7.39-12.82-2.08-39.64C544.46,626.33,555.35,598.19,555.35,598.19Z" transform="translate(-451.86 -347)"/><path class="cls-129" d="M548.13,688.72c1.18,1.58,9.34,2.83,9.61-1.71" transform="translate(-451.86 -347)"/><path class="cls-33" d="M545.95,570.15l13.47.56" transform="translate(-451.86 -347)"/><path class="cls-130" d="M951.07,445c5.64-10.21,9-22.07,16.91-30.64,6.4-6.91,16-10.16,24.52-14.1,13.07-6,17.36,23.34,4.51,26.25-56.66,12.8-27.42-37.73,0-53.14" transform="translate(-451.86 -347)"/><path class="cls-130" d="M554.52,419.42c-.34-13.42-10-54.39,12.41-65.76,5.21-2.64,14.39-.24,16.77,5.09,6.85,15.34-49.81,20.18-25.86-10.74" transform="translate(-451.86 -347)"/><line class="cls-130" x1="152.05" y1="73.19" x2="152.05" y2="95.67"/><line class="cls-130" x1="163.31" y1="84.43" x2="140.8" y2="84.43"/><line class="cls-130" x1="431.43" y1="46.75" x2="431.43" y2="69.23"/><line class="cls-130" x1="442.69" y1="57.99" x2="420.18" y2="57.99"/></svg>