<svg xmlns="http://www.w3.org/2000/svg" viewBox="0 0 163.01 252.74"><defs><style>.cls-1{fill:#ff939f;}.cls-2,.cls-3{fill:none;stroke-miterlimit:10;stroke-width:3px;}.cls-2{stroke:#263345;}.cls-3{stroke:#d1d3d4;}</style></defs><title>Asset 3</title><g id="Layer_2" data-name="Layer 2"><g id="Layer_1-2" data-name="Layer 1"><path class="cls-1" d="M20.63,252.66c-.7-46-1.51-106.17-2.21-152.19-.42-27.23-.74-55.31,5.91-80.65C27.07,9.37,33-1.91,40.33.38,47.25,2.54,49.28,15.44,48.92,26,46.3,102.81,41,178.43,51.67,252.66"/><path class="cls-1" d="M126.95,252.73,114.48,52c-.9-14.42-1.7-29.64,2.39-42.75,1.23-3.94,3.13-7.86,5.94-9,3.86-1.52,7.65,2.86,10,7.66,6.48,13,7.69,30.16,8.69,46.36l12.16,198.41"/><path class="cls-2" d="M22,31.84c.22-3.74-.23-7.5-.06-11.24S23,13,25.48,10.14s6.85-4.2,10.12-2.37c2.51,1.4,3.82,4.23,4.7,7a43.5,43.5,0,0,1,2,16.09"/><path class="cls-2" d="M117,29.84c.22-3.74-.23-7.5-.06-11.24S118,11,120.48,8.14s6.85-4.2,10.12-2.37c2.51,1.4,3.82,4.23,4.7,7a43.5,43.5,0,0,1,2,16.09"/><ellipse class="cls-3" cx="1.5" cy="34.77" ry="15.38"/><ellipse class="cls-3" cx="8.51" cy="47.08" ry="7.69"/><ellipse class="cls-3" cx="154.5" cy="51.77" ry="15.38"/><ellipse class="cls-3" cx="161.51" cy="64.08" ry="7.69"/></g></g></svg>