<svg xmlns="http://www.w3.org/2000/svg" viewBox="0 0 237.29 193.86"><defs><style>.cls-1{fill:#ff939f;}.cls-2{fill:none;stroke:#263345;stroke-miterlimit:10;stroke-width:3px;}.cls-3{fill:#ed7788;fill-rule:evenodd;}.cls-4{fill:#ef8fa2;}.cls-5{fill:#f4a6b9;}</style></defs><title>Asset 4</title><g id="Layer_2" data-name="Layer 2"><g id="Layer_1-2" data-name="Layer 1"><path class="cls-1" d="M0,169.61l176.76-95.9c12.7-6.89,26.16-14,39.78-15.85,4.1-.54,8.45-.47,10.63,1.61,3,2.86.63,8.14-2.72,12.33-9.1,11.37-24.11,19.69-38.38,27.42L11.26,193.86"/><path class="cls-2" d="M197.95,66.66c3.49-1.38,6.7-3.37,10.17-4.8s7.37-2.26,11-1.21,6.69,4.44,6.42,8.18c-.21,2.86-2.23,5.25-4.34,7.2a43.5,43.5,0,0,1-13.76,8.59"/><path class="cls-3" d="M201,45.6a21.17,21.17,0,0,0,13.55,8.81,18.2,18.2,0,0,0,15.19-4.52c4.61-4.26,6.88-10.83,7.46-17.31a15.81,15.81,0,0,0-.16-4.83c-.6-2.7-2.3-4.94-3.5-7.4a20.92,20.92,0,0,1-2.07-9.89,12.45,12.45,0,0,0-7.7,6.35A29.69,29.69,0,0,1,224.28,0c-4.13.16-7.83,2.82-10.73,6-3.58,3.88-6.41,9-6.18,14.44,0-.2-1.89-1.92-2.12-2.35a8.44,8.44,0,0,1-.9-3.36C195.54,21.35,194.89,37,201,45.6Z"/><ellipse class="cls-4" cx="219.22" cy="44.02" rx="9.68" ry="8.14"/><ellipse class="cls-5" cx="220.13" cy="47.39" rx="5.39" ry="2.81"/></g></g></svg>