<svg id="Layer_1" data-name="Layer 1" xmlns="http://www.w3.org/2000/svg" xmlns:xlink="http://www.w3.org/1999/xlink" viewBox="0 0 603.89 377.74"><defs><style>.cls-1,.cls-10,.cls-15,.cls-18,.cls-2,.cls-26,.cls-27,.cls-28,.cls-32,.cls-34,.cls-35,.cls-40,.cls-46,.cls-48,.cls-51,.cls-94{fill:none;}.cls-1{clip-rule:evenodd;}.cls-3{clip-path:url(#clip-path);}.cls-4{fill:#e8ebed;}.cls-5{clip-path:url(#clip-path-2);}.cls-6{fill:#d8d9d8;}.cls-7{clip-path:url(#clip-path-3);}.cls-8{fill:#263445;}.cls-9{clip-path:url(#clip-path-4);}.cls-10,.cls-32,.cls-35,.cls-94{stroke:#263445;}.cls-10,.cls-15,.cls-18,.cls-26,.cls-27,.cls-28,.cls-32,.cls-34,.cls-35,.cls-40,.cls-46,.cls-48,.cls-51,.cls-94{stroke-miterlimit:10;}.cls-11{clip-path:url(#clip-path-5);}.cls-12{fill:#4fbfa2;}.cls-13{clip-path:url(#clip-path-6);}.cls-14{clip-path:url(#clip-path-7);}.cls-15,.cls-18,.cls-40{stroke:#399dd7;}.cls-15,.cls-28{stroke-width:1px;}.cls-16{clip-path:url(#clip-path-8);}.cls-17{fill:#fff;}.cls-19{clip-path:url(#clip-path-9);}.cls-20{clip-path:url(#clip-path-10);}.cls-21{clip-path:url(#clip-path-11);}.cls-22{fill:#ccc;}.cls-23{clip-path:url(#clip-path-12);}.cls-24{clip-path:url(#clip-path-13);}.cls-25{fill:#399dd7;}.cls-26{stroke:#c2c2c2;}.cls-26,.cls-27,.cls-28,.cls-35,.cls-51{stroke-linecap:round;}.cls-27,.cls-28{stroke:#ccc;}.cls-29{clip-path:url(#clip-path-14);}.cls-30{clip-path:url(#clip-path-15);}.cls-31{clip-path:url(#clip-path-16);}.cls-32,.cls-46{stroke-linecap:square;}.cls-33{clip-path:url(#clip-path-17);}.cls-34{stroke:#3d3d3d;}.cls-36{clip-path:url(#clip-path-18);}.cls-37{clip-path:url(#clip-path-19);}.cls-38{clip-path:url(#clip-path-20);}.cls-39{fill:#a6cbe9;}.cls-40{stroke-width:2px;}.cls-41{clip-path:url(#clip-path-22);}.cls-42{clip-path:url(#clip-path-23);}.cls-43{clip-path:url(#clip-path-24);}.cls-44{clip-path:url(#clip-path-25);}.cls-45{fill:#ffc417;}.cls-46,.cls-48{stroke:#ffc417;}.cls-47{clip-path:url(#clip-path-26);}.cls-49{clip-path:url(#clip-path-27);}.cls-50{clip-path:url(#clip-path-28);}.cls-51{stroke:#34307f;}.cls-52{clip-path:url(#clip-path-29);}.cls-53{clip-path:url(#clip-path-30);}.cls-54{clip-path:url(#clip-path-31);}.cls-55{clip-path:url(#clip-path-32);}.cls-56{clip-path:url(#clip-path-33);}.cls-57{clip-path:url(#clip-path-34);}.cls-58{clip-path:url(#clip-path-35);}.cls-59{clip-path:url(#clip-path-36);}.cls-60{clip-path:url(#clip-path-37);}.cls-61{clip-path:url(#clip-path-38);}.cls-62{clip-path:url(#clip-path-39);}.cls-63{clip-path:url(#clip-path-40);}.cls-64{clip-path:url(#clip-path-41);}.cls-65{clip-path:url(#clip-path-42);}.cls-66{clip-path:url(#clip-path-43);}.cls-67{clip-path:url(#clip-path-44);}.cls-68{clip-path:url(#clip-path-45);}.cls-69{clip-path:url(#clip-path-46);}.cls-70{clip-path:url(#clip-path-47);}.cls-71{clip-path:url(#clip-path-48);}.cls-72{clip-path:url(#clip-path-49);}.cls-73{clip-path:url(#clip-path-50);}.cls-74{clip-path:url(#clip-path-51);}.cls-75{clip-path:url(#clip-path-52);}.cls-76{clip-path:url(#clip-path-53);}.cls-77{clip-path:url(#clip-path-54);}.cls-78{clip-path:url(#clip-path-55);}.cls-79{clip-path:url(#clip-path-56);}.cls-80{clip-path:url(#clip-path-57);}.cls-81{clip-path:url(#clip-path-58);}.cls-82{clip-path:url(#clip-path-59);}.cls-83{clip-path:url(#clip-path-60);}.cls-84{fill:#c1ccd4;}.cls-85{clip-path:url(#clip-path-61);}.cls-86{clip-path:url(#clip-path-62);}.cls-87{clip-path:url(#clip-path-63);}.cls-88{clip-path:url(#clip-path-64);}.cls-89{clip-path:url(#clip-path-65);}.cls-90{clip-path:url(#clip-path-67);}.cls-91{clip-path:url(#clip-path-69);}.cls-92{clip-path:url(#clip-path-71);}.cls-93{clip-path:url(#clip-path-73);}.cls-94{stroke-width:0.5px;}.cls-95{clip-path:url(#clip-path-74);}.cls-96{clip-path:url(#clip-path-75);}.cls-97{clip-path:url(#clip-path-76);}.cls-98{clip-path:url(#clip-path-77);}.cls-99{clip-path:url(#clip-path-78);}.cls-100{clip-path:url(#clip-path-79);}.cls-101{clip-path:url(#clip-path-80);}</style><clipPath id="clip-path" transform="translate(-431.09 -407.44)"><path class="cls-1" d="M493,726c-11.67.12-23.7-1.19-35,.36-15.06,2.06-24.56,14.88-21.25,22.24,4.91,10.93,45.06,13.5,60.33,12.42,23.1-1.63,45.61-5.3,68.72-6.88,17.16-1.17,34.72,0,51.83-1.36,7.52-.61,13.29-8.31,9.89-11.77-6.25-6.37-23-9.27-34.32-10.1C580.67,730,493,726,493,726Z"/></clipPath><clipPath id="clip-path-2" transform="translate(-431.09 -407.44)"><path class="cls-1" d="M502,710.41H523.4s-1.49,7.82,0,11.08a68.5,68.5,0,0,0,5.21,8.43H494.91a115.14,115.14,0,0,0,6.15-10.67A15.28,15.28,0,0,0,502,710.41Z"/></clipPath><clipPath id="clip-path-3" transform="translate(-431.09 -407.44)"><path class="cls-1" d="M495.29,728.5c.14,3.57-2.14,6.74.61,7.64,6.69,2.2,13.44.86,20.42.55s10.61.15,15.64,0c3.23-.1,11.68.6,13.56-1.5s-2.89-5-7.29-5.31c-13.28-.84-26.59-1.06-39.88-1.59"/></clipPath><clipPath id="clip-path-4" transform="translate(-431.09 -407.44)"><path class="cls-1" d="M572.67,511.58c1.65,6.59,6.44,5.85,9.71,11.81,7.16,13.05,28.14,4.55,30.52-11.81a51.51,51.51,0,0,0-3-26.12c-6.49-16.26-25.25-17.87-32.27-33.91S567.93,441,565.77,436"/></clipPath><clipPath id="clip-path-5" transform="translate(-431.09 -407.44)"><path class="cls-1" d="M494.46,637.66c44.1,2,27.81,1.07,24.63,51.1-.49,7.76,3.87,25.52-.52,25.68-31.4,4.15-8.58-61.76-22.21-76.47"/></clipPath><clipPath id="clip-path-6" transform="translate(-431.09 -407.44)"><path class="cls-1" d="M487.75,724.67h21.39s-1.49,7.82,0,11.08a68.5,68.5,0,0,0,5.21,8.43H480.66a115.14,115.14,0,0,0,6.15-10.67A15.28,15.28,0,0,0,487.75,724.67Z"/></clipPath><clipPath id="clip-path-7" transform="translate(-431.09 -407.44)"><path class="cls-1" d="M473.87,614.18c-.76,11-2.38,22-2.29,33.13s13.42,15.38,14.5,29c1.26,16-1.53,32.38,1.36,48.1.58,3.14,4.69,3.59,7.47,4,4.86.75,13.51,4.69,15.24-.53,5.3-16-.06-34.5,2.15-51.48,2.35-18,6-16.67,12.08-33.41.84-2.29,7-12,3.81-15.15s-17.61-1.16-25.72-2.4c-8.7-1.34-17-5.08-25.5-7.62Z"/></clipPath><clipPath id="clip-path-8" transform="translate(-431.09 -407.44)"><path class="cls-1" d="M537,529.71c4-31.95-21.55-16.2-18,10.21,1.19,8.87,9.09,15.72,13.31,22.73,6,10,9.08,22,16.93,30.56,3.49,3.82,8.75-2.78,14.24-7.72s9.59-5.6,9.71-10c.08-3.23.22-5.62-2.9-4.77-5.33,1.45-16.43,21.54-25.43-3.91-3.66-10.36-4.88-21.43-7.32-32.14Z"/></clipPath><clipPath id="clip-path-9" transform="translate(-431.09 -407.44)"><path class="cls-1" d="M472.28,618.66c.32-14.53-4.67-44.77,0-58.64,4-11.91,11.74-22.26,16.61-33.85,7.39-17.6,24.06-23.69,29.11-26.35s8.67-.88,15.5,4.86c0,0,3.83,12.25,2.13,17.59-5.25,16.5-11.54,41.08-12.75,58.06-1.11,15.53,7.26,40.66,7.26,44.55,0,8.6-30.41,6.46-44.28,0Z"/></clipPath><clipPath id="clip-path-10" transform="translate(-431.09 -407.44)"><path class="cls-1" d="M525.66,535.38c4.68-37-25-18.76-20.86,11.83,1.38,10.27,10.53,18.2,15.42,26.32,7,11.55,10.52,25.43,19.61,35.4,2.53,2.78,6.05-1.89,10.74-4.42s19.58-12.22,19.77-19.73c.09-3.74.56-5.89-3.05-4.91-6.17,1.68-22.12,27.9-32.54-1.57-4.24-12-5.65-24.82-8.48-37.22Z"/></clipPath><clipPath id="clip-path-11" transform="translate(-431.09 -407.44)"><path class="cls-1" d="M569.16,589c.46-.06,1.92-2.4,4.22-3.24s7.08-1,8.06-3.14c.51-1.13-6-9.8-6.59-10.75-.46-.79-.86,1.69-6.55,6.89s-3,2.5-4.64,3.86C565.91,588.71,566.53,589.38,569.16,589Z"/></clipPath><clipPath id="clip-path-12" transform="translate(-431.09 -407.44)"><path class="cls-1" d="M574.87,584.75c.46-.06,1.92-2.4,4.22-3.24s6.22-3.2,7.2-5.36c.51-1.13-5.18-7.59-5.73-8.54-.46-.78-.86,1.69-6.55,6.89s-3,2.5-4.64,3.86C571.61,584.43,572.24,585.11,574.87,584.75Z"/></clipPath><clipPath id="clip-path-13" transform="translate(-431.09 -407.44)"><path class="cls-1" d="M568,578.78c.6-.08,8.95-8.49,10.09-9.57,5-4.73,5.82-4.15,9.39-8.45.8-1-1.44-2.25-1.44-2.25s-6.46,5.58-9.91,8.69-6.33,6.41-9.57,9.19C566.53,576.4,566.73,578.94,568,578.78Z"/></clipPath><clipPath id="clip-path-14" transform="translate(-431.09 -407.44)"><path class="cls-1" d="M521.77,508.16c.31-.47-9.55-3.92-11.76-5.15s-11.08-9.21-10.92-11.56c.24-3.57,15.51-22.77,18.52-31.18,2.58-7.19,23.84-34.25,23.84-34.25s15.81.25,19.83,3.29c25.19,19,15.5,18,17.51,25.66,1.56,5.93,7.48,13.53,4.91,17.7s.61,20.92-4.92,27.52c-6.51,7.77-.3,28.82-3.3,37.58-1.6,4.65-2.83,13.63-9.3,21-3.77,4.3-10.53,13.37-16.49,17.3s-8.48,5.83-10.28,6.8c-.5.27-5.3-1.43-6.66-3s1-10,2.43-14,2.8-8.67,2.8-8.67,8.49,6.63,5.37,7c-1.56.16,1.69-1,1.1.83s-5,6.46-5,6.46,8.24-5.57,11.86-9.26c0,0,5.68-8.77,8.36-11.92,10.17-12,5.44-26.62,1.64-40.91-.3-1.11-2.08-1.48-3.21-1.28-2.77.48-9.58,5.48-22.87,4.15Z"/></clipPath><clipPath id="clip-path-15" transform="translate(-431.09 -407.44)"><circle class="cls-2" cx="562.3" cy="479.65" r="1.43" transform="translate(-31.54 919.64) rotate(-77)"/></clipPath><clipPath id="clip-path-16" transform="translate(-431.09 -407.44)"><circle class="cls-2" cx="570.96" cy="480.18" r="1.43" transform="translate(-25.35 928.49) rotate(-77)"/></clipPath><clipPath id="clip-path-17" transform="translate(-431.09 -407.44)"><path class="cls-1" d="M543,446.55c-23,26.94-7.39,47.19-27.35,68.42-29.44,31.33-89.28-30.24-40.25-52.43,19.19-8.69,44.45-26.37,64.18-33.75"/></clipPath><clipPath id="clip-path-18" transform="translate(-431.09 -407.44)"><path class="cls-1" d="M481,742.76c.14,3.57-2.33,9.8.42,10.71,6.46,2.12,13.16-1.14,19.9-1.41S521.7,755,527,754.84c4.28-.13,10.46-3.4,8.55-6.14s-10.19-3.87-13.53-4.09c-13.28-.84-24.6-1.53-37.89-2.06"/></clipPath><clipPath id="clip-path-19" transform="translate(-431.09 -407.44)"><path class="cls-1" d="M887.73,771.48c36.57,8,105.76,15.64,135.45-2.13,17.46-10.44-.86-40.61-30.12-43.35-45.93-4.3-68,5.48-114.25-2.53-41.57-7.19-113.2-2.79-169.86,0s-27.44,29.82-11.19,30.11c32.72.58,24.24,1.09,56.67,7.85C754.43,761.43,802.08,752.76,887.73,771.48Z"/></clipPath><clipPath id="clip-path-20" transform="translate(-431.09 -407.44)"><rect class="cls-2" x="801.68" y="631.22" width="7.88" height="94.65"/></clipPath><clipPath id="clip-path-22" transform="translate(-431.09 -407.44)"><rect class="cls-2" x="913.53" y="672.23" width="9.45" height="39.44"/></clipPath><clipPath id="clip-path-23" transform="translate(-431.09 -407.44)"><rect class="cls-2" x="911.95" y="711.67" width="12.6" height="14.2"/></clipPath><clipPath id="clip-path-24" transform="translate(-431.09 -407.44)"><path class="cls-1" d="M880,672.92c4.73.12,68.39,10,71.72-17.63.77-6.37-14.55-6.09-15.27-6-21.45,3.41-43.53,5.17-63.89,12.71-3.23,1.2,2,7,4.69,9.21A7.74,7.74,0,0,0,880,672.92Z"/></clipPath><clipPath id="clip-path-25" transform="translate(-431.09 -407.44)"><path class="cls-1" d="M850.95,493.56s-7.75,24.34-15.86,31c-2.72,2.23-5,1.37-6.84,1.7s-6,.55-6.9,0c-4.65-2.79-3.25-23.48-3-39.89s-8.12-11.89-5.74-23S818,444.49,828.1,442c8.56-2.14,12.06,4,14.93,6.54s5.51,12.57,5.51,12.57l17,10.95s17.05-2,34.31,10.83,28.55,35.86,28.55,35.86-10.4,8.67-14.27,14c-2.14,3-3.61,10.91-5.7,15.37a7.57,7.57,0,0,1-6.77,4.31s-7.1-25.06-12.15-37.15S850.95,493.56,850.95,493.56Z"/></clipPath><clipPath id="clip-path-26" transform="translate(-431.09 -407.44)"><ellipse class="cls-2" cx="828.06" cy="425.46" rx="3.15" ry="3.15" transform="translate(-78.33 212.96) rotate(-14)"/></clipPath><clipPath id="clip-path-27" transform="translate(-431.09 -407.44)"><ellipse class="cls-2" cx="807.56" cy="432.38" rx="3.15" ry="3.15" transform="translate(21.01 901.9) rotate(-59)"/></clipPath><clipPath id="clip-path-28" transform="translate(-431.09 -407.44)"><path class="cls-1" d="M840,450.06c4.7-1.4,6.92-.23,8.39-.27s-1.84,3.33,10.83,3.79c7.13.26,7.48-10.14.72-9.46s-13.46,3.28-20.19,4.91Z"/></clipPath><clipPath id="clip-path-29" transform="translate(-431.09 -407.44)"><circle class="cls-2" cx="824.03" cy="471.18" r="0.79" transform="translate(-89.51 213.35) rotate(-14)"/></clipPath><clipPath id="clip-path-30" transform="translate(-431.09 -407.44)"><circle class="cls-2" cx="817.92" cy="472.7" r="0.79" transform="translate(-90.06 211.91) rotate(-14)"/></clipPath><clipPath id="clip-path-31" transform="translate(-431.09 -407.44)"><path class="cls-1" d="M818.16,448.66c-8.91-3.5,10.63,2.05-2.36,1.25s-6,.57-9,.15c-3.94-.55-4.26-10.62.84-9.22,2.3.63,6.52,6.1,8.8,6.81"/></clipPath><clipPath id="clip-path-32" transform="translate(-431.09 -407.44)"><path class="cls-1" d="M896.3,501.48c.83,3.33,0,9.61,1.86,11.81s8.85,2,9.43.55c.5-1.26,1.47-7.29-.93-10.25s-7.22-2.1-9.66-2Z"/></clipPath><clipPath id="clip-path-33" transform="translate(-431.09 -407.44)"><path class="cls-1" d="M918.64,507.11c.83,3.33,1.77,9.36,3.59,11.57s5.79,1.42,6.37,0c.47-1.19-5.09-11.77-7.53-11.71Z"/></clipPath><clipPath id="clip-path-34" transform="translate(-431.09 -407.44)"><path class="cls-1" d="M895.32,531.18c1,2.54,2.52,10.17,3.1,8.72.5-1.26,4.52-12.32,2.12-15.27s-6-2.86-8.47-2.8C892.06,521.83,894.32,528.64,895.32,531.18Z"/></clipPath><clipPath id="clip-path-35" transform="translate(-431.09 -407.44)"><path class="cls-1" d="M848.52,483.38c3,1.67,7.05,6.52,9.91,6.7s7.5-5.11,6.83-6.52c-.58-1.23-4.33-6.05-8.13-6.31s-6.46,3.85-8.08,5.68Z"/></clipPath><clipPath id="clip-path-36" transform="translate(-431.09 -407.44)"><path class="cls-1" d="M874.85,480.84c2.39,2.47,4.84,8.3,7.52,9.3s8.66-2.69,8.44-4.24c-.2-1.34-2.37-7.05-5.93-8.41s-7.3,1.79-9.38,3.07Z"/></clipPath><clipPath id="clip-path-37" transform="translate(-431.09 -407.44)"><polygon class="cls-1" points="822.16 703.78 832.06 701.78 834.76 722.71 824.76 721.69 822.16 703.78"/></clipPath><clipPath id="clip-path-38" transform="translate(-431.09 -407.44)"><path class="cls-1" d="M891.11,625.53c6.59,5.84,10.11,6,11.59,6.83s-1.69-.64,34.53,11.52c1.48.5,2.54,3.61,1.26,4.52-37.52,26.63-61.35,14.72-98.7,20-.71.1-.24,4.79-.71,5s-1.88-4-2.16-3.67c-1.08,1.38-.78,3.76-.76,7.2,0,5.16,5.14,30.64,3.63,34.76-1.07,2.91-6.35-.18-9.17-1.45-2.36-1.06-4.38-4-6.6-5.39s-3.85-.65-4.87-2.42c-7-12.25-11.37-25.93-15.7-39.39-1.82-5.65-4.13-11.87-2.66-17.62.86-3.39,5.27-5.25,8.66-5.93,7.07-1.41,30.37-.07,44.11-2.39s23.6-9.22,24-9.22a28.36,28.36,0,0,0,4.23-.86Z"/></clipPath><clipPath id="clip-path-39" transform="translate(-431.09 -407.44)"><path class="cls-1" d="M893,541.72c6.09-1,11.54-10.51,18.15-16.95s16.73-12,21.14-6.58c16.47,20.26,21.6,44.45,20.56,70.19A312.42,312.42,0,0,1,948.43,629c-.81,4.69-.18,12.82-4.9,13.41-13.14,1.63-26.16-4.37-38.9-8-8.33-2.36-14.15-5.3-14.43-10.73s5-13.43,7.21-20.45c4-12.9-.54-9.56.66-12.67,1.88-4.86,5.82-18.15,5.82-18.15l-15.77,2.86a28.49,28.49,0,0,0,1.11-4.72s-2.75,3.2-4.12,3.19-11.72-3.36-11.72-3.36c2-4.24,4.33-4.5,7.78-8.25a30,30,0,0,0,2.72-4.75c.59-1.17,4.19-7.62,6.31-10.6Z"/></clipPath><clipPath id="clip-path-40" transform="translate(-431.09 -407.44)"><path class="cls-1" d="M888.32,576l16.34-3.81-16.34,42.17s-11.36,3.23-12.56,1.78c-.33-.4-23-2.18-29.18-4.53-1.34-.51-18.37,2-22.89,1.43-1.23-.16-9.3,5.08-9.83,4.49-.27-.3-5.29-4-3.33-6.52a9.24,9.24,0,0,1,5.7-3.76c2.88-.58,3.17.08,3.43,0s-5.23-.9-7.05-1.55c-.18-.07-1.94,2.2-3.12,2.73s-1.69-.73-1.77-.83,3.68-4.36,4.14-4.41a56.12,56.12,0,0,1,7,.94c3.09.52,6.82,2.42,7.2,2.38a143.88,143.88,0,0,1,14.65-.81c5.67,0,38.39-2.51,38.39-2.51Z"/></clipPath><clipPath id="clip-path-41" transform="translate(-431.09 -407.44)"><path class="cls-1" d="M892.52,584.18c16.63-19.43,1,16.62.44-.4"/></clipPath><clipPath id="clip-path-42" transform="translate(-431.09 -407.44)"><path class="cls-1" d="M883.06,598.37c16.63-19.43,1,16.62.44-.4"/></clipPath><clipPath id="clip-path-43" transform="translate(-431.09 -407.44)"><path class="cls-1" d="M872.16,571.66l10.46,2.77L858,596.48s-49.73-3-54.25-3.55c-.6-.08-1.84,1.85-4.16,3.27s-5.87,2.45-6.14,2.15-4.31-2-2.35-4.51c1.22-1.55,1.56-2.7,4.44-3.28s-9.45-1.49-6.33-3.38c.74-.44,5.12.73,10.38.81s49.39,1.27,49.39,1.27Z"/></clipPath><clipPath id="clip-path-44" transform="translate(-431.09 -407.44)"><path class="cls-1" d="M861,584.18c16.63-19.43,1,16.62.44-.4"/></clipPath><clipPath id="clip-path-45" transform="translate(-431.09 -407.44)"><path class="cls-1" d="M839.49,593.36c2.61,0,4.73-.35,4.73-.79s-1.37-1.66-4-1.66c-.8,0-3.47-.06-4.13,0s-1.35,1.36-1.35,1.66S836.88,593.36,839.49,593.36Z"/></clipPath><clipPath id="clip-path-46" transform="translate(-431.09 -407.44)"><path class="cls-1" d="M863.12,610.71c2.61,0,4.73-.35,4.73-.79s-1.37-1.66-4-1.66c-.8,0-3.47-.06-4.13,0s-1.35,1.36-1.35,1.66S860.51,610.71,863.12,610.71Z"/></clipPath><clipPath id="clip-path-47" transform="translate(-431.09 -407.44)"><path class="cls-1" d="M883.83,615.42c2.56-.5,4.57-1.25,4.49-1.68s-1.66-1.37-4.22-.87c-.78.15-3.42.61-4.05.79s-1.06,1.59-1,1.89S881.27,615.92,883.83,615.42Z"/></clipPath><clipPath id="clip-path-48" transform="translate(-431.09 -407.44)"><path class="cls-1" d="M836.34,609.13c2.61,0,4.73-.35,4.73-.79s-1.37-1.66-4-1.66c-.8,0-3.47-.06-4.13,0s-1.35,1.36-1.35,1.66S833.73,609.13,836.34,609.13Z"/></clipPath><clipPath id="clip-path-49" transform="translate(-431.09 -407.44)"><path class="cls-1" d="M808,589.42c2.61,0,4.73.44,4.73,0s-1-1.29-3.61-1.29c-.8,0-3.53-.06-4.19,0a2.52,2.52,0,0,0-1.65,1.29C803.26,589.85,805.38,589.42,808,589.42Z"/></clipPath><clipPath id="clip-path-50" transform="translate(-431.09 -407.44)"><path class="cls-1" d="M823.22,716.22c-6.59,11.76-12.82,10.08-18.89,10.54s-7.54,3.86-6.6,5c5.1,6.46,24.91,3.89,34.71-1.56,6.11-3.4.07-9.87.62-12.05.31-1.25-3.5-.3-6.18-1.15Z"/></clipPath><clipPath id="clip-path-51" transform="translate(-431.09 -407.44)"><path class="cls-1" d="M815.86,606.77c2.61,0,4.73.44,4.73,0s-1-1.29-3.61-1.29c-.8,0-3.53-.06-4.19,0a2.52,2.52,0,0,0-1.65,1.29C811.14,607.2,813.25,606.77,815.86,606.77Z"/></clipPath><clipPath id="clip-path-52" transform="translate(-431.09 -407.44)"><polygon class="cls-1" points="830.04 710.09 839.94 708.09 842.64 729.02 832.63 728 830.04 710.09"/></clipPath><clipPath id="clip-path-53" transform="translate(-431.09 -407.44)"><path class="cls-1" d="M832.67,727.27c-6.59,11.76-12.82,10.08-18.89,10.54s-7.54,3.86-6.6,5c5.1,6.46,24.91,3.89,34.71-1.56,6.11-3.4.07-9.87.62-12.05.31-1.25-3.5-.3-6.18-1.15Z"/></clipPath><clipPath id="clip-path-54" transform="translate(-431.09 -407.44)"><path class="cls-1" d="M945.33,650.68c3.92-2.63,10.44-2.9,12.52-5.13s-.81-19.81,3.41-38c.43-1.84,1-3.78,1.63-5.85.83-2.54,7,.33,7.45,3,.32,2-2.92,3.21-4.28,7.19s.33,6.34,0,8.8c-.62,4.62-1,28.47-5.64,31.11s-5,1.91-8.89,2.39"/></clipPath><clipPath id="clip-path-55" transform="translate(-431.09 -407.44)"><path class="cls-1" d="M958.25,606.05c8.06,4.19,12.4-1,19.09-2.89,1.23-.36,2.91-1.55,2.65-2.81-1.78-8.6-7.66-16.22-8.4-25-1.11-13.07,12.33-28.68,1.25-41.71-16-18.79-21.08,10.94-20.11,20.45,1,9.26,3.05,11,3.41,16.83.15,2.48-3.67,11.42-4.75,16.74S953.63,603.65,958.25,606.05Z"/></clipPath><clipPath id="clip-path-56" transform="translate(-431.09 -407.44)"><path class="cls-1" d="M915.29,660.7c10.2.82,20.38,2.79,30.61,2.47s2-12.36-2.11-13.58c-11.37-3.38-18.38,5-27.08,10.58Z"/></clipPath><clipPath id="clip-path-57" transform="translate(-431.09 -407.44)"><path class="cls-1" d="M955,573c1.93,7.94,4.46,15.77,5.78,23.83,3.7,22.64-15.49,4.37-7.18-22.78"/></clipPath><clipPath id="clip-path-58" transform="translate(-431.09 -407.44)"><path class="cls-1" d="M832.66,719.84c16.63-19.43,1,16.62.44-.4"/></clipPath><clipPath id="clip-path-59" transform="translate(-431.09 -407.44)"><path class="cls-1" d="M824.83,713.65c-4.7-17,9.87,5.85-.06-.41"/></clipPath><clipPath id="clip-path-60" transform="translate(-431.09 -407.44)"><ellipse class="cls-2" cx="956.06" cy="751.9" rx="4.73" ry="5.52"/></clipPath><clipPath id="clip-path-61" transform="translate(-431.09 -407.44)"><ellipse class="cls-2" cx="896.2" cy="725.08" rx="3.15" ry="3.94"/></clipPath><clipPath id="clip-path-62" transform="translate(-431.09 -407.44)"><ellipse class="cls-2" cx="938.73" cy="725.08" rx="3.15" ry="3.94"/></clipPath><clipPath id="clip-path-63" transform="translate(-431.09 -407.44)"><ellipse class="cls-2" cx="882.81" cy="753.47" rx="3.94" ry="5.52"/></clipPath><clipPath id="clip-path-64" transform="translate(-431.09 -407.44)"><rect class="cls-2" x="960.78" y="680.12" width="11.03" height="4.73"/></clipPath><clipPath id="clip-path-65" transform="translate(-431.09 -407.44)"><rect class="cls-2" x="718.2" y="624.91" width="108.69" height="7.89"/></clipPath><clipPath id="clip-path-67" transform="translate(-431.09 -407.44)"><rect class="cls-2" x="722.92" y="631.22" width="7.88" height="118.31"/></clipPath><clipPath id="clip-path-69" transform="translate(-431.09 -407.44)"><rect class="cls-2" x="812.71" y="631.22" width="7.88" height="118.31"/></clipPath><clipPath id="clip-path-71" transform="translate(-431.09 -407.44)"><rect class="cls-2" x="733.95" y="631.22" width="7.88" height="94.65"/></clipPath><clipPath id="clip-path-73" transform="translate(-431.09 -407.44)"><path class="cls-1" d="M731.27,573.09c3.76,9,9.56,17.2,12.23,23.5s5.88,11.26,8,15.21a62,62,0,0,0,7.41,10.2c.77.72,8.84-.62,19.7,0,14.43.83,25.22.13,26.59.63s1.72,2.6.53,2.7c-7.65.69-19.66-.23-27.63,0-4.46.13-9.58-.57-13.7,0-2.92.41-7.64-.06-8.46-.58-.25-.16-27.89-43-27.3-50.52Z"/></clipPath><clipPath id="clip-path-74" transform="translate(-431.09 -407.44)"><rect class="cls-2" x="763.88" y="620.18" width="3.15" height="1.58"/></clipPath><clipPath id="clip-path-75" transform="translate(-431.09 -407.44)"><rect class="cls-2" x="768.61" y="620.18" width="3.15" height="1.58"/></clipPath><clipPath id="clip-path-76" transform="translate(-431.09 -407.44)"><rect class="cls-2" x="773.33" y="620.18" width="3.15" height="1.58"/></clipPath><clipPath id="clip-path-77" transform="translate(-431.09 -407.44)"><rect class="cls-2" x="778.06" y="620.18" width="3.15" height="1.58"/></clipPath><clipPath id="clip-path-78" transform="translate(-431.09 -407.44)"><rect class="cls-2" x="782.78" y="620.18" width="3.15" height="1.58"/></clipPath><clipPath id="clip-path-79" transform="translate(-431.09 -407.44)"><rect class="cls-2" x="787.51" y="620.18" width="3.15" height="1.58"/></clipPath><clipPath id="clip-path-80" transform="translate(-431.09 -407.44)"><rect class="cls-2" x="792.23" y="620.18" width="3.15" height="1.58"/></clipPath></defs><title>login-three</title><g class="cls-3"><rect class="cls-4" y="313.18" width="202.43" height="45.65"/></g><g class="cls-5"><rect class="cls-6" x="58.82" y="297.97" width="43.69" height="29.51"/></g><g class="cls-7"><rect class="cls-8" x="58.44" y="315.85" width="61.4" height="19.09"/></g><g class="cls-9"><rect class="cls-6" x="129.67" y="23.55" width="57.66" height="103.78"/></g><path class="cls-10" d="M572.67,511.58c1.65,6.59,6.44,5.85,9.71,11.81,7.16,13.05,28.14,4.55,30.52-11.81a51.51,51.51,0,0,0-3-26.12c-6.49-16.26-25.25-17.87-32.27-33.91S567.93,441,565.77,436" transform="translate(-431.09 -407.44)"/><g class="cls-11"><rect class="cls-12" x="490.8" y="632.11" width="39.85" height="87.67" transform="translate(-454.37 -389.21) rotate(-2)"/></g><g class="cls-13"><rect class="cls-6" x="44.56" y="312.23" width="43.69" height="29.51"/></g><g class="cls-14"><rect class="cls-12" x="467.46" y="608.25" width="68.07" height="127.46" transform="translate(-454.24 -389.53) rotate(-2)"/></g><path class="cls-15" d="M473.87,614.18c-.76,11-2.38,22-2.29,33.13s13.42,15.38,14.5,29c1.26,16-1.53,32.38,1.36,48.1.58,3.14,4.69,3.59,7.47,4,4.86.75,13.51,4.69,15.24-.53,5.3-16-.06-34.5,2.15-51.48,2.35-18,6-16.66,12.08-33.41.84-2.29,7-12,3.81-15.15s-17.61-1.16-25.72-2.4c-8.7-1.34-17-5.08-25.5-7.62Z" transform="translate(-431.09 -407.44)"/><path class="cls-15" d="M509.52,714.52c4.44-.38,8.83,2.56,10.25-1.67,3.86-11.46-3.91-24.62-.72-36.29,3.8-13.92,5.26-33.35,6.53-37.89" transform="translate(-431.09 -407.44)"/><g class="cls-16"><rect class="cls-17" x="82.57" y="99.45" width="64.56" height="92.46"/></g><path class="cls-18" d="M537,529.71c4-31.95-21.55-16.2-18,10.21,1.19,8.87,9.09,15.72,13.31,22.73,6,10,9.08,22,16.93,30.56,3.49,3.82,8.75-2.78,14.24-7.72s9.59-5.6,9.71-10c.08-3.23.22-5.62-2.9-4.77-5.33,1.45-16.43,21.54-25.43-3.91-3.66-10.36-4.88-21.43-7.32-32.14Z" transform="translate(-431.09 -407.44)"/><path class="cls-15" d="M476.62,632.17c0,.88,2.6,23.69-4.59,12.64" transform="translate(-431.09 -407.44)"/><g class="cls-19"><rect class="cls-17" x="34.18" y="86.18" width="75.79" height="141.94"/></g><path class="cls-18" d="M472.28,618.66c.32-14.53-4.67-44.77,0-58.64,4-11.91,11.74-22.26,16.61-33.85,7.39-17.6,24.06-23.69,29.11-26.35s8.67-.88,15.5,4.86c0,0,3.83,12.25,2.13,17.59-5.25,16.5-11.54,41.08-12.75,58.06-1.11,15.53,7.26,40.66,7.26,44.55,0,8.6-30.41,6.46-44.28,0Z" transform="translate(-431.09 -407.44)"/><g class="cls-20"><rect class="cls-17" x="68.32" y="102.3" width="76" height="105.03"/></g><path class="cls-18" d="M525.66,535.38c4.68-37-25-18.76-20.86,11.83,1.38,10.27,10.53,18.2,15.42,26.32,7,11.55,10.52,25.43,19.61,35.4,2.53,2.78,6.05-1.89,10.74-4.42s19.58-12.22,19.77-19.73c.09-3.74.56-5.89-3-4.91-6.18,1.68-22.12,27.9-32.54-1.57-4.24-12-5.65-24.82-8.48-37.22Z" transform="translate(-431.09 -407.44)"/><path class="cls-18" d="M544,591.09c.18,1.48-1.25,2.93-1.06,4.4s2,3.44,2.26,5.15" transform="translate(-431.09 -407.44)"/><path class="cls-18" d="M538.53,606.2c6.34-1.89,3.52-2.58,8.55.73" transform="translate(-431.09 -407.44)"/><g class="cls-21"><rect class="cls-22" x="127.58" y="159.3" width="27.8" height="27.36"/></g><g class="cls-23"><rect class="cls-22" x="133.28" y="155.03" width="26.95" height="27.36"/></g><g class="cls-24"><rect class="cls-25" x="130.43" y="146.08" width="31.1" height="30.27"/></g><path class="cls-10" d="M568,578.78c.6-.08,8.95-8.49,10.09-9.57,5-4.73,5.82-4.15,9.39-8.45.8-1-1.44-2.25-1.44-2.25s-6.46,5.58-9.91,8.69-6.33,6.41-9.57,9.19C566.53,576.4,566.73,578.94,568,578.78Z" transform="translate(-431.09 -407.44)"/><line class="cls-26" x1="117.56" y1="158.98" x2="114.44" y2="160.44"/><path class="cls-27" d="M575.54,526.9c-2.8-6.32-4.77-1.76-7.16-2.64" transform="translate(-431.09 -407.44)"/><path class="cls-28" d="M574.49,512.67c-4.87-4.89-5.09.07-7.63.1" transform="translate(-431.09 -407.44)"/><path class="cls-27" d="M573.07,504.92c-5.58-4.07-5,.86-7.52,1.29" transform="translate(-431.09 -407.44)"/><path class="cls-27" d="M573.05,495.7c-4.7-5.06-5.09-.11-7.63-.16" transform="translate(-431.09 -407.44)"/><path class="cls-27" d="M575.54,532.61c-2.8-6.32-4.77-1.76-7.16-2.64" transform="translate(-431.09 -407.44)"/><path class="cls-27" d="M573.46,540.71c-.83-6.86-4.05-3.08-6.08-4.62" transform="translate(-431.09 -407.44)"/><path class="cls-27" d="M570.61,547.84c-.83-6.86-4.05-3.08-6.08-4.62" transform="translate(-431.09 -407.44)"/><path class="cls-27" d="M567.76,553.55c-.64-5.27-3.11-2.36-4.67-3.55" transform="translate(-431.09 -407.44)"/><line class="cls-18" x1="102.62" y1="96.45" x2="82.54" y2="94.88"/><g class="cls-29"><rect class="cls-6" x="471.7" y="448.57" width="147.51" height="109.83" transform="translate(-616 228.66) rotate(-53)"/></g><g class="cls-30"><rect class="cls-8" x="555.88" y="473.22" width="12.85" height="12.85" transform="translate(-462.63 512.2) rotate(-77)"/></g><circle class="cls-10" cx="562.3" cy="479.65" r="1.43" transform="translate(-462.64 512.2) rotate(-77)"/><g class="cls-31"><rect class="cls-8" x="564.53" y="473.75" width="12.85" height="12.85" transform="translate(-456.45 521.05) rotate(-77)"/></g><circle class="cls-10" cx="570.96" cy="480.18" r="1.43" transform="translate(-456.45 521.05) rotate(-77)"/><path class="cls-32" d="M552.93,509.57s-3-6.33-5.41-8.41-8.61-3.9-8.61-3.9" transform="translate(-431.09 -407.44)"/><g class="cls-33"><rect class="cls-6" x="441.76" y="429.37" width="113.08" height="85.58" transform="translate(-504.94 444.03) rotate(-77)"/></g><path class="cls-10" d="M543,446.55c-23,26.94-7.39,47.19-27.35,68.42-29.44,31.33-89.28-30.24-40.25-52.43,19.19-8.69,44.45-26.37,64.18-33.75" transform="translate(-431.09 -407.44)"/><path class="cls-10" d="M557.63,476.18c1-.29,2.41-3.16,4.41-3s3.64,3.26,5.37,3,3.44-3,4.81-2.83,2.83,3.5,3.78,3.42" transform="translate(-431.09 -407.44)"/><path class="cls-34" d="M520.87,464.87c-3.11,12.69-13.85,73.58-45.79,43.93" transform="translate(-431.09 -407.44)"/><path class="cls-34" d="M536.54,494.63c3.16,3.76,3,1.77-.23,6" transform="translate(-431.09 -407.44)"/><path class="cls-10" d="M551.16,428.18c15.25.46,7.91-2.06,21,10.1" transform="translate(-431.09 -407.44)"/><path class="cls-10" d="M537.74,559.26c10.42,14.11,6-1.88.39-.08Z" transform="translate(-431.09 -407.44)"/><path class="cls-35" d="M539.63,571.73c.19.9-.83,2.44-.64,3.34s1.55.95,1.72,1.74" transform="translate(-431.09 -407.44)"/><path class="cls-35" d="M575.39,499.19c-7.95-3-4.45-3.3-10.51-1.06" transform="translate(-431.09 -407.44)"/><path class="cls-35" d="M575.39,509.17c-7.95-3-4.45-3.3-10.51-1.06" transform="translate(-431.09 -407.44)"/><path class="cls-35" d="M575.39,517.73c-7.95-3-4.45-3.3-10.51-1.06" transform="translate(-431.09 -407.44)"/><path class="cls-35" d="M576.81,532c-7.95-3-4.45-3.3-10.51-1.06" transform="translate(-431.09 -407.44)"/><path class="cls-35" d="M565.45,558.8c-4.32-5.41-1.72-4.18-6.91-5.16" transform="translate(-431.09 -407.44)"/><path class="cls-35" d="M555.47,570.21c-4.32-5.41-1.72-4.18-6.91-5.16" transform="translate(-431.09 -407.44)"/><path class="cls-10" d="M572.63,452c10.58,8.29,5.25,35.65,2.48,46.86" transform="translate(-431.09 -407.44)"/><path class="cls-10" d="M575.24,498.85c.32,28.46,5.11,36.76-8.63,59.93-9.2,15.51-46.34,44.9-28.87.24" transform="translate(-431.09 -407.44)"/><path class="cls-10" d="M589.37,480.94c14,7,26.35,34.07.89,31.66" transform="translate(-431.09 -407.44)"/><path class="cls-10" d="M556.07,504.74c.81,2.12,4.88,1.85,5.69,4s2.22,10.24,3.07,12.44" transform="translate(-431.09 -407.44)"/><path class="cls-10" d="M525.21,508.57c3.55.43,7.3,3.29,10.85,3.72s8.75-1.7,12.43-1.25" transform="translate(-431.09 -407.44)"/><path class="cls-10" d="M575,573.85c4.63,17.39,13.13,5.93.55,0" transform="translate(-431.09 -407.44)"/><path class="cls-10" d="M579.26,569.25c4.24,15.29,12,5.21.51,0" transform="translate(-431.09 -407.44)"/><g class="cls-36"><rect class="cls-8" x="44.05" y="330.11" width="65.73" height="22.3"/></g><path class="cls-10" d="M523.19,746.17c-1.27-7.5-5.1,0,2-5" transform="translate(-431.09 -407.44)"/><path class="cls-10" d="M534.6,731.91c-1.27-7.5-5.1,0,2-5" transform="translate(-431.09 -407.44)"/><g class="cls-37"><rect class="cls-4" x="239.52" y="307.12" width="364.37" height="70.62"/></g><g class="cls-38"><rect class="cls-39" x="370.59" y="223.78" width="7.88" height="94.65"/></g><g class="cls-38"><rect class="cls-40" x="370.59" y="223.78" width="7.88" height="94.65"/></g><g class="cls-41"><rect class="cls-39" x="477.43" y="259.79" width="19.45" height="49.44"/></g><g class="cls-42"><rect class="cls-39" x="475.86" y="299.23" width="22.6" height="24.2"/></g><g class="cls-43"><rect class="cls-39" x="435.46" y="236.83" width="90.21" height="35.48"/></g><path class="cls-18" d="M880,672.92c4.73.12,68.39,10,71.72-17.63.77-6.37-14.55-6.09-15.27-6-21.45,3.41-43.53,5.17-63.89,12.71-3.23,1.2,2,7,4.69,9.21A7.74,7.74,0,0,0,880,672.92Z" transform="translate(-431.09 -407.44)"/><g class="cls-44"><rect class="cls-45" x="809.38" y="428.99" width="116.9" height="135.21" transform="translate(-525.45 -182.74) rotate(-14)"/></g><line class="cls-46" x1="397.53" y1="36.58" x2="397.54" y2="17.07"/><g class="cls-47"><rect class="cls-45" x="819.91" y="417.31" width="16.3" height="16.31" transform="translate(-509.43 -194.48) rotate(-14)"/></g><ellipse class="cls-48" cx="828.06" cy="425.46" rx="3.15" ry="3.15" transform="translate(-509.43 -194.48) rotate(-14)"/><line class="cls-46" x1="389.99" y1="37.66" x2="376.2" y2="23.86"/><g class="cls-49"><rect class="cls-45" x="799.41" y="424.23" width="16.3" height="16.31" transform="translate(-410.08 494.46) rotate(-59)"/></g><ellipse class="cls-48" cx="807.56" cy="432.38" rx="3.15" ry="3.15" transform="translate(-410.08 494.46) rotate(-59)"/><g class="cls-50"><rect class="cls-45" x="835.48" y="440.57" width="34.61" height="19.73" transform="translate(-514.73 -187.75) rotate(-14)"/></g><path class="cls-51" d="M852.39,447.45c7.93-1.92,15.25,3.77,4.08,4.87" transform="translate(-431.09 -407.44)"/><path class="cls-35" d="M819.31,521s-.26-.46,1.94-.48,4.85,2.25,4.85,2.25A40.75,40.75,0,0,1,845,496.5" transform="translate(-431.09 -407.44)"/><g class="cls-52"><rect class="cls-8" x="818.24" y="465.39" width="11.58" height="11.58" transform="translate(-520.61 -194.09) rotate(-14)"/></g><circle class="cls-10" cx="824.03" cy="471.18" r="0.79" transform="translate(-520.6 -194.1) rotate(-14)"/><g class="cls-53"><rect class="cls-8" x="812.13" y="466.91" width="11.58" height="11.58" transform="translate(-521.16 -195.53) rotate(-14)"/></g><circle class="cls-10" cx="817.92" cy="472.7" r="0.79" transform="translate(-521.15 -195.53) rotate(-14)"/><path class="cls-35" d="M844.14,492.15c.44,1-.77,4-.33,5s2.63.48,3.13,1.66" transform="translate(-431.09 -407.44)"/><path class="cls-35" d="M825.79,522.08c-5.84-11.13-3.87-4.3.4-16" transform="translate(-431.09 -407.44)"/><path class="cls-35" d="M821.42,514.61c-.94-.65-1.24-.13-2.18-.78" transform="translate(-431.09 -407.44)"/><path class="cls-35" d="M812.08,470c3.47-3.13,5.9-.85,6.81-1.7s.69-4.83,5.75-5.92" transform="translate(-431.09 -407.44)"/><g class="cls-54"><rect class="cls-45" x="798.99" y="434.59" width="25.23" height="22.13" transform="translate(-514.8 -197.86) rotate(-14)"/></g><path class="cls-48" d="M818.16,448.66c-8.91-3.5,10.63,2.05-2.36,1.25s-6,.57-9,.15c-3.94-.55-4.26-10.62.84-9.22,2.3.63,6.52,6.1,8.8,6.81" transform="translate(-431.09 -407.44)"/><g class="cls-55"><rect class="cls-8" x="891.59" y="495.21" width="21.5" height="25.18" transform="translate(-527.14 -174.06) rotate(-14)"/></g><g class="cls-56"><rect class="cls-8" x="915.15" y="501.06" width="17.11" height="24.36" transform="translate(-527.82 -168.73) rotate(-14)"/></g><g class="cls-57"><rect class="cls-8" x="889.27" y="515.6" width="17.8" height="29.21" transform="translate(-532.68 -174.41) rotate(-14)"/></g><g class="cls-58"><rect class="cls-8" x="846.51" y="470.68" width="21.5" height="25.18" transform="translate(-412.12 591.31) rotate(-61)"/></g><g class="cls-59"><rect class="cls-8" x="872.49" y="470.7" width="21.5" height="25.18" transform="translate(-518.93 341.75) rotate(-44)"/></g><path class="cls-35" d="M808.28,450.3c-5.33-2.36-2.58-9.44,4-4.82" transform="translate(-431.09 -407.44)"/><g class="cls-60"><rect class="cls-45" x="386.07" y="289.34" width="22.6" height="30.94"/></g><g class="cls-61"><rect class="cls-8" x="364.23" y="213.09" width="148.73" height="97.35"/></g><g class="cls-62"><rect class="cls-17" x="437.29" y="103.55" width="89.63" height="136.71"/></g><path class="cls-18" d="M926.64,523s-9.2,0-13.32,2-9.93,9.27-9.93,9.27L888.7,574.87c26.37-5.47,15.84,2.07,26-28.88" transform="translate(-431.09 -407.44)"/><path class="cls-18" d="M906.24,552.19c11.2,1.62,6.47,2.46,14.4-.42" transform="translate(-431.09 -407.44)"/><path class="cls-18" d="M914.37,566.37c8.71,6.41,3.7,4.37,15.25,5.51" transform="translate(-431.09 -407.44)"/><g class="cls-63"><rect class="cls-45" x="371.63" y="159.75" width="106.94" height="55.39"/></g><g class="cls-64"><rect class="cls-8" x="456.42" y="165.81" width="17.63" height="20.24"/></g><g class="cls-65"><rect class="cls-8" x="446.97" y="180.01" width="17.63" height="20.24"/></g><g class="cls-66"><rect class="cls-45" x="352.57" y="159.22" width="103.96" height="36.74"/></g><path class="cls-18" d="M898.35,591.9c2.85,14.17-11.33,28.41-7.4,34.23,8.62,12.77,42.42,14,51.45,15.45" transform="translate(-431.09 -407.44)"/><path class="cls-18" d="M946.82,636c8.37-30.54,13-102.64-20.92-121.43" transform="translate(-431.09 -407.44)"/><path class="cls-18" d="M891.23,544.83c-7.11,13.09-9.28,13.84-2.27,26" transform="translate(-431.09 -407.44)"/><path class="cls-18" d="M885.81,573.49c-19.19-1.53-15-1.41-7.15-9.25s7.58-12.41,13.15-20.34l1-2.14,5-2.5" transform="translate(-431.09 -407.44)"/><path class="cls-18" d="M888.82,635.13c-27.59,1.41,18.71-1.63-43.62,10-26,4.87-35.87-3.25-26.86,24.39s3.82,24.83,10.2,38.32c1.86,3.93,7.88,3.67,11.82,5.5" transform="translate(-431.09 -407.44)"/><path class="cls-18" d="M830.85,700c12.37-1.54,8.84-4.13,9.4,9.17" transform="translate(-431.09 -407.44)"/><path class="cls-18" d="M939.75,644.54c-19.59,27.9-75.32,21.43-99.19,23.78" transform="translate(-431.09 -407.44)"/><path class="cls-18" d="M837.63,655.06c1,5.69,3.27,6.5,2.72,12.26-2.12,22.09-6.84-26.75-4.95,2,.73,11,.8,15.87,2.57,26.78" transform="translate(-431.09 -407.44)"/><path class="cls-18" d="M889.28,646c4.1-1.43,8.25-2.74,12.3-4.29l10.5,1c1.59-.61-1-3.88.22-5.1" transform="translate(-431.09 -407.44)"/><path class="cls-18" d="M888.65,626.73c-3.62.45-7.39.22-10.87,1.34-5.8,1.87-10.69,6.3-16.66,7.54-11.78,2.45-24,1.7-35.94,3.38-7.33,1-15.89.17-21.69,4.77s9.17,38.81,11.19,48.44a19.93,19.93,0,0,0,9.73,12.61" transform="translate(-431.09 -407.44)"/><g class="cls-67"><rect class="cls-8" x="424.92" y="165.81" width="17.63" height="20.24"/></g><g class="cls-68"><rect class="cls-8" x="398.67" y="178.44" width="19.45" height="12.48"/></g><g class="cls-69"><rect class="cls-8" x="422.3" y="195.79" width="19.45" height="12.48"/></g><g class="cls-70"><rect class="cls-8" x="873.87" y="607.97" width="19.45" height="12.48" transform="translate(-532.06 -227.56) rotate(-11)"/></g><g class="cls-71"><rect class="cls-8" x="395.52" y="194.21" width="19.45" height="12.48"/></g><g class="cls-72"><rect class="cls-8" x="367.17" y="175.65" width="19.45" height="11.51"/></g><g class="cls-73"><rect class="cls-8" x="800.05" y="703.22" width="33.88" height="45.6" transform="translate(-516.21 935.66) rotate(-76)"/></g><g class="cls-74"><rect class="cls-8" x="375.04" y="193.01" width="19.45" height="11.51"/></g><path class="cls-35" d="M816.88,610.08c-7.64,5-.64,4.27,5.49,2.11" transform="translate(-431.09 -407.44)"/><path class="cls-35" d="M800.89,592.5c-4.24,3.53-1.85,2.89-7,2.25" transform="translate(-431.09 -407.44)"/><g class="cls-75"><rect class="cls-45" x="393.94" y="295.65" width="22.6" height="30.94"/></g><g class="cls-76"><rect class="cls-8" x="809.5" y="714.26" width="33.88" height="45.6" transform="translate(-519.76 953.2) rotate(-76)"/></g><g class="cls-77"><rect class="cls-39" x="509.23" y="188.25" width="35.04" height="63.45"/></g><path class="cls-18" d="M945.33,650.68c3.92-2.63,10.44-2.9,12.52-5.13s-.81-19.81,3.41-38c.43-1.84,1-3.78,1.63-5.85.83-2.54,7,.33,7.45,3,.32,2-2.92,3.21-4.28,7.19s.33,6.34,0,8.8c-.62,4.62-1,28.47-5.64,31.11s-5,1.91-8.89,2.39" transform="translate(-431.09 -407.44)"/><g class="cls-78"><rect class="cls-39" x="515.09" y="115.13" width="38.83" height="90.08"/></g><path class="cls-18" d="M958.25,606.05c8.06,4.19,12.4-1,19.09-2.89,1.23-.36,2.91-1.55,2.65-2.81-1.78-8.6-7.66-16.22-8.4-25-1.11-13.07,12.33-28.68,1.25-41.71-16-18.79-21.08,10.94-20.11,20.45,1,9.26,3.05,11,3.41,16.83.15,2.48-3.67,11.42-4.75,16.74S953.63,603.65,958.25,606.05Z" transform="translate(-431.09 -407.44)"/><g class="cls-79"><rect class="cls-25" x="479.2" y="236.37" width="45.55" height="24.4"/></g><g class="cls-80"><rect class="cls-25" x="515.4" y="160.51" width="19.77" height="44.05"/></g><path class="cls-18" d="M922.29,679.1v31.44c0,.84-3.74,1-4.62.84s-2,.3-2.25,0c-1.1-1.39-1.26-8.71-1.12-15.41" transform="translate(-431.09 -407.44)"/><g class="cls-81"><rect class="cls-8" x="396.56" y="301.47" width="17.63" height="20.24"/></g><g class="cls-82"><rect class="cls-8" x="818.2" y="702.63" width="15.26" height="17.06" transform="translate(-656.64 590.69) rotate(-56)"/></g><path class="cls-18" d="M921.71,723.75c17.06,6.29,30.68,9.64,41.46,24.66" transform="translate(-431.09 -407.44)"/><path class="cls-18" d="M913.2,724.36c-16.34,3.64-28.29,12.47-37,26.49" transform="translate(-431.09 -407.44)"/><path class="cls-18" d="M924.05,720.38c2.81,0,5.83-2,8.64-2s6.2,0,8.64,1.9" transform="translate(-431.09 -407.44)"/><path class="cls-18" d="M912.7,721.06c-11.15-3.5-10.68-5.3-20.33-.61" transform="translate(-431.09 -407.44)"/><path class="cls-18" d="M919.39,712.23c1.67,0,2.92.69,4,.69.61,0,.79,4.7.38,7-.11.64.78,3.67-.38,5a7.42,7.42,0,0,1-4.13,1.63,58.86,58.86,0,0,1-6.89-.77s-.28-3.31-.65-7.71" transform="translate(-431.09 -407.44)"/><g class="cls-83"><rect class="cls-84" x="515.24" y="333.94" width="19.45" height="21.04"/></g><ellipse class="cls-18" cx="524.96" cy="344.46" rx="4.73" ry="5.52"/><g class="cls-85"><rect class="cls-84" x="456.95" y="308.7" width="16.3" height="17.89"/></g><ellipse class="cls-18" cx="465.1" cy="317.64" rx="3.15" ry="3.94"/><g class="cls-86"><rect class="cls-84" x="499.49" y="308.7" width="16.3" height="17.89"/></g><ellipse class="cls-18" cx="507.64" cy="317.64" rx="3.15" ry="3.94"/><g class="cls-87"><rect class="cls-84" x="442.78" y="335.51" width="17.88" height="21.04"/></g><ellipse class="cls-18" cx="451.71" cy="346.03" rx="3.94" ry="5.52"/><path class="cls-18" d="M941.46,669.21c0,16.2-2.93,8.37,21.12,13.48" transform="translate(-431.09 -407.44)"/><g class="cls-88"><rect class="cls-25" x="524.69" y="267.68" width="21.03" height="14.73"/></g><path class="cls-18" d="M955,761.73l16.6.74" transform="translate(-431.09 -407.44)"/><path class="cls-18" d="M887.26,757.57l10.51.47" transform="translate(-431.09 -407.44)"/><polyline class="cls-18" points="537.6 350.64 540.36 350.64 543.29 350.64 543.35 350.64 543.41 350.64 543.47 350.64 543.53 350.64"/><g class="cls-89"><rect class="cls-39" x="287.1" y="217.47" width="108.69" height="7.89"/></g><g class="cls-89"><rect class="cls-40" x="287.1" y="217.47" width="108.69" height="7.89"/></g><g class="cls-90"><rect class="cls-39" x="291.83" y="223.78" width="7.88" height="118.31"/></g><g class="cls-90"><rect class="cls-40" x="291.83" y="223.78" width="7.88" height="118.31"/></g><g class="cls-91"><rect class="cls-39" x="381.62" y="223.78" width="7.88" height="118.31"/></g><g class="cls-91"><rect class="cls-40" x="381.62" y="223.78" width="7.88" height="118.31"/></g><g class="cls-92"><rect class="cls-39" x="302.86" y="223.78" width="7.88" height="94.65"/></g><g class="cls-92"><rect class="cls-40" x="302.86" y="223.78" width="7.88" height="94.65"/></g><g class="cls-93"><rect class="cls-25" x="292.51" y="160.65" width="87.82" height="62.51"/></g><path class="cls-10" d="M731.27,573.09c3.76,9,9.56,17.2,12.23,23.5s5.88,11.26,8,15.21a62,62,0,0,0,7.41,10.2c.77.72,8.84-.62,19.7,0,14.43.83,25.22.13,26.59.63s1.72,2.6.53,2.7c-7.65.69-19.66-.23-27.63,0-4.46.13-9.58-.57-13.7,0-2.92.41-7.64-.06-8.46-.58-.25-.16-27.89-43-27.3-50.52Z" transform="translate(-431.09 -407.44)"/><polyline class="cls-94" points="331.15 216.17 333.55 216.17 334.18 216.17"/><polyline class="cls-94" points="335.88 216.17 338.28 216.17 338.9 216.17"/><polyline class="cls-94" points="339.02 216.17 341.43 216.17 342.05 216.17"/><g class="cls-95"><rect class="cls-8" x="327.78" y="207.74" width="13.15" height="11.58"/></g><g class="cls-96"><rect class="cls-8" x="332.51" y="207.74" width="13.15" height="11.58"/></g><g class="cls-97"><rect class="cls-8" x="337.24" y="207.74" width="13.15" height="11.58"/></g><g class="cls-98"><rect class="cls-8" x="341.96" y="207.74" width="13.15" height="11.58"/></g><g class="cls-99"><rect class="cls-8" x="346.69" y="207.74" width="13.15" height="11.58"/></g><g class="cls-100"><rect class="cls-8" x="351.41" y="207.74" width="13.15" height="11.58"/></g><g class="cls-101"><rect class="cls-8" x="356.14" y="207.74" width="13.15" height="11.58"/></g><path class="cls-10" d="M763.46,623.78c-1.13,6-3.84,11.92-3.38,18,.8,10.55,6.44,20.39,7.07,31,1.33,22.41-10.13,83.84-47.88,71.72-10.39-3.34-1.79-10.28,3.68-10.28" transform="translate(-431.09 -407.44)"/></svg>