<svg id="Layer_1" data-name="Layer 1" xmlns="http://www.w3.org/2000/svg" xmlns:xlink="http://www.w3.org/1999/xlink" viewBox="0 0 369.8 367.33"><defs><style>.cls-1,.cls-14,.cls-18,.cls-19,.cls-2,.cls-22,.cls-7,.cls-9{fill:none;}.cls-2{clip-rule:evenodd;}.cls-3{clip-path:url(#clip-path);}.cls-4{fill:#d7a258;}.cls-5{clip-path:url(#clip-path-2);}.cls-6{fill:#fff;}.cls-18,.cls-19,.cls-7{stroke:#399dd7;}.cls-14,.cls-18,.cls-19,.cls-22,.cls-7,.cls-9{stroke-miterlimit:10;}.cls-14,.cls-22,.cls-7{stroke-width:2px;}.cls-8{clip-path:url(#clip-path-3);}.cls-14,.cls-22,.cls-9{stroke:#263445;}.cls-10{clip-path:url(#clip-path-4);}.cls-11{clip-path:url(#clip-path-5);}.cls-12{clip-path:url(#clip-path-6);}.cls-13{fill:#f6da91;}.cls-14{stroke-linecap:round;}.cls-15{clip-path:url(#clip-path-7);}.cls-16{fill:#263445;}.cls-17{clip-path:url(#clip-path-8);}.cls-19{stroke-linecap:square;}.cls-20{clip-path:url(#clip-path-9);}.cls-21{clip-path:url(#clip-path-10);}</style><clipPath id="clip-path" transform="translate(-337.63 -204.86)"><rect class="cls-1" x="483.17" y="368.06" width="46.39" height="26.19" transform="translate(-6.57 8.89) rotate(-1)"/></clipPath><clipPath id="clip-path-2" transform="translate(-337.63 -204.86)"><path class="cls-2" d="M499.57,393.74c16.47-6.82,16.12,0,11.54-21.05-.4-1.85-13.94-6-14.31-8.67-.4-3,2.63-96.95,11-112.23,2.92-5.34,10.95.17,16.75,2.58,13.47,5.6,28.59,12.8,27,19.65-6.72,28.13,13.9,39.06,41,41,15.08,1.07,34.76,4.89,49.73,6.93,8,1.09,19.62.52,26,5.13,4.14,3-9.47,51.6-8.05,81.86.48,10.3,3.1,16.36,3.37,31.79.12,6.69-101.55-7-114.71,7.28-2.2,2.39-.41,6.66,1.17,9.45,5.56,9.81,17.89,6.09,15.76,17.06-11.06,56.75-45.36,42-48.32,35.12S500.79,466,498.12,439.9Z"/></clipPath><clipPath id="clip-path-3" transform="translate(-337.63 -204.86)"><path class="cls-2" d="M398.23,416.31c-22.61,21.64-7.49,37.62,6.23,33.13s14.62-19,15.14-26.61"/></clipPath><clipPath id="clip-path-4" transform="translate(-337.63 -204.86)"><path class="cls-2" d="M397.15,354.16c-23.35-20.83-8.8-37.34,5.07-33.33s15.28,18.52,16.06,26.06"/></clipPath><clipPath id="clip-path-5" transform="translate(-337.63 -204.86)"><path class="cls-2" d="M494.1,382.46c-.58-33.15-22.78-59.64-49.59-59.17s-21.22,20.59-35.07,24.86-59.91-13.22-56.91,43.9c2.91,55.47,48.27,18,62.26,32.38s25.33,19,31.81,18.89C473.41,442.85,494.68,415.61,494.1,382.46Z"/></clipPath><clipPath id="clip-path-6" transform="translate(-337.63 -204.86)"><ellipse class="cls-1" cx="452.64" cy="382.09" rx="30.54" ry="43.65" transform="translate(-6.6 7.96) rotate(-1)"/></clipPath><clipPath id="clip-path-7" transform="translate(-337.63 -204.86)"><ellipse class="cls-1" cx="392.95" cy="377.15" rx="4.73" ry="2.45" transform="matrix(1, -0.02, 0.02, 1, -6.52, 6.91)"/></clipPath><clipPath id="clip-path-8" transform="translate(-337.63 -204.86)"><path class="cls-2" d="M699.2,382.69V314.34s-11.08-1.76-66.41-5c-44.28-2.61-87.16-23.41-131.32-26.85-4.35-.34-8.09,12.6-4.67,16.26,6.17,6.63,108.87,39.8,78.13,80.24-28.28,37.2-31.85,23.73-75.36,55.81-2.26,1.66-3.51,6-3.19,9.43.52,5.6,1.29,15.82,5.47,15.3,24-3,46.14-18.92,69.84-24.73,13.56-3.33,27.58-3.75,41.38-2.53,14.78,1.3,29.13,7.84,43.86,10,18.76,2.79,42.28-4.91,42.28-4.91Z"/></clipPath><clipPath id="clip-path-9" transform="translate(-337.63 -204.86)"><path class="cls-2" d="M542.32,269.53c34.51-73.93-47.6-70.63-114.58-28.5-14.36,9-45.92,138.07-45.52,138.13,6.4,1.08,20.14.42,26.67-.1,14.65-1.16,3.82-120.42,46.2-132.09s94.18-27.69,70.19,9.47Z"/></clipPath><clipPath id="clip-path-10" transform="translate(-337.63 -204.86)"><path class="cls-2" d="M551.2,499.15c5,21.59,3.23,18.53,6.47,40.16,3.51,23.44-12.09,21.5-31,26.51-18.18,4.82-67.85-16.5-68.87-16.91-16.58-6.7-32.83-15.16-36.66-24.75-12.58-31.49-13-21.2-20-54-6.37-29.93-9.92-46.31-7.25-74.54.15-1.57,2.92-10,6.44-11.37,11.48-4.6,14,11.92,14.35,15.61.94,11.37-.42,22.81.6,34.18,1.94,21.7,5.66,25,14.56,45.21,3.83,8.71,13.71,39.55,25,45.89,7.29,4.1,47.88,16.35,51.5,16.55,6.77.38,13.63.82,20.37.21a10.58,10.58,0,0,0,5.78-2.57c7.25-6.33,2.74-20,3.56-28C536.75,504.06,551.2,499.15,551.2,499.15Z"/></clipPath></defs><title>login-two</title><g class="cls-3"><rect class="cls-4" x="477.51" y="362.4" width="57.7" height="37.51" transform="translate(-344.2 -195.96) rotate(-1)"/></g><g class="cls-5"><rect class="cls-6" x="491.45" y="242.64" width="184.16" height="278.7" transform="translate(-344.21 -194.61) rotate(-1)"/></g><path class="cls-7" d="M500.35,429.36C516.1,504.54,507,535.58,553,496.3" transform="translate(-337.63 -204.86)"/><path class="cls-7" d="M497.34,355.06c15.15-87.43-19.73-135.95,51.42-82.81" transform="translate(-337.63 -204.86)"/><g class="cls-8"><rect class="cls-4" x="380.92" y="410.57" width="44.52" height="45.23" transform="translate(-345.13 -197.75) rotate(-1)"/></g><path class="cls-9" d="M398.23,416.31c-22.61,21.64-7.49,37.62,6.23,33.13s14.62-19,15.14-26.61" transform="translate(-337.63 -204.86)"/><path class="cls-9" d="M400.53,422.34c-8.81,10.29-9.77,16.19,2.93,22.14" transform="translate(-337.63 -204.86)"/><g class="cls-10"><rect class="cls-4" x="379.25" y="314.51" width="44.52" height="45.23" transform="translate(-343.45 -197.8) rotate(-1)"/></g><path class="cls-9" d="M397.15,354.16c-23.35-20.83-8.8-37.34,5.07-33.33s15.28,18.52,16.06,26.06" transform="translate(-337.63 -204.86)"/><g class="cls-11"><rect class="cls-4" x="346.67" y="318.01" width="153.09" height="131.36" transform="translate(-344.26 -197.41) rotate(-1)"/></g><g class="cls-12"><rect class="cls-13" x="416.45" y="332.78" width="72.39" height="98.62" transform="translate(-344.23 -196.9) rotate(-1)"/></g><path class="cls-14" d="M448.32,411.6c28.31-21.83,25.34-38.53-1-59.85" transform="translate(-337.63 -204.86)"/><path class="cls-9" d="M433.87,384.41c-12.07-5.52-9.45-.84-9-13.29" transform="translate(-337.63 -204.86)"/><path class="cls-9" d="M423.08,399.29c2.09-10.79-2.21-6.19,11.7-14" transform="translate(-337.63 -204.86)"/><g class="cls-15"><rect class="cls-16" x="382.56" y="369.05" width="20.78" height="16.2" transform="matrix(1, -0.02, 0.02, 1, -344.15, -197.94)"/></g><path class="cls-9" d="M399.24,348c-9.16-10-10.33-15.84,2.15-22.22" transform="translate(-337.63 -204.86)"/><path class="cls-9" d="M363,382.17c-10.64-.23-17,3.35-22-7.4-.56-1.19.77-4.73,1.52-3.64,6.58,9.57.45,8.07-4.82,8.6" transform="translate(-337.63 -204.86)"/><path class="cls-7" d="M552.9,370.78c-.16-7.46-6.4-17.82-.47-22.38,29-22.37,29,15.19,24.78,18.83-5.31,4.57-13.9,1.84-20.85,2.75" transform="translate(-337.63 -204.86)"/><g class="cls-17"><rect class="cls-16" x="489.39" y="275.13" width="216.41" height="188.35" transform="matrix(1, -0.02, 0.02, 1, -343.98, -194.37)"/></g><path class="cls-18" d="M699.2,382.69V314.34s-11.08-1.76-66.41-5c-44.28-2.61-87.16-23.41-131.32-26.85-4.35-.34-8.09,12.6-4.67,16.26,6.17,6.63,108.87,39.8,78.13,80.24-28.28,37.2-31.85,23.73-75.36,55.81-2.26,1.66-3.51,6-3.19,9.43.52,5.6,1.29,15.82,5.47,15.3,24-3,46.14-18.92,69.84-24.73,13.56-3.33,27.58-3.75,41.38-2.53,14.78,1.3,29.13,7.84,43.86,10,18.76,2.79,42.28-4.91,42.28-4.91Z" transform="translate(-337.63 -204.86)"/><line class="cls-19" x1="343.19" y1="146.78" x2="364.87" y2="135.49"/><path class="cls-18" d="M674.12,418.87c18.71,8.18,13.56,1.16,16.89,19.94" transform="translate(-337.63 -204.86)"/><g class="cls-20"><rect class="cls-4" x="375.11" y="206.43" width="181.99" height="177.7" transform="translate(-342.71 -196.68) rotate(-1)"/></g><path class="cls-18" d="M500.61,410.74c.08-21.07,21.59-23.38,4.79-41.82" transform="translate(-337.63 -204.86)"/><g class="cls-21"><rect class="cls-4" x="49.68" y="172.92" width="176.52" height="194.41"/></g><path class="cls-22" d="M397.9,480.42c-.08-8.24,1.19-16.6-.25-24.71-3.3-18.62-20.35-47.85-9.39-68.19.26-.48,1.51-.53,1.63,0l2.42,6.52c.89,4-.35,8.56,1.75,12,1.57,2.6-.49-6.13,0-9.13.34-2.08.86-4.44,2.44-5.84.79-.7,2.7,0,3,1,1.31,4.39-3.18,14,1.39,13.68,4.91-.35,1.72-10,4.41-14.1.78-1.19,2.33,2,2.58,3.38.73,4-2,8.74.25,12.12,1.2,1.82,2.65-4,4.78-4.47a5.74,5.74,0,0,1,5.26,2.28,5.22,5.22,0,0,1,.59,5.35c-6.89,11.87-10-3-6.53,21.55.81,5.81,2.8,11.38,4.19,17.08" transform="translate(-337.63 -204.86)"/><path class="cls-22" d="M394.65,314.21c-3.46,50.39,2.66-20.73-9,47.32-1,6-5,14.35-.28,18.21l1.47,3.65c5.54,4.55,7.64-9.1,8.68-8.91,3.34.61-2.87,6.54-2.37,9.9.2,1.34,3.12,1.9,4,.85,2.8-3.44,1.65-9.65,5.26-12.21,2.57-1.83-1.9,6.29-1.27,9.38.26,1.25,2.74,2.58,3.51,1.55,2.85-3.76,1-11.11,5.28-13.15,3-1.43,4,5.45,6.62,7.46a4.07,4.07,0,0,0,3.55.25,6.52,6.52,0,0,0,3.68-2.59c5.68-9.74-8.65-6.85-10.41-10-2.83-5,3.88-31.26,4.11-32.34" transform="translate(-337.63 -204.86)"/><path class="cls-22" d="M440.28,539.79c16.77,3.33,29.4,16.18,46.3,18.65,15.08,2.2,30.34,3,45.5,4.47" transform="translate(-337.63 -204.86)"/><path class="cls-22" d="M440.59,256.71c35.76-18.76,19.68-13,74.24-22.42,6.55-1.13,17.45.15,17.45,9.44" transform="translate(-337.63 -204.86)"/><path class="cls-7" d="M552.9,452.88c.11,7.46-.42,15,.33,22.37,2.94,29,13.4,22-6.48,27.89" transform="translate(-337.63 -204.86)"/></svg>