<svg id="Layer_1" data-name="Layer 1" xmlns="http://www.w3.org/2000/svg" xmlns:xlink="http://www.w3.org/1999/xlink" viewBox="0 0 623.26 450.85"><defs><style>.cls-1,.cls-14,.cls-19,.cls-2,.cls-20,.cls-21,.cls-33,.cls-39,.cls-41,.cls-42,.cls-43,.cls-5{fill:none;}.cls-1{clip-rule:evenodd;}.cls-3{clip-path:url(#clip-path);}.cls-4{fill:#f592a0;}.cls-5{stroke:#f592a0;}.cls-14,.cls-19,.cls-20,.cls-21,.cls-33,.cls-39,.cls-41,.cls-42,.cls-43,.cls-5{stroke-miterlimit:10;}.cls-6{clip-path:url(#clip-path-2);}.cls-7{clip-path:url(#clip-path-3);}.cls-8{fill:#f16482;}.cls-9{clip-path:url(#clip-path-4);}.cls-10{fill:#263445;}.cls-11{clip-path:url(#clip-path-5);}.cls-12{clip-path:url(#clip-path-6);}.cls-13{fill:#fac6cd;}.cls-14,.cls-33,.cls-39,.cls-43{stroke:#263445;}.cls-14,.cls-20,.cls-21,.cls-42{stroke-width:2px;}.cls-15{clip-path:url(#clip-path-7);}.cls-16{clip-path:url(#clip-path-8);}.cls-17{clip-path:url(#clip-path-9);}.cls-18{fill:#fff;}.cls-19,.cls-20,.cls-21{stroke:#399dd7;}.cls-20,.cls-33{stroke-linecap:round;}.cls-22{clip-path:url(#clip-path-10);}.cls-23{clip-path:url(#clip-path-11);}.cls-24{clip-path:url(#clip-path-12);}.cls-25{clip-path:url(#clip-path-13);}.cls-26{clip-path:url(#clip-path-14);}.cls-27{clip-path:url(#clip-path-15);}.cls-28{clip-path:url(#clip-path-16);}.cls-29{clip-path:url(#clip-path-17);}.cls-30{clip-path:url(#clip-path-18);}.cls-31{clip-path:url(#clip-path-19);}.cls-32{fill:#3d3d3d;}.cls-33,.cls-39,.cls-41{stroke-width:3px;}.cls-34{clip-path:url(#clip-path-20);}.cls-35{clip-path:url(#clip-path-21);}.cls-36{clip-path:url(#clip-path-22);}.cls-37{clip-path:url(#clip-path-23);}.cls-38{clip-path:url(#clip-path-24);}.cls-40{clip-path:url(#clip-path-25);}.cls-41,.cls-42{stroke:#fff;}.cls-43{stroke-width:4px;}.cls-44{clip-path:url(#clip-path-26);}.cls-45{clip-path:url(#clip-path-27);}.cls-46{clip-path:url(#clip-path-28);}.cls-47{clip-path:url(#clip-path-29);}.cls-48{clip-path:url(#clip-path-30);}.cls-49{clip-path:url(#clip-path-31);}.cls-50{clip-path:url(#clip-path-32);}.cls-51{clip-path:url(#clip-path-33);}.cls-52{clip-path:url(#clip-path-34);}.cls-53{clip-path:url(#clip-path-35);}.cls-54{clip-path:url(#clip-path-36);}.cls-55{clip-path:url(#clip-path-37);}.cls-56{clip-path:url(#clip-path-38);}.cls-57{clip-path:url(#clip-path-39);}.cls-58{clip-path:url(#clip-path-40);}.cls-59{fill:#34b0e5;}</style><clipPath id="clip-path" transform="translate(-280.17 -205.75)"><path class="cls-1" d="M519,512.52c8.25,11.35,20.9,29.31,39.53,32,52.33,7.69,69.67-29.47,69.67-83.54,0-4-7.46-3.81-9,0-7,17.44,10.93,59.48-28.53,68.39-10.47,2.36-22.37,6-32.15,1.59-13.39-6-21.24-20.26-31.86-30.39"/></clipPath><clipPath id="clip-path-2" transform="translate(-280.17 -205.75)"><path class="cls-1" d="M310.9,477.53c0,10.88-1.53,25.91,3.14,38.67s10.67,14.65,13.69,17.6c37.81,37,64.36,10.49,96.14-33.26,2.35-3.23-3.8-7.47-7.28-5.29-15.92,10-26.12,54.55-63.28,38.56-9.86-4.24-21.62-8.3-26.94-17.61-7.29-12.74-5.28-28.88-7.92-43.31,0,0-3.18-4.94-4.44-4.17S310.9,477.53,310.9,477.53Z"/></clipPath><clipPath id="clip-path-3" transform="translate(-280.17 -205.75)"><path class="cls-1" d="M417.38,303.06c-3.55,3.19-31.16,4.84-53.09,36.91s-22.44-9.59-20.88,2.45c1.86,14.33,27.24,4.67,32.86,1.62,15-8.14,23.82,1.82,36.85,5.29,3,.81,18.53-2,25.47,2.94s10.35,42.23,11.79,54c3,24.3-3.34,74.71,0,86.48s7.59.93,14,1.47c11.83,1,18.86-68.24,13.94-124.68-.72-8.3,5-20.08,7.1-29.52s8.6-19.77,6.12-31.46-11.63-16.16-16.66-18.31C467.83,287.2,422.45,298.5,417.38,303.06Z"/></clipPath><clipPath id="clip-path-4" transform="translate(-280.17 -205.75)"><path class="cls-1" d="M412.36,348.74c-26.3-6.1-45.76-2.22-69.91,12.06-9.9,5.86-27.54,20.82-27.54,20.82s4.37-22.52,8.08-33.34c8.11-23.68,93.9-66.2,87.19-2.24Z"/></clipPath><clipPath id="clip-path-5" transform="translate(-280.17 -205.75)"><path class="cls-1" d="M376.2,313.49c24.81-9.59,37.82-4,34,32.56l2.18,2.69c-13.86-3.22-25.82-3.66-37.57-1.27,0,0,8.81-9.58,9.07-15.92S376.2,313.49,376.2,313.49Z"/></clipPath><clipPath id="clip-path-6" transform="translate(-280.17 -205.75)"><path class="cls-1" d="M387.63,310.76c21.86-7.76,24.94,4.79,28,38.39,0,0-17.73-4.07-24.94-3.6,0,0,6.58-8,5.79-13.94S387.63,310.76,387.63,310.76Z"/></clipPath><clipPath id="clip-path-7" transform="translate(-280.17 -205.75)"><ellipse class="cls-2" cx="443.19" cy="313.81" rx="4.98" ry="4.98" transform="translate(-28.52 582.86) rotate(-65)"/></clipPath><clipPath id="clip-path-8" transform="translate(-280.17 -205.75)"><ellipse class="cls-2" cx="430.69" cy="305.24" rx="4.98" ry="4.98" transform="translate(-27.96 566.58) rotate(-65)"/></clipPath><clipPath id="clip-path-9" transform="translate(-280.17 -205.75)"><path class="cls-1" d="M502.06,641c-11.18,4.88-60,3.84-70,0-11.4-4.37-7-75-5.18-86,1.44-8.89-9.57-15.12-8.54-24.05s10.31-25.37,9-23.55c-4,5.7-7.15,12.23-14.08,11.88-6.59-.33-5.43-6.42-9-9.32s-10.87.22-10.19-5.23c1.21-9.77,16.52-23.32,21-26.34,15.93-10.76,25.89-9.24,29.48-8.54s1.54,11.68,24.87,10.65c3.74-.17,6.44-7.19,11.24-9.4s12.9-.14,17.1,0c23.22.81,38.1,29.7,38.1,29.7l-11.15,9.18s-3.83,13.13-3.83,14-14.48-14.79-16.46-14c-.85.33-2.42,11-2.42,45S504.41,639.94,502.06,641Z"/></clipPath><clipPath id="clip-path-10" transform="translate(-280.17 -205.75)"><rect class="cls-2" x="719" y="527.92" width="30.1" height="21.18"/></clipPath><clipPath id="clip-path-11" transform="translate(-280.17 -205.75)"><path class="cls-1" d="M661.51,562.74c-44.47-10.85-63.74-23.14-68.05-72.8-1.44-16.63-1.09-33.37-.9-50.06,0-3.44.23-7,1.57-10.2,2-4.67,9.93-8.06,8.2-12.82-2.32-6.35-12.38-16.12-16.94-11.13-9.27,10.14-7.34,26.53-9.53,40.08-1.43,8.86.79,24.68,2.77,33.48,8.11,36,9.82,70.67,45.89,89.62,3,1.58,42.14,15.77,40.91-1.71Z"/></clipPath><clipPath id="clip-path-12" transform="translate(-280.17 -205.75)"><path class="cls-1" d="M592.42,447.2c-18.93-2.51-9.26,3.17-.94,7.82"/></clipPath><clipPath id="clip-path-13" transform="translate(-280.17 -205.75)"><path class="cls-1" d="M575.14,465.15c1.82.29,4-.3,5.45.86l9.35-1.84c2.19,1.78.87,6.58-1.32,8.35-3,2.45-7.69,1.34-11.54,2"/></clipPath><clipPath id="clip-path-14" transform="translate(-280.17 -205.75)"><path class="cls-1" d="M594,486.29c-9.31,17.3-12.19,17.63.16,8.67"/></clipPath><clipPath id="clip-path-15" transform="translate(-280.17 -205.75)"><path class="cls-1" d="M592.55,534.2c11.18-10.09,8.8-10.35,3.73,6.13"/></clipPath><clipPath id="clip-path-16" transform="translate(-280.17 -205.75)"><path class="cls-1" d="M642.68,557.06c0,2.61,2.53,6.94.08,7.82l5.29,8.88c-8.6,3.09-15.5-14-16.57-19.31"/></clipPath><clipPath id="clip-path-17" transform="translate(-280.17 -205.75)"><path class="cls-1" d="M621,548c-7.2,28.67-.36,8.15-4.68,2.13-5-7-10.62,1.09-1.91-8.08"/></clipPath><clipPath id="clip-path-18" transform="translate(-280.17 -205.75)"><path class="cls-1" d="M705,374h52.64s14,37.47,14.76,56.58c.41,10.19-9,29.81-11.67,46.86s2.17,28.12,2.17,28.12H705s3-14.09,0-28.12-13-33.73-13-46.86C692,406.16,705,374,705,374Z"/></clipPath><clipPath id="clip-path-19" transform="translate(-280.17 -205.75)"><path class="cls-1" d="M725.94,492s12.67-.67,14.91,0c.83.25-.89,5.75,3.45,7.39s18.64,2.22,18.64,2.22,2.42,19.79-7.15,25-32.46,6.55-43.59,1.51-7.53-15-7.53-24.67c0-4.52,12.72-3.06,18.81-4.76S725.94,492,725.94,492Z"/></clipPath><clipPath id="clip-path-20" transform="translate(-280.17 -205.75)"><path class="cls-1" d="M746,476.73c4.71-6.75,9-13.8,14.14-20.25,2.21-2.79,6.18-5.73,6.49-3.42s-3,9.82-4.33,11.42c-4,4.93-10.07,7.71-15.1,11.56Z"/></clipPath><clipPath id="clip-path-21" transform="translate(-280.17 -205.75)"><path class="cls-1" d="M751.1,457.9c4.71-6.75,9-13.8,14.14-20.25,2.21-2.79,6.18-5.73,6.49-3.42s-3,9.82-4.33,11.42c-4,4.93-10.07,7.71-15.1,11.56Z"/></clipPath><clipPath id="clip-path-22" transform="translate(-280.17 -205.75)"><path class="cls-1" d="M718.61,476.73c-4.71-6.75-9-13.8-14.14-20.25-2.21-2.79-6.18-5.73-6.49-3.42s3,9.82,4.33,11.42c4,4.93,10.07,7.71,15.1,11.56Z"/></clipPath><clipPath id="clip-path-23" transform="translate(-280.17 -205.75)"><path class="cls-1" d="M713.47,457c-4.71-6.75-9-13.8-14.14-20.25-2.21-2.79-6.18-5.73-6.49-3.42s3,9.82,4.33,11.42c4,4.93,10.07,7.71,15.1,11.56Z"/></clipPath><clipPath id="clip-path-24" transform="translate(-280.17 -205.75)"><circle class="cls-2" cx="711.51" cy="425.95" r="3.43"/></clipPath><clipPath id="clip-path-25" transform="translate(-280.17 -205.75)"><circle class="cls-2" cx="757.79" cy="425.95" r="3.43"/></clipPath><clipPath id="clip-path-26" transform="translate(-280.17 -205.75)"><path class="cls-1" d="M749.89,383c6.22-9.53,3.15-22.76,11.07-31,2-2.08,5.11-2.74,7.87-3.56,6.75-2,13.56-5.66,20.54-4.82,2.47.29-2.08,4.54-2.63,7-1,4.33-.58,9-2,13.17-6.16,18.57-14.15,18.83-31.72,20.78"/></clipPath><clipPath id="clip-path-27" transform="translate(-280.17 -205.75)"><path class="cls-1" d="M716,383c-6.22-9.53-3.15-22.76-11.07-31-2-2.08-5.11-2.74-7.87-3.56-6.75-2-13.56-5.66-20.54-4.82-2.47.29,2.08,4.54,2.63,7,1,4.33.58,9,2,13.17,6.16,18.57,14.15,18.83,31.72,20.78"/></clipPath><clipPath id="clip-path-28" transform="translate(-280.17 -205.75)"><path class="cls-1" d="M726.73,383.43c.51-5.71-5.2-19-4.19-19.85s3.53,2.58,4.44,1.33c2.91-4,.33-11.91,4.8-14.07,3.29-1.59-.06,7.79,2.09,10.74.95,1.3,1.4-3.5,3-3.78,1.05-.19-.36,2.75.63,3.14s1-1.6,1.64-2.25l1,1.34c2.19-2.13,2.45-6.41,5.32-7.46,1.8-.66,0,3.87-.55,5.71-1.72,5.89-4.91,11.35-6.2,17.35-.78,3.65.06,7.46.09,11.18"/></clipPath><clipPath id="clip-path-29" transform="translate(-280.17 -205.75)"><path class="cls-1" d="M809.94,552.71c44.47-10.85,63.74-23.14,68.05-72.8,1.44-16.63,1.09-33.37.9-50.06,0-3.44-.23-7-1.57-10.2-2-4.67-9.93-8.06-8.2-12.82,2.32-6.35,12.38-16.12,16.94-11.13,9.27,10.14,7.34,26.53,9.53,40.08,1.43,8.86-.79,24.68-2.77,33.48-8.11,36-9.82,70.67-45.89,89.62-3,1.58-42.14,15.77-40.91-1.71Z"/></clipPath><clipPath id="clip-path-30" transform="translate(-280.17 -205.75)"><path class="cls-1" d="M879,437.16c18.93-2.51,9.26,3.17.94,7.82"/></clipPath><clipPath id="clip-path-31" transform="translate(-280.17 -205.75)"><path class="cls-1" d="M896.31,455.12c-1.82.29-4-.3-5.45.86l-9.35-1.84c-2.19,1.78-.87,6.58,1.32,8.35,3,2.45,7.69,1.34,11.54,2"/></clipPath><clipPath id="clip-path-32" transform="translate(-280.17 -205.75)"><path class="cls-1" d="M877.42,476.26c9.31,17.3,12.19,17.63-.16,8.67"/></clipPath><clipPath id="clip-path-33" transform="translate(-280.17 -205.75)"><path class="cls-1" d="M878.9,524.17c-11.18-10.09-8.8-10.35-3.73,6.13"/></clipPath><clipPath id="clip-path-34" transform="translate(-280.17 -205.75)"><path class="cls-1" d="M828.77,547c0,2.61-2.53,6.94-.08,7.82l-5.29,8.88c8.6,3.09,15.5-14,16.57-19.31"/></clipPath><clipPath id="clip-path-35" transform="translate(-280.17 -205.75)"><path class="cls-1" d="M850.42,538c7.2,28.67.36,8.14,4.68,2.13,5-7,10.62,1.09,1.91-8.08"/></clipPath><clipPath id="clip-path-36" transform="translate(-280.17 -205.75)"><path class="cls-1" d="M717.19,536.82c9.94,9.17,7.05,13.69,21.53,11,1.27-.24,5.42-3,7.69-5.94s2.6-5.86,4.45-6.07c2.05-.23,59.87,2.8,70.22,8.39,3.62,2-.25,7.09-2,10.83-4,8.67-9.09,18.39-13.76,17.25-19.16-4.67-13.79,9.32-15.42,26.89-.91,9.76.32,19.71-1.25,29.38A31.83,31.83,0,0,1,782.8,643c-2.08,2.65-50.27-2.4-71-1.83-7.05.2-11.22,1.83-21.78,1.83-4.57,0,6-65.75-3.61-74.44-1.61-1.45-4.55-.34-6.48.65-6.77,3.49-4.38,11.53-11.85,10-38.67-7.81-28.19-29.88-23.44-31.72s30-10.34,47.9-11.77Z"/></clipPath><clipPath id="clip-path-37" transform="translate(-280.17 -205.75)"><path class="cls-1" d="M749.06,531.31a51.94,51.94,0,0,0-6.25,3.19l-9.49,1.7c-1.21.84,2.38,1.9,3.82,2.24,3.63.87,7.41.89,11.11,1.33"/></clipPath><clipPath id="clip-path-38" transform="translate(-280.17 -205.75)"><path class="cls-1" d="M584.13,511.1c10,7.31,12-1.43,5.66,15"/></clipPath><clipPath id="clip-path-39" transform="translate(-280.17 -205.75)"><path class="cls-1" d="M873.41,413.14c2.2-1,4.58-1.61,6.6-2.9,31.25-20-25.58-23.36-7.31,1.21"/></clipPath><clipPath id="clip-path-40" transform="translate(-280.17 -205.75)"><path class="cls-1" d="M583.18,407.34c.53,2.59.27,5.49,1.6,7.77,17.88,30.77,30.13-16.53-1.13-8.73Z"/></clipPath></defs><title>login-one</title><g class="cls-3"><rect class="cls-4" x="233.78" y="247.35" width="119.2" height="97.48"/></g><path class="cls-5" d="M519,512.52c8.25,11.35,20.9,29.31,39.53,32,52.33,7.69,69.67-29.47,69.67-83.54,0-4-7.46-3.81-9,0-7,17.44,10.93,59.48-28.53,68.39-10.47,2.36-22.37,6-32.15,1.59-13.39-6-21.24-20.26-31.86-30.39" transform="translate(-280.17 -205.75)"/><g class="cls-6"><rect class="cls-4" x="307.7" y="443.05" width="97.36" height="117.64" transform="translate(-539.3 289.44) rotate(-54)"/></g><path class="cls-5" d="M310.9,477.53c0,10.88-1.53,25.91,3.14,38.67s10.67,14.65,13.69,17.6c37.81,37,64.36,10.49,96.14-33.26,2.35-3.23-3.8-7.47-7.28-5.29-15.92,10-26.12,54.55-63.28,38.56-9.86-4.24-21.62-8.3-26.94-17.61-7.29-12.74-5.28-28.88-7.92-43.31,0,0-3.18-4.94-4.44-4.17S310.9,477.53,310.9,477.53Z" transform="translate(-280.17 -205.75)"/><g class="cls-7"><rect class="cls-8" x="301.83" y="308.81" width="219.16" height="157.57" transform="translate(-303.61 542.96) rotate(-83)"/></g><g class="cls-9"><rect class="cls-10" x="299.25" y="316.35" width="117.8" height="58.32" transform="translate(-386.7 -38.35) rotate(-23)"/></g><g class="cls-11"><rect class="cls-4" x="365.21" y="304.09" width="52.15" height="56.58" transform="translate(-378.94 -26.44) rotate(-23)"/></g><g class="cls-12"><rect class="cls-13" x="380.6" y="302.48" width="38.93" height="56.28" transform="translate(-377.55 -23.15) rotate(-23)"/></g><path class="cls-14" d="M419,331.58c-31.69,9.69-16.76,9.52-44.61,4" transform="translate(-280.17 -205.75)"/><g class="cls-15"><rect class="cls-10" x="433.21" y="303.83" width="19.95" height="19.97" transform="translate(-308.69 377.11) rotate(-65)"/></g><g class="cls-16"><rect class="cls-10" x="420.72" y="295.25" width="19.95" height="19.97" transform="translate(-308.14 360.83) rotate(-65)"/></g><g class="cls-17"><rect class="cls-18" x="366" y="480.52" width="186.83" height="150.61" transform="translate(-421.55 748.88) rotate(-84)"/></g><path class="cls-19" d="M502.06,641c-11.18,4.88-60,3.84-70,0-11.4-4.37-7-75-5.18-86,1.44-8.89-9.57-15.12-8.54-24.05s10.31-25.37,9-23.55c-4,5.7-7.15,12.23-14.08,11.88-6.58-.33-5.43-6.42-9-9.32s-10.87.22-10.19-5.23c1.21-9.77,16.52-23.32,21-26.34,15.93-10.76,25.89-9.24,29.48-8.54s1.54,11.68,24.87,10.65c3.74-.17,6.44-7.19,11.24-9.4s12.9-.14,17.1,0c23.22.81,38.1,29.7,38.1,29.7l-11.15,9.18s-3.83,13.13-3.83,14-14.48-14.79-16.46-14c-.85.33-2.42,11-2.42,45S504.41,639.94,502.06,641Z" transform="translate(-280.17 -205.75)"/><path class="cls-19" d="M466.16,544.5c-24.78,10-14.26,3.56-32.35,18" transform="translate(-280.17 -205.75)"/><path class="cls-20" d="M817.71,332c2.28-10.76,23.85-56.64,40.72-40.75,3.09,2.91,6.65,9.82,3.21,12.29-25.39,18.28-40.83-20.7-26.35-26.93" transform="translate(-280.17 -205.75)"/><polyline class="cls-20" points="555.9 130.6 555.9 137.38 555.9 141.66 555.9 146.46 555.9 146.74 555.9 148.81 555.9 148.93 555.9 149.43 555.9 149.56 555.9 149.44"/><ellipse class="cls-21" cx="529.46" cy="71.7" rx="6.18" ry="6.17"/><ellipse class="cls-21" cx="351.06" cy="160.86" rx="6.18" ry="6.17"/><ellipse class="cls-21" cx="110.5" cy="60.55" rx="6.18" ry="6.17"/><polyline class="cls-20" points="565.82 139.64 559.04 139.64 554.75 139.64 549.95 139.64 549.68 139.64 547.61 139.64 547.48 139.64 546.98 139.64 546.86 139.64 546.97 139.64"/><polyline class="cls-20" points="59.67 73.15 59.67 79.92 59.67 84.21 59.67 89.01 59.67 89.28 59.67 91.35 59.67 91.48 59.67 91.98 59.67 92.1 59.67 91.99"/><polyline class="cls-20" points="69.58 82.19 62.8 82.19 58.52 82.19 53.72 82.19 53.44 82.19 51.38 82.19 51.25 82.19 50.75 82.19 50.63 82.19 50.74 82.19"/><path class="cls-20" d="M621.42,314.84c-7.23-7.9-20.91-19-23.09-31.58-.46-2.66,2.54-24.44,13.26-16.15,15.45,11.94-14.68,17.22-24,6.23" transform="translate(-280.17 -205.75)"/><path class="cls-14" d="M413.49,328.57c9.49,4.42,8.8,1.05,4.53,9.27" transform="translate(-280.17 -205.75)"/><g class="cls-22"><rect class="cls-18" x="433.83" y="317.17" width="40.1" height="31.18"/></g><g class="cls-23"><rect class="cls-18" x="290.23" y="193.61" width="100.05" height="181.47"/></g><g class="cls-24"><rect class="cls-10" x="296.31" y="235.83" width="20.94" height="18.43"/></g><g class="cls-25"><rect class="cls-10" x="571.52" y="456.18" width="22.24" height="26.09" transform="translate(-252.12 765.54) rotate(-81)"/></g><g class="cls-26"><rect class="cls-10" x="300.79" y="275.54" width="18.24" height="24.47"/></g><g class="cls-27"><rect class="cls-10" x="307.38" y="316.43" width="17.97" height="23.15"/></g><g class="cls-28"><rect class="cls-10" x="346.31" y="343.7" width="26.57" height="29.68"/></g><g class="cls-29"><rect class="cls-10" x="324.72" y="331.34" width="21.14" height="30.82"/></g><g class="cls-30"><rect class="cls-18" x="406.86" y="163.27" width="90.41" height="141.56"/></g><g class="cls-31"><rect class="cls-32" x="418.93" y="280.93" width="69.11" height="49.58"/></g><path class="cls-33" d="M739.8,486.12c1.11-14.8,13.31-34.63,9.69-47.58-2.51-9-5.84-17.72-8.77-26.58" transform="translate(-280.17 -205.75)"/><path class="cls-33" d="M734,483.9c6.15-33.66,4.12-33,2-62.63" transform="translate(-280.17 -205.75)"/><path class="cls-33" d="M725.22,486.12c-1.11-14.8-13.31-34.63-9.69-47.58,2.51-9,5.84-17.72,8.77-26.58" transform="translate(-280.17 -205.75)"/><path class="cls-33" d="M731.05,483.9c-6.15-33.66-4.12-33-2-62.63" transform="translate(-280.17 -205.75)"/><path class="cls-33" d="M746.41,495.13c7.65-7.91,3.24-5.09,13.05-8.75" transform="translate(-280.17 -205.75)"/><path class="cls-33" d="M750.16,500.82c6.23-5.6,3-3.93,9.12-6" transform="translate(-280.17 -205.75)"/><path class="cls-33" d="M743.41,490.12c3.05-8.61,8.18-12.23,16.57-14.82" transform="translate(-280.17 -205.75)"/><path class="cls-33" d="M720.33,495.13c-7.65-7.91-3.24-5.09-13.05-8.75" transform="translate(-280.17 -205.75)"/><path class="cls-33" d="M716.58,500.82c-6.23-5.6-3-3.93-9.12-6" transform="translate(-280.17 -205.75)"/><path class="cls-33" d="M723.32,490.12c-3.05-8.61-8.18-12.23-16.57-14.82" transform="translate(-280.17 -205.75)"/><g class="cls-34"><rect class="cls-10" x="460.78" y="241.48" width="30.65" height="34.5"/></g><g class="cls-35"><rect class="cls-10" x="465.92" y="222.65" width="30.65" height="34.5"/></g><g class="cls-36"><rect class="cls-10" x="412.79" y="241.48" width="30.65" height="34.5"/></g><g class="cls-37"><rect class="cls-10" x="407.65" y="221.79" width="30.65" height="34.5"/></g><g class="cls-38"><rect class="cls-32" x="422.91" y="211.78" width="16.86" height="16.85"/></g><path class="cls-39" d="M702,420c10.32-7.16,5.58-7.72,14.08-2.66" transform="translate(-280.17 -205.75)"/><g class="cls-40"><rect class="cls-32" x="469.19" y="211.78" width="16.86" height="16.85"/></g><path class="cls-39" d="M748.26,420c10.32-7.16,5.58-7.72,14.08-2.66" transform="translate(-280.17 -205.75)"/><path class="cls-41" d="M734.58,505c.5,26,6.57,23.32,21.86,7.25" transform="translate(-280.17 -205.75)"/><path class="cls-41" d="M733.3,505c-.5,26-6.57,23.32-21.86,7.25" transform="translate(-280.17 -205.75)"/><path class="cls-42" d="M751.31,511.7c8.58,0,5.39-1.8,5.47,9.54" transform="translate(-280.17 -205.75)"/><path class="cls-42" d="M718.44,512.27c-9.72-.83-7.4-3.1-7.4,6.37" transform="translate(-280.17 -205.75)"/><path class="cls-43" d="M739.79,390.44c10.31,14.31,8.47,7.32,9.57,19.46" transform="translate(-280.17 -205.75)"/><path class="cls-39" d="M756.53,407.2c0-16.81,1.9-6.9-13.46-27.1" transform="translate(-280.17 -205.75)"/><path class="cls-39" d="M763.9,408.93c-1.56-23.13,2.42-12-15.13-32.2" transform="translate(-280.17 -205.75)"/><path class="cls-43" d="M726.09,390.44c-10.31,14.31-8.47,7.32-9.57,19.46" transform="translate(-280.17 -205.75)"/><path class="cls-39" d="M709.35,407.2c0-16.81-1.9-6.9,13.46-27.1" transform="translate(-280.17 -205.75)"/><path class="cls-39" d="M702,408.93c1.56-23.13-2.42-12,15.13-32.2" transform="translate(-280.17 -205.75)"/><g class="cls-44"><rect class="cls-18" x="464.72" y="132.71" width="50.21" height="51.03"/></g><path class="cls-14" d="M749.89,383c6.22-9.53,3.15-22.76,11.07-31,2-2.08,5.11-2.74,7.87-3.56,6.75-2,13.56-5.66,20.54-4.82,2.47.29-2.08,4.54-2.63,7-1,4.33-.58,9-2,13.17-6.16,18.57-14.15,18.83-31.72,20.78" transform="translate(-280.17 -205.75)"/><path class="cls-39" d="M755.43,377.27c4.82-13.78,5-19.54,17.72-25.3" transform="translate(-280.17 -205.75)"/><g class="cls-45"><rect class="cls-18" x="390.61" y="132.71" width="50.21" height="51.03"/></g><path class="cls-14" d="M716,383c-6.22-9.53-3.15-22.76-11.07-31-2-2.08-5.11-2.74-7.87-3.56-6.75-2-13.56-5.66-20.54-4.82-2.47.29,2.08,4.54,2.63,7,1,4.33.58,9,2,13.17,6.16,18.57,14.15,18.83,31.72,20.78" transform="translate(-280.17 -205.75)"/><path class="cls-39" d="M710.45,377.27c-4.82-13.78-5-19.54-17.72-25.3" transform="translate(-280.17 -205.75)"/><g class="cls-46"><rect class="cls-10" x="437.25" y="139.91" width="33.75" height="46.17"/></g><g class="cls-47"><rect class="cls-18" x="520.82" y="183.58" width="100.05" height="181.47"/></g><g class="cls-48"><rect class="cls-10" x="593.86" y="225.8" width="20.94" height="18.43"/></g><g class="cls-49"><rect class="cls-10" x="875.77" y="448.07" width="26.09" height="22.24" transform="translate(-341.07 -61.05) rotate(-9)"/></g><g class="cls-50"><rect class="cls-10" x="592.08" y="265.51" width="18.24" height="24.47"/></g><g class="cls-51"><rect class="cls-10" x="585.76" y="306.4" width="17.97" height="23.15"/></g><g class="cls-52"><rect class="cls-10" x="538.23" y="333.67" width="26.57" height="29.68"/></g><g class="cls-53"><rect class="cls-10" x="565.24" y="321.31" width="21.14" height="30.82"/></g><g class="cls-54"><rect class="cls-18" x="354.53" y="325.01" width="192.86" height="118.04"/></g><path class="cls-21" d="M702.46,536.86c-54.31,10.34-76.54,3.42-48.82,36.92" transform="translate(-280.17 -205.75)"/><path class="cls-21" d="M792.78,571.67c-2.1,5.82-1.72,9.48-2.35,15.8-1.79,18.07-3.4,54.06-4.25,54.06H690.7s1.28-33.74,0-44.15c-.58-4.74.26-15.64,0-21.63-.16-3.68-1.17-8.63-6.89-7.94s-7.89,7.15-16,10.43" transform="translate(-280.17 -205.75)"/><path class="cls-21" d="M755.46,536.86c56.13,10.69,87.78-11.2,52.73,33.95" transform="translate(-280.17 -205.75)"/><path class="cls-21" d="M701.5,594.8c5.44,0,13.06-4.42,16.31-.06,15.93,21.38-11.44,20.88-14,17.77-3.26-3.91-1.16-10.12-1.74-15.19" transform="translate(-280.17 -205.75)"/><path class="cls-21" d="M706.15,536.63c24.86,5.32,17.35,23,45,3" transform="translate(-280.17 -205.75)"/><path class="cls-14" d="M719.51,535.28c9.17,6.87,4.19,5.12,14.65,6" transform="translate(-280.17 -205.75)"/><g class="cls-55"><rect class="cls-10" x="447.9" y="320.56" width="25.99" height="18.47"/></g><g class="cls-56"><rect class="cls-10" x="298.95" y="300.35" width="19.3" height="25.02"/></g><g class="cls-57"><rect class="cls-10" x="583.82" y="183.37" width="30.59" height="29.02"/></g><g class="cls-58"><rect class="cls-10" x="298.01" y="194.75" width="29.69" height="30.13"/></g><path class="cls-59" d="M668.36,209a22.73,22.73,0,0,1-3,.8,20.58,20.58,0,0,1,.94,6.11,9.31,9.31,0,0,1-1.24,4.81,4.32,4.32,0,0,1-3.82,2.39,3.19,3.19,0,0,1-2.23-.78,2.46,2.46,0,0,1-.84-1.91,3.65,3.65,0,0,1,.44-1.85.78.78,0,0,1,.73-.42.8.8,0,0,1,.86.84,5.48,5.48,0,0,0-.34,1.39.8.8,0,0,0,.34.69,1.18,1.18,0,0,0,.84.29,3,3,0,0,0,2.75-1.83,8.34,8.34,0,0,0,.78-3.74,23.74,23.74,0,0,0-.86-5.77,21,21,0,0,1-2.44.31q-1.64.19-2,.19a.68.68,0,0,1-.57-.27.82.82,0,0,1-.23-.61.79.79,0,0,1,.84-.88c4.66-.4,7.81-1,9.41-1.83a.9.9,0,0,1,.78-.42c.5,0,.78.29.78.88S669.61,208.63,668.36,209ZM676.42,221a3.06,3.06,0,0,1-2.56,1.43,2.83,2.83,0,0,1-2.2-1,3.94,3.94,0,0,1-.86-2.65,5.42,5.42,0,0,1,.61-2.56,3.86,3.86,0,0,1,1.72-1.87,5.55,5.55,0,0,0,.69-.36,1.24,1.24,0,0,1,.61-.27,3.58,3.58,0,0,1,2.33,1.49,3.89,3.89,0,0,1,.69,2.25A6.08,6.08,0,0,1,676.42,221Zm-1.24-5a1.58,1.58,0,0,1-.82-.19,1.69,1.69,0,0,0-1.45,1,3.73,3.73,0,0,0-.48,1.89,2.19,2.19,0,0,0,.4,1.32,1.14,1.14,0,0,0,1,.59,1.71,1.71,0,0,0,1.36-.94,3.68,3.68,0,0,0,.59-2C675.79,216.81,675.58,216.23,675.18,216Zm7.16.73a20.36,20.36,0,0,0-.69,4.33,1.24,1.24,0,0,1,.42.94.74.74,0,0,1-.59.55c-1,0-1.43-.86-1.43-2.58a25.51,25.51,0,0,1,.84-4.79,3.86,3.86,0,0,1-.06-.5.74.74,0,0,1,.48-.67q1.39,0,1.39,1.32Zm.63-8.27a1.14,1.14,0,0,1-.36-.08c-.61-.21-.9-.76-.9-1.64,0-.44.29-.76.88-1,.71.08,1.07.55,1.07,1.43S683.43,208.44,683,208.44Zm9.79,13.44c0,.38-.21.59-.5.59a1,1,0,0,1-.78-.38,1.43,1.43,0,0,1-.31-.9s0-.42.13-1.2l.31-2.69a14.44,14.44,0,0,0-3.67,3.74c-.15.25-.27.52-.4.78s-.42.52-.63.52c-.88,0-1.3-1.24-1.3-3.74a19,19,0,0,1,.69-5c.08-.29.23-.46.48-.46a1.05,1.05,0,0,1,.8.36,1.43,1.43,0,0,1,.31.9q-.16.63-.31,1.39a17.37,17.37,0,0,0-.31,3.23,17,17,0,0,1,4.79-4.14,1.52,1.52,0,0,1,.82.31,1,1,0,0,1,.4.78C693.26,216.94,693.09,218.91,692.76,221.87Zm16.8-6.55a.72.72,0,0,1-.55.31,1.06,1.06,0,0,1-.78-.29l-1.09,0c-.59,0-1,0-1.18,0-.38,1.64-.61,2.65-.69,3a19.43,19.43,0,0,0-.42,3.17.87.87,0,0,1,.31.73.84.84,0,0,1-.29.59,1,1,0,0,1-.61.25c-.69,0-1-.59-1-1.72a17,17,0,0,1,.4-3l.63-3c-.65,0-1-.29-1-.9a.76.76,0,0,1,.38-.76,2.39,2.39,0,0,1,1-.15c.55-2.23,1-3.95,1.39-5.21.13-.44.38-.67.76-.67.55,0,.84.31.9.94-.13.44-.29.94-.48,1.53-.25.86-.52,2-.82,3.36l1.55,0c1.22.06,1.83.42,1.83,1.09A1.19,1.19,0,0,1,709.56,215.32Zm8.71,7.45c-.88,0-1.34-1-1.43-3l-.1-2.54a13.29,13.29,0,0,0-3.65,3.59c-.15.34-.29.67-.46,1s-.44.69-.61.69a1.08,1.08,0,0,1-.82-.38,1.41,1.41,0,0,1-.31-.86v-.57c0-.31,0-.55,0-.67a30.76,30.76,0,0,1,.55-5.92l1.22-6.7c.13-.69.36-1,.69-1a.82.82,0,0,1,.69.44,1.51,1.51,0,0,1,.31.88c0,.1-.06.44-.17,1s-.31,1.51-.52,2.73l-.63,3.3q-.16.82-.5,3.72a15.22,15.22,0,0,1,2.44-2.2,6.06,6.06,0,0,1,2.41-1.45,1,1,0,0,1,.78.4,1.62,1.62,0,0,1,.34.94c0,.06,0,.36-.08.88s0,.86,0,1a22,22,0,0,0,.19,2.79c0,.38.1.82.17,1.36S718.52,222.78,718.27,222.78Zm8.78-.13a3.72,3.72,0,0,1-3.53-2.16h-.63a4.06,4.06,0,0,1-1.62-.34c-.71-.29-1-.67-1-1.13s.27-.88.82-.88a1.39,1.39,0,0,1,.63.31,1.45,1.45,0,0,0,.86.31H723a5.07,5.07,0,0,1-.08-.86,5.62,5.62,0,0,1,.76-2.83,2.57,2.57,0,0,1,2.23-1.55,2.18,2.18,0,0,1,1.53.76,2.33,2.33,0,0,1,.76,1.66q0,2.33-3.15,4a2.14,2.14,0,0,0,1.68.9,7.66,7.66,0,0,0,.8-.06c.36,0,.63-.08.8-.08a.85.85,0,0,1,.59.27,1,1,0,0,1,.25.63C729.17,222.29,728.46,222.65,727.05,222.65Zm-.71-7.12a.87.87,0,0,0-.5-.21q-.57,0-.88.94a4.35,4.35,0,0,0-.29,1.64v.38q1.89-1.23,1.89-2.27A.82.82,0,0,0,726.34,215.53Zm18.54-.21a.72.72,0,0,1-.55.31,1.06,1.06,0,0,1-.78-.29l-1.09,0c-.59,0-1,0-1.18,0-.38,1.64-.61,2.65-.69,3a19.43,19.43,0,0,0-.42,3.17.87.87,0,0,1,.31.73.84.84,0,0,1-.29.59,1,1,0,0,1-.61.25c-.69,0-1-.59-1-1.72a17,17,0,0,1,.4-3l.63-3c-.65,0-1-.29-1-.9a.76.76,0,0,1,.38-.76,2.39,2.39,0,0,1,1-.15c.55-2.23,1-3.95,1.39-5.21.13-.44.38-.67.76-.67.55,0,.84.31.9.94-.13.44-.29.94-.48,1.53-.25.86-.52,2-.82,3.36l1.55,0c1.22.06,1.83.42,1.83,1.09A1.19,1.19,0,0,1,744.88,215.32Zm7.52,7.33a3.72,3.72,0,0,1-3.53-2.16h-.63a4.06,4.06,0,0,1-1.62-.34c-.71-.29-1-.67-1-1.13s.27-.88.82-.88a1.39,1.39,0,0,1,.63.31,1.45,1.45,0,0,0,.86.31h.48a5.07,5.07,0,0,1-.08-.86,5.62,5.62,0,0,1,.76-2.83,2.57,2.57,0,0,1,2.23-1.55,2.18,2.18,0,0,1,1.53.76,2.33,2.33,0,0,1,.76,1.66q0,2.33-3.15,4a2.14,2.14,0,0,0,1.68.9,7.66,7.66,0,0,0,.8-.06c.36,0,.63-.08.8-.08a.85.85,0,0,1,.59.27,1,1,0,0,1,.25.63C754.52,222.29,753.8,222.65,752.4,222.65Zm-.71-7.12a.87.87,0,0,0-.5-.21q-.57,0-.88.94a4.35,4.35,0,0,0-.29,1.64v.38q1.89-1.23,1.89-2.27A.82.82,0,0,0,751.68,215.53Zm11.89,2.06a8,8,0,0,0-.42,2.56,5.55,5.55,0,0,0,.15,1.11c.08.5.15.76.15.82a.85.85,0,0,1-.27.59,1.12,1.12,0,0,1-.61.21c-.61,0-1-.82-1.07-2.41a4.85,4.85,0,0,1-3.17,1.76,2,2,0,0,1-1.57-.78,2.44,2.44,0,0,1-.67-1.72c0-1.22.71-2.52,2.16-3.86a5.92,5.92,0,0,1,3.8-2,1.37,1.37,0,0,1,.82.34,1,1,0,0,1,.4.71,1.24,1.24,0,0,1,0,.29,4,4,0,0,1,.21,1.28,1,1,0,0,1,.27.61A1.69,1.69,0,0,1,763.57,217.59Zm-2.16-1.85c-.4,0-1.09.48-2.06,1.41s-1.6,1.87-1.6,2.54.21.78.65.78a3.16,3.16,0,0,0,2.16-1.43,4.31,4.31,0,0,0,1.22-2.52C761.78,216,761.66,215.74,761.41,215.74Zm17.74,6.36q-1.32,0-1.83-4.35a17.23,17.23,0,0,0-2.6,3.13c-.42.65-.82,1-1.2,1a1.13,1.13,0,0,1-1-.76,10.16,10.16,0,0,1-.92-4,8.72,8.72,0,0,0-3.7,4.79c-.17.59-.48.88-.92.88-.65,0-1-.59-1-1.76a16.59,16.59,0,0,1,.48-3.19,18.33,18.33,0,0,0,.48-2.88,2.78,2.78,0,0,0-.31-1.24,1.12,1.12,0,0,1,.42-.82,1.1,1.1,0,0,1,.76-.31c.61,0,.92.67.92,2a22,22,0,0,1-.61,3.51c2.48-2.33,4-3.51,4.51-3.51a.67.67,0,0,1,.67.4,3.82,3.82,0,0,1,.1,1.09,11.22,11.22,0,0,0,.34,3.36c2-2.65,3.49-4,4.56-4,.46,0,.69.25.71.76a9.34,9.34,0,0,0,.88,4.37,2.23,2.23,0,0,1,.31.61C780.28,221.79,779.91,222.1,779.15,222.1Z" transform="translate(-280.17 -205.75)"/></svg>