<?xml version="1.0" encoding="UTF-8"?>
<svg width="1803px" height="932px" viewBox="0 0 1803 932" version="1.1" xmlns="http://www.w3.org/2000/svg" xmlns:xlink="http://www.w3.org/1999/xlink">
    <!-- Generator: Sketch 44.1 (41455) - http://www.bohemiancoding.com/sketch -->
    <title>Group 21</title>
    <desc>Created with Sketch.</desc>
    <defs></defs>
    <g id="Alpha" stroke="none" stroke-width="1" fill="none" fill-rule="evenodd">
        <g id="Group-21">
            <path d="M168.795489,551.899876 C201.887,485.299959 271.860021,452 378.714552,452 C485.569083,452 555.542104,489.967488 588.633615,565.902463 L713.404798,932 L588.633615,932 L0,932 L168.795489,551.899876 Z" id="Rectangle-32" fill="#F5E2C2"></path>
            <path d="M295.615545,546.496333 C292.554992,535.174397 276.13369,527.400268 277.035794,515.19566 C277.050577,514.995652 277.608121,515.341401 277.785379,515.499816 C281.34639,518.682263 284.641748,522.004117 288.210507,525.182414 C289.902205,526.689023 291.471078,528.302484 293.55994,529.54847 C293.963945,529.789454 293.520279,528.796929 293.680181,528.445019 C294.781616,526.021008 295.850653,523.578282 297.329615,521.252257 C299.936711,517.151972 302.101573,512.817876 305.917874,509.198302 C307.093341,508.083429 306.001513,511.972226 305.678672,513.333587 C304.764282,517.189389 303.115484,520.950932 302.215994,524.808408 C301.525024,527.771646 299.856879,530.85654 300.913813,533.767752 C301.375359,535.039034 303.004341,531.561323 304.326603,530.621858 C305.746071,529.613328 307.343229,528.706751 309.076112,527.968449 C310.302611,527.445894 311.732968,527.191122 313.102897,526.882683 C313.355069,526.825906 313.720531,526.746787 313.898533,526.882683 C314.095136,527.032779 313.955507,527.291501 313.898533,527.490111 C313.717435,528.121412 313.565838,528.769084 313.188601,529.357488 C311.447655,532.072968 309.220288,534.634333 307.56159,537.374301 C305.549155,540.6986 304.006814,543.112006 302.215994,546.496333" id="Path-14" fill="#8FA390"></path>
            <path d="M1137.79549,411.264915 C1170.887,365.754972 1240.86002,343 1347.71455,343 C1454.56908,343 1524.5421,368.94445 1557.63362,420.83335 L1682.4048,671 L1557.63362,671 L969,671 L1137.79549,411.264915 Z" id="Rectangle-32" fill="#F5E2C2"></path>
            <path d="M563,483.402666 C609.345977,404.800889 707.345977,365.5 857,365.5 C1006.65402,365.5 1104.65402,410.309545 1151,499.928636 L1325.74701,932 L1151,932 L326.595202,932 L563,483.402666 Z" id="Rectangle-32" fill="#F9E9CE"></path>
            <path d="M1141.59133,551.899876 C1181.77979,485.299959 1266.75954,452 1396.53058,452 C1526.30161,452 1611.28136,489.967488 1651.46983,565.902463 L1803,932 L1651.46983,932 L936.595202,932 L1141.59133,551.899876 Z" id="Rectangle-32" fill="#FDF0DA"></path>
            <g id="Group-12" transform="translate(1007.248447, 390.319218)" fill="#8FA390">
                <path d="M24.1021523,48.409113 C20.1508679,33.7920874 -1.04962245,23.7554067 0.115025005,7.99881921 C0.134111072,7.74060263 0.853920156,8.18697681 1.08276728,8.39149572 C5.68015961,12.5001496 9.93458608,16.7887817 14.5419816,20.8920784 C16.726025,22.8371639 18.7514959,24.9202009 21.4482925,26.5288127 C21.9698766,26.8399323 21.3970878,25.5585468 21.6035276,25.1042189 C23.0255192,21.9747331 24.4056846,18.8210856 26.3150783,15.8181043 C29.6809321,10.5244891 32.4758472,4.92901461 37.4028286,0.256014687 C38.9203991,-1.18332642 37.5108103,3.83725046 37.0940098,5.5948171 C35.9135003,10.5727961 33.7848431,15.429083 32.623569,20.4092233 C31.731501,24.2348694 29.5778667,28.2175783 30.9424058,31.9760577 C31.5382791,33.6173281 33.6413527,29.1274792 35.3484406,27.9145955 C37.1810249,26.6125468 39.2430137,25.4421234 41.4802274,24.4889496 C43.063682,23.8143124 44.9103237,23.4853919 46.6789521,23.0871857 C47.0045144,23.0138855 47.4763397,22.91174 47.7061462,23.0871857 C47.9599677,23.2809659 47.7797014,23.6149855 47.7061462,23.8713973 C47.4723427,24.6864304 47.276625,25.5225976 46.7895984,26.2822484 C44.541975,29.7880302 41.6663638,33.0948453 39.5249256,36.6322423 C36.9267999,40.9240317 34.9355812,44.0398259 32.623569,48.409113" id="Path-14"></path>
            </g>
            <g id="Group-27" transform="translate(158.000000, 8.000000)">
                <g id="Group-24">
                    <ellipse id="Oval-8" fill="#F0DFC3" cx="697.798137" cy="407.462541" rx="66.1024845" ry="17.228013"></ellipse>
                    <g id="Group-14" transform="translate(668.552795, 390.234528)" stroke="#00A2F2">
                        <g id="Group-13" transform="translate(52.394174, 14.025105) scale(-1, 1) rotate(6.000000) translate(-52.394174, -14.025105) translate(43.894174, 1.525105)">
                            <path d="M6.44975082,1.43326496 C5.62466105,4.73735473 3.74754748,6.43325036 3.42764216,9.7987237 C2.85728199,15.7990363 -2.96406637,24.1507287 3.42764216,24.384473 C9.81935068,24.6182173 10.5845651,16.0221951 12.4994023,12.0215398 C15.8898671,4.93786646 14.7506716,10.1910142 14.9867933,9.1057849 C15.0119832,8.99001078 16.5923143,5.46731069 16.6135897,5.35242383 C16.6217544,5.30833457 16.5454358,3.30218432 15.6399931,2.27800172 C14.7345503,1.25381912 11.0849429,-0.243799005 6.44975082,0.343255975 L6.44975082,1.43326496 Z" id="Path-16" fill="#FFFFFF"></path>
                            <path d="M8.11801613,0.644443648 C7.58193028,1.48583726 6.71761078,2.31159941 6.50975859,3.16862448 C5.00665799,9.36627342 22.9710545,0.0411121048 8.47331424,0.76076916 L8.11801613,0.644443648 Z" id="Path-16" fill="#00A2F2"></path>
                        </g>
                        <g id="Group-13" transform="translate(9.596681, 14.140353) rotate(6.000000) translate(-9.596681, -14.140353) translate(1.596681, 1.640353)">
                            <path d="M5.56856581,1.41556869 C4.80202733,4.67182099 3.0581204,6.34316301 2.76091669,9.65991015 C2.23103131,15.5733487 -3.17721352,23.8041231 2.76091669,24.0344832 C8.6990469,24.2648432 9.40995902,15.7932765 11.1889126,11.8505437 C14.338778,4.86942966 13.2804238,10.046521 13.4997895,8.97700389 C13.5231918,8.86290598 14.991377,5.39120846 15.0111426,5.27798496 C15.0187279,5.23453404 14.9478252,3.25742935 14.1066358,2.24807513 C13.2654465,1.23872091 9.87482822,-0.237214309 5.56856581,0.341341137 L5.56856581,1.41556869 Z" id="Path-16" fill="#FFFFFF"></path>
                            <path d="M6.51553166,0.644443648 C5.97944581,1.48583726 5.11512631,2.31159941 4.90727412,3.16862448 C3.40417352,9.36627342 21.36857,0.0411121048 6.87082977,0.76076916 L6.51553166,0.644443648 Z" id="Path-16" fill="#00A2F2"></path>
                        </g>
                    </g>
                    <g id="Group-5" transform="translate(441.000000, 0.000000)">
                        <path d="M106.164596,208.338762 C121.625135,208.338762 140.205103,189.332135 158.442477,192.109968 C176.679851,194.887801 201.334765,219.66145 210.829266,205.248159 C228.23731,178.821574 203.515528,130.737626 203.515528,110.980456 C203.515528,100.625521 226.255889,85.2396307 227.517055,71.3739841 C228.778222,57.5083375 209.014377,30.6369855 198.965845,20.1061872 C182.292158,2.63226793 130.027802,32.618539 102.320907,32.618539 C92.6076308,32.618539 84.9353961,8.16197256 72.6046584,2.25644516 C60.2739206,-3.64908224 40.996812,8.03549277 32.8269149,13.6221498 C24.0745278,19.6071194 2.06080198,39.0448765 0.539633717,60.835369 C0.484803021,61.62081 0.456597298,62.4093077 0.456597298,63.2003424 C0.456597298,85.9370572 8.8136646,96.959221 8.8136646,110.980456 C8.8136646,145.252009 13.9945844,199.206321 40.7580533,216.555437 C67.5215221,233.904552 86.6681184,208.338762 106.164596,208.338762 Z" id="Oval-3" fill="#8FA290"></path>
                        <ellipse id="Oval-4" fill="#859886" cx="101.757764" cy="155.452769" rx="76.1180124" ry="28.0456026"></ellipse>
                        <polygon id="Rectangle-5" fill="#F9E9CE" points="69.7080745 130.986621 81.7267081 128.995988 81.7267081 382.835891 69.7080745 382.835891"></polygon>
                        <path d="M48.9474371,138.102837 C51.1688743,137.437317 52.8453575,137.041874 53.9768869,136.916507 C55.1084162,136.79114 57.3721683,136.750028 60.7681432,136.793171 L61.2003038,220.553812 L49.1816703,220.553812 L48.9474371,138.102837 Z" id="Rectangle-5" fill="#F9E9CE" transform="translate(55.073870, 178.665207) rotate(-30.000000) translate(-55.073870, -178.665207) "></path>
                        <polygon id="Rectangle-5" fill="#F9E9CE" transform="translate(134.159839, 164.315340) rotate(-315.000000) translate(-134.159839, -164.315340) " points="128.308715 128.94963 139.736839 124.650325 140.169156 203.980356 128.150522 203.980356"></polygon>
                        <rect id="Rectangle-5" fill="#F9E9CE" x="101.757764" y="127.407166" width="12.0186335" height="255.428725"></rect>
                    </g>
                    <g id="Group-5" transform="translate(0.000000, 228.000000)">
                        <path d="M75.8983737,149.04653 C86.951303,149.04653 100.23435,135.449099 113.272472,137.436374 C126.310595,139.423649 143.936696,157.146834 150.724431,146.835498 C163.169656,127.929794 145.49575,93.5303121 145.49575,79.3959398 C145.49575,71.9879704 161.753113,60.9808324 162.654737,51.0612837 C163.55636,41.1417349 149.426945,21.9178434 142.243126,14.3840608 C130.322902,1.88313685 92.9584722,23.3354561 73.1504732,23.3354561 C66.2063325,23.3354561 60.7213577,5.83911353 51.9059619,1.61427147 C43.0905661,-2.61057058 29.3091244,5.7486293 23.4683646,9.74535001 C17.2111756,14.0270254 1.47329264,27.9328882 0.385790771,43.5219089 C0.346591633,44.0838171 0.326427015,44.6479121 0.326427015,45.213822 C0.326427015,61.4797746 6.30099706,69.3650824 6.30099706,79.3959398 C6.30099706,103.91397 10.0049003,142.513138 29.1384328,154.924777 C48.2719654,167.336416 61.9601022,149.04653 75.8983737,149.04653 Z" id="Oval-3" fill="#8FA290"></path>
                        <ellipse id="Oval-4" fill="#859886" cx="72.7478751" cy="111.211641" rx="54.4177019" ry="20.0639559"></ellipse>
                        <polygon id="Rectangle-5" fill="#F5E2C2" points="49.8351585 93.7084441 58.4274273 92.2843363 58.4274273 273.882596 49.8351585 273.882596"></polygon>
                        <path d="M34.9931239,98.7994186 C36.5812566,98.3233026 37.7797951,98.0404005 38.5887393,97.9507124 C39.3976835,97.8610243 41.0160677,97.8316125 43.4438919,97.8624771 L43.7528488,157.785233 L35.1605801,157.785233 L34.9931239,98.7994186 Z" id="Rectangle-5" fill="#F5E2C2" transform="translate(39.372986, 127.817929) rotate(-30.000000) translate(-39.372986, -127.817929) "></path>
                        <polygon id="Rectangle-5" fill="#F5E2C2" transform="translate(95.912516, 117.551967) rotate(-315.000000) translate(-95.912516, -117.551967) " points="91.7294764 92.2511715 99.899582 89.1754283 100.208651 145.928505 91.616382 145.928505"></polygon>
                        <rect id="Rectangle-5" fill="#F5E2C2" x="72.7478751" y="91.1476854" width="8.59226872" height="182.734911"></rect>
                    </g>
                    <g id="Group-2" transform="translate(769.000000, 80.000000)">
                        <g id="Group-5" transform="translate(85.500000, 152.105863) scale(-1, 1) translate(-85.500000, -152.105863) translate(0.000000, 0.605863)">
                            <path d="M79.6234472,156.254072 C91.2188516,156.254072 105.153827,141.999101 118.831858,144.082476 C132.509888,146.165851 151.001074,164.746088 158.121949,153.936119 C171.177983,134.11618 152.636646,98.0532195 152.636646,83.235342 C152.636646,75.4691405 169.691917,63.929723 170.637791,53.5304881 C171.583666,43.1312531 156.760782,22.9777391 149.224384,15.0796404 C136.719119,1.97420095 97.5208512,24.4639042 76.7406805,24.4639042 C69.4557231,24.4639042 63.7015471,6.12147942 54.4534938,1.69233387 C45.2054405,-2.73681168 30.747609,6.02661958 24.6201862,10.2166124 C18.0558959,14.7053396 1.54560149,29.2836574 0.404725288,45.6265268 C0.363602266,46.2156075 0.342447973,46.8069808 0.342447973,47.4002568 C0.342447973,64.4527929 6.61024845,72.7194158 6.61024845,83.235342 C6.61024845,108.939007 10.4959383,149.404741 30.56854,162.416578 C50.6411416,175.428414 65.0010888,156.254072 79.6234472,156.254072 Z" id="Oval-3" fill="#8FA290"></path>
                            <ellipse id="Oval-4" fill="#859886" cx="76.318323" cy="116.589577" rx="57.0885093" ry="21.034202"></ellipse>
                            <polygon id="Rectangle-5" fill="#F9E9CE" points="52.2810559 98.3644435 61.2950311 96.7469913 61.2950311 303 52.2810559 303"></polygon>
                            <path d="M36.7105778,103.577128 C38.3766557,103.077988 39.6340181,102.781405 40.4826651,102.68738 C41.3313121,102.593355 43.0291262,102.562521 45.5761074,102.594878 L45.9002279,165.415359 L36.8862527,165.415359 L36.7105778,103.577128 Z" id="Rectangle-5" fill="#F9E9CE" transform="translate(41.305403, 133.998905) rotate(-30.000000) translate(-41.305403, -133.998905) "></path>
                            <polygon id="Rectangle-5" fill="#F9E9CE" transform="translate(100.619879, 123.236505) rotate(-315.000000) translate(-100.619879, -123.236505) " points="96.2315366 96.7122227 104.802629 93.4877437 105.126867 152.985267 96.1128916 152.985267"></polygon>
                            <rect id="Rectangle-5" fill="#F9E9CE" x="76.318323" y="95.5553746" width="9.01397516" height="200.444625"></rect>
                        </g>
                    </g>
                    <g id="Group-2" transform="translate(1189.000000, 206.000000)">
                        <g id="Group-5" transform="translate(38.594398, 68.500000) scale(-1, 1) translate(-38.594398, -68.500000) translate(0.094398, 0.000000)">
                            <path d="M35.8977879,70.4462783 C41.1255114,70.4462783 47.4080176,64.0195041 53.5746814,64.9587821 C59.7413453,65.89806 68.0779935,74.2748565 71.2884005,69.4012424 C77.1746405,60.4655333 68.8153821,44.2067482 68.8153821,37.5261906 C68.8153821,34.0248419 76.5046559,28.8223597 76.9310983,24.1339225 C77.3575407,19.4454854 70.674726,10.3593858 67.2769826,6.79857192 C61.6390535,0.890057508 43.9667328,11.029415 34.5981086,11.029415 C31.3137261,11.029415 28.7194879,2.75983492 24.5500545,0.762979303 C20.3806212,-1.23387631 13.8623883,2.71706789 11.0998739,4.60610281 C8.14040013,6.62982047 0.696825825,13.2023739 0.182468143,20.5704656 C0.163928057,20.8360493 0.154390762,21.1026667 0.154390762,21.3701419 C0.154390762,29.0581829 2.98019371,32.7851438 2.98019371,37.5261906 C2.98019371,49.1145447 4.73203536,67.3582957 13.7816561,73.2246098 C22.8312768,79.090924 29.305379,70.4462783 35.8977879,70.4462783 Z" id="Oval-3" fill="#8FA290"></path>
                            <ellipse id="Oval-4" fill="#859886" cx="34.4076911" cy="52.5637615" rx="25.7380366" ry="9.48315285"></ellipse>
                            <polygon id="Rectangle-5" fill="#F5E2C2" points="23.570623 44.3470618 27.6345235 43.6178424 27.6345235 136.605863 23.570623 136.605863"></polygon>
                            <path d="M16.5507596,46.6971714 C17.3019016,46.472137 17.8687764,46.3384244 18.2513842,46.2960336 C18.633992,46.2536429 19.399442,46.2397415 20.5477343,46.2543296 L20.6938622,74.5765937 L16.6299617,74.5765937 L16.5507596,46.6971714 Z" id="Rectangle-5" fill="#F5E2C2" transform="translate(18.622311, 60.412660) rotate(-30.000000) translate(-18.622311, -60.412660) "></path>
                            <polygon id="Rectangle-5" fill="#F5E2C2" transform="translate(45.363912, 55.560492) rotate(-315.000000) translate(-45.363912, -55.560492) " points="43.3854526 43.6021672 47.2496818 42.1484288 47.3958626 68.9725558 43.3319621 68.9725558"></polygon>
                            <rect id="Rectangle-5" fill="#F5E2C2" x="34.4076911" y="43.0806087" width="4.06390052" height="90.3693435"></rect>
                        </g>
                    </g>
                    <g id="Group-12" transform="translate(441.894410, 335.426710)">
                        <path d="M36.2360437,106.102924 C30.3116185,74.2412632 -1.47569606,52.3636717 0.270537838,18.0180353 C0.299154856,17.4551842 1.3784128,18.4281744 1.72153862,18.8739773 C8.61471671,27.8298716 14.9936631,37.1780759 21.9018397,46.1222928 C25.1765223,50.3621195 28.2134463,54.9026478 32.256934,58.4090412 C33.03898,59.0872084 32.1801593,56.2940909 32.4896884,55.3037634 C34.6217755,48.4822242 36.69115,41.608018 39.5540318,35.0622287 C44.6006817,23.5233986 48.791285,11.3265869 56.1786381,1.14055164 C58.4540331,-1.99687177 56.3405423,8.94679912 55.7156054,12.777879 C53.9455885,23.6286966 50.7539501,34.2142542 49.0127741,45.0697828 C47.6752369,53.4087871 44.4461488,62.0901512 46.4920936,70.2827479 C47.3855263,73.8603292 50.5388054,64.0735199 53.0983566,61.4297202 C55.8460729,58.5915617 58.9377507,56.0403155 62.292155,53.9626217 C64.6663346,52.4920721 67.4351281,51.7751033 70.0869511,50.9071079 C70.5750884,50.7473307 71.2825277,50.5246776 71.6270918,50.9071079 C72.0076635,51.3295029 71.7373781,52.0575866 71.6270918,52.6165037 C71.2765346,54.3930832 70.983082,56.2157302 70.2528505,57.8715893 C66.8828382,65.513365 62.5712418,72.7214402 59.3604401,80.4321296 C55.4648964,89.7872161 52.4793289,96.5789109 49.0127741,106.102924" id="Path-14" fill="#7F9080"></path>
                        <path d="M48.9406616,106.102924 C44.9893773,84.8528485 23.7888869,70.2616295 24.9535343,47.3548711 C24.9726204,46.9794786 25.6924295,47.6284127 25.9212766,47.92574 C30.5186689,53.8988571 34.7730954,60.1336246 39.3804909,66.0989535 C41.5645344,68.926698 43.5900052,71.9549949 46.2868018,74.2935775 C46.8083859,74.7458799 46.2355971,72.8830153 46.4420369,72.2225182 C47.8640285,67.6729053 49.244194,63.0881663 51.1535877,58.7224642 C54.5194414,51.0266629 57.3143565,42.892022 62.2413379,36.0984647 C63.7589085,34.005966 62.3493197,41.304827 61.9325192,43.8599586 C60.7520097,51.0968912 58.6233524,58.1569092 57.4620783,65.3969838 C56.5700103,70.9586673 54.416376,76.7486869 55.7809151,82.2127241 C56.3767884,84.5987853 58.479862,78.071491 60.1869499,76.3082137 C62.0195342,74.4153092 64.081523,72.7137602 66.3187367,71.3280463 C67.9021914,70.347266 69.748833,69.8690849 71.5174615,69.290177 C71.8430238,69.1836139 72.314849,69.0351158 72.5446555,69.290177 C72.7984771,69.5718925 72.6182107,70.0574867 72.5446555,70.4302553 C72.310852,71.6151418 72.1151343,72.8307528 71.6281078,73.9351249 C69.3804843,79.031793 66.5048731,83.8392054 64.3634349,88.9818354 C61.7653093,95.221193 59.7740906,99.7509012 57.4620783,106.102924" id="Path-14" fill="#8FA390"></path>
                    </g>
                    <g id="Group-12" transform="translate(849.248447, 345.319218)" fill="#8FA390">
                        <path d="M24.1021523,85.409113 C20.1508679,70.7920874 -1.04962245,60.7554067 0.115025005,44.9988192 C0.134111072,44.7406026 0.853920156,45.1869768 1.08276728,45.3914957 C5.68015961,49.5001496 9.93458608,53.7887817 14.5419816,57.8920784 C16.726025,59.8371639 18.7514959,61.9202009 21.4482925,63.5288127 C21.9698766,63.8399323 21.3970878,62.5585468 21.6035276,62.1042189 C23.0255192,58.9747331 24.4056846,55.8210856 26.3150783,52.8181043 C29.6809321,47.5244891 32.4758472,41.9290146 37.4028286,37.2560147 C38.9203991,35.8166736 37.5108103,40.8372505 37.0940098,42.5948171 C35.9135003,47.5727961 33.7848431,52.429083 32.623569,57.4092233 C31.731501,61.2348694 29.5778667,65.2175783 30.9424058,68.9760577 C31.5382791,70.6173281 33.6413527,66.1274792 35.3484406,64.9145955 C37.1810249,63.6125468 39.2430137,62.4421234 41.4802274,61.4889496 C43.063682,60.8143124 44.9103237,60.4853919 46.6789521,60.0871857 C47.0045144,60.0138855 47.4763397,59.91174 47.7061462,60.0871857 C47.9599677,60.2809659 47.7797014,60.6149855 47.7061462,60.8713973 C47.4723427,61.6864304 47.276625,62.5225976 46.7895984,63.2822484 C44.541975,66.7880302 41.6663638,70.0948453 39.5249256,73.6322423 C36.9267999,77.9240317 34.9355812,81.0398259 32.623569,85.409113" id="Path-14"></path>
                        <path d="M392.033338,175.409113 C388.082054,160.792087 366.881563,150.755407 368.046211,134.998819 C368.065297,134.740603 368.785106,135.186977 369.013953,135.391496 C373.611345,139.50015 377.865772,143.788782 382.473167,147.892078 C384.657211,149.837164 386.682682,151.920201 389.379478,153.528813 C389.901062,153.839932 389.328273,152.558547 389.534713,152.104219 C390.956705,148.974733 392.33687,145.821086 394.246264,142.818104 C397.612118,137.524489 400.407033,131.929015 405.334014,127.256015 C406.851585,125.816674 405.441996,130.83725 405.025196,132.594817 C403.844686,137.572796 401.716029,142.429083 400.554755,147.409223 C399.662687,151.234869 397.509052,155.217578 398.873591,158.976058 C399.469465,160.617328 401.572538,156.127479 403.279626,154.914595 C405.112211,153.612547 407.174199,152.442123 409.411413,151.48895 C410.994868,150.814312 412.841509,150.485392 414.610138,150.087186 C414.9357,150.013885 415.407525,149.91174 415.637332,150.087186 C415.891153,150.280966 415.710887,150.614985 415.637332,150.871397 C415.403528,151.68643 415.207811,152.522598 414.720784,153.282248 C412.473161,156.78803 409.59755,160.094845 407.456111,163.632242 C404.857986,167.924032 402.866767,171.039826 400.554755,175.409113" id="Path-14"></path>
                        <path d="M424.642982,17.409113 C423.222003,12.1524695 415.597783,8.54303114 416.016619,2.876573 C416.023482,2.78371194 416.282343,2.94423913 416.364643,3.01778918 C418.017978,4.49536261 419.547975,6.03766067 421.204909,7.51330754 C421.990345,8.21280836 422.718754,8.96191992 423.688589,9.54041646 C423.876163,9.65230275 423.670174,9.19148487 423.744415,9.02809731 C424.255798,7.90265693 424.75214,6.76852736 425.438805,5.68858111 C426.649249,3.78486628 427.65437,1.77259543 429.426234,0.0920692064 C429.97199,-0.425553417 429.465067,1.37997007 429.315175,2.01203445 C428.890635,3.80223869 428.125117,5.54867945 427.707494,7.33966091 C427.386684,8.71545779 426.612184,10.1477383 427.102906,11.4993804 C427.317197,12.0896217 428.073514,10.4749611 428.687425,10.0387782 C429.346468,9.5705293 430.08801,9.14961614 430.892567,8.80683127 C431.462017,8.56421508 432.126115,8.44592716 432.762157,8.30272237 C432.879237,8.27636179 433.048917,8.23962774 433.131561,8.30272237 C433.222842,8.3724105 433.158014,8.4925322 433.131561,8.58474421 C433.04748,8.87785025 432.977095,9.17855666 432.801948,9.45174583 C431.993647,10.7125116 430.959506,11.901724 430.189392,13.1738593 C429.255042,14.7172929 428.538951,15.8378094 427.707494,17.409113" id="Path-14"></path>
                    </g>
                    <path d="M586.425466,347.765472 L813.454311,347.765472" id="Line" stroke="#C1C1C1" stroke-width="8" stroke-linecap="square"></path>
                    <path d="M586.425466,344.560261 L813.454311,344.560261" id="Line" stroke="#D8D8D8" stroke-width="8" stroke-linecap="square"></path>
                    <path d="M599.124304,351.069587 C599.080076,361.733663 599.035847,372.397739 598.991619,383.061815" id="Path-15" stroke="#D8D8D8" stroke-width="8"></path>
                    <path d="M799.434863,351.069587 C799.390635,361.733663 799.346406,372.397739 799.302178,383.061815" id="Path-15" stroke="#D8D8D8" stroke-width="8"></path>
                    <g id="Group-11" transform="translate(658.136646, 202.729642)">
                        <path d="M31.9148909,4.07811266 C34.7219815,0.751827474 32.9568359,1.41082428 37.1376213,1.91609031" id="Path-9" stroke="#2F3C4D" stroke-linecap="round"></path>
                        <path d="M44.2318593,4.07811266 C47.0389499,0.751827474 45.2738043,1.41082428 49.4545897,1.91609031" id="Path-9" stroke="#2F3C4D" stroke-linecap="round" transform="translate(46.843224, 2.789203) rotate(-330.000000) translate(-46.843224, -2.789203) "></path>
                        <g id="Group-9" transform="translate(0.000000, 7.422746)">
                            <g id="Group-10" transform="translate(14.609885, 72.638117)">
                                <g id="Group-35" transform="translate(24.276856, 0.277007)" stroke="#00A2F2">
                                    <g id="Group-39" transform="translate(0.000000, 0.000000)">
                                        <path d="M0.370070996,0.539022638 C9.42361915,4.65806051 5.57880928,2.0048902 12.1897137,7.94912241" id="Path-113"></path>
                                    </g>
                                </g>
                                <path d="M12.7371137,39.9364799 C12.6493011,45.0012409 0.741318754,49.0255013 0.429395664,53.0283762 C0.215398132,55.7745832 -0.670558851,61.8732057 2.54696891,63.3378458 C5.76449668,64.8024858 7.50085298,63.7385607 7.92397607,65.2800915 C8.19557065,66.2695705 12.5801765,59.9880737 25.2393411,58.9170565 C37.8985058,57.8460394 39.3501013,65.126715 44.6809754,65.2800915 C51.1258131,65.4655182 57.6500599,56.7477678 56.4465382,56.0424025 C50.7296121,52.6918012 42.7381466,40.0480557 35.8572106,40.7993914 C27.1502314,41.7501143 24.2054654,39.5476279 15.5365894,40.7993914 L12.7371137,39.9364799 Z" id="Path-6" fill="#263345"></path>
                                <ellipse id="Oval-5" fill="#19222F" cx="5.07169288" cy="59.0918448" rx="5.07169288" ry="6.88800645"></ellipse>
                                <ellipse id="Oval-5" fill="#19222F" transform="translate(48.543346, 59.091845) rotate(-315.000000) translate(-48.543346, -59.091845) " cx="48.5433461" cy="59.0918448" rx="5.07169288" ry="6.88800645"></ellipse>
                            </g>
                            <path d="M39.6243167,152.783525 C39.6243167,152.783525 42.9145042,155.307929 44.8528511,153.730092 C46.791198,152.152254 48.0068063,149.307774 47.2181614,148.49134 C45.4025513,146.611753 37.0744701,143.870062 36.1039823,144.291233 C29.7619766,147.043527 -6.17939714,159.981203 -8.87353649,162.953125 C-9.15021642,163.258332 -8.07579146,170.052514 -7.58013464,167.780532" id="Path-106" fill="#FF939F" transform="translate(19.271674, 156.246209) rotate(-75.000000) translate(-19.271674, -156.246209) "></path>
                            <path d="M82.0901553,152.783525 C82.0901553,152.783525 85.3803427,155.307929 87.3186896,153.730092 C89.2570365,152.152254 90.4726448,149.307774 89.6839999,148.49134 C87.8683898,146.611753 79.5403086,143.870062 78.5698208,144.291233 C72.2278151,147.043527 36.2864414,159.981203 33.592302,162.953125 C33.3156221,163.258332 34.390047,170.052514 34.8857039,167.780532" id="Path-106" fill="#FF939F" transform="translate(61.737513, 156.246209) scale(-1, 1) rotate(-75.000000) translate(-61.737513, -156.246209) "></path>
                            <path d="M37.4386502,57.5283643 C37.1409087,48.8504178 37.2234013,40.1510377 36.5454256,31.4945249 C35.9336023,23.6826572 36.2669211,23.9676559 34.8127961,21.682093 C33.3586712,19.3965301 31.7112827,17.4175542 30.871903,13.9427561 C28.6243831,4.63864995 40.9960589,-4.05186095 47.1419428,2.30156373 C56.7205187,12.2035992 47.4270548,19.1667142 47.1543258,29.6555591 C46.8971941,39.544547 49.0641492,49.5310265 47.692572,59.3276758 C47.2515062,62.4780403 39.5177673,61.6770098 38.0454156,60.2661596 L37.4386502,57.5283643 Z" id="Path-8" fill="#FF939F"></path>
                            <ellipse id="Oval-7" fill="#2F3C4D" cx="36.7079754" cy="5.99074058" rx="1.08679133" ry="1.08757997"></ellipse>
                            <ellipse id="Oval-7" fill="#2F3C4D" cx="45.4023061" cy="5.99074058" rx="1.08679133" ry="1.08757997"></ellipse>
                            <ellipse id="Oval-6" fill="#FFB0B9" cx="41.4174045" cy="19.4042268" rx="7.24527554" ry="7.2505331"></ellipse>
                            <ellipse id="Oval-6" fill="#F78592" cx="41.4174045" cy="21.5793867" rx="7.24527554" ry="7.2505331"></ellipse>
                            <path d="M42.0941435,48.7870878 C43.5302812,48.7870878 48.6626801,27.7589055 48.6626801,23.7545467 C48.6626801,19.7501878 45.4188597,16.5040136 41.4174045,16.5040136 C37.4159493,16.5040136 34.172129,19.7501878 34.172129,23.7545467 C34.172129,27.7589055 40.6580057,48.7870878 42.0941435,48.7870878 Z" id="Oval-6" fill="#2E3B4D"></path>
                            <path d="M25.6392639,69.5306533 C14.8419262,87.7030553 10.3362139,97.2150367 19.8663708,123.753019 C20.9313351,126.718552 21.9704769,132.892757 16.7147159,131.480067 C15.3966527,131.125787 15.161782,129.142139 14.8419262,127.801432 C13.0955002,120.481114 11.3589351,113.1172 10.547994,105.631643 C8.76416303,89.1656287 7.81567754,87.0060454 15.6043864,73.9862552 C17.3958748,70.9915607 30.9780286,54.2125302 30.2667217,66.4261956 L25.6392639,69.5306533 Z" id="Path-7" fill="#FF939F"></path>
                            <path d="M71.2844998,69.5306533 C60.4871621,87.7030553 55.9814497,97.2150367 65.5116067,123.753019 C66.576571,126.718552 67.6157128,132.892757 62.3599518,131.480067 C61.0418886,131.125787 60.8070179,129.142139 60.4871621,127.801432 C58.7407361,120.481114 57.004171,113.1172 56.1932299,105.631643 C54.4093989,89.1656287 53.4609134,87.0060454 61.2496223,73.9862552 C63.0411106,70.9915607 76.6232645,54.2125302 75.9119576,66.4261956 L71.2844998,69.5306533 Z" id="Path-7" fill="#FF939F" transform="translate(65.447017, 96.857217) scale(-1, 1) translate(-65.447017, -96.857217) "></path>
                            <path d="M36.8017954,117.600416 C47.5933719,118.735479 45.000083,116.572364 48.7941158,115.626779 C51.2091408,115.024883 52.0772498,103.899769 53.3115236,96.0931565 C54.5457974,88.2865444 55.9007721,86.9985987 55.8001912,85.3256717 C55.7116545,83.8530698 60.1819194,74.4222787 62.1414793,74.6283862 C62.9997807,74.7186628 63.5453703,82.7115043 65.6797667,84.1768005 C67.814163,85.6420966 72.9663737,81.1432819 73.3397856,80.0531068 C73.9791336,78.1865321 65.8071059,63.920482 65.7980381,63.0049096 C65.783331,61.5199556 59.8532941,56.921049 54.1002367,56.7818716 C48.3471793,56.6426941 54.2363299,60.1520962 45.0446522,59.3534344 C43.1345022,59.1874621 40.9117538,55.5135441 40.0402193,55.3030318 C39.3113491,55.126979 33.4909085,54.4117283 30.2168579,55.5209676 C28.962558,55.9459209 26.5982817,55.5269949 24.2886278,57.9736809 C21.978974,60.420367 16.6853278,69.3918294 15.5062495,70.6086726 C13.2596358,72.9272436 18.382427,77.5403622 21.2122244,76.4418902 C24.0420217,75.3434182 27.7113653,66.0950033 27.708118,66.6766874 C27.6748215,72.6410411 28.247684,86.7107029 27.1455559,96.4641722 C26.7665019,99.8186752 24.2039523,110.6044 25.4585234,112.526862 C26.7130945,114.449324 36.1627643,117.533202 36.8017954,117.600416 Z" id="Path-89" stroke="#00A2F2" fill="#FFFFFF" transform="translate(44.163657, 86.417745) rotate(-366.000000) translate(-44.163657, -86.417745) "></path>
                            <path d="M34.2082109,81.450029 C44.8175049,80.3596231 39.2923429,81.7947234 50.5006038,76.1723594" id="Path-10" stroke="#00A2F2"></path>
                            <path d="M64.9006548,126.136939 C64.8203449,133.196928 65.1483428,133.309243 69.9751934,128.707826" id="Path-11" stroke="#263345"></path>
                            <path d="M19.4815396,124.472789 C20.9313898,128.802178 18.8658838,133.063342 15.6281195,127.797094" id="Path-12" stroke="#263345"></path>
                        </g>
                    </g>
                    <g id="Group-15" transform="translate(717.428571, 397.446254)" stroke="#00A2F2">
                        <path d="M0.183755143,0.894683007 C11.5258314,-1.06239468 1.54734288,3.73070602 2.62539224,5.67413829 C3.70344159,7.61757057 12.7332056,3.84332828 4.93349584,9.45718465" id="Path-17"></path>
                        <path d="M0.984997379,0.894683007 C12.3270736,-1.06239468 2.34858512,3.73070602 3.42663447,5.67413829 C4.50468383,7.61757057 13.5344479,3.84332828 5.73473808,9.45718465" id="Path-17" transform="translate(4.932486, 4.945650) rotate(-180.000000) translate(-4.932486, -4.945650) "></path>
                    </g>
                    <g id="Group-15" transform="translate(676.210553, 402.178741) rotate(44.000000) translate(-676.210553, -402.178741) translate(671.710553, 397.178741)" stroke="#00A2F2">
                        <path d="M0.183755143,0.894683007 C11.5258314,-1.06239468 1.54734288,3.73070602 2.62539224,5.67413829 C3.70344159,7.61757057 12.7332056,3.84332828 4.93349584,9.45718465" id="Path-17"></path>
                        <path d="M0.984997379,0.894683007 C12.3270736,-1.06239468 2.34858512,3.73070602 3.42663447,5.67413829 C4.50468383,7.61757057 13.5344479,3.84332828 5.73473808,9.45718465" id="Path-17" transform="translate(4.932486, 4.945650) rotate(-180.000000) translate(-4.932486, -4.945650) "></path>
                    </g>
                </g>
            </g>
            <g id="Group-20" transform="translate(901.000000, 20.000000)" fill="#FFFFFF">
                <ellipse id="Oval-9" cx="21.9230769" cy="37.9411765" rx="21.9230769" ry="22.0588235"></ellipse>
                <ellipse id="Oval-9" cx="44.7230769" cy="22.0588235" rx="21.9230769" ry="22.0588235"></ellipse>
                <ellipse id="Oval-9" cx="72.7846154" cy="29.1176471" rx="21.9230769" ry="22.0588235"></ellipse>
                <ellipse id="Oval-9" cx="96.4615385" cy="42.3529412" rx="17.5384615" ry="17.6470588"></ellipse>
                <rect id="Rectangle" x="22.8" y="33.5294118" width="73.6615385" height="26.4705882"></rect>
            </g>
            <g id="Group-20" transform="translate(1221.000000, 137.000000)" fill="#FFFFFF">
                <circle id="Oval-9" cx="12.5" cy="21.5" r="12.5"></circle>
                <circle id="Oval-9" cx="25.5" cy="12.5" r="12.5"></circle>
                <circle id="Oval-9" cx="41.5" cy="16.5" r="12.5"></circle>
                <circle id="Oval-9" cx="55" cy="24" r="10"></circle>
                <rect id="Rectangle" x="13" y="19" width="42" height="15"></rect>
            </g>
            <g id="Group-20" transform="translate(433.000000, 245.000000)" fill="#FFFFFF">
                <circle id="Oval-9" cx="12.5" cy="21.5" r="12.5"></circle>
                <circle id="Oval-9" cx="25.5" cy="12.5" r="12.5"></circle>
                <circle id="Oval-9" cx="41.5" cy="16.5" r="12.5"></circle>
                <circle id="Oval-9" cx="55" cy="24" r="10"></circle>
                <rect id="Rectangle" x="13" y="19" width="42" height="15"></rect>
            </g>
            <g id="Group-20" transform="translate(292.000000, 120.000000)" fill="#FFFFFF">
                <circle id="Oval-9" cx="12.5" cy="21.5" r="12.5"></circle>
                <circle id="Oval-9" cx="25.5" cy="12.5" r="12.5"></circle>
                <circle id="Oval-9" cx="41.5" cy="16.5" r="12.5"></circle>
                <circle id="Oval-9" cx="55" cy="24" r="10"></circle>
                <rect id="Rectangle" x="13" y="19" width="42" height="15"></rect>
            </g>
            <g id="Group-20" transform="translate(212.000000, 0.000000)" fill="#FFFFFF">
                <circle id="Oval-9" cx="12.5" cy="21.5" r="12.5"></circle>
                <circle id="Oval-9" cx="25.5" cy="12.5" r="12.5"></circle>
                <circle id="Oval-9" cx="41.5" cy="16.5" r="12.5"></circle>
                <circle id="Oval-9" cx="55" cy="24" r="10"></circle>
                <rect id="Rectangle" x="13" y="19" width="42" height="15"></rect>
            </g>
        </g>
    </g>
</svg>