<svg xmlns="http://www.w3.org/2000/svg" xmlns:xlink="http://www.w3.org/1999/xlink" viewBox="0 0 328.33 210.17"><defs><style>.cls-1,.cls-7{fill:none;}.cls-2{clip-path:url(#clip-path);}.cls-3{clip-path:url(#clip-path-2);}.cls-4{fill:#e7ebee;}.cls-5{fill:#f1f2f2;}.cls-6{fill:#d3d3d3;}.cls-7{stroke:#d1d3d4;stroke-miterlimit:10;}.cls-8{fill:#27aae1;}.cls-9{fill:#ff939f;}</style><clipPath id="clip-path" transform="translate(-334.16 -337.7)"><ellipse class="cls-1" cx="498.33" cy="500.27" rx="154.45" ry="37.88"/></clipPath><clipPath id="clip-path-2" transform="translate(-334.16 -337.7)"><rect class="cls-1" width="1938.92" height="1548.42"/></clipPath></defs><title>Asset 2</title><g id="Layer_2" data-name="Layer 2"><g id="Layer_1-2" data-name="Layer 1"><g class="cls-2"><g class="cls-3"><rect class="cls-4" y="114.97" width="328.33" height="95.2"/></g></g><path class="cls-5" d="M523.74,456.12c4.7,1.21,18,8,22.52,9.77a146.17,146.17,0,0,0,32.63,8.23c3.5.49,6.84,1.43,9,4.51s1.46,4.4-.49,7.44a15.13,15.13,0,0,1-8.43,5.89c-10.26,3.22-22.87,3.05-33.41,1.26a343.19,343.19,0,0,0-49.57-4.71,2.5,2.5,0,0,1-1.49-.37c-.49-.37-1.7.13-2.07-.38-4.86-6.64-4.94-26.55,1.83-30.72,3.92-2.41,15.35.72,19.87.59C520.27,457.46,517.66,454.56,523.74,456.12Z" transform="translate(-334.16 -337.7)"/><path class="cls-6" d="M503,460.08a97.1,97.1,0,0,0,11.79.25,38.92,38.92,0,0,0,7.67-.66c.92-.2,2-.7,2.09-1.72s-1.14-1.81-2.15-2.08c-4.42-1.19-9-1.17-13.57-1.14a48.66,48.66,0,0,0-8.21.51c-2.12.37-6,1.14-7.34,3.11C496.19,459.53,499.92,459.77,503,460.08Z" transform="translate(-334.16 -337.7)"/><path class="cls-7" d="M525.77,464.25a55.44,55.44,0,0,1,7.44-6.77l2.18,9.22a11.11,11.11,0,0,0,1.55,4.08,30.76,30.76,0,0,1,9.73-8.61l5.27,12A60.12,60.12,0,0,0,556.4,470" transform="translate(-334.16 -337.7)"/><path class="cls-8" d="M490.56,488.13a2.45,2.45,0,0,0,1.7.62l52,4.9c4.33.41,8.66.82,13,.94a98.08,98.08,0,0,0,15.09-.75,26.69,26.69,0,0,0,9.55-2.63,12.53,12.53,0,0,0,6.35-7.87,20,20,0,0,1-10.32,6.57,45.6,45.6,0,0,1-12,1.38c-4.2.05-8.39,0-12.58-.22A94.89,94.89,0,0,1,540,489.81c-2.85-.53-5.67-1.28-8.54-1.73a144.64,144.64,0,0,0-21.14-1.43c-4.47,0-7.49-1.23-11.81-2.58-1.67-.52-7-2.52-8.65-2.46C489.86,481.6,489.55,487,490.56,488.13Z" transform="translate(-334.16 -337.7)"/><path class="cls-5" d="M466,476.64c5.54,1.38,21.18,9.16,26.53,11.21a176,176,0,0,0,38.43,9.43c4.13.56,8.06,1.64,10.57,5.17s1.72,5-.58,8.53-6.08,5.58-9.93,6.76c-12.09,3.69-26.94,3.5-39.36,1.44a415,415,0,0,0-58.39-5.41,3,3,0,0,1-1.76-.42c-.57-.43-2,.15-2.44-.43-5.73-7.62-5.82-30.45,2.16-35.23,4.61-2.77,18.08.83,23.4.68C461.9,478.18,458.82,474.85,466,476.64Z" transform="translate(-334.16 -337.7)"/><path class="cls-6" d="M441.55,481.19a117.51,117.51,0,0,0,13.89.29,47.07,47.07,0,0,0,9-.75c1.08-.23,2.37-.8,2.47-2s-1.34-2.08-2.54-2.39c-5.2-1.36-10.63-1.34-16-1.31a58.87,58.87,0,0,0-9.68.59c-2.49.43-7,1.3-8.65,3.56C433.52,480.55,437.92,480.82,441.55,481.19Z" transform="translate(-334.16 -337.7)"/><path class="cls-7" d="M468.37,486a64.72,64.72,0,0,1,8.77-7.76l2.57,10.58a12.53,12.53,0,0,0,1.83,4.67A36,36,0,0,1,493,483.58l6.21,13.79a70.06,70.06,0,0,0,5.26-4.84" transform="translate(-334.16 -337.7)"/><path class="cls-8" d="M426.89,513.35a2.93,2.93,0,0,0,2,.71l61.28,5.62c5.1.47,10.2.94,15.31,1.07a118.68,118.68,0,0,0,17.77-.86,32.11,32.11,0,0,0,11.25-3,14.45,14.45,0,0,0,7.48-9,23.66,23.66,0,0,1-12.16,7.53A55.12,55.12,0,0,1,515.66,517c-4.94.06-9.88-.06-14.82-.25a114.75,114.75,0,0,1-15.7-1.44c-3.36-.6-6.68-1.47-10.06-2a175,175,0,0,0-24.9-1.64c-5.27,0-8.83-1.41-13.91-3-2-.6-8.21-2.89-10.19-2.82C426.07,505.86,425.71,512,426.89,513.35Z" transform="translate(-334.16 -337.7)"/><path class="cls-9" d="M429.29,392.84c-1.46-15.8-8.25-40.45-1.15-54.64,0,0,17.78-1.4,23.49.48,5.42,45.06,2.74,89.15.12,134.46-.11,1.82-.67,7-1.86,8.34L437,481.33c-3.21-6.41-1.83-24.89-2.5-32.09Z" transform="translate(-334.16 -337.7)"/><path class="cls-9" d="M489.52,384.64c-1.46-13.45-8.25-34.44-1.15-46.51,0,0,17.78-1.19,23.49.41,5.42,38.36,2.74,75.9.12,114.47-.11,1.55-.67,5.92-1.86,7.1L497.24,460c-3.21-5.46-1.83-21.19-2.5-27.32Z" transform="translate(-334.16 -337.7)"/></g></g></svg>