<?xml version="1.0" encoding="UTF-8"?>
<svg width="292px" height="421px" viewBox="0 0 292 421" version="1.1" xmlns="http://www.w3.org/2000/svg" xmlns:xlink="http://www.w3.org/1999/xlink">
    <!-- Generator: Sketch 46.2 (44496) - http://www.bohemiancoding.com/sketch -->
    <title>Group 3</title>
    <desc>Created with Sketch.</desc>
    <defs>
        <filter x="-13.5%" y="-9.8%" width="126.9%" height="127.5%" filterUnits="objectBoundingBox" id="filter-1">
            <feOffset dx="0" dy="2" in="SourceAlpha" result="shadowOffsetOuter1"></feOffset>
            <feGaussianBlur stdDeviation="2" in="shadowOffsetOuter1" result="shadowBlurOuter1"></feGaussianBlur>
            <feColorMatrix values="0 0 0 0 0   0 0 0 0 0   0 0 0 0 0  0 0 0 0.2 0" type="matrix" in="shadowBlurOuter1" result="shadowMatrixOuter1"></feColorMatrix>
            <feMerge>
                <feMergeNode in="shadowMatrixOuter1"></feMergeNode>
                <feMergeNode in="SourceGraphic"></feMergeNode>
            </feMerge>
        </filter>
    </defs>
    <g id="App" stroke="none" stroke-width="1" fill="none" fill-rule="evenodd">
        <g id="Group-3" transform="translate(0.000000, 2.000000)">
            <g id="Group-2" transform="translate(170.373952, 189.373952) rotate(-380.000000) translate(-170.373952, -189.373952) translate(138.873952, 157.873952)" fill="#90D7DE">
                <path d="M20.0583154,13.4583916 L42.837754,13.4583916 L42.837754,18.0014857 C42.837754,18.0014857 37.8580179,17.8700792 37.8580179,22.188408 C37.8580179,26.5067367 42.837754,26.5711232 42.837754,26.5711232 L42.837754,36.0177139 C42.837754,36.0177139 37.8580179,35.8603827 37.8580179,40.3854724 C37.8580179,44.9105622 42.837754,44.5637164 42.837754,44.5637164 L42.837754,48.7914972 L20.0583154,48.7914972 L20.0583154,44.5423351 C20.0583154,44.5637164 25.1955914,45.0202313 25.1955914,40.3854724 C25.1955914,35.7507136 20.0583154,36.0177139 20.0583154,36.0177139 L20.0583154,26.5711232 C20.0583154,26.5711232 24.9889491,26.6084161 24.9889491,22.188408 C24.9889491,17.7683998 20.181249,18.0354725 20.0583154,18.0354725 L20.0583154,13.4583916 Z" id="Rectangle-28" transform="translate(31.448035, 31.124944) rotate(-30.000000) translate(-31.448035, -31.124944) "></path>
                <rect id="Rectangle-27" transform="translate(31.401366, 31.357652) rotate(-300.000000) translate(-31.401366, -31.357652) " x="26.624676" y="8.60972734" width="9.55338025" height="45.4958495" rx="4.77669013"></rect>
                <rect id="Rectangle-27" transform="translate(22.232262, 15.794991) rotate(-300.000000) translate(-22.232262, -15.794991) " x="17.4555717" y="-7.0567069" width="9.55338025" height="45.7033957" rx="4.77669013"></rect>
                <rect id="Rectangle-27" transform="translate(40.564921, 46.898748) rotate(-300.000000) translate(-40.564921, -46.898748) " x="35.7882307" y="23.9556153" width="9.55338025" height="45.8862651" rx="4.77669013"></rect>
            </g>
            <g id="Group-69">
                <polyline id="Line-7" stroke="#D4F1FF" stroke-width="5" stroke-linecap="round" transform="translate(136.924571, 23.268699) rotate(-240.000000) translate(-136.924571, -23.268699) " points="115.442766 31.4095219 120.330733 20.2370239 130.269593 30.1758832 141.121912 19.3235635 147.666301 25.8679519 158.406376 15.1278763"></polyline>
                <circle id="Oval-12" fill="#DFBFED" cx="117.040931" cy="54" r="4"></circle>
                <rect id="Rectangle-18" fill="#656F7E" transform="translate(142.540931, 54.000000) rotate(40.000000) translate(-142.540931, -54.000000) " x="139.040931" y="45" width="7" height="18"></rect>
                <path d="M85,56.9384622 C97.5086026,56.9384622 89.4468607,35.5733055 89.5588701,31.9664099 C89.6009054,30.6128047 91.1768008,29.6348711 92.4074085,29.0695229 C96.3432472,27.2613763 101.405402,27.7490186 104.74436,24.9901097 C107.829416,22.4409945 108.41751,17.8788364 110.254086,14.3231997" id="Path-47" stroke="#C7F4C9" stroke-width="3" stroke-linecap="round" transform="translate(97.627043, 35.630831) rotate(-30.000000) translate(-97.627043, -35.630831) "></path>
                <g id="Group-65" transform="translate(0.000000, 45.000000)">
                    <circle id="Oval-13" fill="#F0F6FB" cx="146" cy="228" r="146"></circle>
                    <circle id="Oval-13" fill="#F0F6FB" cx="146" cy="228" r="146"></circle>
                    <path d="M39.4975638,326.685372 C50.9812147,325.931939 62.5281424,325.839905 73.9485164,324.425073 C95.9351645,321.70122 87.3699128,318.494118 110.815287,313.222451 C125.763503,309.861361 140.957722,307.610691 156.152608,305.625871 C178.597958,302.693965 192.080026,307.719806 216.934602,309.333529 C227.639702,310.028575 246.661501,306.917399 274,300 C269.158423,308.433729 266.577075,312.822903 266.255953,313.167523 C256.27941,323.87412 247.225573,335.769012 235.383173,344.391501 C169.53326,392.337033 97.8722004,374.831481 35,330.107403 L39.4975638,326.685372 Z" id="Path-60" fill="#EFF2F9"></path>
                    <path d="M123.19462,340.824119 C109.116842,375.061423 166.974319,375.221925 177.277357,365.356912 C189.438759,353.712541 168.868283,337.559902 157.585416,338.009171 C147.153952,338.424539 136.782184,339.799929 126.380568,340.695308 L123.19462,340.824119 Z" id="Path-65" fill="#EAEDF5"></path>
                    <g id="Group-63" transform="translate(137.000000, 353.000000) scale(-1, 1) translate(-137.000000, -353.000000) translate(128.000000, 341.000000)">
                        <path d="M15.0527302,0.692229115 C20.8080454,4.22304436 13.7074647,9.05092306 11.5361308,12.8865207 C9.94468051,15.6977712 7.43230671,19.6109551 5.76510763,22.3745881 C4.4329032,24.5829171 0.276846884,24.0382298 0.784129333,21.0980533 C2.32294992,12.1791479 6.97206281,2.48068088 14.1662886,0.84497914 L15.0527302,0.692229115 Z" id="Path-58" fill="#C6DFEC"></path>
                        <ellipse id="Oval-16" fill="#FF939F" cx="12.4285714" cy="3.11111111" rx="2.14285714" ry="2.22222222"></ellipse>
                        <path d="M3.95863679,23.4913836 C8.52808411,19.1885075 5.91066424,23.1696723 17.1279175,3.89746728" id="Path-59" stroke="#B3CFDE"></path>
                    </g>
                    <g id="Group-63" transform="translate(164.000000, 353.000000) scale(-1, 1) translate(-164.000000, -353.000000) translate(155.000000, 341.000000)">
                        <path d="M15.0527302,0.692229115 C20.8080454,4.22304436 13.7074647,9.05092306 11.5361308,12.8865207 C9.94468051,15.6977712 7.43230671,19.6109551 5.76510763,22.3745881 C4.4329032,24.5829171 0.276846884,24.0382298 0.784129333,21.0980533 C2.32294992,12.1791479 6.97206281,2.48068088 14.1662886,0.84497914 L15.0527302,0.692229115 Z" id="Path-58" fill="#C6DFEC"></path>
                        <ellipse id="Oval-16" fill="#FF939F" cx="12.4285714" cy="3.11111111" rx="2.14285714" ry="2.22222222"></ellipse>
                        <path d="M3.95863679,23.4913836 C8.52808411,19.1885075 5.91066424,23.1696723 17.1279175,3.89746728" id="Path-59" stroke="#B3CFDE"></path>
                    </g>
                    <rect id="Rectangle-23" fill="#FF939F" x="132" y="333" width="4" height="11"></rect>
                    <rect id="Rectangle-23" fill="#FF939F" x="159" y="333" width="4" height="11"></rect>
                    <path d="M7,272.829345 C53.6264144,270.823689 41.048514,267.462961 87.2922793,281.933468 C141.126819,298.779264 164.620028,301.370978 166.803629,304.818042 C170.2392,310.241483 127.581373,310.167829 118.175738,312.922434 C81.71021,323.602004 99.0977111,327.042179 56.9213321,330.337612 C54.771921,330.505555 38.2286817,332.917662 34.1814924,327.347697 C20.5087944,308.530578 15.9290903,296.112627 7.06363936,276.227994 L7,272.829345 Z" id="Path-64" fill="#D4DBEA"></path>
                    <g id="Group-61" transform="translate(73.000000, 0.000000)">
                        <g id="Group-79" transform="translate(78.439560, 87.530303) scale(-1, 1) translate(-78.439560, -87.530303) translate(59.439560, 37.030303)">
                            <path d="M31.1123676,100.526034 C30.6246752,91.8748548 24.9666022,64.5481347 25.9104884,55.9341396 C26.6783723,48.9263584 37.4946078,34.5738039 37.0806283,20.7831928 C37.0133197,18.5409865 34.8631278,0.334808955 21.6948786,0.334808955 C5.35897196,0.334808955 4.97039641,8.19610222 2.57986021,12.9166999 C-3.96819872,25.8471678 9.79445962,45.1355495 12.5206013,47.5127407 C22.1781867,55.9341396 12.3811759,99.11628 25.9104884,100.526034 L31.1123676,100.526034 Z" id="Path-26" fill="#FF939F"></path>
                            <g id="Group-60" transform="translate(12.307692, 7.909091)" fill="#263345">
                                <ellipse id="Oval-3" cx="11.5637797" cy="1.60920307" rx="1.62303349" ry="1.60920307"></ellipse>
                                <ellipse id="Oval-3" cx="1.9733604" cy="1.54963201" rx="1.56295045" ry="1.54963201"></ellipse>
                            </g>
                        </g>
                        <path d="M43.8131868,223.304622 C58.2878843,223.80587 42.4776564,217.506594 44.0396006,222.880933" id="Path-37" fill="#D8D8D8" transform="translate(46.890110, 222.015152) scale(-1, 1) translate(-46.890110, -222.015152) "></path>
                        <path d="M77.2197802,176.757576 C81.3223443,175 85.4249084,173.242424 89.5274725,171.484848" id="Path-54" stroke="#00A2F2" transform="translate(83.373626, 174.121212) scale(-1, 1) translate(-83.373626, -174.121212) "></path>
                        <polygon id="Star" fill="#FFBC51" points="101.350618 15.2817101 90.956044 18.0200319 98.525686 10.3906371 95.7863266 0 103.418612 7.56677476 113.813187 4.82845299 106.243545 12.4578478 108.982904 22.8484848"></polygon>
                        <polygon id="Star" fill="#FFBC51" points="122.99687 25.1800076 117 26.7598086 121.367101 22.3582347 119.786702 16.3636364 124.189943 20.7290833 130.186813 19.1492823 125.819712 23.5508562 127.400112 29.5454545"></polygon>
                        <path d="M52.0654232,189.775344 C52.1824031,195.77627 53.8027457,203.565567 53.7532523,209.56799 C53.6903609,217.195283 52.9107163,219.970345 56.0162987,222.559405 C58.7996401,224.879819 60.0278192,221.876653 62.5456468,224.63969 C67.1387221,229.680082 82.9823763,230.924451 87.4509708,227.727886 C93.0156141,223.747275 89.299426,206.665443 91.184021,186.244087 C93.0686161,165.822731 87.4277775,165.153143 91.184021,154.947121 C98.7294329,134.445618 88.9283596,131.777298 82.90993,130.2435 C81.2320104,129.815882 78.8613591,129.281212 78.5368804,129.303718 C76.8168844,129.423016 82.0064194,136.33131 71.7481642,136.33131 C70.9527984,136.33131 67.242263,135.463381 67.1946617,130.2435 C67.1778038,128.394887 48.6258651,134.390709 51.0676508,142.525583 C53.0954687,148.089614 53.9906692,155.317786 53.7532523,164.2101 C53.397127,177.548571 51.8664812,179.569871 52.0654232,189.775344 Z" id="Path-23" fill="#FFFFFF" transform="translate(72.384615, 179.393939) scale(-1, 1) translate(-72.384615, -179.393939) "></path>
                        <g id="Group-4" transform="translate(7.157438, 64.683738) scale(-1, 1) rotate(87.000000) translate(-7.157438, -64.683738) translate(-6.842562, 58.683738)">
                            <path d="M26.8527234,4.66920617 C23.7593134,4.87400948 11.0617611,5.02247509 7.98769651,4.4302555 C5.83880588,4.01627098 4.0367269,0.441207543 1.88766111,0.852832133 C0.768971186,1.06710211 -0.560378163,5.66390667 0.560069634,5.85291733 L6.88710811,10.7526201 C10.7375871,11.4021654 23.7318895,10.7498155 27.5837696,10.1221366 L26.8527234,4.66920617 Z" id="Path-27" fill="#FF939F"></path>
                            <path d="M5.22395173,7.72359656 C4.19469817,2.86456262 1.94615793,-4.74113351 0.0359598007,4.05510713" id="Path-28" stroke="#263345"></path>
                        </g>
                        <path d="M57,134.640215 C35.2725173,133.448991 22.9961221,127.937128 16.3675711,104.912626 C14.9728733,100.068095 14.3735221,94.9985426 13.9263578,89.9690086 C13.5782143,86.0532221 14.4516004,78.2313994 11.8930519,75.2973988 C9.49196544,72.5439669 4.7106069,74.3060091 3.18229658,77.6483188 C-0.0528810476,84.7234302 2.57406895,93.3276318 3.51637939,101.078951 C7.03066398,129.986987 29.302183,142.389929 55.5149548,145.121212" id="Path-4" fill="#FFFFFF"></path>
                        <g id="Group-6" transform="translate(97.487657, 218.928798) scale(-1, 1) rotate(-128.000000) translate(-97.487657, -218.928798) translate(83.987657, 213.428798)">
                            <path d="M26.6184351,1.9588645 C23.5914239,2.16805645 10.8109173,4.72446721 7.80283642,4.1195572 C5.70007097,3.69670159 3.93667297,0.0450296425 1.83373612,0.46547476 C0.739058482,0.68433624 -0.561756853,5.37964375 0.534640928,5.57270464 L6.72587176,10.577401 C10.4937016,11.2408651 14.2642734,9.29514276 18.0334743,8.65401364 L26.2840626,6.43172418 L26.6184351,1.9588645 Z" id="Path-27" fill="#FF939F"></path>
                            <path d="M5.09841444,8.48717115 C4.09125345,3.52401505 1.89097733,-4.24466028 0.0217809271,4.74007123" id="Path-28" stroke="#263345"></path>
                        </g>
                        <path d="M122.934066,204.069494 C101.379243,202.878843 89.2004032,197.369629 82.6245266,174.356192 C81.240912,169.513989 80.6463236,164.446873 80.2027127,159.419756 C79.8573357,155.505851 79.8429981,150.037577 77.3047814,147.104987 C74.9227754,144.352878 73.5725339,142.797126 72.0563685,146.137829 C68.8468995,153.20954 68.9406359,162.776765 69.8754582,170.524359 C73.3618162,199.418502 95.4563524,211.815484 121.460822,214.545455" id="Path-4" fill="#FFFFFF" transform="translate(96.120879, 179.393939) scale(-1, -1) rotate(-330.000000) translate(-96.120879, -179.393939) "></path>
                    </g>
                    <g id="Group-62" transform="translate(144.000000, 54.000000)">
                        <ellipse id="Oval-15" fill="#FFA8B2" cx="7.94117647" cy="8.7804878" rx="5.29411765" ry="8.7804878"></ellipse>
                        <ellipse id="Oval-15" fill="#FA8692" cx="7.5" cy="15.3658537" rx="7.5" ry="12.7317073"></ellipse>
                        <path d="M7.5,36 C12.5,26.0916567 15,19.4637271 15,16.1162111 C15,11.0949371 11.6421356,7.02439024 7.5,7.02439024 C3.35786438,7.02439024 0,11.0949371 0,16.1162111 C0,19.4637271 2.5,26.0916567 7.5,36 Z" id="Oval-15" fill="#263345"></path>
                    </g>
                    <path d="M139,68.6880195 C142.269598,87.5540142 159.310682,82.9337122 164,67" id="Path-49" stroke="#263345"></path>
                    <path d="M137,71 C138.804297,67.1019718 137.431434,67.6267947 141,69.0900992" id="Path-50" stroke="#263345"></path>
                    <path d="M162,69 C163.804297,65.1019718 162.431434,65.6267947 166,67.0900992" id="Path-50" stroke="#263345" transform="translate(164.000000, 67.500000) rotate(-315.000000) translate(-164.000000, -67.500000) "></path>
                    <path d="M153,35.2510773 C160.457014,32.2341299 156.788371,32.0259958 164,36" id="Path-51" stroke="#263345"></path>
                    <path d="M135,35.2510773 C142.457014,32.2341299 138.788371,32.0259958 146,36" id="Path-51" stroke="#263345" transform="translate(140.500000, 34.500000) rotate(-29.000000) translate(-140.500000, -34.500000) "></path>
                    <path d="M128.105013,226.280441 C128.105013,226.280441 127.512645,303.939347 126.011233,332.353636 C125.525345,341.549084 140.96288,337.467424 141.233094,334.33716 C142.524936,319.371924 140.157251,288.44993 141.233094,269.929813 C141.863822,259.072121 145.932292,253.566668 147,253.100757 C148.914811,252.2652 152.243932,265.147842 152.550513,267.993623 C155.149248,292.115938 153.486071,308.977116 154.776567,332.353636 C155.108785,338.371571 164.465687,339.13541 165.537536,334.33716 C171.12164,309.339305 166.061727,248.323738 161.681841,224.432954 C161.515549,223.525887 160.864026,222.331637 159.93977,222.278565 C150.207961,221.719752 136.646314,222.153475 126.899154,222.278565 C127.70306,224.946482 128.105013,226.280441 128.105013,226.280441 Z" id="Path-52" fill="#656F7E"></path>
                    <path d="M156,230 C156.887077,243.095821 154.38808,238.087077 161,246" id="Path-53" stroke="#979797"></path>
                    <path d="M137,231 C136.494921,241.940078 137.910217,236.968194 133,246" id="Path-57" stroke="#979797"></path>
                    <path d="M208.889034,96 C201.667041,101.77901 190.416533,120.886357 199.22749,130.302453 C202.629918,133.938561 208.885184,135.502302 210.319052,140.291279 C211.132553,143.008292 205.359354,143.360682 203.85515,145.75838 C199.208977,153.164368 200.999122,167.814118 205.051864,174.843245 C211.050169,185.246784 227.719611,187.638528 238.222251,185.893886 C240.875217,185.453189 242.559242,180.440073 245.026503,181.519096 C247.28266,182.505796 244.710641,186.541982 245.246084,188.965664 C246.919904,196.542209 250.886426,202.654635 258.920463,204.111086 C263.276801,204.900825 267.743574,205.027973 272.169404,204.99547 C277.281444,204.957927 291.642087,198.532269 288.574816,191.995858 C275.457291,164.042169 274.134495,150.858352 253.681462,130.302453 C241.935956,118.497875 227.281025,106.442401 213.395925,97.5220275 L208.889034,96 Z" id="Path-61" fill="#FFFFFF"></path>
                    <g id="Group-64" transform="translate(193.000000, 270.000000)" stroke="#C7D1E5">
                        <path d="M9.48112487,35.556005 C13.5195631,35.782385 31.0751954,37.4513751 25.0511838,25.8521872 C24.505721,24.8019028 22.2250876,25.1017913 22.0780067,23.9263958 C21.6900463,20.8260127 24.2935526,17.7447332 23.6540141,14.6867143 C23.3740227,13.3479068 20.7825622,14.205646 19.8388095,13.2194446 C15.1944667,8.3662061 16.1981183,7.1205751 11.4222593,3.51375532 C8.78376011,1.52111043 3.17100889,-1.40458083 0.297062832,2.65285731 C-0.912468401,4.36047396 7.20412932,19.3951178 8.04669733,22.071722 C9.50762706,26.7126893 7.93040953,32.9651869 11.2229297,36.905369" id="Path-63" fill="#DFE3EE"></path>
                        <path d="M18.8999114,55.768393 C19.4827641,27.436897 22.3313426,39.0361836 14.9803847,20.1440591" id="Path-62" stroke-width="3" stroke-linecap="round"></path>
                    </g>
                </g>
                <g id="Group-91" filter="url(#filter-1)" transform="translate(92.504866, 92.930413) rotate(98.000000) translate(-92.504866, -92.930413) translate(66.504866, 67.430413)">
                    <rect id="Rectangle-71" fill="#263345" transform="translate(26.000000, 25.500000) rotate(-45.000000) translate(-26.000000, -25.500000) " x="24" y="-8" width="4" height="67"></rect>
                    <rect id="Rectangle-71" fill="#FFFFFF" transform="translate(10.139173, 9.990268) rotate(-45.000000) translate(-10.139173, -9.990268) " x="8.1391731" y="-1.00973193" width="4" height="22"></rect>
                </g>
            </g>
        </g>
    </g>
</svg>