<?xml version="1.0" encoding="UTF-8"?>
<svg width="292px" height="344px" viewBox="0 0 292 344" version="1.1" xmlns="http://www.w3.org/2000/svg" xmlns:xlink="http://www.w3.org/1999/xlink">
    <!-- Generator: Sketch 46.2 (44496) - http://www.bohemiancoding.com/sketch -->
    <title>Group 3</title>
    <desc>Created with Sketch.</desc>
    <defs></defs>
    <g id="App" stroke="none" stroke-width="1" fill="none" fill-rule="evenodd">
        <g id="Group-3">
            <g id="Group-2" transform="translate(175.373952, 112.373952) rotate(-380.000000) translate(-175.373952, -112.373952) translate(143.873952, 80.873952)" fill="#90D7DE">
                <path d="M20.0583154,13.4583916 L42.837754,13.4583916 L42.837754,18.0014857 C42.837754,18.0014857 37.8580179,17.8700792 37.8580179,22.188408 C37.8580179,26.5067367 42.837754,26.5711232 42.837754,26.5711232 L42.837754,36.0177139 C42.837754,36.0177139 37.8580179,35.8603827 37.8580179,40.3854724 C37.8580179,44.9105622 42.837754,44.5637164 42.837754,44.5637164 L42.837754,48.7914972 L20.0583154,48.7914972 L20.0583154,44.5423351 C20.0583154,44.5637164 25.1955914,45.0202313 25.1955914,40.3854724 C25.1955914,35.7507136 20.0583154,36.0177139 20.0583154,36.0177139 L20.0583154,26.5711232 C20.0583154,26.5711232 24.9889491,26.6084161 24.9889491,22.188408 C24.9889491,17.7683998 20.181249,18.0354725 20.0583154,18.0354725 L20.0583154,13.4583916 Z" id="Rectangle-28" transform="translate(31.448035, 31.124944) rotate(-30.000000) translate(-31.448035, -31.124944) "></path>
                <rect id="Rectangle-27" transform="translate(31.401366, 31.357652) rotate(-300.000000) translate(-31.401366, -31.357652) " x="26.624676" y="8.60972734" width="9.55338025" height="45.4958495" rx="4.77669013"></rect>
                <rect id="Rectangle-27" transform="translate(22.232262, 15.794991) rotate(-300.000000) translate(-22.232262, -15.794991) " x="17.4555717" y="-7.0567069" width="9.55338025" height="45.7033957" rx="4.77669013"></rect>
                <rect id="Rectangle-27" transform="translate(40.564921, 46.898748) rotate(-300.000000) translate(-40.564921, -46.898748) " x="35.7882307" y="23.9556153" width="9.55338025" height="45.8862651" rx="4.77669013"></rect>
            </g>
            <g id="Group-65">
                <circle id="Oval-13" fill="#F0F6FB" cx="146" cy="198" r="146"></circle>
                <path d="M39.4975638,296.685372 C50.9812147,295.931939 62.5281424,295.839905 73.9485164,294.425073 C95.9351645,291.70122 87.3699128,288.494118 110.815287,283.222451 C125.763503,279.861361 140.957722,277.610691 156.152608,275.625871 C178.597958,272.693965 192.080026,277.719806 216.934602,279.333529 C227.639702,280.028575 246.661501,276.917399 274,270 C269.158423,278.433729 266.577075,282.822903 266.255953,283.167523 C256.27941,293.87412 247.225573,305.769012 235.383173,314.391501 C169.53326,362.337033 97.8722004,344.831481 35,300.107403 L39.4975638,296.685372 Z" id="Path-60" fill="#EFF2F9"></path>
                <path d="M123.19462,310.824119 C109.116842,345.061423 166.974319,345.221925 177.277357,335.356912 C189.438759,323.712541 168.868283,307.559902 157.585416,308.009171 C147.153952,308.424539 136.782184,309.799929 126.380568,310.695308 L123.19462,310.824119 Z" id="Path-65" fill="#EAEDF5"></path>
                <g id="Group-63" transform="translate(137.000000, 323.000000) scale(-1, 1) translate(-137.000000, -323.000000) translate(128.000000, 311.000000)">
                    <path d="M15.0527302,0.692229115 C20.8080454,4.22304436 13.7074647,9.05092306 11.5361308,12.8865207 C9.94468051,15.6977712 7.43230671,19.6109551 5.76510763,22.3745881 C4.4329032,24.5829171 0.276846884,24.0382298 0.784129333,21.0980533 C2.32294992,12.1791479 6.97206281,2.48068088 14.1662886,0.84497914 L15.0527302,0.692229115 Z" id="Path-58" fill="#C6DFEC"></path>
                    <ellipse id="Oval-16" fill="#FF939F" cx="12.4285714" cy="3.11111111" rx="2.14285714" ry="2.22222222"></ellipse>
                    <path d="M3.95863679,23.4913836 C8.52808411,19.1885075 5.91066424,23.1696723 17.1279175,3.89746728" id="Path-59" stroke="#B3CFDE"></path>
                </g>
                <g id="Group-63" transform="translate(164.000000, 323.000000) scale(-1, 1) translate(-164.000000, -323.000000) translate(155.000000, 311.000000)">
                    <path d="M15.0527302,0.692229115 C20.8080454,4.22304436 13.7074647,9.05092306 11.5361308,12.8865207 C9.94468051,15.6977712 7.43230671,19.6109551 5.76510763,22.3745881 C4.4329032,24.5829171 0.276846884,24.0382298 0.784129333,21.0980533 C2.32294992,12.1791479 6.97206281,2.48068088 14.1662886,0.84497914 L15.0527302,0.692229115 Z" id="Path-58" fill="#C6DFEC"></path>
                    <ellipse id="Oval-16" fill="#FF939F" cx="12.4285714" cy="3.11111111" rx="2.14285714" ry="2.22222222"></ellipse>
                    <path d="M3.95863679,23.4913836 C8.52808411,19.1885075 5.91066424,23.1696723 17.1279175,3.89746728" id="Path-59" stroke="#B3CFDE"></path>
                </g>
                <rect id="Rectangle-23" fill="#FF939F" x="132" y="303" width="4" height="11"></rect>
                <rect id="Rectangle-23" fill="#FF939F" x="159" y="303" width="4" height="11"></rect>
                <path d="M7,242.829345 C53.6264144,240.823689 41.048514,237.462961 87.2922793,251.933468 C141.126819,268.779264 164.620028,271.370978 166.803629,274.818042 C170.2392,280.241483 127.581373,280.167829 118.175738,282.922434 C81.71021,293.602004 99.0977111,297.042179 56.9213321,300.337612 C54.771921,300.505555 38.2286817,302.917662 34.1814924,297.347697 C20.5087944,278.530578 15.9290903,266.112627 7.06363936,246.227994 L7,242.829345 Z" id="Path-64" fill="#D4DBEA"></path>
                <g id="Group-61" transform="translate(50.000000, 0.000000)">
                    <g id="Group-79" transform="translate(101.439560, 57.530303) scale(-1, 1) translate(-101.439560, -57.530303) translate(82.439560, 7.030303)">
                        <path d="M31.1123676,100.526034 C30.6246752,91.8748548 24.9666022,64.5481347 25.9104884,55.9341396 C26.6783723,48.9263584 37.4946078,34.5738039 37.0806283,20.7831928 C37.0133197,18.5409865 34.8631278,0.334808955 21.6948786,0.334808955 C5.35897196,0.334808955 4.97039641,8.19610222 2.57986021,12.9166999 C-3.96819872,25.8471678 9.79445962,45.1355495 12.5206013,47.5127407 C22.1781867,55.9341396 12.3811759,99.11628 25.9104884,100.526034 L31.1123676,100.526034 Z" id="Path-26" fill="#FF939F"></path>
                        <g id="Group-60" transform="translate(12.307692, 7.909091)" fill="#263345">
                            <ellipse id="Oval-3" cx="11.5637797" cy="1.60920307" rx="1.62303349" ry="1.60920307"></ellipse>
                            <ellipse id="Oval-3" cx="1.9733604" cy="1.54963201" rx="1.56295045" ry="1.54963201"></ellipse>
                        </g>
                    </g>
                    <path d="M66.8131868,193.304622 C81.2878843,193.80587 65.4776564,187.506594 67.0396006,192.880933" id="Path-37" fill="#D8D8D8" transform="translate(69.890110, 192.015152) scale(-1, 1) translate(-69.890110, -192.015152) "></path>
                    <path d="M100.21978,146.757576 C104.322344,145 108.424908,143.242424 112.527473,141.484848" id="Path-54" stroke="#00A2F2" transform="translate(106.373626, 144.121212) scale(-1, 1) translate(-106.373626, -144.121212) "></path>
                    <polygon id="Star" fill="#FFBC51" points="54.3506184 15.2817101 43.956044 18.0200319 51.525686 10.3906371 48.7863266 0 56.4186124 7.56677476 66.8131868 4.82845299 59.2435448 12.4578478 61.9829042 22.8484848"></polygon>
                    <polygon id="Star" fill="#FFBC51" points="5.99686986 35.1800076 0 36.7598086 4.36710118 32.3582347 2.78670152 26.3636364 7.18994333 30.7290833 13.1868132 29.1492823 8.819712 33.5508562 10.4001117 39.5454545"></polygon>
                    <path d="M75.0654232,159.775344 C75.1824031,165.77627 76.8027457,173.565567 76.7532523,179.56799 C76.6903609,187.195283 75.9107163,189.970345 79.0162987,192.559405 C81.7996401,194.879819 83.0278192,191.876653 85.5456468,194.63969 C90.1387221,199.680082 105.982376,200.924451 110.450971,197.727886 C116.015614,193.747275 112.299426,176.665443 114.184021,156.244087 C116.068616,135.822731 110.427777,135.153143 114.184021,124.947121 C121.729433,104.445618 111.92836,101.777298 105.90993,100.2435 C104.23201,99.8158823 101.861359,99.2812119 101.53688,99.3037177 C99.8168844,99.423016 105.006419,106.33131 94.7481642,106.33131 C93.9527984,106.33131 90.242263,105.463381 90.1946617,100.2435 C90.1778038,98.3948874 71.6258651,104.390709 74.0676508,112.525583 C76.0954687,118.089614 76.9906692,125.317786 76.7532523,134.2101 C76.397127,147.548571 74.8664812,149.569871 75.0654232,159.775344 Z" id="Path-23" fill="#FFFFFF" transform="translate(95.384615, 149.393939) scale(-1, 1) translate(-95.384615, -149.393939) "></path>
                    <g id="Group-4" transform="translate(30.157438, 34.683738) scale(-1, 1) rotate(87.000000) translate(-30.157438, -34.683738) translate(16.157438, 28.683738)">
                        <path d="M26.8527234,4.66920617 C23.7593134,4.87400948 11.0617611,5.02247509 7.98769651,4.4302555 C5.83880588,4.01627098 4.0367269,0.441207543 1.88766111,0.852832133 C0.768971186,1.06710211 -0.560378163,5.66390667 0.560069634,5.85291733 L6.88710811,10.7526201 C10.7375871,11.4021654 23.7318895,10.7498155 27.5837696,10.1221366 L26.8527234,4.66920617 Z" id="Path-27" fill="#FF939F"></path>
                        <path d="M5.22395173,7.72359656 C4.19469817,2.86456262 1.94615793,-4.74113351 0.0359598007,4.05510713" id="Path-28" stroke="#263345"></path>
                    </g>
                    <path d="M80,104.640215 C58.2725173,103.448991 45.9961221,97.937128 39.3675711,74.9126264 C37.9728733,70.0680954 37.3735221,64.9985426 36.9263578,59.9690086 C36.5782143,56.0532221 37.4516004,48.2313994 34.8930519,45.2973988 C32.4919654,42.5439669 27.7106069,44.3060091 26.1822966,47.6483188 C22.947119,54.7234302 25.5740689,63.3276318 26.5163794,71.0789515 C30.030664,99.9869867 52.302183,112.389929 78.5149548,115.121212" id="Path-4" fill="#FFFFFF"></path>
                    <g id="Group-6" transform="translate(120.487657, 188.928798) scale(-1, 1) rotate(-128.000000) translate(-120.487657, -188.928798) translate(106.987657, 183.428798)">
                        <path d="M26.6184351,1.9588645 C23.5914239,2.16805645 10.8109173,4.72446721 7.80283642,4.1195572 C5.70007097,3.69670159 3.93667297,0.0450296425 1.83373612,0.46547476 C0.739058482,0.68433624 -0.561756853,5.37964375 0.534640928,5.57270464 L6.72587176,10.577401 C10.4937016,11.2408651 14.2642734,9.29514276 18.0334743,8.65401364 L26.2840626,6.43172418 L26.6184351,1.9588645 Z" id="Path-27" fill="#FF939F"></path>
                        <path d="M5.09841444,8.48717115 C4.09125345,3.52401505 1.89097733,-4.24466028 0.0217809271,4.74007123" id="Path-28" stroke="#263345"></path>
                    </g>
                    <path d="M145.934066,174.069494 C124.379243,172.878843 112.200403,167.369629 105.624527,144.356192 C104.240912,139.513989 103.646324,134.446873 103.202713,129.419756 C102.857336,125.505851 102.842998,120.037577 100.304781,117.104987 C97.9227754,114.352878 96.5725339,112.797126 95.0563685,116.137829 C91.8468995,123.20954 91.9406359,132.776765 92.8754582,140.524359 C96.3618162,169.418502 118.456352,181.815484 144.460822,184.545455" id="Path-4" fill="#FFFFFF" transform="translate(119.120879, 149.393939) scale(-1, -1) rotate(-330.000000) translate(-119.120879, -149.393939) "></path>
                </g>
                <g id="Group-62" transform="translate(144.000000, 24.000000)">
                    <ellipse id="Oval-15" fill="#FFA8B2" cx="7.94117647" cy="8.7804878" rx="5.29411765" ry="8.7804878"></ellipse>
                    <ellipse id="Oval-15" fill="#FA8692" cx="7.5" cy="15.3658537" rx="7.5" ry="12.7317073"></ellipse>
                    <path d="M7.5,36 C12.5,26.0916567 15,19.4637271 15,16.1162111 C15,11.0949371 11.6421356,7.02439024 7.5,7.02439024 C3.35786438,7.02439024 0,11.0949371 0,16.1162111 C0,19.4637271 2.5,26.0916567 7.5,36 Z" id="Oval-15" fill="#263345"></path>
                </g>
                <path d="M139,38.6880195 C142.269598,57.5540142 159.310682,52.9337122 164,37" id="Path-49" stroke="#263345"></path>
                <path d="M137,41 C138.804297,37.1019718 137.431434,37.6267947 141,39.0900992" id="Path-50" stroke="#263345"></path>
                <path d="M162,39 C163.804297,35.1019718 162.431434,35.6267947 166,37.0900992" id="Path-50" stroke="#263345" transform="translate(164.000000, 37.500000) rotate(-315.000000) translate(-164.000000, -37.500000) "></path>
                <path d="M153,5.25107731 C160.457014,2.23412995 156.788371,2.02599583 164,6" id="Path-51" stroke="#263345"></path>
                <path d="M135,5.25107731 C142.457014,2.23412995 138.788371,2.02599583 146,6" id="Path-51" stroke="#263345" transform="translate(140.500000, 4.500000) rotate(-29.000000) translate(-140.500000, -4.500000) "></path>
                <path d="M128.105013,196.280441 C128.105013,196.280441 127.512645,273.939347 126.011233,302.353636 C125.525345,311.549084 140.96288,307.467424 141.233094,304.33716 C142.524936,289.371924 140.157251,258.44993 141.233094,239.929813 C141.863822,229.072121 145.932292,223.566668 147,223.100757 C148.914811,222.2652 152.243932,235.147842 152.550513,237.993623 C155.149248,262.115938 153.486071,278.977116 154.776567,302.353636 C155.108785,308.371571 164.465687,309.13541 165.537536,304.33716 C171.12164,279.339305 166.061727,218.323738 161.681841,194.432954 C161.515549,193.525887 160.864026,192.331637 159.93977,192.278565 C150.207961,191.719752 136.646314,192.153475 126.899154,192.278565 C127.70306,194.946482 128.105013,196.280441 128.105013,196.280441 Z" id="Path-52" fill="#656F7E"></path>
                <path d="M156,200 C156.887077,213.095821 154.38808,208.087077 161,216" id="Path-53" stroke="#979797"></path>
                <path d="M137,201 C136.494921,211.940078 137.910217,206.968194 133,216" id="Path-57" stroke="#979797"></path>
                <path d="M208.889034,66 C201.667041,71.7790096 190.416533,90.886357 199.22749,100.302453 C202.629918,103.938561 208.885184,105.502302 210.319052,110.291279 C211.132553,113.008292 205.359354,113.360682 203.85515,115.75838 C199.208977,123.164368 200.999122,137.814118 205.051864,144.843245 C211.050169,155.246784 227.719611,157.638528 238.222251,155.893886 C240.875217,155.453189 242.559242,150.440073 245.026503,151.519096 C247.28266,152.505796 244.710641,156.541982 245.246084,158.965664 C246.919904,166.542209 250.886426,172.654635 258.920463,174.111086 C263.276801,174.900825 267.743574,175.027973 272.169404,174.99547 C277.281444,174.957927 291.642087,168.532269 288.574816,161.995858 C275.457291,134.042169 274.134495,120.858352 253.681462,100.302453 C241.935956,88.497875 227.281025,76.4424014 213.395925,67.5220275 L208.889034,66 Z" id="Path-61" fill="#FFFFFF"></path>
                <g id="Group-64" transform="translate(193.000000, 240.000000)" stroke="#C7D1E5">
                    <path d="M9.48112487,35.556005 C13.5195631,35.782385 31.0751954,37.4513751 25.0511838,25.8521872 C24.505721,24.8019028 22.2250876,25.1017913 22.0780067,23.9263958 C21.6900463,20.8260127 24.2935526,17.7447332 23.6540141,14.6867143 C23.3740227,13.3479068 20.7825622,14.205646 19.8388095,13.2194446 C15.1944667,8.3662061 16.1981183,7.1205751 11.4222593,3.51375532 C8.78376011,1.52111043 3.17100889,-1.40458083 0.297062832,2.65285731 C-0.912468401,4.36047396 7.20412932,19.3951178 8.04669733,22.071722 C9.50762706,26.7126893 7.93040953,32.9651869 11.2229297,36.905369" id="Path-63" fill="#DFE3EE"></path>
                    <path d="M18.8999114,55.768393 C19.4827641,27.436897 22.3313426,39.0361836 14.9803847,20.1440591" id="Path-62" stroke-width="3" stroke-linecap="round"></path>
                </g>
            </g>
        </g>
    </g>
</svg>