<?xml version="1.0" encoding="UTF-8"?>
<svg width="292px" height="329px" viewBox="0 0 292 329" version="1.1" xmlns="http://www.w3.org/2000/svg" xmlns:xlink="http://www.w3.org/1999/xlink">
    <!-- Generator: Sketch 46.2 (44496) - http://www.bohemiancoding.com/sketch -->
    <title>Group 74</title>
    <desc>Created with Sketch.</desc>
    <defs>
        <filter x="-38.9%" y="-22.2%" width="183.3%" height="155.6%" filterUnits="objectBoundingBox" id="filter-1">
            <feOffset dx="0" dy="2" in="SourceAlpha" result="shadowOffsetOuter1"></feOffset>
            <feGaussianBlur stdDeviation="2" in="shadowOffsetOuter1" result="shadowBlurOuter1"></feGaussianBlur>
            <feColorMatrix values="0 0 0 0 0   0 0 0 0 0   0 0 0 0 0  0 0 0 0.05 0" type="matrix" in="shadowBlurOuter1" result="shadowMatrixOuter1"></feColorMatrix>
            <feMerge>
                <feMergeNode in="shadowMatrixOuter1"></feMergeNode>
                <feMergeNode in="SourceGraphic"></feMergeNode>
            </feMerge>
        </filter>
    </defs>
    <g id="App" stroke="none" stroke-width="1" fill="none" fill-rule="evenodd">
        <g id="Group-74">
            <g id="Group-72">
                <g id="Group-2" transform="translate(160.373952, 99.373952) rotate(-380.000000) translate(-160.373952, -99.373952) translate(128.873952, 67.873952)" fill="#90D7DE">
                    <path d="M20.0583154,13.4583916 L42.837754,13.4583916 L42.837754,18.0014857 C42.837754,18.0014857 37.8580179,17.8700792 37.8580179,22.188408 C37.8580179,26.5067367 42.837754,26.5711232 42.837754,26.5711232 L42.837754,36.0177139 C42.837754,36.0177139 37.8580179,35.8603827 37.8580179,40.3854724 C37.8580179,44.9105622 42.837754,44.5637164 42.837754,44.5637164 L42.837754,48.7914972 L20.0583154,48.7914972 L20.0583154,44.5423351 C20.0583154,44.5637164 25.1955914,45.0202313 25.1955914,40.3854724 C25.1955914,35.7507136 20.0583154,36.0177139 20.0583154,36.0177139 L20.0583154,26.5711232 C20.0583154,26.5711232 24.9889491,26.6084161 24.9889491,22.188408 C24.9889491,17.7683998 20.181249,18.0354725 20.0583154,18.0354725 L20.0583154,13.4583916 Z" id="Rectangle-28" transform="translate(31.448035, 31.124944) rotate(-30.000000) translate(-31.448035, -31.124944) "></path>
                    <rect id="Rectangle-27" transform="translate(31.401366, 31.357652) rotate(-300.000000) translate(-31.401366, -31.357652) " x="26.624676" y="8.60972734" width="9.55338025" height="45.4958495" rx="4.77669013"></rect>
                    <rect id="Rectangle-27" transform="translate(22.232262, 15.794991) rotate(-300.000000) translate(-22.232262, -15.794991) " x="17.4555717" y="-7.0567069" width="9.55338025" height="45.7033957" rx="4.77669013"></rect>
                    <rect id="Rectangle-27" transform="translate(40.564921, 46.898748) rotate(-300.000000) translate(-40.564921, -46.898748) " x="35.7882307" y="23.9556153" width="9.55338025" height="45.8862651" rx="4.77669013"></rect>
                </g>
                <g id="Group-71">
                    <circle id="Oval-17" fill="#F0F6FB" cx="146" cy="183" r="146"></circle>
                    <path d="M208.889034,51 C201.667041,56.7790096 190.416533,75.886357 199.22749,85.3024532 C202.629918,88.9385612 208.885184,90.5023023 210.319052,95.2912788 C211.132553,98.0082924 205.359354,98.3606821 203.85515,100.75838 C199.208977,108.164368 200.999122,122.814118 205.051864,129.843245 C211.050169,140.246784 227.719611,142.638528 238.222251,140.893886 C240.875217,140.453189 242.559242,135.440073 245.026503,136.519096 C247.28266,137.505796 244.710641,141.541982 245.246084,143.965664 C246.919904,151.542209 250.886426,157.654635 258.920463,159.111086 C263.276801,159.900825 267.743574,160.027973 272.169404,159.99547 C277.281444,159.957927 291.642087,153.532269 288.574816,146.995858 C275.457291,119.042169 274.134495,105.858352 253.681462,85.3024532 C241.935956,73.497875 227.281025,61.4424014 213.395925,52.5220275 L208.889034,51 Z" id="Path-61" fill="#FFFFFF"></path>
                    <path d="M8,231.829345 C54.6264144,229.823689 42.048514,226.462961 88.2922793,240.933468 C142.126819,257.779264 165.620028,260.370978 167.803629,263.818042 C171.2392,269.241483 128.581373,269.167829 119.175738,271.922434 C82.71021,282.602004 100.097711,286.042179 57.9213321,289.337612 C55.771921,289.505555 39.2286817,291.917662 35.1814924,286.347697 C21.5087944,267.530578 16.9290903,255.112627 8.06363936,235.227994 L8,231.829345 Z" id="Path-64" fill="#D4DBEA"></path>
                    <g id="Group-7" transform="translate(79.000000, 0.000000)">
                        <g id="Group-37" transform="translate(35.000000, 33.000000)">
                            <g id="Group-31" transform="translate(0.313063, 0.014121)">
                                <g id="Group-3" transform="translate(36.877705, 89.500000) scale(-1, 1) translate(-36.877705, -89.500000) translate(0.877705, 0.000000)">
                                    <g id="Group-5" transform="translate(0.000000, 0.409755)">
                                        <g id="Group-79" transform="translate(0.068243, 0.450000)">
                                            <path d="M57.9218298,68.5336321 C57.4956193,60.9862239 55.9168823,39.6667613 56.7417756,32.1517932 C57.626285,24.0937077 69.0879968,10.9877771 57.9218298,3.74173583 C40.1337727,-7.80143705 34.2782625,12.3331848 22.7891363,18.9821137 C15.1820662,23.3844387 0.89436964,24.2294189 3.65464769,36.5707355 C4.07107465,38.4325975 9.40900652,30.7414744 10.7058058,32.1517932 C12.8530838,34.4870402 17.0522058,31.7143583 19.9897375,30.4258955 C23.7979503,28.7555337 27.9678988,27.834473 32.112809,27.4259404 C34.7325415,27.1677331 37.4641776,27.5776463 39.9415548,28.4593951 C52.6302759,32.9755681 41.5520246,67.3037431 53.3757363,68.5336321 L57.9218298,68.5336321 Z" id="Path-26" fill="#FF939F"></path>
                                            <ellipse id="Oval-3" fill="#263345" cx="39.9604385" cy="10.4856012" rx="1.62986709" ry="1.61316942"></ellipse>
                                            <ellipse id="Oval-3" fill="#263345" cx="34.2559037" cy="9.67901651" rx="1.62986709" ry="1.61316942"></ellipse>
                                            <path d="M26.420795,16.1796709 C27.5691285,17.453777 29.0332242,18.5228031 29.8657954,20.0019893 C31.1486576,22.281184 35.0260538,28.576749 32.6706992,27.2835516 L27.5633676,28.2304648 C25.5972094,27.150954 25.672879,24.2357987 24.1714952,22.6170998 C23.07205,21.4317462 19.2833965,21.4872307 19.9769416,20.0512507" id="Path-31" fill="#FFC6CD"></path>
                                            <path d="M21.1224658,19.4060097 C22.3422544,20.6691102 23.8974534,21.7289022 24.7818314,23.1953113 C25.3192916,24.0864873 27.7482332,26.6217129 27.0790708,28.3618726 C26.6329625,29.5219791 24.4179019,30.3683566 20.433889,30.9010051 C19.4516685,29.648003 20.3280108,27.3925493 18.7332034,25.7878326 C17.5653452,24.612718 13.0165519,23.5681338 13.7532528,22.1445576" id="Path-31" fill="#FF8593"></path>
                                            <path d="M13.8353777,22.0518387 C9.81386389,24.2674477 6.40846319,24.4954808 2.93258332,28.1452287 C1.59086197,29.5540647 -0.038473178,34.6343026 0.179053346,37.6810105 C0.39657987,40.7277184 4.0710827,47.2070542 4.94710137,47.2070542 C6.46892954,47.2070542 7.73400606,35.4122011 10.526563,34.6294464 C13.7567168,33.7240332 17.5614038,32.4052222 20.0284241,30.9358072 C20.0284241,30.9358072 21.7885334,24.7466403 15.5080181,22.6198667 L13.8353777,22.0518387 Z" id="Path-32" fill="#263345"></path>
                                            <path d="M33.8230045,1.54637191 C37.705055,0.354590453 36.4279191,-0.374574471 38.2360815,1.84188407" id="Path-33" stroke="#263345"></path>
                                            <path d="M39.5275393,2.35295662 C43.4095898,1.16117516 42.1324539,0.432010238 43.9406163,2.64846878" id="Path-33" stroke="#263345"></path>
                                            <path d="M17.3624,25.4432852 C29.5156705,25.7316291 24.4067185,27.5568078 33.0935588,21.2543376" id="Path-81" stroke="#263345"></path>
                                            <path d="M30.5961798,20.8080727 C34.7062671,20.8080727 33.4473386,19.8921227 33.0222701,24.7889087" id="Path-88" stroke="#263345"></path>
                                        </g>
                                        <path d="M37.1463401,115.116139 C37.2490293,120.316308 36.1566953,127.287091 36.1132482,132.488557 C36.0580399,139.098072 35.3736399,141.502833 38.0998315,143.746411 C40.5431483,145.757192 41.621288,143.154765 43.8315272,145.549106 C47.8634934,149.916913 61.771621,150.995234 65.6943134,148.225216 C70.5791567,144.775773 67.3169536,129.973323 68.9713187,112.276971 C70.6256838,94.5806193 65.6739535,94.0003806 68.9713187,85.1562395 C77.4416002,62.4373837 58.789472,60.459053 57.4829609,60.5485082 C55.9730867,60.6518875 58.01695,61.8604401 52.3564833,62.5730594 C51.659265,62.660835 47.8055876,63.6432654 47.2045542,61.2718311 C46.4165625,58.1627346 31.6122439,67.3428533 33.7557309,74.3922183 C35.5358221,79.2137906 36.3216612,85.4774433 36.1132482,93.1831764 C35.8006286,104.741776 36.9717017,106.272473 37.1463401,115.116139 Z" id="Path-23" fill="#FFFFFF"></path>
                                        <g id="Group-6" transform="translate(31.547244, 165.479521) rotate(-90.000000) translate(-31.547244, -165.479521) translate(19.547244, 160.479521)">
                                            <path d="M23.441396,1.71465593 C20.7756733,1.89776824 9.52058198,4.13547528 6.87153013,3.60597845 C5.01973992,3.23583959 3.46681201,0.0394158675 1.61487084,0.40744475 C0.650848276,0.599021112 -0.494708454,4.70897199 0.470828946,4.87796428 L5.92310642,9.25873298 C9.24122754,9.83948406 12.5617634,8.13633186 15.8810919,7.5751313 L23.1469325,5.62989119 L23.441396,1.71465593 Z" id="Path-27" fill="#FF939F"></path>
                                            <path d="M4.48989401,7.42908881 C3.60294256,3.08468161 1.66528003,-3.71548513 0.019181268,4.14913397" id="Path-28" stroke="#263345"></path>
                                        </g>
                                    </g>
                                </g>
                            </g>
                        </g>
                        <polygon id="Star" fill="#FFCB78" points="28.0023889 20.3571098 23 21.6754265 26.6428902 18.0023889 25.3245735 13 28.9976111 16.6428902 34 15.3245735 30.3571098 18.9976111 31.6754265 24"></polygon>
                        <polygon id="Star" fill="#FFBC51" points="9.09525262 13.3765632 0 15.7735027 6.62343679 9.09525262 4.22649731 0 10.9047474 6.62343679 20 4.22649731 13.3765632 10.9047474 15.7735027 20"></polygon>
                        <g id="Group-4" transform="translate(32.530617, 201.719163) rotate(-100.000000) translate(-32.530617, -201.719163) translate(20.030617, 196.219163)">
                            <path d="M23.8977068,4.96039862 C21.2319841,5.14351094 10.2899646,5.27625236 7.64091271,4.74675553 C5.7891225,4.37661667 4.23619458,1.18019295 2.38425342,1.54822183 C1.42023085,1.73979819 0.274674121,5.84974907 1.24021152,6.01874136 L6.692489,10.3995101 C10.0106101,10.9802611 21.2083518,10.3970025 24.5276803,9.83580195 L23.8977068,4.96039862 Z" id="Path-27" fill="#FF939F"></path>
                            <path d="M5.25927659,7.69129446 C4.37232513,3.34688727 2.43466261,-3.45327947 0.788563843,4.41133962" id="Path-28" stroke="#263345"></path>
                        </g>
                    </g>
                    <g id="Group-70" filter="url(#filter-1)" transform="translate(124.000000, 29.000000)">
                        <ellipse id="Oval-18" fill="#FFFFFF" cx="4" cy="21" rx="4" ry="6"></ellipse>
                        <ellipse id="Oval-18" fill="#F2F1F1" cx="3" cy="21.5" rx="3" ry="4.5"></ellipse>
                        <path d="M2.7546633,18.2292824 C2.96645967,12.6233918 1.69703791,8.14384229 5.6639197,3.8397912 C9.10025137,0.111384886 18.9613475,-1.37816539 17.5260038,5.72128038" id="Path-74" stroke="#E7EBEE" stroke-width="2"></path>
                    </g>
                </g>
                <path d="M29.4975638,281.685372 C40.9812147,280.931939 52.5281424,280.839905 63.9485164,279.425073 C85.9351645,276.70122 77.3699128,273.494118 100.815287,268.222451 C115.763503,264.861361 130.957722,262.610691 146.152608,260.625871 C168.597958,257.693965 182.080026,262.719806 206.934602,264.333529 C217.639702,265.028575 236.661501,261.917399 264,255 C259.158423,263.433729 256.577075,267.822903 256.255953,268.167523 C246.27941,278.87412 237.225573,290.769012 225.383173,299.391501 C159.53326,347.337033 87.8722004,329.831481 25,285.107403 L29.4975638,281.685372 Z" id="Path-60" fill="#EFF2F9"></path>
                <path d="M113.19462,295.824119 C99.1168423,330.061423 156.974319,330.221925 167.277357,320.356912 C179.438759,308.712541 158.868283,292.559902 147.585416,293.009171 C137.153952,293.424539 126.782184,294.799929 116.380568,295.695308 L113.19462,295.824119 Z" id="Path-65" fill="#EAEDF5"></path>
                <g id="Group-63" transform="translate(127.000000, 308.000000) scale(-1, 1) translate(-127.000000, -308.000000) translate(118.000000, 296.000000)">
                    <path d="M15.0527302,0.692229115 C20.8080454,4.22304436 13.7074647,9.05092306 11.5361308,12.8865207 C9.94468051,15.6977712 7.43230671,19.6109551 5.76510763,22.3745881 C4.4329032,24.5829171 0.276846884,24.0382298 0.784129333,21.0980533 C2.32294992,12.1791479 6.97206281,2.48068088 14.1662886,0.84497914 L15.0527302,0.692229115 Z" id="Path-58" fill="#C6DFEC"></path>
                    <ellipse id="Oval-16" fill="#FF939F" cx="12.4285714" cy="3.11111111" rx="2.14285714" ry="2.22222222"></ellipse>
                    <path d="M3.95863679,23.4913836 C8.52808411,19.1885075 5.91066424,23.1696723 17.1279175,3.89746728" id="Path-59" stroke="#B3CFDE"></path>
                </g>
                <g id="Group-63" transform="translate(154.000000, 308.000000) scale(-1, 1) translate(-154.000000, -308.000000) translate(145.000000, 296.000000)">
                    <path d="M15.0527302,0.692229115 C20.8080454,4.22304436 13.7074647,9.05092306 11.5361308,12.8865207 C9.94468051,15.6977712 7.43230671,19.6109551 5.76510763,22.3745881 C4.4329032,24.5829171 0.276846884,24.0382298 0.784129333,21.0980533 C2.32294992,12.1791479 6.97206281,2.48068088 14.1662886,0.84497914 L15.0527302,0.692229115 Z" id="Path-58" fill="#C6DFEC"></path>
                    <ellipse id="Oval-16" fill="#FF939F" cx="12.4285714" cy="3.11111111" rx="2.14285714" ry="2.22222222"></ellipse>
                    <path d="M3.95863679,23.4913836 C8.52808411,19.1885075 5.91066424,23.1696723 17.1279175,3.89746728" id="Path-59" stroke="#B3CFDE"></path>
                </g>
                <rect id="Rectangle-23" fill="#FF939F" x="122" y="288" width="4" height="11"></rect>
                <rect id="Rectangle-23" fill="#FF939F" x="149" y="288" width="4" height="11"></rect>
                <path d="M118.105013,181.032945 C118.105013,181.032945 117.512645,258.691852 116.011233,287.10614 C115.525345,296.301588 130.96288,292.219928 131.233094,289.089664 C132.524936,274.124429 130.157251,243.202434 131.233094,224.682317 C131.863822,213.824625 135.932292,208.319172 137,207.853261 C138.914811,207.017704 142.243932,219.900346 142.550513,222.746127 C145.149248,246.868442 143.486071,263.729621 144.776567,287.10614 C145.108785,293.124075 154.465687,293.887915 155.537536,289.089664 C161.12164,264.091809 156.061727,203.076242 151.681841,179.185458 C151.515549,178.278391 151.775008,175.331637 150.850751,175.278565 C141.118942,174.719752 127.852173,175.153475 118.105013,175.278565 C118.105013,179.114819 118.105013,181.032945 118.105013,181.032945 Z" id="Path-52" fill="#656F7E"></path>
                <path d="M146,185 C146.887077,198.095821 144.38808,193.087077 151,201" id="Path-53" stroke="#979797"></path>
                <path d="M127,186 C126.494921,196.940078 127.910217,191.968194 123,201" id="Path-57" stroke="#979797"></path>
                <g id="Group-64" transform="translate(183.000000, 225.000000)" stroke="#C7D1E5">
                    <path d="M9.48112487,35.556005 C13.5195631,35.782385 31.0751954,37.4513751 25.0511838,25.8521872 C24.505721,24.8019028 22.2250876,25.1017913 22.0780067,23.9263958 C21.6900463,20.8260127 24.2935526,17.7447332 23.6540141,14.6867143 C23.3740227,13.3479068 20.7825622,14.205646 19.8388095,13.2194446 C15.1944667,8.3662061 16.1981183,7.1205751 11.4222593,3.51375532 C8.78376011,1.52111043 3.17100889,-1.40458083 0.297062832,2.65285731 C-0.912468401,4.36047396 7.20412932,19.3951178 8.04669733,22.071722 C9.50762706,26.7126893 7.93040953,32.9651869 11.2229297,36.905369" id="Path-63" fill="#DFE3EE"></path>
                    <path d="M18.8999114,55.768393 C19.4827641,27.436897 22.3313426,39.0361836 14.9803847,20.1440591" id="Path-62" stroke-width="3" stroke-linecap="round"></path>
                </g>
                <path d="M119.195052,108.045781 C116.952024,110.399961 114.554724,118.884483 114.156608,132.115081 C113.608605,150.326882 111.926595,173.686155 112.000121,176.023339 C112.219662,183.001961 117.534587,201.70271 114.156608,196.744367 L109.108729,197.24227 C106.944112,194.064952 105.465413,180.015574 105.425822,175.26121 C105.149186,142.04034 101.128821,92.438036 124.713242,95.1030826" id="Path-73" fill="#FFFFFF"></path>
                <path d="M157.195052,108.045781 C154.952024,110.399961 152.554724,118.884483 152.156608,132.115081 C151.608605,150.326882 149.926595,173.686155 150.000121,176.023339 C150.219662,183.001961 154.825703,199.757684 151.447724,194.799341 L147.108729,197.24227 C144.944112,194.064952 143.465413,180.015574 143.425822,175.26121 C143.149186,142.04034 139.128821,92.438036 162.713242,95.1030826" id="Path-73" fill="#FFFFFF" transform="translate(152.856621, 146.121135) scale(-1, 1) translate(-152.856621, -146.121135) "></path>
            </g>
        </g>
    </g>
</svg>