<?xml version="1.0" encoding="UTF-8"?>
<svg width="112px" height="107px" viewBox="0 0 112 107" version="1.1" xmlns="http://www.w3.org/2000/svg" xmlns:xlink="http://www.w3.org/1999/xlink">
    <!-- Generator: Sketch 45.2 (43514) - http://www.bohemiancoding.com/sketch -->
    <title>Group 4</title>
    <desc>Created with Sketch.</desc>
    <defs></defs>
    <g id="Dashboard" stroke="none" stroke-width="1" fill="none" fill-rule="evenodd">
        <g id="Group-4">
            <g id="Group">
                <g id="Group-118">
                    <g id="Group-106" transform="translate(6.410220, 0.000000)" fill="#E2F2FB">
                        <circle id="Oval-34" transform="translate(52.704753, 52.607818) scale(-1, 1) translate(-52.704753, -52.607818) " cx="52.7047526" cy="52.6078181" r="52.6078181"></circle>
                    </g>
                    <g id="Group-78" transform="translate(0.000000, 32.996413)">
                        <g id="Group-79" transform="translate(0.000000, 2.085669)">
                            <path d="M58.6683117,71.0715558 C58.2366083,63.420449 56.6375249,41.8080649 57.4730492,34.1898439 C58.368958,26.0210433 69.9783854,12.7350422 58.6683117,5.38944294 C40.6510066,-6.31232885 34.7200321,14.0989353 23.0828369,20.8392179 C15.3777288,25.3020293 0.905896049,26.1586192 3.70174787,38.6695009 C4.12354163,40.5569442 9.53026742,32.7601479 10.8437795,34.1898439 C13.0187311,36.5571764 17.2719703,33.7463988 20.2473602,32.440233 C24.1046523,30.7469212 28.328342,29.8132054 32.5266707,29.3990597 C35.1801658,29.1373047 37.9470065,29.55285 40.4563115,30.4467137 C53.3085616,35.0249372 42.0875366,69.8247686 54.0636292,71.0715558 L58.6683117,71.0715558 Z" id="Path-26" fill="#FF939F"></path>
                            <ellipse id="Oval-3" fill="#263345" cx="40.4754385" cy="12.2259665" rx="1.6508724" ry="1.63533377"></ellipse>
                            <ellipse id="Oval-3" fill="#263345" cx="34.6973851" cy="11.4082997" rx="1.6508724" ry="1.63533377"></ellipse>
                            <path d="M26.7612995,17.9982706 C27.9244324,19.2898825 29.407397,20.3735966 30.2506982,21.8731063 C31.5500936,24.1836163 35.4774607,30.56568 33.0917509,29.2547145 L27.9185973,30.214638 C25.9270997,29.1202951 26.0037446,26.1650866 24.4830113,24.5241474 C23.3693968,23.3225075 19.531916,23.3787543 20.2343993,21.9230445" id="Path-31" fill="#FFC6CD"></path>
                            <path d="M21.3946868,21.2689381 C22.6301957,22.5493932 24.2054377,23.6237463 25.1012134,25.1103033 C25.6456002,26.0137237 28.1058455,28.5837824 27.428059,30.3478513 C26.9762014,31.5238972 24.7325937,32.3819036 20.6972358,32.9218704 C19.7023567,31.6516526 20.589993,29.3652098 18.9746321,27.7384449 C17.7917229,26.5471846 13.1843059,25.4882482 13.9305013,24.0451127" id="Path-31" fill="#FF8593"></path>
                            <path d="M14.0136845,23.9511198 C9.94034248,26.1971705 6.49105384,26.4283367 2.97037771,30.1282308 C1.61136459,31.5564236 -0.0389690106,36.7064621 0.18136094,39.7950307 C0.401690891,42.8835992 4.12354978,49.4519586 5.01085836,49.4519586 C6.55229947,49.4519586 7.83367997,37.4950486 10.6622267,36.7015392 C13.9340099,35.783686 17.7877307,34.446755 20.2865454,32.9571508 C20.2865454,32.9571508 22.0693386,26.682947 15.7078815,24.5269523 L14.0136845,23.9511198 Z" id="Path-32" fill="#263345"></path>
                            <path d="M33.7558868,1.15183526 C37.6879681,-0.056320842 36.3943729,-0.795504221 38.2258384,1.45140764" id="Path-33" stroke="#263345"></path>
                            <path d="M17.5861623,27.3891636 C29.896061,27.6814692 24.7212661,29.5317251 33.5200602,23.1426614" id="Path-81" stroke="#263345" stroke-width="2"></path>
                            <path d="M30.5025929,22.6902649 C34.66565,22.6902649 33.3904968,21.7617301 32.9599501,26.7257961" id="Path-88" stroke="#263345" stroke-width="2"></path>
                        </g>
                        <path d="M35.8335423,67.2521895 C38.7017966,67.5538497 43.0190131,67.5538497 48.7851918,67.2521895 C48.9988523,69.0119798 50.2401285,69.891875 52.5090206,69.891875 C56.5178367,69.891875 58.4167441,68.8158724 58.2057427,66.6638673 C66.3798868,66.6812299 72.4740058,67.3488689 76.4880998,68.6667843 C77.7157417,69.0698462 74.4529137,70.3518759 73.2285136,70.7646811 C71.0676783,71.4932045 67.770661,72.5088733 65.5001471,72.7203501 C60.8558508,73.1529222 58.5555567,73.2128271 53.8920972,73.1192686 C50.9971886,73.0611908 46.6803701,72.4326309 43.913568,71.5790063 C41.1044417,70.7123237 38.6645094,68.9301006 36.0399802,67.6056478 L35.8335423,67.2521895 Z" id="Path-82" fill="#FFFFFF"></path>
                        <path d="M57.1160474,11.5722355 C59.2983382,-4.31194239 42.5529218,-0.977303692 44.7609917,5.15306753" id="Path-72" stroke="#FFFFFF" stroke-width="4"></path>
                        <path d="M40.0369602,4.51466 C43.9690416,3.88018068 42.6754463,3.49198865 44.5069118,4.67198445" id="Path-33" stroke="#263345"></path>
                    </g>
                </g>
            </g>
            <g id="Group-3" transform="translate(57.180716, 49.205543) scale(-1, 1) translate(-57.180716, -49.205543) translate(51.680716, 42.705543)">
                <ellipse id="Oval-29" fill="#FFFFFF" cx="6.11645096" cy="6.2428743" rx="4.72434538" ry="5.96759416"></ellipse>
                <ellipse id="Oval-29" fill="#FBF6F6" cx="4.04827449" cy="6.59955907" rx="4.04827449" ry="5.11360988"></ellipse>
            </g>
        </g>
    </g>
</svg>