<?xml version="1.0" encoding="UTF-8"?>
<svg width="87px" height="87px" viewBox="0 0 87 87" version="1.1" xmlns="http://www.w3.org/2000/svg" xmlns:xlink="http://www.w3.org/1999/xlink">
    <!-- Generator: Sketch 45.2 (43514) - http://www.bohemiancoding.com/sketch -->
    <title>Group 23</title>
    <desc>Created with Sketch.</desc>
    <defs></defs>
    <g id="Dashboard" stroke="none" stroke-width="1" fill="none" fill-rule="evenodd">
        <g id="Group-23">
            <g id="Group-2">
                <circle id="Oval-28" fill="#E2F2FB" transform="translate(43.389955, 43.064451) scale(-1, 1) translate(-43.389955, -43.064451) " cx="43.3899553" cy="43.0644507" r="42.9182448"></circle>
                <g id="Group-140" transform="translate(46.839012, 49.330998) scale(-1, 1) translate(-46.839012, -49.330998) translate(9.839012, 6.830998)">
                    <g id="Group-137" transform="translate(0.000000, 0.002213)">
                        <g id="Group-136" transform="translate(0.000000, 0.095485)">
                            <path d="M33.1013208,42.7119629 C33.1013208,42.7119629 25.3325395,58.1202011 20.0753604,60.6046004 C18.3116258,61.4380932 17.2260775,60.6748976 16.1668004,60.6046004 C15.1075232,60.5343031 12.8888766,60.1045004 12.4536371,59.6715062 C10.3258335,57.5546792 13.8552672,46.6350379 16.1668004,37.8579597 C18.4783335,29.0808815 13.3934706,30.3917846 16.1668004,24.7425269 C18.9401301,19.0932693 21.6183876,15.3631234 27.3940514,15.3631234 C32.2914301,15.3631234 33.3527663,19.1016861 34.5545339,20.8679981 C35.7563016,22.6343101 35.8335756,28.3508208 35.8335756,28.3508208 L41.5786274,37.4623011 C41.5786274,37.4623011 46.3714341,46.3064925 53.941662,55.4945347 C61.5118898,64.682577 61.2766784,68.7428026 61.2766784,68.7428026 C61.2766784,68.7428026 58.4789026,72.2506279 55.0562956,73.8359486 C53.2863632,74.6557654 33.1013208,42.7119629 33.1013208,42.7119629 Z" id="Rectangle-45" fill="#FED75F" transform="translate(36.537423, 44.607293) scale(-1, 1) rotate(32.000000) translate(-36.537423, -44.607293) "></path>
                            <g id="Group-26" transform="translate(24.721037, 12.601471) scale(-1, 1) rotate(32.000000) translate(-24.721037, -12.601471) translate(22.221037, 6.101471)" stroke="#FFC30F">
                                <path d="M0.43697949,11.7773736 L3.05885643,1.30859707" id="Line" stroke-linecap="square"></path>
                                <ellipse id="Oval-19" fill="#FFC30F" cx="2.62187694" cy="1.74479609" rx="1.74791796" ry="1.74479609"></ellipse>
                            </g>
                            <g id="Group-26" transform="translate(31.796181, 7.816918) scale(-1, 1) rotate(-13.000000) translate(-31.796181, -7.816918) translate(29.296181, 1.316918)" stroke="#FFC30F">
                                <path d="M0.43697949,11.7773736 L3.05885643,1.30859707" id="Line" stroke-linecap="square"></path>
                                <ellipse id="Oval-19" fill="#FFC30F" cx="2.62187694" cy="1.74479609" rx="1.74791796" ry="1.74479609"></ellipse>
                            </g>
                            <g id="Group" transform="translate(21.019225, 17.898419) scale(-1, 1) rotate(-41.000000) translate(-21.019225, -17.898419) translate(14.019225, 14.898419)">
                                <path d="M0.0923744751,0.932641405 C2.81089054,0.81284558 3.84885106,1.7345257 4.64377186,1.90884129 C5.43869266,2.08315688 3.20424015,3.45075755 9.96325884,5.38996684 C13.7664837,6.48113839 15.3482006,0.95160873 11.6232479,0.409112029 C7.81982885,-0.14481238 3.93599893,0.365446436 0.0923744751,0.343613639 L0.0923744751,0.932641405 Z" id="Path-22" fill="#FED75F"></path>
                                <path d="M8.10154085,0.779996187 C12.6289929,0.808832977 15.8041774,4.84506066 9.64364066,3.93997285" id="Path-23" stroke="#342F7F" stroke-linecap="round"></path>
                            </g>
                            <path d="M46.7992828,46.7058421 C46.7992828,46.7058421 46.7195429,46.4254633 47.9077334,46.7058421 C49.0959239,46.9862209 50.2174127,48.5634885 50.2174127,48.5634885 C50.2174127,48.5634885 53.5478286,47.4652166 57.4419176,44.0896374 C61.3360066,40.7140582 61.8507632,33.3605723 60.6781346,31.5008185" id="Path-24" stroke="#263345" stroke-linecap="round" transform="translate(54.015206, 40.032154) scale(-1, 1) rotate(32.000000) translate(-54.015206, -40.032154) "></path>
                            <ellipse id="Oval-20" stroke="#263345" fill="#263345" transform="translate(42.033002, 24.175331) scale(-1, 1) rotate(32.000000) translate(-42.033002, -24.175331) " cx="42.0330017" cy="24.1753309" rx="1" ry="1"></ellipse>
                            <ellipse id="Oval-20" stroke="#263345" fill="#263345" transform="translate(44.948470, 22.551337) scale(-1, 1) rotate(32.000000) translate(-44.948470, -22.551337) " cx="44.9484697" cy="22.551337" rx="1" ry="1"></ellipse>
                            <path d="M44.7466852,33.7774771 C44.5201488,34.361299 42.9186778,35.0548446 42.6921413,35.6386665 C42.4656049,36.2224884 43.5572359,36.8428849 43.302316,37.4998559" id="Path-25" stroke="#263345" stroke-linecap="round" transform="translate(43.703834, 35.638667) scale(-1, 1) rotate(-85.000000) translate(-43.703834, -35.638667) "></path>
                            <path d="M58.0851714,45.8881906 C56.4371791,39.1336555 56.5775247,43.0641705 60.4539301,37.3318424" id="Path-26" stroke="#263345" stroke-linecap="round" transform="translate(58.770978, 41.610017) scale(-1, 1) rotate(32.000000) translate(-58.770978, -41.610017) "></path>
                            <path d="M61.2017641,40.0285679 C60.7845341,39.55398 60.5499836,39.791274 60.1327536,39.3166861" id="Path-27" stroke="#263345" stroke-linecap="round" transform="translate(60.667259, 39.816686) scale(-1, 1) rotate(32.000000) translate(-60.667259, -39.816686) "></path>
                            <path d="M39.6246262,12.3613737 C35.2989679,9.28869146 45.0699438,14.8852962 38.18477,12.7167242 C31.2995962,10.5481521 34.8888574,12.2223217 33.3182256,11.5936111 C31.2690184,10.7733308 32.4526385,5.32477764 35.0060686,6.76020912 C36.1594211,7.40857556 37.6995845,10.9074639 38.8307885,11.5936111" id="Path-29" fill="#FED75F" transform="translate(36.500325, 9.875398) scale(-1, 1) rotate(32.000000) translate(-36.500325, -9.875398) "></path>
                            <path d="M28.9600727,56.9403645 C28.9600727,58.8409293 27.6922,62.100964 28.3750065,63.5280194 C29.057813,64.9550748 32.8702858,65.7849308 33.3754534,65.0832385 C33.8143267,64.4736309 35.1464505,61.3666162 34.2506351,59.4597162 C33.3548196,57.5528163 30.646726,57.3666366 29.3230787,57.0756074 L28.9600727,56.9403645 Z" id="Path-30" fill="#5C6673" transform="translate(31.363445, 61.138662) scale(-1, 1) rotate(32.000000) translate(-31.363445, -61.138662) "></path>
                            <path d="M31.3670779,74.128741 C31.5649338,75.6269108 31.3610784,79.9222856 31.866246,79.2205934 C32.3051193,78.6109858 35.951859,73.2168553 35.0560435,71.3099554 C34.160228,69.4030555 32.1926536,68.9672316 30.8690063,68.6762024 C30.8690063,68.6762024 31.169222,72.6305712 31.3670779,74.128741 Z" id="Path-30" fill="#5C6673" transform="translate(33.033055, 73.986821) scale(-1, 1) rotate(32.000000) translate(-33.033055, -73.986821) "></path>
                            <path d="M31.5804445,23.6949038 C31.5804445,25.5954685 30.3125719,28.8555033 30.9953784,30.2825587 C31.6781849,31.7096141 35.4906577,32.53947 35.9958253,31.8377778 C36.4346986,31.2281702 37.7668224,28.1211555 36.871007,26.2142555 C35.9751915,24.3073556 33.2670979,24.1211759 31.9434506,23.8301467 L31.5804445,23.6949038 Z" id="Path-30" fill="#5C6673" transform="translate(33.983817, 27.893202) scale(-1, 1) rotate(-15.000000) translate(-33.983817, -27.893202) "></path>
                            <path d="M31.4267979,43.7671814 C31.4267979,45.6677462 30.1589253,48.9277809 30.8417318,50.3548363 C31.5245383,51.7818917 35.337011,52.6117477 35.8421786,51.9100554 C36.2810519,51.3004478 37.6131758,48.1934331 36.7173603,46.2865331 C35.8215448,44.3796332 33.1134513,44.1934535 31.789804,43.9024243 L31.4267979,43.7671814 Z" id="Path-30" fill="#5C6673" transform="translate(33.830170, 47.965479) scale(-1, 1) rotate(2.000000) translate(-33.830170, -47.965479) "></path>
                            <path d="M37.1363165,10.0977758 C34.5854204,8.12148737 37.0116555,4.68837902 39.9177445,8.03962172" id="Path-31" stroke="#263345" stroke-linecap="round" transform="translate(37.990230, 8.365228) scale(-1, 1) rotate(32.000000) translate(-37.990230, -8.365228) "></path>
                            <path d="M36.3527985,16.9980233 C39.6032599,13.4152225 37.8729725,13.4048481 41.3280716,15.5286612" id="Path-137" stroke="#263345" stroke-linecap="round"></path>
                            <path d="M42.1320346,15.5643503 C45.382496,11.9815495 43.6522085,11.9711751 47.1073077,14.0949882" id="Path-137" stroke="#263345" stroke-linecap="round"></path>
                            <path d="M28.5116363,37.5095599 C30.0612669,37.0926583 31.5715792,36.4875438 33.160528,36.258855 C43.4949007,34.7714849 31.5057726,41.6167101 28.6314419,42.3820977" id="Path-139" fill="#5C6673"></path>
                        </g>
                    </g>
                </g>
            </g>
        </g>
    </g>
</svg>