<?xml version="1.0" encoding="UTF-8"?>
<svg width="227px" height="172px" viewBox="0 0 227 172" version="1.1" xmlns="http://www.w3.org/2000/svg" xmlns:xlink="http://www.w3.org/1999/xlink">
    <!-- Generator: Sketch 45.2 (43514) - http://www.bohemiancoding.com/sketch -->
    <title>Group 18</title>
    <desc>Created with Sketch.</desc>
    <defs></defs>
    <g id="Dashboard" stroke="none" stroke-width="1" fill="none" fill-rule="evenodd">
        <g id="Group-18" transform="translate(-6.000000, -4.000000)" fill="#3C3C3C">
            <polygon id="Star" points="221 20.84375 209.686292 27.3137085 216.15625 16 209.686292 4.6862915 221 11.15625 232.313708 4.6862915 225.84375 16 232.313708 27.3137085"></polygon>
            <polygon id="Star" transform="translate(22.283656, 139.283656) rotate(-305.000000) translate(-22.283656, -139.283656) " points="22.2836557 144.127406 10.9699472 150.597364 17.4399057 139.283656 10.9699472 127.969947 22.2836557 134.439906 33.5973642 127.969947 27.1274057 139.283656 33.5973642 150.597364"></polygon>
            <polygon id="Star" transform="translate(75.595918, 59.595918) rotate(-345.000000) translate(-75.595918, -59.595918) " points="75.5959179 64.4396679 64.2822094 70.9096264 70.7521679 59.5959179 64.2822094 48.2822094 75.5959179 54.7521679 86.9096264 48.2822094 80.4396679 59.5959179 86.9096264 70.9096264"></polygon>
            <polygon id="Star" transform="translate(201.595918, 161.595918) rotate(-345.000000) translate(-201.595918, -161.595918) " points="201.595918 166.439668 190.282209 172.909626 196.752168 161.595918 190.282209 150.282209 201.595918 156.752168 212.909626 150.282209 206.439668 161.595918 212.909626 172.909626"></polygon>
            <polygon id="Star" transform="translate(130.595918, 141.595918) rotate(-285.000000) translate(-130.595918, -141.595918) " points="130.595918 146.439668 119.282209 152.909626 125.752168 141.595918 119.282209 130.282209 130.595918 136.752168 141.909626 130.282209 135.439668 141.595918 141.909626 152.909626"></polygon>
        </g>
    </g>
</svg>