<?xml version="1.0" encoding="UTF-8"?>
<svg width="309px" height="183px" viewBox="0 0 309 183" version="1.1" xmlns="http://www.w3.org/2000/svg" xmlns:xlink="http://www.w3.org/1999/xlink">
    <!-- Generator: Sketch 45.2 (43514) - http://www.bohemiancoding.com/sketch -->
    <title>Group 20</title>
    <desc>Created with Sketch.</desc>
    <defs></defs>
    <g id="Dashboard" stroke="none" stroke-width="1" fill="none" fill-rule="evenodd" opacity="0.07">
        <g id="Group-20">
            <g id="Group-11" transform="translate(228.000000, 92.000000)">
                <g id="Group-10" transform="translate(0.000000, 0.503906)">
                    <path d="M12.6642938,25.5071783 C19.6585901,25.5071783 25.3285876,7.99935357 25.3285876,5.31419008 C25.3285876,2.62902659 19.6585901,0.452271496 12.6642938,0.452271496 C5.66999746,0.452271496 0,2.62902659 0,5.31419008 C0,7.99935357 5.66999746,25.5071783 12.6642938,25.5071783 Z" id="Oval" fill="#E2F1FC" opacity="0.701030344"></path>
                    <ellipse id="Oval" fill="#656F7E" cx="12.6642938" cy="5.31419008" rx="12.6642938" ry="4.86191859"></ellipse>
                    <g id="Group-9" fill="#3C3C3C">
                        <path d="M12.6642938,25.5071783 C19.6585901,25.5071783 25.3285876,7.99935357 25.3285876,5.31419008 C25.3285876,2.62902659 19.6585901,0.452271496 12.6642938,0.452271496 C5.66999746,0.452271496 0,2.62902659 0,5.31419008 C0,7.99935357 5.66999746,25.5071783 12.6642938,25.5071783 Z" id="Oval"></path>
                        <ellipse id="Oval" cx="12.6642938" cy="5.31419008" rx="12.6642938" ry="4.86191859"></ellipse>
                        <ellipse id="Oval" cx="12.6642938" cy="4.86191859" rx="12.6642938" ry="4.86191859"></ellipse>
                    </g>
                    <path d="M12.6642938,50.4282719 C19.6585901,50.4282719 25.3285876,32.9204471 25.3285876,30.2352836 C25.3285876,27.5501201 19.6585901,25.373365 12.6642938,25.373365 C5.66999746,25.373365 0,27.5501201 0,30.2352836 C0,32.9204471 5.66999746,50.4282719 12.6642938,50.4282719 Z" id="Oval" fill="#3C3C3C" transform="translate(12.664294, 37.900818) rotate(-180.000000) translate(-12.664294, -37.900818) "></path>
                </g>
            </g>
            <g id="Group-11" transform="translate(283.000000, 0.000000)">
                <g id="Group-10" transform="translate(0.000000, 0.503906)">
                    <path d="M12.6642938,25.5071783 C19.6585901,25.5071783 25.3285876,7.99935357 25.3285876,5.31419008 C25.3285876,2.62902659 19.6585901,0.452271496 12.6642938,0.452271496 C5.66999746,0.452271496 0,2.62902659 0,5.31419008 C0,7.99935357 5.66999746,25.5071783 12.6642938,25.5071783 Z" id="Oval" fill="#E2F1FC" opacity="0.701030344"></path>
                    <ellipse id="Oval" fill="#656F7E" cx="12.6642938" cy="5.31419008" rx="12.6642938" ry="4.86191859"></ellipse>
                    <g id="Group-9" fill="#3C3C3C">
                        <path d="M12.6642938,25.5071783 C19.6585901,25.5071783 25.3285876,7.99935357 25.3285876,5.31419008 C25.3285876,2.62902659 19.6585901,0.452271496 12.6642938,0.452271496 C5.66999746,0.452271496 0,2.62902659 0,5.31419008 C0,7.99935357 5.66999746,25.5071783 12.6642938,25.5071783 Z" id="Oval"></path>
                        <ellipse id="Oval" cx="12.6642938" cy="5.31419008" rx="12.6642938" ry="4.86191859"></ellipse>
                        <ellipse id="Oval" cx="12.6642938" cy="4.86191859" rx="12.6642938" ry="4.86191859"></ellipse>
                    </g>
                    <path d="M12.6642938,50.4282719 C19.6585901,50.4282719 25.3285876,32.9204471 25.3285876,30.2352836 C25.3285876,27.5501201 19.6585901,25.373365 12.6642938,25.373365 C5.66999746,25.373365 0,27.5501201 0,30.2352836 C0,32.9204471 5.66999746,50.4282719 12.6642938,50.4282719 Z" id="Oval" fill="#3C3C3C" transform="translate(12.664294, 37.900818) rotate(-180.000000) translate(-12.664294, -37.900818) "></path>
                </g>
            </g>
            <g id="Group-11" transform="translate(108.000000, 0.000000)">
                <g id="Group-10" transform="translate(0.000000, 0.503906)">
                    <path d="M12.6642938,25.5071783 C19.6585901,25.5071783 25.3285876,7.99935357 25.3285876,5.31419008 C25.3285876,2.62902659 19.6585901,0.452271496 12.6642938,0.452271496 C5.66999746,0.452271496 0,2.62902659 0,5.31419008 C0,7.99935357 5.66999746,25.5071783 12.6642938,25.5071783 Z" id="Oval" fill="#E2F1FC" opacity="0.701030344"></path>
                    <ellipse id="Oval" fill="#656F7E" cx="12.6642938" cy="5.31419008" rx="12.6642938" ry="4.86191859"></ellipse>
                    <g id="Group-9" fill="#3C3C3C">
                        <path d="M12.6642938,25.5071783 C19.6585901,25.5071783 25.3285876,7.99935357 25.3285876,5.31419008 C25.3285876,2.62902659 19.6585901,0.452271496 12.6642938,0.452271496 C5.66999746,0.452271496 0,2.62902659 0,5.31419008 C0,7.99935357 5.66999746,25.5071783 12.6642938,25.5071783 Z" id="Oval"></path>
                        <ellipse id="Oval" cx="12.6642938" cy="5.31419008" rx="12.6642938" ry="4.86191859"></ellipse>
                        <ellipse id="Oval" cx="12.6642938" cy="4.86191859" rx="12.6642938" ry="4.86191859"></ellipse>
                    </g>
                    <path d="M12.6642938,50.4282719 C19.6585901,50.4282719 25.3285876,32.9204471 25.3285876,30.2352836 C25.3285876,27.5501201 19.6585901,25.373365 12.6642938,25.373365 C5.66999746,25.373365 0,27.5501201 0,30.2352836 C0,32.9204471 5.66999746,50.4282719 12.6642938,50.4282719 Z" id="Oval" fill="#3C3C3C" transform="translate(12.664294, 37.900818) rotate(-180.000000) translate(-12.664294, -37.900818) "></path>
                </g>
            </g>
            <g id="Group-11" transform="translate(0.000000, 132.000000)">
                <g id="Group-10" transform="translate(0.000000, 0.503906)">
                    <path d="M12.6642938,25.5071783 C19.6585901,25.5071783 25.3285876,7.99935357 25.3285876,5.31419008 C25.3285876,2.62902659 19.6585901,0.452271496 12.6642938,0.452271496 C5.66999746,0.452271496 0,2.62902659 0,5.31419008 C0,7.99935357 5.66999746,25.5071783 12.6642938,25.5071783 Z" id="Oval" fill="#E2F1FC" opacity="0.701030344"></path>
                    <ellipse id="Oval" fill="#656F7E" cx="12.6642938" cy="5.31419008" rx="12.6642938" ry="4.86191859"></ellipse>
                    <g id="Group-9" fill="#3C3C3C">
                        <path d="M12.6642938,25.5071783 C19.6585901,25.5071783 25.3285876,7.99935357 25.3285876,5.31419008 C25.3285876,2.62902659 19.6585901,0.452271496 12.6642938,0.452271496 C5.66999746,0.452271496 0,2.62902659 0,5.31419008 C0,7.99935357 5.66999746,25.5071783 12.6642938,25.5071783 Z" id="Oval"></path>
                        <ellipse id="Oval" cx="12.6642938" cy="5.31419008" rx="12.6642938" ry="4.86191859"></ellipse>
                        <ellipse id="Oval" cx="12.6642938" cy="4.86191859" rx="12.6642938" ry="4.86191859"></ellipse>
                    </g>
                    <path d="M12.6642938,50.4282719 C19.6585901,50.4282719 25.3285876,32.9204471 25.3285876,30.2352836 C25.3285876,27.5501201 19.6585901,25.373365 12.6642938,25.373365 C5.66999746,25.373365 0,27.5501201 0,30.2352836 C0,32.9204471 5.66999746,50.4282719 12.6642938,50.4282719 Z" id="Oval" fill="#3C3C3C" transform="translate(12.664294, 37.900818) rotate(-180.000000) translate(-12.664294, -37.900818) "></path>
                </g>
            </g>
            <g id="Group-11" transform="translate(283.000000, 132.000000)">
                <g id="Group-10" transform="translate(0.000000, 0.503906)">
                    <path d="M12.6642938,25.5071783 C19.6585901,25.5071783 25.3285876,7.99935357 25.3285876,5.31419008 C25.3285876,2.62902659 19.6585901,0.452271496 12.6642938,0.452271496 C5.66999746,0.452271496 0,2.62902659 0,5.31419008 C0,7.99935357 5.66999746,25.5071783 12.6642938,25.5071783 Z" id="Oval" fill="#E2F1FC" opacity="0.701030344"></path>
                    <ellipse id="Oval" fill="#656F7E" cx="12.6642938" cy="5.31419008" rx="12.6642938" ry="4.86191859"></ellipse>
                    <g id="Group-9" fill="#3C3C3C">
                        <path d="M12.6642938,25.5071783 C19.6585901,25.5071783 25.3285876,7.99935357 25.3285876,5.31419008 C25.3285876,2.62902659 19.6585901,0.452271496 12.6642938,0.452271496 C5.66999746,0.452271496 0,2.62902659 0,5.31419008 C0,7.99935357 5.66999746,25.5071783 12.6642938,25.5071783 Z" id="Oval"></path>
                        <ellipse id="Oval" cx="12.6642938" cy="5.31419008" rx="12.6642938" ry="4.86191859"></ellipse>
                        <ellipse id="Oval" cx="12.6642938" cy="4.86191859" rx="12.6642938" ry="4.86191859"></ellipse>
                    </g>
                    <path d="M12.6642938,50.4282719 C19.6585901,50.4282719 25.3285876,32.9204471 25.3285876,30.2352836 C25.3285876,27.5501201 19.6585901,25.373365 12.6642938,25.373365 C5.66999746,25.373365 0,27.5501201 0,30.2352836 C0,32.9204471 5.66999746,50.4282719 12.6642938,50.4282719 Z" id="Oval" fill="#3C3C3C" transform="translate(12.664294, 37.900818) rotate(-180.000000) translate(-12.664294, -37.900818) "></path>
                </g>
            </g>
        </g>
    </g>
</svg>