<?xml version="1.0" encoding="UTF-8"?>
<svg width="82px" height="67px" viewBox="0 0 82 67" version="1.1" xmlns="http://www.w3.org/2000/svg" xmlns:xlink="http://www.w3.org/1999/xlink">
    <!-- Generator: Sketch 45.2 (43514) - http://www.bohemiancoding.com/sketch -->
    <title>Group 22</title>
    <desc>Created with Sketch.</desc>
    <defs></defs>
    <g id="Dashboard" stroke="none" stroke-width="1" fill="none" fill-rule="evenodd">
        <g id="Group-22">
            <g id="Group-179" transform="translate(0.000000, 26.682414)">
                <ellipse id="Oval-45" fill="#DBEFF3" cx="40.8315245" cy="22.2113197" rx="40.8315245" ry="17.2496815"></ellipse>
                <ellipse id="Oval-45" fill="#E8F6F9" cx="40.8315245" cy="17.8443118" rx="40.8315245" ry="17.2496815"></ellipse>
                <ellipse id="Oval-45" fill="#E2F1F4" cx="48.0322239" cy="20.281388" rx="17.4631681" ry="7.37748814"></ellipse>
            </g>
            <g id="Group-10" transform="translate(24.000000, 0.000000)">
                <path d="M12.6642938,25.5071783 C19.6585901,25.5071783 25.3285876,7.99935357 25.3285876,5.31419008 C25.3285876,2.62902659 19.6585901,0.452271496 12.6642938,0.452271496 C5.66999746,0.452271496 0,2.62902659 0,5.31419008 C0,7.99935357 5.66999746,25.5071783 12.6642938,25.5071783 Z" id="Oval" fill="#E2F1FC" opacity="0.701030344"></path>
                <ellipse id="Oval" fill="#656F7E" cx="12.6642938" cy="5.31419008" rx="12.6642938" ry="4.86191859"></ellipse>
                <g id="Group-9">
                    <path d="M12.6642938,25.5071783 C19.6585901,25.5071783 25.3285876,7.99935357 25.3285876,5.31419008 C25.3285876,2.62902659 19.6585901,0.452271496 12.6642938,0.452271496 C5.66999746,0.452271496 0,2.62902659 0,5.31419008 C0,7.99935357 5.66999746,25.5071783 12.6642938,25.5071783 Z" id="Oval" fill="#E2F1FC" opacity="0.701030344"></path>
                    <path d="M12.6746126,25.5071783 C17.018546,25.5071783 20.5399997,16.753266 20.5399997,15.4106842 C20.5399997,14.0681025 17.018546,12.9797249 12.6746126,12.9797249 C8.33067925,12.9797249 4.80922549,14.0681025 4.80922549,15.4106842 C4.80922549,16.753266 8.33067925,25.5071783 12.6746126,25.5071783 Z" id="Oval" fill="#FFC204" opacity="0.701030344"></path>
                    <ellipse id="Oval" fill="#656F7E" cx="12.6642938" cy="5.31419008" rx="12.6642938" ry="4.86191859"></ellipse>
                    <ellipse id="Oval" fill="#7D8897" cx="12.6642938" cy="4.86191859" rx="12.6642938" ry="4.86191859"></ellipse>
                    <ellipse id="Oval" fill="#FEDA5F" cx="12.9407992" cy="14.8660377" rx="7.81095871" ry="2.99868639"></ellipse>
                </g>
                <ellipse id="Oval" fill="#656F7E" transform="translate(12.664294, 45.566353) rotate(-180.000000) translate(-12.664294, -45.566353) " cx="12.6642938" cy="45.5663533" rx="12.6642938" ry="4.86191859"></ellipse>
                <ellipse id="Oval" fill="#7D8897" transform="translate(12.664294, 45.114082) rotate(-180.000000) translate(-12.664294, -45.114082) " cx="12.6642938" cy="45.1140818" rx="12.6642938" ry="4.86191859"></ellipse>
                <path d="M12.9849088,25.6664074 L12.9849088,26.7970862" id="Line-5" stroke="#F4CE4D" stroke-linecap="square"></path>
                <path d="M12.6642938,50.4282719 C19.6585901,50.4282719 25.3285876,32.9204471 25.3285876,30.2352836 C25.3285876,27.5501201 19.6585901,25.373365 12.6642938,25.373365 C5.66999746,25.373365 0,27.5501201 0,30.2352836 C0,32.9204471 5.66999746,50.4282719 12.6642938,50.4282719 Z" id="Oval" fill="#E2F1FC" opacity="0.701030344" transform="translate(12.664294, 37.900818) rotate(-180.000000) translate(-12.664294, -37.900818) "></path>
                <path d="M12.7981946,48.0993034 C18.1131255,48.0993034 22.4217284,37.5819734 22.4217284,35.9689374 C22.4217284,34.3559015 18.1131255,33.0482775 12.7981946,33.0482775 C7.48326372,33.0482775 3.17466091,34.3559015 3.17466091,35.9689374 C3.17466091,37.5819734 7.48326372,48.0993034 12.7981946,48.0993034 Z" id="Oval" fill="#FFC204" opacity="0.792629076" transform="translate(12.798195, 40.573790) rotate(179.000000) translate(-12.798195, -40.573790) "></path>
                <path d="M12.3436787,26.1186789 L12.3436787,27.2493577" id="Line-5" stroke="#F4CE4D" stroke-linecap="square"></path>
                <path d="M13.3055238,27.4754934 L13.3055238,28.6061722" id="Line-5" stroke="#F4CE4D" stroke-linecap="square"></path>
            </g>
        </g>
    </g>
</svg>