<?xml version="1.0" encoding="UTF-8"?>
<svg width="82px" height="56px" viewBox="0 0 82 56" version="1.1" xmlns="http://www.w3.org/2000/svg" xmlns:xlink="http://www.w3.org/1999/xlink">
    <!-- Generator: Sketch 45.2 (43514) - http://www.bohemiancoding.com/sketch -->
    <title>Group 21</title>
    <desc>Created with Sketch.</desc>
    <defs></defs>
    <g id="Dashboard" stroke="none" stroke-width="1" fill="none" fill-rule="evenodd">
        <g id="Group-21">
            <ellipse id="Oval-45" fill="#DBEFF3" cx="40.8315245" cy="38.2113197" rx="40.8315245" ry="17.2496815"></ellipse>
            <ellipse id="Oval-45" fill="#E8F6F9" cx="40.8315245" cy="33.8443118" rx="40.8315245" ry="17.2496815"></ellipse>
            <ellipse id="Oval-45" fill="#E2F1F4" cx="48.0322239" cy="36.281388" rx="17.4631681" ry="7.37748814"></ellipse>
            <g id="Group-130" transform="translate(28.385552, 0.000000)">
                <g id="Group-128">
                    <g id="Group-129">
                        <g id="Group-131">
                            <polygon id="Rectangle-82" fill="#3CB8FF" points="0.041083407 2.83536095 10.7733218 8.35740678 14.885645 20.5563669 7.79724261 22.1379063"></polygon>
                            <polygon id="Rectangle-83" fill="#18AAFF" points="0 2.83536095 2.7776564 0.429848019 13.4679645 6.37956213 10.40951 8.46114632"></polygon>
                            <polygon id="Rectangle-83" fill="#18AAFF" points="15.3492358 21.856707 19.0888758 20.9396155 13.4679645 6.37956213 10.40951 8.46114632"></polygon>
                        </g>
                        <g id="Group-131" transform="translate(13.101024, 9.607418)">
                            <polygon id="Rectangle-82" fill="#3CB8FF" points="3.53468978 2.83536095 14.2669282 8.35740678 4.37803643 16.9569977 0.382996176 12.4866336"></polygon>
                            <polygon id="Rectangle-83" fill="#18AAFF" points="3.49360638 2.83536095 6.27126277 0.429848019 16.9615709 6.37956213 13.9031164 8.46114632"></polygon>
                            <polygon id="Rectangle-83" fill="#18AAFF" points="4.18089742 17.3383401 5.55052202 18.4689143 16.9615709 6.37956213 13.9031164 8.46114632"></polygon>
                        </g>
                    </g>
                </g>
                <path d="M12.7510951,35.8173423 C17.6810533,37.1253813 20.3671138,35.3621493 21.5994443,30.2823526 C22.8317748,25.2025558 15.9474341,14.1768047 10.6624318,14.1768047 C5.37742944,14.1768047 3.60118446,15.8578248 3.60118446,21.9257904 C3.60118446,27.993756 7.82113701,34.5093034 12.7510951,35.8173423 Z" id="Oval-46" fill="#E5AF07"></path>
                <path d="M11.3334147,37.2350228 C16.2633728,38.5430618 18.9494334,36.7798298 20.1817638,31.700033 C21.4140943,26.6202363 14.5297536,15.5944852 9.24475128,15.5944852 C3.95974897,15.5944852 2.18350398,17.2755053 2.18350398,23.3434709 C2.18350398,29.4114365 6.40345653,35.9269839 11.3334147,37.2350228 Z" id="Oval-46" fill="#FFC204"></path>
                <path d="M10.6774305,35.1659406 C14.4901013,36.1775358 16.567414,34.813909 17.5204586,30.8853579 C18.4735033,26.9568067 13.1493761,18.4298462 9.06212558,18.4298462 C4.97487509,18.4298462 3.60118446,19.7298929 3.60118446,24.422662 C3.60118446,29.1154311 6.86475977,34.1543454 10.6774305,35.1659406 Z" id="Oval-46" stroke="#FD9802"></path>
                <polygon id="Star-8" fill="#FF9F11" points="10.2317581 29.1490527 7.58281911 29.9790032 8.60737459 26.8828749 7.14538564 24.134359 9.30645035 24.8464704 10.7190858 21.9740473 12.0499919 25.6432791 14.8876156 26.19777 12.5355608 27.9562704 12.8868711 31.6717697"></polygon>
            </g>
        </g>
    </g>
</svg>