<?xml version="1.0" encoding="UTF-8"?>
<svg width="398px" height="314px" viewBox="0 0 398 314" version="1.1" xmlns="http://www.w3.org/2000/svg" xmlns:xlink="http://www.w3.org/1999/xlink">
    <!-- Generator: Sketch 45.2 (43514) - http://www.bohemiancoding.com/sketch -->
    <title>Group 19</title>
    <desc>Created with Sketch.</desc>
    <defs></defs>
    <g id="Dashboard" stroke="none" stroke-width="1" fill="none" fill-rule="evenodd" opacity="0.07">
        <g id="Group-19" fill="#3C3C3C">
            <g id="Group-130" transform="translate(351.000000, 59.000000)">
                <g id="Group-128">
                    <g id="Group-129">
                        <g id="Group-131">
                            <polygon id="Rectangle-82" points="0.0635369465 4.3849863 16.6613244 12.9250261 23.0211781 31.7911506 12.0587123 34.2370574"></polygon>
                            <polygon id="Rectangle-83" points="0 4.3849863 4.29574416 0.664775211 20.8286849 9.86621917 16.0986765 13.085463"></polygon>
                            <polygon id="Rectangle-83" points="23.7381378 33.8021728 29.5216236 32.3838582 20.8286849 9.86621917 16.0986765 13.085463"></polygon>
                        </g>
                        <g id="Group-131" transform="translate(20.261198, 14.858212)">
                            <polygon id="Rectangle-82" points="5.46652315 4.3849863 22.0643106 12.9250261 6.77078867 26.2245986 0.592317174 19.3110219"></polygon>
                            <polygon id="Rectangle-83" points="5.4029862 4.3849863 9.69873036 0.664775211 26.2316711 9.86621917 21.5016627 13.085463"></polygon>
                            <polygon id="Rectangle-83" points="5.36271897 25.2146819 8.58407922 28.5628311 26.2316711 9.86621917 21.5016627 13.085463"></polygon>
                        </g>
                    </g>
                </g>
                <path d="M19.720021,55.3927906 C27.3443762,57.4157193 31.4984641,54.6888185 33.4043069,46.8327326 C35.3101497,38.9766467 24.6632726,21.9249315 16.489829,21.9249315 C8.31638541,21.9249315 5.56935953,24.5246886 5.56935953,33.9090128 C5.56935953,43.2933369 12.0956659,53.369862 19.720021,55.3927906 Z" id="Oval-46"></path>
                <path d="M17.5275279,57.5852838 C25.151883,59.6082124 29.3059709,56.8813116 31.2118138,49.0252257 C33.1176566,41.1691398 22.4707794,24.1174246 14.2973358,24.1174246 C6.12389226,24.1174246 3.37686638,26.7171818 3.37686638,36.1015059 C3.37686638,45.48583 9.9031727,55.5623551 17.5275279,57.5852838 Z" id="Oval-46"></path>
            </g>
            <g id="Group-130" transform="translate(91.000000, 104.000000)">
                <g id="Group-128">
                    <g id="Group-129">
                        <g id="Group-131">
                            <polygon id="Rectangle-82" points="0.0635369465 4.3849863 16.6613244 12.9250261 23.0211781 31.7911506 12.0587123 34.2370574"></polygon>
                            <polygon id="Rectangle-83" points="0 4.3849863 4.29574416 0.664775211 20.8286849 9.86621917 16.0986765 13.085463"></polygon>
                            <polygon id="Rectangle-83" points="23.7381378 33.8021728 29.5216236 32.3838582 20.8286849 9.86621917 16.0986765 13.085463"></polygon>
                        </g>
                        <g id="Group-131" transform="translate(20.261198, 14.858212)">
                            <polygon id="Rectangle-82" points="5.46652315 4.3849863 22.0643106 12.9250261 6.77078867 26.2245986 0.592317174 19.3110219"></polygon>
                            <polygon id="Rectangle-83" points="5.4029862 4.3849863 9.69873036 0.664775211 26.2316711 9.86621917 21.5016627 13.085463"></polygon>
                            <polygon id="Rectangle-83" points="5.36271897 25.2146819 8.58407922 28.5628311 26.2316711 9.86621917 21.5016627 13.085463"></polygon>
                        </g>
                    </g>
                </g>
                <path d="M19.720021,55.3927906 C27.3443762,57.4157193 31.4984641,54.6888185 33.4043069,46.8327326 C35.3101497,38.9766467 24.6632726,21.9249315 16.489829,21.9249315 C8.31638541,21.9249315 5.56935953,24.5246886 5.56935953,33.9090128 C5.56935953,43.2933369 12.0956659,53.369862 19.720021,55.3927906 Z" id="Oval-46"></path>
                <path d="M17.5275279,57.5852838 C25.151883,59.6082124 29.3059709,56.8813116 31.2118138,49.0252257 C33.1176566,41.1691398 22.4707794,24.1174246 14.2973358,24.1174246 C6.12389226,24.1174246 3.37686638,26.7171818 3.37686638,36.1015059 C3.37686638,45.48583 9.9031727,55.5623551 17.5275279,57.5852838 Z" id="Oval-46"></path>
            </g>
            <g id="Group-130" transform="translate(255.000000, 255.000000)">
                <g id="Group-128">
                    <g id="Group-129">
                        <g id="Group-131">
                            <polygon id="Rectangle-82" points="0.0635369465 4.3849863 16.6613244 12.9250261 23.0211781 31.7911506 12.0587123 34.2370574"></polygon>
                            <polygon id="Rectangle-83" points="0 4.3849863 4.29574416 0.664775211 20.8286849 9.86621917 16.0986765 13.085463"></polygon>
                            <polygon id="Rectangle-83" points="23.7381378 33.8021728 29.5216236 32.3838582 20.8286849 9.86621917 16.0986765 13.085463"></polygon>
                        </g>
                        <g id="Group-131" transform="translate(20.261198, 14.858212)">
                            <polygon id="Rectangle-82" points="5.46652315 4.3849863 22.0643106 12.9250261 6.77078867 26.2245986 0.592317174 19.3110219"></polygon>
                            <polygon id="Rectangle-83" points="5.4029862 4.3849863 9.69873036 0.664775211 26.2316711 9.86621917 21.5016627 13.085463"></polygon>
                            <polygon id="Rectangle-83" points="5.36271897 25.2146819 8.58407922 28.5628311 26.2316711 9.86621917 21.5016627 13.085463"></polygon>
                        </g>
                    </g>
                </g>
                <path d="M19.720021,55.3927906 C27.3443762,57.4157193 31.4984641,54.6888185 33.4043069,46.8327326 C35.3101497,38.9766467 24.6632726,21.9249315 16.489829,21.9249315 C8.31638541,21.9249315 5.56935953,24.5246886 5.56935953,33.9090128 C5.56935953,43.2933369 12.0956659,53.369862 19.720021,55.3927906 Z" id="Oval-46"></path>
                <path d="M17.5275279,57.5852838 C25.151883,59.6082124 29.3059709,56.8813116 31.2118138,49.0252257 C33.1176566,41.1691398 22.4707794,24.1174246 14.2973358,24.1174246 C6.12389226,24.1174246 3.37686638,26.7171818 3.37686638,36.1015059 C3.37686638,45.48583 9.9031727,55.5623551 17.5275279,57.5852838 Z" id="Oval-46"></path>
            </g>
            <g id="Group-130" transform="translate(24.000000, 173.000000)">
                <g id="Group-128">
                    <g id="Group-129">
                        <g id="Group-131">
                            <polygon id="Rectangle-82" points="0.0635369465 4.3849863 16.6613244 12.9250261 23.0211781 31.7911506 12.0587123 34.2370574"></polygon>
                            <polygon id="Rectangle-83" points="0 4.3849863 4.29574416 0.664775211 20.8286849 9.86621917 16.0986765 13.085463"></polygon>
                            <polygon id="Rectangle-83" points="23.7381378 33.8021728 29.5216236 32.3838582 20.8286849 9.86621917 16.0986765 13.085463"></polygon>
                        </g>
                        <g id="Group-131" transform="translate(20.261198, 14.858212)">
                            <polygon id="Rectangle-82" points="5.46652315 4.3849863 22.0643106 12.9250261 6.77078867 26.2245986 0.592317174 19.3110219"></polygon>
                            <polygon id="Rectangle-83" points="5.4029862 4.3849863 9.69873036 0.664775211 26.2316711 9.86621917 21.5016627 13.085463"></polygon>
                            <polygon id="Rectangle-83" points="5.36271897 25.2146819 8.58407922 28.5628311 26.2316711 9.86621917 21.5016627 13.085463"></polygon>
                        </g>
                    </g>
                </g>
                <path d="M19.720021,55.3927906 C27.3443762,57.4157193 31.4984641,54.6888185 33.4043069,46.8327326 C35.3101497,38.9766467 24.6632726,21.9249315 16.489829,21.9249315 C8.31638541,21.9249315 5.56935953,24.5246886 5.56935953,33.9090128 C5.56935953,43.2933369 12.0956659,53.369862 19.720021,55.3927906 Z" id="Oval-46"></path>
                <path d="M17.5275279,57.5852838 C25.151883,59.6082124 29.3059709,56.8813116 31.2118138,49.0252257 C33.1176566,41.1691398 22.4707794,24.1174246 14.2973358,24.1174246 C6.12389226,24.1174246 3.37686638,26.7171818 3.37686638,36.1015059 C3.37686638,45.48583 9.9031727,55.5623551 17.5275279,57.5852838 Z" id="Oval-46"></path>
            </g>
            <g id="Group-130">
                <g id="Group-128">
                    <g id="Group-129">
                        <g id="Group-131">
                            <polygon id="Rectangle-82" points="0.0635369465 4.3849863 16.6613244 12.9250261 23.0211781 31.7911506 12.0587123 34.2370574"></polygon>
                            <polygon id="Rectangle-83" points="0 4.3849863 4.29574416 0.664775211 20.8286849 9.86621917 16.0986765 13.085463"></polygon>
                            <polygon id="Rectangle-83" points="23.7381378 33.8021728 29.5216236 32.3838582 20.8286849 9.86621917 16.0986765 13.085463"></polygon>
                        </g>
                        <g id="Group-131" transform="translate(20.261198, 14.858212)">
                            <polygon id="Rectangle-82" points="5.46652315 4.3849863 22.0643106 12.9250261 6.77078867 26.2245986 0.592317174 19.3110219"></polygon>
                            <polygon id="Rectangle-83" points="5.4029862 4.3849863 9.69873036 0.664775211 26.2316711 9.86621917 21.5016627 13.085463"></polygon>
                            <polygon id="Rectangle-83" points="5.36271897 25.2146819 8.58407922 28.5628311 26.2316711 9.86621917 21.5016627 13.085463"></polygon>
                        </g>
                    </g>
                </g>
                <path d="M19.720021,55.3927906 C27.3443762,57.4157193 31.4984641,54.6888185 33.4043069,46.8327326 C35.3101497,38.9766467 24.6632726,21.9249315 16.489829,21.9249315 C8.31638541,21.9249315 5.56935953,24.5246886 5.56935953,33.9090128 C5.56935953,43.2933369 12.0956659,53.369862 19.720021,55.3927906 Z" id="Oval-46"></path>
                <path d="M17.5275279,57.5852838 C25.151883,59.6082124 29.3059709,56.8813116 31.2118138,49.0252257 C33.1176566,41.1691398 22.4707794,24.1174246 14.2973358,24.1174246 C6.12389226,24.1174246 3.37686638,26.7171818 3.37686638,36.1015059 C3.37686638,45.48583 9.9031727,55.5623551 17.5275279,57.5852838 Z" id="Oval-46"></path>
            </g>
        </g>
    </g>
</svg>