<?xml version="1.0" encoding="UTF-8"?>
<svg width="837px" height="413px" viewBox="0 0 837 413" version="1.1" xmlns="http://www.w3.org/2000/svg" xmlns:xlink="http://www.w3.org/1999/xlink">
    <!-- Generator: Sketch 44.1 (41455) - http://www.bohemiancoding.com/sketch -->
    <title>Group 20</title>
    <desc>Created with Sketch.</desc>
    <defs>
        <path d="M0.700314211,63.4527294 C0.700314211,63.4527294 165.839729,27.7359976 277.410073,17.605451 C388.980417,7.47490443 413.081645,4.3416435 413.081645,4.3416435 C413.081645,4.3416435 478.544932,-4.68764709 499.140058,4.3416435 C506.814057,7.70606915 589.225307,24.8968837 622.341649,47.4787887 C655.457991,70.0606938 692.487739,135.391777 692.487739,135.391777 C692.487739,135.391777 673.563852,177.611518 560.836633,185.45408 C448.109413,193.296642 411.813768,151.466264 374.76956,155.064503 C340.163215,158.425944 307.083297,193.047568 282.849804,196.280792 C258.616311,199.514017 177.091705,185.45408 177.091705,185.45408 C177.091705,185.45408 146.947253,107.616891 131.597323,94.0126583 C116.247393,80.4084257 0.700314211,63.4527294 0.700314211,63.4527294 Z" id="path-1"></path>
    </defs>
    <g id="MVP-SESSIONS" stroke="none" stroke-width="1" fill="none" fill-rule="evenodd">
        <g id="Group-20" transform="translate(0.000000, -15.000000)">
            <g id="Group-15">
                <polygon id="Rectangle-9" fill="#FFFFFF" points="6.26676622 233.572701 531.340045 166.22184 836.415601 285.629369 189.560557 363.454245"></polygon>
                <polygon id="Rectangle-9" fill="#F3F3F3" points="6.26676622 233.572701 6.26676622 297.214801 189.560557 427.635403 189.560557 363.454245"></polygon>
                <polygon id="Rectangle-9" fill="#F9F9F9" points="189.560557 426.927106 836.415601 347.002413 836.415601 285.629369 189.560557 363.454245"></polygon>
                <path d="M254.274681,263.225912 C305.854112,258.424933 348.166939,249.509493 399.890056,252.734651" id="Path-127" stroke="#00A2F2"></path>
                <path d="M618.950576,224.541456 C672.112383,210.294171 664.455599,203.78963 707.141484,227.511911 C728.739984,239.515076 782.764054,238.863301 772.9983,261.545542 L776.556547,272.438836 C768.324855,291.558017 719.400949,296.005271 713.68281,297.015704 C672.110271,304.361842 628.156286,261.096879 607.052383,230.389845" id="Path-136" stroke="#00A2F2" fill="#E7EBEE"></path>
                <path d="M489.454498,182.808905 C542.616305,168.56162 534.959521,162.057079 577.645406,185.779361 C599.243906,197.782525 653.267975,197.13075 643.502221,219.812991 L647.060468,230.706285 C638.828777,249.825466 589.904871,254.272721 584.186731,255.283153 C542.614193,262.629291 498.660208,219.364329 477.556305,188.657294" id="Path-136" stroke="#00A2F2" fill="#E7EBEE"></path>
                <g id="Group-27" transform="translate(586.580640, 226.030297) rotate(-285.000000) translate(-586.580640, -226.030297) translate(576.974308, 206.817633)" fill="#263345">
                    <path d="M9.59648556,0.773279428 C9.59648556,3.65824688 7.67172419,8.60682554 8.70829484,10.7730282 C9.74486549,12.9392308 15.5325922,14.198913 16.2994886,13.1337773 C16.9657435,12.2084218 18.9880449,7.49212026 17.6281046,4.59753626 C16.2681644,1.70295225 12.1569992,1.42034029 10.1475662,0.978571782 L9.59648556,0.773279428 Z" id="Path-30"></path>
                    <path d="M6.64892701,25.9184029 C6.64892701,28.8033704 6.18665495,33.901005 7.2232256,36.0672077 C8.25979625,38.2334103 11.6649259,38.4016339 12.4318223,37.3364982 C13.0616183,36.4617801 10.67193,26.7145198 8.66249698,26.2727512 L6.64892701,25.9184029 Z" id="Path-30"></path>
                    <path d="M3.19346227,13.6502392 C3.19346227,15.3758233 2.04220575,18.335714 2.66220921,19.6313837 C3.28221268,20.9270534 6.74402262,21.6805064 7.20272598,21.0434174 C7.60123268,20.4899349 8.81083074,17.668976 7.9974104,15.9376399 C7.18399007,14.2063039 4.72498095,14.0372654 3.52307985,13.7730306 L3.19346227,13.6502392 Z" id="Path-30" transform="translate(5.375778, 17.462009) rotate(-47.000000) translate(-5.375778, -17.462009) "></path>
                </g>
                <path d="M152.956772,285.563281 C104.187576,285.985437 80.685297,311.139679 156.031121,298.288359" id="Path-140" fill="#FF939F"></path>
                <path d="M129.561969,260.533161 C108.600056,260.714611 75.1598815,267.429756 72.6094777,269.979753 C70.0590739,272.529751 70.3672441,274.591833 72.6094777,275.488254 C73.9418837,276.020936 74.4473605,279.187819 76.6379466,279.417815 C78.8285326,279.647811 111.110875,275.18785 136.840437,270.799302" id="Path-140" fill="#FF939F"></path>
                <g id="Group-2" transform="translate(568.197408, 179.650783) scale(-1, 1) rotate(-75.000000) translate(-568.197408, -179.650783) translate(460.606489, 68.217332)">
                    <g id="Group-36" transform="translate(108.026986, 110.817480) rotate(-25.000000) translate(-108.026986, -110.817480) translate(29.895485, 25.000914)">
                        <path d="M79.4494946,28.2915238 C81.8338194,30.7364663 102.519225,34.1368356 116.097813,57.5682501 C129.676401,80.9996647 133.924537,52.958493 131.62975,60.9511091 C128.900401,70.4572782 110.640562,61.8468631 106.680419,59.3201893 C96.1311141,52.5894599 83.5797225,57.8777754 73.4233358,59.1364569 C71.0585891,59.4295201 64.5786783,56.9519193 58.8830916,59.7075955 C53.187505,62.4632717 47.16106,87.3175656 44.982891,95.1193553 C40.4776679,111.256213 40.5781273,145.762661 36.9598562,153.41594 C33.3415851,161.069218 31.1434991,153.412106 26.2573146,153.247388 C17.2378733,152.943334 18.3487803,105.682492 27.291077,68.0421455 C28.6055191,62.5093324 25.401386,54.0920341 24.6702387,47.5528303 C23.9390915,41.0136265 20.0146954,33.5117434 22.9649966,25.8363017 C25.9152978,18.1608601 33.2410917,15.9037714 37.2320818,14.8722026 C42.8452754,13.4213357 76.0443048,24.7997624 79.4494946,28.2915238 Z" id="Path-90" fill="#FF6482" transform="translate(76.116867, 85.777728) rotate(18.000000) translate(-76.116867, -85.777728) "></path>
                        <g id="Group-38" transform="translate(116.707094, 72.394688) rotate(-42.000000) translate(-116.707094, -72.394688) translate(98.134852, 33.969360)">
                            <path d="M0.818019756,5.41604275 C12.1053706,22.0747943 14.9949467,34.4111192 12.1923948,53.1615011 C11.0430048,60.8514571 5.84701332,75.7365754 5.84701332,75.7365754 C5.84701332,75.7365754 20.2046545,67.0894966 26.6263571,61.9406967 C40.6877395,50.6665457 44.9308293,-13.7773715 2.47083627,7.23978802 L0.818019756,5.41604275 Z" id="Path-109" fill="#263345"></path>
                            <path d="M35.115388,19.7555445 C34.4608655,1.83381505 26.7195874,-4.76303711 2.47083627,7.23978802 L1.44439368,6.47567197 C7.09772145,15.7124671 10.1143648,21.658918 11.9176242,29.5813858 C11.9176242,29.5813858 15.9723059,21.5912277 20.3061583,19.7555445 C24.6400108,17.9198613 35.115388,19.7555445 35.115388,19.7555445 Z" id="Path-109" fill="#FF939F"></path>
                            <path d="M33.6402407,12.4858578 C32.5782095,-1.95849989 25.0053981,-1.32029493 0.598825546,5.12147083 C0.598825546,5.12147083 6.58890853,14.9601512 8.40390427,19.2120404 C8.40390427,19.2120404 12.0719761,13.4710459 16.4340351,12.4858578 C20.7960942,11.5006696 33.6402407,12.4858578 33.6402407,12.4858578 Z" id="Path-109" fill="#FFC7CE"></path>
                            <path d="M31.426475,30.5127881 C19.6864184,10.7844878 27.5620799,17.9854368 9.75148753,7.3380171" id="Path-110" stroke="#263345" stroke-width="3" transform="translate(20.588981, 18.925403) rotate(-158.000000) translate(-20.588981, -18.925403) "></path>
                        </g>
                    </g>
                    <path d="M84.181746,56.4164691 C82.8970008,57.6151122 80.5835785,56.8020832 79.2988333,58.0007263 C78.0140881,59.1993693 78.2304069,61.9689564 77.1818552,62.9472354" id="Path-114" stroke="#263345"></path>
                    <path d="M94.0329999,49.0280287 C92.7482547,50.2266717 90.4348325,49.4136428 89.1500873,50.6122858 C87.8653421,51.8109289 88.0816609,54.5805159 87.0331091,55.5587949" id="Path-114" stroke="#263345"></path>
                </g>
                <g id="Group-14" transform="translate(0.000000, 171.536473)">
                    <g id="Rectangle-8">
                        <use fill="#EFF2F9" fill-rule="evenodd" xlink:href="#path-1"></use>
                        <path stroke="#00A2F2" stroke-width="1" d="M3.4940666,63.3659383 C4.40172147,63.5035668 5.39641259,63.6556623 6.47308364,63.8217489 C11.0059771,64.5209904 16.0567837,65.3234881 21.4960644,66.2170621 C37.037255,68.7701943 52.5786232,71.5414184 67.0850968,74.4334205 C88.2203917,78.6469406 105.317232,82.7532983 116.937604,86.619994 C124.367603,89.0923369 129.434349,91.4275625 131.928958,93.638468 C136.63199,97.806639 142.908496,108.013069 150.411791,123.041255 C152.785853,127.796211 155.252608,132.976663 157.791329,138.516866 C162.478465,148.745518 167.188762,159.70347 171.691632,170.661247 C173.267584,174.496342 174.705072,178.057557 175.975243,181.253655 C176.419854,182.372418 176.811809,183.365676 177.147503,184.222022 C177.265027,184.521824 177.367133,184.783121 177.453369,185.004486 C177.453972,185.006036 177.454571,185.007575 177.455165,185.009103 C177.579853,185.030404 177.734872,185.056811 177.919437,185.088148 C178.528812,185.191611 179.241813,185.311642 180.052326,185.446858 C182.36836,185.833237 185.001092,186.263794 187.901612,186.727482 C196.189002,188.052337 204.960761,189.3772 213.825507,190.6137 C220.584392,191.556463 227.136024,192.410493 233.38739,193.154803 C256.575352,195.915648 273.871031,196.974307 282.78368,195.785184 C288.314597,195.047251 294.568924,192.645368 302.377438,188.485102 C305.572404,186.782868 308.982543,184.81725 313.269305,182.235474 C315.522829,180.878251 323.486059,176.005549 324.756524,175.23501 C346.344773,162.141713 359.959877,156.000669 374.721221,154.566845 C375.083538,154.531652 375.446627,154.500676 375.810583,154.473888 C383.833079,153.883422 392.080024,155.266035 402.984426,158.673831 C408.586802,160.424662 431.070155,168.540093 435.915253,170.166107 C474.192305,183.011878 510.686376,188.441883 560.801931,184.955286 C605.65146,181.835053 638.973976,173.139621 662.464934,160.604592 C672.932704,155.018877 680.726717,149.040519 686.240979,143.069412 C688.165286,140.98568 689.666913,139.053718 690.794952,137.323357 C691.187762,136.720804 691.505536,136.187375 691.754398,135.729301 C691.82248,135.603982 691.878405,135.497504 691.922778,135.410484 C691.914688,135.39635 691.906274,135.381657 691.897539,135.366409 C691.768569,135.141277 691.615386,134.875355 691.438541,134.5701 C690.93298,133.697439 690.339397,132.684927 689.662213,131.544225 C687.726914,128.284255 685.510201,124.65138 683.04744,120.738889 C676.011138,109.560597 668.414624,98.3824988 660.54144,87.9514156 C650.509983,74.660862 640.761177,63.5680672 631.576912,55.4050098 C628.306499,52.4982372 625.130958,49.9859899 622.059959,47.8918874 C610.260934,39.846178 591.513143,31.9619215 567.1307,24.1143312 C553.634086,19.77039 540.028449,15.9148797 522.908556,11.4004447 C521.289374,10.973474 509.711861,7.94621472 507.142617,7.25749001 C502.557242,6.02831079 500.043973,5.28387906 498.939296,4.79956753 C491.50628,1.54079346 477.617576,0.404171608 459.188728,0.963386572 C450.208288,1.23589393 440.604786,1.89868401 430.864123,2.83285083 C426.29162,3.27137144 421.989602,3.74121335 418.085869,4.21102727 C416.719791,4.37543452 415.50117,4.52808157 414.445976,4.66504939 C414.07682,4.71296705 413.754506,4.75549557 413.481031,4.79214507 C413.317181,4.81410335 413.205859,4.82924383 413.146104,4.83747104 C413.097686,4.8437643 412.999297,4.85628725 412.845639,4.87545814 C412.59019,4.90732882 412.272212,4.946259 411.887835,4.99248504 C410.790435,5.12446066 409.381026,5.28845158 407.628649,5.4863472 C402.623391,6.05159038 395.874966,6.77510017 387.135784,7.67197981 C362.169158,10.2342399 326.269129,13.6711235 277.455287,18.1034025 C251.812507,20.4317576 222.084477,24.2216245 189.075856,29.2478304 C168.805836,32.334336 147.588289,35.8435119 125.703701,39.6967679 C95.5819576,45.0003535 65.7083707,50.6828345 37.4348943,56.365306 C27.5392491,58.3541567 18.5505216,60.2009301 10.6376903,61.8582646 C7.93290917,62.4247782 5.54514191,62.9291747 3.4940666,63.3659383 Z"></path>
                    </g>
                    <path d="M247.447684,96.205655 C350.79539,79.0577025 335.997529,58.6799948 447.182324,84.2069621" id="Path-139" stroke="#00A2F2"></path>
                </g>
                <path d="M76.5466544,268.879521 C89.5888104,283.457238 65.2563806,277.991148 75.6160957,268.56628 L76.5466544,268.879521 Z" id="Path-141" stroke="#263345"></path>
                <path d="M113.546654,291.879521 C126.58881,306.457238 102.256381,300.991148 112.616096,291.56628 L113.546654,291.879521 Z" id="Path-141" stroke="#263345"></path>
                <text id="z" font-family="OpenSans, Open Sans" font-size="30" font-weight="normal" fill="#00A2F2">
                    <tspan x="598.160679" y="94.5988255">z</tspan>
                </text>
                <text id="z" font-family="OpenSans, Open Sans" font-size="30" font-weight="normal" fill="#00A2F2">
                    <tspan x="619.047143" y="52.8662752">z</tspan>
                </text>
                <text id="z" font-family="OpenSans, Open Sans" font-size="30" font-weight="normal" fill="#00A2F2">
                    <tspan x="660.820072" y="32">z</tspan>
                </text>
            </g>
        </g>
    </g>
</svg>