<?xml version="1.0" encoding="UTF-8"?>
<svg width="364px" height="364px" viewBox="0 0 364 364" version="1.1" xmlns="http://www.w3.org/2000/svg" xmlns:xlink="http://www.w3.org/1999/xlink">
    <!-- Generator: Sketch 44.1 (41455) - http://www.bohemiancoding.com/sketch -->
    <title>Group 18</title>
    <desc>Created with Sketch.</desc>
    <defs></defs>
    <g id="MVP-SESSIONS" stroke="none" stroke-width="1" fill="none" fill-rule="evenodd">
        <g id="Group-18" transform="translate(182.000000, 182.500000) scale(-1, 1) translate(-182.000000, -182.500000) translate(0.000000, 1.000000)">
            <g id="Group-15">
                <path d="M138.174,350.777778 C189.940986,350.777778 169.135177,344.234789 192.694536,328.754229 C216.253896,313.27367 276,309.154786 276,300.222222 C276,286.149604 226.795704,293.323614 201.500221,284.158038 C176.204738,274.992463 175.928024,249.666667 138.174,249.666667 C94.7379666,249.666667 112.796972,259.255407 87.5346344,270.772514 C62.2722968,282.289621 0.348,288.233805 0.348,300.222222 C0.348,328.143285 62.0548021,350.777778 138.174,350.777778 Z" id="Oval-4" fill="#E7EBEE"></path>
                <g id="Group-17" transform="translate(91.000000, 0.000000)">
                    <g id="Group-16">
                        <g id="Group-14">
                            <path d="M34.5918569,97.8597824 C23.9034612,78.7404244 14.8534041,61.1406571 7.66877499,38.3688744 C4.63178776,28.7431008 -2.08712158,12.6225615 2.71275396,1.04461189 C2.85495007,0.701615624 3.19341188,0.280320266 3.41897358,0.491843196 C4.00589175,1.04223209 4.33894625,2.07212354 4.73332676,2.93942599 C8.82137922,11.9296721 12.9674669,20.86318 16.8621137,30.0553432 C24.0611106,47.0464481 35.8251214,80.6697451 43.4736195,95.0156891 L34.5918569,97.8597824 Z" id="Path-61" fill="#FF939F"></path>
                            <path d="M2.97236033,20.8007696 C2.5528596,18.6035399 -1.73270583,5.68313075 1.3085205,1.23142026 C1.56067258,0.862323095 1.96313297,0.711976771 2.30845695,0.774074833 C2.5932596,0.825289618 2.84222716,1.18118172 3.01181361,1.53771582 C4.64732261,4.97616714 6.13361065,8.57761862 7.69450918,12.09757" id="Path-62" stroke="#263345" stroke-width="2"></path>
                        </g>
                        <g id="Group-14" transform="translate(121.000000, 60.500000) scale(-1, 1) translate(-121.000000, -60.500000) translate(102.000000, 19.000000)">
                            <path d="M27.9606345,79.7509719 C17.2722388,60.6316139 14.8534041,61.1406571 7.66877499,38.3688744 C4.63178776,28.7431008 -2.08712158,12.6225615 2.71275396,1.04461189 C2.85495007,0.701615624 3.19341188,0.280320266 3.41897358,0.491843196 C4.00589175,1.04223209 4.33894625,2.07212354 4.73332676,2.93942599 C8.82137922,11.9296721 12.9674669,20.86318 16.8621137,30.0553432 C24.0611106,47.0464481 30.2491675,68.43114 37.8976656,82.777084 L27.9606345,79.7509719 Z" id="Path-61" fill="#FF939F"></path>
                            <path d="M2.97236033,20.8007696 C2.5528596,18.6035399 -1.73270583,5.68313075 1.3085205,1.23142026 C1.56067258,0.862323095 1.96313297,0.711976771 2.30845695,0.774074833 C2.5932596,0.825289618 2.84222716,1.18118172 3.01181361,1.53771582 C4.64732261,4.97616714 6.13361065,8.57761862 7.69450918,12.09757" id="Path-62" stroke="#263345" stroke-width="2"></path>
                        </g>
                    </g>
                </g>
            </g>
            <g id="Group-5" transform="translate(57.000000, 43.000000)">
                <polygon id="Rectangle-4" fill="#D6DDE2" points="48 207 186.873347 236.630921 190 297 53.4854805 229.86328"></polygon>
                <polygon id="Rectangle-4" fill="#C6CFD6" points="305.19561 198.491785 186.873347 236.630921 190 297 303.419886 243.893237"></polygon>
                <path d="M86.4272658,3.7962734 C90.5994996,13.5876873 85.5073003,15.0930584 85.2070273,24.9982704 C84.9542669,33.3361688 80.899135,60.2816017 76.4902282,64.3416344 C67.003546,73.0776414 77.6965566,104.772291 63.477746,102.026152 C49.2589353,99.2800142 67.3958246,52.8790762 67.3958246,37.1282085 C67.3958246,26.9449529 69.214059,16.3152871 72.8505278,5.23921129" id="Path-24" stroke="#00A2F2" fill="#00A2F2" transform="translate(73.049009, 52.995240) scale(-1, 1) rotate(192.000000) translate(-73.049009, -52.995240) "></path>
                <path d="M3.60748954,256.344499 C2.41765316,269.468886 3.64517755,267.162001 8.45632807,255.96151" id="Path-55" fill="#FF7080"></path>
                <path d="M133.480657,194.140587 C149.802346,194.694109 131.974712,187.737899 133.735962,193.672713" id="Path-37" fill="#D8D8D8"></path>
                <path d="M114.140991,104.408534 C113.557322,94.0115988 111.395342,64.6429639 112.524981,54.2907165 C113.736261,43.1902973 129.432351,25.1362171 114.140991,15.1544298 C89.7813702,-0.746872949 81.7626189,26.989584 66.0289865,36.1488188 C55.6115846,42.2132436 36.0454869,43.3772464 39.8255133,60.3780323 C40.3957837,62.9428412 47.7057442,52.3479312 49.4816288,54.2907165 C52.4221904,57.507637 58.1726227,53.6881278 62.1953868,51.9132053 C67.4104935,49.6121978 73.1209746,48.3433902 78.7971671,47.780616 C82.3847254,47.4249224 86.1255284,47.9895985 89.51814,49.2042519 C106.894542,55.4255079 91.7235766,102.7143 107.915403,104.408534 L114.140991,104.408534 Z" id="Path-26" fill="#FF7080"></path>
                <ellipse id="Oval-3" fill="#263345" cx="89.544" cy="22.4444444" rx="2.232" ry="2.22222222"></ellipse>
                <ellipse id="Oval-3" fill="#263345" cx="81.732" cy="21.3333333" rx="2.232" ry="2.22222222"></ellipse>
                <path d="M44.2190252,206.830252 C80.0307955,222.82625 114.607571,242.203053 151.654336,254.818246 C197.909378,270.569048 283.475714,248.662146 301.734229,221.219719 C319.992745,193.777292 277.795167,171.761699 210.356002,167.179979 C172.009837,164.574796 154.241378,166.113651 116.756383,174.462682 C57.298123,187.705819 72.6725398,177.833607 45.019233,201.688315 L44.2190252,206.830252 Z" id="Path-16" stroke="#00A2F2" fill="#EFF2F9"></path>
                <path d="M87.9611124,208.521364 C86.6715846,208.818599 73.7155738,201.828443 59.5059028,205.310428 C45.2962318,208.792413 34.0880351,221.627788 32.426883,222.693439 C24.873467,227.539054 25.4797293,242.714226 17.5167374,251.657292 C9.55374546,260.600359 10.0985555,260.51453 4.53405479,258.333421 C1.2217852,257.035116 0.0199167182,248.78296 0.0355858778,248.499891 C0.218262285,245.199772 3.27345147,240.23373 4.53405479,237.111818 C8.1704475,228.106212 12.7116988,224.014408 16.2444218,214.978498 C18.9610224,208.030045 21.4151616,206.30313 26.7547947,200.581602 C35.3762095,191.343577 71.2763097,185.769955 90.1400804,188.403855 C109.003851,191.037756 109.648448,200.841833 82.6781484,209.989253" id="Path-22" stroke="#00A2F2" fill="#B8D1F4"></path>
                <path d="M32.045639,278.902403 C30.744674,283.247133 26.0394208,301.113799 41.8180691,292.553875 C44.679049,291.001792 42.6535725,285.618286 44.4686483,282.834229 C52.7075169,270.197024 48.2637701,269.633349 53.8391344,254.21371 C56.5780731,246.638699 55.1352839,242.06263 59.708067,235.525436 C69.7448563,221.176966 110.844741,227.294873 125.807865,211.560425 C126.521631,210.809865 129.939718,207.01972 130.497453,203.049009 C131.055189,199.078297 128.823126,193.523032 127.827056,192.857067 C108.047186,179.632405 59.7528049,211.978502 45.1697989,219.875762 C40.6268396,222.33595 33.9548106,266.785927 31.8203513,273.525424 L32.045639,278.902403 Z" id="Path-21" stroke="#00A2F2" fill="#B8D1F4"></path>
                <path d="M82.1530538,157.810094 C82.2936802,164.471426 84.24156,179.228066 84.1820619,185.891059 C84.1064576,194.357739 91.7249744,193.444168 94.7517575,196.511279 C100.27328,202.106368 119.319582,203.48768 124.691462,199.939333 C131.380946,195.520653 126.913565,176.558957 129.179113,153.890221 C131.444662,131.221485 124.708986,130.585161 129.179113,119.149009 C139.023698,93.9631169 116.869421,91.3708897 115.181416,90.046528 C111.055025,86.8090762 118.146345,98.4845182 105.814478,98.4845182 C104.858337,98.4845182 103.404326,95.6699511 100.315821,95.9020917 C97.2273153,96.1342322 101.743797,89.7527458 100.315821,90.046528 C98.2276587,90.4761323 78.018221,96.330354 80.953591,105.360475 C83.3913135,111.53683 84.4674705,119.560466 84.1820619,129.431383 C83.7539492,144.23776 81.9138976,146.481504 82.1530538,157.810094 Z" id="Path-23" stroke="#00A2F2" fill="#FFFFFF"></path>
                <path d="M152.497118,20.6460345 C156.669352,30.4374484 151.577153,31.9428196 151.27688,41.8480315 C151.02412,50.18593 146.968988,77.1313628 142.560081,81.1913955 C133.073399,89.9274025 143.766409,121.622052 129.547599,118.875914 C115.328788,116.129775 133.465677,69.7288373 133.465677,53.9779696 C133.465677,43.794714 135.283912,33.1650483 138.92038,22.0889724 C137.758963,16.6249329 140.619538,13.1614458 147.502105,11.698511" id="Path-24" stroke="#00A2F2" fill="#00A2F2" transform="translate(139.118862, 65.371239) rotate(192.000000) translate(-139.118862, -65.371239) "></path>
                <path d="M71.0023137,32.2883125 C72.5748838,34.043458 74.5798703,35.5160954 75.7200241,37.5537489 C77.4768228,40.6934546 82.7866719,49.3659128 79.5611625,47.5844681 L72.5669947,48.8888889 C69.8744652,47.4018083 69.9780899,43.3860348 67.9220397,41.1561955 C66.416419,39.5233111 61.2280973,39.5997438 62.1778635,37.621609" id="Path-31" fill="#FFC7CD"></path>
                <path d="M63.7465866,36.732757 C65.4170099,38.4727416 67.5467568,39.9326585 68.7578566,41.9527109 C69.4938743,43.1803509 72.8201565,46.672752 71.9037808,49.0699097 C71.2928637,50.6680149 68.2594781,51.8339426 62.8036241,52.5676927 C61.4585352,50.8416192 62.6586306,47.734618 60.4746426,45.5240398 C58.8753346,43.9052602 52.6460496,42.4662927 53.654915,40.5052449" id="Path-31" fill="#FF8593"></path>
                <path d="M53.7673798,40.3775198 C48.2601707,43.429633 43.5966896,43.7437601 38.8366918,48.7714718 C36.9992892,50.7122145 34.7680176,57.7104984 35.0659065,61.9074921 C35.3637953,66.1044859 40.3957947,75.0300977 41.595447,75.0300977 C43.6794945,75.0300977 45.4119369,58.7820927 49.2361671,57.7038088 C53.6596587,56.4565564 58.8699371,54.6398277 62.2483656,52.6156345 C62.2483656,52.6156345 64.6587241,44.0897449 56.0579551,41.160007 L53.7673798,40.3775198 Z" id="Path-32" fill="#263345"></path>
                <path d="M81.1391719,2.13020529 C86.4553947,0.48846623 84.7064379,-0.515995223 87.182602,2.53728819" id="Path-33" stroke="#263345"></path>
                <path d="M88.9511719,3.04716914 C94.2673947,0.622446675 92.5184379,-0.861065717 94.994602,3.64839931" id="Path-33" stroke="#263345"></path>
                <path d="M86.435492,139.231462 C91.2219668,137.179252 96.0084416,135.127043 100.794916,133.074833" id="Path-54" stroke="#00A2F2"></path>
                <path d="M33.7394895,295.233388 C32.5496532,308.357775 33.7771776,306.05089 38.5883281,294.850399" id="Path-55" fill="#FF7080"></path>
            </g>
            <path d="M118.371468,89.7077216 C129.865873,87.860909 124.507282,90.0615399 134.282643,82.71845" id="Path-63" stroke="#263345"></path>
            <path d="M131.302216,82.3141832 C135.294432,82.3141832 134.186334,81.338653 134.381092,85.49795" id="Path-64" stroke="#263345"></path>
            <path d="M90.8016585,341.199845 C82.9773622,353.185136 75.2966918,349.898585 61.3335976,356.423108 C60.0730397,357.012128 59.0486257,359.140844 59.8063282,360.307822 C64.8196748,368.029145 109.507666,353.670457 92.6483236,341.384891 L90.8016585,341.199845 Z" id="Path-65" fill="#FF7080"></path>
            <path d="M60.8016585,304.199845 C52.9773622,316.185136 45.2966918,312.898585 31.3335976,319.423108 C30.0730397,320.012128 29.0486257,322.140844 29.8063282,323.307822 C34.8196748,331.029145 79.507666,316.670457 62.6483236,304.384891 L60.8016585,304.199845 Z" id="Path-65" fill="#FF7080"></path>
            <path d="M33.4533619,319.66488 C24.9401462,323.667819 35.5086931,324.102526 39.8365254,324.698954" id="Path-66" stroke="#263345"></path>
            <path d="M64.4533619,356.66488 C55.9401462,360.667819 66.5086931,361.102526 70.8365254,361.698954" id="Path-66" stroke="#263345"></path>
            <path d="M278.396765,226.905227 C301.608712,247.205281 267.287102,257.892579 284.019992,274.513863" id="Path-67" stroke="#00A2F2"></path>
            <path d="M239.90856,42.6741243 C230.246929,54.3069912 234.141862,48.2890948 227.845013,60.4769629" id="Path-68" stroke="#FFFFFF"></path>
        </g>
    </g>
</svg>