<?xml version="1.0" encoding="UTF-8"?>
<svg width="280px" height="311px" viewBox="0 0 280 311" version="1.1" xmlns="http://www.w3.org/2000/svg" xmlns:xlink="http://www.w3.org/1999/xlink">
    <!-- Generator: Sketch 44.1 (41455) - http://www.bohemiancoding.com/sketch -->
    <title>Group 5</title>
    <desc>Created with Sketch.</desc>
    <defs></defs>
    <g id="MVP-SESSIONS" stroke="none" stroke-width="1" fill="none" fill-rule="evenodd">
        <g id="Group-5" transform="translate(1.000000, 0.000000)">
            <path d="M141.174,297.777778 C192.940986,297.777778 172.135177,291.234789 195.694536,275.754229 C219.253896,260.27367 279,256.154786 279,247.222222 C279,233.149604 229.795704,240.323614 204.500221,231.158038 C179.204738,221.992463 178.928024,196.666667 141.174,196.666667 C97.7379666,196.666667 115.796972,206.255407 90.5346344,217.772514 C65.2722968,229.289621 3.348,235.233805 3.348,247.222222 C3.348,275.143285 65.0548021,297.777778 141.174,297.777778 Z" id="Oval-4" fill="#E7EBEE"></path>
            <path d="M63.6074895,246.344499 C62.4176532,259.468886 63.6451776,257.162001 68.4563281,245.96151" id="Path-55" fill="#FF7080"></path>
            <path d="M193.210116,178.30527 C191.477505,196.583605 195.576294,180.910589 185.931678,190.847235 C184.437165,192.386999 188.279241,196.324593 189.22569,196.015207 C197.903651,193.178456 209.047936,179.262395 194.027559,178.23769 L193.210116,178.30527 Z" id="Path-12" stroke="#00A2F2" fill="#EFF2F9"></path>
            <path d="M193.480657,184.140587 C209.802346,184.694109 191.974712,177.737899 193.735962,183.672713" id="Path-37" fill="#D8D8D8"></path>
            <path d="M147.379091,188.768548 C130.604804,262.492552 140.763746,248.369197 149.892038,209.289419 C153.790677,192.598681 153.601075,184.870855 148.918795,187.01799 C147.372338,187.727143 147.440346,190.072066 146.701122,191.599105" id="Path-7" stroke="#00A2F2" fill="#D8D8D8" transform="translate(145.511025, 214.015632) rotate(-17.000000) translate(-145.511025, -214.015632) "></path>
            <path d="M110.67374,147.023299 C107.023201,147.275545 103.349833,148.509447 99.7221234,147.780038 C97.1862137,147.270153 95.0595771,142.866918 92.5234607,143.373896 C91.2032927,143.637803 89.6345251,149.299467 90.9567676,149.532263 L98.4233171,155.566992 C102.967274,156.367006 107.514538,154.020828 112.060149,153.247746" id="Path-27" fill="#FF7080"></path>
            <path d="M96.4606232,153.046565 C95.2459993,147.061925 92.5924929,137.694353 90.3382646,148.528262" id="Path-28" stroke="#263345"></path>
            <path d="M174.140991,94.4085342 C173.557322,84.0115988 171.395342,54.6429639 172.524981,44.2907165 C173.736261,33.1902973 189.432351,15.1362171 174.140991,5.15442979 C149.78137,-10.7468729 141.762619,16.989584 126.028986,26.1488188 C115.611585,32.2132436 96.0454869,33.3772464 99.8255133,50.3780323 C100.395784,52.9428412 107.705744,42.3479312 109.481629,44.2907165 C112.42219,47.507637 118.172623,43.6881278 122.195387,41.9132053 C127.410494,39.6121978 133.120975,38.3433902 138.797167,37.780616 C142.384725,37.4249224 146.125528,37.9895985 149.51814,39.2042519 C166.894542,45.4255079 151.723577,92.7143001 167.915403,94.4085342 L174.140991,94.4085342 Z" id="Path-26" fill="#FF7080"></path>
            <ellipse id="Oval-3" fill="#263345" cx="149.544" cy="14.4444444" rx="2.232" ry="2.22222222"></ellipse>
            <ellipse id="Oval-3" fill="#263345" cx="141.732" cy="13.3333333" rx="2.232" ry="2.22222222"></ellipse>
            <path d="M147.822044,85.4916073 C129.159822,91.7646527 149.142409,119.084354 137.415512,130.048245 C129.033075,137.885283 116.552523,136.895666 106.890818,141.532089 C104.991321,142.443613 103.646484,144.946915 103.821251,147.039078 C103.987078,149.024217 106.006209,150.562759 107.7297,151.57448 C117.660203,157.40387 112.049334,148.602625 121.011826,146.662787 C136.815157,143.242322 146.623629,138.559031 150.437241,132.612915" id="Path-25" stroke="#00A2F2" fill="#FFFFFF"></path>
            <path d="M106.087091,204.324103 C89.3128035,278.048107 99.4717461,263.924753 108.600038,224.844975 C112.498677,208.154237 112.309075,200.42641 107.626795,202.573545 C106.080338,203.282698 106.148346,205.627622 105.409122,207.15466" id="Path-7" stroke="#979797" fill="#D8D8D8"></path>
            <path d="M144.031091,216.546325 C127.256804,290.27033 137.415746,276.146975 146.544038,237.067197 C150.442677,220.376459 150.253075,212.648633 145.570795,214.795768 C144.024338,215.504921 144.092346,217.849844 143.353122,219.376882" id="Path-7" stroke="#00A2F2" fill="#D8D8D8" transform="translate(142.163025, 241.793410) rotate(-10.000000) translate(-142.163025, -241.793410) "></path>
            <path d="M192.019091,206.546325 C175.244804,280.27033 185.403746,266.146975 194.532038,227.067197 C198.430677,210.376459 198.241075,202.648633 193.558795,204.795768 C192.012338,205.504921 192.080346,207.849844 191.341122,209.376882" id="Path-7" stroke="#00A2F2" fill="#D8D8D8" transform="translate(190.151025, 231.793410) rotate(-13.000000) translate(-190.151025, -231.793410) "></path>
            <path d="M188.438505,111.499833 C211.057676,111.942715 212.427716,116.654254 209.584707,141.547741 C208.177574,153.86864 206.277431,166.203982 202.990986,178.164792 C201.526714,183.493915 191.245791,182.501271 185.158951,180.934601 C176.176578,178.622661 174.861878,158.057319 174.509053,153.040511 C174.132075,147.680279 173.736858,142.212022 174.679953,136.921341 C177.594063,120.573445 181.085526,119.114773 190.790006,106.666667" id="Path-9" stroke="#00A2F2" fill="#EFF2F9"></path>
            <path d="M104.219025,199.75915 C116.450681,205.143322 128.26052,211.665456 140.913993,215.911666 C156.712591,221.213307 185.938121,213.839554 192.174391,204.602572 C198.410662,195.365589 183.997907,187.955252 160.963786,186.413068 C147.866497,185.536177 141.797608,186.054148 128.994455,188.86439 C108.686244,193.321962 113.937439,189.999026 104.492339,198.0284 L104.219025,199.75915 Z" id="Path-16" stroke="#00A2F2" fill="#EFF2F9"></path>
            <path d="M147.961112,198.521364 C145.588634,199.068219 96.066058,210.358861 92.426883,212.693439 C84.873467,217.539054 85.4797293,232.714226 77.5167374,241.657292 C69.5537455,250.600359 70.0985555,250.51453 64.5340548,248.333421 C61.2217852,247.035116 60.0199167,238.78296 60.0355859,238.499891 C60.2182623,235.199772 63.2734515,230.23373 64.5340548,227.111818 C68.1704475,218.106212 72.7116988,214.014408 76.2444218,204.978498 C78.9610224,198.030045 81.4151616,196.30313 86.7547947,190.581602 C103.387705,172.759093 198.672009,180.998016 142.678148,199.989253" id="Path-22" stroke="#00A2F2" fill="#263345"></path>
            <path d="M78.20142,181.168359 C78.2326483,193.34954 77.9456117,205.572651 78.2951048,217.711902 C78.7327937,232.914532 79.7056495,247.951468 80.5575398,263.005527 C80.8906371,268.891809 85.5526335,269.603121 85.9837224,263.620938 C89.5944068,213.515777 90.2387812,184.53102 87.9168454,176.666667 L78.20142,181.168359 Z" id="Path-3" stroke="#00A2F2" fill="#D8D8D8"></path>
            <path d="M112.999197,260 C109.685272,272.731267 100.813471,268.381111 86.6580785,273.909293 C84.2522888,274.848839 79.66799,284.64651 82.2161335,286.486162 C89.6346736,291.842035 87.7867203,278.786262 92.2814842,277.072179 C98.6250455,274.653054 117.437471,276.502562 117.237207,263.407894 C117.213138,261.834103 114.290373,262.266992 112.816957,261.696541" id="Path-6" stroke="#00A2F2" fill="#D8D8D8" transform="translate(99.353397, 273.883828) scale(-1, 1) translate(-99.353397, -273.883828) "></path>
            <path d="M92.045639,268.902403 C90.744674,273.247133 86.0394208,291.113799 101.818069,282.553875 C104.679049,281.001792 102.653572,275.618286 104.468648,272.834229 C112.707517,260.197024 108.26377,259.633349 113.839134,244.21371 C116.578073,236.638699 115.135284,232.06263 119.708067,225.525436 C129.744856,211.176966 170.844741,217.294873 185.807865,201.560425 C186.521631,200.809865 189.939718,197.01972 190.497453,193.049009 C191.055189,189.078297 188.823126,183.523032 187.827056,182.857067 C168.047186,169.632405 119.752805,201.978502 105.169799,209.875762 C100.62684,212.33595 93.9548106,256.785927 91.8203513,263.525424 L92.045639,268.902403 Z" id="Path-21" stroke="#00A2F2" fill="#263345"></path>
            <path d="M142.153054,147.810094 C142.29368,154.471426 135.09033,161.335438 135.030832,167.998431 C134.955228,176.465111 143.59159,172.597872 147.324937,175.47186 C150.670905,178.047637 151.724974,183.444168 154.751757,186.511279 C160.27328,192.106368 179.319582,193.48768 184.691462,189.939333 C191.380946,185.520653 186.913565,166.558957 189.179113,143.890221 C191.444662,121.221485 184.708986,120.585161 189.179113,109.149009 C199.023698,83.9631169 176.869421,81.3708897 175.181416,80.046528 C171.055025,76.8090762 178.146345,88.4845182 165.814478,88.4845182 C164.858337,88.4845182 163.404326,85.6699511 160.315821,85.9020917 C157.227315,86.1342322 161.743797,79.7527458 160.315821,80.046528 C158.227659,80.4761323 138.018221,86.330354 140.953591,95.3604748 C143.391313,101.53683 144.46747,109.560466 144.182062,119.431383 C143.753949,134.23776 141.913898,136.481504 142.153054,147.810094 Z" id="Path-23" stroke="#00A2F2" fill="#FFFFFF"></path>
            <path d="M1.6908674,171.731622 C36.3044556,178.974854 35.9745825,180.454429 75.8175889,180.697404 C92.536223,180.79936 109.303155,180.38447 125.93301,178.668329 C184.322106,172.642788 153.253965,160.818364 125.75883,158.032504 C97.8878037,155.208559 25.4297326,152.088243 2.91455335,170.161179" id="Path-4" stroke="#00A2F2" fill="#EFF2F9"></path>
            <path d="M0.346050693,170.638997 C1.30802346,175.044569 -1.08127766,182.482792 3.231969,183.855714 C35.2040331,194.032536 74.8158846,188.147141 117.581177,188.147141 C124.8838,188.147141 138.46695,185.924695 158.330626,181.479803 L159.488,170.638997 C151.720895,173.248772 145.34812,175.134946 140.369675,176.297519 C132.902008,178.041379 114.156207,178.162382 98.5848672,178.19279 C75.2133851,178.238429 51.8109788,177.917111 28.4961325,176.297519 C20.1054877,175.714654 11.9704778,173.167198 3.70765038,171.602037 L0.346050693,170.638997 Z" id="Path-5" stroke="#00A2F2" fill="#DDE1EC"></path>
            <path d="M138.57374,152.578854 C134.923201,152.831101 131.249833,154.065002 127.622123,153.335593 C125.086214,152.825709 122.959577,148.422474 120.423461,148.929452 C119.103293,149.193358 117.534525,154.855023 118.856768,155.087818 L126.323317,161.122548 C130.867274,161.922562 135.414538,159.576384 139.960149,158.803302" id="Path-27" fill="#FF7080"></path>
            <path d="M191.199933,95.2107066 C195.372167,105.002121 190.279967,106.507492 189.979694,116.412704 C189.726934,124.750602 185.671802,151.696035 181.262895,155.756068 C171.776213,164.492075 163.5399,163.81636 149.321089,161.070222 C135.102279,158.324083 145.816138,163.267915 137.081018,156.702056 C136.398742,156.189214 132.47445,152.838996 133.791893,152.082769 L155.339313,152.082769 C176.21342,152.082769 172.168492,144.293509 172.168492,128.542642 C172.168492,118.359386 173.986726,107.72972 177.623195,96.6536445" id="Path-24" stroke="#00A2F2" fill="#FFFFFF"></path>
            <path d="M124.360623,158.602121 C123.145999,152.617481 120.492493,143.249908 118.238265,154.083818" id="Path-28" stroke="#263345"></path>
            <path d="M90.3890135,169.203795 C100.451111,167.456888 110.607032,166.179955 120.575307,163.963073 C121.127101,163.840358 121.240376,162.919277 121.130021,162.367188 C120.433657,158.883368 116.021104,158.419403 113.255962,158.112688 C104.762163,157.170539 96.1809733,155.808967 87.6658715,156.535929 C83.0211948,156.93246 79.1285583,160.455595 74.5676544,161.415633 C66.543178,163.104728 55.0731883,157.902111 50.1494273,164.432873 C46.341184,169.484039 62.2097814,168.619819 68.4958162,169.469178 C74.5137731,170.282315 80.6418941,169.405422 86.714933,169.373545 L90.3890135,169.203795 Z" id="Path-30" stroke="#00A2F2" fill="#F3F3F3"></path>
            <path d="M131.002314,22.2883125 C132.574884,24.043458 134.57987,25.5160954 135.720024,27.5537489 C137.476823,30.6934546 142.786672,39.3659128 139.561163,37.5844681 L132.566995,38.8888889 C129.874465,37.4018083 129.97809,33.3860348 127.92204,31.1561955 C126.416419,29.5233111 121.228097,29.5997438 122.177863,27.621609" id="Path-31" fill="#FFC7CD"></path>
            <path d="M123.746587,26.732757 C125.41701,28.4727416 127.546757,29.9326585 128.757857,31.9527109 C129.493874,33.1803509 132.820156,36.672752 131.903781,39.0699097 C131.292864,40.6680149 128.259478,41.8339426 122.803624,42.5676927 C121.458535,40.8416192 122.658631,37.734618 120.474643,35.5240398 C118.875335,33.9052602 112.64605,32.4662927 113.654915,30.5052449" id="Path-31" fill="#FF8593"></path>
            <path d="M113.76738,30.3775198 C108.260171,33.429633 103.59669,33.7437601 98.8366918,38.7714718 C96.9992892,40.7122145 94.7680176,47.7104984 95.0659065,51.9074921 C95.3637953,56.1044859 100.395795,65.0300977 101.595447,65.0300977 C103.679494,65.0300977 105.411937,48.7820927 109.236167,47.7038088 C113.659659,46.4565564 118.869937,44.6398277 122.248366,42.6156345 C122.248366,42.6156345 124.658724,34.0897449 116.057955,31.160007 L113.76738,30.3775198 Z" id="Path-32" fill="#263345"></path>
            <path d="M141.139172,2.13020529 C146.455395,0.48846623 144.706438,-0.515995223 147.182602,2.53728819" id="Path-33" stroke="#263345"></path>
            <path d="M148.951172,3.2413164 C154.267395,1.59957734 152.518438,0.595115888 154.994602,3.64839931" id="Path-33" stroke="#263345"></path>
            <path d="M146.435492,129.231462 C151.221967,127.179252 156.008442,125.127043 160.794916,123.074833" id="Path-54" stroke="#00A2F2"></path>
            <path d="M93.7394895,285.233388 C92.5496532,298.357775 93.7771776,296.05089 98.5883281,284.850399" id="Path-55" fill="#FF7080"></path>
            <path d="M93.1471443,288.936296 C96.1846684,288.955472 98.1458057,284.68838 100.350278,285.58555 C102.554751,286.48272 101.771116,292.467955 102.679703,292.821457 C103.666933,293.205556 101.061379,295.263911 96.7263461,297.562954 C92.3913135,299.861997 92.7015337,298.817154 90.8842415,299.925283 C84.2799022,303.952405 84.264186,306.045431 82.0711076,306.948556 C63.2026337,314.71872 70.50338,303.403897 71.2559894,302.830768 C77.2179981,298.290563 82.650539,294.005621 88.9027201,289.870379 C91.5882658,287.082251 93.0030738,285.653975 93.1471443,285.58555 C93.2912147,285.517125 93.2912147,286.634041 93.1471443,288.936296 Z" id="Path-56" stroke="#00A2F2" fill="#F3F3F3"></path>
            <path d="M60.7831443,250.047407 C63.8206684,250.066583 65.7818057,245.799491 67.9862784,246.696661 C70.1907512,247.593831 69.407116,253.579066 70.3157034,253.932568 C71.3029327,254.316667 68.6973787,256.375022 64.3623461,258.674065 C60.0273135,260.973108 60.3375337,259.928265 58.5202415,261.036394 C51.9159022,265.063516 51.900186,267.156542 49.7071076,268.059667 C30.8386337,275.829831 38.13938,264.515008 38.8919894,263.941879 C44.8539981,259.401674 50.286539,255.116732 56.5387201,250.98149 C59.2242658,248.193362 60.6390738,246.765086 60.7831443,246.696661 C60.9272147,246.628237 60.9272147,247.745152 60.7831443,250.047407 Z" id="Path-56" stroke="#00A2F2" fill="#F3F3F3" transform="translate(53.701786, 258.674065) rotate(13.000000) translate(-53.701786, -258.674065) "></path>
            <path d="M80.6402043,260.38838 C77.326279,273.119646 68.4544785,268.769491 54.299086,274.297672 C51.8932963,275.237218 47.3089975,285.034889 49.857141,286.874541 C57.2756811,292.230414 55.4277278,279.174642 59.9224917,277.460558 C66.266053,275.041433 85.0784782,276.890942 84.8782141,263.796273 C84.8541452,262.222483 81.9313809,262.655372 80.4579643,262.084921" id="Path-6" stroke="#00A2F2" fill="#D8D8D8"></path>
            <polyline id="Path-57" stroke="#263345" transform="translate(96.334383, 160.896307) rotate(20.000000) translate(-96.334383, -160.896307) " points="92.382091 160.396307 97.0663304 160.396307 99.4659562 160.396307 100.286675 160.396307"></polyline>
            <path d="M84.8798008,161.921476 C89.1180952,162.89191 93.3563897,163.862344 97.5946842,164.832779" id="Path-58" stroke="#263345"></path>
            <path d="M30.9259291,120.354261 C31.6757218,134.099373 38.4977518,158.172925 48.282546,165.601712 C54.6794964,170.458388 90.0875962,169.960759 90.0875962,168.824758 C90.0875962,167.688758 85.0103275,152.641416 81.0752005,143.539172 C67.497095,112.131997 87.7377236,124.119627 34.7194083,121.925223 L30.9259291,120.354261 Z" id="Path-29" stroke="#00A2F2" fill="#FFFFFF"></path>
            <ellipse id="Oval" fill="#D8D8D8" transform="translate(52.452000, 145.555556) rotate(-18.000000) translate(-52.452000, -145.555556) " cx="52.452" cy="145.555556" rx="3.348" ry="5.55555556"></ellipse>
        </g>
    </g>
</svg>