<?xml version="1.0" encoding="UTF-8"?>
<svg width="782px" height="760px" viewBox="0 0 782 760" version="1.1" xmlns="http://www.w3.org/2000/svg" xmlns:xlink="http://www.w3.org/1999/xlink">
    <!-- Generator: Sketch 44.1 (41455) - http://www.bohemiancoding.com/sketch -->
    <title>Group 19</title>
    <desc>Created with Sketch.</desc>
    <defs>
        <rect id="path-1" x="534.577331" y="404.281007" width="18.8153292" height="252.434014"></rect>
        <rect id="path-2" x="376.226637" y="449.22028" width="22.7663368" height="374.063056"></rect>
        <rect id="path-3" x="556.522033" y="462.667259" width="22.7663368" height="360.616076"></rect>
        <rect id="path-4" x="695.267423" y="404.281007" width="18.8153292" height="252.434014"></rect>
        <polygon id="path-5" points="345.472926 431.16101 579.049197 431.16101 579.049197 466.117592 345.472926 466.117592"></polygon>
        <polygon id="path-6" points="730.634471 431.16101 579.049197 387.444834 579.049197 413.121097 730.634471 466.117592"></polygon>
        <polygon id="path-7" points="498.499922 431.16101 344.262211 387.278029 538.774559 387.278029 733.286908 431.16101"></polygon>
    </defs>
    <g id="Page-1" stroke="none" stroke-width="1" fill="none" fill-rule="evenodd">
        <g id="Group-19" transform="translate(0.000000, -64.000000)">
            <g id="Group-2" transform="translate(128.000000, 0.500000)">
                <g id="Group-36" transform="translate(169.917600, 175.803108) rotate(-25.000000) translate(-169.917600, -175.803108) translate(45.917600, 39.803108)">
                    <path d="M125.88182,44.2617837 C129.691291,48.1713572 162.74067,53.6087013 184.43538,91.076592 C206.130091,128.544483 212.917401,83.7053822 209.250985,96.4859364 C204.890264,111.68673 175.716249,97.9182875 169.38907,93.878022 C152.53429,83.1152814 132.480746,91.571537 116.253737,93.5842256 C112.475546,94.0528468 102.122497,90.0910513 93.0225738,94.497502 C83.9226508,98.9039528 74.2941106,138.647092 70.8140177,151.122506 C63.6159562,176.92607 63.7764616,232.103441 57.9954964,244.341379 C52.2145312,256.579318 48.7026167,244.335249 40.8958874,244.071857 C26.4853927,243.585661 28.2603052,168.01344 42.547545,107.824824 C44.6476485,98.9776059 39.5283576,85.5179656 38.3601929,75.0614832 C37.1920281,64.6050008 30.9219625,52.6091507 35.6357023,40.3357726 C40.3494421,28.0623945 52.0539714,24.4532078 58.4304353,22.8036826 C67.3987177,20.4836809 120.441298,38.6782993 125.88182,44.2617837 Z" id="Path-90" fill="#FF6482" transform="translate(120.557231, 136.184823) rotate(18.000000) translate(-120.557231, -136.184823) "></path>
                    <g id="Group-38" transform="translate(185.297333, 114.587885) rotate(-42.000000) translate(-185.297333, -114.587885) translate(156.297333, 54.087885)">
                        <path d="M0.585093895,7.93770451 C18.6190612,34.575801 23.2357798,54.302142 18.7581011,84.2848501 C16.9217037,96.5814372 8.61999127,120.383414 8.61999127,120.383414 C8.61999127,120.383414 31.5594069,106.556344 41.8194561,98.3231805 C64.2855348,80.2953035 71.0647821,-22.7534322 3.22582329,10.8539556 L0.585093895,7.93770451 Z" id="Path-109" fill="#263345"></path>
                        <path d="M55.3825063,30.8672158 C54.336766,2.20956052 41.9684116,-8.33910419 3.22582329,10.8539556 L1.58586078,9.6320995 C10.6182662,24.4021523 15.4380019,33.910796 18.319096,46.57918 C18.319096,46.57918 24.797321,33.8025563 31.7215811,30.8672158 C38.6458412,27.9318754 55.3825063,30.8672158 55.3825063,30.8672158 Z" id="Path-109" fill="#FF939F"></path>
                        <path d="M53.0256417,19.2426582 C51.3288186,-3.85452243 39.2296259,-2.83400387 0.234884064,7.46667069 C0.234884064,7.46667069 9.80532823,23.1991652 12.7051738,29.9981281 C12.7051738,29.9981281 18.5657063,20.8180186 25.5350326,19.2426582 C32.5043588,17.6672978 53.0256417,19.2426582 53.0256417,19.2426582 Z" id="Path-109" fill="#FFC7CE"></path>
                        <path d="M44.3291277,45.982206 C25.5718657,14.4357622 38.1549265,25.9504052 9.69867971,8.9246999" id="Path-110" stroke="#263345" stroke-width="3" transform="translate(27.013904, 27.453453) rotate(-158.000000) translate(-27.013904, -27.453453) "></path>
                        <path d="M26.725129,12.9698658 C15.3789617,-1.73906471 20.4263587,-2.7427736 11.3867092,11.2160869" id="Path-2" stroke="#263345" stroke-width="3"></path>
                    </g>
                    <ellipse id="Oval-27" fill="#263345" cx="123.065273" cy="48.6104491" rx="6.00878471" ry="5.3653286"></ellipse>
                    <ellipse id="Oval-27" fill="#263345" cx="141.091627" cy="45.9277848" rx="6.00878471" ry="5.3653286"></ellipse>
                </g>
                <path d="M131.721172,76.0046993 C129.668515,77.9213838 125.972326,76.6213137 123.91967,78.5379981 C121.867014,80.4546825 122.212629,84.8833773 120.537343,86.4476897" id="Path-114" stroke="#263345"></path>
                <path d="M147.460666,64.1902491 C145.408009,66.1069336 141.71182,64.8068635 139.659164,66.7235479 C137.606508,68.6402324 137.952123,73.0689271 136.276837,74.6332395" id="Path-114" stroke="#263345"></path>
            </g>
            <g id="Group-4" transform="translate(391.000000, 533.500000) scale(-1, 1) translate(-391.000000, -533.500000) translate(0.000000, 262.500000)">
                <path d="M467.99053,522.457989 C548.577414,540.020857 701.033206,556.818429 766.455265,517.785836 C804.918938,494.837355 764.561663,428.539572 700.074788,422.524514 C598.86247,413.083866 550.303616,434.555855 448.317466,416.963952 C356.723061,401.164554 198.879935,410.844 74.0315053,416.963952 C-50.8169247,423.083904 13.5663663,482.495145 49.381842,483.128807 C121.472402,484.404264 102.792362,485.528097 174.247071,500.384735 C174.247071,500.384735 279.24104,481.322483 467.99053,522.457989 Z" id="Path-50" fill="#E7EBEE"></path>
                <rect id="Rectangle-47" fill="#A5CBEA" x="506.997517" y="334.385422" width="20.826486" height="86.6586935"></rect>
                <rect id="Rectangle-47" fill="#A5CBEA" x="503.526436" y="421.044116" width="27.7686479" height="31.1971297"></rect>
                <path d="M433.154216,335.890021 C443.584831,336.161745 583.846232,357.968028 591.191415,297.1427 C592.882012,283.142889 559.131794,283.761559 557.537408,284.014602 C510.281787,291.514486 461.622113,295.378748 416.744,311.952821 C409.63105,314.579726 421.240854,327.354972 427.072027,332.19717 C430.906214,335.381075 433.154216,335.890021 433.154216,335.890021 Z" id="Path-38" stroke="#00A2F2" fill="#A5CBEA"></path>
                <path d="M525.356139,138.800544 L548.410548,144.884657 L494.065467,193.341436 C494.065467,193.341436 384.487299,186.839622 374.520215,185.532089 C373.188336,185.357366 370.475623,189.587012 365.361149,192.725029 C360.246676,195.863046 352.417517,198.102413 351.824616,197.444506 C351.224075,196.778121 342.320107,193.03196 346.644315,187.524242 C349.32642,184.108062 350.083717,181.587847 356.435734,180.313309 C362.787751,179.038771 335.619524,177.03453 342.496411,172.894581 C344.120238,171.917023 353.780481,174.500905 365.361149,174.673122 C376.941818,174.845338 474.202563,177.472729 474.202563,177.472729 L525.356139,138.800544 Z" id="Rectangle-44" fill="#FF939F" transform="translate(444.891156, 168.180105) rotate(-41.000000) translate(-444.891156, -168.180105) "></path>
                <path d="M510.889597,301.406678 C533.370309,303.217803 555.788584,307.530448 578.331735,306.840054 C600.980831,306.146416 582.73151,279.675909 573.680787,276.995414 C548.616582,269.572309 533.177659,287.920935 514.011698,300.248911 L510.889597,301.406678 Z" id="Path-41" fill="#00A2F2"></path>
                <polygon id="Rectangle-46" fill="#FF939F" points="323.503554 403.712377 345.317164 399.300138 351.272202 445.30855 329.222987 443.056982"></polygon>
                <path d="M477.987754,231.757456 C492.510641,244.580663 500.270173,244.945167 503.516405,246.772814 C506.762636,248.60046 499.787327,245.374157 579.593952,272.083485 C582.856736,273.175459 585.181609,280.024961 582.374033,282.011956 C499.705131,340.5189 447.19699,314.352832 364.89396,325.885719 C363.333445,326.104389 364.356098,336.410005 363.33204,336.886313 C362.307983,337.362621 359.184303,328.050937 358.579784,328.823506 C356.201301,331.863177 356.870241,337.089094 356.896059,344.645463 C356.934785,355.979845 368.231532,411.965268 364.89396,421.030693 C362.540834,427.422191 350.910161,420.627622 344.687241,417.842995 C339.494595,415.519394 335.043236,409.140183 330.145658,405.997909 C325.24808,402.855635 321.659426,404.570577 319.412997,400.67891 C303.879125,373.768351 294.368968,343.695674 284.821882,314.133481 C280.809036,301.707853 275.725891,288.057405 278.956345,275.406401 C280.859942,267.951589 290.576319,263.868538 298.036627,262.382295 C313.606854,259.280395 364.948141,262.222901 395.226759,257.126783 C425.505376,252.030665 447.223145,236.866031 448.062875,236.866031 C449.592078,236.866031 455.410849,235.568934 457.391226,234.986732 L477.987754,231.757456 Z" id="Path-36" fill="#263345"></path>
                <path d="M336.275168,461.636092 C314.288208,456.659282 286.748428,440.531864 264.419278,437.09804 C259.115141,436.282359 254.044512,440.828031 251.121278,440.706725 C248.198044,440.58542 243.569125,437.700687 239.991529,437.09804 C239.991529,437.09804 225.56517,463.522017 233.259165,471.879866 C240.953159,480.237715 278.234873,477.520207 285.63067,478.880063 C292.709946,480.18172 337.877828,481.384918 349.569714,478.880063 C361.2616,476.375208 352.130341,465.224954 336.275168,461.636092 Z" id="Path-173" stroke="#979797" fill="#F3F3F3" transform="translate(292.930368, 458.670777) scale(-1, 1) translate(-292.930368, -458.670777) "></path>
                <path d="M519.68039,10.3505899 C528.021735,2.23267831 537.801023,10.6660229 550.845103,10.3505899 C563.889182,10.0351569 574.351009,-0.84431557 578.502543,4.24739561 C595.593779,25.2092 588.708017,39.8899754 589.339435,64.2948653 C590.048845,91.7141886 584.809351,120.872159 583.596985,150.79257 C582.384572,180.714126 606.862302,209.92976 601.738109,239.435348 C599.948794,249.738392 601.33413,267.610542 590.942317,268.895139 C561.997755,272.473157 533.286871,259.301117 505.224685,251.365976 C486.867928,246.175238 474.034545,239.71144 473.435132,227.782705 C472.835719,215.853971 484.541816,198.261146 489.314453,182.842105 C498.087031,154.500386 488.123672,161.843484 490.770569,155.001789 C494.904198,144.31719 494.116444,98.0458403 494.116444,98.0458403 C494.116444,98.0458403 469.642911,100.89182 468.720348,93.2214714 C467.797786,85.5511231 481.850562,69.5693365 481.808396,64.2948653 C481.710937,52.1040272 492.004528,47.2085141 492.446662,40.0674245 C493.47168,23.5119135 510.563242,19.2235238 519.68039,10.3505899 Z" id="Path-35" fill="#FFFFFF"></path>
                <path d="M519.150405,111.45878 C537.284262,114.068877 529.630519,115.423718 542.459662,110.779924" id="Path-8" stroke="#00A2F2"></path>
                <path d="M496.858916,99.623607 C454.566247,96.2710183 478.476884,79.0982416 478.476884,79.0982416 C478.476884,79.0982416 496.135047,33.0786492 496.858916,31.6655309 C497.582784,30.2524126 518.763376,13.0322735 518.763376,13.0322735" id="Path-13" stroke="#00A2F2"></path>
                <path d="M495.153017,107.238632 L500.246941,79.284558" id="Line" stroke="#00A2F2" stroke-linecap="square"></path>
                <path d="M491.37878,157.858598 C497.656872,188.991723 466.422843,220.293365 475.079917,233.075202 C494.077886,261.124974 568.556828,263.937418 588.453189,267.017556" id="Path-10" stroke="#00A2F2"></path>
                <path d="M598.19875,254.81807 C606.690267,223.934163 581.612986,178.623667 579.143415,129.379421 C578.052339,107.622943 587.544898,76.4814246 587.168093,52.5592089 C587.020505,43.1892385 602.540454,26.3893261 600.079055,19.0640569 C597.617656,11.7387876 573.896778,7.23521432 573.896778,0.845127617" id="Path-11" stroke="#00A2F2"></path>
                <path d="M470.37446,252.865222 C409.576071,255.963925 511.610937,249.281543 374.266169,274.913222 C316.911213,285.61697 295.223257,267.766555 315.07985,328.51773 C334.936443,389.268905 323.492796,383.068192 337.550805,412.728477 C341.647224,421.371305 354.915695,420.791724 363.59814,424.823347" id="Path-14" stroke="#00A2F2"></path>
                <path d="M342.65202,395.382423 C369.898847,391.999252 362.122087,386.309773 363.37116,415.53279" id="Path-17" stroke="#00A2F2"></path>
                <path d="M582.618655,273.535767 C539.441295,334.849979 416.65138,320.618783 364.049188,325.783162" id="Path-18" stroke="#00A2F2"></path>
                <path d="M357.583187,296.638653 C359.8394,309.150052 364.792793,310.925176 363.576978,323.579724 C358.9142,372.111231 348.498843,264.799567 352.673602,327.888274 C354.277406,352.12487 354.430696,362.758436 358.345605,386.731192" id="Path-19" stroke="#00A2F2"></path>
                <path d="M471.405067,276.711139 C480.442457,273.571293 489.577044,270.697661 498.517237,267.291602 L521.654276,269.504954 C525.155798,268.170935 519.538755,260.973211 522.14946,258.288135" id="Path-20" stroke="#00A2F2"></path>
                <path d="M450.912498,246.499256 C441.579735,254.254282 446.825426,252.83979 435.380389,251.438763" id="Path-34" stroke="#263345" stroke-linecap="round" transform="translate(443.146443, 249.519343) rotate(-41.000000) translate(-443.146443, -249.519343) "></path>
                <polygon id="Rectangle-46" fill="#FF939F" points="340.858959 417.577768 362.672569 413.165529 368.627607 459.173941 346.578392 456.922373"></polygon>
                <path d="M577.07317,287.019139 C585.709608,281.250349 600.085384,280.655154 604.662319,275.741272 C609.239255,270.827389 602.876958,232.201983 612.184661,192.19983 C613.123398,188.165377 614.303708,183.893691 615.78605,179.355112 C617.612455,173.763091 631.277089,180.074009 632.20246,185.882914 C632.909981,190.32429 625.771328,192.939632 622.76406,201.691289 C619.756791,210.442946 623.489373,215.631912 622.76406,221.022376 C621.397645,231.177448 620.642108,283.581902 610.343373,289.392654 C600.044637,295.203406 599.395508,293.586753 590.74664,294.640681" id="Path-39" stroke="#00A2F2" fill="#A5CBEA"></path>
                <path d="M605.543129,188.957624 C623.313376,198.173013 632.856079,186.866752 647.602746,182.601035 C650.321685,181.814537 654.008412,179.203529 653.433636,176.43557 C649.510023,157.540559 636.56121,140.800974 634.930037,121.572849 C632.493963,92.8566239 662.105172,58.5622916 637.692038,29.9201514 C602.498593,-11.3697362 591.2341,53.9623473 593.387202,74.8631443 C595.482563,95.2034357 600.115255,99.1141701 600.898763,111.853577 C601.233543,117.296926 592.807197,136.952307 590.423237,148.633673 C588.039278,160.315039 595.36583,183.679827 605.543129,188.957624 Z" id="Path-40" stroke="#00A2F2" fill="#A5CBEA"></path>
                <path d="M598.387398,116.222212 C602.6327,133.679399 608.221186,150.864488 611.123303,168.593772 C619.265597,218.335763 577.000461,178.195838 595.293825,118.526939" id="Path-42" fill="#00A2F2"></path>
                <path d="M526.311752,349.468146 C526.311752,384.622348 526.311752,402.667213 526.311752,418.56263 C526.311752,420.416436 518.068994,420.756822 516.128645,420.416436 C514.188297,420.076049 511.695776,421.074391 511.172745,420.416436 C508.751815,417.370989 508.393422,401.278197 508.702488,386.544059" id="Path-43" stroke="#00A2F2"></path>
                <path d="M525.037658,447.592807 C562.625482,461.4251 592.639552,468.768551 616.391343,501.772281" id="Path-44" stroke="#00A2F2"></path>
                <path d="M506.268033,448.93173 C470.262958,456.922588 443.934581,476.332073 424.655082,507.136126" id="Path-45" stroke="#00A2F2"></path>
                <path d="M530.194567,440.186693 C536.380255,440.138828 543.044267,435.772661 549.229955,435.724796 C555.415642,435.676931 562.899046,435.724796 568.265342,439.8921" id="Path-46" stroke="#00A2F2"></path>
                <path d="M505.186174,441.667796 C480.607618,433.985908 481.645004,430.011269 460.385977,440.328333" id="Path-47" stroke="#00A2F2"></path>
                <path d="M519.909315,422.272432 C523.594169,422.272432 526.34436,423.795483 528.732497,423.795483 C530.068793,423.795483 530.466945,434.11385 529.578065,439.231632 C529.333805,440.637977 531.304088,447.287442 528.732497,450.284763 C527.735082,451.447302 523.982267,453.423263 519.630692,453.862728 C516.857545,454.142787 504.457077,452.161127 504.457077,452.161127 C504.457077,452.161127 503.849272,444.881735 503.030989,435.223589" id="Path-48" stroke="#00A2F2"></path>
                <ellipse id="Oval-22" stroke="#00A2F2" fill="#C3CDD4" cx="600.716704" cy="509.435983" rx="10.413243" ry="12.1322171"></ellipse>
                <ellipse id="Oval-22" stroke="#00A2F2" fill="#C3CDD4" cx="468.815626" cy="450.508072" rx="6.94216198" ry="8.66586935"></ellipse>
                <ellipse id="Oval-22" stroke="#00A2F2" fill="#C3CDD4" cx="562.534813" cy="450.508072" rx="6.94216198" ry="8.66586935"></ellipse>
                <ellipse id="Oval-22" stroke="#00A2F2" fill="#C3CDD4" cx="457.140172" cy="512.902331" rx="8.67770248" ry="12.1322171"></ellipse>
                <path d="M568.542988,327.733536 C568.542988,363.321828 562.094232,346.117121 615.086783,357.345269" id="Path-49" stroke="#00A2F2"></path>
                <rect id="Rectangle-48" fill="#00A2F2" x="611.129947" y="351.717161" width="24.2975669" height="10.3990432"></rect>
                <path d="M598.376823,531.033018 C610.572974,531.638375 622.769126,532.243731 634.965277,532.849088" id="Path-51" stroke="#00A2F2"></path>
                <path d="M449.12034,521.905568 C456.842462,522.288856 464.564585,522.672144 472.286707,523.055432" id="Path-51" stroke="#00A2F2"></path>
                <polyline id="Path-52" stroke="#00A2F2" points="628.56177 523.013955 634.634037 523.013955 641.106861 523.013955 641.236828 523.013955 641.362535 523.013955 641.492503 523.013955 641.62034 523.013955"></polyline>
                <path d="M360.022091,478.772389 C340.385362,474.061314 315.789365,458.795012 295.847023,455.544536 C291.109856,454.772407 286.581237,459.075365 283.970474,458.960537 C281.35971,458.845708 277.225585,456.115004 274.030406,455.544536 C274.030406,455.544536 261.14611,480.557617 268.017678,488.469202 C274.889246,496.380787 308.185841,493.80838 314.791087,495.095626 C321.113644,496.327782 361.453439,497.466736 371.895556,495.095626 C382.337672,492.724517 374.182472,482.169626 360.022091,478.772389 Z" id="Path-173" stroke="#979797" fill="#F3F3F3" transform="translate(321.310505, 475.965406) scale(-1, 1) translate(-321.310505, -475.965406) "></path>
                <path d="M630.459901,164.277338 L653.51431,170.098319 L599.169229,216.459384 C599.169229,216.459384 489.591061,210.238768 479.623977,208.987785 C478.292098,208.820619 475.579385,212.867336 470.464911,215.869637 C465.350438,218.871938 457.521279,221.014454 456.928378,220.385 C456.327837,219.747436 447.423869,216.163293 451.748077,210.89378 C454.430182,207.625346 455.187479,205.214128 461.539496,203.994713 C467.891513,202.775297 440.723286,200.857738 447.600173,196.896838 C449.224,195.961558 458.884243,198.43369 470.464911,198.598459 C482.04558,198.763227 579.306325,201.276986 579.306325,201.276986 L630.459901,164.277338 Z" id="Rectangle-44" fill="#FF939F" transform="translate(549.994918, 192.386258) rotate(-41.000000) translate(-549.994918, -192.386258) "></path>
                <path d="M584.895073,54.8675612 C581.549202,78.0912541 592.604695,82.5733342 584.895073,108.579891 C582.828901,115.549626 589.397552,119.763351 596.933407,118.665798 C599.960294,118.22495 610.746361,109.232642 613.003934,108.579891 C615.261506,107.927141 615.807331,96.0754312 618.544597,81.6445546 C621.57494,65.6685692 639.821783,22.8072587 608.67438,20.0985881 L598.763405,16.7233942 L577.443527,5.37125782" id="Path-119" stroke="#00A2F2" fill="#FFFFFF"></path>
            </g>
            <g id="Rectangle-49">
                <use fill="#A5CBEA" fill-rule="evenodd" xlink:href="#path-1"></use>
                <rect stroke="#00A2F2" stroke-width="1" x="535.077331" y="404.781007" width="17.8153292" height="251.434014"></rect>
            </g>
            <path d="M390.239431,545.503036 C392.685435,559.083868 398.055504,561.010723 396.737415,574.746938 C391.682408,627.426753 380.390918,510.942453 384.916855,579.423768 C386.65557,605.732026 386.821755,617.274513 391.065983,643.296379" id="Path-19" stroke="#00A2F2" transform="translate(390.405690, 594.399707) scale(-1, 1) translate(-390.405690, -594.399707) "></path>
            <g id="Rectangle-49">
                <use fill="#A5CBEA" fill-rule="evenodd" xlink:href="#path-2"></use>
                <rect stroke="#00A2F2" stroke-width="1" x="376.726637" y="449.72028" width="21.7663368" height="373.063056"></rect>
            </g>
            <g id="Rectangle-49">
                <use fill="#A5CBEA" fill-rule="evenodd" xlink:href="#path-3"></use>
                <rect stroke="#00A2F2" stroke-width="1" x="557.022033" y="463.167259" width="21.7663368" height="359.616076"></rect>
            </g>
            <g id="Rectangle-49">
                <use fill="#A5CBEA" fill-rule="evenodd" xlink:href="#path-4"></use>
                <rect stroke="#00A2F2" stroke-width="1" x="695.767423" y="404.781007" width="17.8153292" height="251.434014"></rect>
            </g>
            <g id="Rectangle-49" transform="translate(462.261061, 448.639301) scale(-1, 1) translate(-462.261061, -448.639301) ">
                <use fill="#A5CBEA" fill-rule="evenodd" xlink:href="#path-5"></use>
                <path stroke="#00A2F2" stroke-width="1" d="M578.549197,465.617592 L579.049197,465.617592 L578.549197,466.117592 L578.549197,465.617592 Z M345.972926,431.66101 L345.972926,465.617592 L578.549197,465.617592 L578.549197,431.66101 L345.972926,431.66101 Z"></path>
            </g>
            <g id="Rectangle-49" transform="translate(654.841834, 426.781213) scale(-1, 1) translate(-654.841834, -426.781213) ">
                <use fill="#A5CBEA" fill-rule="evenodd" xlink:href="#path-6"></use>
                <path stroke="#00A2F2" stroke-width="1" d="M730.134471,431.537191 L579.549197,388.109408 L579.549197,412.766228 L730.134471,465.413107 L730.134471,431.537191 Z"></path>
            </g>
            <g id="Rectangle-49" transform="translate(538.774559, 409.219520) scale(-1, 1) translate(-538.774559, -409.219520) ">
                <use fill="#A5CBEA" fill-rule="evenodd" xlink:href="#path-7"></use>
                <path stroke="#00A2F2" stroke-width="1" d="M498.569667,430.66101 L728.798683,430.66101 L538.718858,387.778029 L347.846706,387.778029 L498.569667,430.66101 Z"></path>
            </g>
            <path d="M619.058359,408.865357 C594.631452,404.019607 503.812691,385.755861 470.170121,398.310821 C464.079414,400.583792 481.399682,405.038152 487.530994,407.199081 C495.485333,410.002519 503.933051,411.133466 512.134079,413.100659" id="Path-194" stroke="#263345" fill="#DAE5EF" transform="translate(543.975077, 403.541132) scale(-1, 1) translate(-543.975077, -403.541132) "></path>
            <path d="M519.737676,292.5588 C528.718372,313.99876 542.574541,333.59233 548.947373,348.622526 C555.320205,363.652721 562.987483,375.488703 568.000741,384.898205 C573.013999,394.307706 583.851659,407.502414 585.697362,409.221682 C587.543065,410.940951 606.817247,407.738904 632.748556,409.221682 C667.215796,411.192554 693.004959,409.533879 696.272272,410.730025 C699.539586,411.926172 700.373284,416.925476 697.543763,417.178856 C679.268895,418.815348 650.587513,416.63595 631.549103,417.178856 C620.896346,417.482634 608.653825,415.810954 598.811987,417.178856 C591.833732,418.148753 580.559399,417.047515 578.607953,415.799945 C578.48841,415.72352 514.071146,402.505104 509.658494,395.583097 C502.89472,384.972945 476.200558,309.967666 465.993906,292.5588 C455.787254,275.149933 519.737676,292.5588 519.737676,292.5588 Z" id="Path-53" stroke="#263345" fill="#00A2F2" transform="translate(582.076011, 351.310560) scale(-1, 1) translate(-582.076011, -351.310560) "></path>
            <path d="M209.037218,264.005993 C219.58125,270.6747 228.69537,274.914168 241.59791,273.433394 C247.919338,272.707908 254.605948,267.200139 260.359909,269.916519 C265.588053,272.384667 265.164278,280.434076 267.566462,285.692854" id="Path-15" stroke="#00A2F2" fill="#FFFFFF"></path>
        </g>
    </g>
</svg>