<?xml version="1.0" encoding="UTF-8"?>
<svg width="399px" height="612px" viewBox="0 0 399 612" version="1.1" xmlns="http://www.w3.org/2000/svg" xmlns:xlink="http://www.w3.org/1999/xlink">
    <!-- Generator: Sketch 44.1 (41455) - http://www.bohemiancoding.com/sketch -->
    <title>Group 10</title>
    <desc>Created with Sketch.</desc>
    <defs>
        <rect id="path-1" x="406.033677" y="372.032311" width="12.8636558" height="293.331896"></rect>
        <rect id="path-2" x="208.110451" y="341.533119" width="12.8636558" height="245.31795"></rect>
        <polygon id="path-3" points="291.063568 354.604201 423.041092 354.604201 423.041092 374.305265 291.063568 374.305265"></polygon>
        <polygon id="path-4" points="290.849993 354.552234 205.199815 329.914379 205.199815 344.385179 290.849993 374.253298"></polygon>
        <polygon id="path-5" points="290.893381 354.646243 203.744497 329.914379 313.649746 329.914379 423.554994 354.646243"></polygon>
        <rect id="path-6" x="304.161428" y="372.032311" width="12.8636558" height="211.999233"></rect>
        <rect id="path-7" x="301.250793" y="372.032311" width="12.8636558" height="293.331896"></rect>
        <rect id="path-8" x="407.488995" y="372.032311" width="12.8636558" height="293.331896"></rect>
    </defs>
    <g id="Page-1" stroke="none" stroke-width="1" fill="none" fill-rule="evenodd">
        <g id="Group-10" transform="translate(-25.000000, -54.000000)">
            <g id="Group-9">
                <g id="Group-2">
                    <g id="Group">
                        <g id="Rectangle-49">
                            <use fill="#A5CBEA" fill-rule="evenodd" xlink:href="#path-1"></use>
                            <rect stroke="#00A2F2" stroke-width="1" x="406.533677" y="372.532311" width="11.8636558" height="292.331896"></rect>
                        </g>
                        <path d="M264.649014,675.336097 C305.510366,690.950897 382.812644,705.885288 415.984714,671.182178 C435.487611,650.779135 415.024568,591.83508 382.326681,586.487211 C331.007261,578.093716 306.385632,597.184039 254.673843,581.543425 C208.231159,567.496491 128.197249,576.102296 64.8932053,581.543425 C1.58916201,586.984554 34.2345276,639.805919 52.3946632,640.369296 C88.9479777,641.503279 79.4763163,642.502457 115.707224,655.711201 C115.707224,655.711201 168.944119,638.763328 264.649014,675.336097 Z" id="Path-50"></path>
                        <g id="Rectangle-49">
                            <use fill="#A5CBEA" fill-rule="evenodd" xlink:href="#path-2"></use>
                            <rect stroke="#00A2F2" stroke-width="1" x="208.610451" y="342.033119" width="11.8636558" height="244.31795"></rect>
                        </g>
                        <path d="M189.295534,256.487995 C189.295534,252.66425 182.132999,252.842089 180.664254,256.487995 C177.413428,264.557607 164.109038,297.711495 146.467386,326.024292 C128.825733,354.33709 104.377374,381.766202 99.9904282,392.081033 C91.4936399,412.059151 106.006844,400.336503 106.006844,400.336503 C106.006844,400.336503 130.029798,368.638954 159.106395,321.856782 C188.182991,275.074609 189.295534,273.340471 189.295534,256.487995 Z" id="Path-116" stroke="#FF939F" fill="#FF939F" transform="translate(143.308885, 328.720165) scale(-1, 1) rotate(-25.000000) translate(-143.308885, -328.720165) "></path>
                        <g id="Group-36" transform="translate(148.050267, 152.438102) rotate(-25.000000) translate(-148.050267, -152.438102) translate(40.550267, 34.938102)">
                            <path d="M102.598436,36.1386278 C105.607576,39.5824654 131.713618,44.3720749 148.850491,77.3765275 C165.987364,110.38098 171.34873,70.8834279 168.452591,82.1414728 C165.008012,95.5314414 141.96316,83.4031922 136.965257,79.8442315 C123.651494,70.3636241 114.063032,78.7979729 101.245151,80.5708959 C98.26072,80.9836917 83.8307034,76.5083913 76.6425813,80.3899147 C69.4544591,84.2714381 61.8487768,119.280095 59.0998159,130.269351 C53.4139935,152.999013 53.5407784,201.603268 48.9743349,212.383337 C44.4078915,223.163406 41.6337943,212.377937 35.467179,212.145922 C24.0841821,211.717645 25.4862036,145.148118 36.7718403,92.1295925 C38.4307335,84.3363172 34.3869533,72.4800836 33.464208,63.2692508 C32.5414628,54.058418 27.5886738,43.4915979 31.3121051,32.6803107 C35.0355363,21.8690236 44.2810636,18.6897885 49.3178976,17.2367664 C56.4020355,15.1931396 98.3009116,31.2202873 102.598436,36.1386278 Z" id="Path-90" fill="#FF6482" transform="translate(98.392489, 117.111149) rotate(18.000000) translate(-98.392489, -117.111149) "></path>
                            <g id="Group-38" transform="translate(158.876066, 99.477191) rotate(-42.000000) translate(-158.876066, -99.477191) translate(134.376066, 43.977191)">
                                <path d="M1.68809871,12.8934594 C16.9362046,33.7709745 20.8058527,52.3606365 17.2427812,78.9665406 C15.781485,89.878224 9.17547396,110.999502 9.17547396,110.999502 C9.17547396,110.999502 27.4293022,98.7297067 35.5936416,91.4238034 C53.4708163,75.426317 58.8653398,-16.01655 4.88311458,13.8058042 L1.68809871,12.8934594 Z" id="Path-109" fill="#263345"></path>
                                <path d="M46.3863136,31.56507 C45.5541754,6.13498448 35.7121716,-3.22563636 4.88311458,13.8058042 L1.68809871,12.8934594 C9.72497818,23.8974539 14.600843,34.2658668 16.893447,45.5074735 C16.893447,45.5074735 22.0484347,34.1698176 27.5583508,31.56507 C33.0682669,28.9603224 46.3863136,31.56507 46.3863136,31.56507 Z" id="Path-109" fill="#FF939F"></path>
                                <path d="M44.5108603,20.4807399 C43.1693601,-1.66650959 30.9307366,0.304587117 0.101679616,10.1816198 C0.101679616,10.1816198 10.3410866,24.2745254 12.6336906,30.7938633 C12.6336906,30.7938633 17.2669998,21.9913095 22.7769158,20.4807399 C28.2868319,18.9701702 44.5108603,20.4807399 44.5108603,20.4807399 Z" id="Path-109" fill="#FFC7CE"></path>
                                <path d="M34.7360112,37.471842 C19.8100932,9.47831794 29.8229476,19.6961237 7.17915195,4.58793926" id="Path-110" stroke="#263345" transform="translate(20.957582, 21.029891) rotate(-158.000000) translate(-20.957582, -21.029891) "></path>
                            </g>
                            <ellipse id="Oval-27" fill="#263345" cx="100.680805" cy="40.2824673" rx="4.78143496" ry="4.76105821"></ellipse>
                            <ellipse id="Oval-27" fill="#263345" cx="115.02511" cy="37.9019382" rx="4.78143496" ry="4.76105821"></ellipse>
                        </g>
                        <path d="M98.6626858,306.744193 C101.177454,321.93719 106.231776,336.925235 106.206989,352.323183 C106.186466,365.072776 94.7804934,397.453541 91.7046011,401.599438 C91.0935016,402.42312 104.98298,401.599438 106.206989,400.02168 C107.430999,398.443921 115.610626,359.910812 116.565984,357.072417 C121.492642,342.435183 114.501824,309.711101 112.885089,302.319872" id="Path-112" fill="#FF939F"></path>
                        <g id="Group-35" transform="translate(43.157026, 206.465268)" stroke="#00A2F2">
                            <g id="Group-39" transform="translate(0.000000, 0.000000)">
                                <path d="M43.7620224,203.51662 C53.9440347,210.013659 65.2937319,200.25972 75.2582529,197.264075 C86.5741175,193.862174 81.7034338,114.052047 81.102358,101.992665 C80.6190871,92.296801 91.7477782,86.8554623 91.6682624,77.171001 C91.5887466,67.4865397 84.3697864,48.8060859 85.3962136,50.9083569 C88.5974195,57.4648888 89.1045586,69.3263549 92.7809931,66.6165707 C94.9987473,64.9819339 106.467219,65.1692342 110.521808,53.5437642 C114.576397,41.9182943 109.913835,25.1266553 108.336314,23.6383879 C94.2095106,10.3108557 76.2208091,8.35229005 72.7187166,8.69599754 C69.2166241,9.03970504 70.0773723,21.0492103 47.9170609,17.3075597 C44.3683141,16.7083727 42.494544,8.87247909 38.1292807,5.96617969 C36.1034362,4.61741556 26.523267,4.78073045 22.5547532,11.5501025 C18.5862394,18.3194746 19.1495866,34.0948047 20.1215247,34.6533944 C20.9035996,35.1028665 17.2816533,123.145658 13.8593887,159.677774 C12.8638539,170.304946 8.63289534,191.832268 11.9278591,197.922688 C15.2228228,204.013109 42.2468479,202.549803 43.7620224,203.51662 Z" id="Path-89" fill="#FFFFFF" transform="translate(61.415411, 105.501226) rotate(-366.000000) translate(-61.415411, -105.501226) "></path>
                                <path d="M42.8784398,88.3017965 C66.6563769,99.0817828 56.5584964,92.1381371 73.9211553,107.694863" id="Path-113"></path>
                            </g>
                        </g>
                        <path d="M91.6850239,64.1357045 C93.3184062,65.6565039 96.2596145,64.6249591 97.8929968,66.1457585 C99.5263792,67.6665579 99.2513587,71.1805199 100.584453,72.4217286" id="Path-114" stroke="#263345" transform="translate(96.134738, 68.278717) scale(-1, 1) translate(-96.134738, -68.278717) "></path>
                        <path d="M104.782884,55.4216496 C106.416267,56.942449 109.357475,55.9109042 110.990857,57.4317036 C112.62424,58.952503 112.349219,62.466465 113.682313,63.7076737" id="Path-114" stroke="#263345" transform="translate(109.232599, 59.564662) scale(-1, 1) translate(-109.232599, -59.564662) "></path>
                        <path d="M130.978606,97.5395816 C146.291709,102.144626 144.982031,97.2231354 140.516541,109.501907" id="Path-115" stroke="#3C3C3C" transform="translate(137.240551, 103.520744) scale(-1, 1) translate(-137.240551, -103.520744) "></path>
                        <path d="M123.702016,568.098546 C131.624893,642.558152 137.146126,607.381873 137.756209,569.388643" id="Path-106" fill="#FF939F" transform="translate(130.729112, 589.963940) scale(-1, 1) translate(-130.729112, -589.963940) "></path>
                        <path d="M82.9531168,598.597739 C90.8759938,644.386507 96.3972265,622.754933 97.0073091,599.391081" id="Path-106" fill="#FF939F" transform="translate(89.980213, 612.043814) scale(-1, 1) translate(-89.980213, -612.043814) "></path>
                        <path d="M154.262462,411.253304 C137.911491,394.648743 136.152153,399.233294 159.351479,397.429084" id="Path-108" stroke="#263345" transform="translate(150.650355, 404.341194) scale(-1, 1) rotate(-110.000000) translate(-150.650355, -404.341194) "></path>
                        <g id="Rectangle-49">
                            <use fill="#A5CBEA" fill-rule="evenodd" xlink:href="#path-3"></use>
                            <path stroke="#00A2F2" stroke-width="1" d="M422.541092,373.805265 L423.041092,373.805265 L422.541092,374.305265 L422.541092,373.805265 Z M291.563568,355.104201 L291.563568,373.805265 L422.541092,373.805265 L422.541092,355.104201 L291.563568,355.104201 Z"></path>
                        </g>
                        <g id="Rectangle-49">
                            <use fill="#A5CBEA" fill-rule="evenodd" xlink:href="#path-4"></use>
                            <path stroke="#00A2F2" stroke-width="1" d="M290.349993,354.928681 L205.699815,330.578483 L205.699815,344.030011 L290.349993,373.549407 L290.349993,354.928681 Z"></path>
                        </g>
                        <g id="Rectangle-49">
                            <use fill="#A5CBEA" fill-rule="evenodd" xlink:href="#path-5"></use>
                            <path stroke="#00A2F2" stroke-width="1" d="M290.962954,354.146243 L419.055559,354.146243 L313.594183,330.414379 L207.33782,330.414379 L290.962954,354.146243 Z"></path>
                        </g>
                        <g id="Rectangle-49">
                            <use fill="#A5CBEA" fill-rule="evenodd" xlink:href="#path-6"></use>
                            <rect stroke="#00A2F2" stroke-width="1" x="304.661428" y="372.532311" width="11.8636558" height="210.999233"></rect>
                        </g>
                        <g id="Rectangle-49">
                            <use fill="#A5CBEA" fill-rule="evenodd" xlink:href="#path-7"></use>
                            <rect stroke="#00A2F2" stroke-width="1" x="301.750793" y="372.532311" width="11.8636558" height="292.331896"></rect>
                        </g>
                        <g id="Rectangle-49">
                            <use fill="#A5CBEA" fill-rule="evenodd" xlink:href="#path-8"></use>
                            <rect stroke="#00A2F2" stroke-width="1" x="407.988995" y="372.532311" width="11.8636558" height="292.331896"></rect>
                        </g>
                        <polygon id="Line" stroke="#263345" fill="#A5CBEA" stroke-linecap="square" points="322.06645 298.726204 330.286305 298.32168 329.79272 117.872376 302.706111 117.907093 304.751611 298.074136 311.864685 298.078664"></polygon>
                        <polygon id="Line" stroke="#263345" fill="#A5CBEA" stroke-linecap="square" points="367.547932 344.083395 367.547932 328.57516 321.625242 319.747982 321.625242 331.915688"></polygon>
                        <polygon id="Line" stroke="#263345" fill="#A5CBEA" stroke-linecap="square" points="368.552755 346.341763 368.552755 329.914379 352.186917 329.914379 352.186917 346.341763"></polygon>
                        <polygon id="Line" stroke="#263345" fill="#A5CBEA" stroke-linecap="square" points="318.78815 319.747982 367.751027 329.630104 351.385188 329.630104 308.527382 321.086136"></polygon>
                        <polygon id="Line" stroke="#263345" fill="#A5CBEA" stroke-linecap="square" points="351.539436 345.535737 351.539436 330.027502 305.616746 321.200324 305.616746 333.368031"></polygon>
                        <path d="M175.07232,608.389411 C163.127728,605.531191 148.166523,596.269088 136.036034,594.297016 C133.154519,593.828564 130.39986,596.439179 128.81179,596.369512 C127.223719,596.299846 124.709022,594.643121 122.765465,594.297016 C122.765465,594.297016 114.92823,609.472513 119.108054,614.272491 C123.287878,619.072469 143.541466,617.511783 147.559292,618.292759 C151.405165,619.040311 175.942977,619.731317 182.294688,618.292759 C188.646398,616.854201 183.685769,610.450523 175.07232,608.389411 Z" id="Path-173" stroke="#979797" fill="#F3F3F3"></path>
                        <path d="M135.778738,631.626891 C123.834147,628.76867 108.872942,619.506568 96.7424526,617.534496 C93.8609378,617.066044 91.1062783,619.676659 89.5182081,619.606992 C87.9301378,619.537326 85.4154405,617.880601 83.471883,617.534496 C83.471883,617.534496 75.6346488,632.709993 79.8144726,637.509971 C83.9942964,642.309949 104.247885,640.749263 108.265711,641.530239 C112.111584,642.27779 136.649396,642.968796 143.001106,641.530239 C149.352816,640.091681 144.392187,633.688003 135.778738,631.626891 Z" id="Path-173" stroke="#979797" fill="#F3F3F3"></path>
                        <path d="M335.450762,323.378838 L335.450762,304.498386" id="Line" stroke="#A5CBEA" stroke-width="5" stroke-linecap="square"></path>
                        <polygon id="Line" stroke="#263345" fill="#A5CBEA" stroke-linecap="square" points="326.002049 117.872376 373.036247 124.842204 346.195717 124.842204 302.706111 117.872376"></polygon>
                        <polygon id="Line" stroke="#263345" fill="#DAE6EF" stroke-linecap="square" points="322.874399 302.114024 348.6288 309.062853 348.6288 124.877424 302.706111 119.324719 302.706111 297.305643"></polygon>
                        <polygon id="Line" stroke="#263345" fill="#A5CBEA" stroke-linecap="square" points="365.725985 308.320862 373.94584 307.91112 373.452255 125.134089 346.365646 125.169253 348.411146 307.660382 355.52422 307.664969"></polygon>
                        <path d="M293.83636,348.532161 L329.033551,345.379282 L287.226855,331.897064 C287.226855,331.897064 251.253204,329.99411 248.85935,333.397522 C262.195205,339.255768 293.83636,348.532161 293.83636,348.532161 Z" id="Path-191" stroke="#263345" fill="#A5CBEA"></path>
                        <path d="M264.867847,335.723749 L268.034222,337.234643" id="Path-192" stroke="#263345"></path>
                        <path d="M269.2338,335.723749 L272.400176,337.234643" id="Path-192" stroke="#263345"></path>
                        <path d="M275.055072,335.723749 C276.11053,336.22738 277.165989,336.731011 278.221447,337.234643" id="Path-192" stroke="#263345"></path>
                        <path d="M280.876343,335.723749 C281.931801,336.22738 282.98726,336.731011 284.042718,337.234643" id="Path-192" stroke="#263345"></path>
                        <path d="M286.697614,335.723749 L289.86399,337.234643" id="Path-192" stroke="#263345"></path>
                        <path d="M272.144436,338.628434 C273.199894,339.132065 274.255353,339.635696 275.310811,340.139327" id="Path-192" stroke="#263345"></path>
                        <path d="M276.510389,338.628434 C277.565848,339.132065 278.621306,339.635696 279.676765,340.139327" id="Path-192" stroke="#263345"></path>
                        <path d="M282.331661,338.628434 C283.387119,339.132065 284.442578,339.635696 285.498036,340.139327" id="Path-192" stroke="#263345"></path>
                        <path d="M288.152932,338.628434 L291.319308,340.139327" id="Path-192" stroke="#263345"></path>
                        <path d="M293.974203,338.628434 C295.029662,339.132065 296.085121,339.635696 297.140579,340.139327" id="Path-192" stroke="#263345"></path>
                        <path d="M280.876343,341.533119 L284.042718,343.044012" id="Path-192" stroke="#263345"></path>
                        <path d="M285.242296,341.533119 C286.297755,342.03675 287.353213,342.540381 288.408672,343.044012" id="Path-192" stroke="#263345"></path>
                        <path d="M291.063568,341.533119 L294.229943,343.044012" id="Path-192" stroke="#263345"></path>
                        <path d="M296.884839,341.533119 L300.051215,343.044012" id="Path-192" stroke="#263345"></path>
                        <path d="M302.706111,341.533119 L305.872486,343.044012" id="Path-192" stroke="#263345"></path>
                        <path d="M74.6271027,396.722133 C73.66503,444.514715 51.3809923,574.401033 63.0304103,574.892813 L74.6271027,577.925758 C81.7177931,578.225091 94.1769942,583.139139 95.8538321,576.278452 C100.378662,557.765369 92.6552064,531.966661 93.1444812,506.725442 C93.633756,481.484222 95.5790074,486.708064 95.8538321,477.98262 C96.0884716,470.53302 95.6781727,450.843561 102.225291,442.294861 C104.739282,439.012293 96.2502054,556.701706 102.225291,596.084844 C102.608855,598.613003 123.212132,601.331934 125.776458,601.162071 C137.570318,600.380837 125.02646,487.654959 136.633049,464.264355 C143.76217,449.897134 146.705232,427.454347 143.390271,411.043129 C140.075311,394.631912 137.330537,402.631137 136.633049,396.722133 L74.6271027,396.722133 Z" id="Path-105" stroke="#00A2F2" fill="#263345" transform="translate(102.208282, 498.945888) scale(-1, 1) translate(-102.208282, -498.945888) "></path>
                        <path d="M26.1957211,257.072478 C31.0290813,263.701326 30.7892597,283.391899 30.7892597,283.391899 C30.7892597,283.391899 48.3822898,309.34594 48.1313189,338.342796 C47.8803479,367.339652 29.9069361,430.391994 33.550138,430.997688 C39.7083187,432.021506 61.7643676,348.989305 61.7643676,338.340995 C61.7643676,323.531577 48.5654382,285.592745 48.1313189,275.729295 C47.6971995,265.865845 44.8739793,277.462249 48.1313189,266.913709 C51.8335799,254.92434 35.4245368,247.460769 33.550138,245.678515" id="Path-116" stroke="#FF939F" fill="#FF939F" transform="translate(43.980044, 338.342796) scale(-1, 1) translate(-43.980044, -338.342796) "></path>
                        <path d="M47.375011,405.436188 C44.1514267,418.067292 42.6581298,444.869091 55.066017,415.963425" id="Path-176" stroke="#263345" transform="translate(50.090435, 417.164627) scale(-1, 1) translate(-50.090435, -417.164627) "></path>
                        <path d="M54.57311,217.74569 C47.982342,223.569462 41.8287032,225.867227 36.2175279,236.475691 C30.6063527,247.084154 28.994225,275.465795 36.2175279,276.372635 L39.2081826,286.330763 C76.3964993,290.999523 72.04872,269.526827 64.8940051,247.03751" id="Path-172" stroke="#00A2F2" fill="#FFFFFF" transform="translate(50.554580, 252.360486) rotate(9.000000) translate(-50.554580, -252.360486) "></path>
                        <path d="M314.348653,187.584816 C327.569863,187.98166 320.576511,186.912711 335.170793,191.690685" id="Path-193" stroke="#00A2F2" stroke-width="6" stroke-linecap="round"></path>
                        <path d="M314.348653,199.203555 C327.569863,199.6004 320.576511,198.531451 335.170793,203.309425" id="Path-193" stroke="#00A2F2" stroke-width="6" stroke-linecap="round"></path>
                        <path d="M314.348653,212.274638 C327.569863,212.671482 320.576511,211.602533 335.170793,216.380507" id="Path-193" stroke="#00A2F2" stroke-width="6" stroke-linecap="round"></path>
                        <path d="M325.111111,191.941843 L325.111111,210.096124" id="Line" stroke="#00A2F2" stroke-width="7" stroke-linecap="square"></path>
                    </g>
                </g>
            </g>
        </g>
    </g>
</svg>