<?xml version="1.0" encoding="UTF-8"?>
<svg width="227px" height="454px" viewBox="0 0 227 454" version="1.1" xmlns="http://www.w3.org/2000/svg" xmlns:xlink="http://www.w3.org/1999/xlink">
    <!-- Generator: Sketch 44.1 (41455) - http://www.bohemiancoding.com/sketch -->
    <title>Group 10</title>
    <desc>Created with Sketch.</desc>
    <defs></defs>
    <g id="MVP-SESSIONS" stroke="none" stroke-width="1" fill="none" fill-rule="evenodd">
        <g id="Group-10" transform="translate(0.000000, -41.000000)">
            <ellipse id="Oval-5" fill="#E7EBEE" cx="66.0145889" cy="484.413717" rx="66.0145889" ry="10.5862832"></ellipse>
            <ellipse id="Oval-5" fill="#E7EBEE" cx="185.278515" cy="484.413717" rx="32.0954907" ry="10.5862832"></ellipse>
            <g id="Group-9" transform="translate(117.029785, 254.422245) rotate(40.000000) translate(-117.029785, -254.422245) translate(60.029785, 186.922245)">
                <path d="M92.1818139,12.1244852 C92.1818139,9.18693703 86.6983849,9.32356004 85.5739561,12.1244852 C83.0852179,18.3238722 72.8997624,43.7939655 59.3938241,65.5449473 C45.8878858,87.2959291 27.1709301,108.36803 23.8124112,116.29228 C17.3075161,131.64024 28.4184052,122.63445 28.4184052,122.63445 C28.4184052,122.63445 46.8096831,98.2831722 69.0698833,62.3433052 C91.3300834,26.4034383 92.1818139,25.0712063 92.1818139,12.1244852 Z" id="Path-116" stroke="#FF939F" fill="#FF939F" transform="translate(56.975767, 67.616021) scale(-1, 1) rotate(-25.000000) translate(-56.975767, -67.616021) "></path>
                <path d="M64.2439373,131.959741 C51.7261076,119.203477 50.3792089,122.725506 68.1399412,121.339443" id="Path-108" stroke="#263345" transform="translate(61.478613, 126.649592) scale(-1, 1) rotate(-110.000000) translate(-61.478613, -126.649592) "></path>
            </g>
            <g id="Group-36" transform="translate(162.285250, 116.625803) rotate(-25.000000) translate(-162.285250, -116.625803) translate(79.785250, 26.625803)">
                <path d="M78.5463913,27.763086 C80.8501017,30.4087747 100.836132,34.0883372 113.955626,59.4436291 C127.07512,84.7989209 131.179626,54.4553798 128.962426,63.1042436 C126.325356,73.3909333 108.682885,64.073545 104.856635,61.3394143 C94.6640032,54.0560465 87.3233542,60.5356382 77.5103561,61.897666 C75.2255619,62.2147916 64.178359,58.7766934 58.6753408,61.7586292 C53.1723226,64.740565 47.3496325,91.6355641 45.2451076,100.077933 C40.8922067,117.539736 40.9892695,154.879397 37.4933327,163.161061 C33.9973958,171.442725 31.8736273,163.156912 27.1526452,162.97867 C18.4381524,162.649651 19.5114994,111.508375 28.1514561,70.7775019 C29.4214567,64.7904076 26.3256557,55.6819923 25.6192286,48.6058757 C24.9128016,41.5297591 21.1210898,33.4119208 23.9716409,25.1062736 C26.8221921,16.8006264 33.9003,14.3582155 37.7563543,13.2419479 C43.1797651,11.6719551 75.2563313,23.9846273 78.5463913,27.763086 Z" id="Path-90" fill="#FF6482" transform="translate(75.326440, 89.969296) rotate(18.000000) translate(-75.326440, -89.969296) "></path>
                <g id="Group-38" transform="translate(121.682705, 76.864379) rotate(-42.000000) translate(-121.682705, -76.864379) translate(103.182705, 33.864379)">
                    <path d="M1.29235949,9.90525218 C12.9658678,25.9441635 15.9283584,40.225458 13.200574,60.6651384 C12.0818479,69.0479139 7.02447716,85.2740933 7.02447716,85.2740933 C7.02447716,85.2740933 20.9990794,75.8479639 27.2494613,70.2352875 C40.9357086,57.9454022 45.0655995,-12.3045307 3.73837112,10.6061506 L1.29235949,9.90525218 Z" id="Path-109" fill="#263345"></path>
                    <path d="M35.5120185,24.2495027 C34.8749576,4.71313141 27.3402044,-2.47805811 3.73837112,10.6061506 L1.29235949,9.90525218 C7.44516168,18.3589446 11.1779826,26.3243589 12.9331338,34.9605941 C12.9331338,34.9605941 16.8796432,26.2505701 21.0978754,24.2495027 C25.3161076,22.2484352 35.5120185,24.2495027 35.5120185,24.2495027 Z" id="Path-109" fill="#FF939F"></path>
                    <path d="M34.0762257,15.7340933 C33.049212,-1.28027686 23.6796763,0.233995557 0.0778429699,7.82191258 C0.0778429699,7.82191258 7.91683644,18.6486255 9.67198771,23.657032 C9.67198771,23.657032 13.219115,16.8945711 17.4373472,15.7340933 C21.6555794,14.5736155 34.0762257,15.7340933 34.0762257,15.7340933 Z" id="Path-109" fill="#FFC7CE"></path>
                    <path d="M26.5928843,28.7873125 C15.1660337,7.28160896 22.8315851,15.1313209 5.49615084,3.52463167" id="Path-110" stroke="#263345" stroke-width="3" transform="translate(16.044518, 16.155972) rotate(-158.000000) translate(-16.044518, -16.155972) "></path>
                </g>
                <ellipse id="Oval-27" fill="#263345" cx="77.0783089" cy="30.9465431" rx="3.66052815" ry="3.65762832"></ellipse>
                <ellipse id="Oval-27" fill="#263345" cx="88.0598933" cy="29.1177289" rx="3.66052815" ry="3.65762832"></ellipse>
            </g>
            <path d="M124.405974,235.497923 C126.331208,247.169769 130.20065,258.684162 130.181675,270.513459 C130.165962,280.308188 121.43388,305.184339 119.079066,308.369377 C118.611226,309.002161 129.244608,308.369377 130.181675,307.157282 C131.118741,305.945187 137.380826,276.342568 138.112221,274.162004 C141.883928,262.917117 136.53196,237.777216 135.294234,232.098989" id="Path-112" fill="#FF939F"></path>
            <g id="Group-35" transform="translate(81.912449, 159.189879)" stroke="#00A2F2">
                <g id="Group-39" transform="translate(0.000000, 0.000000)">
                    <path d="M33.5175615,155.898515 C41.3126152,160.889791 50.0016147,153.396439 57.6301635,151.095069 C66.2932618,148.481598 62.5644074,87.168384 62.1042411,77.9039017 C61.7342629,70.4551658 70.2540666,66.2749198 70.1931916,58.8349436 C70.1323166,51.3949674 64.6056897,37.0439231 65.3914926,38.6589687 C67.8422432,43.6959491 68.2304942,52.8083843 71.045066,50.7266237 C72.7429144,49.4708327 76.9469476,54.2824816 80.0510239,45.3513478 C83.1551001,36.4202139 70.038825,14.988623 68.8311207,13.8452787 C58.0160489,3.60655508 58.3670686,5.96575883 55.685968,6.22980817 C53.0048674,6.49385751 53.6638313,15.7200221 36.6985386,12.845542 C33.9817209,12.3852234 32.5472167,6.36538809 29.2052975,4.13265694 C27.6543697,3.09648438 20.3200695,3.22194917 17.2818903,8.42244157 C14.243711,13.622934 14.6749933,25.7421502 15.419081,26.1712804 C16.0178149,26.5165821 13.2449577,94.1544462 10.6249711,122.219825 C9.86281837,130.384028 6.62371904,146.922145 9.14624786,151.601041 C11.6687767,156.279937 32.3575877,155.155769 33.5175615,155.898515 Z" id="Path-89" fill="#FFFFFF" transform="translate(44.362882, 80.599314) rotate(-366.000000) translate(-44.362882, -80.599314) "></path>
                    <path d="M32.8264918,67.1067531 C51.030192,75.3883538 43.2995471,70.0539777 56.591896,82.0052536" id="Path-113"></path>
                </g>
            </g>
            <path d="M119.064078,49.1167368 C120.314549,50.2850735 122.566252,49.4926011 123.816723,50.6609377 C125.067193,51.8292744 124.856645,54.5288354 125.877223,55.4823797" id="Path-114" stroke="#263345" transform="translate(122.470651, 52.299558) scale(-1, 1) translate(-122.470651, -52.299558) "></path>
            <path d="M129.091421,42.4222641 C130.341891,43.5906008 132.593595,42.7981284 133.844065,43.9664651 C135.094536,45.1348017 134.883988,47.8343627 135.904566,48.787907" id="Path-114" stroke="#263345" transform="translate(132.497994, 45.605086) scale(-1, 1) translate(-132.497994, -45.605086) "></path>
            <path d="M149.146107,74.778882 C160.869375,78.3166547 159.866723,74.5357758 156.448073,83.9688011" id="Path-115" stroke="#3C3C3C" stroke-width="2" transform="translate(153.940070, 79.373842) scale(-1, 1) translate(-153.940070, -79.373842) "></path>
            <g id="Group-6" transform="translate(170.211438, 446.471633) rotate(23.000000) translate(-170.211438, -446.471633) translate(143.711438, 426.471633)">
                <path d="M4.98119618,0.417573384 C11.0467214,57.6203107 15.2736173,30.5965383 15.7406788,1.40867566" id="Path-106" fill="#FF939F" transform="translate(10.360937, 17.215411) scale(-1, 1) translate(-10.360937, -17.215411) "></path>
                <path d="M44.3088129,31.3705678 C35.1643796,29.1747726 23.7105143,22.0592686 14.4237632,20.5442472 C12.2177588,20.1843642 10.1088714,22.1899392 8.89309075,22.1364186 C7.67731014,22.0828979 5.75213071,20.8101382 4.26419933,20.5442472 C4.26419933,20.5442472 -1.73576021,32.2026483 1.46419187,35.8901763 C4.66414394,39.5777044 20.1697045,38.3787252 23.2456359,38.9787009 C26.1899248,39.552999 44.9753632,40.0838565 49.8380487,38.9787009 C54.7007342,37.8735453 50.90302,32.9539932 44.3088129,31.3705678 Z" id="Path-173" stroke="#979797" fill="#F3F3F3"></path>
            </g>
            <g id="Group-7" transform="translate(87.238789, 469.395728) rotate(6.000000) translate(-87.238789, -469.395728) translate(61.238789, 451.895728)">
                <path d="M3.69218052,0.485395812 C9.75770571,35.6620915 13.9846016,19.0438829 14.4516631,1.09487195" id="Path-106" fill="#FF939F" transform="translate(9.071922, 10.815189) scale(-1, 1) translate(-9.071922, -10.815189) "></path>
                <path d="M44.1339464,25.859663 C34.9895132,23.6638678 23.5356478,16.5483638 14.2488967,15.0333424 C12.0428924,14.6734594 9.93400489,16.6790345 8.71822428,16.6255138 C7.50244368,16.5719931 5.57726425,15.2992334 4.08933287,15.0333424 C4.08933287,15.0333424 -1.91062667,26.6917435 1.2893254,30.3792716 C4.48927747,34.0667996 19.9948381,32.8678204 23.0707695,33.4677961 C26.0150583,34.0420942 44.8004967,34.5729517 49.6631822,33.4677961 C54.5258678,32.3626405 50.7281536,27.4430884 44.1339464,25.859663 Z" id="Path-173" stroke="#979797" fill="#F3F3F3"></path>
            </g>
            <path d="M105.364728,304.622443 C105.120419,316.801219 58.7075451,336.383673 56.4150688,356.51098 C54.1225925,376.638287 83.2642717,433.753142 89.2244658,434.005628 C89.2244658,434.005628 99.657901,433.865073 100.94164,428.59443 C104.405718,414.371966 86.7725176,412.189153 87.1470922,392.797876 C87.5216668,373.406599 83.4726574,371.547831 83.6830553,364.844609 C83.8626885,359.121539 110.677758,348.886134 115.690042,342.318693 C117.614681,339.796899 163.181112,427.524913 167.755464,457.780557 C168.04911,459.722786 194.365177,457.911053 196.32835,457.780557 C205.357388,457.180384 149.12215,371.778077 158.007819,353.808514 C163.465667,342.771062 160.545657,328.232113 158.007819,315.624384 C155.469981,303.016655 153.368662,309.161967 152.834685,304.622443 L105.364728,304.622443 Z" id="Path-105" stroke="#00A2F2" fill="#263345" transform="translate(126.800230, 381.647975) scale(-1, 1) translate(-126.800230, -381.647975) "></path>
            <g id="Group-8" transform="translate(127.746793, 253.921213) rotate(-33.000000) translate(-127.746793, -253.921213) translate(102.746793, 177.921213)">
                <path d="M21.0752163,8.97536645 C24.7754969,14.0679029 24.5918965,29.1949599 24.5918965,29.1949599 C24.5918965,29.1949599 38.0606109,49.1338534 37.8684748,71.4103553 C37.6763387,93.6868573 -2.21960371,146.065427 0.491928648,148.135858 C10.1191608,155.486876 48.3055421,79.5894134 48.3055421,71.4089722 C48.3055421,60.0318064 38.200824,30.8857341 37.8684748,23.3082521 C37.5361256,15.7307701 35.3747499,24.639574 37.8684748,16.5357795 C40.7028186,7.32508399 28.1405304,1.59128179 26.7055449,0.222085207" id="Path-116" stroke="#FF939F" fill="#FF939F" transform="translate(24.332634, 74.429309) scale(-1, 1) translate(-24.332634, -74.429309) "></path>
                <path d="M39.3603119,133.412145 C36.8924291,143.115845 35.7492042,163.70602 45.2483233,141.499574" id="Path-176" stroke="#263345" transform="translate(41.439162, 142.422384) scale(-1, 1) rotate(35.000000) translate(-41.439162, -142.422384) "></path>
            </g>
            <path d="M110.658621,170.339328 C108.725235,172.053671 101.370407,166.967455 95.767363,168.431468 C90.1643189,169.895482 78.4282683,179.886468 75.7785404,184.913487 C71.4827871,193.063318 70.2485888,214.867187 75.7785404,215.563857 L78.068099,223.214074 C106.538397,226.800795 105.976476,211.572158 100.499033,194.294999" id="Path-172" stroke="#00A2F2" fill="#FFFFFF" transform="translate(91.369051, 195.952820) rotate(-23.000000) translate(-91.369051, -195.952820) "></path>
        </g>
    </g>
</svg>