<?xml version="1.0" encoding="UTF-8"?>
<svg width="247px" height="299px" viewBox="0 0 247 299" version="1.1" xmlns="http://www.w3.org/2000/svg" xmlns:xlink="http://www.w3.org/1999/xlink">
    <!-- Generator: Sketch 44.1 (41455) - http://www.bohemiancoding.com/sketch -->
    <title>Group 2</title>
    <desc>Created with Sketch.</desc>
    <defs>
        <rect id="path-1" x="14.6111111" y="150.502283" width="216.244444" height="118.356164"></rect>
    </defs>
    <g id="Page-1" stroke="none" stroke-width="1" fill="none" fill-rule="evenodd">
        <g id="Group-2" transform="translate(-4.000000, -17.000000)">
            <g id="Group-6">
                <g id="Group-4" transform="translate(130.971489, 159.363528) rotate(3.000000) translate(-130.971489, -159.363528) translate(7.971489, 6.363528)">
                    <polygon id="Rectangle-27" fill="#FFF0D7" transform="translate(146.505682, 151.692453) rotate(16.000000) translate(-146.505682, -151.692453) " points="134.086237 6.00288327 157.795678 -2.16135708 158.925126 305.546262 134.086237 305.546262"></polygon>
                    <polygon id="Rectangle-27" fill="#F6E5C9" transform="translate(136.613889, 184.840183) rotate(16.000000) translate(-136.613889, -184.840183) " points="149.033333 64.2922374 149.033333 305.388128 124.194444 305.388128"></polygon>
                    <g id="Rectangle-28" transform="translate(122.733333, 209.680365) rotate(22.000000) translate(-122.733333, -209.680365) ">
                        <use fill="#FFFFFF" fill-rule="evenodd" xlink:href="#path-1"></use>
                        <rect stroke="#CCCCCC" stroke-width="1" x="15.1111111" y="151.002283" width="215.244444" height="117.356164"></rect>
                    </g>
                </g>
                <path d="M130.989425,17.8706108 C130.989425,60.6359133 128.148918,85.4581871 157.700409,118.176522 C164.327829,125.51416 195.115494,147.664452 200.468332,127.15269 C201.474271,123.297989 199.501952,116.141961 196.913918,113.228594 C186.935837,101.996208 175.000004,92.5547512 165.44379,80.9612956 C148.988054,60.9974454 147.868126,43.4453435 146.283061,18.6431498" id="Path-184" fill="#FF939F"></path>
                <path d="M164.790354,123.867415 C183.020567,137.447105 212.518307,132.675945 185.100082,107.86805" id="Path-185" stroke="#263345" stroke-width="2"></path>
            </g>
            <g id="Group" transform="translate(125.501329, 219.821253) rotate(22.000000) translate(-125.501329, -219.821253) translate(53.001329, 177.321253)" stroke="#FF939F" stroke-width="2">
                <path d="M27.5268183,18.2384611 C26.1180575,21.4242428 23.6493024,25.2193137 25.0964033,29.0437486 C26.6306282,33.098437 31.3618566,34.273342 33.4541485,30.5293123 C37.5398089,23.2182705 33.180904,10.5853968 25.1304684,19.0877279" id="Path-61"></path>
                <path d="M91.8618076,16.59635 C90.4530468,19.7821317 87.9842916,23.5772026 89.4313925,27.4016375 C90.9656175,31.4563259 95.6968458,32.6312309 97.7891378,28.8872012 C101.874798,21.5761594 97.5158933,8.94328571 89.4654577,17.4456168" id="Path-61"></path>
                <path d="M91.8618076,56.9529493 C90.4530468,60.138731 87.9842916,63.9338018 89.4313925,67.7582367 C90.9656175,71.8129251 95.6968458,72.9878302 97.7891378,69.2438004 C101.874798,61.9327587 97.5158933,49.299885 89.4654577,57.8022161" id="Path-61"></path>
                <path d="M126.066493,70.1195912 L131.089063,72.1374212" id="Line" stroke-linecap="square"></path>
                <path d="M107.93403,16.59635 C106.525269,19.7821317 104.056514,23.5772026 105.503615,27.4016375 C107.03784,31.4563259 111.769068,32.6312309 113.86136,28.8872012 C117.94702,21.5761594 113.588115,8.94328571 105.53768,17.4456168" id="Path-61"></path>
                <path d="M40.4134074,16.8376493 C42.7195936,45.488122 48.0692139,28.2302662 49.7278646,16.4021636" id="Path-62"></path>
                <path d="M78.2598258,0.8091117 C77.4261321,19.4172502 69.8471187,26.5633704 83.4829263,30.6957491" id="Path-2"></path>
                <path d="M122.096364,1.77702533 C121.95895,11.1746288 121.821537,20.5722322 121.684123,29.9698357" id="Path-3"></path>
                <path d="M122.752895,16.0943948 C125.394287,13.0901172 128.03568,10.0858395 130.677073,7.08156192" id="Path-4"></path>
                <path d="M122.310118,17.1720312 C125.153698,21.0113726 127.997278,24.8507139 130.840858,28.6900552" id="Path-5"></path>
                <path d="M78.5358055,42.2029531 C75.1860898,63.999157 67.2111184,70.5210029 85.5562989,69.8753105" id="Path-6"></path>
                <polyline id="Path-7" points="72.6003649 52.5928708 75.4036832 52.5928708 76.3190308 52.5928708 79.5063073 52.5928708 80.1395199 52.5928708 80.2784661 52.5928708 80.3484695 52.5928708 80.4184729 52.5928708 80.4842337 52.5928708 80.7090931 52.5928708 80.9180427 52.5928708 80.9880461 52.5928708 81.0580495 52.5928708 81.1227497 52.5928708"></polyline>
                <path d="M112.067629,56.488283 C98.9486095,56.8455951 108.142513,77.8506339 110.148889,71.4182406 C113.086771,61.9994598 113.831037,52.027412 115.672112,42.3319976" id="Path-8"></path>
                <path d="M137.099508,56.7104639 C137.099508,60.6240629 133.822912,70.5692535 137.099508,68.4512609 L140.362877,70.0376251 C142.002302,68.9779005 142.629888,62.7821991 142.861938,64.7264247 L143.448346,55.7991081 C145.354985,71.7738363 143.251682,85.9828243 124.603262,83.7731948" id="Path-9"></path>
                <path d="M14.4044883,34.3297456 C14.4044883,9.8625218 19.0934862,19.8607667 0.477046234,4.26938814" id="Path-41"></path>
                <path d="M15.4230655,15.2094823 C18.4753537,11.6201962 21.5276418,8.03091015 24.57993,4.44162407" id="Path-63"></path>
                <path d="M25.4429713,55.61344 C25.4429713,63.3563466 25.0837368,72.9973968 34.6656071,66.3944111" id="Path-65"></path>
                <path d="M40.867912,54.2182555 C31.885755,56.4749212 37.7417758,67.4310073 45.9571992,67.1731505" id="Path-66"></path>
                <path d="M51.0518798,60.7709161 C57.5496117,59.5431167 53.8036417,53.0493609 50.2200529,56.7666783 C43.8549104,63.3693483 55.2030968,65.4196877 58.245983,65.6218721" id="Path-67"></path>
                <path d="M6.35618736,56.1970483 C6.35618736,97.9000068 7.9009562,40.4326533 15.4087315,57.871986 C16.7168257,60.9104749 16.8898586,64.3234358 17.6304221,67.5491607" id="Path-64"></path>
                <path d="M25.2792766,47.5802659 C25.3236304,48.9674664 25.3679842,50.3546668 25.4123381,51.7418673" id="Path-68"></path>
                <path d="M125.813966,68.7044809 C123.860402,69.3100933 121.441443,71.9293661 119.953274,70.5213183 C117.652209,68.344139 119.580272,58.3456688 121.221644,56.0913781 C121.923703,55.1271584 124.193333,53.9487638 124.637717,55.0567902 C126.214739,58.9889356 125.467563,63.4940727 125.882486,67.712714 L125.813966,68.7044809 Z" id="Path-69"></path>
            </g>
        </g>
    </g>
</svg>