<?xml version="1.0" encoding="UTF-8"?>
<svg width="247px" height="299px" viewBox="0 0 247 299" version="1.1" xmlns="http://www.w3.org/2000/svg" xmlns:xlink="http://www.w3.org/1999/xlink">
    <!-- Generator: Sketch 44.1 (41455) - http://www.bohemiancoding.com/sketch -->
    <title>Group 20</title>
    <desc>Created with Sketch.</desc>
    <defs>
        <rect id="path-1" x="14.6111111" y="150.502283" width="216.244444" height="118.356164"></rect>
    </defs>
    <g id="Page-1" stroke="none" stroke-width="1" fill="none" fill-rule="evenodd">
        <g id="Group-20" transform="translate(-4.000000, -17.000000)">
            <g id="Group-2">
                <g id="Group-6">
                    <g id="Group-4" transform="translate(130.971489, 159.363528) rotate(3.000000) translate(-130.971489, -159.363528) translate(7.971489, 6.363528)">
                        <polygon id="Rectangle-27" fill="#FFF0D7" transform="translate(146.505682, 151.692453) rotate(16.000000) translate(-146.505682, -151.692453) " points="134.086237 6.00288327 157.795678 -2.16135708 158.925126 305.546262 134.086237 305.546262"></polygon>
                        <polygon id="Rectangle-27" fill="#F6E5C9" transform="translate(136.613889, 184.840183) rotate(16.000000) translate(-136.613889, -184.840183) " points="149.033333 64.2922374 149.033333 305.388128 124.194444 305.388128"></polygon>
                        <g id="Rectangle-28" transform="translate(122.733333, 209.680365) rotate(22.000000) translate(-122.733333, -209.680365) ">
                            <use fill="#FFFFFF" fill-rule="evenodd" xlink:href="#path-1"></use>
                            <rect stroke="#CCCCCC" stroke-width="1" x="15.1111111" y="151.002283" width="215.244444" height="117.356164"></rect>
                        </g>
                    </g>
                    <path d="M130.989425,17.8706108 C130.989425,60.6359133 128.148918,85.4581871 157.700409,118.176522 C164.327829,125.51416 195.115494,147.664452 200.468332,127.15269 C201.474271,123.297989 199.501952,116.141961 196.913918,113.228594 C186.935837,101.996208 175.000004,92.5547512 165.44379,80.9612956 C148.988054,60.9974454 147.868126,43.4453435 146.283061,18.6431498" id="Path-184" fill="#FF939F"></path>
                    <path d="M164.790354,123.867415 C183.020567,137.447105 212.518307,132.675945 185.100082,107.86805" id="Path-185" stroke="#263345" stroke-width="2"></path>
                </g>
            </g>
            <g id="Group" transform="translate(127.195366, 215.539748) rotate(23.000000) translate(-127.195366, -215.539748) translate(56.195366, 176.039748)" stroke="#FF939F">
                <path d="M9.24573642,2.069203 C20.3417899,-3.96886996 26.5094077,7.03898254 17.3920463,14.5822591 C16.4562492,15.3564936 25.779954,12.1579373 21.2241044,26.2110905 C19.2338765,32.3502256 9.29218198,32.0960816 5.86613305,28.6575874 L9.24573642,2.069203 Z" id="Path-71" stroke-width="2"></path>
                <path d="M31.1132636,21.1962736 C40.2039635,19.396655 32.1306831,15.3049155 31.7897953,15.7268265 C25.0593085,24.0570328 29.9688246,26.5781025 35.9410261,28.2092126" id="Path-70" stroke-width="2"></path>
                <path d="M99.1300703,24.7783631 C108.22077,22.9787445 100.14749,18.8870051 99.806602,19.3089161 C93.0761153,27.6391224 97.9856313,30.160192 103.957833,31.7913022" id="Path-70" stroke-width="2"></path>
                <path d="M57.9205941,16.938984 C55.331936,49.5219591 55.8073576,20.8907383 62.4326602,16.8318505 C63.6446076,16.0893699 66.0893249,16.3090127 66.6209791,17.6276993 C68.0665895,21.2133138 67.1529101,25.3421612 67.4188756,29.1993922" id="Path-72" stroke-width="2"></path>
                <path d="M88.9458042,63.5061481 C86.3571461,96.0891233 86.8325677,67.4579024 93.4578703,63.3990147 C94.6698177,62.6565341 97.114535,62.8761769 97.6461892,64.1948635 C99.0917996,67.780478 98.1781202,71.9093254 98.4440856,75.7665563" id="Path-72" stroke-width="2"></path>
                <path d="M74.1245195,17.2361519 C74.1683064,26.9242627 72.0904231,34.530502 80.5714206,27.2327273" id="Path-73" stroke-width="2"></path>
                <polyline id="Path-74" stroke-width="2" points="73.9302007 9.55223881 73.9302007 12.5126563 73.9302007 12.7868563 73.9302007 13.7163079"></polyline>
                <path d="M121.908604,19.1044776 C121.952391,28.7925884 119.874508,36.3988277 128.355506,29.101053" id="Path-73" stroke-width="2"></path>
                <polyline id="Path-74" stroke-width="2" points="121.714286 11.9402985 121.714286 14.900716 121.714286 15.174916 121.714286 16.1043676"></polyline>
                <path d="M88.4688108,18.375083 C79.5889215,20.4802261 84.8748705,31.3208646 93.1172585,29.9161663" id="Path-75" stroke-width="2"></path>
                <path d="M140.670049,5.97014925 C134.835754,5.97014925 134.89301,13.7606146 134.825192,18.1437364 C134.671799,28.0575255 135.968944,37.9726483 135.566089,47.8794276 C135.467571,50.3021382 128.87395,58.2622629 128.87395,52.2933984" id="Path-76" stroke-width="2"></path>
                <path d="M131.260504,25.2038904 C134.527207,25.1608026 137.79391,25.1177147 141.060613,25.0746269" id="Path-77" stroke-width="2"></path>
                <path d="M8.29822075,55.1196287 C11.9114034,78.4947108 17.2820295,52.3448208 18.0170346,54.991669 C21.0180075,65.7985593 12.9749373,78.4343515 2.2388521,77.7948024 C1.37021137,77.7430574 0.796562369,76.8202046 0.0754175027,76.3329058" id="Path-78" stroke-width="2"></path>
                <path d="M25.2781168,56.1923874 C24.114566,61.8972674 20.6812774,65.1196022 26.6882907,67.2214685 C32.1037171,69.1163373 29.854859,57.9496053 25.9858314,56.2502322" id="Path-79" stroke-width="2"></path>
                <path d="M34.099166,57.4837885 C34.2145413,70.2335027 38.2587827,71.5356186 41.326613,59.1825493" id="Path-80" stroke-width="2"></path>
                <path d="M64.7915846,59.2882041 C52.9420325,59.7569674 51.0202067,76.8393106 64.64989,75.9727396" id="Path-81" stroke-width="2"></path>
                <path d="M76.4469757,75.1244365 L82.4402939,77.5337857" id="Line" stroke-width="2" stroke-linecap="square"></path>
                <path d="M76.2735412,74.5227108 C73.9423976,75.1429219 71.0559085,77.8253339 69.2801105,76.3833442 C66.5343012,74.1536826 68.8350158,63.9141929 70.7936277,61.6055611 C71.6313777,60.6180983 74.3396761,59.4112977 74.8699493,60.5460337 C76.7517742,64.572966 75.8601857,69.1867024 76.3553039,73.5070367 L76.2735412,74.5227108 Z" id="Path-69" stroke-width="2"></path>
                <path d="M110.90808,31.4368972 C109.735745,34.0308625 108.563411,36.6248278 107.391077,39.218793" id="Path-82"></path>
            </g>
        </g>
    </g>
</svg>